<?xml version="1.0" encoding="utf-8"?>
<svg version="1.1" ixmlns="http://www.w3.org/2000/svg" xmlns:xlink="http://www.w3.org/1999/xlink" x="0px" y="0px"
	 viewBox="0 0 900 900" style="enable-background:new 0 0 900 900;" xml:space="preserve" title="twitter">
<path d="M450,0C201.5,0,0,201.5,0,450s201.5,450,450,450s450-201.5,450-450S698.6,0,450,0z M716.8,351.5c0.3,5.3,0.3,10.9,0.3,16.5
	c0,167.6-127.6,361.2-361.2,361.2c-71.8,0-138.5-20.9-194.7-57.1c10,1.2,20,1.8,30.3,1.8c59.7,0,114.1-20.3,157.6-54.4
	c-55.6-0.9-102.4-37.6-118.5-88.2c7.9,1.5,15.9,2.1,23.8,2.1c11.5,0,22.6-1.5,33.5-4.4c-58.2-11.5-101.8-62.9-101.8-124.4
	c0-0.6,0-0.9,0-1.5c17.1,9.7,36.8,15.3,57.6,15.9c-34.1-22.6-56.5-61.5-56.5-105.9c0-23.2,6.2-45,17.1-63.8
	c62.6,76.8,156.2,127.4,261.8,132.6c-2.1-9.4-3.2-19.1-3.2-29.1c0-70.3,56.8-127.1,127.1-127.1c36.5,0,69.7,15.3,92.6,40.3
	c29.1-5.6,56.2-16.2,80.6-30.9c-9.4,29.7-29.7,54.7-55.9,70.3c25.6-2.9,50.3-10,72.9-20C763,311.2,741.5,333.3,716.8,351.5z"/>
</svg>
