<?xml version="1.0" encoding="utf-8"?>
<!-- Generator: Adobe Illustrator 17.1.0, SVG Export Plug-In . SVG Version: 6.00 Build 0)  -->
<!DOCTYPE svg PUBLIC "-//W3C//DTD SVG 1.1//EN" "http://www.w3.org/Graphics/SVG/1.1/DTD/svg11.dtd">
<svg version="1.1" id="Layer_1" xmlns="http://www.w3.org/2000/svg" xmlns:xlink="http://www.w3.org/1999/xlink" x="0px" y="0px"
	 viewBox="0 0 100 100" enable-background="new 0 0 100 100" xml:space="preserve">
<g>
	<path fill="#707070" d="M30.2,55.1c-0.2,0-0.3-0.2-0.3-0.3c-0.1-0.2-0.2-0.4-0.2-0.6c-0.1-0.5-0.5-0.8-0.6-1.3
		c0-0.1-0.1-0.2-0.1-0.2c0-0.1-0.1-0.1,0-0.2c0.1-0.1,0.1,0.1,0.2,0.1c0-0.1-0.1-0.2-0.1-0.2c-0.2,0-0.3-0.2-0.3-0.3
		c0-0.2-0.1-0.3-0.2-0.5c-0.1-0.1-0.1-0.2-0.1-0.3c0.1-0.3,0-0.5-0.3-0.7c-0.3-0.1-0.3-0.4-0.4-0.7c0.2-0.2,0-0.4-0.1-0.6
		c0-0.1-0.1-0.2-0.1-0.3s0-0.1-0.1-0.2c0,0-0.1-0.1-0.2-0.1s-0.1,0.1-0.1,0.2l0,0c-0.1-0.1-0.2-0.3,0-0.4c0,0,0-0.1,0-0.2
		c-0.1-0.1-0.1,0-0.2,0s-0.2,0-0.2-0.1c0-0.2-0.1-0.3-0.2-0.4c-0.1-0.1-0.1-0.2,0.1-0.2c0.1,0,0-0.3-0.1-0.3c0,0-0.1,0-0.1,0.1v0.1
		c-0.1-0.1-0.1-0.3-0.2-0.4V47c0.1-0.2,0.1-0.3-0.1-0.5c-0.1,0,0,0.1-0.1,0.2H26c-0.2-0.5-0.5-0.9-0.6-1.5c0-0.2-0.3-0.2-0.4,0
		c-0.2,0.2-0.3,0.3-0.5,0.5c0,0.1-0.1,0.2-0.1,0.2c-0.1,0.1-0.1,0.3,0,0.4c0.2,0.4,0.4,0.9,0.6,1.3c0.2,0.3,0.4,0.7,0.6,1
		c0.2,0.4,0.4,0.8,0.5,1.2c0,0.2,0.2,0.3,0.2,0.4c0.3,0.6,0.6,1.2,0.8,1.8c0.2,0.4,0.4,0.8,0.6,1.2c0.1,0.2,0.2,0.5,0.3,0.7
		c0.1,0.2,0.2,0.3,0.3,0.4c0.2,0.5,0.5,1,0.7,1.5c0.1,0.2,0.2,0.3,0.2,0.5c0,0,0,0.1,0.1,0.1c0,0.1,0,0.1,0,0.2
		c-0.1,0-0.1,0-0.2-0.1c-0.2-0.2-0.3-0.4-0.3-0.6c-0.1-0.2-0.1-0.2-0.3-0.3c-0.1,0.1,0,0.2,0.1,0.3c-0.2-0.2-0.3-0.3-0.4-0.6
		c-0.1-0.2-0.2-0.4-0.3-0.6c-0.1-0.3-0.3-0.7-0.3-1c0-0.1-0.1-0.2-0.2-0.3c-0.4-0.2-0.5-0.6-0.7-1c-0.1-0.2-0.1-0.4-0.3-0.6
		c-0.1-0.1-0.1-0.2-0.1-0.3s-0.1-0.3-0.2-0.3C26,51.1,26,51,26.1,51c0-0.2,0-0.4-0.2-0.5c-0.1,0-0.1-0.1-0.1-0.2
		c0.1-0.2,0.1-0.4,0-0.5c-0.1-0.2-0.3-0.4-0.4-0.6c0-0.1,0-0.2-0.2-0.1c-0.1,0-0.1-0.1-0.2-0.2c0-0.1-0.1-0.2-0.2-0.3
		s-0.1-0.2,0-0.3c0,0,0.1-0.1,0-0.1c-0.2-0.2-0.1-0.5-0.3-0.7c-0.1-0.1-0.2-0.4-0.3-0.5c-0.1-0.1-0.1,0-0.2,0.1
		c-0.1-0.1-0.1-0.2-0.3-0.2c-0.1,0-0.2,0.1-0.3,0.2c-0.1,0.1-0.2,0.2-0.2,0.3c0,0.2-0.1,0.3-0.2,0.4c0,0.1,0,0.2,0.2,0.5
		s0.3,0.7,0.6,1.1c0.1,0.1,0.1,0.3,0.2,0.4c0.1,0.5,0.3,1,0.7,1.4c0.2,0.2,0.3,0.5,0.4,0.7c0.1,0.3,0.3,0.6,0.5,1
		c0.2,0.3,0.3,0.5,0.4,0.8c0.1,0.2,0.1,0.3,0.2,0.4c0.1,0.1,0.2,0.2,0.2,0.3c0.1,0.3,0.3,0.6,0.4,0.9c0,0.1,0.1,0.2,0.2,0.3
		c0,0.1,0.1,0.1,0.1,0.2c0,0.1,0,0.2-0.1,0.3s-0.2,0-0.2-0.1c-0.1-0.1-0.1-0.3-0.2-0.4c0-0.1,0-0.1-0.1-0.1c0,0.1,0.2,0.2,0.1,0.4
		c-0.1,0-0.1-0.1-0.2-0.1c-0.1-0.4-0.4-0.6-0.5-1c0-0.1-0.1-0.2-0.1-0.3s0-0.1-0.1-0.2c-0.3-0.3-0.3-0.7-0.5-1.1
		c0.1-0.1,0.1,0.1,0.2,0.1c0-0.3,0-0.3-0.2-0.4c-0.1,0-0.1,0-0.1-0.1c-0.2-0.3-0.3-0.7-0.6-1c-0.1-0.1-0.1-0.3,0-0.5
		c0.1-0.1,0-0.2-0.1-0.2c-0.2,0-0.2-0.2-0.2-0.3c0-0.2,0-0.2-0.1-0.3c-0.1,0-0.2,0-0.2-0.2c0-0.1,0.2,0,0.3-0.1c0-0.1,0-0.1,0-0.2
		c-0.1-0.2-0.1-0.2-0.2-0.1c0,0-0.1,0.1-0.1,0c-0.1-0.1-0.1-0.1,0-0.2c0,0,0.1,0,0.1-0.1s-0.1-0.1-0.1-0.1c-0.1,0-0.2-0.1-0.2-0.2
		c-0.1-0.3-0.3-0.5-0.4-0.8c0,0,0-0.1-0.1-0.1c-0.2-0.2-0.3-0.5-0.5-0.8c-0.1-0.1-0.1-0.2,0-0.3s0.1-0.1,0-0.2
		c-0.2-0.1-0.3-0.2-0.4-0.4c-0.2-0.2-0.2-0.2-0.4,0c-0.1,0.1-0.3,0.3-0.4,0.4c-0.1,0.1-0.1,0.2-0.2,0.3C21,47.7,21,48,21.2,48.3
		c0.2,0.5,0.4,1,0.6,1.5c0.1,0.2,0.2,0.4,0.3,0.5c0.2,0.2,0.2,0.4,0.3,0.6c0.1,0.2,0.2,0.5,0.3,0.7c0.3,0.4,0.4,0.9,0.7,1.3
		c0.1,0.2,0.2,0.4,0.3,0.7c0,0,0,0,0,0.1c0.3,0.3,0.3,0.8,0.5,1.1c0.1,0.2,0.1,0.3,0.2,0.5c0.1,0.1,0.1,0.2,0.1,0.3
		c0,0.2,0.1,0.3,0.2,0.4c0.1,0.1,0.1,0.2,0,0.3c-0.1,0-0.1,0.1-0.1,0.1c-0.1,0.2-0.2,0.2-0.3,0c-0.1-0.1-0.1-0.2-0.1-0.4
		c0-0.1,0-0.2-0.1-0.3c-0.4-0.5-0.6-1-0.8-1.6c-0.1-0.2-0.2-0.5-0.3-0.7c0-0.1-0.2-0.2-0.2-0.3c-0.1-0.2-0.1-0.4-0.2-0.6
		c0-0.1-0.1-0.3-0.2-0.4c-0.2-0.2-0.3-0.4-0.3-0.7c-0.1-0.3-0.2-0.5-0.4-0.7C21.1,51.1,21,51,21,50.9s0-0.1-0.1-0.2
		c-0.2-0.1-0.2-0.3-0.2-0.5c0-0.1,0-0.2-0.1-0.2c-0.2-0.2-0.2-0.4-0.3-0.6c-0.1-0.2-0.1-0.4-0.3-0.6c-0.1-0.1-0.2-0.1-0.3,0l0,0
		c-0.1,0-0.2,0.1-0.3,0c-0.1-0.1,0-0.2,0-0.3c0,0,0,0,0-0.1c0.1-0.2,0.3-0.3,0.2-0.5c-0.1-0.3-0.1-0.5-0.3-0.7
		c-0.1-0.1-0.2-0.1-0.3,0c-0.3,0.3-0.6,0.6-0.7,1c-0.1,0.2-0.2,0.3-0.4,0.4c-0.1,0.1-0.2,0.2-0.2,0.3c0,0.2-0.1,0.2-0.2,0.1
		c0,0,0,0-0.1,0h-0.1v0.1l0.1,0.1c0.2,0,0.2,0.2,0.4,0.2c-0.1,0.1-0.2,0.2-0.3,0.3c-0.1,0.1-0.2,0.1-0.2-0.1c0,0,0,0,0-0.1
		c0-0.2-0.1-0.4-0.2-0.5s0-0.2,0-0.3s0-0.3-0.2-0.3c-0.1,0-0.1-0.1-0.1-0.1c-0.1-0.2-0.2-0.3-0.2-0.5c0-0.1-0.1-0.2-0.2-0.3
		l-0.1-0.1c0-0.4-0.3-0.5-0.5-0.8c-0.1-0.1-0.2-0.1-0.3,0c-0.4,0.5-0.8,1-1.2,1.5c-0.1,0.2-0.1,0.3,0,0.5c0,0.1,0.2,0.2-0.1,0.2
		c-0.1,0-0.1,0.1,0,0.1c0,0.1,0.1,0.2,0,0.3c-0.1,0-0.1-0.1-0.1-0.1c-0.1-0.3-0.4-0.4-0.7-0.2c-0.1,0-0.2,0.1-0.2,0
		c-0.1-0.1-0.2-0.1-0.1-0.3c0.1-0.1,0.2-0.2,0.2-0.3c0.1-0.1,0.1-0.3,0.2-0.5c0-0.1-0.2-0.6-0.3-0.7C13,47,12.8,47,12.7,47.2
		c0,0.2-0.2,0.3-0.3,0.5c-0.1,0.1-0.2,0.2-0.2,0.4c0,0.1,0,0.1-0.1,0.2c-0.2,0.3-0.3,0.5-0.2,0.9c0.1,0.2,0.1,0.4,0.3,0.6
		c0,0.1,0,0.1,0,0.2c-0.1,0.2-0.1,0.4-0.1,0.5v0.1c0,0.1,0.1,0.2,0.2,0.2c0.1,0,0.1-0.1,0.2-0.2c0,0,0-0.1,0.1-0.1
		c0,0.1,0.1,0.3,0.1,0.4c-0.1,0-0.1,0-0.1,0.1c0,0,0,0.1,0.1,0.1V51c0.2,0.2,0.3,0.4,0.3,0.7c0,0.1,0,0.2,0.1,0.3
		c0.1,0,0.1,0.1,0.1,0.2c0,0.1,0,0.1-0.1,0.1v0.1c0.1,0.2,0,0.3,0.1,0.5c0.1,0.1,0.2,0.3,0.2,0.4c0,0.1,0.1,0.2,0.1,0.2
		c0.1,0.1,0.1,0.2,0.2,0.3c0,0.1,0.1,0.1,0.1,0.1c0.1,0,0.1-0.1,0.1-0.2l0,0c0.1,0.1,0.2,0.1,0.1,0.2c-0.1,0.2,0,0.3,0,0.4
		c0.1,0.2,0.1,0.4,0.2,0.6c0,0.1,0.1,0.2,0.2,0.3c0,0,0.1,0.1,0.1,0c0.1-0.2,0.2,0,0.2,0c0.1,0.2,0.2,0.4,0.3,0.7l0,0
		c-0.1,0-0.2,0.1-0.2,0.3c0,0.1,0,0.2,0.1,0.3v0.1h-0.1c-0.1-0.1-0.1-0.1-0.1-0.2c-0.1-0.2-0.2-0.5-0.4-0.7c-0.2-0.3-0.4-0.6-0.4-1
		c-0.1-0.2-0.2-0.4-0.3-0.7c0-0.1,0-0.2-0.1-0.2c-0.2-0.3-0.2-0.7-0.4-1c-0.2-0.4-0.6-0.8-0.7-1.4c0-0.1-0.1-0.2-0.1-0.2
		c-0.1-0.1-0.2-0.3-0.2-0.4c0-0.2-0.1-0.3-0.2-0.5c-0.1-0.2-0.2-0.4-0.2-0.6c0-0.1,0-0.1-0.1-0.2c-0.1,0-0.1-0.1-0.1-0.2
		c-0.1-0.1-0.2-0.2-0.4,0c-0.1,0.1-0.3,0.1-0.5,0.2c0,0-0.1,0-0.1-0.1s-0.1-0.3,0-0.4c0.1-0.2,0.2-0.4,0.3-0.6
		c0.1-0.1,0.1-0.2,0.1-0.4s-0.1-0.3-0.1-0.5c-0.1-0.2-0.2-0.2-0.4-0.1c-0.1,0.1-0.2,0.2-0.2,0.3c-0.1,0.2-0.2,0.3-0.3,0.5
		s-0.1,0.4,0,0.6c0.1,0.2,0.2,0.4,0.3,0.6c0,0.1,0.1,0.1,0.1,0.2c0,0.1,0,0.1-0.1,0.2c-0.2,0-0.2,0.1-0.1,0.3
		c0.1,0.2,0.2,0.3,0.3,0.5c0.1,0,0.1,0,0.1-0.1s0.1-0.1,0.1,0c0.1,0.2,0.2,0.4,0.3,0.6c0,0.1,0,0.1-0.1,0.1c-0.3,0-0.5-0.2-0.7-0.4
		c-0.1-0.2-0.2-0.3-0.2-0.6c0-0.1,0-0.1-0.1-0.2c-0.2-0.1-0.3-0.4-0.4-0.6c-0.2-0.3-0.3-0.3-0.6,0c-0.2,0.2-0.3,0.5-0.5,0.8
		c-0.1,0.1-0.1,0.2,0,0.3c0.1,0.2,0.1,0.3,0.2,0.5c0.1,0.1,0.1,0.2-0.1,0.2c0,0-0.1,0-0.1,0.1s0,0.1,0.1,0.1
		c0.4,0.1,0.5,0.3,0.5,0.7c0,0.1,0.1,0.1,0.1,0.2c0.1,0.1,0.1,0.1,0.1,0.2v0.1c0.2,0.2,0.2,0.5,0.4,0.7c0,0.1,0.1,0.1,0.1,0.2
		c0,0.1,0.1,0.1,0.1,0.2c0,0.3,0.2,0.5,0.3,0.8c0,0.1,0.1,0.2,0.1,0.3s0,0.2,0.1,0.2c0.2,0.2,0.3,0.4,0.5,0.6
		c0.1,0.1,0.1,0.3,0.1,0.4c0,0.2,0,0.4,0.2,0.6c0.1,0.1,0.1,0.2,0.1,0.3c-0.1,0.1-0.2,0-0.3,0c0,0.1,0.1,0.2,0.1,0.4
		c-0.2-0.1-0.3-0.2-0.4-0.3c-0.1-0.2-0.3-0.4-0.3-0.7c0-0.1-0.1-0.1-0.1-0.2c-0.1-0.2-0.2-0.4-0.3-0.6c-0.1-0.2-0.2-0.5-0.4-0.7
		c-0.1-0.1-0.1-0.3-0.2-0.5v-0.1c0-0.1,0.1-0.1,0-0.2c-0.1-0.2-0.2-0.5-0.3-0.6c-0.2-0.2-0.3-0.5-0.4-0.8c0-0.1,0-0.2-0.1-0.3
		S8.3,52.1,8.3,52s0-0.1-0.1-0.2C8,51.7,8,51.6,8,51.5s0-0.1-0.1-0.2C7.7,51,7.7,51,7.3,51.2c-0.3,0.2-0.4,0.5-0.7,0.7
		c-0.1,0-0.1,0.1-0.1,0.1s-0.1,0.1-0.1,0v-0.1c0.1-0.2,0.1-0.4,0.3-0.6c0.2-0.3,0.4-0.6,0.6-0.9c0.1-0.2,0-0.5-0.2-0.6
		c-0.1,0-0.1,0-0.2,0s-0.8,0.6-0.8,0.7C6,50.8,5.8,51,5.7,51.3c-0.2,0.3-0.2,0.6,0,1l0.1,0.1c0.1,0.5,0.5,0.9,0.6,1.4
		c0,0.1,0,0.1,0.1,0.2l0.1,0.1c0.1,0.4,0.4,0.6,0.5,1C7.7,55.6,7.9,55.8,8,56c0,0,0,0.1,0,0.2c0,0.2,0.2,0.5,0.3,0.7s0,0.4-0.2,0.4
		c-0.1,0-0.2,0-0.2-0.1c-0.1-0.1-0.2-0.2-0.2-0.3c-0.1-0.3-0.3-0.6-0.5-0.9C7.1,55.8,7,55.6,7,55.3c0-0.1-0.1-0.1-0.1-0.2
		c-0.1-0.1-0.3-0.3-0.2-0.5c-0.1-0.1,0-0.4-0.2-0.5c0,0,0,0,0-0.1c0-0.4-0.3-0.6-0.4-0.9c0-0.1-0.1-0.3-0.2-0.3
		c-0.1-0.1-0.4,0-0.4,0.1c0,0.2-0.2,0.4-0.3,0.5c0,0.1-0.1,0.1-0.1,0.2C5,53.8,4.9,54,4.7,54.1c-0.1,0.1-0.1,0.1-0.2,0.2
		c-0.1,0.2-0.3,0.3-0.4,0.4H4v-0.1c0.1-0.1,0.1-0.2,0.2-0.3c-0.3-0.1-0.2-0.3,0-0.4c0.1-0.1,0.2-0.3,0.3-0.4
		c0.1-0.3,0.3-0.5,0.4-0.7c0.2-0.3,0.3-0.6,0.3-0.9c0-0.3-0.2-0.5-0.3-0.7c0-0.1-0.1,0-0.2,0l-0.1,0.1c-0.1,0.2-0.4,0.2-0.4,0.5
		c0,0.2-0.2,0.4-0.3,0.6c-0.1,0.2-0.2,0.3-0.3,0.5c-0.1,0.1-0.1,0.2-0.3,0.3c-0.1,0-0.2,0.2-0.2,0.3C3,53.7,2.9,53.8,2.8,54
		c-0.2,0.2-0.5,0.3-0.6,0.6c0,0.1-0.1,0.1-0.1,0C2,54.6,2,54.5,2,54.4c0.2-0.4,0.4-0.9,0.7-1.2c0.2-0.2,0.4-0.5,0.5-0.8
		s0.3-0.5,0.4-0.7c0.2-0.4,0.5-0.7,0.8-1c0.2-0.2,0.2-0.5,0-0.8l-0.1-0.1c-0.2-0.3-0.2-0.3-0.4,0c-0.2,0.4-0.4,0.8-0.7,1.1
		C3,51,2.9,51.3,2.7,51.5c-0.1,0.1-0.2,0.2-0.2,0.3l-0.1,0.1C2.2,52,2,52.1,1.8,52.3H1.7v-0.1c0.1-0.2,0-0.5,0.3-0.7
		c0,0.1,0,0,0-0.1c0.2-0.5,0.4-0.9,0.7-1.3c0.3-0.5,0.5-1,0.8-1.4c0.1-0.2,0.2-0.4,0-0.6c-0.1-0.2-0.2-0.4-0.2-0.7
		c0-0.1-0.1-0.2-0.2-0.2c-0.1,0-0.1,0.1-0.2,0.1c-0.1,0.1-0.2,0.2-0.3,0.4c-0.2,0.3-0.2,0.6-0.4,0.9c0,0.1-0.1,0.1-0.1,0.2
		C2,48.8,2,48.9,2,49c0,0.1,0,0.1,0,0.2c-0.1,0.2-0.3,0.3-0.4,0.5c0,0-0.1,0-0.2,0c0.1,0.1,0.2,0.2,0.1,0.3
		c-0.1,0.2-0.1,0.4-0.4,0.4c-0.1,0-0.3,0.1-0.4,0s0-0.3,0-0.4c0.1-0.3,0.3-0.5,0.4-0.7c0-0.1,0.1-0.1,0.1-0.2
		c0.1-0.3,0.3-0.6,0.4-0.9c0.3-0.5,0.5-1,0.8-1.4c0.1-0.2,0.1-0.4,0-0.7c0-0.1,0-0.1-0.1-0.2c-0.1-0.1-0.1-0.2-0.2-0.2
		c-0.1,0-0.2,0.1-0.3,0.3c0,0.2-0.1,0.4-0.2,0.5c0,0-0.1,0.1,0,0.2c0,0.2-0.1,0.3-0.2,0.5c-0.2,0.1-0.3,0.3-0.3,0.5
		c0,0.1-0.1,0.1-0.1,0.2c0-0.2-0.1-0.1-0.2,0.1s-0.2,0.2-0.4,0.2H0.3c-0.2,0-0.3-0.1-0.2-0.2c0.1-0.2,0.1-0.4,0.2-0.5v-0.1
		c0.2-0.1,0.2-0.4,0.4-0.6c0.2-0.3,0.4-0.7,0.6-1c0-0.1,0.1-0.1,0.1-0.2c0.1-0.3,0.3-0.6,0.5-0.8c0.2-0.4,0.2-0.7,0-1.1
		c-0.1-0.1-0.1-0.3-0.2-0.5c0.1-0.1,0.1,0,0.1,0c0.1,0,0.1,0.1,0.2,0.1s0-0.1,0-0.2c0,0,0-0.1,0.1-0.1h0.1c0.1,0.1,0.1,0.2,0.2,0.3
		c0.1,0.1,0.2,0.1,0.3,0c0.2-0.2,0.3-0.4,0.5-0.6c0.2-0.2,0.2-0.5,0.4-0.7c0.1-0.2,0.1-0.4,0.2-0.5c0-0.1,0-0.1,0-0.2
		c-0.1-0.1,0-0.2,0-0.3s0.1-0.1,0.2-0.1C4,41,4,41,4.2,40.8c0.1-0.1,0.2-0.3,0.3-0.4c0.1-0.2,0.2-0.4,0.3-0.6c0.1-0.1,0.2-0.1,0.3,0
		c0,0.1,0.1,0.2,0.2,0.2c0-0.1-0.2-0.2,0-0.3c0.1,0,0.2,0.1,0.2,0.2c0.1,0.3,0.2,0.5,0.3,0.7C6,40.9,6,40.9,6.3,40.8
		c0.1,0,0.2-0.1,0.3-0.1c0.1,0,0.2,0,0.1,0.2C6.7,41,6.6,41,6.6,41c-0.1,0.1-0.1,0.2-0.1,0.4c0,0.1,0,0.2,0,0.3
		c-0.1,0.2,0,0.4,0.1,0.5c0.2,0.2,0.3,0.4,0.4,0.6c0,0,0,0,0,0.1c0.2,0.3,0.2,0.3,0.4,0.1c0.2-0.2,0.4-0.5,0.6-0.8
		c0.2-0.3,0.3-0.6,0.1-0.9C8,41,8,40.8,7.9,40.6c0-0.1,0-0.1,0.1-0.1c0.1,0,0.1,0,0.1,0.1s0.1,0.2,0.1,0.3L8.3,41
		c0.1,0,0.1-0.1,0.1-0.1c0-0.1,0-0.2-0.1-0.2v-0.1h0.1c0.1,0.1,0.1,0.2,0.2,0.3c0.1,0.2,0.2,0.2,0.3,0c0.2-0.3,0.5-0.6,0.7-1
		c0.1-0.2,0.3-0.4,0.4-0.6c0.1-0.1,0.3-0.4,0.4-0.4c0.1-0.1,0.2-0.1,0.3-0.2c0.1-0.1,0.2-0.1,0.3,0.1c0,0.1,0,0.3-0.1,0.3
		c-0.2,0.2-0.2,0.4-0.2,0.6c0,0.3-0.2,0.4-0.4,0.6c-0.1,0.1-0.3,0.1-0.3,0.3c0,0.1-0.1,0.1-0.1,0.1c-0.2,0.1-0.3,0.3-0.3,0.5
		c0,0.1-0.1,0.2-0.2,0.2c-0.2,0.1-0.2,0.3-0.2,0.5V42c0.1,0.2,0.2,0.3,0.3,0.5c0,0.1,0.1,0.1,0.1,0.2c0.1,0.1,0.1,0.1,0.2,0
		c0.4-0.4,0.8-0.7,1-1.3c0.1-0.2,0-0.5-0.1-0.7c-0.1-0.1-0.1-0.2-0.2-0.4v-0.1h0.1c0.1,0.1,0.1,0.1,0.1,0.2c0,0.1,0.1,0.2,0.2,0.3
		c0-0.1,0-0.1,0-0.2c0-0.1-0.1-0.3-0.1-0.4V40c0,0,0.1,0,0.1,0.1s0.1,0.2,0.1,0.3s0.1,0.1,0.1,0.2c0.2,0.1,0.2,0.1,0.3,0
		s0.3-0.3,0.4-0.5c0.2-0.3,0.4-0.5,0.6-0.7c0,0,0-0.1,0.1-0.1c0.1-0.1,0.1-0.1,0.2,0c0.1,0,0.1,0.1,0,0.2v0.1
		c-0.1,0.2-0.2,0.3-0.2,0.5c-0.1,0.1-0.1,0.4-0.2,0.5c-0.2,0.2-0.3,0.5-0.5,0.8c-0.2,0.2-0.1,0.8,0.2,0.9c0.1,0.1,0.2,0,0.3-0.1
		s0.2-0.3,0.3-0.4c0.2-0.2,0.3-0.5,0.5-0.7c0.1-0.1,0.2-0.3,0.3-0.5c0.2-0.3,0.3-0.7,0.3-1.1v-0.1h0.1c0.3,0.1,0.4,0.1,0.6-0.2
		c0.2-0.3,0.4-0.5,0.6-0.8c0.1-0.1,0.2-0.2,0.3-0.3s0.2,0,0.2,0.1s0,0.2,0,0.3c-0.2,0.2-0.3,0.4-0.5,0.6c-0.1,0.1-0.2,0.2-0.2,0.3
		c0,0.2-0.1,0.3-0.2,0.4c-0.2,0.2-0.3,0.5-0.3,0.7c0,0.3-0.2,0.4-0.3,0.5c-0.2,0.1-0.4,0.3-0.5,0.6c-0.2,0.3-0.4,0.5-0.6,0.8
		c-0.1,0.1-0.2,0.2-0.3,0.4c-0.2,0.3-0.1,0.7,0.1,1c0.1,0.1,0.2,0.1,0.3,0.1c0.2-0.1,0.3-0.3,0.4-0.5c0.2-0.3,0.5-0.7,0.8-1
		c0.1-0.1,0.2-0.3,0.2-0.5s0.1-0.3-0.1-0.4c-0.1,0-0.1-0.2,0-0.2s0.1-0.1,0.1-0.2c0-0.1,0-0.2,0.1-0.1s0.1,0.1,0.1,0.2
		c0,0.1-0.2,0.2-0.1,0.3c0.1,0.1,0.3,0.1,0.5,0s0.3-0.4,0.5-0.6c0.1-0.2,0.3-0.4,0.4-0.5s0.1-0.2,0.2-0.3c0.1-0.2,0.3-0.4,0.5-0.5
		s0.3,0,0.3,0.2c-0.1,0.3,0,0.6,0.2,0.9c0.1,0.1,0.2,0.1,0.3,0c0.2-0.2,0.5-0.5,0.6-0.7c0.2-0.4,0.5-0.4,0.9-0.4
		c0.2,0,0.3,0.1,0.4,0.2c0.1,0.1,0.1,0.2,0.2,0.3s0.2,0.1,0.3,0c0.1-0.2,0.3-0.3,0.5-0.5c0.1-0.1,0.2-0.1,0.2,0
		c0.1,0.1,0.1,0.1,0.2,0.2c0.1,0.1,0.1,0.1,0,0.2c-0.3,0.3-0.4,0.6-0.6,0.9C20,41,20,41.1,20,41.2s0.1,0.2,0.2,0.3
		c0.1,0,0.2,0,0.3-0.1c0.2-0.2,0.3-0.4,0.4-0.6c0.2-0.4,0.5-0.8,0.9-1.1c0.2-0.1,0.3-0.4,0.5-0.6c0.1-0.1,0.2-0.1,0.3,0
		c0,0,0,0,0,0.1s0,0.2,0,0.2c-0.3,0.3-0.3,0.8-0.6,1.1c-0.1,0.1-0.1,0.3,0,0.4c0.1,0.2,0.2,0.4,0.3,0.5c0.1,0.1,0.1,0.1,0.2,0
		c0.2-0.1,0.3-0.3,0.4-0.5c0.1-0.1,0.1-0.2,0.2-0.3s0.2-0.2,0.3-0.3c0.1-0.2,0.3-0.4,0.5-0.6c0.2-0.2,0.5-0.3,0.6-0.6
		c0-0.1,0.1-0.1,0.2-0.2c0.1-0.1,0.2-0.1,0.4,0c0.1,0.1,0.1,0.2,0,0.3s-0.2,0.2-0.3,0.3c-0.2,0.2-0.3,0.5-0.4,0.7
		c-0.1,0.1-0.2,0.3-0.2,0.4v0.1c-0.3,0.1-0.4,0.4-0.6,0.6c-0.3,0.2-0.6,0.6-0.7,0.9c0,0.1-0.1,0.1,0,0.2c0.1,0.3,0.2,0.7,0.4,0.9
		c0.1,0.1,0.1,0.1,0.2,0l0.1-0.1c0.2-0.3,0.5-0.5,0.7-0.8c0.1-0.1,0.1-0.3,0.1-0.5c0-0.1-0.1-0.2-0.2-0.4c0.1-0.1,0.1,0,0.2,0
		c0,0,0-0.1,0.1-0.2v-0.1c0-0.1,0-0.1,0-0.1c0.1,0,0.1,0,0.2,0.1l0.1,0.1c0.1,0.2,0.3,0.2,0.4,0c0.1-0.1,0.2-0.3,0.3-0.4
		c0.2-0.2,0.3-0.4,0.5-0.6c0.2-0.2,0.3-0.4,0.3-0.6c0-0.1,0.1-0.2,0.2-0.3c0.1,0,0.2-0.2,0.3-0.3c0.2-0.4,0.5-0.7,0.7-1.1
		c0.2-0.2,0.4-0.4,0.5-0.7l0.1-0.1c0,0,0.1-0.1,0.1,0c0.1,0,0.1,0.1,0.1,0.1s0,0,0,0.1c-0.2,0.3-0.1,0.7-0.4,0.9
		c-0.1,0.1-0.2,0.2-0.2,0.3c-0.2,0.2-0.1,0.4,0,0.6l0.1,0.1v0.1h-0.1h-0.1c-0.2-0.1-0.3,0-0.4,0.1c-0.1,0.2-0.3,0.4-0.3,0.6
		c0,0.1-0.1,0.2-0.2,0.3c-0.3,0.3-0.6,0.6-0.8,1c-0.1,0.2-0.3,0.3-0.5,0.5c-0.1,0.2-0.2,0.4,0,0.6c0.1,0.2,0.2,0.4,0.3,0.7
		c0.1,0.2,0.1,0.2,0.3,0c0.2-0.2,0.5-0.5,0.7-0.7c0.2-0.3,0.4-0.5,0.5-0.8c0-0.2,0.2-0.3,0.2-0.5c0-0.1,0.1-0.1,0.1,0
		c0.1,0.1,0.2,0,0.3-0.1c0.1-0.1,0.1-0.1,0.2-0.2c0.3-0.3,0.3-0.6,0.1-1C28,39.8,28,39.7,28,39.6c0.1-0.1,0.2,0,0.3,0.1l0,0
		c0.2,0.3,0.3,0.3,0.6,0c0.1-0.2,0.2-0.4,0.4-0.5l0,0c0.1-0.3,0.4-0.5,0.6-0.8c0.1-0.1,0.2-0.2,0.3-0.2c0.1,0,0.2,0.2,0.2,0.3
		c0.1,0.2,0,0.4-0.1,0.4c-0.3,0.2-0.5,0.4-0.7,0.7s-0.4,0.6-0.6,0.9c-0.1,0.1-0.1,0.3-0.2,0.4c0,0.1,0,0.2,0.1,0.3s0.2,0.1,0.3,0
		c0.2-0.1,0.2-0.3,0.4-0.4c0.2-0.3,0.5-0.5,0.6-0.8c0-0.1,0.1-0.1,0.1-0.2c0-0.2,0.1-0.4,0.3-0.6l0.1-0.1c0.2,0,0.3-0.2,0.4-0.3
		c0.1-0.2,0.3-0.3,0.4-0.5c0.1-0.1,0.1-0.2,0.3-0.1c0.1,0,0.2,0.2,0.1,0.3c-0.1,0.3-0.2,0.6-0.4,0.8c-0.1,0.1-0.2,0.2-0.3,0.4
		c-0.2,0.3-0.2,0.6,0,0.9c0.1,0.1,0.2,0.3,0.2,0.4c0.1,0.2,0.2,0.2,0.3,0.1c0.1-0.1,0.3-0.3,0.4-0.4c0.2-0.2,0.4-0.4,0.6-0.6
		l0.1-0.1c0.1-0.3,0.4-0.5,0.6-0.7c0.3-0.3,0.6-0.6,0.9-1c0,0,0-0.1,0.1-0.1c0.2-0.1,0.3-0.2,0.4-0.4c0.1,0.3,0.1,0.6-0.2,0.8
		c-0.2,0.1-0.3,0.3-0.4,0.4c-0.1,0.3-0.3,0.5-0.5,0.8c-0.1,0.1-0.2,0.2-0.2,0.4c-0.1,0.2-0.2,0.4-0.4,0.4c-0.1,0-0.2,0.1-0.3,0.2
		c-0.2,0.3-0.4,0.6-0.7,0.8c-0.1,0.1-0.1,0.2-0.2,0.3s-0.1,0.2-0.1,0.3c0.1,0.4,0.3,0.7,0.4,1.1c0.1,0.2,0.2,0.2,0.3,0
		c0.3-0.4,0.6-0.8,0.9-1.2c0.1-0.1,0.1-0.2,0.1-0.4l0,0c-0.1-0.2-0.1-0.3,0-0.5c0-0.2-0.3-0.2-0.2-0.4c0.1,0,0.3,0.1,0.4,0.1
		c0.1,0,0.1,0.1,0.1,0.1s0,0.1,0.1,0.1c0.1,0.2,0.2,0.2,0.4,0.1c0.1,0,0.1-0.1,0.1-0.1c0.1-0.3,0.4-0.5,0.6-0.8
		c0.2-0.3,0.4-0.5,0.5-0.8l0.1-0.1c0.4-0.2,0.6-0.5,0.8-0.9c0.1-0.1,0.1-0.1,0.2-0.2s0.2-0.1,0.2,0c0.2,0.1,0.2,0.2,0,0.4
		c-0.1,0.1-0.2,0.2-0.3,0.4c0,0.1-0.1,0.2-0.2,0.3c-0.1,0.2-0.2,0.3-0.3,0.5s-0.2,0.5-0.5,0.6c-0.2,0.1-0.3,0.3-0.4,0.4
		c-0.2,0.3-0.5,0.5-0.7,0.8c-0.2,0.2-0.2,0.4-0.2,0.6c0,0.3,0.2,0.6,0.3,0.8s0.2,0.2,0.3,0c0.2-0.2,0.3-0.3,0.5-0.5s0.4-0.5,0.6-0.7
		c0.1-0.1,0.2-0.3,0.1-0.6c-0.1-0.1,0-0.2,0-0.3c0.1-0.1,0.1-0.2,0.1-0.4c0.1,0,0.2,0.1,0.2,0.2c0.2,0.2,0.2,0.2,0.4,0
		c0.3-0.3,0.5-0.6,0.8-0.9c0.2-0.2,0.2-0.5,0.1-0.8c0,0,0-0.1-0.1-0.1c0-0.1,0-0.1,0-0.1h0.1l0.1,0.1c0.2,0.2,0.3,0.2,0.5,0
		s0.4-0.5,0.5-0.7c0.1-0.1,0.2-0.2,0.3-0.3s0.3-0.2,0.3-0.4c0-0.1,0.1-0.1,0.2-0.1c0.1,0,0.1,0.1,0,0.2c-0.2,0.2-0.3,0.6-0.6,0.8
		c-0.2,0.1-0.3,0.3-0.3,0.6c0,0.1,0,0.1-0.1,0.2c-0.3,0.3-0.4,0.6-0.2,1c0.1,0.1,0.1,0.3,0.2,0.4c0.1,0.1,0.2,0.1,0.3,0
		c0.2-0.2,0.3-0.3,0.5-0.5c0,0,0-0.1,0.1-0.1c0.4-0.3,0.6-0.9,1-1.3l0.1-0.1c0-0.1,0.1-0.2,0.2-0.2c0.1,0,0.2-0.1,0.3-0.2
		c0.1-0.1,0.2-0.2,0.3-0.3s0.1-0.1,0.2-0.1c0.1,0,0.1,0.1,0.1,0.2c0,0.2-0.1,0.4-0.3,0.5c-0.2,0.2-0.3,0.4-0.4,0.7
		c0,0.1,0,0.1,0,0.2c0.1,0.2,0.1,0.3,0.2,0.5v0.1H41l0,0c-0.1-0.1-0.1-0.2-0.2-0.2c-0.2,0-0.4,0-0.5,0.3c-0.3,0.5-0.6,0.9-0.9,1.3
		c-0.1,0.2-0.1,0.4-0.1,0.6c0.1,0.2,0.2,0.5,0.3,0.7s0.2,0.2,0.3,0.1c0.3-0.2,0.5-0.5,0.7-0.8c0.1-0.2,0.3-0.3,0.4-0.5
		c0-0.1,0.1-0.1,0.1-0.2c0-0.2,0.1-0.3,0.2-0.4c0.1-0.1,0.2-0.3,0.4-0.2c0.1,0,0.1,0,0.2-0.1c0.3-0.3,0.6-0.6,0.9-0.9l0.1-0.1
		c0.2-0.5,0.6-0.8,0.9-1.2c0.2-0.2,0.3-0.3,0.5-0.5c0.1-0.2,0.3-0.4,0.5-0.5c0.1-0.1,0.1-0.2,0.2-0.2c0-0.1,0.1-0.1,0.1-0.1
		c0.1,0,0.1,0.1,0.1,0.1c0,0.1,0,0.1,0,0.2c-0.1,0.1-0.1,0.2-0.2,0.4c0,0.1-0.1,0.2-0.3,0.3c-0.1,0-0.1,0.1-0.2,0.1
		c-0.1,0.2-0.3,0.4-0.4,0.7c-0.1,0.2-0.3,0.4-0.5,0.6c-0.3,0.2-0.5,0.5-0.8,0.8c-0.2,0.3-0.5,0.6-0.8,0.9c-0.2,0.2-0.3,0.6-0.1,0.9
		c0.2,0.3,0.3,0.7,0.5,1c0,0,0,0,0,0.1c0.1,0.5,0.4,0.9,0.6,1.3c0,0.1,0.1,0.2,0.1,0.2c0.1,0.3,0.2,0.5,0.3,0.7
		c0.1,0.1,0.2,0.3,0.2,0.5v0.1c0.3,0.4,0.4,0.8,0.6,1.3c0.2,0.5,0.4,1,0.6,1.5c0.5,1.2,1,2.3,1.5,3.5c0.2,0.6,0.6,1.1,0.8,1.8
		c0.1,0.4,0.3,0.8,0.5,1.2c0,0.1,0.1,0.1,0.1,0.2c0,0.1-0.1,0.2-0.2,0.2c-0.2,0-0.3-0.1-0.4-0.3c-0.2-0.5-0.4-0.9-0.6-1.3
		c-0.1-0.2-0.2-0.4-0.2-0.6c-0.1-0.3-0.2-0.5-0.3-0.7v-0.1c-0.2-0.2-0.2-0.5-0.4-0.8c-0.2-0.4-0.3-0.7-0.5-1.1
		c0-0.1-0.2-0.2-0.2-0.4c-0.1-0.4-0.3-0.7-0.5-1.1c-0.1-0.2-0.2-0.3-0.2-0.5c-0.1-0.3-0.2-0.6-0.3-0.9c-0.1-0.3-0.1-0.5-0.3-0.8
		l-0.1-0.1c0-0.3-0.2-0.5-0.3-0.7c-0.1-0.1-0.1-0.2,0-0.2s0.1-0.1,0-0.2c0-0.1-0.1-0.1-0.2-0.1c-0.1,0-0.2-0.1-0.2-0.2
		c-0.1-0.4-0.3-0.7-0.4-1c-0.1-0.2-0.2-0.3-0.1-0.6c0.1-0.2-0.1-0.4-0.3-0.5c-0.1-0.1-0.2-0.1-0.1-0.2c0.1-0.1,0.1-0.2-0.1-0.2
		c-0.1,0-0.1-0.1-0.1-0.1c0-0.1-0.1-0.2-0.2-0.4c-0.1-0.3-0.2-0.3-0.4-0.1c-0.3,0.4-0.7,0.6-0.8,1.1c0,0.1-0.1,0.1-0.2,0.2
		c-0.1,0-0.2,0.1-0.2,0.3s0,0.4,0.1,0.6c0,0.1,0.1,0.1,0.1,0.2c0,0.3,0.1,0.5,0.2,0.7c0.2,0.3,0.3,0.7,0.4,1.1
		c0.1,0.3,0.2,0.7,0.4,1c0.1,0.2,0.2,0.5,0.3,0.7c0.1,0.6,0.4,1.1,0.6,1.6c0.1,0.3,0.3,0.6,0.3,1v0.1c0.3,0.5,0.5,1.1,0.7,1.7
		c0.1,0.4,0.3,0.8,0.4,1.2c0,0.3,0.2,0.5,0.3,0.7c0,0.2,0.1,0.3,0.2,0.5c0.1,0.3,0.2,0.5,0.3,0.8c0.1,0.2,0.1,0.4,0.2,0.6
		c0,0.1,0,0.2,0,0.3v0.1c-0.1,0-0.3,0-0.4,0c-0.1,0-0.1-0.1-0.2-0.2c-0.1-0.3-0.2-0.7-0.3-1c0-0.2-0.1-0.4-0.2-0.5
		c-0.2-0.4-0.3-0.8-0.4-1.3c-0.1-0.3-0.2-0.7-0.4-1c0-0.1-0.1-0.1-0.1-0.2c0-0.3-0.2-0.6-0.3-0.9c0-0.1-0.1-0.2-0.1-0.4
		c-0.1-0.2-0.1-0.4-0.2-0.6c-0.1-0.1-0.2-0.3-0.2-0.4c-0.1-0.3-0.2-0.6-0.4-0.9c-0.1-0.3-0.1-0.6-0.2-0.9c0-0.1,0-0.1,0.1-0.1
		c0.1-0.1,0.1-0.2,0-0.2c-0.3-0.2-0.4-0.5-0.5-0.8c-0.2-0.5-0.4-1-0.6-1.5c-0.1-0.1-0.1-0.2-0.1-0.3s0-0.1,0.1-0.2
		c0.1-0.1,0.1-0.2,0-0.3l-0.1-0.1c-0.2-0.1-0.2-0.2-0.2-0.4c0-0.1,0-0.2-0.1-0.3s-0.1-0.2-0.2-0.3c-0.1-0.3-0.3-0.6-0.3-0.9
		c0-0.1-0.1-0.3-0.2-0.3c-0.2,0-0.3,0-0.4,0.2c-0.1,0.2-0.3,0.3-0.4,0.5c-0.3,0.2-0.4,0.5-0.2,0.8c0.2,0.4,0.3,0.9,0.5,1.3
		c0.1,0.2,0.2,0.4,0.3,0.7c0,0.2,0.1,0.4,0.2,0.6c0.1,0.2,0.2,0.4,0.2,0.6c0,0.2,0.1,0.3,0.2,0.4c0.1,0.3,0.3,0.5,0.3,0.8
		c0,0.1,0,0.1,0.1,0.2c0.2,0.3,0.3,0.7,0.5,1c0.1,0.1,0.1,0.3,0.2,0.4c0.2,0.6,0.5,1.2,0.8,1.8c0.2,0.6,0.5,1.2,0.7,1.8
		c0.1,0.3,0.2,0.7,0.4,1c0.2,0.5,0.5,0.9,0.6,1.4c0,0.1,0.1,0.2,0.1,0.3c0.1,0.2,0,0.3-0.2,0.3c-0.1,0-0.2-0.1-0.3-0.2
		c-0.1-0.1-0.2-0.3-0.3-0.4c-0.2-0.5-0.5-0.9-0.6-1.3c-0.1-0.2-0.1-0.4-0.2-0.6c-0.2-0.6-0.4-1.1-0.6-1.7c0-0.1-0.1-0.2-0.2-0.3
		c-0.3-0.6-0.5-1.2-0.8-1.8c0-0.1-0.1-0.2-0.1-0.3s0-0.2-0.1-0.2c-0.1-0.2-0.2-0.4-0.3-0.5c-0.2-0.3-0.2-0.7-0.4-1
		c-0.1-0.2-0.1-0.4-0.2-0.6c-0.1-0.3-0.2-0.5-0.3-0.8s-0.3-0.7-0.4-1c-0.1-0.4-0.3-0.8-0.6-1.2c-0.1-0.2-0.2-0.2-0.4,0
		c-0.1,0.2-0.3,0.2-0.5,0.3c-0.1,0.1-0.2,0-0.2-0.1s0-0.3,0.1-0.4c0.1-0.1,0.2-0.3,0.3-0.4c0.2-0.3,0.2-0.6,0.1-0.9
		c-0.1-0.1-0.1-0.2-0.1-0.3c-0.1-0.2-0.3-0.2-0.4,0c-0.2,0.2-0.3,0.4-0.5,0.6c-0.2,0.2-0.4,0.4-0.5,0.6s-0.2,0.5-0.1,0.8
		c0.1,0.4,0.2,0.7,0.4,1.1c0.1,0.2,0.2,0.4,0.2,0.6c0.3,0.6,0.6,1.3,0.8,1.9c0.1,0.2,0.2,0.4,0.2,0.6c0,0.1,0,0.1,0.1,0.2
		c0.2,0.4,0.4,0.8,0.6,1.2c0.2,0.5,0.5,1,0.7,1.6c0.1,0.3,0.3,0.7,0.5,1c0.3,0.6,0.5,1.3,0.8,1.9c0,0.1,0.1,0.1,0.1,0.2
		c0,0.3,0.2,0.5,0.3,0.8c0,0.1,0.1,0.1,0.1,0.2c0,0.1,0,0.2-0.2,0.2c-0.1,0-0.1,0-0.2,0.1c-0.1,0-0.1,0-0.1-0.1
		c-0.1-0.1-0.1-0.2-0.2-0.3c-0.1-0.4-0.4-0.7-0.5-1.1c-0.1-0.2-0.2-0.4-0.2-0.6c-0.1-0.2-0.1-0.4-0.2-0.5c0,0-0.1-0.1-0.1-0.2
		c0-0.3-0.1-0.5-0.3-0.7c-0.1-0.1,0-0.2-0.1-0.3l0,0c0.1,0,0.2,0.1,0.3,0.2c-0.1-0.3-0.1-0.6-0.4-0.7c-0.1,0-0.1-0.1,0-0.2
		c0,0,0.1,0,0.1-0.1s-0.1-0.1-0.1-0.1c-0.3,0.1-0.3-0.1-0.4-0.2c0.3,0,0.3,0,0.2-0.2c0-0.1,0-0.3-0.2-0.1c-0.1,0-0.1-0.1-0.1-0.1
		c-0.3-0.4-0.5-0.9-0.7-1.4c-0.1-0.2-0.1-0.4-0.2-0.5c-0.1-0.1-0.1-0.2,0-0.3s0.1-0.2,0-0.2c-0.4-0.1-0.5-0.5-0.6-0.9
		c-0.1-0.2-0.1-0.3-0.2-0.5c0-0.1,0-0.1,0.1-0.2h0.1c0.1,0,0.1-0.1,0.1-0.2c0-0.1-0.1-0.1-0.1-0.1s0,0-0.1,0
		c-0.2,0.1-0.3-0.1-0.4-0.2c-0.2-0.3-0.3-0.7-0.4-1.1v-0.1c-0.2-0.3-0.3-0.7-0.4-1.1c-0.1-0.2-0.1-0.4-0.2-0.6c0,0,0-0.1-0.1-0.1
		c-0.1-0.1-0.2-0.2-0.3,0c-0.2,0.2-0.4,0.3-0.5,0.5c0,0.1-0.2,0.2-0.3,0.3c-0.1,0-0.1,0.1-0.2,0.2c-0.2,0.3-0.2,0.6,0,0.8
		c0.2,0.3,0.2,0.6,0.3,0.9c0.2,0.6,0.5,1.2,0.8,1.9c0.1,0.3,0.3,0.5,0.4,0.8c0.1,0.2,0.2,0.5,0.2,0.8c0,0.1,0,0.2,0.1,0.3
		c0.1,0.2,0.2,0.4,0.3,0.6c0.2,0.3,0.3,0.7,0.5,1c0.2,0.4,0.4,0.8,0.6,1.2c0.1,0.1,0.1,0.3,0.2,0.4c0.1,0.1,0.1,0.2,0.1,0.2
		c0,0.1,0,0.1,0.1,0.2c0.3,0.3,0.4,0.8,0.6,1.2c0,0.1,0,0.2,0.1,0.2c0.2,0.3,0.3,0.6,0.4,0.9c0.1,0.2,0.2,0.4,0.2,0.6
		c0,0.1,0,0.1,0,0.2c0,0.1,0,0.2-0.2,0.3c-0.1,0-0.2,0-0.3-0.1s-0.2-0.3-0.2-0.4c-0.2-0.4-0.4-0.8-0.6-1.3c-0.2-0.4-0.4-0.8-0.5-1.2
		c-0.1-0.3-0.2-0.6-0.5-0.9c-0.2-0.3-0.4-0.6-0.5-1c0-0.1-0.1-0.3-0.2-0.4c-0.2-0.2-0.2-0.5-0.3-0.7c-0.1-0.1,0.1-0.2,0.1-0.3
		c-0.3,0-0.3-0.2-0.4-0.3c-0.1-0.3-0.2-0.5-0.4-0.8c-0.2-0.2-0.3-0.5-0.4-0.8c-0.1-0.3-0.2-0.6-0.4-0.9c0-0.1-0.1-0.1,0-0.2
		c0.1-0.1,0-0.2-0.1-0.3c-0.1-0.2-0.3-0.4-0.3-0.7c-0.1-0.3-0.2-0.6-0.3-0.9c0-0.1-0.1-0.1-0.1-0.2c-0.1-0.1-0.2-0.1-0.3,0
		c-0.1,0.1-0.2,0.2-0.3,0.3c-0.1,0.1-0.2,0.1-0.2-0.1c0-0.1,0-0.1,0-0.2c0.1-0.2,0.2-0.4,0.3-0.5c0.1-0.1,0.1-0.2,0.1-0.4
		c-0.1-0.4-0.2-0.8-0.4-1.2c-0.1-0.2-0.2-0.2-0.3-0.1c-0.1,0.1-0.3,0.3-0.4,0.5s-0.3,0.4-0.4,0.6c-0.1,0.1-0.1,0.2-0.1,0.3
		c0.1,0.2,0.1,0.4,0.2,0.6c0.1,0.3,0.3,0.7,0.5,1c0.1,0.3,0.3,0.5,0.4,0.8c0.1,0.1,0.1,0.2,0.1,0.3c0.2,0.5,0.4,0.9,0.6,1.3
		c0.2,0.3,0.3,0.6,0.4,0.9c0.1,0.3,0.3,0.7,0.4,1c0.1,0.2,0.2,0.5,0.3,0.7c0.1,0.3,0.3,0.6,0.5,0.9c0.1,0.3,0.2,0.6,0.4,0.9
		c0,0,0.1,0.1,0.1,0.2c0.1,0.5,0.4,0.9,0.7,1.2c0.1,0.1,0.1,0.3,0.3,0.3c0.1,0,0.1,0.1,0.1,0.2c-0.1,0.2,0.1,0.4,0.2,0.6
		c0,0,0,0.1,0.1,0.1c0.3,0,0.4,0.3,0.5,0.5s0.2,0.5,0.1,0.7c0,0.2-0.2,0.2-0.3,0.1c-0.1-0.1-0.1-0.2-0.2-0.3c0-0.1-0.1-0.2-0.1-0.1
		c-0.2,0.1-0.2,0-0.2-0.1c0,0,0,0,0-0.1c-0.1-0.3-0.4-0.4-0.4-0.7c-0.1-0.3-0.2-0.5-0.3-0.7s-0.2-0.5-0.3-0.7v-0.1
		c0.1,0,0.1,0,0.1,0.1s0.1,0.2,0.1,0.2l0.1,0.1c0.1,0,0.1-0.1,0-0.2c-0.1-0.1-0.2-0.3-0.3-0.4c-0.1-0.1-0.1-0.2-0.2-0.1
		c-0.1,0-0.2-0.1-0.2-0.1c-0.2-0.3-0.4-0.6-0.5-1c-0.2-0.4-0.3-0.9-0.5-1.3c-0.2-0.3-0.3-0.7-0.4-1c-0.1-0.2-0.1-0.4-0.2-0.5
		c0,0,0,0,0.1,0s0.1,0.1,0.2,0c0.1-0.1,0-0.2,0-0.2c-0.1-0.1-0.2-0.2-0.3-0.2s-0.2,0-0.2-0.1c-0.1-0.3-0.2-0.6-0.4-0.8
		c-0.1-0.1,0-0.2,0.1-0.3c-0.2-0.1-0.3-0.2-0.4-0.4c0-0.1-0.1-0.1,0-0.2c0.2-0.1,0.1-0.2,0.1-0.3c0,0,0-0.1-0.1-0.1
		c-0.1-0.2-0.3-0.3-0.3-0.6c0-0.2-0.1-0.4-0.4-0.3c-0.1,0-0.1-0.1-0.1-0.1c-0.1-0.3-0.3-0.5-0.4-0.8c-0.1-0.1-0.1-0.2-0.3-0.1
		c-0.2,0.1-0.4-0.2-0.4-0.4c0-0.1,0.1-0.1,0.1-0.2c0.1-0.3,0.1-0.6-0.1-0.9c-0.1-0.1-0.2-0.3-0.3-0.4c-0.1-0.2-0.2-0.2-0.3-0.1
		c-0.2,0.2-0.3,0.5-0.2,0.8c0.1,0.2,0.3,0.4,0.4,0.7c0.2,0.5,0.5,1.1,0.7,1.6c0.1,0.2,0.2,0.3,0.2,0.5c0.1,0.5,0.4,0.9,0.6,1.4
		s0.4,1.1,0.7,1.7c0.2,0.4,0.3,0.9,0.6,1.3c0.1,0.2,0.2,0.5,0.4,0.7l0.1,0.1c0,0.3,0.2,0.6,0.2,0.9c0,0.1,0,0.2,0.1,0.2
		c0,0.1,0.1,0.1,0.1,0.2c0.2,0.6,0.5,1.1,0.7,1.7c0.1,0.4,0.3,0.7,0.5,1.1c0.2,0.3,0.3,0.6,0.4,1c0,0.1,0.1,0.2,0.2,0.3
		c0.1,0.1,0.1,0.3,0.1,0.5c-0.2,0-0.3,0-0.4-0.3c-0.1-0.2-0.2-0.5-0.3-0.7c0-0.1,0-0.1-0.2-0.2c0,0.2,0.2,0.4,0.1,0.6h-0.1
		c-0.2-0.6-0.5-1-0.7-1.6c0-0.1-0.1-0.1-0.1-0.2c-0.1-0.2-0.2-0.4-0.3-0.6c-0.1-0.2-0.2-0.5-0.2-0.7c0,0,0-0.1-0.1-0.1
		c0-0.1-0.1-0.1-0.1-0.2c-0.1-0.4-0.3-0.6-0.4-1c0-0.1,0-0.2-0.1-0.2c-0.1-0.2-0.3-0.4-0.3-0.7c0,0,0-0.1-0.1-0.1
		c-0.2-0.2-0.3-0.4-0.4-0.7c-0.1-0.4-0.3-0.8-0.5-1.2c0-0.1-0.1-0.1-0.1-0.2c-0.1-0.4-0.3-0.7-0.5-1.1c0-0.1-0.1-0.1,0-0.2
		c0.1,0.3,0.2,0.4,0.4,0.6c0-0.2,0-0.3-0.1-0.5c-0.2-0.2-0.3-0.5-0.3-0.8c0-0.1-0.1-0.2-0.2-0.1c-0.1,0-0.1,0-0.2-0.1
		c0-0.1-0.1-0.2-0.1-0.3c0.1,0,0.1,0.1,0.2,0.1c0,0,0-0.1,0-0.2c-0.1-0.2-0.2-0.4-0.3-0.6c-0.1-0.3-0.3-0.5-0.4-0.8
		c-0.1-0.2-0.2-0.3-0.3-0.3c-0.1,0-0.2-0.1-0.1-0.2c0.1-0.1,0-0.2-0.1-0.3l-0.1-0.1c0-0.2-0.2-0.2-0.3-0.3c-0.1-0.1-0.2-0.1-0.3,0
		c-0.1,0.1-0.3,0.2-0.4,0.4s-0.3,0.3-0.5,0.3c-0.1,0-0.2,0-0.2,0c-0.1-0.1,0-0.1,0-0.2c0-0.1,0.1-0.1,0.1-0.2
		c0.2-0.4,0.4-0.7,0.6-1.1c0-0.1,0.1-0.1,0.1-0.2c0-0.2,0-0.4,0.1-0.7c-0.1,0-0.2,0.1-0.3,0c-0.1,0-0.2,0-0.2,0.1
		c-0.3,0.3-0.6,0.6-0.9,0.9c-0.2,0.2-0.2,0.4-0.1,0.7c0.2,0.4,0.3,0.7,0.5,1.1c0.2,0.4,0.3,0.8,0.5,1.1c0.3,0.6,0.5,1.2,0.9,1.8
		c0.1,0.2,0.2,0.5,0.3,0.7c0.1,0.3,0.3,0.6,0.5,0.9l0.1,0.1c0.2,0.5,0.5,1,0.7,1.5c0.3,0.6,0.5,1.1,0.8,1.7c0.1,0.3,0.3,0.6,0.4,0.9
		c0.1,0.4,0.3,0.7,0.5,1s0.4,0.6,0.5,1c0.1,0.2,0.1,0.5,0.2,0.7c0,0,0,0.1-0.1,0.1h-0.1c-0.1-0.1-0.2-0.2-0.2-0.3s-0.1-0.2-0.2-0.3
		l-0.1-0.1c-0.2,0.1-0.2,0-0.1-0.1c0-0.1,0-0.2,0-0.3c-0.2-0.3-0.2-0.6-0.4-0.9C30.4,55.1,30.4,55,30.2,55.1L30.2,55.1z M33.2,56
		c-0.1,0.3-0.1,0.3,0.2,0.4C33.3,56.3,33.3,56.2,33.2,56c0-0.1-0.1-0.2-0.1-0.3C33,55.9,33,56,33.2,56z M3.6,46.3c0,0.1,0,0.1,0,0.2
		c0.1,0.3,0.2,0.5,0.3,0.8C4,47.3,4,47.4,4,47.5c0.1,0.1,0.2,0.1,0.3,0c0-0.1,0.1-0.2,0.1-0.2c0.3-0.3,0.4-0.7,0.7-1
		c0.1-0.1,0.1-0.2,0.2-0.3s0.1-0.2,0-0.2C5.2,45.5,5.1,45.2,5,45c0-0.1-0.1-0.2-0.2-0.2c-0.1-0.1-0.2-0.1-0.3,0.1
		c-0.2,0.4-0.5,0.7-0.7,1C3.8,46,3.7,46,3.6,46C3.6,46,3.6,46.2,3.6,46.3z M15.6,45.6c0-0.3-0.2-0.5-0.3-0.8c0-0.1-0.1-0.1-0.2,0
		c-0.2,0.1-0.4,0.3-0.6,0.4l-0.1,0.1c-0.1,0.3-0.3,0.5-0.5,0.8s-0.3,0.6-0.1,0.9c0.1,0.1,0.1,0.2-0.1,0.3c-0.1,0.1-0.1,0.4,0.1,0.5
		h0.1c0.1-0.1,0.2-0.1,0.3-0.2c0.1-0.2,0.3-0.3,0.4-0.5c0.3-0.4,0.6-0.8,0.8-1.2C15.6,45.8,15.6,45.7,15.6,45.6z M18.8,46.1
		c0-0.3-0.1-0.5-0.2-0.7s-0.2-0.2-0.3-0.1c-0.4,0.4-0.8,0.8-1.1,1.2c-0.2,0.2-0.3,0.5-0.1,0.7c0.1,0.2,0.2,0.3,0.2,0.5
		s0.3,0.3,0.4,0.2s0.3-0.2,0.4-0.3c0.1-0.2,0.2-0.4,0.3-0.5c0.1-0.2,0.3-0.4,0.4-0.6C18.7,46.5,18.8,46.3,18.8,46.1z M6.4,48.4
		c0.2,0.2,0.1,0.3-0.1,0.4H6.2c-0.1,0-0.2,0.1-0.3,0.2s0,0.2,0,0.3s0,0.1,0,0.2c-0.3,0.2-0.4,0.5-0.5,0.8c-0.1,0.2-0.1,0.3,0,0.5
		c0.1,0.1,0.1,0.2,0.2,0.3c0.1,0.2,0.2,0.2,0.3,0c0.2-0.2,0.4-0.4,0.5-0.6c0-0.1,0.1-0.2,0.2-0.3C6.8,50,7,49.7,7.1,49.4
		c0.1-0.1,0.1-0.2,0-0.3c0-0.1-0.1-0.1,0-0.2c0-0.1,0.1-0.1,0.1-0.1c0-0.1-0.2-0.1-0.2-0.3c0.1,0,0.1,0.1,0.2,0c0-0.1,0-0.2-0.1-0.3
		c0-0.1-0.1-0.1-0.2,0s-0.2,0.1-0.3,0.1C6.6,48.3,6.5,48.4,6.4,48.4z M6.3,47.4c0-0.3-0.1-0.5-0.3-0.7c-0.1-0.1-0.1-0.1-0.2,0
		c-0.2,0.2-0.4,0.4-0.5,0.6c-0.2,0.4-0.5,0.8-0.7,1.2c-0.1,0.1,0,0.2,0,0.3c0.1,0.2,0.2,0.4,0.3,0.6C5,49.6,5,49.6,5.2,49.5
		c0.2-0.1,0.3-0.4,0.5-0.6c0.2-0.3,0.4-0.6,0.6-0.9C6.2,47.8,6.3,47.6,6.3,47.4z M30.9,42.1c0-0.1,0-0.2,0-0.3
		c0-0.2-0.2-0.3-0.1-0.5c0-0.1-0.1-0.2-0.2-0.2s-0.2,0-0.2,0.1c-0.1,0.1-0.2,0.2-0.2,0.3c-0.2,0.2-0.3,0.4-0.5,0.6
		c-0.3,0.3-0.4,0.6-0.1,0.9c0.1,0.1,0.2,0.2,0.2,0.4c0,0.1,0,0.1,0.1,0.2c0.1,0.1,0.1,0.1,0.2,0s0.1-0.1,0.2-0.2
		c0.4-0.3,0.6-0.7,0.7-1.2C30.8,42.2,30.8,42.1,30.9,42.1z M6.8,43.8L6.8,43.8c-0.1-0.4-0.3-0.7-0.4-1c0-0.1-0.1-0.2-0.2-0.3
		s-0.1-0.1-0.3,0c-0.2,0.3-0.4,0.6-0.6,0.9c-0.1,0.2-0.1,0.5,0,0.7s0.3,0.4,0.4,0.6c0.1,0.1,0.1,0.2,0.2,0.2s0.3,0,0.3-0.2
		c0.1-0.2,0.2-0.3,0.3-0.5C6.7,44.1,6.7,44,6.8,43.8z M21.3,45.8c0-0.4-0.2-0.7-0.4-1c-0.1-0.1-0.2-0.1-0.2,0
		c-0.3,0.4-0.5,0.8-0.8,1.2c-0.1,0.1-0.1,0.3-0.1,0.4c0.1,0.2,0.2,0.5,0.3,0.7c0.1,0.2,0.2,0.2,0.4,0c0.3-0.3,0.4-0.6,0.7-0.9
		C21.2,46.2,21.3,46,21.3,45.8z M17.4,43.1c0-0.1,0-0.1,0-0.2c0-0.2-0.1-0.4-0.3-0.4c-0.2-0.1-0.3,0.1-0.4,0.2l-0.1,0.1
		c-0.1,0.1-0.2,0.2-0.3,0.3c-0.3,0.3-0.5,0.5-0.6,0.9c0,0.1,0,0.2,0,0.2c0.1,0.2,0.1,0.4,0.2,0.6c0.1,0.1,0.2,0.2,0.3,0.1
		c0.1-0.1,0.2-0.2,0.3-0.3c0.2-0.4,0.5-0.7,0.8-1.1C17.3,43.4,17.4,43.2,17.4,43.1z M4.3,42.5c-0.1,0.1,0,0.1,0,0.2
		c0,0.1,0,0.1-0.1,0.1c-0.4,0-0.5,0.3-0.6,0.5c-0.2,0.3-0.3,0.6-0.5,0.9c-0.3,0.4-0.3,0.7-0.1,1.1c0.1,0.2,0.4,0.2,0.4,0
		c0.1-0.2,0.2-0.3,0.3-0.5C3.9,44.5,4,44.3,4.2,44c0.1-0.2,0.3-0.5,0.1-0.8c-0.1-0.1,0-0.3,0-0.4C4.4,42.7,4.4,42.6,4.3,42.5z
		 M17.6,41.7c0,0.1,0,0.2,0.1,0.3c0.2,0.4,0.4,0.4,0.7,0.1c0.3-0.4,0.6-0.8,0.9-1.1c0.2-0.2,0.2-0.4-0.1-0.6
		c-0.2-0.1-0.3-0.2-0.4-0.4c0-0.1-0.2-0.1-0.2,0c-0.1,0.2-0.2,0.3-0.3,0.5c0,0.2-0.1,0.3-0.2,0.4C17.7,41.1,17.6,41.4,17.6,41.7z
		 M7.6,44.1c0,0.1,0,0.2,0.1,0.2c0.1,0.1,0.1,0.2,0.2,0.3C8,44.9,8.2,45,8.5,44.7c0,0,0,0,0-0.1c0.2-0.3,0.3-0.6,0.6-0.8
		c0.1-0.1,0.1-0.2,0.1-0.3c-0.1-0.3-0.2-0.6-0.4-0.9c0-0.1-0.1-0.1-0.2,0c-0.1,0.1-0.1,0.1-0.2,0.2C8.3,42.9,8.3,43,8.2,43
		c-0.2,0.2-0.3,0.5-0.5,0.7C7.7,43.9,7.6,44,7.6,44.1z M10,43.9c0,0.2,0.1,0.4,0.2,0.6c0,0.1,0.1,0.2,0.2,0.2c0.1,0,0.2,0,0.2-0.1
		c0.3-0.4,0.6-0.8,0.8-1.3c0.2-0.3,0-0.5-0.1-0.8c-0.1-0.2-0.4-0.2-0.5,0s-0.3,0.4-0.5,0.6C10.2,43.3,10,43.6,10,43.9z M23.5,45.5
		c0-0.1,0-0.2-0.1-0.3S23.2,45,23,44.9c-0.1-0.1-0.1,0-0.2,0c-0.3,0.3-0.5,0.6-0.6,1c0,0,0,0.1,0,0.2c0,0.4,0.3,0.7,0.4,1.1
		c0.1,0.1,0.2,0.1,0.2,0s0.1-0.1,0.1-0.2c0.1-0.3,0.3-0.5,0.4-0.8c0.1-0.1,0.1-0.5,0.1-0.6C23.5,45.6,23.5,45.5,23.5,45.5z
		 M4.4,42.1c0,0.2,0,0.3,0.2,0.5s0.3,0.2,0.4,0c0.1-0.1,0.2-0.3,0.3-0.4c0.2-0.3,0.4-0.7,0.5-1.1c0-0.1,0-0.1,0-0.2
		c-0.1-0.2-0.2-0.3-0.3-0.5c-0.1-0.1-0.2-0.1-0.3,0.1c0,0.1-0.1,0.1-0.2,0.2c-0.2,0.2-0.4,0.4-0.4,0.7v0.1
		C4.4,41.6,4.4,41.9,4.4,42.1z M24.7,43.2c-0.2-0.1-0.3-0.1-0.4,0c-0.2,0.2-0.4,0.4-0.5,0.6c-0.1,0.2-0.3,0.3-0.2,0.5
		c0,0.2,0.1,0.4,0.2,0.5l0.1,0.1c0.2,0.2,0.2,0.3,0.4,0c0.2-0.2,0.4-0.5,0.6-0.7C25,44.1,25,44,25,43.9s0-0.3-0.1-0.4
		c0-0.1-0.2-0.3,0.1-0.3v-0.1c0-0.1-0.1-0.2-0.2-0.2C24.7,43.1,24.8,43.2,24.7,43.2z M38.5,41.9L38.5,41.9c0-0.3-0.2-0.6-0.2-0.8
		c0-0.1-0.2-0.2-0.3-0.1c-0.1,0.1-0.3,0.2-0.4,0.4c-0.1,0.2-0.2,0.3-0.3,0.5s-0.2,0.4-0.2,0.6c0.1,0.2,0.2,0.4,0.3,0.6
		c0.1,0.2,0.3,0.2,0.4,0c0.2-0.3,0.4-0.5,0.6-0.8C38.4,42.2,38.5,42,38.5,41.9z M10,45.4c0-0.1,0-0.2-0.1-0.3
		c-0.1-0.2-0.2-0.3-0.2-0.5c0-0.1-0.1-0.1-0.2-0.1c-0.1,0-0.2,0-0.2,0.2C9.2,44.9,9.1,45,9,45.1c-0.2,0.2-0.3,0.4-0.4,0.6
		c0,0.1,0,0.1,0,0.2c0.1,0.2,0.1,0.4,0.3,0.6c0.2,0.2,0.3,0.2,0.4,0c0.1-0.1,0.2-0.3,0.3-0.4c0.2-0.2,0.2-0.4,0.4-0.6
		C10,45.5,10,45.5,10,45.4z M14.7,43.1c-0.3,0.2-0.5,0.3-0.7,0.6c-0.1,0.1-0.2,0.2-0.2,0.3c-0.1,0.3-0.3,0.5-0.5,0.8
		c-0.2,0.2-0.2,0.5,0,0.7c0.1,0.2,0.2,0.2,0.3,0c0.3-0.4,0.7-0.9,1.1-1.3c0.1-0.1,0.2-0.3,0.2-0.5C15,43.4,14.8,43.3,14.7,43.1
		C14.7,43.2,14.7,43.1,14.7,43.1z M20.4,43.9c-0.1-0.2-0.2-0.5-0.3-0.7c-0.1-0.2-0.2-0.1-0.3,0c-0.2,0.2-0.4,0.5-0.5,0.7
		c-0.4,0.5-0.3,0.5-0.1,1.1c0,0.1,0.1,0.2,0.1,0.3c0.1,0.1,0.1,0.1,0.2,0s0.3-0.2,0.3-0.4c0.1-0.2,0.2-0.4,0.4-0.6
		C20.3,44.2,20.4,44.1,20.4,43.9z M22.6,43.6c0-0.2,0-0.2-0.2-0.3c-0.1,0-0.1-0.1-0.2-0.2c-0.1-0.2-0.2-0.2-0.3-0.1
		c-0.2,0.2-0.4,0.5-0.5,0.7c-0.1,0.1-0.1,0.3-0.1,0.4c0.1,0.2,0.2,0.5,0.3,0.7c0.1,0.2,0.3,0.2,0.4,0s0.2-0.4,0.4-0.5
		c0.2-0.1,0.2-0.3,0.2-0.5C22.7,43.8,22.6,43.7,22.6,43.6z M7.7,45.6L7.7,45.6c0-0.3-0.2-0.5-0.3-0.8c0-0.1-0.2-0.1-0.2,0
		C7,45,6.8,45.2,6.7,45.4c-0.2,0.4-0.2,0.8,0.1,1.2c0.1,0.2,0.3,0.2,0.4,0c0.2-0.3,0.4-0.5,0.6-0.8C7.6,45.8,7.6,45.7,7.7,45.6z
		 M10.8,45.9C10.8,45.9,10.8,46,10.8,45.9c0,0.3,0.1,0.4,0.2,0.4c0.2,0.1,0.2-0.1,0.3-0.1c0.1-0.1,0.1-0.1,0.2-0.2
		c0.1-0.2,0.2-0.4,0.4-0.6c0.2-0.1,0.3-0.4,0.3-0.6c0-0.2,0-0.4-0.1-0.6c-0.1-0.1-0.1-0.1-0.2-0.1c-0.2,0.1-0.3,0.2-0.4,0.4
		c-0.1,0.2-0.2,0.5-0.4,0.7C10.9,45.4,10.8,45.6,10.8,45.9z M12.9,46.2L12.9,46.2c0-0.2-0.1-0.3-0.2-0.4c-0.1,0-0.2,0-0.2,0.1
		c-0.1,0.1-0.1,0.1-0.2,0.2c-0.1,0.1-0.3,0.1-0.3,0.3c0,0,0,0-0.1,0.1s-0.2,0.2-0.2,0.3c-0.3,0.3-0.3,0.6-0.2,0.9
		c0,0.1,0.1,0.2,0.3,0.2c0.1,0,0.2,0,0.3-0.1c0.2-0.2,0.4-0.4,0.5-0.7c0-0.1,0.1-0.2,0.2-0.3C12.8,46.7,12.8,46.5,12.9,46.2z
		 M16.7,41.5c0-0.1,0-0.3-0.1-0.4c0-0.1-0.1-0.1-0.2-0.1s-0.3,0.1-0.4,0.2c-0.2,0.3-0.5,0.6-0.7,0.8c-0.2,0.3-0.2,0.6-0.1,0.9
		c0.1,0.1,0.1,0.1,0.2,0c0.4-0.4,0.7-0.8,1.1-1.3C16.7,41.7,16.7,41.6,16.7,41.5z M8.5,47.4c-0.1-0.2-0.1-0.5-0.3-0.7l0,0
		c-0.1-0.1-0.1-0.1-0.2,0c-0.1,0.1-0.1,0.2-0.2,0.3c-0.2,0.2-0.3,0.5-0.5,0.7c0,0,0,0.1,0,0.2c0,0.3,0.2,0.4,0.3,0.6
		c0.1,0.2,0.2,0.2,0.3,0L8,48.4c0.2-0.2,0.3-0.4,0.5-0.6C8.5,47.6,8.5,47.5,8.5,47.4z M16.4,45.8c0,0.2,0.1,0.3,0.2,0.3
		c0.1,0.1,0.2,0,0.2-0.1c0.1-0.1,0.3-0.2,0.3-0.4c0.2-0.4,0.5-0.7,0.7-1.1c0.1-0.1,0.1-0.2,0.1-0.4c0-0.1-0.1-0.2-0.2-0.2
		s-0.2,0-0.2,0.1c-0.3,0.5-0.8,0.8-1.1,1.3C16.5,45.6,16.5,45.7,16.4,45.8z M20.6,42.3c0,0.2,0.1,0.4,0.2,0.6c0.1,0.2,0.2,0.2,0.3,0
		c0.1-0.1,0.2-0.2,0.3-0.3c0.2-0.2,0.4-0.5,0.2-0.9c0-0.1,0-0.1,0-0.2c0.1-0.1,0-0.1,0-0.2c-0.1-0.1-0.3-0.1-0.4,0
		c-0.2,0.2-0.4,0.4-0.6,0.7C20.6,42.2,20.6,42.3,20.6,42.3z M8,49.4c0,0.2,0.1,0.4,0.2,0.5c0.1,0.1,0.2,0.1,0.3,0
		c0.2-0.2,0.4-0.5,0.6-0.8c0.1-0.1,0.1-0.3,0-0.5c-0.1-0.1-0.2-0.2-0.3-0.2s-0.2,0-0.3,0.1c-0.1,0,0,0.1-0.1,0.2
		c0,0.1-0.1,0.2-0.2,0.2C8.2,49,8.1,49.2,8,49.4z M10.6,47c0-0.2-0.1-0.3-0.1-0.4c0-0.1-0.1-0.1-0.1-0.1c-0.1,0-0.1,0.1-0.2,0.1
		C10,46.8,9.8,47,9.6,47.2s-0.2,0.6,0,0.8c0.1,0.1,0.1,0.1,0.2,0c0.2-0.2,0.3-0.4,0.5-0.6C10.4,47.3,10.6,47.2,10.6,47z M19.4,41.9
		c-0.1,0-0.3,0.2-0.3,0.3c-0.1,0.2-0.2,0.3-0.3,0.4c-0.1,0.2-0.2,0.3-0.3,0.5c-0.1,0.1,0,0.3,0.1,0.3c0.1,0.1,0.2,0,0.3-0.1
		c0,0,0,0,0.1-0.1c0.2-0.3,0.4-0.6,0.6-0.8c0.1-0.1,0.1-0.1,0.2-0.2C19.7,42.1,19.6,41.9,19.4,41.9z M28.4,42.3
		c0-0.2-0.1-0.3-0.2-0.4c-0.1-0.1-0.2-0.1-0.3,0c-0.1,0.1-0.2,0.2-0.2,0.4c-0.1,0.2,0,0.4,0.2,0.5c0.1,0,0.1,0,0.2,0
		C28.2,42.7,28.3,42.5,28.4,42.3z M32.7,51c-0.1-0.2-0.1-0.4-0.2-0.6c0,0,0-0.1-0.1-0.1h-0.1c0,0,0,0,0,0.1
		C32.3,50.6,32.4,50.9,32.7,51z M30.6,50.2c0.2,0.2,0.1,0.5,0.4,0.7C31,50.6,30.8,50.3,30.6,50.2z M31.5,52c0,0.3,0.1,0.4,0.3,0.5
		C31.7,52.4,31.7,52.2,31.5,52z M30.2,54.7c0-0.2-0.1-0.3-0.2-0.4C30,54.5,30.1,54.6,30.2,54.7z M35.1,56.3c0-0.3-0.1-0.3-0.3-0.4
		C34.9,56,34.9,56.1,35.1,56.3z M41.4,48.8c0,0.1,0,0.1,0.1,0.2c0.1,0,0.1,0,0.1-0.1C41.6,48.8,41.6,48.7,41.4,48.8
		C41.5,48.7,41.4,48.7,41.4,48.8z M21.6,51.5c0-0.1,0-0.1-0.1-0.2h-0.1v0.1C21.5,51.5,21.5,51.5,21.6,51.5z M10.8,56.3
		c0,0.2,0,0.2,0.2,0.3C10.9,56.4,10.9,56.4,10.8,56.3z M41.9,43C41.9,43.1,41.9,43.1,41.9,43C42,43.1,42.1,43.1,41.9,43
		c0.1-0.1,0.1-0.2,0-0.2C41.9,42.9,41.9,42.9,41.9,43z M31.2,51.3c0-0.1-0.1-0.2-0.2-0.3l0,0C31,51.2,31.1,51.3,31.2,51.3
		C31.1,51.3,31.2,51.3,31.2,51.3z M16.6,40.9c0,0.2,0,0.2,0.2,0.2C16.8,41,16.8,40.9,16.6,40.9z M10.2,54.9c0-0.1,0-0.2,0-0.2h-0.1
		v0.1C10.1,54.7,10.1,54.8,10.2,54.9z M32.5,54.2C32.4,54.2,32.4,54.2,32.5,54.2c0,0.1,0,0.2,0,0.3C32.6,54.4,32.5,54.3,32.5,54.2z
		 M28.7,51.5c0,0.1,0,0.2,0.1,0.3C28.8,51.7,28.8,51.6,28.7,51.5z M31.8,52.9c0,0.1,0,0.1,0.1,0.1c0,0,0.1,0,0.1-0.1
		C32,52.9,32,52.8,31.8,52.9C31.9,52.9,31.8,52.9,31.8,52.9z M9.4,53.2c0,0.1,0.1,0.2,0.2,0.1c0,0,0.1,0,0-0.1
		C9.6,53.2,9.5,53.1,9.4,53.2z M37.3,50.8C37.3,50.8,37.3,50.7,37.3,50.8l-0.2-0.1C37.1,50.8,37.2,50.9,37.3,50.8
		C37.3,50.9,37.3,50.9,37.3,50.8z M34.4,54.9C34.3,54.9,34.3,55,34.4,54.9c0,0.1,0,0.2,0.1,0.2C34.5,55.1,34.5,55,34.4,54.9
		C34.5,54.9,34.5,54.9,34.4,54.9z M29.8,53.9c0,0.1,0,0.2,0.1,0.2C29.9,54,29.9,53.9,29.8,53.9z M30.3,46c0-0.1,0-0.1-0.1-0.1l0,0
		C30.2,46,30.3,46,30.3,46z M30.8,41C30.7,41,30.7,41,30.8,41C30.8,41.1,30.8,41.1,30.8,41C30.8,41.1,30.8,41.1,30.8,41L30.8,41z
		 M6.5,42.7C6.5,42.7,6.5,42.6,6.5,42.7C6.5,42.6,6.4,42.7,6.5,42.7C6.4,42.7,6.5,42.7,6.5,42.7L6.5,42.7z M31.6,48.9L31.6,48.9
		C31.6,48.9,31.6,49,31.6,48.9C31.7,49,31.7,48.9,31.6,48.9C31.7,48.9,31.7,48.9,31.6,48.9z M33.5,47.9
		C33.5,47.8,33.5,47.8,33.5,47.9C33.4,47.8,33.4,47.8,33.5,47.9C33.4,47.9,33.4,47.9,33.5,47.9C33.4,47.9,33.5,47.9,33.5,47.9z
		 M16.8,47.4C16.8,47.4,16.7,47.4,16.8,47.4C16.7,47.5,16.8,47.5,16.8,47.4C16.8,47.5,16.8,47.5,16.8,47.4L16.8,47.4z M32.2,53.5
		L32.2,53.5C32.1,53.5,32.1,53.5,32.2,53.5C32.1,53.6,32.1,53.6,32.2,53.5C32.2,53.6,32.2,53.6,32.2,53.5z M6.3,42.3
		C6.4,42.3,6.4,42.3,6.3,42.3C6.4,42.3,6.4,42.2,6.3,42.3C6.3,42.2,6.3,42.2,6.3,42.3L6.3,42.3z M13,52.1L13,52.1L13,52.1L13,52.1
		L13,52.1z M10.4,55.5L10.4,55.5L10.4,55.5C10.5,55.5,10.5,55.5,10.4,55.5C10.5,55.5,10.4,55.5,10.4,55.5z M7.8,45L7.8,45
		C7.8,45,7.7,45,7.8,45C7.7,45.1,7.8,45.1,7.8,45L7.8,45z M24.6,52.3C24.6,52.2,24.6,52.2,24.6,52.3C24.6,52.2,24.6,52.2,24.6,52.3
		L24.6,52.3L24.6,52.3z M32.6,54.7L32.6,54.7L32.6,54.7C32.7,54.7,32.7,54.7,32.6,54.7L32.6,54.7z"/>
	<path fill="#707070" d="M48.6,41.8c0.1,0,0.2,0.2,0.3,0c0-0.1,0.1,0,0.2,0c0.1,0.2,0.2,0.3,0.2,0.5c0,0.1,0.1,0.2,0.1,0.3
		c0.1,0.2,0.3,0.2,0.4,0c0.3-0.4,0.6-0.7,1-1.1c0.1-0.1,0.1-0.2,0.2-0.3c0.1-0.2,0.3-0.4,0.3-0.7c0-0.1,0.1-0.1,0.1-0.1
		c0.2,0,0.3-0.1,0.4-0.2c0.3-0.3,0.7-0.6,1-1c0.1-0.1,0.1-0.1,0.2-0.2c0.1,0,0.1-0.1,0.2,0c0.1,0.1,0.1,0.2,0,0.2
		c-0.2,0.4-0.3,0.8-0.7,1.1c-0.4,0.2-0.6,0.6-0.8,1c0,0.1-0.1,0.2,0,0.2c0.1,0.3,0.1,0.6,0.3,0.9c0.1,0.1,0.1,0.3,0.2,0.4
		c0.1,0.2,0.3,0.2,0.4,0c0.2-0.3,0.4-0.5,0.5-0.8c0.1-0.1,0.1-0.3,0-0.4C53,41.4,53,41.2,53,41c0.1,0,0.1,0.1,0.2,0.1
		s0.1,0.1,0.1,0.1c0.2-0.1,0.4,0,0.5-0.2c0.3-0.3,0.6-0.7,0.8-1.1c0.1-0.2,0.3-0.3,0.5-0.5c0.2-0.4,0.6-0.6,0.9-0.9
		c0,0,0.1-0.1,0.2,0c0.1,0.1,0.1,0.2,0.1,0.3s-0.1,0.1-0.1,0.2c-0.2,0.2-0.3,0.4-0.3,0.6c0,0.1-0.1,0.3-0.3,0.3
		c-0.1,0.1-0.2,0.1-0.3,0.3c-0.2,0.3-0.4,0.5-0.6,0.8c-0.1,0.1-0.2,0.3-0.3,0.4c-0.1,0.2-0.2,0.3-0.3,0.5s-0.2,0.4,0,0.6
		c0.2,0.2,0.2,0.5,0.3,0.8c0,0.1,0.1,0.2,0.2,0.3c0.2,0.2,0.2,0.2,0.4,0c0.2-0.3,0.3-0.5,0.5-0.8c0.1-0.2,0.2-0.3,0.3-0.4
		c0.3-0.3,0.4-0.7,0.5-1.1c0-0.1,0-0.2,0-0.2c0.2,0,0.2-0.2,0.3-0.2c0.3,0.1,0.4-0.1,0.5-0.2c0.1-0.2,0.3-0.4,0.3-0.6
		c0-0.2,0.1-0.2,0.3-0.2c0.3,0,0.4-0.2,0.6-0.3c0.2-0.3,0.5-0.5,0.7-0.8c0.1-0.1,0.1-0.1,0.2-0.1c0.1,0.1,0.1,0.2,0,0.2
		c-0.1,0.2-0.2,0.5-0.4,0.7c-0.3,0.3-0.6,0.7-0.9,1.1c-0.1,0.2-0.3,0.4-0.5,0.5c0,0-0.1,0-0.1,0.1c-0.2,0.3-0.5,0.5-0.5,0.8
		c0,0.2-0.2,0.3-0.2,0.5c0,0.1-0.1,0.1-0.1,0c-0.3-0.1-0.4,0-0.5,0.2s-0.3,0.4-0.3,0.6c0,0.2-0.2,0.4-0.4,0.5
		c-0.4,0.2-0.4,0.1-0.2,0.6c0.1,0.2,0.2,0.4,0.2,0.6c0,0.1,0,0.1,0.1,0.2c0.3,0.4,0.4,1,0.7,1.5c0.1,0.1,0.1,0.2,0.1,0.3
		c0.1,0.2,0.1,0.4,0.2,0.6c0.2,0.4,0.3,0.9,0.5,1.3c0.1,0.4,0.3,0.8,0.4,1.1c0.2,0.4,0.3,0.8,0.4,1.2c0.2,0.4,0.3,0.8,0.5,1.2
		c0,0.1,0.1,0.2,0.1,0.3c0,0.5,0.3,0.9,0.3,1.4c0,0.2,0.1,0.3,0.2,0.5c0.1,0.2,0.2,0.5,0.2,0.7c0.1,0.4,0.2,0.7,0.3,1.1
		c0,0,0,0.1,0.1,0.1c0.1,0.2,0.1,0.3,0,0.4c-0.1,0.1-0.3,0-0.4-0.1c-0.1-0.1-0.1-0.3-0.2-0.4c-0.1-0.6-0.4-1.1-0.6-1.7
		c-0.1-0.3-0.2-0.7-0.3-1.1c0-0.2-0.1-0.4-0.2-0.6c-0.1-0.3-0.3-0.6-0.3-0.9c0-0.2-0.1-0.4-0.2-0.6c0-0.1-0.1-0.2,0.1-0.3
		c0,0,0.1-0.1,0-0.1h-0.1c-0.1,0.1-0.2,0-0.2-0.1c-0.1-0.4-0.3-0.8-0.4-1.2c-0.1-0.2-0.2-0.4-0.2-0.6c0-0.1,0-0.2-0.1-0.3
		c0-0.1,0-0.2-0.1-0.3c-0.1-0.2-0.2-0.3,0-0.5c-0.4-0.1-0.4-0.4-0.4-0.8c0-0.2,0-0.3-0.2-0.4c-0.1,0-0.1,0-0.1-0.1
		c0-0.2-0.3-0.4-0.1-0.6c0.1-0.1,0-0.2,0-0.2c0-0.1-0.1-0.2-0.1-0.2c-0.1-0.2-0.1-0.2-0.3-0.1c-0.1-0.1-0.1-0.3-0.1-0.4
		c0-0.1,0-0.1,0.1-0.2c0.1-0.2,0.1-0.2,0-0.4c0,0-0.1,0-0.1-0.1c-0.1,0-0.2-0.1-0.1-0.3c0-0.1,0-0.1,0-0.2c-0.2-0.2-0.2-0.4-0.2-0.6
		c0-0.2-0.1-0.4-0.2-0.6c-0.2-0.3-0.7-0.3-0.9,0c-0.1,0.1-0.1,0.2-0.2,0.3c-0.2,0.2-0.2,0.5-0.3,0.7c0,0.2,0.1,0.4,0.2,0.7
		c0.1,0.4,0.3,0.8,0.4,1.1c0.1,0.3,0.2,0.6,0.3,0.9v0.1c-0.1,0-0.1,0-0.1-0.1s0-0.1-0.1-0.2c0-0.1-0.1-0.2-0.2-0.3
		c0,0.2,0.1,0.4,0.1,0.5s0.1,0.2,0.2,0.2c0.1,0,0.2,0.1,0.2,0.2c0.1,0.4,0.4,0.8,0.5,1.2s0.2,0.8,0.4,1.1c0.2,0.6,0.4,1.2,0.6,1.8
		c0.1,0.3,0.1,0.5,0.2,0.8c0,0.1,0,0.1,0.1,0.2c0.2,0.3,0.3,0.7,0.4,1c0.1,0.2,0.1,0.5,0.2,0.8c0.2,0.4,0.3,0.8,0.5,1.2
		c0.2,0.3,0.3,0.7,0.4,1.1c0,0.1,0.1,0.2,0.1,0.3c0.2,0.4,0.3,0.8,0.4,1.2c0,0.1,0,0.2-0.1,0.2s-0.1,0.1-0.2,0.2
		c-0.1-0.1-0.2-0.3-0.3-0.4c-0.2-0.7-0.5-1.3-0.7-1.9c-0.3-0.8-0.6-1.6-0.9-2.3C55,53.7,55,53.5,55,53.3c-0.3-0.8-0.5-1.6-0.8-2.4
		c-0.1-0.4-0.2-0.7-0.4-1c-0.1-0.3-0.2-0.7-0.3-1c-0.2-0.6-0.4-1.3-0.7-1.9c-0.1-0.4-0.3-0.9-0.4-1.3c-0.1-0.2-0.2-0.4-0.2-0.6
		c-0.1-0.2-0.2-0.2-0.4-0.1c-0.1,0-0.1,0.1-0.2,0.2c-0.1,0.1-0.2,0.1-0.2,0c-0.1-0.1-0.1-0.1-0.1-0.2c0-0.1,0-0.1,0.1-0.2
		c0.1-0.1,0.1-0.3,0.2-0.4c0.2-0.3,0.2-0.7,0.1-1c-0.1-0.2-0.1-0.5-0.2-0.8v-0.1c0-0.1-0.1-0.3-0.3-0.3s-0.2,0.1-0.3,0.2
		c-0.2,0.3-0.4,0.6-0.5,0.9c0,0.1-0.1,0.1-0.1,0.2c-0.2,0.2-0.2,0.4-0.1,0.7c0.1,0.2,0.2,0.5,0.2,0.7c0,0,0,0.1,0.1,0.1
		c0.1,0.1,0.2,0.3,0.2,0.4c0,0.2,0.2,0.4,0.3,0.6c0.2,0.5,0.5,1,0.6,1.5c0.1,0.2,0.1,0.4,0.2,0.6c0.2,0.3,0.3,0.7,0.4,1
		c0.1,0.2,0.2,0.4,0.3,0.6c0.1,0.4,0.2,0.8,0.3,1.2s0.2,0.8,0.5,1.2c0,0.1,0.1,0.1,0.1,0.2c0.1,0.6,0.4,1,0.5,1.6
		c0.1,0.4,0.3,0.8,0.5,1.2c0.2,0.5,0.4,0.9,0.6,1.3c0,0.1,0.1,0.1,0.1,0.2c0.1,0.1,0.1,0.2,0.1,0.4s0,0.2-0.2,0.2
		c-0.3,0-0.4-0.1-0.5-0.3c-0.3-0.6-0.5-1.2-0.8-1.7c-0.1-0.1-0.1-0.3-0.1-0.4c-0.2-0.6-0.4-1.2-0.7-1.8c-0.2-0.5-0.3-1-0.6-1.5
		c-0.1-0.2,0-0.4-0.1-0.5c-0.1-0.3-0.2-0.5-0.3-0.8c-0.2-0.7-0.6-1.4-0.8-2.1c-0.2-0.5-0.4-1-0.6-1.6c-0.1-0.2-0.2-0.3-0.2-0.5
		c-0.1-0.2-0.2-0.4-0.3-0.6c-0.1-0.3-0.3-0.6-0.3-0.9v-0.1c-0.3-0.2-0.3-0.5-0.4-0.8c-0.1-0.3-0.2-0.5-0.3-0.8
		C48.6,42.3,48.6,42,48.6,41.8L48.6,41.8z M52,49.8L52,49.8c0-0.1,0-0.2,0-0.4c0,0,0-0.1-0.1,0v0.1C51.9,49.6,51.9,49.7,52,49.8z
		 M50,44.9c0-0.1,0-0.2-0.1-0.3l0,0C49.8,44.8,49.9,44.8,50,44.9z M51.4,41.9C51.4,42,51.4,42,51.4,41.9c0.1,0.1,0.2,0.1,0.2,0
		C51.6,41.9,51.5,41.8,51.4,41.9C51.4,41.8,51.4,41.9,51.4,41.9z M50.9,47.3L50.9,47.3C51,47.4,51,47.3,50.9,47.3
		C51,47.2,51,47.2,50.9,47.3C50.9,47.2,50.9,47.2,50.9,47.3z M52.8,46C52.8,46,52.9,46,52.8,46C52.9,45.9,52.9,45.9,52.8,46
		C52.8,45.9,52.8,45.9,52.8,46C52.8,45.9,52.8,46,52.8,46z"/>
	<path fill="#707070" d="M70.2,46.1C70,46.1,70,46,70,45.8c-0.1-0.3-0.2-0.4-0.5-0.4c-0.1,0-0.2,0.1-0.3,0.2
		c-0.1,0.2-0.2,0.3-0.4,0.5c-0.1,0.1-0.1,0.3-0.1,0.4c0.1,0.4,0.1,0.9,0.3,1.3c0.1,0.2,0.2,0.4,0.3,0.6c0.2,0.6,0.4,1.2,0.7,1.8
		c0.1,0.3,0.2,0.6,0.3,0.9c0.1,0.2,0.2,0.5,0.3,0.7c0.3,0.6,0.4,1.2,0.6,1.7c0.3,0.6,0.5,1.3,0.7,1.9c0,0,0,0.1,0.1,0.1
		c0,0.5,0,0.5-0.3,0.6c-0.1,0-0.2,0-0.2-0.1c-0.1-0.3-0.3-0.7-0.4-1C71,54.8,71,54.6,71,54.4c0-0.1,0-0.3-0.2-0.3s-0.2-0.2-0.2-0.4
		c0-0.1,0-0.2-0.1-0.4s-0.2-0.4-0.2-0.6c-0.1-0.3-0.2-0.5-0.3-0.8c-0.1-0.2-0.1-0.4-0.2-0.6c0-0.1,0-0.1-0.1-0.2
		c0-0.1-0.1-0.1-0.1-0.2c0.1-0.2,0-0.3-0.1-0.5c-0.1-0.1-0.1-0.2-0.1-0.3s0-0.2-0.1-0.3s-0.1-0.3,0-0.4c0.1-0.1,0-0.2-0.1-0.3
		c-0.3-0.2-0.3-0.4-0.3-0.7c0-0.2,0-0.4,0-0.5s0-0.2-0.1-0.2c-0.2-0.1-0.3-0.3-0.5-0.4C68.1,47.2,68,47,68,46.7
		c0-0.4-0.1-0.8-0.3-1.3c-0.1-0.1-0.1-0.3-0.1-0.4c0-0.2-0.1-0.3-0.3-0.4c-0.1-0.1-0.2-0.1-0.4-0.1c-0.2,0-0.2,0-0.2-0.2v-0.1
		c0.1-0.2,0.1-0.5,0.2-0.7c0-0.1-0.2-0.5-0.3-0.5h-0.1c-0.2,0.1-0.3,0.3-0.3,0.6s0.1,0.5,0.2,0.7c0.1,0.1,0.1,0.2,0.1,0.3
		s0,0.2,0.1,0.3c0.2,0.3,0.2,0.7,0.4,1c0.1,0.3,0.2,0.6,0.3,0.9c0.2,0.4,0.4,0.8,0.4,1.3c0,0.1,0,0.1,0.1,0.2
		c0.3,0.3,0.5,0.7,0.6,1.1c0.1,0.5,0.4,1,0.6,1.5c0.1,0.3,0.2,0.6,0.3,0.9c0,0.1,0,0.2,0.1,0.3c0.2,0.3,0.2,0.6,0.3,0.8
		c0.2,0.5,0.4,1,0.6,1.5s0.5,1.1,0.7,1.6c0.2,0.4,0.4,0.8,0.6,1.2c0.1,0.2,0.2,0.4,0.2,0.6c0.1,0.2,0,0.4-0.1,0.4s-0.3,0-0.3-0.2
		c-0.2-0.4-0.4-0.7-0.5-1.1c0-0.2-0.1-0.3-0.2-0.5c-0.2-0.3-0.5-0.7-0.6-1.1c-0.3-0.6-0.6-1.2-0.7-1.9c0-0.1-0.1-0.3-0.1-0.4
		c-0.1-0.2-0.2-0.4-0.3-0.6c-0.2-0.4-0.2-0.7-0.4-1.1c-0.1-0.1-0.1-0.2,0-0.3s0.1-0.1,0-0.2c-0.2-0.1-0.2-0.3-0.3-0.5
		c0-0.2-0.2-0.3-0.3-0.5c-0.2-0.4-0.3-0.8-0.5-1.2c0-0.1,0-0.1,0-0.2c0.1-0.1,0-0.3-0.1-0.4c-0.2-0.2-0.4-0.5-0.5-0.8
		c-0.1-0.2-0.2-0.4-0.3-0.6c-0.1-0.1-0.1-0.2,0-0.3c0.1-0.2,0.1-0.3,0-0.5c0-0.1,0-0.1,0-0.2c0-0.1-0.1-0.3-0.2-0.4
		c-0.1-0.1-0.1-0.1-0.1-0.2c0-0.3-0.2-0.4-0.4-0.5c-0.1,0-0.2-0.1-0.3-0.1c-0.2-0.1-0.3-0.3-0.2-0.5c0.1-0.3,0-0.6,0.1-0.8
		c0-0.1-0.1-0.3-0.1-0.4c0-0.1,0-0.1,0-0.2c0.1-0.1,0.1,0,0.2,0l0,0c0.2,0.2,0.4,0.2,0.5-0.1c0.1-0.2,0.1-0.3,0.2-0.5
		c0-0.2,0.1-0.3,0.3-0.3c0.2,0,0.4-0.1,0.5-0.3c0.1-0.1,0.2-0.3,0.4-0.4c0.2-0.2,0.3-0.4,0.3-0.6c0-0.1,0.1-0.2,0.2-0.3
		c0.3-0.1,0.5-0.3,0.7-0.6s0.5-0.4,0.7-0.7c0,0,0.1-0.1,0.2,0c0.1,0,0.1,0.1,0,0.2c-0.1,0.4-0.3,0.6-0.5,0.9
		c-0.2,0.4-0.6,0.7-0.7,1.2c0,0.2-0.1,0.3-0.3,0.3c-0.2,0-0.3,0.1-0.4,0.2c-0.2,0.2-0.3,0.4-0.5,0.6c-0.2,0.3-0.1,0.8,0.2,1
		c0.1,0.1,0.2,0.1,0.3,0c0.3-0.3,0.6-0.6,0.6-1c0-0.3,0.2-0.4,0.4-0.3c0.1,0,0.2,0,0.3-0.1c0.3-0.3,0.5-0.6,0.8-0.9
		c0.2-0.2,0.3-0.4,0.3-0.7c0-0.1,0-0.2,0.2-0.2c0.3,0.1,0.4-0.1,0.6-0.3s0.4-0.4,0.6-0.5c0.1,0,0.1-0.1,0.1-0.2
		c0.1-0.2,0.3-0.4,0.4-0.6c0,0,0.1-0.1,0.1,0l0.1,0.1c0,0.2,0,0.4-0.2,0.5c-0.3,0.3-0.6,0.6-0.9,0.9c-0.2,0.2-0.3,0.4-0.5,0.6
		c-0.1,0.1-0.1,0.2,0,0.3c0,0.3,0.1,0.6,0.3,0.9c0,0.1,0.1,0.1,0.2,0.2c0.2,0.1,0.3,0.1,0.4,0s0.2-0.2,0.3-0.3
		c0.2-0.3,0.5-0.6,0.6-1c0-0.1,0.1-0.2,0.2-0.2c0.2-0.1,0.4-0.2,0.5-0.4s0.4-0.3,0.5-0.5h0.1c0,0,0.1,0.1,0,0.1c0,0.1,0,0.1-0.1,0.2
		c-0.1,0.2-0.2,0.4-0.4,0.5l-0.1,0.1C73,40.4,73,40.5,73,40.6c-0.2,0.3-0.3,0.6-0.5,0.9l-0.1,0.1c-0.3,0.1-0.4,0.3-0.5,0.5
		c-0.1,0.1-0.2,0.3-0.3,0.4c-0.2,0.2-0.2,0.5-0.2,0.7c0,0.3,0,0.3-0.3,0.3s-0.4,0.1-0.5,0.3s-0.3,0.4-0.5,0.6
		c-0.1,0.1-0.1,0.1-0.2,0.2c-0.2,0.3-0.3,0.5-0.2,0.9C70,45.6,70.1,45.9,70.2,46.1z M70.9,42.1c0.1-0.2-0.1-0.4-0.2-0.7
		c-0.1-0.2-0.2-0.2-0.3-0.2c-0.2,0-0.3,0.1-0.4,0.2c-0.2,0.2-0.5,0.5-0.7,0.8c-0.1,0.1-0.2,0.3-0.2,0.5s0,0.5,0.2,0.7
		c0,0.1,0.1,0.1,0.1,0.2v0.1h-0.1c-0.1-0.2-0.2-0.3-0.2-0.5c0-0.1-0.1-0.1-0.1-0.1c-0.1,0.1-0.2,0.1-0.4,0c-0.1,0-0.1,0-0.2,0
		c-0.5,0.3-0.6,0.8-0.5,1.3c0,0.1,0.1,0.2,0.1,0.3c0.1,0.1,0.1,0.3,0.2,0.4c0,0.2,0.1,0.3,0.2,0.5s0.2,0.2,0.3,0
		c0.1-0.2,0.3-0.4,0.4-0.5l0.1-0.1c0-0.3,0.2-0.5,0.2-0.8c0-0.2,0-0.2,0.2-0.1c0.2,0.1,0.2,0.1,0.4-0.1c0.2-0.2,0.4-0.5,0.6-0.8
		C70.8,42.8,70.9,42.5,70.9,42.1z"/>
	<path fill="#707070" d="M48.6,41.8c-0.1-0.1-0.2-0.1-0.3-0.1c-0.2,0-0.3,0-0.2,0.3c0,0.2-0.1,0.3-0.2,0.3c-0.2,0.1-0.2,0.2-0.2,0.4
		s0,0.3,0,0.5c0,0.4,0.2,0.8,0.3,1.2c0.1,0.3,0.3,0.6,0.4,0.9c0.1,0.3,0.2,0.6,0.3,0.8c0,0.1,0.1,0.2,0.1,0.3
		c0.1,0.2,0.1,0.5,0.2,0.7c0.2,0.3,0.2,0.7,0.4,1.1c0.1,0.3,0.2,0.5,0.3,0.8c0,0,0,0,0,0.1c0.1,0.4,0.3,0.8,0.4,1.3
		c0.1,0.4,0.3,0.8,0.5,1.2c0.1,0.4,0.3,0.7,0.4,1.1c0,0.2,0.1,0.3,0.2,0.4c0.1,0.3,0.2,0.6,0.3,0.9c0.2,0.4,0.2,0.8,0.4,1.2
		c0.2,0.3,0.3,0.7,0.5,1c0.1,0.1,0.1,0.3,0.1,0.4c0,0.1,0,0.2,0.1,0.3c0.1,0.2,0.2,0.3,0.3,0.5c-0.1,0.1-0.2-0.1-0.2,0.1
		c0,0.1,0.1,0.1,0.2,0.2c0.1,0,0.1,0.1,0,0.2c0,0,0,0-0.1,0.1c-0.2,0.2-0.2,0.2-0.3,0c-0.2-0.5-0.5-1.1-0.7-1.6
		c-0.1-0.4-0.3-0.8-0.5-1.1c-0.3-0.6-0.6-1.2-0.7-1.9c0-0.2-0.1-0.3-0.2-0.5c-0.3-0.7-0.6-1.5-0.9-2.2c-0.1-0.3-0.1-0.6-0.3-0.9
		c-0.1-0.1-0.1-0.2-0.2-0.3c-0.1-0.2-0.1-0.4-0.1-0.6c0.2,0.1,0.3,0.4,0.5,0.6c0-0.2-0.1-0.3-0.1-0.4c0-0.2-0.2-0.4-0.3-0.6
		c0,0.2-0.1,0.3-0.1,0.4c-0.3-0.4-0.4-0.9-0.6-1.4c-0.1-0.3-0.1-0.7-0.3-1c-0.1-0.2-0.1-0.4-0.2-0.7c-0.1-0.3-0.3-0.5-0.3-0.8
		c0-0.2-0.1-0.4-0.2-0.6c0-0.2-0.1-0.3-0.2-0.5c-0.1-0.1-0.1-0.1-0.2,0c-0.2,0.1-0.3,0.3-0.4,0.4c-0.1,0.1-0.2,0.2-0.3,0.3
		C46,44.7,46,44.9,46,45.1c0.1,0.3,0.2,0.6,0.3,0.9c0.3,0.8,0.5,1.5,0.8,2.3c0,0.1,0.1,0.2,0.2,0.3c0,0.1,0.1,0.2,0.1,0.2
		c0,0.4,0.3,0.8,0.4,1.1c0.1,0.3,0.2,0.5,0.3,0.8c0,0.2,0.1,0.4,0.2,0.6c0.1,0.1,0.1,0.3,0.2,0.5c0,0.1,0.1,0.3,0.1,0.4
		c0.2,0.3,0.2,0.6,0.3,1s0.3,0.9,0.5,1.3c0,0.1,0.1,0.2,0.1,0.3c0,0.2,0.1,0.4,0.2,0.5c0.2,0.5,0.4,0.9,0.6,1.4
		c0.1,0.2,0.1,0.4,0.2,0.5c0.1,0.2,0.1,0.2-0.1,0.3c-0.2,0.1-0.3,0-0.3-0.1c-0.1-0.3-0.3-0.7-0.5-1v-0.1c-0.1-0.5-0.4-0.9-0.5-1.4
		c-0.1-0.3-0.2-0.5-0.3-0.8c-0.1-0.4-0.2-0.7-0.4-1.1c-0.1-0.4-0.4-0.8-0.4-1.3c-0.1-0.7-0.4-1.3-0.7-2c-0.1-0.3-0.3-0.7-0.4-1
		c-0.2-0.5-0.4-0.9-0.5-1.4c0-0.2-0.2-0.4-0.2-0.7c-0.1-0.4-0.3-0.7-0.4-1.1c-0.1-0.4-0.3-0.8-0.4-1.2c-0.1-0.4-0.3-0.8-0.5-1.3
		c0-0.1-0.1-0.3-0.1-0.4c-0.1-0.2-0.2-0.3-0.4-0.1c-0.1,0-0.1,0.1-0.2,0.1c-0.2,0.3-0.5,0.6-0.6,1c0,0.2-0.2,0.2-0.3,0.2
		S43,43.7,43,43.6c0-0.1,0-0.2,0-0.3c0.1-0.2,0.3-0.5,0.5-0.7c0.1-0.1,0.2-0.2,0.3-0.4s0.2-0.3,0.3-0.4c0.2-0.2,0.3-0.3,0.2-0.6
		s-0.1-0.6-0.2-0.9c0-0.1,0-0.2,0.2-0.2c0.1,0,0,0.1,0,0.1c-0.1,0.1,0,0.2,0.1,0.2s0.2,0.1,0.2,0.1c0,0.1,0.1,0.2,0.2,0.3
		c0.1,0.1,0.3,0.2,0.4,0c0.3-0.5,0.9-0.8,1.1-1.3c0-0.1,0.1-0.2,0.2-0.2c0.3-0.1,0.5-0.4,0.8-0.6c0.1-0.1,0.1-0.2,0.2-0.3
		c0.1-0.1,0.2-0.1,0.3,0s0.1,0.2,0,0.3c-0.1,0.2-0.2,0.4-0.4,0.5s-0.3,0.3-0.4,0.5c-0.1,0.3-0.3,0.5-0.5,0.7l-0.1,0.1
		c-0.3,0.1-0.5,0.4-0.7,0.6c-0.1,0.1-0.2,0.2-0.3,0.3c-0.4,0.3-0.4,0.5-0.2,0.9c0,0.1,0.1,0.2,0.1,0.3s0,0.2,0.1,0.2
		c0.1,0.3,0.3,0.5,0.4,0.8c0.1,0.2,0.2,0.2,0.3,0.1c0.1,0,0.1-0.1,0.1-0.1c0.2-0.3,0.4-0.5,0.6-0.7c0.1-0.2,0.1-0.3,0.1-0.5
		c0-0.1-0.1-0.3-0.1-0.4c0-0.1,0-0.2,0.1-0.2s0.3,0,0.4,0.1c0.2,0.1,0.2,0.1,0.3-0.1c0.2-0.3,0.4-0.5,0.5-0.9
		c0.1-0.2,0.2-0.4,0.4-0.5s0.4-0.3,0.5-0.5c0.3-0.4,0.6-0.7,0.8-1.1c0.1-0.2,0.2-0.3,0.3-0.5c0.1-0.1,0.1-0.1,0.2,0
		c0,0,0,0.1,0.1,0.1c0.1,0.1,0.1,0.2,0,0.2c-0.1,0.1-0.2,0.2-0.2,0.3s-0.1,0.2-0.2,0.3l-0.1,0.1c-0.3,0.5-0.7,0.9-1,1.4
		c0,0.1-0.1,0.1-0.1,0.2c0,0.1,0,0.3-0.2,0.4C48.5,41.5,48.6,41.6,48.6,41.8L48.6,41.8z M52.2,55.9c0-0.1-0.1-0.3-0.2-0.3l0,0
		c0,0.1,0,0.2,0.1,0.3V56C52.1,56,52.2,56,52.2,55.9C52.2,56,52.2,56,52.2,55.9z M50,50.4C50.1,50.4,50.1,50.5,50,50.4
		C50.1,50.5,50.1,50.4,50,50.4C50.1,50.4,50.1,50.4,50,50.4C50.1,50.4,50.1,50.4,50,50.4z"/>
	<path fill="#707070" d="M95.4,54.6c0-0.1-0.1-0.2-0.1-0.3c-0.1-0.3-0.2-0.6-0.3-0.9c-0.1-0.1-0.1-0.3-0.1-0.4
		c0-0.2-0.1-0.5-0.2-0.7l-0.1-0.1c-0.1-0.5-0.4-1-0.4-1.6c0-0.1-0.1-0.2-0.2-0.3c-0.1-0.2-0.2-0.4-0.2-0.6c0-0.2-0.1-0.4-0.2-0.5
		s-0.1-0.3-0.2-0.4c0-0.1-0.1-0.2,0.1-0.2c0.1-0.1,0.2,0,0.2,0.1c0.1,0.2,0.2,0.4,0.2,0.7c0,0.1,0.1,0.2,0.1,0.3
		c0.2,0.2,0.2,0.5,0.3,0.8c0,0.1,0,0.2,0.1,0.2c0.3,0.6,0.4,1.2,0.6,1.8c0.1,0.5,0.3,1,0.4,1.5s0.3,1.1,0.4,1.6
		c0,0.2,0.1,0.4,0.2,0.6c0.1,0.3,0.2,0.6,0.3,0.9c0.1,0.3,0.2,0.6,0.3,1c0.2,0.6,0.5,1.1,0.6,1.7c0.1,0.2,0.2,0.4,0.3,0.5
		c0.3,0.5,0.6,1.1,0.9,1.7c0,0.1,0.1,0.2,0.2,0.3s0.2,0.3,0.2,0.5c0,0.1,0,0.1-0.1,0.2c-0.1,0-0.1,0-0.2,0c-0.2-0.1-0.3-0.3-0.3-0.4
		c-0.1-0.3-0.3-0.6-0.5-0.9c-0.2-0.3-0.4-0.6-0.4-1v-0.1c-0.1-0.2-0.1-0.4-0.3-0.6c-0.2-0.3-0.3-0.6-0.6-0.8c-0.3-0.3-0.6-0.6-0.7-1
		c-0.1-0.2-0.2-0.4-0.3-0.6c-0.1-0.2-0.2-0.4-0.3-0.6c-0.1-0.2-0.1-0.4-0.2-0.5c-0.2-0.4-0.3-0.9-0.6-1.3c-0.1-0.1-0.1-0.2-0.1-0.3
		c-0.1-0.2-0.2-0.5-0.3-0.7l-0.1-0.1c0-0.4-0.2-0.7-0.4-1c-0.1-0.2-0.2-0.4-0.3-0.6c-0.1-0.3-0.1-0.7-0.3-1
		c-0.1-0.2-0.1-0.4-0.2-0.5c-0.1-0.2-0.1-0.4-0.1-0.6c0-0.1,0-0.1,0-0.2c-0.1-0.3-0.2-0.7-0.3-1c0-0.1,0-0.1-0.1-0.2
		c0-0.1,0-0.2-0.1-0.3c-0.4-0.5-0.5-1.1-0.6-1.7c-0.1-0.4-0.2-0.8-0.4-1.2c-0.1-0.3-0.3-0.6-0.3-0.9c0-0.1-0.1-0.2-0.1-0.3
		c-0.1-0.2,0-0.4-0.2-0.6v-0.1c0,0,0-0.1,0.1-0.1c0,0,0.1,0,0.1,0.1c0,0.3,0.3,0.5,0.3,0.8c0,0.2,0.2,0.3,0.2,0.5
		c0.1,0.5,0.4,0.9,0.5,1.4s0.3,0.9,0.5,1.3V48c0.1,0.4,0.2,0.7,0.4,1.1c0.1,0.3,0.2,0.6,0.3,0.9c0,0.1,0.1,0.3,0.1,0.4
		c0.2,0.5,0.3,1,0.5,1.5c0.1,0.2,0.1,0.5,0.2,0.7c0.2,0.4,0.4,0.9,0.6,1.3c0.1,0.2,0.1,0.4,0.2,0.6c0.1,0.3,0.3,0.6,0.4,1
		c0,0.1,0.1,0.1,0.1,0.1c0.1,0,0.1-0.1,0.1-0.2C95.3,54.7,95.4,54.7,95.4,54.6z"/>
	<path fill="#707070" d="M66.9,53.2c0-0.1,0-0.1,0-0.2c0-0.1,0-0.2-0.1-0.2c-0.2-0.4-0.4-0.9-0.6-1.3c-0.2-0.5-0.3-1-0.5-1.5v-0.1
		c0-0.3-0.1-0.5-0.3-0.8c-0.2-0.4-0.3-0.7-0.3-1.1c0-0.2-0.1-0.5-0.2-0.7c-0.2-0.3-0.4-0.6-0.5-0.9l0,0c-0.1-0.2,0-0.4-0.1-0.6
		c-0.1-0.2-0.2-0.3-0.2-0.5c0-0.1,0-0.1-0.1-0.2c-0.1-0.1-0.2-0.3-0.1-0.4v-0.1c0-0.3,0-0.6-0.4-0.6l-0.1-0.1
		c-0.1-0.2-0.2-0.3-0.4-0.4c0-0.2,0-0.3,0-0.5c0.1-0.3,0-0.7,0.1-1c0-0.1-0.1-0.1-0.1-0.2c0-0.1-0.2-0.1-0.1-0.2
		c0.1-0.1,0.2,0,0.3,0s0.1,0,0.2,0.1c0.1,0.1,0.2,0.1,0.3,0c0.2-0.2,0.3-0.3,0.5-0.5c0.3-0.4,0.6-0.7,0.9-1.1
		c0.4-0.4,0.8-0.8,1.2-1.3c0.2-0.2,0.3-0.4,0.5-0.6c0-0.1,0.1-0.1,0.1-0.1H67v0.1c-0.1,0.2-0.1,0.4-0.3,0.5
		c-0.1,0.1-0.2,0.1-0.2,0.2c0,0.2-0.2,0.4-0.3,0.5c-0.2,0.2-0.3,0.4-0.3,0.6c0,0.1-0.1,0.2-0.3,0.3c-0.2,0.2-0.5,0.4-0.5,0.7
		c0,0.1-0.1,0.2-0.2,0.3c-0.3,0.2-0.6,0.5-0.9,0.8c-0.1,0.2-0.2,0.4-0.1,0.7c0,0.4,0.2,0.7,0.3,1.1c0.1,0.3,0.2,0.5,0.3,0.8
		c0.1,0.3,0.2,0.5,0.3,0.8c0.1,0.3,0.2,0.5,0.4,0.8c0.1,0.3,0.2,0.5,0.3,0.8c0.1,0.2,0.1,0.4,0.2,0.6c0.2,0.5,0.4,1,0.6,1.5
		c0.1,0.4,0.2,0.8,0.3,1.2c0.1,0.2,0.2,0.5,0.3,0.7c0.1,0.1,0.1,0.3,0.2,0.4c0.1,0.6,0.4,1.2,0.6,1.8c0.2,0.5,0.4,1,0.5,1.5
		s0.4,0.9,0.5,1.4c0.2,0.5,0.3,0.9,0.4,1.4c0,0.1,0,0.2,0,0.2c0,0.1-0.1,0.1-0.2,0.1s-0.1-0.1-0.2-0.1c-0.2-0.4-0.4-0.8-0.6-1.3
		c0-0.1-0.1-0.3-0.1-0.4c-0.1-0.4-0.2-0.8-0.4-1.2v-0.1c0-0.4-0.3-0.7-0.4-1C67,53.6,67,53.4,66.9,53.2z"/>
	<path fill="#707070" d="M72.6,47.1c-0.1-0.1-0.2-0.2-0.3-0.3c-0.1-0.1-0.1-0.2,0-0.3c0-0.1,0-0.2,0-0.2c0-0.2-0.1-0.3-0.2-0.3
		c-0.2,0-0.3-0.1-0.3-0.3c0-0.1-0.1-0.3,0-0.5c0-0.2,0-0.5,0-0.7s-0.1-0.4-0.2-0.5s-0.1-0.3,0-0.4c0.1-0.1,0.2-0.1,0.2,0
		c0.1,0.2,0.2,0.4,0.2,0.5c0.2,0.4,0.4,0.5,0.7,0.1c0.3-0.3,0.5-0.6,0.5-1.1c0-0.1,0.1-0.2,0.2-0.3s0.2-0.2,0.3-0.2s0.2-0.1,0.3-0.2
		c0.2-0.2,0.3-0.4,0.5-0.7c0.1-0.2,0.2-0.3,0.4-0.4c0.1-0.1,0.2-0.3,0.2-0.4c0-0.1,0.1-0.2,0.2-0.2c0.3-0.2,0.6-0.4,0.7-0.7
		c0.1-0.1,0.1-0.2,0.2-0.3s0.2-0.2,0.2-0.3c0,0,0-0.1,0.1-0.1c0.1-0.1,0.1-0.2,0.2-0.2c0.1,0.1,0.1,0.2,0.1,0.3
		c0,0.2-0.1,0.3-0.3,0.4c-0.1,0.1-0.2,0.1-0.2,0.3s-0.1,0.3-0.3,0.4c0,0-0.1,0-0.1,0.1c-0.1,0.3-0.4,0.5-0.4,0.8
		c0,0.1-0.1,0.2-0.2,0.3c-0.2,0.1-0.3,0.2-0.4,0.4c-0.3,0.4-0.7,0.9-0.9,1.4c-0.1,0.2-0.1,0.4,0,0.7c0,0,0,0.1,0.1,0.1
		c0.1,0.1,0.1,0.2,0,0.3s-0.2,0.1-0.3,0.1c-0.1,0-0.1,0-0.1-0.1s-0.1-0.1-0.1-0.2c-0.1-0.2-0.2-0.2-0.4,0c-0.1,0.1-0.1,0.2-0.2,0.3
		c-0.1,0.2-0.3,0.4-0.4,0.6c-0.2,0.3-0.2,0.7-0.1,1s0.3,0.7,0.3,1c0,0.1,0.2,0.2,0.2,0.4c0,0.3,0.2,0.6,0.4,0.8
		c0.1,0.1,0.1,0.3,0.2,0.5s0.1,0.4,0.3,0.6c0.1,0.1,0.1,0.2,0.1,0.3c0.1,0.3,0.2,0.5,0.3,0.8c0.1,0.2,0.2,0.5,0.2,0.7
		c0.1,0.4,0.2,0.8,0.4,1.1c0.2,0.4,0.3,0.8,0.5,1.3c0.1,0.2,0.2,0.5,0.3,0.7c0.2,0.3,0.3,0.6,0.4,0.9c0,0.1,0.1,0.2,0.1,0.2
		c0.3,0.4,0.4,0.8,0.6,1.2c0.1,0.2,0.2,0.3,0.3,0.4c0.2,0.2,0.3,0.4,0.3,0.7c0,0.1,0.1,0.3,0.1,0.4c0,0.1,0.1,0.1,0.1,0.2
		c0,0.1,0,0.2-0.1,0.2s-0.1,0-0.2,0s-0.1-0.1-0.1-0.1C77.1,58.2,77,58,76.9,58c-0.1-0.3-0.4-0.4-0.4-0.7c0-0.2-0.1-0.4-0.2-0.5
		s-0.2-0.3-0.3-0.4l0,0c0.1-0.3-0.2-0.5-0.2-0.7c0-0.1,0-0.2-0.2-0.3c-0.1,0-0.2-0.1-0.2-0.2c-0.1-0.2-0.2-0.3-0.2-0.5
		c0-0.1,0-0.2-0.1-0.3c-0.2-0.4-0.3-0.8-0.5-1.2c-0.1-0.1-0.1-0.2,0-0.3c0.1-0.2,0.1-0.3-0.1-0.3s-0.2-0.2-0.3-0.3
		c-0.1-0.2-0.1-0.4-0.2-0.6c-0.1-0.3-0.2-0.6-0.3-0.9c-0.1-0.4-0.3-0.7-0.4-1.1c0-0.1,0-0.2,0-0.3s0-0.2-0.1-0.2
		C73.1,49.1,73,49,73,48.8c0-0.1-0.1-0.3,0-0.4c0.1-0.1,0-0.3-0.2-0.4c-0.1-0.1-0.1-0.1-0.2-0.2C72.4,47.4,72.4,47.3,72.6,47.1z"/>
	<path fill="#707070" d="M89.6,58.7c0,0.1,0,0.2-0.1,0.2s-0.1,0-0.2,0c-0.1-0.1-0.2-0.2-0.3-0.4c0-0.2-0.1-0.3-0.3-0.4
		c-0.1-0.1-0.1-0.2-0.2-0.3c-0.1-0.6-0.4-1.2-0.6-1.9c-0.1-0.3-0.2-0.6-0.3-0.9c-0.2-0.3-0.2-0.6-0.4-0.9c-0.1-0.2-0.1-0.4-0.2-0.6
		c-0.1-0.3-0.2-0.6-0.3-0.8c-0.2-0.5-0.4-1-0.5-1.5c0-0.1-0.1-0.2-0.1-0.3c-0.2-0.3-0.2-0.7-0.3-1.1c-0.2-0.4-0.3-0.8-0.5-1.2
		c-0.1-0.3-0.2-0.5-0.3-0.8c-0.1-0.3-0.2-0.6-0.3-0.8c-0.2-0.6-0.5-1.2-0.5-1.9c0-0.1,0-0.1,0-0.2c-0.2-0.3-0.2-0.7-0.3-1
		c0-0.1,0-0.2,0.1-0.2s0.2,0,0.2,0.1c0.3,1,0.7,1.9,1,2.9c0.2,0.6,0.4,1.3,0.7,1.9c0.2,0.5,0.4,1,0.5,1.5c0.2,0.6,0.4,1.2,0.6,1.7
		c0.2,0.4,0.3,0.8,0.4,1.2c0.2,0.4,0.3,0.9,0.5,1.3c0.1,0.1,0.1,0.2,0.1,0.4c0,0.1,0.1,0.2,0.1,0.3l0.1,0.1c0.1,0.4,0.3,0.7,0.4,1.1
		c0.2,0.5,0.4,1,0.5,1.6c0.1,0.3,0.2,0.6,0.3,0.8C89.6,58.5,89.6,58.6,89.6,58.7z"/>
	<path fill="#707070" d="M63.6,57.3c0,0.1,0.1,0.2-0.1,0.3c-0.2,0-0.2-0.1-0.3-0.2c-0.1-0.2-0.1-0.4-0.2-0.6c-0.1-0.3-0.1-0.7-0.3-1
		c0,0-0.1-0.1-0.1-0.2c0-0.3-0.1-0.5-0.3-0.7c-0.1-0.2-0.1-0.4-0.2-0.7c-0.1-0.3-0.3-0.6-0.3-1c0-0.1-0.1-0.2-0.2-0.4
		c0-0.1-0.1-0.2,0-0.4c0-0.1,0-0.2-0.1-0.2c-0.1-0.1-0.2-0.3-0.2-0.5s-0.1-0.3-0.2-0.5c-0.1-0.3-0.2-0.5-0.3-0.8s-0.2-0.6-0.3-0.9
		c-0.1-0.3-0.2-0.6-0.3-1c0-0.1-0.1-0.3-0.2-0.4c-0.1-0.3-0.2-0.6-0.3-0.9c0-0.2-0.1-0.3-0.1-0.5c-0.1-0.2-0.2-0.4-0.2-0.6
		c0-0.1-0.1-0.2-0.1-0.3c-0.2-0.2-0.3-0.4-0.3-0.6c0-0.2-0.1-0.3-0.2-0.4c-0.2-0.3-0.2-0.6-0.4-0.9c0,0,0,0,0-0.1
		c0.2-0.4-0.1-0.6-0.3-0.8c-0.1-0.1-0.1-0.2,0-0.3c0-0.1,0.1-0.1,0.2,0c0,0.1,0.1,0.1,0.1,0.2c0.1,0.2,0.2,0.5,0.3,0.7
		c0.1,0.3,0.2,0.6,0.3,0.9c0.2,0.5,0.4,0.9,0.6,1.3c0.3,0.6,0.4,1.3,0.8,2c0,0,0.1,0.1,0.1,0.2c0.2,0.8,0.5,1.5,0.8,2.2
		c0.1,0.2,0.2,0.5,0.2,0.7c0.2,0.5,0.3,1.1,0.5,1.6c0.1,0.5,0.3,0.9,0.5,1.4c0.1,0.4,0.3,0.7,0.4,1c0,0.1,0.1,0.2,0.1,0.4
		c0,0.1,0,0.1,0,0.2c0.2,0.2,0.2,0.5,0.3,0.8C63.4,56.7,63.6,57,63.6,57.3z"/>
	<path fill="#707070" d="M66.4,58c0,0.1-0.1,0.2-0.2,0.2s-0.2,0-0.2-0.1c-0.2-0.5-0.5-1.1-0.8-1.6c-0.1-0.1-0.1-0.3,0-0.4
		c0-0.1,0.1-0.2-0.1-0.2c-0.1,0-0.1-0.1-0.1-0.2c0-0.1,0-0.2-0.1-0.4s-0.2-0.5-0.3-0.7c-0.1-0.4-0.2-0.7-0.4-1
		c-0.1-0.1-0.2-0.4-0.2-0.5c-0.1-0.3-0.1-0.5-0.3-0.7c-0.1-0.1-0.1-0.3-0.1-0.4c0-0.2-0.1-0.4-0.2-0.5c-0.2-0.3-0.3-0.6-0.4-0.9
		c0-0.2-0.1-0.3-0.1-0.5l0,0c-0.2-0.2-0.2-0.5-0.3-0.7c-0.2-0.3-0.3-0.7-0.4-1.1c-0.1-0.3-0.1-0.5-0.3-0.8c-0.2-0.2-0.3-0.5-0.4-0.8
		c0-0.2-0.1-0.3-0.2-0.5c-0.1-0.3-0.2-0.5-0.3-0.7c-0.2-0.2-0.1-0.5-0.2-0.8c0-0.1,0-0.1,0.1-0.2c0.1,0,0.1,0,0.2,0.1
		c0.1,0.1,0.2,0.3,0.2,0.4c0.1,0.3,0.2,0.5,0.3,0.7l0,0c0.1,0.4,0.4,0.8,0.5,1.3c0,0.1,0.1,0.2,0.1,0.3c0.3,0.4,0.4,0.8,0.6,1.2
		c0.1,0.3,0.2,0.6,0.4,0.8c0.1,0.2,0.1,0.3,0.2,0.5c0.1,0.5,0.3,0.9,0.4,1.3c0.2,0.7,0.6,1.3,0.8,1.9c0.2,0.6,0.5,1.1,0.7,1.6
		c0,0,0,0,0,0.1c0.1,0.5,0.4,1.1,0.5,1.6c0.1,0.4,0.3,0.8,0.5,1.3C66.4,57.8,66.4,57.9,66.4,58z"/>
	<path fill="#707070" d="M100,58.5C100,58.6,100,58.6,100,58.5v0.2h-0.1c-0.2-0.2-0.4-0.4-0.4-0.7c0-0.2-0.1-0.3-0.2-0.4
		c-0.2-0.5-0.4-0.9-0.5-1.4c-0.1-0.3-0.2-0.6-0.4-0.9c-0.3-0.7-0.6-1.3-0.7-2.1c-0.1-0.5-0.3-0.9-0.6-1.3c-0.2-0.3-0.4-0.7-0.6-1.1
		c-0.1-0.2-0.2-0.4-0.3-0.6c-0.2-0.5-0.5-1-0.7-1.5c0-0.1-0.1-0.2-0.1-0.3s-0.1-0.1-0.1-0.2c-0.1-0.5-0.3-1-0.4-1.5
		c0-0.1-0.1-0.2-0.1-0.3l-0.1-0.1c-0.1-0.6-0.4-1.1-0.5-1.7c0-0.1-0.1-0.2-0.1-0.3v-0.1h0.1c0.1,0,0.1,0.1,0.2,0.2
		c0.2,0.4,0.4,0.8,0.5,1.2c0.2,0.5,0.3,1,0.5,1.5c0.2,0.6,0.5,1.1,0.7,1.7c0.2,0.5,0.5,1,0.7,1.5c0.2,0.4,0.4,0.7,0.6,1
		c0.1,0.2,0.2,0.4,0.3,0.7c0,0.1,0,0.1,0.1,0.2c0.2,0.2,0.3,0.6,0.4,0.9v0.1c0.3,0.6,0.4,1.2,0.7,1.8c0.1,0.3,0.2,0.7,0.4,1
		c0.1,0.1,0.1,0.2,0.1,0.4s0.1,0.4,0.2,0.5c0.1,0.2,0.2,0.5,0.3,0.8c0.1,0.2,0.2,0.4,0.2,0.6C100,58.4,100,58.5,100,58.5z"/>
	<path fill="#707070" d="M90.8,57.3L90.8,57.3c0,0.2-0.1,0.2-0.1,0.3c-0.1,0-0.1,0-0.2-0.1c0-0.1-0.1-0.1-0.1-0.2
		c-0.1-0.2-0.2-0.4-0.3-0.7c-0.2-0.3-0.2-0.7-0.3-1.1c-0.1-0.4-0.2-0.8-0.4-1.2c-0.2-0.3-0.3-0.7-0.4-1s-0.2-0.7-0.4-1
		c-0.1-0.2-0.1-0.4-0.2-0.6c-0.2-0.8-0.5-1.6-0.7-2.5c-0.1-0.3-0.2-0.5-0.3-0.7c-0.1-0.4-0.2-0.8-0.3-1.2c0-0.1-0.1-0.3-0.1-0.4
		c0,0,0-0.2,0-0.3c0-0.4-0.1-0.7-0.3-1.1c0-0.1-0.1-0.2-0.1-0.3c0-0.4-0.2-0.7-0.3-1c0-0.1-0.1-0.3-0.1-0.4
		c-0.1-0.1-0.1-0.3-0.1-0.4c0-0.1,0-0.2,0.1-0.2s0.1,0.1,0.2,0.1c0.1,0.2,0.1,0.3,0.2,0.5c0.1,0.3,0.2,0.6,0.3,0.8
		c0.2,0.5,0.3,1,0.4,1.4c0.2,0.6,0.3,1.2,0.5,1.7c0.1,0.5,0.3,1,0.4,1.5c0.1,0.3,0.2,0.6,0.3,0.8c0.1,0.4,0.3,0.8,0.4,1.3
		c0,0.2,0.1,0.3,0.2,0.5c0.1,0.3,0.2,0.5,0.2,0.8c0,0.2,0.1,0.4,0.2,0.6c0.1,0.1,0.1,0.2,0.2,0.4s0.1,0.4,0.2,0.6c0,0,0,0.1,0.1,0.2
		c0.1,0.5,0.4,1,0.5,1.6c0.1,0.2,0.1,0.3,0.1,0.5C90.6,56.7,90.8,57,90.8,57.3z"/>
	<path fill="#707070" d="M61.7,57.2c0,0.1,0,0.1-0.1,0.2c-0.1,0-0.2,0-0.3-0.1s-0.2-0.2-0.2-0.4c0-0.1-0.1-0.3-0.2-0.4
		c-0.1-0.1-0.1-0.1-0.1-0.2c-0.1-0.3-0.1-0.7-0.3-1c-0.1-0.3-0.2-0.6-0.2-0.8v-0.1c0.2-0.1,0-0.2,0-0.3c-0.1-0.1-0.1-0.1-0.2-0.2
		S60,53.7,60,53.6c0.1-0.1,0-0.2-0.1-0.3c-0.2-0.2-0.4-0.5-0.3-0.9c0-0.1,0-0.2-0.1-0.3c-0.2-0.2-0.3-0.4-0.3-0.7
		c0-0.1-0.1-0.2-0.1-0.3c-0.2-0.2-0.2-0.5-0.2-0.7c-0.1-0.2-0.2-0.4-0.1-0.6v-0.1c-0.1-0.1-0.2-0.2-0.1-0.3c0-0.1,0-0.1-0.1-0.2
		c-0.1-0.1-0.1-0.1-0.2-0.2c-0.2-0.5-0.4-1-0.5-1.5c0-0.1-0.1-0.2,0-0.3s0-0.2,0-0.2c-0.1-0.2-0.3-0.4-0.4-0.6
		c-0.2-0.3-0.3-0.6-0.3-0.9c0-0.3-0.2-0.5-0.2-0.8c-0.1-0.2,0-0.3,0.1-0.5c0.1-0.1,0.1-0.1,0.2,0c0,0,0,0.1,0.1,0.1
		c0.2,0.6,0.4,1.1,0.5,1.7c0,0.1,0.1,0.2,0.1,0.3c0.3,0.7,0.5,1.4,0.8,2.2c0.2,0.6,0.4,1.1,0.6,1.7c0,0.2,0.1,0.4,0.2,0.6
		c0.2,0.4,0.3,0.8,0.4,1.2c0.1,0.3,0.2,0.6,0.4,0.9c0.2,0.7,0.5,1.3,0.7,2c0.2,0.5,0.3,0.9,0.5,1.4c0.1,0.3,0.2,0.6,0.3,0.9
		C61.7,57.1,61.7,57.2,61.7,57.2z"/>
	<path fill="#707070" d="M81.4,44.3c0.1,0.3,0.3,0.5,0.4,0.8c0.1,0.2,0.1,0.3,0.2,0.5c0,0.2,0.1,0.3,0.2,0.5s0.2,0.4,0.2,0.6
		c0,0.1,0.1,0.2,0.2,0.4c0.2,0.3,0.3,0.6,0.4,0.9c0.2,0.5,0.3,0.9,0.5,1.4s0.4,1.1,0.5,1.7c0,0.1,0,0.1,0,0.2c0,0.2,0,0.4,0.2,0.5
		l0.1,0.1c0.1,0.4,0.3,0.8,0.4,1.3v0.1c0.3,0.7,0.4,1.4,0.6,2.1c0.1,0.4,0.3,0.7,0.4,1.1c0,0,0.1,0.1,0,0.1
		c-0.1,0.2,0.1,0.3,0.2,0.4c0.1,0.1,0.2,0.3,0.3,0.4c0.2,0.2,0.3,0.6,0.3,0.9c0,0.2-0.1,0.2-0.3,0.2c-0.1,0-0.2-0.1-0.2-0.2
		c-0.1-0.2-0.2-0.5-0.4-0.7c0-0.1-0.1-0.2-0.1-0.3c0-0.2-0.1-0.3-0.2-0.5s-0.2-0.4-0.3-0.5c0-0.1,0-0.1,0-0.2c0-0.1,0-0.2-0.1-0.2
		c-0.1-0.1-0.1-0.1-0.1-0.2c0-0.2-0.1-0.4-0.2-0.6c-0.2-0.3-0.1-0.7-0.2-1c-0.1-0.4-0.2-0.8-0.4-1.2c-0.1-0.2-0.1-0.4-0.2-0.7
		c0-0.1,0-0.2-0.1-0.2c-0.2-0.2-0.2-0.5-0.3-0.8c0-0.2-0.1-0.3-0.2-0.5c-0.2-0.5-0.2-1-0.5-1.5c0,0,0-0.1,0-0.2c0-0.4-0.1-0.7-0.3-1
		l0,0c0-0.4-0.3-0.7-0.4-1.1c0-0.2-0.2-0.4-0.3-0.6c0-0.1-0.1-0.2-0.1-0.3c0-0.2-0.1-0.3-0.2-0.5c-0.2-0.3-0.3-0.7-0.3-1
		C81.2,44.4,81.2,44.4,81.4,44.3z"/>
	<path fill="#707070" d="M79.5,46.6c0,0.2,0.1,0.3,0.2,0.4c0.1,0.1,0.2,0.3,0.2,0.5c0,0.1,0,0.1,0.1,0.1l0.1,0.1
		c0.1,0.4,0.4,0.8,0.5,1.3s0.4,0.9,0.6,1.3c0.1,0.2,0.2,0.5,0.2,0.7c0.1,0.3,0.2,0.6,0.3,0.9c0.3,0.7,0.7,1.4,0.9,2.2
		c0,0.1,0.1,0.2,0.1,0.2c0.1,0.1,0.1,0.2,0.1,0.2c0.1,0.3,0.3,0.6,0.5,0.9c0.1,0.1,0.1,0.3,0.2,0.4c0.1,0.2,0.1,0.4,0.3,0.6
		c0.1,0.1,0.1,0.2,0,0.3s-0.2,0.1-0.3,0c-0.1-0.1-0.2-0.2-0.2-0.3c-0.2-0.5-0.4-1-0.7-1.5c-0.1-0.2-0.1-0.4-0.2-0.5
		c-0.2-0.5-0.5-1-0.7-1.5l0,0c-0.1-0.4-0.3-0.7-0.5-1.1c-0.1-0.2-0.2-0.4-0.2-0.7s-0.2-0.4-0.3-0.7c-0.1-0.2-0.2-0.5-0.2-0.8
		c0-0.1,0-0.2-0.1-0.3s-0.2-0.2-0.2-0.4c0-0.3-0.1-0.5-0.3-0.8c-0.1-0.2-0.2-0.4-0.2-0.6c0-0.1,0-0.2,0-0.2
		c-0.2-0.2-0.2-0.4-0.3-0.6C79.4,46.9,79.4,46.8,79.5,46.6z"/>
	<path fill="#707070" d="M89.1,46.3c0.3,0.4,0.5,0.9,0.5,1.4c0,0.1,0.1,0.2,0.2,0.3c0.2,0.2,0.3,0.5,0.3,0.8c0,0.2,0.1,0.3,0.2,0.5
		v0.1c0.1,0.7,0.5,1.4,0.6,2.1c0.1,0.6,0.4,1.2,0.6,1.7c0,0.1,0.1,0.2,0.1,0.4c0,0.1,0,0.3,0.1,0.4c0.1,0.2,0.1,0.3,0.2,0.5
		c0.2,0.3,0.3,0.6,0.4,1s0.3,0.8,0.4,1.3c0,0.1,0.1,0.2-0.1,0.3c-0.1,0-0.2-0.1-0.3-0.2c-0.2-0.5-0.4-1-0.6-1.5c0-0.1,0-0.1,0-0.2
		c0-0.4-0.2-0.7-0.3-1.1c-0.1-0.3-0.2-0.5-0.2-0.8c-0.1-0.5-0.3-0.9-0.5-1.4c-0.1-0.4-0.3-0.8-0.3-1.3c-0.1-0.3-0.1-0.5-0.3-0.8
		c-0.1-0.1-0.1-0.3-0.2-0.5c-0.1-0.3-0.1-0.7-0.2-1c0-0.2-0.1-0.3-0.2-0.5s-0.2-0.3-0.1-0.5c0-0.1,0-0.1-0.1-0.2
		c-0.1-0.1-0.2-0.3-0.3-0.4C89,46.7,89.1,46.5,89.1,46.3z"/>
	<path fill="#707070" d="M82,57.3c0,0.1,0,0.1-0.1,0.2c-0.1,0-0.1,0-0.1-0.1c-0.2-0.4-0.5-0.7-0.7-1.1c0-0.1-0.1-0.1-0.1-0.2
		c0-0.4-0.2-0.7-0.4-1c-0.1-0.2-0.2-0.5-0.3-0.7c-0.3-0.4-0.4-0.9-0.7-1.3V53c-0.1-0.4-0.2-0.7-0.4-1c-0.2-0.3-0.2-0.6-0.4-0.9
		c-0.2-0.6-0.4-1.2-0.8-1.8c-0.1-0.2-0.2-0.3-0.2-0.5c0-0.1,0-0.1-0.1-0.2c0,0-0.1-0.1,0-0.2c0-0.1,0.1-0.2,0.2-0.2s0.1,0.1,0.2,0.2
		c0,0.2,0.2,0.4,0.2,0.7v0.1c0.3,0.4,0.4,0.9,0.6,1.3c0.1,0.2,0.2,0.4,0.2,0.5c0.1,0.5,0.4,0.9,0.6,1.5c0,0.1,0,0.1,0.1,0.2
		c0.3,0.5,0.5,1,0.7,1.5c0,0.1,0,0.1,0.1,0.2c0.1,0.2,0.1,0.4,0.3,0.6c0.1,0.1,0.1,0.2,0.1,0.3c0,0.2,0.1,0.3,0.2,0.4
		c0.1,0.1,0.1,0.2,0.1,0.3s0,0.1,0.1,0.2c0.3,0.3,0.3,0.7,0.5,1.1C81.9,57.2,82,57.2,82,57.3z"/>
	<path fill="#707070" d="M60.9,44.3c-0.4-0.1-0.4-0.5-0.5-0.7c0-0.1,0-0.2-0.1-0.2c-0.1-0.1-0.1-0.3-0.1-0.5s0-0.4-0.1-0.6
		c0-0.1,0-0.1,0-0.2c0.1,0,0.1,0,0.2,0.1c0,0,0,0.1,0.1,0.1c0.1,0.2,0.2,0.2,0.3,0s0.3-0.4,0.4-0.6c0.2-0.2,0.3-0.5,0.5-0.7
		s0.4-0.5,0.6-0.7c0.1-0.2,0.3-0.4,0.3-0.7c0-0.1,0.1-0.2,0.2-0.2c0.1,0,0.2,0,0.2,0c0.1,0,0.2-0.1,0.3-0.3c0-0.2,0.2-0.3,0.3-0.4
		c0.1-0.1,0.1,0,0.2,0.1c0,0.2,0,0.3-0.1,0.4c-0.4,0.4-0.6,0.8-0.9,1.3c-0.1,0.1-0.2,0.2-0.4,0.3s-0.3,0.3-0.5,0.5
		c-0.2,0.3-0.3,0.5-0.6,0.8c-0.2,0.2-0.3,0.4-0.4,0.7c0,0.1-0.1,0.2-0.1,0.3c-0.2,0.2-0.2,0.4-0.1,0.7
		C60.9,43.9,60.9,44.1,60.9,44.3z"/>
	<path fill="#707070" d="M71.9,51.6c-0.1-0.1-0.2-0.1-0.3-0.3c0-0.1-0.1-0.2,0.1-0.2c0,0,0.1,0,0.1-0.1c0,0,0-0.1-0.1-0.1
		c-0.2,0-0.2-0.1-0.3-0.3c0-0.2-0.1-0.3,0-0.5V50c-0.2-0.3-0.1-0.6-0.3-0.9V49c-0.1-0.1-0.2-0.2-0.1-0.4c-0.1-0.2-0.1-0.4-0.2-0.6
		c-0.1-0.1-0.1-0.2-0.2-0.3c0-0.1,0-0.2-0.2-0.2c-0.1,0-0.2-0.3-0.1-0.3c0.2-0.3,0-0.5,0-0.8c0-0.1-0.1-0.1-0.1-0.2
		c0,0,0-0.1,0.1-0.1c0,0,0.1,0,0.1,0.1c0.1,0.1,0.1,0.3,0.2,0.4c0,0.2,0.2,0.5,0.3,0.7c0.2,0.4,0.3,0.9,0.4,1.4
		c0.1,0.1,0.1,0.3,0.2,0.4c0.1,0.2,0.2,0.5,0.2,0.7c0.1,0.3,0.2,0.5,0.3,0.8c0.1,0.2,0.2,0.5,0.2,0.8c0,0.1,0.1,0.2,0.1,0.3
		s0.1,0.1,0.1,0.2c0.1,0.4,0.3,0.8,0.4,1.3c0,0.3,0.2,0.5,0.3,0.8c0,0.1,0.1,0.2,0.1,0.3c0.1,0.2,0,0.2-0.2,0.3s-0.2,0-0.3-0.1
		c0-0.3-0.2-0.6-0.3-0.9c0-0.1,0-0.2,0-0.2c0.1-0.1,0.1-0.3-0.1-0.4C72,52.9,72,52.7,72,52.4c0-0.2-0.1-0.3-0.1-0.4
		C71.8,52,71.8,51.8,71.9,51.6z"/>
	<path fill="#707070" d="M59,42.3c0-0.2,0.1-0.4,0.2-0.5c0.2-0.4,0.4-0.7,0.7-0.9c0.1-0.1,0.1-0.1,0.2-0.1c0.1-0.1,0.2-0.1,0.2-0.2
		c0.2-0.3,0.4-0.5,0.7-0.7c0.1-0.1,0.2-0.3,0.3-0.4c0-0.1,0.1-0.1,0.1-0.2c0.1-0.1,0.2-0.1,0.2,0c0.1,0.2,0.1,0.3-0.1,0.4
		c-0.2,0.2-0.3,0.5-0.5,0.7c-0.1,0.2-0.3,0.4-0.4,0.5c-0.2,0.2-0.5,0.5-0.4,0.9c0,0.1-0.1,0.2-0.2,0.3c-0.2,0.1-0.4,0.2-0.5,0.3
		s-0.1,0.1-0.1,0.2c0,0.1,0,0.1-0.1,0.1s-0.1-0.1-0.1-0.1C59,42.4,59,42.4,59,42.3z"/>
	<path fill="#707070" d="M79,57.3c-0.4,0-0.5-0.3-0.6-0.5c0-0.1-0.1-0.2-0.2-0.3l-0.1-0.1c-0.1-0.5-0.4-0.9-0.5-1.4
		c0-0.1-0.1-0.3-0.1-0.4c0-0.2,0-0.5-0.1-0.7v-0.1c0-0.1,0-0.2,0.1-0.3c0.1,0,0.2,0.1,0.2,0.2c0.1,0.3,0.3,0.6,0.3,0.9
		c0,0.4,0.2,0.8,0.4,1.1c0,0.1,0.1,0.1,0.1,0.2c0.1,0.3,0.3,0.6,0.4,1C78.9,57,79,57.2,79,57.3z"/>
	<path fill="#707070" d="M76.1,43.5c0.2,0.3,0.4,0.5,0.4,0.9s0.2,0.7,0.3,1c0.1,0.3,0.2,0.6,0.3,0.9c0.1,0.3,0.3,0.5,0.3,0.8
		c0.1,0.2,0.1,0.4,0.2,0.6v0.1c0,0.1,0.1,0.2-0.1,0.3c-0.1,0-0.3-0.1-0.3-0.2l0,0c0-0.5-0.3-0.8-0.5-1.3c0-0.1,0-0.1-0.1-0.2
		c0-0.1,0-0.2-0.1-0.2c-0.1-0.2-0.2-0.5-0.2-0.8v-0.1c-0.2-0.3-0.3-0.6-0.4-0.9C76.1,44.1,76,43.8,76.1,43.5z"/>
	<path fill="#707070" d="M10.9,52L10.9,52c0-0.2,0.1-0.2,0.2-0.1c0,0,0,0,0,0.1c0.1,0.3,0.3,0.5,0.3,0.8c0,0.1,0.1,0.2,0.1,0.3
		c0.3,0.3,0.4,0.8,0.5,1.1c0.1,0.2,0.2,0.3,0.3,0.4c0.1,0.1,0.1,0.2,0.1,0.3c-0.1,0.1,0,0.1,0,0.2c0.1,0.1,0.1,0.1,0.2,0.2l0.1,0.1
		c0.1,0.2,0.1,0.5,0.2,0.7v0.1c0,0,0,0.1-0.1,0.1s-0.1,0-0.1-0.1c-0.1-0.4-0.4-0.8-0.5-1.2c0-0.1-0.1-0.3-0.2-0.4
		c-0.1-0.2-0.2-0.4-0.2-0.5c0-0.2-0.1-0.3-0.2-0.5c-0.2-0.2-0.2-0.4-0.3-0.6C11.1,52.7,11,52.4,10.9,52C10.9,52.1,10.9,52.1,10.9,52
		z"/>
	<path fill="#707070" d="M15.4,51.5c0.1-0.1,0.1-0.2,0.2-0.3c0.2,0.2,0.2,0.5,0.3,0.7c0,0.1,0.1,0.2,0.2,0.3s0.1,0.2,0.1,0.3
		s0,0.1,0,0.2c0.2,0.2,0,0.3-0.1,0.4c-0.1,0.1-0.2,0.1-0.2,0c-0.1-0.5-0.4-0.9-0.6-1.4c0,0,0,0,0-0.1s-0.1-0.2,0-0.3
		C15.3,51.2,15.3,51.4,15.4,51.5z M15.6,52.2c0.2-0.2,0.2-0.2,0-0.3c-0.1,0-0.1-0.1-0.2-0.1C15.6,51.9,15.6,52.1,15.6,52.2z
		 M15.8,52.5L15.8,52.5C15.8,52.6,15.8,52.6,15.8,52.5C15.8,52.6,15.9,52.5,15.8,52.5L15.8,52.5z"/>
	<path fill="#707070" d="M73.7,56.6c0,0.1,0,0.1,0,0.2c0,0.1,0,0.2-0.1,0.2s-0.2,0-0.2-0.1c-0.1-0.1-0.1-0.2-0.2-0.3
		c-0.1-0.2-0.1-0.5-0.1-0.7v-0.1c0-0.1,0.1-0.2,0.2-0.1c0.2,0.1,0.4,0.4,0.4,0.7C73.7,56.4,73.7,56.5,73.7,56.6z"/>
	<path fill="#707070" d="M19.9,55.1c-0.2-0.2-0.2-0.4-0.3-0.6c0-0.1-0.1-0.2-0.2-0.2c-0.1-0.1-0.2-0.2-0.2-0.3s-0.1-0.3-0.1-0.4
		C19,53.4,19,53.2,19,53c0.2,0.2,0.5,0.1,0.6,0.4c0,0.1-0.2,0.1-0.2,0.2c0,0.1,0.1,0.1,0.2,0.1c0.2,0,0.2,0.1,0.2,0.2
		c0,0.1,0,0.2-0.1,0.2c-0.1,0.2-0.1,0.3,0,0.4c0.1,0.1,0.1,0.1,0.1,0.2C19.9,54.8,19.9,54.8,19.9,55.1z"/>
	<path fill="#707070" d="M87.8,42.6C88,42.7,88,42.8,88,43c0,0.1,0.1,0.2,0.1,0.3c0.1,0.1,0.2,0.2,0.2,0.4c0.1,0.2,0.1,0.5,0.2,0.7
		c0,0.1,0.1,0.3,0.2,0.4c0.1,0.1,0.1,0.3,0.1,0.4c0,0.1,0,0.1-0.1,0.1h-0.1c-0.1-0.1-0.1-0.2-0.1-0.3s-0.1-0.3-0.1-0.4v-0.1
		c-0.3-0.3-0.3-0.7-0.4-1.1c0-0.1,0-0.2-0.1-0.2C87.7,43,87.7,42.9,87.8,42.6z"/>
	<path fill="#707070" d="M18.2,50.2c0.3,0.3,0.4,0.8,0.6,1.2v0.1c-0.1,0-0.2,0.1-0.3,0.2c-0.2-0.5-0.4-0.9-0.6-1.4
		C18,50.2,18,50.3,18.2,50.2C18.1,50.3,18.2,50.3,18.2,50.2L18.2,50.2z M18.4,50.8C18.3,50.9,18.3,50.9,18.4,50.8
		c0,0.2,0,0.2,0.1,0.2c0,0,0,0,0-0.1C18.5,50.9,18.5,50.9,18.4,50.8z M18.1,50.6L18.1,50.6c0.1,0,0.1,0,0.1,0
		C18.2,50.5,18.2,50.5,18.1,50.6C18.1,50.5,18.1,50.6,18.1,50.6z"/>
	<path fill="#707070" d="M1.8,42.7c-0.2,0-0.2,0-0.3,0.3c-0.1-0.2-0.1-0.3-0.2-0.4c-0.1-0.1-0.1-0.3-0.2-0.3c0-0.1-0.1-0.3,0-0.4
		c0-0.1,0-0.2,0-0.3c0.3,0,0.4,0,0.5,0.3C1.6,42.1,1.7,42.4,1.8,42.7z"/>
	<path fill="#707070" d="M92.5,45c0.3,0.5,0.3,1,0.6,1.4c0.1,0.2,0.1,0.4,0.2,0.6v0.1c0,0,0,0.1-0.1,0.1s-0.1,0-0.1-0.1
		c-0.1-0.3-0.3-0.5-0.3-0.9c0-0.1,0-0.1-0.1-0.2C92.5,45.9,92.4,45.5,92.5,45z"/>
	<path fill="#707070" d="M78.3,43.5c0.1,0,0.1,0.1,0.2,0.2c0.1,0.2,0.2,0.4,0.2,0.6c0,0.2,0.1,0.4,0.2,0.6c0,0.1,0.1,0.1,0,0.2
		c-0.1,0-0.1,0-0.2-0.1l-0.1-0.1c-0.1-0.2-0.1-0.4-0.3-0.6v-0.1c0-0.2,0-0.4-0.1-0.5C78.2,43.5,78.2,43.5,78.3,43.5z"/>
	<path fill="#707070" d="M77.2,52.5C77.2,52.6,77.2,52.6,77.2,52.5c-0.2,0-0.3,0-0.4,0c0,0-0.1,0-0.1-0.1s-0.1-0.2-0.1-0.2
		c-0.1-0.1-0.1-0.3,0.1-0.3l0,0c0,0,0-0.2,0.1-0.2s0.1,0.1,0.2,0.2C77.1,52,77.2,52.2,77.2,52.5z"/>
	<path fill="#707070" d="M15.4,50.9c-0.2-0.1-0.3,0-0.3,0.2c-0.3-0.2-0.4-0.5-0.4-0.8c0.1,0,0.1,0,0.1,0.1l0.1,0.1
		c0.1-0.1-0.1-0.3,0-0.4C15.1,50.2,15.3,50.6,15.4,50.9z"/>
	<path fill="#707070" d="M21.1,39.4c0,0.1-0.1,0.1-0.1,0.2c-0.1,0-0.1,0-0.1-0.1c-0.2-0.3-0.2-0.6-0.4-0.9l0,0h0.1
		c0.1,0.1,0.3,0.2,0.4,0.3S21,39.3,21.1,39.4z"/>
	<path fill="#707070" d="M76.4,50.5c0.2,0.2,0.3,0.5,0.4,0.8c0,0.1,0,0.1,0,0.2c-0.1,0-0.1,0-0.1-0.1c-0.1-0.1-0.3-0.2-0.4-0.3
		c0-0.1-0.1-0.2,0-0.2C76.4,50.7,76.3,50.6,76.4,50.5z"/>
	<path fill="#707070" d="M74.7,47.1c0-0.1,0-0.2,0.1-0.2s0.2,0,0.2,0.1c0.1,0.2,0.3,0.4,0.3,0.7c0,0.1,0,0.1-0.1,0.1
		C75,47.7,74.7,47.4,74.7,47.1z"/>
	<path fill="#707070" d="M21.4,57.4c0.1,0.2,0.2,0.4,0.3,0.6c0.1,0.1,0,0.2-0.1,0.2c-0.3,0.1-0.4,0.1-0.5-0.1c0-0.1,0-0.1,0-0.2
		c0.2,0,0.1-0.1,0.1-0.2C21.1,57.6,21.3,57.5,21.4,57.4z"/>
	<path fill="#707070" d="M78.9,45.4c0.4,0.2,0.5,0.5,0.5,0.8c0,0.1,0,0.1-0.1,0.1s-0.1,0-0.2,0C79,46.2,79,46.1,78.9,46
		C79,45.8,78.9,45.6,78.9,45.4z"/>
	<path fill="#707070" d="M17.5,56.3c0.1,0,0.2,0.1,0.2-0.1c0-0.1,0-0.2-0.1-0.4c0.2,0.1,0.3,0.2,0.4,0.3c0,0.1,0,0.2,0.1,0.4
		c0,0.1-0.1,0.2-0.2,0.2C17.6,56.7,17.5,56.6,17.5,56.3z"/>
	<path fill="#707070" d="M75.8,49C75.7,49,75.7,49,75.8,49c-0.3-0.1-0.5-0.7-0.5-0.9c0,0,0-0.1,0.1-0.1s0.1,0,0.1,0.1
		C75.6,48.3,75.7,48.6,75.8,49z"/>
	<path fill="#707070" d="M13.2,38.4c0,0.2,0.2,0.4,0.2,0.6c0,0.1,0.1,0.2-0.1,0.2c-0.1,0-0.3-0.1-0.3-0.2c0-0.1,0-0.3,0-0.4
		C13,38.5,13.1,38.4,13.2,38.4z"/>
	<path fill="#707070" d="M75.7,42.8C75.7,42.7,75.7,42.7,75.7,42.8c0.2-0.1,0.2-0.1,0.3,0s0.1,0.3,0.2,0.4c0,0.1,0,0.1-0.1,0.2
		c-0.1,0-0.2,0-0.2-0.1C75.7,43.1,75.7,43,75.7,42.8z"/>
	<path fill="#707070" d="M85.8,42.3c0.2,0,0.2,0,0.2,0.2c0,0.1,0,0.2,0.1,0.2v0.1H86c-0.1,0-0.2-0.1-0.3-0.2
		c-0.1-0.1-0.1-0.1-0.1-0.2C85.6,42.3,85.7,42.3,85.8,42.3z"/>
	<path fill="#707070" d="M74.4,45.6C74.5,45.6,74.5,45.6,74.4,45.6c0.2,0.2,0.3,0.5,0.4,0.8c0,0.1,0,0.1-0.1,0.2
		c-0.1,0-0.2,0-0.1-0.1c0-0.2-0.1-0.3-0.2-0.5C74.4,45.8,74.4,45.7,74.4,45.6z"/>
	<path fill="#707070" d="M20.4,56.3c0.2,0.2,0.3,0.5,0.4,0.8c0,0,0.1,0.1,0,0.2c-0.1,0-0.2,0-0.2-0.1s0-0.2-0.1-0.3
		C20.4,56.7,20.5,56.5,20.4,56.3z"/>
	<path fill="#707070" d="M19.6,38.1c0.1,0,0.1,0.1,0.1,0.2c-0.1,0.2-0.3,0.3-0.5,0.4c0,0-0.1,0-0.1-0.1
		C19.2,38.4,19.5,38.1,19.6,38.1L19.6,38.1z"/>
	<path fill="#707070" d="M12.2,53.6c-0.1-0.1-0.2-0.2-0.2-0.3c-0.1-0.2-0.2-0.3-0.3-0.5l-0.1-0.1c0-0.1,0-0.1,0-0.1
		c0.1,0,0.1,0,0.1,0.1C12,53,12.1,53.3,12.2,53.6z"/>
	<path fill="#707070" d="M92.1,44.4L92.1,44.4C92.1,44.2,92.2,44.2,92.1,44.4c0.2,0,0.3,0.2,0.3,0.4c0,0.1,0,0.1-0.1,0.1h-0.1
		C92.2,44.6,92.1,44.5,92.1,44.4z"/>
	<path fill="#707070" d="M76.1,49.6c0,0.1-0.1,0.1-0.2,0.1s-0.2-0.1-0.2-0.2c0-0.1,0.1-0.2,0.2-0.2C76,49.3,76.1,49.4,76.1,49.6z"/>
	<path fill="#707070" d="M93.3,47.9c0-0.1,0-0.1,0.1-0.2c0.1,0,0.1,0,0.2,0.1v0.1c0,0.1,0.1,0.2,0,0.2
		C93.4,48.2,93.3,48.1,93.3,47.9L93.3,47.9z"/>
	<path fill="#707070" d="M66.2,40.8C66.2,40.9,66.2,40.9,66.2,40.8c-0.2,0.1-0.3,0-0.3-0.1c0-0.1,0.1-0.2,0.2-0.2
		C66.1,40.5,66.2,40.6,66.2,40.8z"/>
	<path fill="#707070" d="M7.4,39.6C7.4,39.5,7.5,39.5,7.4,39.6c0.2,0.1,0.3,0.2,0.3,0.4c0,0.1,0,0.1-0.1,0.1s-0.1,0-0.1-0.1
		C7.6,39.8,7.5,39.8,7.4,39.6z"/>
	<path fill="#707070" d="M93.7,43.6c0.2,0.1,0.3,0.2,0.3,0.5C93.8,44,93.7,43.8,93.7,43.6z"/>
	<path fill="#707070" d="M16.4,53.3c0.1,0.1,0.1,0.1,0.1,0.2c0,0.1-0.1,0.1-0.1,0.1C16.3,53.5,16.3,53.4,16.4,53.3
		C16.3,53.3,16.4,53.3,16.4,53.3z"/>
	<path fill="#707070" d="M11.4,52c0.1,0.1,0.2,0.2,0.2,0.3v0.1c-0.1,0-0.1,0-0.1-0.1C11.5,52.2,11.4,52.1,11.4,52z"/>
	<path fill="#707070" d="M50.9,39.8C50.9,39.7,50.9,39.7,50.9,39.8c0.2-0.1,0.2,0,0.2,0.1s0,0.1-0.1,0.1
		C50.9,39.9,50.9,39.8,50.9,39.8z"/>
	<path fill="#707070" d="M88.9,45.5c0.1,0.1,0.1,0.2,0.1,0.3C88.8,45.7,88.8,45.7,88.9,45.5z"/>
	<path fill="#707070" d="M16,53.4c0.2,0.1,0.2,0.2,0.2,0.3C16.2,53.6,16.1,53.5,16,53.4z"/>
	<path fill="#707070" d="M27.3,49c0.2,0.1,0.2,0.2,0.3,0.4l0,0C27.3,49.3,27.3,49.1,27.3,49L27.3,49z"/>
	<path fill="#707070" d="M29.1,46.9c-0.1-0.2-0.1-0.3-0.2-0.4C29.1,46.6,29.1,46.6,29.1,46.9z"/>
	<path fill="#707070" d="M19.3,52.7c0.1,0.1,0.1,0.2,0,0.3c0,0,0,0-0.1,0C19.2,52.8,19.3,52.8,19.3,52.7z"/>
	<path fill="#707070" d="M19,52.7C19,52.8,19,52.8,19,52.7c-0.1,0.1-0.2,0-0.2,0s0-0.1,0.1-0.1C19,52.6,19,52.7,19,52.7z"/>
	<path fill="#707070" d="M17,55.4c0.1,0,0.1,0.1,0.1,0.2c0,0,0,0.1-0.1,0.1c0,0,0,0-0.1-0.1C17,55.5,17,55.5,17,55.4z"/>
	<path fill="#707070" d="M80.1,41.8C80.1,41.7,80.2,41.7,80.1,41.8c0.1-0.1,0.2-0.1,0.2,0C80.3,41.9,80.3,41.9,80.1,41.8
		C80.2,41.9,80.1,41.9,80.1,41.8z"/>
	<path fill="#707070" d="M28.6,45.9c0.1,0,0.1,0.1,0.2,0.3C28.6,46.1,28.7,46,28.6,45.9z"/>
	<path fill="#707070" d="M14.6,49.8L14.6,49.8c-0.1,0-0.2,0-0.2-0.1C14.4,49.7,14.4,49.6,14.6,49.8C14.6,49.7,14.6,49.7,14.6,49.8z"
		/>
	<path fill="#707070" d="M32.3,38.1C32.3,38,32.4,38,32.3,38.1l0.2-0.1C32.5,38.1,32.5,38.1,32.3,38.1
		C32.4,38.1,32.3,38.1,32.3,38.1z"/>
	<path fill="#707070" d="M30.7,56.1c0.1,0,0.1,0.1,0.1,0.2C30.7,56.2,30.7,56.2,30.7,56.1z"/>
	<path fill="#707070" d="M57,43.7C57.1,43.7,57.1,43.8,57,43.7C57,43.8,57,43.9,57,43.7C56.9,43.8,56.9,43.8,57,43.7
		C56.9,43.7,56.9,43.7,57,43.7z"/>
	<path fill="#707070" d="M15.4,56.3c0,0.1,0.1,0.2,0.1,0.3C15.4,56.5,15.4,56.5,15.4,56.3L15.4,56.3z"/>
	<path fill="#707070" d="M30.2,55.1c0,0.1,0.1,0.2,0.1,0.3l0,0h-0.1C30.2,55.2,30.2,55.1,30.2,55.1L30.2,55.1z"/>
	<path fill="#707070" d="M13.2,39.4C13.3,39.4,13.3,39.4,13.2,39.4C13.3,39.5,13.3,39.5,13.2,39.4C13.1,39.5,13.2,39.5,13.2,39.4
		L13.2,39.4z"/>
	<path fill="#707070" d="M14.9,49.5C14.9,49.6,14.9,49.6,14.9,49.5C14.8,49.6,14.8,49.6,14.9,49.5C14.8,49.5,14.8,49.5,14.9,49.5
		L14.9,49.5z"/>
	<path fill="#707070" d="M27.5,49.4c0,0.1,0.1,0.1,0.1,0.3C27.5,49.6,27.5,49.5,27.5,49.4L27.5,49.4z"/>
	<path fill="#707070" d="M16.6,54.4C16.7,54.4,16.7,54.5,16.6,54.4C16.7,54.5,16.6,54.5,16.6,54.4C16.6,54.6,16.6,54.5,16.6,54.4
		C16.6,54.5,16.6,54.4,16.6,54.4z"/>
	<path fill="#707070" d="M55.8,40.5C55.9,40.5,55.9,40.5,55.8,40.5C55.8,40.6,55.8,40.6,55.8,40.5L55.8,40.5
		C55.8,40.5,55.8,40.4,55.8,40.5z"/>
	<path fill="#707070" d="M56.7,42.8L56.7,42.8C56.6,42.8,56.6,42.8,56.7,42.8C56.6,42.8,56.6,42.7,56.7,42.8
		C56.7,42.7,56.7,42.8,56.7,42.8z"/>
	<path fill="#707070" d="M16.4,54L16.4,54C16.4,54.1,16.4,54.1,16.4,54C16.3,54.1,16.3,54.1,16.4,54C16.3,54,16.4,54,16.4,54z"/>
	<path fill="#707070" d="M17,54.4L17,54.4C17,54.5,17,54.5,17,54.4C16.9,54.4,16.9,54.4,17,54.4C16.9,54.4,17,54.4,17,54.4z"/>
	<path fill="#707070" d="M73.2,55.1C73.3,55.1,73.3,55.1,73.2,55.1C73.3,55.2,73.3,55.2,73.2,55.1C73.2,55.2,73.2,55.1,73.2,55.1
		L73.2,55.1z"/>
	<path fill="#707070" d="M17.3,56.1L17.3,56.1C17.4,56,17.4,56.1,17.3,56.1C17.4,56.1,17.4,56.1,17.3,56.1
		C17.3,56.2,17.3,56.1,17.3,56.1z"/>
	<path fill="#707070" d="M18.2,50.2c0-0.1-0.1-0.1-0.1-0.2C18.2,50,18.2,50.1,18.2,50.2L18.2,50.2z"/>
	<path fill="#707070" d="M1.2,41.3L1.2,41.3C1.3,41.3,1.3,41.3,1.2,41.3C1.3,41.4,1.3,41.4,1.2,41.3C1.2,41.4,1.2,41.3,1.2,41.3z"/>
	<path fill="#707070" d="M14.2,54L14.2,54c0-0.1-0.1-0.1-0.1-0.1C14.2,53.9,14.2,53.9,14.2,54L14.2,54L14.2,54z"/>
	<path fill="#707070" d="M16.8,54.2C16.8,54.1,16.8,54.1,16.8,54.2C16.8,54.1,16.8,54.1,16.8,54.2L16.8,54.2L16.8,54.2z"/>
	<path fill="#707070" d="M18.9,51.6C18.9,51.6,18.9,51.7,18.9,51.6C18.9,51.7,18.9,51.7,18.9,51.6C18.9,51.7,18.9,51.7,18.9,51.6
		L18.9,51.6z"/>
	<path fill="#707070" d="M19.1,52.2L19.1,52.2L19.1,52.2L19.1,52.2L19.1,52.2z"/>
	<path fill="#707070" d="M20.1,55.6C20.1,55.7,20.2,55.7,20.1,55.6C20.2,55.7,20.2,55.7,20.1,55.6C20.1,55.7,20.1,55.7,20.1,55.6
		C20.1,55.7,20.1,55.7,20.1,55.6z"/>
	<path fill="#707070" d="M56.8,43.1C56.8,43.1,56.8,43.2,56.8,43.1C56.8,43.2,56.8,43.2,56.8,43.1C56.8,43.2,56.8,43.2,56.8,43.1
		L56.8,43.1z"/>
	<path fill="#707070" d="M37.8,52.6L37.8,52.6C37.9,52.5,37.8,52.6,37.8,52.6L37.8,52.6z"/>
	<path fill="#707070" d="M30.6,55.9L30.6,55.9C30.6,55.9,30.5,55.9,30.6,55.9C30.5,55.9,30.6,55.9,30.6,55.9L30.6,55.9z"/>
	<path fill="#707070" d="M29.6,48.1L29.6,48.1C29.7,48.1,29.7,48.1,29.6,48.1C29.7,48.1,29.7,48.1,29.6,48.1L29.6,48.1z"/>
</g>
</svg>
