<?xml version="1.0" encoding="utf-8"?>
<!-- Generator: Adobe Illustrator 17.1.0, SVG Export Plug-In . SVG Version: 6.00 Build 0)  -->
<!DOCTYPE svg PUBLIC "-//W3C//DTD SVG 1.1//EN" "http://www.w3.org/Graphics/SVG/1.1/DTD/svg11.dtd">
<svg version="1.1" id="Layer_1" xmlns="http://www.w3.org/2000/svg" xmlns:xlink="http://www.w3.org/1999/xlink" x="0px" y="0px"
	 viewBox="0 0 1600 4000" enable-background="new 0 0 1600 4000" xml:space="preserve">
<g>
	<path fill="#C6B324" d="M483.2,2081.6c-3.2,0-4.8-3.2-4.8-4.8c-1.6-3.2-3.2-6.4-3.2-9.6c-1.6-8-8-12.8-9.6-20.8
		c0-1.6-1.6-3.2-1.6-3.2c0-1.6-1.6-1.6,0-3.2c1.6-1.6,1.6,1.6,3.2,1.6c0-1.6-1.6-3.2-1.6-3.2c-3.2,0-4.8-3.2-4.8-4.8
		c0-3.2-1.6-4.8-3.2-8c-1.6-1.6-1.6-3.2-1.6-4.8c1.6-4.8,0-8-4.8-11.2c-4.8-1.6-4.8-6.4-6.4-11.2c3.2-3.2,0-6.4-1.6-9.6
		c0-1.6-1.6-3.2-1.6-4.8s0-1.6-1.6-3.2c0,0-1.6-1.6-3.2-1.6s-1.6,1.6-1.6,3.2l0,0c-1.6-1.6-3.2-4.8,0-6.4c0,0,0-1.6,0-3.2
		c-1.6-1.6-1.6,0-3.2,0s-3.2,0-3.2-1.6c0-3.2-1.6-4.8-3.2-6.4c-1.6-1.6-1.6-3.2,1.6-3.2c1.6,0,0-4.8-1.6-4.8c0,0-1.6,0-1.6,1.6v1.6
		c-1.6-1.6-1.6-4.8-3.2-6.4v-1.6c1.6-3.2,1.6-4.8-1.6-8c-1.6,0,0,1.6-1.6,3.2H416c-3.2-8-8-14.4-9.6-24c0-3.2-4.8-3.2-6.4,0
		c-3.2,3.2-4.8,4.8-8,8c0,1.6-1.6,3.2-1.6,3.2c-1.6,1.6-1.6,4.8,0,6.4c3.2,6.4,6.4,14.4,9.6,20.8c3.2,4.8,6.4,11.2,9.6,16
		c3.2,6.4,6.4,12.8,8,19.2c0,3.2,3.2,4.8,3.2,6.4c4.8,9.6,9.6,19.2,12.8,28.8c3.2,6.4,6.4,12.8,9.6,19.2c1.6,3.2,3.2,8,4.8,11.2
		c1.6,3.2,3.2,4.8,4.8,6.4c3.2,8,8,16,11.2,24c1.6,3.2,3.2,4.8,3.2,8c0,0,0,1.6,1.6,1.6c0,1.6,0,1.6,0,3.2c-1.6,0-1.6,0-3.2-1.6
		c-3.2-3.2-4.8-6.4-4.8-9.6c-1.6-3.2-1.6-3.2-4.8-4.8c-1.6,1.6,0,3.2,1.6,4.8c-3.2-3.2-4.8-4.8-6.4-9.6c-1.6-3.2-3.2-6.4-4.8-9.6
		c-1.6-4.8-4.8-11.2-4.8-16c0-1.6-1.6-3.2-3.2-4.8c-6.4-3.2-8-9.6-11.2-16c-1.6-3.2-1.6-6.4-4.8-9.6c-1.6-1.6-1.6-3.2-1.6-4.8
		c0-1.6-1.6-4.8-3.2-4.8c-1.6-1.6-1.6-3.2,0-3.2c0-3.2,0-6.4-3.2-8c-1.6,0-1.6-1.6-1.6-3.2c1.6-3.2,1.6-6.4,0-8
		c-1.6-3.2-4.8-6.4-6.4-9.6c0-1.6,0-3.2-3.2-1.6c-1.6,0-1.6-1.6-3.2-3.2c0-1.6-1.6-3.2-3.2-4.8s-1.6-3.2,0-4.8c0,0,1.6-1.6,0-1.6
		c-3.2-3.2-1.6-8-4.8-11.2c-1.6-1.6-3.2-6.4-4.8-8c-1.6-1.6-1.6,0-3.2,1.6c-1.6-1.6-1.6-3.2-4.8-3.2c-1.6,0-3.2,1.6-4.8,3.2
		c-1.6,1.6-3.2,3.2-3.2,4.8c0,3.2-1.6,4.8-3.2,6.4c0,1.6,0,3.2,3.2,8c3.2,4.8,4.8,11.2,9.6,17.6c1.6,1.6,1.6,4.8,3.2,6.4
		c1.6,8,4.8,16,11.2,22.4c3.2,3.2,4.8,8,6.4,11.2c1.6,4.8,4.8,9.6,8,16c3.2,4.8,4.8,8,6.4,12.8c1.6,3.2,1.6,4.8,3.2,6.4
		c1.6,1.6,3.2,3.2,3.2,4.8c1.6,4.8,4.8,9.6,6.4,14.4c0,1.6,1.6,3.2,3.2,4.8c0,1.6,1.6,1.6,1.6,3.2c0,1.6,0,3.2-1.6,4.8
		c-1.6,1.6-3.2,0-3.2-1.6c-1.6-1.6-1.6-4.8-3.2-6.4c0-1.6,0-1.6-1.6-1.6c0,1.6,3.2,3.2,1.6,6.4c-1.6,0-1.6-1.6-3.2-1.6
		c-1.6-6.4-6.4-9.6-8-16c0-1.6-1.6-3.2-1.6-4.8c0-1.6,0-1.6-1.6-3.2c-4.8-4.8-4.8-11.2-8-17.6c1.6-1.6,1.6,1.6,3.2,1.6
		c0-4.8,0-4.8-3.2-6.4c-1.6,0-1.6,0-1.6-1.6c-3.2-4.8-4.8-11.2-9.6-16c-1.6-1.6-1.6-4.8,0-8c1.6-1.6,0-3.2-1.6-3.2
		c-3.2,0-3.2-3.2-3.2-4.8c0-3.2,0-3.2-1.6-4.8c-1.6,0-3.2,0-3.2-3.2c0-1.6,3.2,0,4.8-1.6c0-1.6,0-1.6,0-3.2
		c-1.6-3.2-1.6-3.2-3.2-1.6c0,0-1.6,1.6-1.6,0c-1.6-1.6-1.6-1.6,0-3.2c0,0,1.6,0,1.6-1.6c0-1.6-1.6-1.6-1.6-1.6
		c-1.6,0-3.2-1.6-3.2-3.2c-1.6-4.8-4.8-8-6.4-12.8c0,0,0-1.6-1.6-1.6c-3.2-3.2-4.8-8-8-12.8c-1.6-1.6-1.6-3.2,0-4.8
		c1.6-1.6,1.6-1.6,0-3.2c-3.2-1.6-4.8-3.2-6.4-6.4c-3.2-3.2-3.2-3.2-6.4,0c-1.6,1.6-4.8,4.8-6.4,6.4s-1.6,3.2-3.2,4.8
		c-4.8,4.8-4.8,9.6-1.6,14.4c3.2,8,6.4,16,9.6,24c1.6,3.2,3.2,6.4,4.8,8c3.2,3.2,3.2,6.4,4.8,9.6c1.6,3.2,3.2,8,4.8,11.2
		c4.8,6.4,6.4,14.4,11.2,20.8c1.6,3.2,3.2,6.4,4.8,11.2c0,0,0,0,0,1.6c4.8,4.8,4.8,12.8,8,17.6c1.6,3.2,1.6,4.8,3.2,8
		c1.6,1.6,1.6,3.2,1.6,4.8c0,3.2,1.6,4.8,3.2,6.4c1.6,1.6,1.6,3.2,0,4.8c-1.6,0-1.6,1.6-1.6,1.6c-1.6,3.2-3.2,3.2-4.8,0
		c-1.6-1.6-1.6-3.2-1.6-6.4c0-1.6,0-3.2-1.6-4.8c-6.4-8-9.6-16-12.8-25.6c-1.6-3.2-3.2-8-4.8-11.2c0-1.6-3.2-3.2-3.2-4.8
		c-1.6-3.2-1.6-6.4-3.2-9.6c0-1.6-1.6-4.8-3.2-6.4c-3.2-3.2-4.8-6.4-4.8-11.2c-1.6-4.8-3.2-8-6.4-11.2c-9.6,6.4-11.2,4.8-11.2,3.2
		s0-1.6-1.6-3.2c-3.2-1.6-3.2-4.8-3.2-8c0-1.6,0-3.2-1.6-3.2c-3.2-3.2-3.2-6.4-4.8-9.6c-1.6-3.2-1.6-6.4-4.8-9.6
		c-1.6-1.6-3.2-1.6-4.8,0l0,0c-1.6,0-3.2,1.6-4.8,0c-1.6-1.6,0-3.2,0-4.8c0,0,0,0,0-1.6c1.6-3.2,4.8-4.8,3.2-8
		c-1.6-4.8-1.6-8-4.8-11.2c-1.6-1.6-3.2-1.6-4.8,0c-4.8,4.8-9.6,9.6-11.2,16c-1.6,3.2-3.2,4.8-6.4,6.4c-1.6,1.6-3.2,3.2-3.2,4.8
		c0,3.2-1.6,3.2-3.2,1.6c0,0,0,0-1.6,0h-1.6v1.6l1.6,1.6c3.2,0,3.2,3.2,6.4,3.2c-1.6,1.6-3.2,3.2-4.8,4.8c-1.6,1.6-3.2,1.6-3.2-1.6
		c0,0,0,0,0-1.6c0-3.2-1.6-6.4-3.2-8c-1.6-1.6,0-3.2,0-4.8s0-4.8-3.2-4.8c-1.6,0-1.6-1.6-1.6-1.6c-1.6-3.2-3.2-4.8-3.2-8
		c0-1.6-1.6-3.2-3.2-4.8l-1.6-1.6c0-6.4-4.8-8-8-12.8c-1.6-1.6-3.2-1.6-4.8,0c-6.4,8-12.8,16-19.2,24c-1.6,3.2-1.6,4.8,0,8
		c0,1.6,3.2,3.2-1.6,3.2c-1.6,0-1.6,1.6,0,1.6c0,1.6,1.6,3.2,0,4.8c-1.6,0-1.6-1.6-1.6-1.6c-1.6-4.8-6.4-6.4-11.2-3.2
		c-1.6,0-3.2,1.6-3.2,0c-1.6-1.6-3.2-1.6-1.6-4.8c1.6-1.6,3.2-3.2,3.2-4.8c1.6-1.6,1.6-4.8,3.2-8c0-1.6-3.2-9.6-4.8-11.2
		c-3.2-1.6-6.4-1.6-8,1.6c0,3.2-3.2,4.8-4.8,8c-1.6,1.6-3.2,3.2-3.2,6.4c0,1.6,0,1.6-1.6,3.2c-3.2,4.8-4.8,8-3.2,14.4
		c1.6,3.2,1.6,6.4,4.8,9.6c0,1.6,0,1.6,0,3.2c-1.6,3.2-1.6,6.4-1.6,8v1.6c0,1.6,1.6,3.2,3.2,3.2c1.6,0,1.6-1.6,3.2-3.2
		c0,0,0-1.6,1.6-1.6c0,1.6,1.6,4.8,1.6,6.4c-1.6,0-1.6,0-1.6,1.6c0,0,0,1.6,1.6,1.6v-1.6c3.2,3.2,4.8,6.4,4.8,11.2
		c0,1.6,0,3.2,1.6,4.8c1.6,0,1.6,1.6,1.6,3.2c0,1.6,0,1.6-1.6,1.6v1.6c1.6,3.2,0,4.8,1.6,8c1.6,1.6,3.2,4.8,3.2,6.4
		c0,1.6,1.6,3.2,1.6,3.2c1.6,1.6,1.6,3.2,3.2,4.8c0,1.6,1.6,1.6,1.6,1.6c1.6,0,1.6-1.6,1.6-3.2l0,0c1.6,1.6,3.2,1.6,1.6,3.2
		c-1.6,3.2,0,4.8,0,6.4c1.6,3.2,1.6,6.4,3.2,9.6c0,1.6,1.6,3.2,3.2,4.8c0,0,1.6,1.6,1.6,0c1.6-3.2,3.2,0,3.2,0
		c1.6,3.2,3.2,6.4,4.8,11.2l0,0c-1.6,0-3.2,1.6-3.2,4.8c0,1.6,0,3.2,1.6,4.8v1.6h-1.6c-1.6-1.6-1.6-1.6-1.6-3.2
		c-1.6-3.2-3.2-8-6.4-11.2c-3.2-4.8-6.4-9.6-6.4-16c-1.6-3.2-3.2-6.4-4.8-11.2c0-1.6,0-3.2-1.6-3.2c-3.2-4.8-3.2-11.2-6.4-16
		c-3.2-6.4-9.6-12.8-11.2-22.4c0-1.6-1.6-3.2-1.6-3.2c-1.6-1.6-3.2-4.8-3.2-6.4c0-3.2-1.6-4.8-3.2-8c-1.6-3.2-3.2-6.4-3.2-9.6
		c0-1.6,0-1.6-1.6-3.2c-1.6,0-1.6-1.6-1.6-3.2c-1.6-1.6-3.2-3.2-6.4,0c-1.6,1.6-4.8,1.6-8,3.2c0,0-1.6,0-1.6-1.6s-1.6-4.8,0-6.4
		c1.6-3.2,3.2-6.4,4.8-9.6c1.6-1.6,1.6-3.2,1.6-6.4s-1.6-4.8-1.6-8c-1.6-3.2-3.2-3.2-6.4-1.6c-1.6,1.6-3.2,3.2-3.2,4.8
		c-1.6,3.2-3.2,4.8-4.8,8c-1.6,3.2-1.6,6.4,0,9.6s3.2,6.4,4.8,9.6c0,1.6,1.6,1.6,1.6,3.2s0,1.6-1.6,3.2c-3.2,0-3.2,1.6-1.6,4.8
		c1.6,3.2,3.2,4.8,4.8,8c1.6,0,1.6,0,1.6-1.6s1.6-1.6,1.6,0c1.6,3.2,3.2,6.4,4.8,9.6c0,1.6,0,1.6-1.6,1.6c-4.8,0-8-3.2-11.2-6.4
		c-1.6-3.2-3.2-4.8-3.2-9.6c0-1.6,0-1.6-1.6-3.2c-3.2-1.6-4.8-6.4-6.4-9.6c-3.2-4.8-4.8-4.8-9.6,0c-3.2,3.2-4.8,8-8,12.8
		c-1.6,1.6-1.6,3.2,0,4.8c1.6,3.2,1.6,4.8,3.2,8c1.6,1.6,1.6,3.2-1.6,3.2c0,0-1.6,0-1.6,1.6s0,1.6,1.6,1.6c6.4,1.6,8,4.8,8,11.2
		c0,1.6,1.6,1.6,1.6,3.2c1.6,1.6,1.6,1.6,1.6,3.2v1.6c3.2,3.2,3.2,8,6.4,11.2c0,1.6,1.6,1.6,1.6,3.2c0,1.6,1.6,1.6,1.6,3.2
		c0,4.8,3.2,8,4.8,12.8c0,1.6,1.6,3.2,1.6,4.8c0,1.6,0,3.2,1.6,3.2c3.2,3.2,4.8,6.4,8,9.6c1.6,1.6,1.6,4.8,1.6,6.4
		c0,3.2,0,6.4,3.2,9.6c1.6,1.6,1.6,3.2,1.6,4.8c-1.6,1.6-3.2,0-4.8,0c0,1.6,1.6,3.2,1.6,6.4c-3.2-1.6-4.8-3.2-6.4-4.8
		c-1.6-3.2-4.8-6.4-4.8-11.2c0-1.6-1.6-1.6-1.6-3.2c-1.6-3.2-3.2-6.4-4.8-9.6c-1.6-3.2-3.2-8-6.4-11.2c-1.6-1.6-1.6-4.8-3.2-8v-1.6
		c0-1.6,1.6-1.6,0-3.2c-1.6-3.2-3.2-8-4.8-9.6c-3.2-3.2-4.8-8-6.4-12.8c0-1.6,0-3.2-1.6-4.8c-1.6-1.6-1.6-3.2-1.6-4.8s0-1.6-1.6-3.2
		c-3.2-1.6-3.2-3.2-3.2-4.8s0-1.6-1.6-3.2c-3.2-4.8-3.2-4.8-9.6-1.6c-4.8,3.2-6.4,8-11.2,11.2c-1.6,0-1.6,1.6-1.6,1.6
		s-1.6,1.6-1.6,0v-1.6c1.6-3.2,1.6-6.4,4.8-9.6c3.2-4.8,6.4-9.6,9.6-14.4c1.6-3.2,0-8-3.2-9.6c-1.6,0-1.6,0-3.2,0
		s-12.8,9.6-12.8,11.2c-1.6,4.8-4.8,8-6.4,12.8c-3.2,4.8-3.2,9.6,0,16l1.6,1.6c1.6,8,8,14.4,9.6,22.4c0,1.6,0,1.6,1.6,3.2l1.6,1.6
		c1.6,6.4,6.4,9.6,8,16c9.6,8,12.8,11.2,14.4,14.4c0,0,0,1.6,0,3.2c0,3.2,3.2,8,4.8,11.2c1.6,3.2,0,6.4-3.2,6.4
		c-1.6,0-3.2,0-3.2-1.6c-1.6-1.6-3.2-3.2-3.2-4.8c-1.6-4.8-4.8-9.6-8-14.4c-1.6-3.2-3.2-6.4-3.2-11.2c0-1.6-1.6-1.6-1.6-3.2
		c-1.6-1.6-4.8-4.8-3.2-8c-1.6-1.6,0-6.4-3.2-8c0,0,0,0,0-1.6c0-6.4-4.8-9.6-6.4-14.4c0-1.6-1.6-4.8-3.2-4.8c-1.6-1.6-6.4,0-6.4,1.6
		c0,3.2-3.2,6.4-4.8,8c0,1.6-1.6,1.6-1.6,3.2c-1.6,3.2-3.2,6.4-6.4,8c-1.6,1.6-1.6,1.6-3.2,3.2c-1.6,3.2-4.8,4.8-6.4,6.4H64v-1.6
		c1.6-1.6,1.6-3.2,3.2-4.8c-4.8-1.6-3.2-4.8,0-6.4c1.6-1.6,3.2-4.8,4.8-6.4c1.6-4.8,4.8-8,6.4-11.2c3.2-4.8,4.8-9.6,4.8-14.4
		c0-4.8-3.2-8-4.8-11.2c0-1.6-1.6,0-3.2,0l-1.6,1.6c-1.6,3.2-6.4,3.2-6.4,8c0,3.2-3.2,6.4-4.8,9.6c-1.6,3.2-3.2,4.8-4.8,8
		c-1.6,1.6-1.6,3.2-4.8,4.8c-1.6,0-3.2,3.2-3.2,4.8c-1.6,3.2-3.2,4.8-4.8,8c-3.2,3.2-8,4.8-9.6,9.6c0,1.6-1.6,1.6-1.6,0
		c-1.6,0-1.6-1.6-1.6-3.2c3.2-6.4,6.4-14.4,11.2-19.2c3.2-3.2,6.4-8,8-12.8c1.6-4.8,4.8-8,6.4-11.2c3.2-6.4,8-11.2,12.8-16
		c3.2-3.2,3.2-8,0-12.8l-1.6-1.6c-3.2-4.8-3.2-4.8-6.4,0c-3.2,6.4-6.4,12.8-11.2,17.6c-3.2,1.6-4.8,6.4-8,9.6
		c-1.6,1.6-3.2,3.2-3.2,4.8l-1.6,1.6c-3.2,1.6-6.4,3.2-9.6,6.4h-1.6v-1.6c1.6-3.2,0-8,4.8-11.2c0,1.6,0,0,0-1.6
		c3.2-8,6.4-14.4,11.2-20.8c4.8-8,8-16,12.8-22.4c1.6-3.2,3.2-6.4,0-9.6c-1.6-3.2-3.2-6.4-3.2-11.2c0-1.6-1.6-3.2-3.2-3.2
		c-1.6,0-1.6,1.6-3.2,1.6c-1.6,1.6-3.2,3.2-4.8,6.4c-3.2,4.8-3.2,9.6-6.4,14.4c0,1.6-1.6,1.6-1.6,3.2c-1.6,0-1.6,1.6-1.6,3.2
		c0,1.6,0,1.6,0,3.2c-1.6,3.2-4.8,4.8-6.4,8c0,0-1.6,0-3.2,0c1.6,1.6,3.2,3.2,1.6,4.8c-1.6,3.2-1.6,6.4-6.4,6.4
		c-1.6,0-4.8,1.6-6.4,0c-1.6-1.6,0-4.8,0-6.4c1.6-4.8,4.8-8,6.4-11.2c0-1.6,1.6-1.6,1.6-3.2c1.6-4.8,4.8-9.6,6.4-14.4
		c4.8-8,8-16,12.8-22.4c1.6-3.2,1.6-6.4,0-11.2c0-1.6,0-1.6-1.6-3.2c-1.6-1.6-1.6-3.2-3.2-3.2c-1.6,0-3.2,1.6-4.8,4.8
		c0,3.2-1.6,6.4-3.2,8c0,0-1.6,1.6,0,3.2c0,3.2-1.6,4.8-3.2,8c-3.2,1.6-4.8,4.8-4.8,8c0,1.6-1.6,1.6-1.6,3.2c0-3.2-1.6-1.6-3.2,1.6
		s-3.2,3.2-6.4,3.2H4.8c-3.2,0-4.8-1.6-3.2-3.2c1.6-3.2,1.6-6.4,3.2-8v-1.6c3.2-1.6,3.2-6.4,6.4-9.6c3.2-4.8,6.4-11.2,9.6-16
		c0-1.6,1.6-1.6,1.6-3.2c1.6-4.8,4.8-9.6,8-12.8c3.2-6.4,3.2-11.2,0-17.6c-1.6-1.6-1.6-4.8-3.2-8c1.6-1.6,1.6,0,1.6,0
		c1.6,0,1.6,1.6,3.2,1.6s0-1.6,0-3.2c0,0,0-1.6,1.6-1.6h1.6c1.6,1.6,1.6,3.2,3.2,4.8c1.6,1.6,3.2,1.6,4.8,0c3.2-3.2,4.8-6.4,8-9.6
		c3.2-3.2,3.2-8,6.4-11.2c1.6-3.2,1.6-6.4,3.2-8c0-1.6,0-1.6,0-3.2c-1.6-1.6,0-3.2,0-4.8c0-1.6,1.6-1.6,3.2-1.6c0,1.6,0,1.6,3.2-1.6
		c1.6-1.6,3.2-4.8,4.8-6.4c1.6-3.2,3.2-6.4,4.8-9.6c1.6-1.6,3.2-1.6,4.8,0c0,1.6,1.6,3.2,3.2,3.2c0-1.6-3.2-3.2,0-4.8
		c1.6,0,3.2,1.6,3.2,3.2c1.6,4.8,3.2,8,4.8,11.2c3.2,4.8,3.2,4.8,8,3.2c1.6,0,3.2-1.6,4.8-1.6c1.6,0,3.2,0,1.6,3.2
		c0,1.6-1.6,1.6-1.6,1.6c-1.6,1.6-1.6,3.2-1.6,6.4c0,1.6,0,3.2,0,4.8c-1.6,3.2,0,6.4,1.6,8c3.2,3.2,4.8,6.4,6.4,9.6c0,0,0,0,0,1.6
		c3.2,4.8,3.2,4.8,6.4,1.6c3.2-3.2,6.4-8,9.6-12.8c3.2-4.8,4.8-9.6,1.6-14.4c-1.6-4.8-1.6-8-3.2-11.2c0-1.6,0-1.6,1.6-1.6
		c1.6,0,1.6,0,1.6,1.6s1.6,3.2,1.6,4.8l1.6,1.6c1.6,0,1.6-1.6,1.6-1.6c0-1.6,0-3.2-1.6-3.2v-1.6h1.6c1.6,1.6,1.6,3.2,3.2,4.8
		c1.6,3.2,3.2,3.2,4.8,0c3.2-4.8,8-9.6,11.2-16c1.6-3.2,4.8-6.4,6.4-9.6c1.6-1.6,4.8-6.4,6.4-6.4c1.6-1.6,3.2-1.6,4.8-3.2
		c1.6-1.6,3.2-1.6,4.8,1.6c0,1.6,0,4.8-1.6,4.8c-3.2,3.2-3.2,6.4-3.2,9.6c0,4.8-3.2,6.4-6.4,9.6c-1.6,1.6-4.8,1.6-4.8,4.8
		c0,1.6-1.6,1.6-1.6,1.6c-3.2,1.6-4.8,4.8-4.8,8c0,1.6-1.6,3.2-3.2,3.2c-3.2,1.6-3.2,4.8-3.2,8v1.6c1.6,3.2,3.2,4.8,4.8,8
		c0,1.6,1.6,1.6,1.6,3.2c1.6,1.6,1.6,1.6,3.2,0c6.4-6.4,12.8-11.2,16-20.8c1.6-3.2,0-8-1.6-11.2c-1.6-1.6-1.6-3.2-3.2-6.4v-1.6h1.6
		c1.6,1.6,1.6,1.6,1.6,3.2c0,1.6,1.6,3.2,3.2,4.8c0-1.6,0-1.6,0-3.2c0-1.6-1.6-4.8-1.6-6.4v-1.6c0,0,1.6,0,1.6,1.6
		c0,1.6,1.6,3.2,1.6,4.8s1.6,1.6,1.6,3.2c3.2,1.6,3.2,1.6,4.8,0c1.6-1.6,4.8-4.8,6.4-8c3.2-4.8,6.4-8,9.6-11.2c0,0,0-1.6,1.6-1.6
		c1.6-1.6,1.6-1.6,3.2,0c1.6,0,1.6,1.6,0,3.2v1.6c-1.6,3.2-3.2,4.8-3.2,8c-1.6,1.6-1.6,6.4-3.2,8c-3.2,3.2-4.8,8-8,12.8
		c-3.2,3.2-1.6,12.8,3.2,14.4c1.6,1.6,3.2,0,4.8-1.6s3.2-4.8,4.8-6.4c3.2-3.2,4.8-8,8-11.2c1.6-1.6,3.2-4.8,4.8-8
		c3.2-4.8,4.8-11.2,4.8-17.6v-1.6h1.6c4.8,1.6,6.4,1.6,9.6-3.2c3.2-4.8,6.4-8,9.6-12.8c1.6-1.6,3.2-3.2,4.8-4.8s3.2,0,3.2,1.6
		s0,3.2,0,4.8c-3.2,3.2-4.8,6.4-8,9.6c-1.6,1.6-3.2,3.2-3.2,4.8c0,3.2-1.6,4.8-3.2,6.4c-3.2,3.2-4.8,8-4.8,11.2c0,4.8-3.2,6.4-4.8,8
		c-3.2,1.6-6.4,4.8-8,9.6c-3.2,4.8-6.4,8-9.6,12.8c-1.6,1.6-3.2,3.2-4.8,6.4c-3.2,4.8-1.6,11.2,1.6,16c1.6,1.6,3.2,1.6,4.8,1.6
		c3.2-1.6,4.8-4.8,6.4-8c3.2-4.8,8-11.2,12.8-16c1.6-1.6,3.2-4.8,3.2-8s1.6-4.8-1.6-6.4c-1.6,0-1.6-3.2,0-3.2s1.6-1.6,1.6-3.2
		s0-3.2,1.6-1.6s1.6,1.6,1.6,3.2c0,1.6-3.2,3.2-1.6,4.8c1.6,1.6,4.8,1.6,8,0s4.8-6.4,8-9.6c1.6-3.2,4.8-6.4,6.4-8s1.6-3.2,3.2-4.8
		c1.6-3.2,4.8-6.4,8-8c3.2-1.6,4.8,0,4.8,3.2c-1.6,4.8,0,9.6,3.2,14.4c1.6,1.6,3.2,1.6,4.8,0c3.2-3.2,8-8,9.6-11.2
		c3.2-6.4,8-6.4,14.4-6.4c3.2,0,4.8,1.6,6.4,3.2c1.6,1.6,1.6,3.2,3.2,4.8c1.6,1.6,3.2,1.6,4.8,0c1.6-3.2,4.8-4.8,8-8
		c1.6-1.6,3.2-1.6,3.2,0c1.6,1.6,1.6,1.6,3.2,3.2c1.6,1.6,1.6,1.6,0,3.2c-4.8,4.8-6.4,9.6-9.6,14.4c-1.6,1.6-1.6,3.2-1.6,4.8
		s1.6,3.2,3.2,4.8c1.6,0,3.2,0,4.8-1.6c3.2-3.2,4.8-6.4,6.4-9.6c3.2-6.4,8-12.8,14.4-17.6c3.2-1.6,4.8-6.4,8-9.6
		c1.6-1.6,3.2-1.6,4.8,0c0,0,0,0,0,1.6c0,1.6,0,3.2,0,3.2c-4.8,4.8-4.8,12.8-9.6,17.6c-1.6,1.6-1.6,4.8,0,6.4c1.6,3.2,3.2,6.4,4.8,8
		c1.6,1.6,1.6,1.6,3.2,0c3.2-1.6,4.8-4.8,6.4-8c1.6-1.6,1.6-3.2,3.2-4.8c1.6-1.6,3.2-3.2,4.8-4.8c1.6-3.2,4.8-6.4,8-9.6
		s8-4.8,9.6-9.6c0-1.6,1.6-1.6,3.2-3.2c1.6-1.6,3.2-1.6,6.4,0c1.6,1.6,1.6,3.2,0,4.8s-3.2,3.2-4.8,4.8c-3.2,3.2-4.8,8-6.4,11.2
		c-1.6,1.6-3.2,4.8-3.2,6.4v1.6c-4.8,1.6-6.4,6.4-9.6,9.6c-4.8,3.2-9.6,9.6-11.2,14.4c0,1.6-1.6,1.6,0,3.2
		c1.6,4.8,3.2,11.2,6.4,14.4c1.6,1.6,1.6,1.6,3.2,0l1.6-1.6c3.2-4.8,8-8,11.2-12.8c1.6-1.6,1.6-4.8,1.6-8c0-1.6-1.6-3.2-3.2-6.4
		c1.6-1.6,1.6,0,3.2,0c0,0,0-1.6,1.6-3.2v-1.6c0-1.6,0-1.6,0-1.6c1.6,0,1.6,0,3.2,1.6l1.6,1.6c1.6,3.2,4.8,3.2,6.4,0
		c1.6-1.6,3.2-4.8,4.8-6.4c3.2-3.2,4.8-6.4,8-9.6c3.2-3.2,4.8-6.4,4.8-9.6c0-1.6,1.6-3.2,3.2-4.8c1.6,0,3.2-3.2,4.8-4.8
		c3.2-6.4,8-11.2,11.2-17.6c3.2-3.2,6.4-6.4,8-11.2l1.6-1.6c0,0,1.6-1.6,1.6,0c1.6,0,1.6,1.6,1.6,1.6s0,0,0,1.6
		c-3.2,4.8-1.6,11.2-6.4,14.4c-1.6,1.6-3.2,3.2-3.2,4.8c-3.2,3.2-1.6,6.4,0,9.6l1.6,1.6v1.6h-1.6h-1.6c-3.2-1.6-4.8,0-6.4,1.6
		c-1.6,3.2-4.8,6.4-4.8,9.6c0,1.6-1.6,3.2-3.2,4.8c-4.8,4.8-9.6,9.6-12.8,16c-1.6,3.2-4.8,4.8-8,8c-1.6,3.2-3.2,6.4,0,9.6
		c1.6,3.2,3.2,6.4,4.8,11.2c1.6,3.2,1.6,3.2,4.8,0c3.2-3.2,8-8,11.2-11.2c3.2-4.8,6.4-8,8-12.8c0-3.2,3.2-4.8,3.2-8
		c0-1.6,1.6-1.6,1.6,0c1.6,1.6,3.2,0,4.8-1.6c1.6-1.6,1.6-1.6,3.2-3.2c4.8-4.8,4.8-9.6,1.6-16c-1.6-1.6-1.6-3.2-1.6-4.8
		c1.6-1.6,3.2,0,4.8,1.6l0,0c3.2,4.8,4.8,4.8,9.6,0c1.6-3.2,3.2-6.4,6.4-8l0,0c1.6-4.8,6.4-8,9.6-12.8c1.6-1.6,3.2-3.2,4.8-3.2
		c1.6,0,3.2,3.2,3.2,4.8c1.6,3.2,0,6.4-1.6,6.4c-4.8,3.2-8,6.4-11.2,11.2c-3.2,4.8-6.4,9.6-9.6,14.4c-1.6,1.6-1.6,4.8-3.2,6.4
		c0,1.6,0,3.2,1.6,4.8s3.2,1.6,4.8,0c3.2-1.6,3.2-4.8,6.4-6.4c3.2-4.8,8-8,9.6-12.8c0-1.6,1.6-1.6,1.6-3.2c0-3.2,1.6-6.4,4.8-9.6
		l1.6-1.6c3.2,0,4.8-3.2,6.4-4.8c1.6-3.2,4.8-4.8,6.4-8c1.6-1.6,1.6-3.2,4.8-1.6c1.6,0,3.2,3.2,1.6,4.8c-1.6,4.8-3.2,9.6-6.4,12.8
		c-1.6,1.6-3.2,3.2-4.8,6.4c-3.2,4.8-3.2,9.6,0,14.4c1.6,1.6,3.2,4.8,3.2,6.4c1.6,3.2,3.2,3.2,4.8,1.6c1.6-1.6,4.8-4.8,6.4-6.4
		c3.2-3.2,6.4-6.4,9.6-9.6l1.6-1.6c1.6-4.8,6.4-8,9.6-11.2c4.8-4.8,9.6-9.6,14.4-16c0,0,0-1.6,1.6-1.6c3.2-1.6,4.8-3.2,6.4-6.4
		c1.6,4.8,1.6,9.6-3.2,12.8c-3.2,1.6-4.8,4.8-6.4,6.4c-1.6,4.8-4.8,8-8,12.8c-1.6,1.6-3.2,3.2-3.2,6.4c-1.6,3.2-3.2,6.4-6.4,6.4
		c-1.6,0-3.2,1.6-4.8,3.2c-3.2,4.8-6.4,9.6-11.2,12.8c-1.6,1.6-1.6,3.2-3.2,4.8c-1.6,1.6-1.6,3.2-1.6,4.8c1.6,6.4,4.8,11.2,6.4,17.6
		c1.6,3.2,3.2,3.2,4.8,0c4.8-6.4,9.6-12.8,14.4-19.2c1.6-1.6,1.6-3.2,1.6-6.4l0,0c-1.6-3.2-1.6-4.8,0-8c0-3.2-4.8-3.2-3.2-6.4
		c1.6,0,4.8,1.6,6.4,1.6c1.6,0,1.6,1.6,1.6,1.6s0,1.6,1.6,1.6c1.6,3.2,3.2,3.2,6.4,1.6c1.6,0,1.6-1.6,1.6-1.6
		c1.6-4.8,6.4-8,9.6-12.8c3.2-4.8,6.4-8,8-12.8l1.6-1.6c6.4-3.2,9.6-8,12.8-14.4c1.6-1.6,1.6-1.6,3.2-3.2s3.2-1.6,3.2,0
		c3.2,1.6,3.2,3.2,0,6.4c-1.6,1.6-3.2,3.2-4.8,6.4c0,1.6-1.6,3.2-3.2,4.8c-1.6,3.2-3.2,4.8-4.8,8c-1.6,3.2-3.2,8-8,9.6
		c-3.2,1.6-4.8,4.8-6.4,6.4c-3.2,4.8-8,8-11.2,12.8c-3.2,3.2-3.2,6.4-3.2,9.6c0,4.8,3.2,9.6,4.8,12.8c1.6,3.2,3.2,3.2,4.8,0
		c3.2-3.2,4.8-4.8,8-8c3.2-3.2,6.4-8,9.6-11.2c1.6-1.6,3.2-4.8,1.6-9.6c-1.6-1.6,0-3.2,0-4.8c1.6-1.6,1.6-3.2,1.6-6.4
		c1.6,0,3.2,1.6,3.2,3.2c3.2,3.2,3.2,3.2,6.4,0c4.8-4.8,8-9.6,12.8-14.4c3.2-3.2,3.2-8,1.6-12.8c0,0,0-1.6-1.6-1.6
		c0-1.6,0-1.6,0-1.6h1.6l1.6,1.6c3.2,3.2,4.8,3.2,8,0c3.2-3.2,6.4-8,8-11.2c1.6-1.6,3.2-3.2,4.8-4.8c1.6-1.6,4.8-3.2,4.8-6.4
		c0-1.6,1.6-1.6,3.2-1.6c1.6,0,1.6,1.6,0,3.2c-3.2,3.2-4.8,9.6-9.6,12.8c-3.2,1.6-4.8,4.8-4.8,9.6c0,1.6,0,1.6-1.6,3.2
		c-4.8,4.8-6.4,9.6-3.2,16c1.6,1.6,1.6,4.8,3.2,6.4c1.6,1.6,3.2,1.6,4.8,0c3.2-3.2,4.8-4.8,8-8c0,0,0-1.6,1.6-1.6
		c6.4-4.8,9.6-14.4,16-20.8l1.6-1.6c0-1.6,1.6-3.2,3.2-3.2c1.6,0,3.2-1.6,4.8-3.2c1.6-1.6,3.2-3.2,4.8-4.8s1.6-1.6,3.2-1.6
		c1.6,0,1.6,1.6,1.6,3.2c0,3.2-1.6,6.4-4.8,8c-3.2,3.2-4.8,6.4-6.4,11.2c0,1.6,0,1.6,0,3.2c1.6,3.2,1.6,4.8,3.2,8v1.6H656l0,0
		c-1.6-1.6-1.6-3.2-3.2-3.2c-3.2,0-6.4,0-8,4.8c-4.8,8-9.6,14.4-14.4,20.8c-1.6,3.2-1.6,6.4-1.6,9.6c1.6,3.2,3.2,8,4.8,11.2
		c1.6,3.2,3.2,3.2,4.8,1.6c4.8-3.2,8-8,11.2-12.8c1.6-3.2,4.8-4.8,6.4-8c0-1.6,1.6-1.6,1.6-3.2c0-3.2,1.6-4.8,3.2-6.4
		c1.6-1.6,3.2-4.8,6.4-3.2c1.6,0,1.6,0,3.2-1.6c4.8-4.8,9.6-9.6,14.4-14.4l1.6-1.6c3.2-8,9.6-12.8,14.4-19.2c3.2-3.2,4.8-4.8,8-8
		c1.6-3.2,4.8-6.4,8-8c1.6-1.6,1.6-3.2,3.2-3.2c0-1.6,1.6-1.6,1.6-1.6c1.6,0,1.6,1.6,1.6,1.6c0,1.6,0,1.6,0,3.2
		c-1.6,1.6-1.6,3.2-3.2,6.4c0,1.6-1.6,3.2-4.8,4.8c-1.6,0-1.6,1.6-3.2,1.6c-1.6,3.2-4.8,6.4-6.4,11.2c-1.6,3.2-4.8,6.4-8,9.6
		c-4.8,3.2-8,8-12.8,12.8c-3.2,4.8-8,9.6-12.8,14.4c-3.2,3.2-4.8,9.6-1.6,14.4s4.8,11.2,8,16c0,0,0,0,0,1.6c1.6,8,6.4,14.4,9.6,20.8
		c0,1.6,1.6,3.2,1.6,3.2c1.6,4.8,3.2,8,4.8,11.2c1.6,1.6,3.2,4.8,3.2,8v1.6c4.8,6.4,6.4,12.8,9.6,20.8c3.2,8,6.4,16,9.6,24
		c8,19.2,16,36.8,24,56c3.2,9.6,9.6,17.6,12.8,28.8c1.6,6.4,4.8,12.8,8,19.2c0,1.6,1.6,1.6,1.6,3.2c0,1.6-1.6,3.2-3.2,3.2
		c-3.2,0-4.8-1.6-6.4-4.8c-3.2-8-6.4-14.4-9.6-20.8c-1.6-3.2-3.2-6.4-3.2-9.6c-1.6-4.8-3.2-8-4.8-11.2v-1.6c-3.2-3.2-3.2-8-6.4-12.8
		c-3.2-6.4-4.8-11.2-8-17.6c0-1.6-3.2-3.2-3.2-6.4c-1.6-6.4-4.8-11.2-8-17.6c-1.6-3.2-3.2-4.8-3.2-8c-1.6-4.8-3.2-9.6-4.8-14.4
		s-1.6-8-4.8-12.8l-1.6-1.6c0-4.8-3.2-8-4.8-11.2c-1.6-1.6-1.6-3.2,0-3.2s1.6-1.6,0-3.2c0-1.6-1.6-1.6-3.2-1.6
		c-1.6,0-3.2-1.6-3.2-3.2c-1.6-6.4-4.8-11.2-6.4-16c-1.6-3.2-3.2-4.8-1.6-9.6c1.6-3.2-1.6-6.4-4.8-8c-1.6-1.6-3.2-1.6-1.6-3.2
		c1.6-1.6,1.6-3.2-1.6-3.2c-1.6,0-1.6-1.6-1.6-1.6c0-1.6-1.6-3.2-3.2-6.4c-1.6-4.8-3.2-4.8-6.4-1.6c-4.8,6.4-11.2,9.6-12.8,17.6
		c0,1.6-1.6,1.6-3.2,3.2c-1.6,0-3.2,1.6-3.2,4.8c0,3.2,0,6.4,1.6,9.6c0,1.6,1.6,1.6,1.6,3.2c0,4.8,1.6,8,3.2,11.2
		c3.2,4.8,4.8,11.2,6.4,17.6c1.6,4.8,3.2,11.2,6.4,16c1.6,3.2,3.2,8,4.8,11.2c1.6,9.6,6.4,17.6,9.6,25.6c1.6,4.8,4.8,9.6,4.8,16v1.6
		c4.8,8,8,17.6,11.2,27.2c1.6,6.4,4.8,12.8,6.4,19.2c0,4.8,3.2,8,4.8,11.2c0,3.2,1.6,4.8,3.2,8c1.6,4.8,3.2,8,4.8,12.8
		c1.6,3.2,1.6,6.4,3.2,9.6c0,1.6,0,3.2,0,4.8v1.6c-1.6,0-4.8,0-6.4,0c-1.6,0-1.6-1.6-3.2-3.2c-1.6-4.8-3.2-11.2-4.8-16
		c0-3.2-1.6-6.4-3.2-8c-3.2-6.4-4.8-12.8-6.4-20.8c-1.6-4.8-3.2-11.2-6.4-16c0-1.6-1.6-1.6-1.6-3.2c0-4.8-3.2-9.6-4.8-14.4
		c0-1.6-1.6-3.2-1.6-6.4c-1.6-3.2-1.6-6.4-3.2-9.6c-1.6-1.6-3.2-4.8-3.2-6.4c-1.6-4.8-3.2-9.6-6.4-14.4c-1.6-4.8-1.6-9.6-3.2-14.4
		c0-1.6,0-1.6,1.6-1.6c1.6-1.6,1.6-3.2,0-3.2c-4.8-3.2-6.4-8-8-12.8c-3.2-8-6.4-16-9.6-24c-1.6-1.6-1.6-3.2-1.6-4.8
		c0-1.6,0-1.6,1.6-3.2s1.6-3.2,0-4.8l-1.6-1.6c-3.2-1.6-3.2-3.2-3.2-6.4c0-1.6,0-3.2-1.6-4.8s-1.6-3.2-3.2-4.8
		c-1.6-4.8-4.8-9.6-4.8-14.4c0-1.6-1.6-4.8-3.2-4.8c-3.2,0-4.8,0-6.4,3.2c-1.6,3.2-4.8,4.8-6.4,8c-4.8,3.2-6.4,8-3.2,12.8
		c3.2,6.4,4.8,14.4,8,20.8c1.6,3.2,3.2,6.4,4.8,11.2c0,3.2,1.6,6.4,3.2,9.6c1.6,3.2,3.2,6.4,3.2,9.6s1.6,4.8,3.2,6.4
		c1.6,4.8,4.8,8,4.8,12.8c0,1.6,0,1.6,1.6,3.2c3.2,4.8,4.8,11.2,8,16c1.6,1.6,1.6,4.8,3.2,6.4c3.2,9.6,8,19.2,12.8,28.8
		c3.2,9.6,8,19.2,11.2,28.8c1.6,4.8,3.2,11.2,6.4,16c3.2,8,8,14.4,9.6,22.4c0,1.6,1.6,3.2,1.6,4.8c1.6,3.2,0,4.8-3.2,4.8
		c-1.6,0-3.2-1.6-4.8-3.2c-1.6-1.6-3.2-4.8-4.8-6.4c-3.2-8-8-14.4-9.6-20.8c-1.6-3.2-1.6-6.4-3.2-9.6c-3.2-9.6-6.4-17.6-9.6-27.2
		c0-1.6-1.6-3.2-3.2-4.8c-4.8-9.6-8-19.2-12.8-28.8c0-1.6-1.6-3.2-1.6-4.8s0-3.2-1.6-3.2c-1.6-3.2-3.2-6.4-4.8-8
		c-3.2-4.8-3.2-11.2-6.4-16c-1.6-3.2-1.6-6.4-3.2-9.6c-1.6-4.8-3.2-8-4.8-12.8s-4.8-11.2-6.4-16c-1.6-6.4-4.8-12.8-9.6-19.2
		c-1.6-3.2-3.2-3.2-6.4,0c-1.6,3.2-4.8,3.2-8,4.8c-1.6,1.6-3.2,0-3.2-1.6s0-4.8,1.6-6.4c1.6-1.6,3.2-4.8,4.8-6.4
		c3.2-4.8,3.2-9.6,1.6-14.4c-1.6-1.6-1.6-3.2-1.6-4.8c-1.6-3.2-4.8-3.2-6.4,0c-3.2,3.2-4.8,6.4-8,9.6s-6.4,6.4-8,9.6
		s-3.2,8-1.6,12.8c1.6,6.4,3.2,11.2,6.4,17.6c1.6,3.2,3.2,6.4,3.2,9.6c4.8,9.6,9.6,20.8,12.8,30.4c1.6,3.2,3.2,6.4,3.2,9.6
		c0,1.6,0,1.6,1.6,3.2c3.2,6.4,6.4,12.8,9.6,19.2c3.2,8,8,16,11.2,25.6c1.6,4.8,4.8,11.2,8,16c4.8,9.6,8,20.8,12.8,30.4
		c0,1.6,1.6,1.6,1.6,3.2c0,4.8,3.2,8,4.8,12.8c0,1.6,1.6,1.6,1.6,3.2c0,1.6,0,3.2-3.2,3.2c-1.6,0-1.6,0-3.2,1.6
		c-1.6,0-1.6,0-1.6-1.6c-1.6-1.6-1.6-3.2-3.2-4.8c-1.6-6.4-6.4-11.2-8-17.6c-1.6-3.2-3.2-6.4-3.2-9.6c-1.6-3.2-1.6-6.4-3.2-8
		c0,0-1.6-1.6-1.6-3.2c0-4.8-1.6-8-4.8-11.2c-1.6-1.6,0-3.2-1.6-4.8l0,0c1.6,0,3.2,1.6,4.8,3.2c-1.6-4.8-1.6-9.6-6.4-11.2
		c-1.6,0-1.6-1.6,0-3.2c0,0,1.6,0,1.6-1.6c0-1.6-1.6-1.6-1.6-1.6c-4.8,1.6-4.8-1.6-6.4-3.2c4.8,0,4.8,0,3.2-3.2c0-1.6,0-4.8-3.2-1.6
		c-1.6,0-1.6-1.6-1.6-1.6c-4.8-6.4-8-14.4-11.2-22.4c-1.6-3.2-1.6-6.4-3.2-8c-1.6-1.6-1.6-3.2,0-4.8s1.6-3.2,0-3.2
		c-6.4-1.6-8-8-9.6-14.4c-1.6-3.2-1.6-4.8-3.2-8c0-1.6,0-1.6,1.6-3.2h1.6c1.6,0,1.6-1.6,1.6-3.2c0-1.6-1.6-1.6-1.6-1.6s0,0-1.6,0
		c-3.2,1.6-4.8-1.6-6.4-3.2c-3.2-4.8-4.8-11.2-6.4-17.6v-1.6c-3.2-4.8-4.8-11.2-6.4-17.6c-1.6-3.2-1.6-6.4-3.2-9.6
		c0,0,0-1.6-1.6-1.6c-1.6-1.6-3.2-3.2-4.8,0c-3.2,3.2-6.4,4.8-8,8c0,1.6-3.2,3.2-4.8,4.8c-1.6,0-1.6,1.6-3.2,3.2
		c-3.2,4.8-3.2,9.6,0,12.8c3.2,4.8,3.2,9.6,4.8,14.4c3.2,9.6,8,19.2,12.8,30.4c1.6,4.8,4.8,8,6.4,12.8c1.6,3.2,3.2,8,3.2,12.8
		c0,1.6,0,3.2,1.6,4.8c1.6,3.2,3.2,6.4,4.8,9.6c3.2,4.8,4.8,11.2,8,16c3.2,6.4,6.4,12.8,9.6,19.2c1.6,1.6,1.6,4.8,3.2,6.4
		c1.6,1.6,1.6,3.2,1.6,3.2c0,1.6,0,1.6,1.6,3.2c4.8,4.8,6.4,12.8,9.6,19.2c0,1.6,0,3.2,1.6,3.2c3.2,4.8,4.8,9.6,6.4,14.4
		c1.6,3.2,3.2,6.4,3.2,9.6c0,1.6,0,1.6,0,3.2s0,3.2-3.2,4.8c-1.6,0-3.2,0-4.8-1.6c-1.6-1.6-3.2-4.8-3.2-6.4
		c-3.2-6.4-6.4-12.8-9.6-20.8c-3.2-6.4-6.4-12.8-8-19.2c-1.6-4.8-3.2-9.6-8-14.4c-3.2-4.8-6.4-9.6-8-16c0-1.6-1.6-4.8-3.2-6.4
		c-3.2-3.2-3.2-8-4.8-11.2c-1.6-1.6,1.6-3.2,1.6-4.8c-4.8,0-4.8-3.2-6.4-4.8c-1.6-4.8-3.2-8-6.4-12.8c-3.2-3.2-4.8-8-6.4-12.8
		c-1.6-4.8-3.2-9.6-6.4-14.4c0-1.6-1.6-1.6,0-3.2c1.6-1.6,0-3.2-1.6-4.8c-1.6-3.2-4.8-6.4-4.8-11.2c-1.6-4.8-3.2-9.6-4.8-14.4
		c0-1.6-1.6-1.6-1.6-3.2c-1.6-1.6-3.2-1.6-4.8,0c-1.6,1.6-3.2,3.2-4.8,4.8c-1.6,1.6-3.2,1.6-3.2-1.6c0-1.6,0-1.6,0-3.2
		c1.6-3.2,3.2-6.4,4.8-8c1.6-1.6,1.6-3.2,1.6-6.4c-1.6-6.4-3.2-12.8-6.4-19.2c-1.6-3.2-3.2-3.2-4.8-1.6c-1.6,1.6-4.8,4.8-6.4,8
		c-1.6,3.2-4.8,6.4-6.4,9.6c-1.6,1.6-1.6,3.2-1.6,4.8c1.6,3.2,1.6,6.4,3.2,9.6c1.6,4.8,4.8,11.2,8,16c1.6,4.8,4.8,8,6.4,12.8
		c1.6,1.6,1.6,3.2,1.6,4.8c3.2,8,6.4,14.4,9.6,20.8c3.2,4.8,4.8,9.6,6.4,14.4c1.6,4.8,4.8,11.2,6.4,16c1.6,3.2,3.2,8,4.8,11.2
		c1.6,4.8,4.8,9.6,8,14.4c1.6,4.8,3.2,9.6,6.4,14.4c0,0,1.6,1.6,1.6,3.2c1.6,8,6.4,14.4,11.2,19.2c1.6,1.6,1.6,4.8,4.8,4.8
		c1.6,0,1.6,1.6,1.6,3.2c-1.6,3.2,1.6,6.4,3.2,9.6c0,0,0,1.6,1.6,1.6c4.8,0,6.4,4.8,8,8s3.2,8,1.6,11.2c0,3.2-3.2,3.2-4.8,1.6
		s-1.6-3.2-3.2-4.8c0-1.6-1.6-3.2-1.6-1.6c-3.2,1.6-3.2,0-3.2-1.6c0,0,0,0,0-1.6c-1.6-4.8-6.4-6.4-6.4-11.2c-1.6-4.8-3.2-8-4.8-11.2
		s-3.2-8-4.8-11.2v-1.6c1.6,0,1.6,0,1.6,1.6c0,1.6,1.6,3.2,1.6,3.2l1.6,1.6c1.6,0,1.6-1.6,0-3.2c-1.6-1.6-3.2-4.8-4.8-6.4
		s-1.6-3.2-3.2-1.6c-1.6,0-3.2-1.6-3.2-1.6c-3.2-4.8-6.4-9.6-8-16c-3.2-6.4-4.8-14.4-8-20.8c-3.2-4.8-4.8-11.2-6.4-16
		c-1.6-3.2-1.6-6.4-3.2-8c0,0,0,0,1.6,0s1.6,1.6,3.2,0c1.6-1.6,0-3.2,0-3.2c-1.6-1.6-3.2-3.2-4.8-3.2s-3.2,0-3.2-1.6
		c-1.6-4.8-3.2-9.6-6.4-12.8c-1.6-1.6,0-3.2,1.6-4.8c-3.2-1.6-4.8-3.2-6.4-6.4c0-1.6-1.6-1.6,0-3.2c3.2-1.6,1.6-3.2,1.6-4.8
		c0,0,0-1.6-1.6-1.6c-1.6-3.2-4.8-4.8-4.8-9.6c0-3.2-1.6-6.4-6.4-4.8c-1.6,0-1.6-1.6-1.6-1.6c-1.6-4.8-4.8-8-6.4-12.8
		c-1.6-1.6-1.6-3.2-4.8-1.6c-3.2,1.6-6.4-3.2-6.4-6.4c0-1.6,1.6-1.6,1.6-3.2c1.6-4.8,1.6-9.6-1.6-14.4c-1.6-1.6-3.2-4.8-4.8-6.4
		c-1.6-3.2-3.2-3.2-4.8-1.6c-3.2,3.2-4.8,8-3.2,12.8c1.6,3.2,4.8,6.4,6.4,11.2c3.2,8,8,17.6,11.2,25.6c1.6,3.2,3.2,4.8,3.2,8
		c1.6,8,6.4,14.4,9.6,22.4s6.4,17.6,11.2,27.2c3.2,6.4,4.8,14.4,9.6,20.8c1.6,3.2,3.2,8,6.4,11.2l1.6,1.6c0,4.8,3.2,9.6,3.2,14.4
		c0,1.6,0,3.2,1.6,3.2c0,1.6,1.6,1.6,1.6,3.2c3.2,9.6,8,17.6,11.2,27.2c1.6,6.4,4.8,11.2,8,17.6c3.2,4.8,4.8,9.6,6.4,16
		c0,1.6,1.6,3.2,3.2,4.8c1.6,1.6,1.6,4.8,1.6,8c-3.2,0-4.8,0-6.4-4.8c-1.6-3.2-3.2-8-4.8-11.2c0-1.6,0-1.6-3.2-3.2
		c0,3.2,3.2,6.4,1.6,9.6h-1.6c-3.2-9.6-8-16-11.2-25.6c0-1.6-1.6-1.6-1.6-3.2c-1.6-3.2-3.2-6.4-4.8-9.6c-1.6-3.2-3.2-8-3.2-11.2
		c0,0,0-1.6-1.6-1.6c0-1.6-1.6-1.6-1.6-3.2c-1.6-6.4-4.8-9.6-6.4-16c0-1.6,0-3.2-1.6-3.2c-1.6-3.2-4.8-6.4-4.8-11.2
		c0,0,0-1.6-1.6-1.6c-3.2-3.2-4.8-6.4-6.4-11.2c-1.6-6.4-4.8-12.8-8-19.2c0-1.6-1.6-1.6-1.6-3.2c-1.6-6.4-4.8-11.2-8-17.6
		c0-1.6-1.6-1.6,0-3.2c1.6,4.8,3.2,6.4,6.4,9.6c0-3.2,0-4.8-1.6-8c-3.2-3.2-4.8-8-4.8-12.8c0-1.6-1.6-3.2-3.2-1.6
		c-1.6,0-1.6,0-3.2-1.6c0-1.6-1.6-3.2-1.6-4.8c1.6,0,1.6,1.6,3.2,1.6c0,0,0-1.6,0-3.2c-1.6-3.2-3.2-6.4-4.8-9.6
		c-1.6-4.8-4.8-8-6.4-12.8c-1.6-3.2-3.2-4.8-4.8-4.8c-1.6,0-3.2-1.6-1.6-3.2c1.6-1.6,0-3.2-1.6-4.8l-1.6-1.6c0-3.2-3.2-3.2-4.8-4.8
		c-1.6-1.6-3.2-1.6-4.8,0c-1.6,1.6-4.8,3.2-6.4,6.4s-4.8,4.8-8,4.8c-1.6,0-3.2,0-3.2,0c-1.6-1.6,0-1.6,0-3.2c0-1.6,1.6-1.6,1.6-3.2
		c3.2-6.4,6.4-11.2,9.6-17.6c0-1.6,1.6-1.6,1.6-3.2c0-3.2,0-6.4,1.6-11.2c-1.6,0-3.2,1.6-4.8,0c-1.6,0-3.2,0-3.2,1.6
		c-4.8,4.8-9.6,9.6-14.4,14.4c-3.2,3.2-3.2,6.4-1.6,11.2c3.2,6.4,4.8,11.2,8,17.6s4.8,12.8,8,17.6c4.8,9.6,8,19.2,14.4,28.8
		c1.6,3.2,3.2,8,4.8,11.2c1.6,4.8,4.8,9.6,8,14.4l1.6,1.6c3.2,8,8,16,11.2,24c4.8,9.6,8,17.6,12.8,27.2c1.6,4.8,4.8,9.6,6.4,14.4
		c1.6,6.4,4.8,11.2,8,16c3.2,4.8,6.4,9.6,8,16c1.6,3.2,1.6,8,3.2,11.2c0,0,0,1.6-1.6,1.6h-1.6c-1.6-1.6-3.2-3.2-3.2-4.8
		c0-1.6-1.6-3.2-3.2-4.8l-1.6-1.6c-3.2,1.6-3.2,0-1.6-1.6c0-1.6,0-3.2,0-4.8c-3.2-4.8-3.2-9.6-6.4-14.4
		C486.4,2081.6,486.4,2080,483.2,2081.6L483.2,2081.6z M531.2,2096c-1.6,4.8-1.6,4.8,3.2,6.4C532.8,2100.8,532.8,2099.2,531.2,2096
		c0-1.6-1.6-3.2-1.6-4.8C528,2094.4,528,2096,531.2,2096z M57.6,1940.8c0,1.6,0,1.6,0,3.2c1.6,4.8,3.2,8,4.8,12.8
		c1.6,0,1.6,1.6,1.6,3.2c1.6,1.6,3.2,1.6,4.8,0c0-1.6,1.6-3.2,1.6-3.2c4.8-4.8,6.4-11.2,11.2-16c1.6-1.6,1.6-3.2,3.2-4.8
		s1.6-3.2,0-3.2c-1.6-4.8-3.2-9.6-4.8-12.8c0-1.6-1.6-3.2-3.2-3.2c-1.6-1.6-3.2-1.6-4.8,1.6c-3.2,6.4-8,11.2-11.2,16
		c0,1.6-1.6,1.6-3.2,1.6C57.6,1936,57.6,1939.2,57.6,1940.8z M249.6,1929.6c0-4.8-3.2-8-4.8-12.8c0-1.6-1.6-1.6-3.2,0
		c-3.2,1.6-6.4,4.8-9.6,6.4l-1.6,1.6c-1.6,4.8-4.8,8-8,12.8s-4.8,9.6-1.6,14.4c1.6,1.6,1.6,3.2-1.6,4.8c-1.6,1.6-1.6,6.4,1.6,8h1.6
		c1.6-1.6,3.2-1.6,4.8-3.2c1.6-3.2,4.8-4.8,6.4-8c4.8-6.4,9.6-12.8,12.8-19.2C249.6,1932.8,249.6,1931.2,249.6,1929.6z
		 M300.8,1937.6c0-4.8-1.6-8-3.2-11.2c-1.6-3.2-3.2-3.2-4.8-1.6c-6.4,6.4-12.8,12.8-17.6,19.2c-3.2,3.2-4.8,8-1.6,11.2
		c1.6,3.2,3.2,4.8,3.2,8c0,3.2,4.8,4.8,6.4,3.2s4.8-3.2,6.4-4.8c1.6-3.2,3.2-6.4,4.8-8c1.6-3.2,4.8-6.4,6.4-9.6
		C299.2,1944,300.8,1940.8,300.8,1937.6z M102.4,1974.4c3.2,3.2,1.6,4.8-1.6,6.4h-1.6c-1.6,0-3.2,1.6-4.8,3.2s0,3.2,0,4.8
		c0,1.6,0,1.6,0,3.2c-4.8,3.2-6.4,8-8,12.8c-1.6,3.2-1.6,4.8,0,8c1.6,1.6,1.6,3.2,3.2,4.8c1.6,3.2,3.2,3.2,4.8,0
		c3.2-3.2,6.4-6.4,8-9.6c0-1.6,1.6-3.2,3.2-4.8c3.2-3.2,6.4-8,8-12.8c1.6-1.6,1.6-3.2,0-4.8c0-1.6-1.6-1.6,0-3.2
		c0-1.6,1.6-1.6,1.6-1.6c0-1.6-3.2-1.6-3.2-4.8c1.6,0,1.6,1.6,3.2,0c0-1.6,0-3.2-1.6-4.8c0-1.6-1.6-1.6-3.2,0
		c-1.6,1.6-3.2,1.6-4.8,1.6C105.6,1972.8,104,1974.4,102.4,1974.4z M100.8,1958.4c0-4.8-1.6-8-4.8-11.2c-1.6-1.6-1.6-1.6-3.2,0
		c-3.2,3.2-6.4,6.4-8,9.6c-3.2,6.4-8,12.8-11.2,19.2c-1.6,1.6,0,3.2,0,4.8c1.6,3.2,3.2,6.4,4.8,9.6c1.6,3.2,1.6,3.2,4.8,1.6
		c3.2-1.6,4.8-6.4,8-9.6c3.2-4.8,6.4-9.6,9.6-14.4C99.2,1964.8,100.8,1961.6,100.8,1958.4z M494.4,1873.6c0-1.6,0-3.2,0-4.8
		c0-3.2-3.2-4.8-1.6-8c0-1.6-1.6-3.2-3.2-3.2s-3.2,0-3.2,1.6c-1.6,1.6-3.2,3.2-3.2,4.8c-3.2,3.2-4.8,6.4-8,9.6
		c-4.8,4.8-6.4,9.6-1.6,14.4c1.6,1.6,3.2,3.2,3.2,6.4c0,1.6,0,1.6,1.6,3.2s1.6,1.6,3.2,0s1.6-1.6,3.2-3.2
		c6.4-4.8,9.6-11.2,11.2-19.2C492.8,1875.2,492.8,1873.6,494.4,1873.6z M108.8,1900.8v-1.6c-1.6-4.8-4.8-9.6-6.4-14.4
		c0-1.6-1.6-3.2-3.2-4.8s-1.6-1.6-4.8,0c-3.2,4.8-6.4,9.6-9.6,14.4c-1.6,3.2-1.6,8,0,11.2c1.6,3.2,4.8,6.4,6.4,9.6
		c1.6,1.6,1.6,3.2,3.2,3.2s4.8,0,4.8-3.2c1.6-3.2,3.2-4.8,4.8-8C107.2,1905.6,107.2,1904,108.8,1900.8z M340.8,1932.8
		c0-6.4-3.2-11.2-6.4-16c-1.6-1.6-3.2-1.6-3.2,0c-4.8,6.4-8,12.8-12.8,19.2c-1.6,1.6-1.6,4.8-1.6,6.4c1.6,3.2,3.2,8,4.8,11.2
		c1.6,3.2,3.2,3.2,6.4,0c4.8-4.8,6.4-9.6,11.2-14.4C339.2,1939.2,340.8,1936,340.8,1932.8z M278.4,1889.6c0-1.6,0-1.6,0-3.2
		c0-3.2-1.6-6.4-4.8-6.4c-3.2-1.6-4.8,1.6-6.4,3.2l-1.6,1.6c-1.6,1.6-3.2,3.2-4.8,4.8c-4.8,4.8-8,8-9.6,14.4c0,1.6,0,3.2,0,3.2
		c1.6,3.2,1.6,6.4,3.2,9.6c1.6,1.6,3.2,3.2,4.8,1.6c1.6-1.6,3.2-3.2,4.8-4.8c3.2-6.4,8-11.2,12.8-17.6
		C276.8,1894.4,278.4,1891.2,278.4,1889.6z M68.8,1880c-1.6,1.6,0,1.6,0,3.2c0,1.6,0,1.6-1.6,1.6c-6.4,0-8,4.8-9.6,8
		c-3.2,4.8-4.8,9.6-8,14.4c-4.8,6.4-4.8,11.2-1.6,17.6c1.6,3.2,6.4,3.2,6.4,0c1.6-3.2,3.2-4.8,4.8-8c3.2-4.8,4.8-8,8-12.8
		c1.6-3.2,4.8-8,1.6-12.8c-1.6-1.6,0-4.8,0-6.4C70.4,1883.2,70.4,1881.6,68.8,1880z M281.6,1867.2c0,1.6,0,3.2,1.6,4.8
		c3.2,6.4,6.4,6.4,11.2,1.6c4.8-6.4,9.6-12.8,14.4-17.6c3.2-3.2,3.2-6.4-1.6-9.6c-3.2-1.6-4.8-3.2-6.4-6.4c0-1.6-3.2-1.6-3.2,0
		c-1.6,3.2-3.2,4.8-4.8,8c0,3.2-1.6,4.8-3.2,6.4C283.2,1857.6,281.6,1862.4,281.6,1867.2z M121.6,1905.6c0,1.6,0,3.2,1.6,3.2
		c1.6,1.6,1.6,3.2,3.2,4.8c1.6,4.8,4.8,6.4,9.6,1.6c0,0,0,0,0-1.6c3.2-4.8,4.8-9.6,9.6-12.8c1.6-1.6,1.6-3.2,1.6-4.8
		c-1.6-4.8-3.2-9.6-6.4-14.4c0-1.6-1.6-1.6-3.2,0c-1.6,1.6-1.6,1.6-3.2,3.2c-1.6,1.6-1.6,3.2-3.2,3.2c-3.2,3.2-4.8,8-8,11.2
		C123.2,1902.4,121.6,1904,121.6,1905.6z M160,1902.4c0,3.2,1.6,6.4,3.2,9.6c0,1.6,1.6,3.2,3.2,3.2c1.6,0,3.2,0,3.2-1.6
		c4.8-6.4,9.6-12.8,12.8-20.8c3.2-4.8,0-8-1.6-12.8c-1.6-3.2-6.4-3.2-8,0c-1.6,3.2-4.8,6.4-8,9.6
		C163.2,1892.8,160,1897.6,160,1902.4z M376,1928c0-1.6,0-3.2-1.6-4.8c-1.6-1.6-3.2-3.2-6.4-4.8c-1.6-1.6-1.6,0-3.2,0
		c-4.8,4.8-8,9.6-9.6,16c0,0,0,1.6,0,3.2c0,6.4,4.8,11.2,6.4,17.6c1.6,1.6,3.2,1.6,3.2,0c0-1.6,1.6-1.6,1.6-3.2
		c1.6-4.8,4.8-8,6.4-12.8c1.6-1.6,1.6-8,1.6-9.6C376,1929.6,376,1928,376,1928z M70.4,1873.6c0,3.2,0,4.8,3.2,8s4.8,3.2,6.4,0
		c1.6-1.6,3.2-4.8,4.8-6.4c3.2-4.8,6.4-11.2,8-17.6c0-1.6,0-1.6,0-3.2c-1.6-3.2-3.2-4.8-4.8-8c-1.6-1.6-3.2-1.6-4.8,1.6
		c0,1.6-1.6,1.6-3.2,3.2c-3.2,3.2-6.4,6.4-6.4,11.2v1.6C70.4,1865.6,70.4,1870.4,70.4,1873.6z M395.2,1891.2c-3.2-1.6-4.8-1.6-6.4,0
		c-3.2,3.2-6.4,6.4-8,9.6s-4.8,4.8-3.2,8c0,3.2,1.6,6.4,3.2,8l1.6,1.6c3.2,3.2,3.2,4.8,6.4,0c3.2-3.2,6.4-8,9.6-11.2
		c1.6-1.6,1.6-3.2,1.6-4.8c0-1.6,0-4.8-1.6-6.4c0-1.6-3.2-4.8,1.6-4.8v-1.6c0-1.6-1.6-3.2-3.2-3.2
		C395.2,1889.6,396.8,1891.2,395.2,1891.2z M616,1870.4L616,1870.4c0-4.8-3.2-9.6-3.2-12.8c0-1.6-3.2-3.2-4.8-1.6
		c-1.6,1.6-4.8,3.2-6.4,6.4c-1.6,3.2-3.2,4.8-4.8,8c-1.6,3.2-3.2,6.4-3.2,9.6c1.6,3.2,3.2,6.4,4.8,9.6s4.8,3.2,6.4,0
		c3.2-4.8,6.4-8,9.6-12.8C614.4,1875.2,616,1872,616,1870.4z M160,1926.4c0-1.6,0-3.2-1.6-4.8c-1.6-3.2-3.2-4.8-3.2-8
		c0-1.6-1.6-1.6-3.2-1.6c-1.6,0-3.2,0-3.2,3.2c-1.6,3.2-3.2,4.8-4.8,6.4c-3.2,3.2-4.8,6.4-6.4,9.6c0,1.6,0,1.6,0,3.2
		c1.6,3.2,1.6,6.4,4.8,9.6c3.2,3.2,4.8,3.2,6.4,0c1.6-1.6,3.2-4.8,4.8-6.4c3.2-3.2,3.2-6.4,6.4-9.6C160,1928,160,1928,160,1926.4z
		 M235.2,1889.6c-4.8,3.2-8,4.8-11.2,9.6c-1.6,1.6-3.2,3.2-3.2,4.8c-1.6,4.8-4.8,8-8,12.8c-3.2,3.2-3.2,8,0,11.2
		c1.6,3.2,3.2,3.2,4.8,0c4.8-6.4,11.2-14.4,17.6-20.8c1.6-1.6,3.2-4.8,3.2-8C240,1894.4,236.8,1892.8,235.2,1889.6
		C235.2,1891.2,235.2,1889.6,235.2,1889.6z M326.4,1902.4c-1.6-3.2-3.2-8-4.8-11.2c-1.6-3.2-3.2-1.6-4.8,0c-3.2,3.2-6.4,8-8,11.2
		c-6.4,8-4.8,8-1.6,17.6c0,1.6,1.6,3.2,1.6,4.8c1.6,1.6,1.6,1.6,3.2,0c1.6-1.6,4.8-3.2,4.8-6.4c1.6-3.2,3.2-6.4,6.4-9.6
		C324.8,1907.2,326.4,1905.6,326.4,1902.4z M361.6,1897.6c0-3.2,0-3.2-3.2-4.8c-1.6,0-1.6-1.6-3.2-3.2c-1.6-3.2-3.2-3.2-4.8-1.6
		c-3.2,3.2-6.4,8-8,11.2c-1.6,1.6-1.6,4.8-1.6,6.4c1.6,3.2,3.2,8,4.8,11.2c1.6,3.2,4.8,3.2,6.4,0s3.2-6.4,6.4-8
		c3.2-1.6,3.2-4.8,3.2-8C363.2,1900.8,361.6,1899.2,361.6,1897.6z M123.2,1929.6L123.2,1929.6c0-4.8-3.2-8-4.8-12.8
		c0-1.6-3.2-1.6-3.2,0c-3.2,3.2-6.4,6.4-8,9.6c-3.2,6.4-3.2,12.8,1.6,19.2c1.6,3.2,4.8,3.2,6.4,0c3.2-4.8,6.4-8,9.6-12.8
		C121.6,1932.8,121.6,1931.2,123.2,1929.6z M172.8,1934.4C172.8,1934.4,172.8,1936,172.8,1934.4c0,4.8,1.6,6.4,3.2,6.4
		c3.2,1.6,3.2-1.6,4.8-1.6c1.6-1.6,1.6-1.6,3.2-3.2c1.6-3.2,3.2-6.4,6.4-9.6c3.2-1.6,4.8-6.4,4.8-9.6s0-6.4-1.6-9.6
		c-1.6-1.6-1.6-1.6-3.2-1.6c-3.2,1.6-4.8,3.2-6.4,6.4c-1.6,3.2-3.2,8-6.4,11.2C174.4,1926.4,172.8,1929.6,172.8,1934.4z
		 M206.4,1939.2v-1.6c0-1.6-1.6-3.2-3.2-4.8c-1.6,0-3.2,0-3.2,1.6c-1.6,1.6-1.6,1.6-3.2,3.2c-1.6,1.6-4.8,1.6-4.8,4.8
		c0,0,0,0-1.6,1.6s-3.2,3.2-3.2,4.8c-4.8,4.8-4.8,9.6-3.2,14.4c0,1.6,1.6,3.2,4.8,3.2c1.6,0,3.2,0,4.8-1.6c3.2-3.2,6.4-6.4,8-11.2
		c0-1.6,1.6-3.2,3.2-4.8C204.8,1947.2,204.8,1944,206.4,1939.2z M267.2,1864c0-1.6,0-4.8-1.6-6.4c0-1.6-1.6-1.6-3.2-1.6
		s-4.8,1.6-6.4,3.2c-3.2,4.8-8,9.6-11.2,12.8c-3.2,4.8-3.2,9.6-1.6,14.4c1.6,1.6,1.6,1.6,3.2,0c6.4-6.4,11.2-12.8,17.6-20.8
		C267.2,1867.2,267.2,1865.6,267.2,1864z M136,1958.4c-1.6-3.2-1.6-8-4.8-11.2l0,0c-1.6-1.6-1.6-1.6-3.2,0c-1.6,1.6-1.6,3.2-3.2,4.8
		c-3.2,3.2-4.8,8-8,11.2c0,0,0,1.6,0,3.2c0,4.8,3.2,6.4,4.8,9.6c1.6,3.2,3.2,3.2,4.8,0l1.6-1.6c3.2-3.2,4.8-6.4,8-9.6
		C136,1961.6,136,1960,136,1958.4z M262.4,1932.8c0,3.2,1.6,4.8,3.2,4.8c1.6,1.6,3.2,0,3.2-1.6c1.6-1.6,4.8-3.2,4.8-6.4
		c3.2-6.4,8-11.2,11.2-17.6c1.6-1.6,1.6-3.2,1.6-6.4c0-1.6-1.6-3.2-3.2-3.2s-3.2,0-3.2,1.6c-4.8,8-12.8,12.8-17.6,20.8
		C264,1929.6,264,1931.2,262.4,1932.8z M329.6,1876.8c0,3.2,1.6,6.4,3.2,9.6c1.6,3.2,3.2,3.2,4.8,0c1.6-1.6,3.2-3.2,4.8-4.8
		c3.2-3.2,6.4-8,3.2-14.4c0-1.6,0-1.6,0-3.2c1.6-1.6,0-1.6,0-3.2c-1.6-1.6-4.8-1.6-6.4,0c-3.2,3.2-6.4,6.4-9.6,11.2
		C329.6,1875.2,329.6,1876.8,329.6,1876.8z M128,1990.4c0,3.2,1.6,6.4,3.2,8c1.6,1.6,3.2,1.6,4.8,0c3.2-3.2,6.4-8,9.6-12.8
		c1.6-1.6,1.6-4.8,0-8c-1.6-1.6-3.2-3.2-4.8-3.2s-3.2,0-4.8,1.6c-1.6,0,0,1.6-1.6,3.2c0,1.6-1.6,3.2-3.2,3.2
		C131.2,1984,129.6,1987.2,128,1990.4z M169.6,1952c0-3.2-1.6-4.8-1.6-6.4s-1.6-1.6-1.6-1.6c-1.6,0-1.6,1.6-3.2,1.6
		c-3.2,3.2-6.4,6.4-9.6,9.6c-3.2,3.2-3.2,9.6,0,12.8c1.6,1.6,1.6,1.6,3.2,0c3.2-3.2,4.8-6.4,8-9.6
		C166.4,1956.8,169.6,1955.2,169.6,1952z M310.4,1870.4c-1.6,0-4.8,3.2-4.8,4.8c-1.6,3.2-3.2,4.8-4.8,6.4c-1.6,3.2-3.2,4.8-4.8,8
		c-1.6,1.6,0,4.8,1.6,4.8c1.6,1.6,3.2,0,4.8-1.6c0,0,0,0,1.6-1.6c3.2-4.8,6.4-9.6,9.6-12.8c1.6-1.6,1.6-1.6,3.2-3.2
		C315.2,1873.6,313.6,1870.4,310.4,1870.4z M454.4,1876.8c0-3.2-1.6-4.8-3.2-6.4c-1.6-1.6-3.2-1.6-4.8,0c-1.6,1.6-3.2,3.2-3.2,6.4
		c-1.6,3.2,0,6.4,3.2,8c1.6,0,1.6,0,3.2,0C451.2,1883.2,452.8,1880,454.4,1876.8z M523.2,2016c-1.6-3.2-1.6-6.4-3.2-9.6
		c0,0,0-1.6-1.6-1.6h-1.6c0,0,0,0,0,1.6C516.8,2009.6,518.4,2014.4,523.2,2016z M489.6,2003.2c3.2,3.2,1.6,8,6.4,11.2
		C496,2009.6,492.8,2004.8,489.6,2003.2z M504,2032c0,4.8,1.6,6.4,4.8,8C507.2,2038.4,507.2,2035.2,504,2032z M483.2,2075.2
		c0-3.2-1.6-4.8-3.2-6.4C480,2072,481.6,2073.6,483.2,2075.2z M561.6,2100.8c0-4.8-1.6-4.8-4.8-6.4
		C558.4,2096,558.4,2097.6,561.6,2100.8z M662.4,1980.8c0,1.6,0,1.6,1.6,3.2c1.6,0,1.6,0,1.6-1.6S665.6,1979.2,662.4,1980.8
		C664,1979.2,662.4,1979.2,662.4,1980.8z M345.6,2024c0-1.6,0-1.6-1.6-3.2h-1.6v1.6C344,2024,344,2024,345.6,2024z M172.8,2100.8
		c0,3.2,0,3.2,3.2,4.8C174.4,2102.4,174.4,2102.4,172.8,2100.8z M670.4,1888c0,1.6,0,1.6,1.6,1.6c0,0,1.6,0,0-1.6
		c0-1.6,0-3.2-1.6-3.2C670.4,1886.4,670.4,1886.4,670.4,1888z M499.2,2020.8c0-1.6-1.6-3.2-3.2-4.8l0,0
		C496,2019.2,497.6,2020.8,499.2,2020.8C497.6,2020.8,499.2,2020.8,499.2,2020.8z M265.6,1854.4c0,3.2,0,3.2,3.2,3.2
		C268.8,1856,268.8,1854.4,265.6,1854.4z M163.2,2078.4c0-1.6,0-3.2,0-3.2h-1.6v1.6C161.6,2075.2,161.6,2076.8,163.2,2078.4z
		 M520,2067.2C518.4,2067.2,518.4,2067.2,520,2067.2c0,1.6,0,3.2,0,4.8C521.6,2070.4,520,2068.8,520,2067.2z M459.2,2024
		c0,1.6,0,3.2,1.6,4.8C460.8,2027.2,460.8,2025.6,459.2,2024z M508.8,2046.4c0,1.6,0,1.6,1.6,1.6c0,0,1.6,0,1.6-1.6
		C512,2046.4,512,2044.8,508.8,2046.4C510.4,2046.4,508.8,2046.4,508.8,2046.4z M150.4,2051.2c0,1.6,1.6,3.2,3.2,1.6
		c0,0,1.6,0,0-1.6C153.6,2051.2,152,2049.6,150.4,2051.2z M596.8,2012.8c0,0,0-1.6-1.6-1.6h-1.6
		C593.6,2012.8,595.2,2014.4,596.8,2012.8C596.8,2014.4,596.8,2014.4,596.8,2012.8z M550.4,2078.4c-1.6,0-1.6,1.6,0,1.6
		c0,0,0,1.6,1.6,1.6C552,2081.6,552,2080,550.4,2078.4C552,2078.4,552,2078.4,550.4,2078.4z M476.8,2062.4c0,1.6,0,3.2,1.6,3.2
		C478.4,2064,478.4,2062.4,476.8,2062.4z M484.8,1936c0-1.6,0-1.6-1.6-1.6l0,0C483.2,1936,484.8,1936,484.8,1936z M492.8,1856
		C491.2,1856,491.2,1856,492.8,1856c0,1.6,0,1.6,0,1.6S492.8,1857.6,492.8,1856L492.8,1856z M104,1883.2
		C104,1883.2,104,1881.6,104,1883.2C104,1881.6,102.4,1883.2,104,1883.2C102.4,1883.2,104,1883.2,104,1883.2L104,1883.2z
		 M505.6,1982.4L505.6,1982.4C505.6,1982.4,505.6,1984,505.6,1982.4C507.2,1984,507.2,1982.4,505.6,1982.4
		C507.2,1982.4,507.2,1982.4,505.6,1982.4z M536,1966.4C536,1964.8,536,1964.8,536,1966.4c-1.6-1.6-1.6-1.6-1.6,0
		C534.4,1966.4,534.4,1966.4,536,1966.4C534.4,1966.4,536,1966.4,536,1966.4z M268.8,1958.4C268.8,1958.4,267.2,1958.4,268.8,1958.4
		C267.2,1960,268.8,1960,268.8,1958.4C268.8,1960,268.8,1960,268.8,1958.4L268.8,1958.4z M515.2,2056L515.2,2056
		C513.6,2056,513.6,2056,515.2,2056C513.6,2057.6,513.6,2057.6,515.2,2056C515.2,2057.6,515.2,2057.6,515.2,2056z M100.8,1876.8
		C102.4,1876.8,102.4,1876.8,100.8,1876.8C102.4,1876.8,102.4,1875.2,100.8,1876.8C100.8,1875.2,100.8,1875.2,100.8,1876.8
		L100.8,1876.8z M208,2033.6L208,2033.6L208,2033.6L208,2033.6L208,2033.6z M166.4,2088L166.4,2088L166.4,2088
		C168,2088,168,2088,166.4,2088C168,2088,166.4,2088,166.4,2088z M124.8,1920L124.8,1920C124.8,1920,123.2,1920,124.8,1920
		C123.2,1921.6,124.8,1921.6,124.8,1920L124.8,1920z M393.6,2036.8C393.6,2035.2,393.6,2035.2,393.6,2036.8
		C393.6,2035.2,393.6,2035.2,393.6,2036.8L393.6,2036.8L393.6,2036.8z M521.6,2075.2L521.6,2075.2L521.6,2075.2
		C523.2,2075.2,523.2,2075.2,521.6,2075.2L521.6,2075.2z"/>
	<path fill="#C6B324" d="M777.6,1868.8c1.6,0,3.2,3.2,4.8,0c0-1.6,1.6,0,3.2,0c1.6,3.2,3.2,4.8,3.2,8c0,1.6,1.6,3.2,1.6,4.8
		c1.6,3.2,4.8,3.2,6.4,0c4.8-6.4,9.6-11.2,16-17.6c1.6-1.6,1.6-3.2,3.2-4.8c1.6-3.2,4.8-6.4,4.8-11.2c0-1.6,1.6-1.6,1.6-1.6
		c3.2,0,4.8-1.6,6.4-3.2c4.8-4.8,11.2-9.6,16-16c1.6-1.6,1.6-1.6,3.2-3.2c1.6,0,1.6-1.6,3.2,0c1.6,1.6,1.6,3.2,0,3.2
		c-3.2,6.4-4.8,12.8-11.2,17.6c-6.4,3.2-9.6,9.6-12.8,16c0,1.6-1.6,3.2,0,3.2c1.6,4.8,1.6,9.6,4.8,14.4c1.6,1.6,1.6,4.8,3.2,6.4
		c1.6,3.2,4.8,3.2,6.4,0c3.2-4.8,6.4-8,8-12.8c1.6-1.6,1.6-4.8,0-6.4c-1.6-3.2-1.6-6.4-1.6-9.6c1.6,0,1.6,1.6,3.2,1.6
		s1.6,1.6,1.6,1.6c3.2-1.6,6.4,0,8-3.2c4.8-4.8,9.6-11.2,12.8-17.6c1.6-3.2,4.8-4.8,8-8c3.2-6.4,9.6-9.6,14.4-14.4
		c0,0,1.6-1.6,3.2,0c1.6,1.6,1.6,3.2,1.6,4.8c0,1.6-1.6,1.6-1.6,3.2c-3.2,3.2-4.8,6.4-4.8,9.6c0,1.6-1.6,4.8-4.8,4.8
		c-1.6,1.6-3.2,1.6-4.8,4.8c-3.2,4.8-6.4,8-9.6,12.8c-1.6,1.6-3.2,4.8-4.8,6.4c-1.6,3.2-3.2,4.8-4.8,8c-1.6,3.2-3.2,6.4,0,9.6
		s3.2,8,4.8,12.8c0,1.6,1.6,3.2,3.2,4.8c3.2,3.2,3.2,3.2,6.4,0c3.2-4.8,4.8-8,8-12.8c1.6-3.2,3.2-4.8,4.8-6.4
		c4.8-4.8,6.4-11.2,8-17.6c0-1.6,0-3.2,0-3.2c3.2,0,3.2-3.2,4.8-3.2c4.8,1.6,6.4-1.6,8-3.2c1.6-3.2,4.8-6.4,4.8-9.6s1.6-3.2,4.8-3.2
		c4.8,0,6.4-3.2,9.6-4.8c3.2-4.8,8-8,11.2-12.8c1.6-1.6,1.6-1.6,3.2-1.6c1.6,1.6,1.6,3.2,0,3.2c-1.6,3.2-3.2,8-6.4,11.2
		c-4.8,4.8-9.6,11.2-14.4,17.6c-1.6,3.2-4.8,6.4-8,8c0,0-1.6,0-1.6,1.6c-3.2,4.8-8,8-8,12.8c0,3.2-3.2,4.8-3.2,8
		c0,1.6-1.6,1.6-1.6,0c-4.8-1.6-6.4,0-8,3.2s-4.8,6.4-4.8,9.6s-3.2,6.4-6.4,8c-6.4,3.2-6.4,1.6-3.2,9.6c1.6,3.2,3.2,6.4,3.2,9.6
		c0,1.6,0,1.6,1.6,3.2c4.8,6.4,6.4,16,11.2,24c1.6,1.6,1.6,3.2,1.6,4.8c1.6,3.2,1.6,6.4,3.2,9.6c3.2,6.4,4.8,14.4,8,20.8
		c1.6,6.4,4.8,12.8,6.4,17.6c3.2,6.4,4.8,12.8,6.4,19.2c3.2,6.4,4.8,12.8,8,19.2c0,1.6,1.6,3.2,1.6,4.8c0,8,4.8,14.4,4.8,22.4
		c0,3.2,1.6,4.8,3.2,8c1.6,3.2,3.2,8,3.2,11.2c1.6,6.4,3.2,11.2,4.8,17.6c0,0,0,1.6,1.6,1.6c1.6,3.2,1.6,4.8,0,6.4
		c-1.6,1.6-4.8,0-6.4-1.6c-1.6-1.6-1.6-4.8-3.2-6.4c-1.6-9.6-6.4-17.6-9.6-27.2c-1.6-4.8-3.2-11.2-4.8-17.6c0-3.2-1.6-6.4-3.2-9.6
		c-1.6-4.8-4.8-9.6-4.8-14.4c0-3.2-1.6-6.4-3.2-9.6c0-1.6-1.6-3.2,1.6-4.8c0,0,1.6-1.6,0-1.6h-1.6c-1.6,1.6-3.2,0-3.2-1.6
		c-1.6-6.4-4.8-12.8-6.4-19.2c-1.6-3.2-3.2-6.4-3.2-9.6c0-1.6,0-3.2-1.6-4.8c0-1.6,0-3.2-1.6-4.8c-1.6-3.2-3.2-4.8,0-8
		c-6.4-1.6-6.4-6.4-6.4-12.8c0-3.2,0-4.8-3.2-6.4c-1.6,0-1.6,0-1.6-1.6c0-3.2-4.8-6.4-1.6-9.6c1.6-1.6,0-3.2,0-3.2
		c0-1.6-1.6-3.2-1.6-3.2c-1.6-3.2-1.6-3.2-4.8-1.6c-1.6-1.6-1.6-4.8-1.6-6.4c0-1.6,0-1.6,1.6-3.2c1.6-3.2,1.6-3.2,0-6.4
		c0,0-1.6,0-1.6-1.6c-1.6,0-3.2-1.6-1.6-4.8c0-1.6,0-1.6,0-3.2c-3.2-3.2-3.2-6.4-3.2-9.6c0-3.2-1.6-6.4-3.2-9.6
		c-3.2-4.8-11.2-4.8-14.4,0c-1.6,1.6-1.6,3.2-3.2,4.8c-3.2,3.2-3.2,8-4.8,11.2c0,3.2,1.6,6.4,3.2,11.2c1.6,6.4,4.8,12.8,6.4,17.6
		c1.6,4.8,3.2,9.6,4.8,14.4v1.6c-1.6,0-1.6,0-1.6-1.6c0-1.6,0-1.6-1.6-3.2c0-1.6-1.6-3.2-3.2-4.8c0,3.2,1.6,6.4,1.6,8
		c0,1.6,1.6,3.2,3.2,3.2c1.6,0,3.2,1.6,3.2,3.2c1.6,6.4,6.4,12.8,8,19.2s3.2,12.8,6.4,17.6c3.2,9.6,6.4,19.2,9.6,28.8
		c1.6,4.8,1.6,8,3.2,12.8c0,1.6,0,1.6,1.6,3.2c3.2,4.8,4.8,11.2,6.4,16c1.6,3.2,1.6,8,3.2,12.8c3.2,6.4,4.8,12.8,8,19.2
		c3.2,4.8,4.8,11.2,6.4,17.6c0,1.6,1.6,3.2,1.6,4.8c3.2,6.4,4.8,12.8,6.4,19.2c0,1.6,0,3.2-1.6,3.2s-1.6,1.6-3.2,3.2
		c-1.6-1.6-3.2-4.8-4.8-6.4c-3.2-11.2-8-20.8-11.2-30.4c-4.8-12.8-9.6-25.6-14.4-36.8c-9.6,1.6-9.6-1.6-9.6-4.8
		c-4.8-12.8-8-25.6-12.8-38.4c-1.6-6.4-3.2-11.2-6.4-16c-1.6-4.8-3.2-11.2-4.8-16c-3.2-9.6-6.4-20.8-11.2-30.4
		c-1.6-6.4-4.8-14.4-6.4-20.8c-1.6-3.2-3.2-6.4-3.2-9.6c-1.6-3.2-3.2-3.2-6.4-1.6c-1.6,0-1.6,1.6-3.2,3.2c-1.6,1.6-3.2,1.6-3.2,0
		c-1.6-1.6-1.6-1.6-1.6-3.2c0-1.6,0-1.6,1.6-3.2c1.6-1.6,1.6-4.8,3.2-6.4c3.2-4.8,3.2-11.2,1.6-16c-1.6-3.2-1.6-8-3.2-12.8v-1.6
		c0-1.6-1.6-4.8-4.8-4.8s-3.2,1.6-4.8,3.2c-3.2,4.8-6.4,9.6-8,14.4c0,1.6-1.6,1.6-1.6,3.2c-3.2,3.2-3.2,6.4-1.6,11.2
		c1.6,3.2,3.2,8,3.2,11.2c0,0,0,1.6,1.6,1.6c1.6,1.6,3.2,4.8,3.2,6.4c0,3.2,3.2,6.4,4.8,9.6c3.2,8,8,16,9.6,24
		c1.6,3.2,1.6,6.4,3.2,9.6c3.2,4.8,4.8,11.2,6.4,16c1.6,3.2,3.2,6.4,4.8,9.6c1.6,6.4,3.2,12.8,4.8,19.2s3.2,12.8,8,19.2
		c0,1.6,1.6,1.6,1.6,3.2c1.6,9.6,6.4,16,8,25.6c1.6,6.4,4.8,12.8,8,19.2c3.2,8,6.4,14.4,9.6,20.8c0,1.6,1.6,1.6,1.6,3.2
		c1.6,1.6,1.6,3.2,1.6,6.4c0,3.2,0,3.2-3.2,3.2c-4.8,0-6.4-1.6-8-4.8c-4.8-9.6-8-19.2-12.8-27.2c-1.6-1.6-1.6-4.8-1.6-6.4
		c-3.2-9.6-6.4-19.2-11.2-28.8c-3.2-8-4.8-16-9.6-24c-1.6-3.2,0-6.4-1.6-8c-1.6-4.8-3.2-8-4.8-12.8c-3.2-11.2-9.6-22.4-12.8-33.6
		c-3.2-8-6.4-16-9.6-25.6c-1.6-3.2-3.2-4.8-3.2-8c-1.6-3.2-3.2-6.4-4.8-9.6c-1.6-4.8-4.8-9.6-4.8-14.4v-1.6c-4.8-3.2-4.8-8-6.4-12.8
		c-1.6-4.8-3.2-8-4.8-12.8C777.6,1876.8,777.6,1872,777.6,1868.8L777.6,1868.8z M832,1996.8L832,1996.8c0-1.6,0-3.2,0-6.4
		c0,0,0-1.6-1.6,0v1.6C830.4,1993.6,830.4,1995.2,832,1996.8z M800,1918.4c0-1.6,0-3.2-1.6-4.8l0,0
		C796.8,1916.8,798.4,1916.8,800,1918.4z M822.4,1870.4c0,1.6,0,1.6,1.6,1.6c0,0,1.6,0,1.6-1.6
		C825.6,1870.4,824,1868.8,822.4,1870.4C822.4,1868.8,822.4,1870.4,822.4,1870.4z M814.4,1956.8L814.4,1956.8c1.6,1.6,1.6,0,1.6,0
		C816,1955.2,816,1955.2,814.4,1956.8C814.4,1955.2,814.4,1955.2,814.4,1956.8z M844.8,1936C844.8,1936,846.4,1936,844.8,1936
		C846.4,1934.4,846.4,1934.4,844.8,1936C844.8,1934.4,844.8,1934.4,844.8,1936C844.8,1934.4,844.8,1936,844.8,1936z"/>
	<path fill="#C6B324" d="M1123.2,1937.6c-3.2,0-3.2-1.6-3.2-4.8c-1.6-4.8-3.2-6.4-8-6.4c-1.6,0-3.2,1.6-4.8,3.2
		c-1.6,3.2-3.2,4.8-6.4,8c-1.6,1.6-1.6,4.8-1.6,6.4c1.6,6.4,1.6,14.4,4.8,20.8c1.6,3.2,3.2,6.4,4.8,9.6c3.2,9.6,6.4,19.2,11.2,28.8
		c1.6,4.8,3.2,9.6,4.8,14.4c1.6,3.2,3.2,8,4.8,11.2c4.8,9.6,6.4,19.2,9.6,27.2c4.8,9.6,8,20.8,11.2,30.4c0,0,0,1.6,1.6,1.6
		c0,8,0,8-4.8,9.6c-1.6,0-3.2,0-3.2-1.6c-1.6-4.8-4.8-11.2-6.4-16c-1.6-3.2-1.6-6.4-1.6-9.6c0-1.6,0-4.8-3.2-4.8s-3.2-3.2-3.2-6.4
		c0-1.6,0-3.2-1.6-6.4s-3.2-6.4-3.2-9.6c-1.6-4.8-3.2-8-4.8-12.8c-1.6-3.2-1.6-6.4-3.2-9.6c0-1.6,0-1.6-1.6-3.2
		c0-1.6-1.6-1.6-1.6-3.2c1.6-3.2,0-4.8-1.6-8c-1.6-1.6-1.6-3.2-1.6-4.8c0-1.6,0-3.2-1.6-4.8s-1.6-4.8,0-6.4s0-3.2-1.6-4.8
		c-4.8-3.2-4.8-6.4-4.8-11.2c0-3.2,0-6.4,0-8s0-3.2-1.6-3.2c-3.2-1.6-4.8-4.8-8-6.4c-3.2-1.6-4.8-4.8-4.8-9.6
		c0-6.4-1.6-12.8-4.8-20.8c-1.6-1.6-1.6-4.8-1.6-6.4c0-3.2-1.6-4.8-4.8-6.4c-1.6-1.6-3.2-1.6-6.4-1.6c-3.2,0-3.2,0-3.2-3.2v-1.6
		c1.6-3.2,1.6-8,3.2-11.2c0-1.6-3.2-8-4.8-8h-1.6c-3.2,1.6-4.8,4.8-4.8,9.6s1.6,8,3.2,11.2c1.6,1.6,1.6,3.2,1.6,4.8s0,3.2,1.6,4.8
		c3.2,4.8,3.2,11.2,6.4,16c1.6,4.8,3.2,9.6,4.8,14.4c3.2,6.4,6.4,12.8,6.4,20.8c0,1.6,0,1.6,1.6,3.2c4.8,4.8,8,11.2,9.6,17.6
		c1.6,8,6.4,16,9.6,24c1.6,4.8,3.2,9.6,4.8,14.4c0,1.6,0,3.2,1.6,4.8c3.2,4.8,3.2,9.6,4.8,12.8c3.2,8,6.4,16,9.6,24
		s8,17.6,11.2,25.6c3.2,6.4,6.4,12.8,9.6,19.2c1.6,3.2,3.2,6.4,3.2,9.6c1.6,3.2,0,6.4-1.6,6.4s-4.8,0-4.8-3.2
		c-3.2-6.4-6.4-11.2-8-17.6c0-3.2-1.6-4.8-3.2-8c-3.2-4.8-8-11.2-9.6-17.6c-4.8-9.6-9.6-19.2-11.2-30.4c0-1.6-1.6-4.8-1.6-6.4
		c-1.6-3.2-3.2-6.4-4.8-9.6c-3.2-6.4-3.2-11.2-6.4-17.6c-1.6-1.6-1.6-3.2,0-4.8s1.6-1.6,0-3.2c-3.2-1.6-3.2-4.8-4.8-8
		c0-3.2-3.2-4.8-4.8-8c-3.2-6.4-4.8-12.8-8-19.2c0-1.6,0-1.6,0-3.2c1.6-1.6,0-4.8-1.6-6.4c-3.2-3.2-6.4-8-8-12.8
		c-1.6-3.2-3.2-6.4-4.8-9.6c-1.6-1.6-1.6-3.2,0-4.8c1.6-3.2,1.6-4.8,0-8c0-1.6,0-1.6,0-3.2s-1.6-4.8-3.2-6.4
		c-1.6-1.6-1.6-1.6-1.6-3.2c0-4.8-3.2-6.4-6.4-8c-1.6,0-3.2-1.6-4.8-1.6c-3.2-1.6-4.8-4.8-3.2-8c1.6-4.8,0-9.6,1.6-12.8
		c0-1.6-1.6-4.8-1.6-6.4c0-1.6,0-1.6,0-3.2c1.6-1.6,1.6,0,3.2,0l0,0c3.2,3.2,6.4,3.2,8-1.6c1.6-3.2,1.6-4.8,3.2-8
		c0-3.2,1.6-4.8,4.8-4.8c3.2,0,6.4-1.6,8-4.8c1.6-1.6,3.2-4.8,6.4-6.4c3.2-3.2,4.8-6.4,4.8-9.6c0-1.6,1.6-3.2,3.2-4.8
		c4.8-1.6,8-4.8,11.2-9.6s8-6.4,11.2-11.2c0,0,1.6-1.6,3.2,0c1.6,0,1.6,1.6,0,3.2c-1.6,6.4-4.8,9.6-8,14.4
		c-3.2,6.4-9.6,11.2-11.2,19.2c0,3.2-1.6,4.8-4.8,4.8c-3.2,0-4.8,1.6-6.4,3.2c-3.2,3.2-4.8,6.4-8,9.6c-3.2,4.8-1.6,12.8,3.2,16
		c1.6,1.6,3.2,1.6,4.8,0c4.8-4.8,9.6-9.6,9.6-16c0-4.8,3.2-6.4,6.4-4.8c1.6,0,3.2,0,4.8-1.6c4.8-4.8,8-9.6,12.8-14.4
		c3.2-3.2,4.8-6.4,4.8-11.2c0-1.6,0-3.2,3.2-3.2c4.8,1.6,6.4-1.6,9.6-4.8c3.2-3.2,6.4-6.4,9.6-8c1.6,0,1.6-1.6,1.6-3.2
		c1.6-3.2,4.8-6.4,6.4-9.6c0,0,1.6-1.6,1.6,0l1.6,1.6c0,3.2,0,6.4-3.2,8c-4.8,4.8-9.6,9.6-14.4,14.4c-3.2,3.2-4.8,6.4-8,9.6
		c-1.6,1.6-1.6,3.2,0,4.8c0,4.8,1.6,9.6,4.8,14.4c0,1.6,1.6,1.6,3.2,3.2c3.2,1.6,4.8,1.6,6.4,0s3.2-3.2,4.8-4.8
		c3.2-4.8,8-9.6,9.6-16c0-1.6,1.6-3.2,3.2-3.2c3.2-1.6,6.4-3.2,8-6.4s6.4-4.8,8-8h1.6c0,0,1.6,1.6,0,1.6c0,1.6,0,1.6-1.6,3.2
		c-1.6,3.2-3.2,6.4-6.4,8l-1.6,1.6c-1.6,1.6-1.6,3.2-1.6,4.8c-3.2,4.8-4.8,9.6-8,14.4l-1.6,1.6c-4.8,1.6-6.4,4.8-8,8
		c-1.6,1.6-3.2,4.8-4.8,6.4c-3.2,3.2-3.2,8-3.2,11.2c0,4.8,0,4.8-4.8,4.8s-6.4,1.6-8,4.8c-1.6,3.2-4.8,6.4-8,9.6
		c-1.6,1.6-1.6,1.6-3.2,3.2c-3.2,4.8-4.8,8-3.2,14.4C1120,1929.6,1121.6,1934.4,1123.2,1937.6z M1134.4,1873.6
		c1.6-3.2-1.6-6.4-3.2-11.2c-1.6-3.2-3.2-3.2-4.8-3.2c-3.2,0-4.8,1.6-6.4,3.2c-3.2,3.2-8,8-11.2,12.8c-1.6,1.6-3.2,4.8-3.2,8
		s0,8,3.2,11.2c0,1.6,1.6,1.6,1.6,3.2v1.6h-1.6c-1.6-3.2-3.2-4.8-3.2-8c0-1.6-1.6-1.6-1.6-1.6c-1.6,1.6-3.2,1.6-6.4,0
		c-1.6,0-1.6,0-3.2,0c-8,4.8-9.6,12.8-8,20.8c0,1.6,1.6,3.2,1.6,4.8c1.6,1.6,1.6,4.8,3.2,6.4c0,3.2,1.6,4.8,3.2,8s3.2,3.2,4.8,0
		c1.6-3.2,4.8-6.4,6.4-8l1.6-1.6c0-4.8,3.2-8,3.2-12.8c0-3.2,0-3.2,3.2-1.6c3.2,1.6,3.2,1.6,6.4-1.6c3.2-3.2,6.4-8,9.6-12.8
		C1132.8,1884.8,1134.4,1880,1134.4,1873.6z"/>
	<path fill="#C6B324" d="M777.6,1868.8c-1.6-1.6-3.2-1.6-4.8-1.6c-3.2,0-4.8,0-3.2,4.8c0,3.2-1.6,4.8-3.2,4.8
		c-3.2,1.6-3.2,3.2-3.2,6.4c0,3.2,0,4.8,0,8c0,6.4,3.2,12.8,4.8,19.2c1.6,4.8,4.8,9.6,6.4,14.4c1.6,4.8,3.2,9.6,4.8,12.8
		c0,1.6,1.6,3.2,1.6,4.8c1.6,3.2,1.6,8,3.2,11.2c3.2,4.8,3.2,11.2,6.4,17.6c1.6,4.8,3.2,8,4.8,12.8c0,0,0,0,0,1.6
		c1.6,6.4,4.8,12.8,6.4,20.8c1.6,6.4,4.8,12.8,8,19.2c1.6,6.4,4.8,11.2,6.4,17.6c0,3.2,1.6,4.8,3.2,6.4c1.6,4.8,3.2,9.6,4.8,14.4
		c3.2,6.4,3.2,12.8,6.4,19.2c3.2,4.8,4.8,11.2,8,16c1.6,1.6,1.6,4.8,1.6,6.4c0,1.6,0,3.2,1.6,4.8c1.6,3.2,3.2,4.8,4.8,8
		c-1.6,1.6-3.2-1.6-3.2,1.6c0,1.6,1.6,1.6,3.2,3.2c1.6,0,1.6,1.6,0,3.2c0,0,0,0-1.6,1.6c-3.2,3.2-3.2,3.2-4.8,0
		c-3.2-8-8-17.6-11.2-25.6c-1.6-6.4-4.8-12.8-8-17.6c-4.8-9.6-9.6-19.2-11.2-30.4c0-3.2-1.6-4.8-3.2-8c-4.8-11.2-9.6-24-14.4-35.2
		c-1.6-4.8-1.6-9.6-4.8-14.4c-1.6-1.6-1.6-3.2-3.2-4.8c-1.6-3.2-1.6-6.4-1.6-9.6c3.2,1.6,4.8,6.4,8,9.6c0-3.2-1.6-4.8-1.6-6.4
		c0-3.2-3.2-6.4-4.8-9.6c0,3.2-1.6,4.8-1.6,6.4c-4.8-6.4-6.4-14.4-9.6-22.4c-1.6-4.8-1.6-11.2-4.8-16c-1.6-3.2-1.6-6.4-3.2-11.2
		c-1.6-4.8-4.8-8-4.8-12.8c0-3.2-1.6-6.4-3.2-9.6c0-3.2-1.6-4.8-3.2-8c-1.6-1.6-1.6-1.6-3.2,0c-3.2,1.6-4.8,4.8-6.4,6.4
		c-1.6,1.6-3.2,3.2-4.8,4.8c-3.2,1.6-3.2,4.8-3.2,8c1.6,4.8,3.2,9.6,4.8,14.4c4.8,12.8,8,24,12.8,36.8c0,1.6,1.6,3.2,3.2,4.8
		c0,1.6,1.6,3.2,1.6,3.2c0,6.4,4.8,12.8,6.4,17.6c1.6,4.8,3.2,8,4.8,12.8c0,3.2,1.6,6.4,3.2,9.6c1.6,1.6,1.6,4.8,3.2,8
		c0,1.6,1.6,4.8,1.6,6.4c3.2,4.8,3.2,9.6,4.8,16c1.6,6.4,4.8,14.4,8,20.8c0,1.6,1.6,3.2,1.6,4.8c0,3.2,1.6,6.4,3.2,8
		c3.2,8,6.4,14.4,9.6,22.4c1.6,3.2,1.6,6.4,3.2,8c1.6,3.2,1.6,3.2-1.6,4.8c-3.2,1.6-4.8,0-4.8-1.6c-1.6-4.8-4.8-11.2-8-16v-1.6
		c-1.6-8-6.4-14.4-8-22.4c-1.6-4.8-3.2-8-4.8-12.8c-1.6-6.4-3.2-11.2-6.4-17.6c-1.6-6.4-6.4-12.8-6.4-20.8
		c-1.6-11.2-6.4-20.8-11.2-32c-1.6-4.8-4.8-11.2-6.4-16c-3.2-8-6.4-14.4-8-22.4c0-3.2-3.2-6.4-3.2-11.2c-1.6-6.4-4.8-11.2-6.4-17.6
		c-1.6-6.4-4.8-12.8-6.4-19.2c-1.6-6.4-4.8-12.8-8-20.8c0-1.6-1.6-4.8-1.6-6.4c-1.6-3.2-3.2-4.8-6.4-1.6c-1.6,0-1.6,1.6-3.2,1.6
		c-3.2,4.8-8,9.6-9.6,16c0,3.2-3.2,3.2-4.8,3.2s-4.8-1.6-4.8-3.2c0-1.6,0-3.2,0-4.8c1.6-3.2,4.8-8,8-11.2c1.6-1.6,3.2-3.2,4.8-6.4
		c1.6-3.2,3.2-4.8,4.8-6.4c3.2-3.2,4.8-4.8,3.2-9.6c-1.6-4.8-1.6-9.6-3.2-14.4c0-1.6,0-3.2,3.2-3.2c1.6,0,0,1.6,0,1.6
		c-1.6,1.6,0,3.2,1.6,3.2s3.2,1.6,3.2,1.6c0,1.6,1.6,3.2,3.2,4.8c1.6,1.6,4.8,3.2,6.4,0c4.8-8,14.4-12.8,17.6-20.8
		c0-1.6,1.6-3.2,3.2-3.2c4.8-1.6,8-6.4,12.8-9.6c1.6-1.6,1.6-3.2,3.2-4.8c1.6-1.6,3.2-1.6,4.8,0c1.6,1.6,1.6,3.2,0,4.8
		c-1.6,3.2-3.2,6.4-6.4,8s-4.8,4.8-6.4,8c-1.6,4.8-4.8,8-8,11.2l-1.6,1.6c-4.8,1.6-8,6.4-11.2,9.6c-1.6,1.6-3.2,3.2-4.8,4.8
		c-6.4,4.8-6.4,8-3.2,14.4c0,1.6,1.6,3.2,1.6,4.8c0,1.6,0,3.2,1.6,3.2c1.6,4.8,4.8,8,6.4,12.8c1.6,3.2,3.2,3.2,4.8,1.6
		c1.6,0,1.6-1.6,1.6-1.6c3.2-4.8,6.4-8,9.6-11.2c1.6-3.2,1.6-4.8,1.6-8c0-1.6-1.6-4.8-1.6-6.4s0-3.2,1.6-3.2s4.8,0,6.4,1.6
		c3.2,1.6,3.2,1.6,4.8-1.6c3.2-4.8,6.4-8,8-14.4c1.6-3.2,3.2-6.4,6.4-8c3.2-1.6,6.4-4.8,8-8c4.8-6.4,9.6-11.2,12.8-17.6
		c1.6-3.2,3.2-4.8,4.8-8c1.6-1.6,1.6-1.6,3.2,0c0,0,0,1.6,1.6,1.6c1.6,1.6,1.6,3.2,0,3.2c-1.6,1.6-3.2,3.2-3.2,4.8
		c0,1.6-1.6,3.2-3.2,4.8l-1.6,1.6c-4.8,8-11.2,14.4-16,22.4c0,1.6-1.6,1.6-1.6,3.2c0,1.6,0,4.8-3.2,6.4
		C776,1864,777.6,1865.6,777.6,1868.8L777.6,1868.8z M835.2,2094.4c0-1.6-1.6-4.8-3.2-4.8l0,0c0,1.6,0,3.2,1.6,4.8v1.6
		C833.6,2096,835.2,2096,835.2,2094.4C835.2,2096,835.2,2096,835.2,2094.4z M800,2006.4C801.6,2006.4,801.6,2008,800,2006.4
		C801.6,2008,801.6,2006.4,800,2006.4C801.6,2006.4,801.6,2006.4,800,2006.4C801.6,2006.4,801.6,2006.4,800,2006.4z"/>
	<path fill="#C6B324" d="M1526.4,2073.6c0-1.6-1.6-3.2-1.6-4.8c-1.6-4.8-3.2-9.6-4.8-14.4c-1.6-1.6-1.6-4.8-1.6-6.4
		c0-3.2-1.6-8-3.2-11.2l-1.6-1.6c-1.6-8-6.4-16-6.4-25.6c0-1.6-1.6-3.2-3.2-4.8c-1.6-3.2-3.2-6.4-3.2-9.6s-1.6-6.4-3.2-8
		c-1.6-1.6-1.6-4.8-3.2-6.4c0-1.6-1.6-3.2,1.6-3.2c1.6-1.6,3.2,0,3.2,1.6c1.6,3.2,3.2,6.4,3.2,11.2c0,1.6,1.6,3.2,1.6,4.8
		c3.2,3.2,3.2,8,4.8,12.8c0,1.6,0,3.2,1.6,3.2c4.8,9.6,6.4,19.2,9.6,28.8c1.6,8,4.8,16,6.4,24s4.8,17.6,6.4,25.6
		c0,3.2,1.6,6.4,3.2,9.6c1.6,4.8,3.2,9.6,4.8,14.4c1.6,4.8,3.2,9.6,4.8,16c3.2,9.6,8,17.6,9.6,27.2c1.6,3.2,3.2,6.4,4.8,8
		c4.8,8,9.6,17.6,14.4,27.2c0,1.6,1.6,3.2,3.2,4.8c1.6,1.6,3.2,4.8,3.2,8c0,1.6,0,1.6-1.6,3.2c-1.6,0-1.6,0-3.2,0
		c-3.2-1.6-4.8-4.8-4.8-6.4c-1.6-4.8-4.8-9.6-8-14.4s-6.4-9.6-6.4-16v-1.6c-1.6-3.2-1.6-6.4-4.8-9.6c-3.2-4.8-4.8-9.6-9.6-12.8
		c-4.8-4.8-9.6-9.6-11.2-16c-1.6-3.2-3.2-6.4-4.8-9.6c-1.6-3.2-3.2-6.4-4.8-9.6c-1.6-3.2-1.6-6.4-3.2-8c-3.2-6.4-4.8-14.4-9.6-20.8
		c-1.6-1.6-1.6-3.2-1.6-4.8c-1.6-3.2-3.2-8-4.8-11.2l-1.6-1.6c0-6.4-3.2-11.2-6.4-16c-1.6-3.2-3.2-6.4-4.8-9.6
		c-1.6-4.8-1.6-11.2-4.8-16c-1.6-3.2-1.6-6.4-3.2-8c-1.6-3.2-1.6-6.4-1.6-9.6c0-1.6,0-1.6,0-3.2c-1.6-4.8-3.2-11.2-4.8-16
		c0-1.6,0-1.6-1.6-3.2c0-1.6,0-3.2-1.6-4.8c-6.4-8-8-17.6-9.6-27.2c-1.6-6.4-3.2-12.8-6.4-19.2c-1.6-4.8-4.8-9.6-4.8-14.4
		c0-1.6-1.6-3.2-1.6-4.8c-1.6-3.2,0-6.4-3.2-9.6v-1.6c0,0,0-1.6,1.6-1.6c0,0,1.6,0,1.6,1.6c0,4.8,4.8,8,4.8,12.8
		c0,3.2,3.2,4.8,3.2,8c1.6,8,6.4,14.4,8,22.4s4.8,14.4,8,20.8v1.6c1.6,6.4,3.2,11.2,6.4,17.6c1.6,4.8,3.2,9.6,4.8,14.4
		c0,1.6,1.6,4.8,1.6,6.4c3.2,8,4.8,16,8,24c1.6,3.2,1.6,8,3.2,11.2c3.2,6.4,6.4,14.4,9.6,20.8c1.6,3.2,1.6,6.4,3.2,9.6
		c1.6,4.8,4.8,9.6,6.4,16c0,1.6,1.6,1.6,1.6,1.6c1.6,0,1.6-1.6,1.6-3.2C1524.8,2075.2,1526.4,2075.2,1526.4,2073.6z"/>
	<path fill="#C6B324" d="M1070.4,2051.2c0-1.6,0-1.6,0-3.2c0-1.6,0-3.2-1.6-3.2c-3.2-6.4-6.4-14.4-9.6-20.8c-3.2-8-4.8-16-8-24v-1.6
		c0-4.8-1.6-8-4.8-12.8c-3.2-6.4-4.8-11.2-4.8-17.6c0-3.2-1.6-8-3.2-11.2c-3.2-4.8-6.4-9.6-8-14.4l0,0c-1.6-3.2,0-6.4-1.6-9.6
		s-3.2-4.8-3.2-8c0-1.6,0-1.6-1.6-3.2c-1.6-1.6-3.2-4.8-1.6-6.4v-1.6c0-4.8,0-9.6-6.4-9.6l-1.6-1.6c-1.6-3.2-3.2-4.8-6.4-6.4
		c0-3.2,0-4.8,0-8c1.6-4.8,0-11.2,1.6-16c0-1.6-1.6-1.6-1.6-3.2c0-1.6-3.2-1.6-1.6-3.2c1.6-1.6,3.2,0,4.8,0s1.6,0,3.2,1.6
		c1.6,1.6,3.2,1.6,4.8,0c3.2-3.2,4.8-4.8,8-8c4.8-6.4,9.6-11.2,14.4-17.6c6.4-6.4,12.8-12.8,19.2-20.8c3.2-3.2,4.8-6.4,8-9.6
		c0-1.6,1.6-1.6,1.6-1.6h1.6v1.6c-1.6,3.2-1.6,6.4-4.8,8c-1.6,1.6-3.2,1.6-3.2,3.2c0,3.2-3.2,6.4-4.8,8c-3.2,3.2-4.8,6.4-4.8,9.6
		c0,1.6-1.6,3.2-4.8,4.8c-3.2,3.2-8,6.4-8,11.2c0,1.6-1.6,3.2-3.2,4.8c-4.8,3.2-9.6,8-14.4,12.8c-1.6,3.2-3.2,6.4-1.6,11.2
		c0,6.4,3.2,11.2,4.8,17.6c1.6,4.8,3.2,8,4.8,12.8c1.6,4.8,3.2,8,4.8,12.8c1.6,4.8,3.2,8,6.4,12.8c1.6,4.8,3.2,8,4.8,12.8
		c1.6,3.2,1.6,6.4,3.2,9.6c3.2,8,6.4,16,9.6,24c1.6,6.4,3.2,12.8,4.8,19.2c1.6,3.2,3.2,8,4.8,11.2c1.6,1.6,1.6,4.8,3.2,6.4
		c1.6,9.6,6.4,19.2,9.6,28.8c3.2,8,6.4,16,8,24s6.4,14.4,8,22.4c3.2,8,4.8,14.4,6.4,22.4c0,1.6,0,3.2,0,3.2c0,1.6-1.6,1.6-3.2,1.6
		s-1.6-1.6-3.2-1.6c-3.2-6.4-6.4-12.8-9.6-20.8c0-1.6-1.6-4.8-1.6-6.4c-1.6-6.4-3.2-12.8-6.4-19.2v-1.6c0-6.4-4.8-11.2-6.4-16
		C1072,2057.6,1072,2054.4,1070.4,2051.2z"/>
	<path fill="#C6B324" d="M1161.6,1953.6c-1.6-1.6-3.2-3.2-4.8-4.8c-1.6-1.6-1.6-3.2,0-4.8c0-1.6,0-3.2,0-3.2c0-3.2-1.6-4.8-3.2-4.8
		c-3.2,0-4.8-1.6-4.8-4.8c0-1.6-1.6-4.8,0-8c0-3.2,0-8,0-11.2s-1.6-6.4-3.2-8s-1.6-4.8,0-6.4s3.2-1.6,3.2,0c1.6,3.2,3.2,6.4,3.2,8
		c3.2,6.4,6.4,8,11.2,1.6c4.8-4.8,8-9.6,8-17.6c0-1.6,1.6-3.2,3.2-4.8c1.6-1.6,3.2-3.2,4.8-3.2s3.2-1.6,4.8-3.2
		c3.2-3.2,4.8-6.4,8-11.2c1.6-3.2,3.2-4.8,6.4-6.4c1.6-1.6,3.2-4.8,3.2-6.4c0-1.6,1.6-3.2,3.2-3.2c4.8-3.2,9.6-6.4,11.2-11.2
		c1.6-1.6,1.6-3.2,3.2-4.8c1.6-1.6,3.2-3.2,3.2-4.8c0,0,0-1.6,1.6-1.6c1.6-1.6,1.6-3.2,3.2-3.2c1.6,1.6,1.6,3.2,1.6,4.8
		c0,3.2-1.6,4.8-4.8,6.4c-1.6,1.6-3.2,1.6-3.2,4.8c0,3.2-1.6,4.8-4.8,6.4c0,0-1.6,0-1.6,1.6c-1.6,4.8-6.4,8-6.4,12.8
		c0,1.6-1.6,3.2-3.2,4.8c-3.2,1.6-4.8,3.2-6.4,6.4c-4.8,6.4-11.2,14.4-14.4,22.4c-1.6,3.2-1.6,6.4,0,11.2c0,0,0,1.6,1.6,1.6
		c1.6,1.6,1.6,3.2,0,4.8c-1.6,1.6-3.2,1.6-4.8,1.6c-1.6,0-1.6,0-1.6-1.6c0-1.6-1.6-1.6-1.6-3.2c-1.6-3.2-3.2-3.2-6.4,0
		c-1.6,1.6-1.6,3.2-3.2,4.8c-1.6,3.2-4.8,6.4-6.4,9.6c-3.2,4.8-3.2,11.2-1.6,16c1.6,4.8,4.8,11.2,4.8,16c0,1.6,3.2,3.2,3.2,6.4
		c0,4.8,3.2,9.6,6.4,12.8c1.6,1.6,1.6,4.8,3.2,8s1.6,6.4,4.8,9.6c1.6,1.6,1.6,3.2,1.6,4.8c1.6,4.8,3.2,8,4.8,12.8
		c1.6,3.2,3.2,8,3.2,11.2c1.6,6.4,3.2,12.8,6.4,17.6c3.2,6.4,4.8,12.8,8,20.8c1.6,3.2,3.2,8,4.8,11.2c3.2,4.8,4.8,9.6,6.4,14.4
		c0,1.6,1.6,3.2,1.6,3.2c4.8,6.4,6.4,12.8,9.6,19.2c1.6,3.2,3.2,4.8,4.8,6.4c3.2,3.2,4.8,6.4,4.8,11.2c0,1.6,1.6,4.8,1.6,6.4
		c0,1.6,1.6,1.6,1.6,3.2c0,1.6,0,3.2-1.6,3.2s-1.6,0-3.2,0s-1.6-1.6-1.6-1.6c-1.6-6.4-3.2-9.6-4.8-9.6c-1.6-4.8-6.4-6.4-6.4-11.2
		c0-3.2-1.6-6.4-3.2-8c-1.6-1.6-3.2-4.8-4.8-6.4l0,0c1.6-4.8-3.2-8-3.2-11.2c0-1.6,0-3.2-3.2-4.8c-1.6,0-3.2-1.6-3.2-3.2
		c-1.6-3.2-3.2-4.8-3.2-8c0-1.6,0-3.2-1.6-4.8c-3.2-6.4-4.8-12.8-8-19.2c-1.6-1.6-1.6-3.2,0-4.8c1.6-3.2,1.6-4.8-1.6-4.8
		s-3.2-3.2-4.8-4.8c-1.6-3.2-1.6-6.4-3.2-9.6c-1.6-4.8-3.2-9.6-4.8-14.4c-1.6-6.4-4.8-11.2-6.4-17.6c0-1.6,0-3.2,0-4.8
		s0-3.2-1.6-3.2c-1.6-1.6-3.2-3.2-3.2-6.4c0-1.6-1.6-4.8,0-6.4c1.6-1.6,0-4.8-3.2-6.4c-1.6-1.6-1.6-1.6-3.2-3.2
		C1158.4,1958.4,1158.4,1956.8,1161.6,1953.6z"/>
	<path fill="#C6B324" d="M1433.6,2139.2c0,1.6,0,3.2-1.6,3.2s-1.6,0-3.2,0c-1.6-1.6-3.2-3.2-4.8-6.4c0-3.2-1.6-4.8-4.8-6.4
		c-1.6-1.6-1.6-3.2-3.2-4.8c-1.6-9.6-6.4-19.2-9.6-30.4c-1.6-4.8-3.2-9.6-4.8-14.4c-3.2-4.8-3.2-9.6-6.4-14.4
		c-1.6-3.2-1.6-6.4-3.2-9.6c-1.6-4.8-3.2-9.6-4.8-12.8c-3.2-8-6.4-16-8-24c0-1.6-1.6-3.2-1.6-4.8c-3.2-4.8-3.2-11.2-4.8-17.6
		c-3.2-6.4-4.8-12.8-8-19.2c-1.6-4.8-3.2-8-4.8-12.8c-1.6-4.8-3.2-9.6-4.8-12.8c-3.2-9.6-8-19.2-8-30.4c0-1.6,0-1.6,0-3.2
		c-3.2-4.8-3.2-11.2-4.8-16c0-1.6,0-3.2,1.6-3.2s3.2,0,3.2,1.6c4.8,16,11.2,30.4,16,46.4c3.2,9.6,6.4,20.8,11.2,30.4
		c3.2,8,6.4,16,8,24c3.2,9.6,6.4,19.2,9.6,27.2c3.2,6.4,4.8,12.8,6.4,19.2c3.2,6.4,4.8,14.4,8,20.8c1.6,1.6,1.6,3.2,1.6,6.4
		c0,1.6,1.6,3.2,1.6,4.8l1.6,1.6c1.6,6.4,4.8,11.2,6.4,17.6c3.2,8,6.4,16,8,25.6c1.6,4.8,3.2,9.6,4.8,12.8
		C1433.6,2136,1433.6,2137.6,1433.6,2139.2z"/>
	<path fill="#C6B324" d="M1017.6,2116.8c0,1.6,1.6,3.2-1.6,4.8c-3.2,0-3.2-1.6-4.8-3.2c-1.6-3.2-1.6-6.4-3.2-9.6
		c-1.6-4.8-1.6-11.2-4.8-16c0,0-1.6-1.6-1.6-3.2c0-4.8-1.6-8-4.8-11.2c-1.6-3.2-1.6-6.4-3.2-11.2c-1.6-4.8-4.8-9.6-4.8-16
		c0-1.6-1.6-3.2-3.2-6.4c0-1.6-1.6-3.2,0-6.4c0-1.6,0-3.2-1.6-3.2c-1.6-1.6-3.2-4.8-3.2-8c0-3.2-1.6-4.8-3.2-8
		c-1.6-4.8-3.2-8-4.8-12.8s-3.2-9.6-4.8-14.4c-1.6-4.8-3.2-9.6-4.8-16c0-1.6-1.6-4.8-3.2-6.4c-1.6-4.8-3.2-9.6-4.8-14.4
		c0-3.2-1.6-4.8-1.6-8c-1.6-3.2-3.2-6.4-3.2-9.6c0-1.6-1.6-3.2-1.6-4.8c-3.2-3.2-4.8-6.4-4.8-9.6c0-3.2-1.6-4.8-3.2-6.4
		c-3.2-4.8-3.2-9.6-6.4-14.4c0,0,0,0,0-1.6c3.2-6.4-1.6-9.6-4.8-12.8c-1.6-1.6-1.6-3.2,0-4.8c0-1.6,1.6-1.6,3.2,0
		c0,1.6,1.6,1.6,1.6,3.2c1.6,3.2,3.2,8,4.8,11.2c1.6,4.8,3.2,9.6,4.8,14.4c3.2,8,6.4,14.4,9.6,20.8c4.8,9.6,6.4,20.8,12.8,32
		c0,0,1.6,1.6,1.6,3.2c3.2,12.8,8,24,12.8,35.2c1.6,3.2,3.2,8,3.2,11.2c3.2,8,4.8,17.6,8,25.6c1.6,8,4.8,14.4,8,22.4
		c1.6,6.4,4.8,11.2,6.4,16c0,1.6,1.6,3.2,1.6,6.4c0,1.6,0,1.6,0,3.2c3.2,3.2,3.2,8,4.8,12.8
		C1014.4,2107.2,1017.6,2112,1017.6,2116.8z"/>
	<path fill="#C6B324" d="M1062.4,2128c0,1.6-1.6,3.2-3.2,3.2s-3.2,0-3.2-1.6c-3.2-8-8-17.6-12.8-25.6c-1.6-1.6-1.6-4.8,0-6.4
		c0-1.6,1.6-3.2-1.6-3.2c-1.6,0-1.6-1.6-1.6-3.2c0-1.6,0-3.2-1.6-6.4s-3.2-8-4.8-11.2c-1.6-6.4-3.2-11.2-6.4-16
		c-1.6-1.6-3.2-6.4-3.2-8c-1.6-4.8-1.6-8-4.8-11.2c-1.6-1.6-1.6-4.8-1.6-6.4c0-3.2-1.6-6.4-3.2-8c-3.2-4.8-4.8-9.6-6.4-14.4
		c0-3.2-1.6-4.8-1.6-8l0,0c-3.2-3.2-3.2-8-4.8-11.2c-3.2-4.8-4.8-11.2-6.4-17.6c-1.6-4.8-1.6-8-4.8-12.8c-3.2-3.2-4.8-8-6.4-12.8
		c0-3.2-1.6-4.8-3.2-8c-1.6-4.8-3.2-8-4.8-11.2c-3.2-3.2-1.6-8-3.2-12.8c0-1.6,0-1.6,1.6-3.2c1.6,0,1.6,0,3.2,1.6
		c1.6,1.6,3.2,4.8,3.2,6.4c1.6,4.8,3.2,8,4.8,11.2l0,0c1.6,6.4,6.4,12.8,8,20.8c0,1.6,1.6,3.2,1.6,4.8c4.8,6.4,6.4,12.8,9.6,19.2
		c1.6,4.8,3.2,9.6,6.4,12.8c1.6,3.2,1.6,4.8,3.2,8c1.6,8,4.8,14.4,6.4,20.8c3.2,11.2,9.6,20.8,12.8,30.4c3.2,9.6,8,17.6,11.2,25.6
		c0,0,0,0,0,1.6c1.6,8,6.4,17.6,8,25.6c1.6,6.4,4.8,12.8,8,20.8C1062.4,2124.8,1062.4,2126.4,1062.4,2128z"/>
	<path fill="#C6B324" d="M1600,2136c0,1.6,0,1.6,0,1.6v1.6h-1.6c-3.2-3.2-6.4-6.4-6.4-11.2c0-3.2-1.6-4.8-3.2-6.4
		c-3.2-8-6.4-14.4-8-22.4c-1.6-4.8-3.2-9.6-6.4-14.4c-4.8-11.2-9.6-20.8-11.2-33.6c-1.6-8-4.8-14.4-9.6-20.8
		c-3.2-4.8-6.4-11.2-9.6-17.6c-1.6-3.2-3.2-6.4-4.8-9.6c-3.2-8-8-16-11.2-24c0-1.6-1.6-3.2-1.6-4.8c0-1.6-1.6-1.6-1.6-3.2
		c-1.6-8-4.8-16-6.4-24c0-1.6-1.6-3.2-1.6-4.8l-1.6-1.6c-1.6-9.6-6.4-17.6-8-27.2c0-1.6-1.6-3.2-1.6-4.8v-1.6h1.6
		c1.6,0,1.6,1.6,3.2,3.2c3.2,6.4,6.4,12.8,8,19.2c3.2,8,4.8,16,8,24c3.2,9.6,8,17.6,11.2,27.2c3.2,8,8,16,11.2,24
		c3.2,6.4,6.4,11.2,9.6,16c1.6,3.2,3.2,6.4,4.8,11.2c0,1.6,0,1.6,1.6,3.2c3.2,3.2,4.8,9.6,6.4,14.4v1.6c4.8,9.6,6.4,19.2,11.2,28.8
		c1.6,4.8,3.2,11.2,6.4,16c1.6,1.6,1.6,3.2,1.6,6.4s1.6,6.4,3.2,8c1.6,3.2,3.2,8,4.8,12.8c1.6,3.2,3.2,6.4,3.2,9.6
		C1600,2134.4,1600,2136,1600,2136z"/>
	<path fill="#C6B324" d="M1452.8,2116.8v1.6c0,1.6-1.6,1.6-1.6,3.2c-1.6,0-1.6,0-3.2-1.6c0-1.6-1.6-1.6-1.6-3.2
		c-1.6-3.2-3.2-6.4-4.8-11.2c-3.2-4.8-3.2-11.2-4.8-17.6c-1.6-6.4-3.2-12.8-6.4-19.2c-3.2-4.8-4.8-11.2-6.4-16s-3.2-11.2-6.4-16
		c-1.6-3.2-1.6-6.4-3.2-9.6c-3.2-12.8-8-25.6-11.2-40c-1.6-4.8-3.2-8-4.8-11.2c-1.6-6.4-3.2-12.8-4.8-19.2c0-1.6-1.6-4.8-1.6-6.4
		c0,0,0-3.2,0-4.8c0-6.4-1.6-11.2-4.8-17.6c0-1.6-1.6-3.2-1.6-4.8c0-6.4-3.2-11.2-4.8-16c0-1.6-1.6-4.8-1.6-6.4
		c-1.6-1.6-1.6-4.8-1.6-6.4c0-1.6,0-3.2,1.6-3.2s1.6,1.6,3.2,1.6c1.6,3.2,1.6,4.8,3.2,8c1.6,4.8,3.2,9.6,4.8,12.8
		c3.2,8,4.8,16,6.4,22.4c3.2,9.6,4.8,19.2,8,27.2c1.6,8,4.8,16,6.4,24c1.6,4.8,3.2,9.6,4.8,12.8c1.6,6.4,4.8,12.8,6.4,20.8
		c0,3.2,1.6,4.8,3.2,8c1.6,4.8,3.2,8,3.2,12.8c0,3.2,1.6,6.4,3.2,9.6c1.6,1.6,1.6,3.2,3.2,6.4s1.6,6.4,3.2,9.6c0,0,0,1.6,1.6,3.2
		c1.6,8,6.4,16,8,25.6c1.6,3.2,1.6,4.8,1.6,8C1449.6,2107.2,1452.8,2112,1452.8,2116.8z"/>
	<path fill="#C6B324" d="M987.2,2115.2c0,1.6,0,1.6-1.6,3.2c-1.6,0-3.2,0-4.8-1.6s-3.2-3.2-3.2-6.4c0-1.6-1.6-4.8-3.2-6.4
		c-1.6-1.6-1.6-1.6-1.6-3.2c-1.6-4.8-1.6-11.2-4.8-16c-1.6-4.8-3.2-9.6-3.2-12.8v-1.6c3.2-1.6,0-3.2,0-4.8c-1.6-1.6-1.6-1.6-3.2-3.2
		c-1.6-1.6-1.6-3.2-1.6-4.8c1.6-1.6,0-3.2-1.6-4.8c-3.2-3.2-6.4-8-4.8-14.4c0-1.6,0-3.2-1.6-4.8c-3.2-3.2-4.8-6.4-4.8-11.2
		c0-1.6-1.6-3.2-1.6-4.8c-3.2-3.2-3.2-8-3.2-11.2c-1.6-3.2-3.2-6.4-1.6-9.6v-1.6c-1.6-1.6-3.2-3.2-1.6-4.8c0-1.6,0-1.6-1.6-3.2
		c-1.6-1.6-1.6-1.6-3.2-3.2c-3.2-8-6.4-16-8-24c0-1.6-1.6-3.2,0-4.8c1.6-1.6,0-3.2,0-3.2c-1.6-3.2-4.8-6.4-6.4-9.6
		c-3.2-4.8-4.8-9.6-4.8-14.4s-3.2-8-3.2-12.8c-1.6-3.2,0-4.8,1.6-8c1.6-1.6,1.6-1.6,3.2,0c0,0,0,1.6,1.6,1.6
		c3.2,9.6,6.4,17.6,8,27.2c0,1.6,1.6,3.2,1.6,4.8c4.8,11.2,8,22.4,12.8,35.2c3.2,9.6,6.4,17.6,9.6,27.2c0,3.2,1.6,6.4,3.2,9.6
		c3.2,6.4,4.8,12.8,6.4,19.2c1.6,4.8,3.2,9.6,6.4,14.4c3.2,11.2,8,20.8,11.2,32c3.2,8,4.8,14.4,8,22.4c1.6,4.8,3.2,9.6,4.8,14.4
		C987.2,2113.6,987.2,2115.2,987.2,2115.2z"/>
	<path fill="#C6B324" d="M1302.4,1908.8c1.6,4.8,4.8,8,6.4,12.8c1.6,3.2,1.6,4.8,3.2,8c0,3.2,1.6,4.8,3.2,8s3.2,6.4,3.2,9.6
		c0,1.6,1.6,3.2,3.2,6.4c3.2,4.8,4.8,9.6,6.4,14.4c3.2,8,4.8,14.4,8,22.4s6.4,17.6,8,27.2c0,1.6,0,1.6,0,3.2c0,3.2,0,6.4,3.2,8
		l1.6,1.6c1.6,6.4,4.8,12.8,6.4,20.8v1.6c4.8,11.2,6.4,22.4,9.6,33.6c1.6,6.4,4.8,11.2,6.4,17.6c0,0,1.6,1.6,0,1.6
		c-1.6,3.2,1.6,4.8,3.2,6.4c1.6,1.6,3.2,4.8,4.8,6.4c3.2,3.2,4.8,9.6,4.8,14.4c0,3.2-1.6,3.2-4.8,3.2c-1.6,0-3.2-1.6-3.2-3.2
		c-1.6-3.2-3.2-8-6.4-11.2c0-1.6-1.6-3.2-1.6-4.8c0-3.2-1.6-4.8-3.2-8s-3.2-6.4-4.8-8c0-1.6,0-1.6,0-3.2c0-1.6,0-3.2-1.6-3.2
		c-1.6-1.6-1.6-1.6-1.6-3.2c0-3.2-1.6-6.4-3.2-9.6c-3.2-4.8-1.6-11.2-3.2-16c-1.6-6.4-3.2-12.8-6.4-19.2c-1.6-3.2-1.6-6.4-3.2-11.2
		c0-1.6,0-3.2-1.6-3.2c-3.2-3.2-3.2-8-4.8-12.8c0-3.2-1.6-4.8-3.2-8c-3.2-8-3.2-16-8-24c0,0,0-1.6,0-3.2c0-6.4-1.6-11.2-4.8-16l0,0
		c0-6.4-4.8-11.2-6.4-17.6c0-3.2-3.2-6.4-4.8-9.6c0-1.6-1.6-3.2-1.6-4.8c0-3.2-1.6-4.8-3.2-8c-3.2-4.8-4.8-11.2-4.8-16
		C1299.2,1910.4,1299.2,1910.4,1302.4,1908.8z"/>
	<path fill="#C6B324" d="M1272,1945.6c0,3.2,1.6,4.8,3.2,6.4c1.6,1.6,3.2,4.8,3.2,8c0,1.6,0,1.6,1.6,1.6l1.6,1.6
		c1.6,6.4,6.4,12.8,8,20.8s6.4,14.4,9.6,20.8c1.6,3.2,3.2,8,3.2,11.2c1.6,4.8,3.2,9.6,4.8,14.4c4.8,11.2,11.2,22.4,14.4,35.2
		c0,1.6,1.6,3.2,1.6,3.2c1.6,1.6,1.6,3.2,1.6,3.2c1.6,4.8,4.8,9.6,8,14.4c1.6,1.6,1.6,4.8,3.2,6.4c1.6,3.2,1.6,6.4,4.8,9.6
		c1.6,1.6,1.6,3.2,0,4.8c-1.6,1.6-3.2,1.6-4.8,0c-1.6-1.6-3.2-3.2-3.2-4.8c-3.2-8-6.4-16-11.2-24c-1.6-3.2-1.6-6.4-3.2-8
		c-3.2-8-8-16-11.2-24l0,0c-1.6-6.4-4.8-11.2-8-17.6c-1.6-3.2-3.2-6.4-3.2-11.2c0-4.8-3.2-6.4-4.8-11.2c-1.6-3.2-3.2-8-3.2-12.8
		c0-1.6,0-3.2-1.6-4.8s-3.2-3.2-3.2-6.4c0-4.8-1.6-8-4.8-12.8c-1.6-3.2-3.2-6.4-3.2-9.6c0-1.6,0-3.2,0-3.2c-3.2-3.2-3.2-6.4-4.8-9.6
		C1270.4,1950.4,1270.4,1948.8,1272,1945.6z"/>
	<path fill="#C6B324" d="M1425.6,1940.8c4.8,6.4,8,14.4,8,22.4c0,1.6,1.6,3.2,3.2,4.8c3.2,3.2,4.8,8,4.8,12.8c0,3.2,1.6,4.8,3.2,8
		v1.6c1.6,11.2,8,22.4,9.6,33.6c1.6,9.6,6.4,19.2,9.6,27.2c0,1.6,1.6,3.2,1.6,6.4c0,1.6,0,4.8,1.6,6.4c1.6,3.2,1.6,4.8,3.2,8
		c3.2,4.8,4.8,9.6,6.4,16s4.8,12.8,6.4,20.8c0,1.6,1.6,3.2-1.6,4.8c-1.6,0-3.2-1.6-4.8-3.2c-3.2-8-6.4-16-9.6-24c0-1.6,0-1.6,0-3.2
		c0-6.4-3.2-11.2-4.8-17.6c-1.6-4.8-3.2-8-3.2-12.8c-1.6-8-4.8-14.4-8-22.4c-1.6-6.4-4.8-12.8-4.8-20.8c-1.6-4.8-1.6-8-4.8-12.8
		c-1.6-1.6-1.6-4.8-3.2-8c-1.6-4.8-1.6-11.2-3.2-16c0-3.2-1.6-4.8-3.2-8c-1.6-3.2-3.2-4.8-1.6-8c0-1.6,0-1.6-1.6-3.2
		s-3.2-4.8-4.8-6.4C1424,1947.2,1425.6,1944,1425.6,1940.8z"/>
	<path fill="#C6B324" d="M1312,2116.8c0,1.6,0,1.6-1.6,3.2c-1.6,0-1.6,0-1.6-1.6c-3.2-6.4-8-11.2-11.2-17.6c0-1.6-1.6-1.6-1.6-3.2
		c0-6.4-3.2-11.2-6.4-16c-1.6-3.2-3.2-8-4.8-11.2c-4.8-6.4-6.4-14.4-11.2-20.8v-1.6c-1.6-6.4-3.2-11.2-6.4-16
		c-3.2-4.8-3.2-9.6-6.4-14.4c-3.2-9.6-6.4-19.2-12.8-28.8c-1.6-3.2-3.2-4.8-3.2-8c0-1.6,0-1.6-1.6-3.2c0,0-1.6-1.6,0-3.2
		c0-1.6,1.6-3.2,3.2-3.2s1.6,1.6,3.2,3.2c0,3.2,3.2,6.4,3.2,11.2v1.6c4.8,6.4,6.4,14.4,9.6,20.8c1.6,3.2,3.2,6.4,3.2,8
		c1.6,8,6.4,14.4,9.6,24c0,1.6,0,1.6,1.6,3.2c4.8,8,8,16,11.2,24c0,1.6,0,1.6,1.6,3.2c1.6,3.2,1.6,6.4,4.8,9.6
		c1.6,1.6,1.6,3.2,1.6,4.8c0,3.2,1.6,4.8,3.2,6.4c1.6,1.6,1.6,3.2,1.6,4.8s0,1.6,1.6,3.2c4.8,4.8,4.8,11.2,8,17.6
		C1310.4,2115.2,1312,2115.2,1312,2116.8z"/>
	<path fill="#C6B324" d="M974.4,1908.8c-6.4-1.6-6.4-8-8-11.2c0-1.6,0-3.2-1.6-3.2c-1.6-1.6-1.6-4.8-1.6-8c0-3.2,0-6.4-1.6-9.6
		c0-1.6,0-1.6,0-3.2c1.6,0,1.6,0,3.2,1.6c0,0,0,1.6,1.6,1.6c1.6,3.2,3.2,3.2,4.8,0s4.8-6.4,6.4-9.6c3.2-3.2,4.8-8,8-11.2
		c3.2-3.2,6.4-8,9.6-11.2c1.6-3.2,4.8-6.4,4.8-11.2c0-1.6,1.6-3.2,3.2-3.2c1.6,0,3.2,0,3.2,0c1.6,0,3.2-1.6,4.8-4.8
		c0-3.2,3.2-4.8,4.8-6.4c1.6-1.6,1.6,0,3.2,1.6c0,3.2,0,4.8-1.6,6.4c-6.4,6.4-9.6,12.8-14.4,20.8c-1.6,1.6-3.2,3.2-6.4,4.8
		c-3.2,1.6-4.8,4.8-8,8c-3.2,4.8-4.8,8-9.6,12.8c-3.2,3.2-4.8,6.4-6.4,11.2c0,1.6-1.6,3.2-1.6,4.8c-3.2,3.2-3.2,6.4-1.6,11.2
		C974.4,1902.4,974.4,1905.6,974.4,1908.8z"/>
	<path fill="#C6B324" d="M1150.4,2025.6c-1.6-1.6-3.2-1.6-4.8-4.8c0-1.6-1.6-3.2,1.6-3.2c0,0,1.6,0,1.6-1.6c0,0,0-1.6-1.6-1.6
		c-3.2,0-3.2-1.6-4.8-4.8c0-3.2-1.6-4.8,0-8v-1.6c-3.2-4.8-1.6-9.6-4.8-14.4v-1.6c-1.6-1.6-3.2-3.2-1.6-6.4
		c-1.6-3.2-1.6-6.4-3.2-9.6c-1.6-1.6-1.6-3.2-3.2-4.8c0-1.6,0-3.2-3.2-3.2c-1.6,0-3.2-4.8-1.6-4.8c3.2-4.8,0-8,0-12.8
		c0-1.6-1.6-1.6-1.6-3.2c0,0,0-1.6,1.6-1.6c0,0,1.6,0,1.6,1.6c1.6,1.6,1.6,4.8,3.2,6.4c0,3.2,3.2,8,4.8,11.2
		c3.2,6.4,4.8,14.4,6.4,22.4c1.6,1.6,1.6,4.8,3.2,6.4c1.6,3.2,3.2,8,3.2,11.2c1.6,4.8,3.2,8,4.8,12.8c1.6,3.2,3.2,8,3.2,12.8
		c0,1.6,1.6,3.2,1.6,4.8c0,1.6,1.6,1.6,1.6,3.2c1.6,6.4,4.8,12.8,6.4,20.8c0,4.8,3.2,8,4.8,12.8c0,1.6,1.6,3.2,1.6,4.8
		c1.6,3.2,0,3.2-3.2,4.8s-3.2,0-4.8-1.6c0-4.8-3.2-9.6-4.8-14.4c0-1.6,0-3.2,0-3.2c1.6-1.6,1.6-4.8-1.6-6.4
		c-4.8-1.6-4.8-4.8-4.8-9.6c0-3.2-1.6-4.8-1.6-6.4C1148.8,2032,1148.8,2028.8,1150.4,2025.6z"/>
	<path fill="#C6B324" d="M944,1876.8c0-3.2,1.6-6.4,3.2-8c3.2-6.4,6.4-11.2,11.2-14.4c1.6-1.6,1.6-1.6,3.2-1.6
		c1.6-1.6,3.2-1.6,3.2-3.2c3.2-4.8,6.4-8,11.2-11.2c1.6-1.6,3.2-4.8,4.8-6.4c0-1.6,1.6-1.6,1.6-3.2c1.6-1.6,3.2-1.6,3.2,0
		c1.6,3.2,1.6,4.8-1.6,6.4c-3.2,3.2-4.8,8-8,11.2c-1.6,3.2-4.8,6.4-6.4,8c-3.2,3.2-8,8-6.4,14.4c0,1.6-1.6,3.2-3.2,4.8
		c-3.2,1.6-6.4,3.2-8,4.8c-1.6,1.6-1.6,1.6-1.6,3.2s0,1.6-1.6,1.6s-1.6-1.6-1.6-1.6C944,1878.4,944,1878.4,944,1876.8z"/>
	<path fill="#C6B324" d="M1264,2116.8c-6.4,0-8-4.8-9.6-8c0-1.6-1.6-3.2-3.2-4.8l-1.6-1.6c-1.6-8-6.4-14.4-8-22.4
		c0-1.6-1.6-4.8-1.6-6.4c0-3.2,0-8-1.6-11.2v-1.6c0-1.6,0-3.2,1.6-4.8c1.6,0,3.2,1.6,3.2,3.2c1.6,4.8,4.8,9.6,4.8,14.4
		c0,6.4,3.2,12.8,6.4,17.6c0,1.6,1.6,1.6,1.6,3.2c1.6,4.8,4.8,9.6,6.4,16C1262.4,2112,1264,2115.2,1264,2116.8z"/>
	<path fill="#C6B324" d="M1217.6,1896c3.2,4.8,6.4,8,6.4,14.4s3.2,11.2,4.8,16c1.6,4.8,3.2,9.6,4.8,14.4c1.6,4.8,4.8,8,4.8,12.8
		c1.6,3.2,1.6,6.4,3.2,9.6v1.6c0,1.6,1.6,3.2-1.6,4.8c-1.6,0-4.8-1.6-4.8-3.2l0,0c0-8-4.8-12.8-8-20.8c0-1.6,0-1.6-1.6-3.2
		c0-1.6,0-3.2-1.6-3.2c-1.6-3.2-3.2-8-3.2-12.8v-1.6c-3.2-4.8-4.8-9.6-6.4-14.4C1217.6,1905.6,1216,1900.8,1217.6,1896z"/>
	<path fill="#C6B324" d="M174.4,2032v-1.6c0-1.6,1.6-1.6,3.2,0c0,0,0,0,0,1.6c1.6,4.8,4.8,8,4.8,12.8c0,1.6,1.6,3.2,1.6,4.8
		c4.8,4.8,6.4,12.8,8,17.6c1.6,3.2,3.2,4.8,4.8,6.4c1.6,1.6,1.6,3.2,1.6,4.8c-1.6,1.6,0,1.6,0,3.2c1.6,1.6,1.6,1.6,3.2,3.2l1.6,1.6
		c1.6,3.2,1.6,8,3.2,11.2v1.6c0,0,0,1.6-1.6,1.6s-1.6,0-1.6-1.6c-1.6-6.4-6.4-12.8-8-19.2c0-1.6-1.6-4.8-3.2-6.4
		c-1.6-3.2-3.2-6.4-3.2-8c0-3.2-1.6-4.8-3.2-8c-3.2-3.2-3.2-6.4-4.8-9.6c-3.2-4.8-4.8-9.6-8-14.4
		C174.4,2033.6,174.4,2033.6,174.4,2032z"/>
	<path fill="#C6B324" d="M246.4,2024c1.6-1.6,1.6-3.2,3.2-4.8c3.2,3.2,3.2,8,4.8,11.2c0,1.6,1.6,3.2,3.2,4.8
		c1.6,1.6,1.6,3.2,1.6,4.8s0,1.6,0,3.2c3.2,3.2,0,4.8-1.6,6.4c-1.6,1.6-3.2,1.6-3.2,0c-1.6-8-6.4-14.4-9.6-22.4c0,0,0,0,0-1.6
		c0-1.6-1.6-3.2,0-4.8C244.8,2019.2,244.8,2022.4,246.4,2024z M249.6,2035.2c3.2-3.2,3.2-3.2,0-4.8c-1.6,0-1.6-1.6-3.2-1.6
		C249.6,2030.4,249.6,2033.6,249.6,2035.2z M252.8,2040L252.8,2040C252.8,2041.6,252.8,2041.6,252.8,2040
		C252.8,2041.6,254.4,2040,252.8,2040L252.8,2040z"/>
	<path fill="#C6B324" d="M1179.2,2105.6c0,1.6,0,1.6,0,3.2c0,1.6,0,3.2-1.6,3.2s-3.2,0-3.2-1.6c-1.6-1.6-1.6-3.2-3.2-4.8
		c-1.6-3.2-1.6-8-1.6-11.2v-1.6c0-1.6,1.6-3.2,3.2-1.6c3.2,1.6,6.4,6.4,6.4,11.2C1179.2,2102.4,1179.2,2104,1179.2,2105.6z"/>
	<path fill="#C6B324" d="M318.4,2081.6c-3.2-3.2-3.2-6.4-4.8-9.6c0-1.6-1.6-3.2-3.2-3.2c-1.6-1.6-3.2-3.2-3.2-4.8s-1.6-4.8-1.6-6.4
		c-1.6-3.2-1.6-6.4-1.6-9.6c3.2,3.2,8,1.6,9.6,6.4c0,1.6-3.2,1.6-3.2,3.2c0,1.6,1.6,1.6,3.2,1.6c3.2,0,3.2,1.6,3.2,3.2
		c0,1.6,0,3.2-1.6,3.2c-1.6,3.2-1.6,4.8,0,6.4s1.6,1.6,1.6,3.2C318.4,2076.8,318.4,2076.8,318.4,2081.6z"/>
	<path fill="#C6B324" d="M1404.8,1881.6c3.2,1.6,3.2,3.2,3.2,6.4c0,1.6,1.6,3.2,1.6,4.8c1.6,1.6,3.2,3.2,3.2,6.4
		c1.6,3.2,1.6,8,3.2,11.2c0,1.6,1.6,4.8,3.2,6.4c1.6,1.6,1.6,4.8,1.6,6.4s0,1.6-1.6,1.6h-1.6c-1.6-1.6-1.6-3.2-1.6-4.8
		c0-1.6-1.6-4.8-1.6-6.4v-1.6c-4.8-4.8-4.8-11.2-6.4-17.6c0-1.6,0-3.2-1.6-3.2C1403.2,1888,1403.2,1886.4,1404.8,1881.6z"/>
	<path fill="#C6B324" d="M291.2,2003.2c4.8,4.8,6.4,12.8,9.6,19.2v1.6c-1.6,0-3.2,1.6-4.8,3.2c-3.2-8-6.4-14.4-9.6-22.4
		c1.6-1.6,1.6,0,3.2,0C289.6,2004.8,291.2,2004.8,291.2,2003.2L291.2,2003.2z M294.4,2012.8C292.8,2014.4,292.8,2014.4,294.4,2012.8
		c0,3.2,0,3.2,1.6,3.2c0,0,0,0,0-1.6C296,2014.4,296,2014.4,294.4,2012.8z M289.6,2009.6L289.6,2009.6c1.6,0,1.6,0,1.6,0
		C291.2,2008,291.2,2008,289.6,2009.6C289.6,2008,289.6,2009.6,289.6,2009.6z"/>
	<path fill="#C6B324" d="M28.8,1883.2c-3.2,0-3.2,0-4.8,4.8c-1.6-3.2-1.6-4.8-3.2-6.4s-1.6-4.8-3.2-4.8c0-1.6-1.6-4.8,0-6.4
		c0-1.6,0-3.2,0-4.8c4.8,0,6.4,0,8,4.8C25.6,1873.6,27.2,1878.4,28.8,1883.2z"/>
	<path fill="#C6B324" d="M1480,1920c4.8,8,4.8,16,9.6,22.4c1.6,3.2,1.6,6.4,3.2,9.6v1.6c0,0,0,1.6-1.6,1.6s-1.6,0-1.6-1.6
		c-1.6-4.8-4.8-8-4.8-14.4c0-1.6,0-1.6-1.6-3.2C1480,1934.4,1478.4,1928,1480,1920z"/>
	<path fill="#C6B324" d="M1252.8,1896c1.6,0,1.6,1.6,3.2,3.2c1.6,3.2,3.2,6.4,3.2,9.6s1.6,6.4,3.2,9.6c0,1.6,1.6,1.6,0,3.2
		c-1.6,0-1.6,0-3.2-1.6l-1.6-1.6c-1.6-3.2-1.6-6.4-4.8-9.6v-1.6c0-3.2,0-6.4-1.6-8C1251.2,1896,1251.2,1896,1252.8,1896z"/>
	<path fill="#C6B324" d="M1235.2,2040c0,1.6,0,1.6-1.6,1.6c-1.6-1.6-3.2-1.6-4.8-1.6c0,0-1.6,0-1.6-1.6s-1.6-3.2-1.6-3.2
		c-1.6-1.6-1.6-4.8,1.6-4.8l0,0c0,0,0-3.2,1.6-3.2s1.6,1.6,3.2,3.2C1233.6,2032,1235.2,2035.2,1235.2,2040z"/>
	<path fill="#C6B324" d="M246.4,2014.4c-3.2-1.6-4.8,0-4.8,3.2c-4.8-3.2-6.4-8-6.4-12.8c1.6,0,1.6,0,1.6,1.6l1.6,1.6
		c1.6-1.6-1.6-4.8,0-6.4C241.6,2003.2,244.8,2009.6,246.4,2014.4z"/>
	<path fill="#C6B324" d="M337.6,1830.4c0,1.6-1.6,1.6-1.6,3.2c-1.6,0-1.6,0-1.6-1.6c-3.2-4.8-3.2-9.6-6.4-14.4l0,0h1.6
		c1.6,1.6,4.8,3.2,6.4,4.8S336,1828.8,337.6,1830.4z"/>
	<path fill="#C6B324" d="M1222.4,2008c3.2,3.2,4.8,8,6.4,12.8c0,1.6,0,1.6,0,3.2c-1.6,0-1.6,0-1.6-1.6c-1.6-1.6-4.8-3.2-6.4-4.8
		c0-1.6-1.6-3.2,0-3.2C1222.4,2011.2,1220.8,2009.6,1222.4,2008z"/>
	<path fill="#C6B324" d="M1195.2,1953.6c0-1.6,0-3.2,1.6-3.2s3.2,0,3.2,1.6c1.6,3.2,4.8,6.4,4.8,11.2c0,1.6,0,1.6-1.6,1.6
		C1200,1963.2,1195.2,1958.4,1195.2,1953.6z"/>
	<path fill="#C6B324" d="M342.4,2118.4c1.6,3.2,3.2,6.4,4.8,9.6c1.6,1.6,0,3.2-1.6,3.2c-4.8,1.6-6.4,1.6-8-1.6c0-1.6,0-1.6,0-3.2
		c3.2,0,1.6-1.6,1.6-3.2C337.6,2121.6,340.8,2120,342.4,2118.4z"/>
	<path fill="#C6B324" d="M1262.4,1926.4c6.4,3.2,8,8,8,12.8c0,1.6,0,1.6-1.6,1.6s-1.6,0-3.2,0c-1.6-1.6-1.6-3.2-3.2-4.8
		C1264,1932.8,1262.4,1929.6,1262.4,1926.4z"/>
	<path fill="#C6B324" d="M280,2100.8c1.6,0,3.2,1.6,3.2-1.6c0-1.6,0-3.2-1.6-6.4c3.2,1.6,4.8,3.2,6.4,4.8c0,1.6,0,3.2,1.6,6.4
		c0,1.6-1.6,3.2-3.2,3.2C281.6,2107.2,280,2105.6,280,2100.8z"/>
	<path fill="#C6B324" d="M1212.8,1984c-1.6,0-1.6,0-1.6,0c-3.2-1.6-6.4-11.2-6.4-14.4c0,0,0-1.6,1.6-1.6s1.6,0,1.6,1.6
		C1209.6,1972.8,1211.2,1977.6,1212.8,1984z"/>
	<path fill="#C6B324" d="M211.2,1814.4c0,3.2,3.2,6.4,3.2,9.6c0,1.6,1.6,3.2-1.6,3.2c-1.6,0-4.8-1.6-4.8-3.2c0-1.6,0-4.8,0-6.4
		C208,1816,209.6,1814.4,211.2,1814.4z"/>
	<path fill="#C6B324" d="M1211.2,1884.8c0-1.6,0-1.6,1.6-1.6s1.6,0,3.2,1.6c1.6,1.6,1.6,4.8,3.2,6.4c0,1.6,0,1.6-1.6,3.2
		c-1.6,0-3.2,0-3.2-1.6C1211.2,1889.6,1211.2,1888,1211.2,1884.8z"/>
	<path fill="#C6B324" d="M1372.8,1876.8c3.2,0,3.2,0,3.2,3.2c0,1.6,0,3.2,1.6,3.2v1.6h-1.6c-1.6,0-3.2-1.6-4.8-3.2
		c-1.6-1.6-1.6-1.6-1.6-3.2C1369.6,1876.8,1371.2,1876.8,1372.8,1876.8z"/>
	<path fill="#C6B324" d="M1190.4,1929.6c1.6,0,1.6,0,1.6,0c1.6,3.2,3.2,8,4.8,12.8c0,1.6,0,1.6-1.6,3.2c-1.6,0-3.2,0-1.6-1.6
		c0-3.2-1.6-4.8-3.2-8C1190.4,1932.8,1190.4,1931.2,1190.4,1929.6z"/>
	<path fill="#C6B324" d="M326.4,2100.8c3.2,3.2,4.8,8,6.4,12.8c0,0,1.6,1.6,0,3.2c-1.6,0-3.2,0-3.2-1.6c0-1.6,0-3.2-1.6-4.8
		C326.4,2107.2,328,2104,326.4,2100.8z"/>
	<path fill="#C6B324" d="M313.6,1809.6c1.6,0,1.6,1.6,1.6,3.2c-1.6,3.2-4.8,4.8-8,6.4c0,0-1.6,0-1.6-1.6
		C307.2,1814.4,312,1809.6,313.6,1809.6L313.6,1809.6z"/>
	<path fill="#C6B324" d="M195.2,2057.6c-1.6-1.6-3.2-3.2-3.2-4.8c-1.6-3.2-3.2-4.8-4.8-8l-1.6-1.6c0-1.6,0-1.6,0-1.6
		c1.6,0,1.6,0,1.6,1.6C192,2048,193.6,2052.8,195.2,2057.6z"/>
	<path fill="#C6B324" d="M1473.6,1910.4v-1.6c0-1.6,1.6-1.6,1.6,0c1.6,1.6,3.2,4.8,3.2,8c0,1.6,0,1.6-1.6,1.6h-1.6
		C1475.2,1913.6,1473.6,1912,1473.6,1910.4z"/>
	<path fill="#C6B324" d="M1217.6,1993.6c0,1.6-1.6,1.6-3.2,1.6s-3.2-1.6-3.2-3.2c0-1.6,1.6-3.2,3.2-3.2
		C1216,1988.8,1217.6,1990.4,1217.6,1993.6z"/>
	<path fill="#C6B324" d="M1492.8,1966.4c0-1.6,0-1.6,1.6-3.2c1.6,0,1.6,0,3.2,1.6v1.6c0,1.6,1.6,3.2,0,3.2
		C1494.4,1971.2,1492.8,1969.6,1492.8,1966.4L1492.8,1966.4z"/>
	<path fill="#C6B324" d="M1059.2,1852.8c0,1.6,0,1.6-1.6,1.6s-3.2-1.6-3.2-3.2c0-1.6,1.6-3.2,3.2-3.2
		C1057.6,1848,1059.2,1849.6,1059.2,1852.8z"/>
	<path fill="#C6B324" d="M118.4,1833.6c0-1.6,1.6-1.6,1.6,0c1.6,1.6,3.2,3.2,3.2,6.4c0,1.6,0,1.6-1.6,1.6s-1.6,0-1.6-1.6
		C121.6,1836.8,120,1836.8,118.4,1833.6z"/>
	<path fill="#C6B324" d="M1499.2,1897.6c3.2,1.6,4.8,3.2,4.8,8C1500.8,1904,1499.2,1900.8,1499.2,1897.6z"/>
	<path fill="#C6B324" d="M262.4,2052.8c1.6,1.6,1.6,1.6,1.6,3.2s-1.6,1.6-1.6,1.6C260.8,2056,260.8,2054.4,262.4,2052.8
		C260.8,2052.8,262.4,2052.8,262.4,2052.8z"/>
	<path fill="#C6B324" d="M182.4,2032c1.6,1.6,3.2,3.2,3.2,4.8v1.6c-1.6,0-1.6,0-1.6-1.6C184,2035.2,182.4,2033.6,182.4,2032z"/>
	<path fill="#C6B324" d="M814.4,1836.8C814.4,1835.2,814.4,1835.2,814.4,1836.8c3.2-1.6,3.2,0,3.2,1.6c0,1.6,0,1.6-1.6,1.6
		C814.4,1838.4,814.4,1836.8,814.4,1836.8z"/>
	<path fill="#C6B324" d="M1422.4,1928c1.6,1.6,1.6,3.2,1.6,4.8C1420.8,1931.2,1420.8,1931.2,1422.4,1928z"/>
	<path fill="#C6B324" d="M256,2054.4c3.2,1.6,3.2,3.2,3.2,4.8C259.2,2057.6,257.6,2056,256,2054.4z"/>
	<path fill="#C6B324" d="M436.8,1984c3.2,1.6,3.2,3.2,4.8,6.4l0,0C436.8,1988.8,436.8,1985.6,436.8,1984L436.8,1984z"/>
	<path fill="#C6B324" d="M465.6,1950.4c-1.6-3.2-1.6-4.8-3.2-6.4C465.6,1945.6,465.6,1945.6,465.6,1950.4z"/>
	<path fill="#C6B324" d="M308.8,2043.2c1.6,1.6,1.6,3.2,0,4.8c0,0,0,0-1.6,0C307.2,2044.8,308.8,2044.8,308.8,2043.2z"/>
	<path fill="#C6B324" d="M304,2043.2C304,2044.8,304,2044.8,304,2043.2c-1.6,1.6-3.2,0-3.2,0s0-1.6,1.6-1.6
		C304,2041.6,304,2043.2,304,2043.2z"/>
	<path fill="#C6B324" d="M272,2086.4c1.6,0,1.6,1.6,1.6,3.2c0,0,0,1.6-1.6,1.6c0,0,0,0-1.6-1.6C272,2088,272,2088,272,2086.4z"/>
	<path fill="#C6B324" d="M1281.6,1868.8c0-1.6,1.6-1.6,1.6-1.6s1.6,0,1.6,1.6C1284.8,1870.4,1284.8,1870.4,1281.6,1868.8
		C1283.2,1870.4,1281.6,1870.4,1281.6,1868.8z"/>
	<path fill="#C6B324" d="M457.6,1934.4c1.6,0,1.6,1.6,3.2,4.8C457.6,1937.6,459.2,1936,457.6,1934.4z"/>
	<path fill="#C6B324" d="M233.6,1996.8L233.6,1996.8c-1.6,0-3.2,0-3.2-1.6c0,0,0-1.6,1.6,0C233.6,1995.2,233.6,1995.2,233.6,1996.8z
		"/>
	<path fill="#C6B324" d="M516.8,1809.6c0-1.6,1.6-1.6,1.6-1.6h1.6C520,1809.6,520,1809.6,516.8,1809.6
		C518.4,1809.6,516.8,1809.6,516.8,1809.6z"/>
	<path fill="#C6B324" d="M491.2,2097.6c1.6,0,1.6,1.6,1.6,3.2C491.2,2099.2,491.2,2099.2,491.2,2097.6z"/>
	<path fill="#C6B324" d="M912,1899.2c1.6,0,1.6,1.6,0,1.6c0,0,0,1.6-1.6,0C910.4,1900.8,910.4,1900.8,912,1899.2
		C910.4,1899.2,910.4,1899.2,912,1899.2z"/>
	<path fill="#C6B324" d="M246.4,2100.8c0,1.6,1.6,3.2,1.6,4.8C246.4,2104,246.4,2104,246.4,2100.8L246.4,2100.8z"/>
	<path fill="#C6B324" d="M483.2,2081.6c0,1.6,1.6,3.2,1.6,4.8l0,0h-1.6C483.2,2083.2,483.2,2081.6,483.2,2081.6L483.2,2081.6z"/>
	<path fill="#C6B324" d="M211.2,1830.4C212.8,1830.4,212.8,1830.4,211.2,1830.4c1.6,1.6,1.6,1.6,0,1.6S211.2,1832,211.2,1830.4
		L211.2,1830.4z"/>
	<path fill="#C6B324" d="M238.4,1992C238.4,1993.6,238.4,1993.6,238.4,1992C236.8,1993.6,236.8,1993.6,238.4,1992
		C236.8,1992,236.8,1992,238.4,1992L238.4,1992z"/>
	<path fill="#C6B324" d="M440,1990.4c0,1.6,1.6,1.6,1.6,4.8C440,1993.6,440,1992,440,1990.4L440,1990.4z"/>
	<path fill="#C6B324" d="M265.6,2070.4C267.2,2070.4,267.2,2072,265.6,2070.4c1.6,1.6,0,1.6,0,1.6
		C265.6,2073.6,265.6,2072,265.6,2070.4C265.6,2072,265.6,2070.4,265.6,2070.4z"/>
	<path fill="#C6B324" d="M892.8,1848C894.4,1848,894.4,1848,892.8,1848c0,1.6,0,1.6,0,1.6V1848C892.8,1848,892.8,1846.4,892.8,1848z
		"/>
	<path fill="#C6B324" d="M907.2,1884.8L907.2,1884.8c-1.6,0-1.6,0-1.6,0C905.6,1884.8,905.6,1883.2,907.2,1884.8
		C907.2,1883.2,907.2,1884.8,907.2,1884.8z"/>
	<path fill="#C6B324" d="M262.4,2064L262.4,2064C262.4,2065.6,262.4,2065.6,262.4,2064C260.8,2065.6,260.8,2065.6,262.4,2064
		C260.8,2064,262.4,2064,262.4,2064z"/>
	<path fill="#C6B324" d="M272,2070.4L272,2070.4C272,2072,272,2072,272,2070.4C270.4,2070.4,270.4,2070.4,272,2070.4
		C270.4,2070.4,272,2070.4,272,2070.4z"/>
	<path fill="#C6B324" d="M1171.2,2081.6C1172.8,2081.6,1172.8,2081.6,1171.2,2081.6C1172.8,2083.2,1172.8,2083.2,1171.2,2081.6
		C1171.2,2083.2,1171.2,2081.6,1171.2,2081.6L1171.2,2081.6z"/>
	<path fill="#C6B324" d="M276.8,2097.6L276.8,2097.6C278.4,2096,278.4,2097.6,276.8,2097.6C278.4,2097.6,278.4,2097.6,276.8,2097.6
		C276.8,2099.2,276.8,2097.6,276.8,2097.6z"/>
	<path fill="#C6B324" d="M291.2,2003.2c0-1.6-1.6-1.6-1.6-3.2C291.2,2000,291.2,2001.6,291.2,2003.2L291.2,2003.2z"/>
	<path fill="#C6B324" d="M19.2,1860.8L19.2,1860.8C20.8,1860.8,20.8,1860.8,19.2,1860.8C20.8,1862.4,20.8,1862.4,19.2,1860.8
		C19.2,1862.4,19.2,1860.8,19.2,1860.8z"/>
	<path fill="#C6B324" d="M227.2,2064L227.2,2064c0-1.6-1.6-1.6-1.6-1.6C227.2,2062.4,227.2,2062.4,227.2,2064L227.2,2064L227.2,2064
		z"/>
	<path fill="#C6B324" d="M268.8,2067.2C268.8,2065.6,268.8,2065.6,268.8,2067.2C268.8,2065.6,268.8,2065.6,268.8,2067.2
		L268.8,2067.2L268.8,2067.2z"/>
	<path fill="#C6B324" d="M302.4,2025.6C302.4,2025.6,302.4,2027.2,302.4,2025.6C302.4,2027.2,302.4,2027.2,302.4,2025.6
		C302.4,2027.2,302.4,2027.2,302.4,2025.6L302.4,2025.6z"/>
	<path fill="#C6B324" d="M305.6,2035.2L305.6,2035.2L305.6,2035.2L305.6,2035.2L305.6,2035.2z"/>
	<path fill="#C6B324" d="M321.6,2089.6C321.6,2091.2,323.2,2091.2,321.6,2089.6C323.2,2091.2,323.2,2091.2,321.6,2089.6
		C321.6,2091.2,321.6,2091.2,321.6,2089.6C321.6,2091.2,321.6,2091.2,321.6,2089.6z"/>
	<path fill="#C6B324" d="M908.8,1889.6C908.8,1889.6,908.8,1891.2,908.8,1889.6C908.8,1891.2,908.8,1891.2,908.8,1889.6
		C908.8,1891.2,908.8,1891.2,908.8,1889.6L908.8,1889.6z"/>
	<path fill="#C6B324" d="M604.8,2041.6v-1.6C606.4,2040,604.8,2041.6,604.8,2041.6L604.8,2041.6z"/>
	<path fill="#C6B324" d="M489.6,2094.4L489.6,2094.4C489.6,2094.4,488,2094.4,489.6,2094.4C488,2094.4,489.6,2094.4,489.6,2094.4
		L489.6,2094.4z"/>
	<path fill="#C6B324" d="M473.6,1969.6L473.6,1969.6C475.2,1969.6,475.2,1969.6,473.6,1969.6
		C475.2,1969.6,475.2,1969.6,473.6,1969.6L473.6,1969.6z"/>
</g>
</svg>
