<?xml version="1.0" encoding="utf-8"?>
<!-- Generator: Adobe Illustrator 17.1.0, SVG Export Plug-In . SVG Version: 6.00 Build 0)  -->
<!DOCTYPE svg PUBLIC "-//W3C//DTD SVG 1.1//EN" "http://www.w3.org/Graphics/SVG/1.1/DTD/svg11.dtd">
<svg version="1.1" id="Layer_1" xmlns="http://www.w3.org/2000/svg" xmlns:xlink="http://www.w3.org/1999/xlink" x="0px" y="0px"
	 viewBox="0 0 356.7 198.2" enable-background="new 0 0 356.7 198.2" xml:space="preserve">
<g>
	<path d="M52,123.3c0,0,0,0.1,0,0.1c0.9,1.4,0.8,2.8,0,4.2c-0.3,0.5-0.4,1-0.3,1.7c0.1,0.4-0.1,0.9-0.3,1.2c-0.8,1-1.8,1.5-3.3,1.6
		c0.6-1,1.1-1.7,1.6-2.5c-0.2-0.5-0.5-1.1-0.6-1.7c-0.2-0.9-0.5-1-1.3-0.7c-0.4,0.2-0.8,0.4-1.1,0.8c-0.9,1.2-2,2-3.4,2.4
		c-1.8,0.6-2.3,1.4-2.3,3.2c0,1.1,0,2.2,0,3.3c0,0.5,0.1,0.9,0.6,1.1c1.1,0.5,1.4,1.3,1.5,2.4c0,0.2,0.1,0.3,0.2,0.7
		c0.3-0.2,0.6-0.3,0.8-0.5c1-0.8,1.2-0.8,1.6,0.5c-0.6,0.7-1.1,1.6-2.3,1.4c-0.2,0-0.5,0.3-0.6,0.5c-0.1,0.9-0.7,1.7-0.4,2.7
		c0.3,1,0,1.9-0.7,2.7c0.2,0.4,0.3,0.7,0.5,1.1c-0.9,0.5-1.5,0.1-2-0.5c-0.4-0.5-0.2-1,0.1-1.5c0.3-0.6,0.5-1.3,0.2-2.1
		c-0.2-0.4-0.1-0.9,0-1.3c0.2-0.9,0.5-1.8,0.7-2.7c0.1-0.6-0.1-1.1-0.7-1.3c-0.7-0.3-1.5-0.6-2.3-1c0.1-0.1,0.3-0.2,0.4-0.2
		c0-0.4,0-0.8,0.1-1.1c0.4-1.2,0.3-2.2-0.7-3.1c-0.3-0.3-0.5-0.7-0.8-1.1c0.2-0.2,0.3-0.5,0.4-0.6c1.5-0.9,1.4-2.4,1.7-3.9
		c0-0.1,0.1-0.2,0-0.3c-1-1.2-0.8-3-2-4.1c-0.3-0.3-0.5-0.7-0.7-1c-0.3-0.3-0.6-0.6-1-0.9c-0.8,0.9,0.2,1.6,0,2.3
		c-0.2,0.7-0.3,1.5-0.5,2.4c-0.8-0.6-1.6-0.8-2-1.7c-0.2-0.4-0.8-0.7-1.4-1.1c-0.3-0.9-0.7-2.2-1.1-3.4c-0.2-0.5-0.4-0.9,0.2-1.3
		c0.1-0.1,0.3-0.4,0.2-0.5c-0.6-1,0-2.1-0.3-3.2c0-0.1-0.1-0.2-0.3-0.5c-0.5,0.3-1,0.5-1.5,0.8c-1,0.5-1.9,0.1-1.9-1.1
		c-0.1-1.4,0.1-2.7,1-3.8c0.3-0.4,0.4-0.9,0.6-1.3c-3.2-0.4-6.3-0.9-9.3-1.3c-1.2-0.2-2.3-0.5-3.5-0.7c-1.1-0.2-2.2-0.4-3.4-0.5
		c-0.6-0.1-1.4,0.8-1.3,1.6c0.1,0.9,0.3,1.7,0.4,2.5c0.1,1.2,0.6,2.3,1.4,3.2c-0.2,0.4-0.3,0.8-0.5,1c-0.2,0.2-0.6,0.4-0.9,0.4
		c-0.5,0-0.5-0.4-0.5-0.8c0-0.4-0.1-0.8-0.2-1.2c-0.3-1-0.8-1.9-0.4-3c0.1-0.2-0.2-0.5-0.2-0.8c-0.1-0.9-0.4-1.8,0.3-2.5
		c0.2-0.2,0.3-0.6,0.5-1c-0.9-0.2-1.8-0.5-2.7-0.6c-0.7-0.1-1.3-0.2-1.8-0.8c-0.4-0.4-1-0.7-1.5-0.8c-1.2-0.3-1.5-0.5-1.7-1.9
		c-1-0.8-2.2,0.8-3.3-0.5c1.1-0.4,1.6-1.4,3-1.6c1.4-0.2,2.7-0.5,4.1-0.7c0.9-0.2,1.8-0.8,2.7-1.2c0.7-0.3,1.3-0.7,2-0.9
		c0.7-0.2,1.3-0.1,1.7,0.6c0.4,0.9,1,0.7,1.8,0.6c1.2-0.2,2.1-0.8,3.2-1.3c2.5-1.1,4.8-2.5,7.5-3c0.3-0.1,0.5-0.3,0.8-0.4
		c1-0.5,1.9,0,2.1,1.1c0.3,1.5,0.7,2.9,1.7,4.1c0.9,1,1.2,1,2.2,0.2c0.6-0.5,1.2-0.6,1.9-0.6c0.4,0,0.9,0.1,1.4,0.2
		c0.4-1.2,0.4-2.3,0.2-3.5c-0.2-1.4-0.1-2.9,0-4.3c0.1-1.3,0.4-2.6,0.4-3.9c0-1,0.8-1.8,0.4-2.7c0.5-0.4,0.1-0.9,0.1-1.3
		c0-0.4-0.1-0.7-0.1-1.1c0.1-2.2,0.3-4.3,0.5-6.5c0.2-3.1,0.5-6.1,0.7-9.2c0.1-1.4,0.4-2.9,0.5-4.3c0.1-1.1,0-2.1-0.1-3.2
		c0-0.5-0.1-0.9-0.1-1.4c0.2-1.9,0.4-3.9,0.5-5.8c0-0.4,0.1-0.8,0.1-1.2c0-1.7-0.2-3.5,0-5.2c0.1-0.7,0-1.3,0.5-1.8
		c0.1-0.1,0.2-0.3,0.2-0.5c0.1-1.5,0.2-2.9,0.2-4.4c0-0.8-0.4-1.7-0.4-2.5c0-1.5,0.2-2.9,0.3-4.4c0-0.6-0.1-1.2,0-1.8
		c0.1-0.3,0.4-0.5,0.7-0.7c0.2,0.3,0.6,0.5,0.6,0.8c0.1,0.8-0.1,1.6,0,2.4c0,1,0.1,2.1,0.2,3.4c0.4-0.3,0.8-0.5,0.8-0.7
		c0.2-1.6,1.2-2.8,1.2-4.4c0-0.9,0.1-1.7-0.3-2.5c-0.1-0.2-0.2-0.5-0.2-0.8c0.2-1-0.1-2-0.4-2.9c-0.5-1.9-1-3.8-1.4-5.7
		c-0.2-0.8-0.1-1.7-0.2-2.8c0.8,0.6,1.3,1.1,1.9,1.6c0.3-0.9,0.8-1.7,0.9-2.5c0.3-2.1,1.3-4,2-5.9c0.7-1.8,1.8-3.4,3.7-4.3
		c0.4-0.2,0.7-0.2,0.8,0.4c-0.5,0.5-1,1-1.6,1.6c-0.1,0.2-0.3,0.4-0.4,0.6c-0.3,0.9-0.7,1.6-1.8,1.4c0,2-0.5,3.8-1.2,5.5
		c-0.3,0.8-0.5,1.8-0.6,2.7c-0.2,1-0.5,1.9-1.1,2.5c0.1,1,0.3,2,0.3,2.9c0.1,1,0,2,0.6,2.9c0.2,0.3,0.1,0.8,0,1.2
		c-0.2,1.1-0.1,2.1,0.3,3.1c0.2,0.3,0.2,0.8,0.2,1.2c-0.3,1.4-0.7,2.7-1,4.1c-0.5,1.8-1,3.6-2,5.1c-0.1,0.1-0.2,0.3-0.2,0.5
		c-0.3,1.3-0.8,2.6-0.8,4c0,1.6,0.1,3.2,0.1,4.7c0,1.1-0.1,2.2-0.1,3.2c0,0.8-0.1,1.5-0.1,2.3c0,1.3,0,2.6-0.1,4
		c-0.1,2.1-0.1,4.2-0.2,6.3c0,0.9-0.2,1.8-0.3,2.7c-0.1,1-0.1,2-0.2,3.1c0,0.2,0,0.5,0,0.7c-0.6,3.6-0.3,7.3-0.7,11
		c-0.2,1.9-0.2,3.8-0.6,5.7c-0.3,1.4-0.1,2.9-0.6,4.3c-0.1,0.2,0,0.5,0,0.8c0.2,1.4,0.3,2.8,0.5,4.2c0.1,0.6,0.3,1.1,0.3,1.7
		c0,0.4-0.2,0.8-0.3,1.2c-0.1,0.4,0.1,0.6,0.6,0.5c0.5-1.6,1.2-3.2,2.3-4.5c0.2-0.2,0.3-0.6,0.3-0.9c0-1-0.1-2.1-0.1-3.1
		c0-0.2-0.1-0.5,0-0.7c0.7-1,0.4-2.2,0.4-3.1c-0.1-1.2,0.4-2.3,0.2-3.4c-0.1-1.1,0.1-2.3,0.2-3.4c0-0.3,0.2-0.6,0.2-0.9
		c0.1-0.3,0.2-0.6,0.1-0.9c-0.2-1.9-0.1-3.9,0.2-5.8c0.1-0.4,0-0.8,0.1-1.2c0.1-1.1-0.1-2.2,0.4-3.3c0.4-1,0.2-2.2,0.3-3.4
		c0.1-1.1,0.2-2.1,0.3-3.2c0-0.5-0.1-1.1-0.1-1.6c0.2-2.1,0-4.3,0.7-6.3c-0.3-1.8,0.4-3.6,0.5-5.3c0.1-1.5,0-3.1,0.7-4.6
		c0.1-0.1,0.1-0.3,0-0.4c-0.4-1.7-0.1-3.4-0.2-5.1c0-0.1,0-0.3,0-0.4c0.4-0.9,0.4-1.9,0.4-2.9c0.1-1.3,0.3-2.5,0.4-3.8
		c0.1-1.4,0.5-2.7,0.2-4.2c-0.2-0.8,0.1-1.7,0.2-2.6c0.2-1.9,0.4-3.7,0.5-5.6c0-0.5,0.5-1-0.1-1.4c-0.1-0.1-0.1-0.4,0-0.5
		c0.5-1,0-2.1,0.4-3.1c0-0.1,0.1-0.3,0.1-0.4c-0.5-1.3,0.5-1.9,1.2-2.9c0.3,0.4,0.6,0.6,0.6,0.9c0,0.7,0,1.5-0.1,2.2
		c-0.1,1.5-0.2,3.1-0.3,4.6c-0.1,2.6-0.3,5.2-0.4,7.7c-0.1,1.1-0.2,2.3-0.1,3.4c0,0.4,0.3,0.7,0.4,1.1c0.1,0,0.2,0,0.3,0
		c0.2-0.5,0.5-1,0.6-1.6c0.6-2.2,1.6-4.4,1.9-6.7c0-0.1,0-0.2,0.1-0.3c1.1-0.8,0.8-2.1,1.1-3.2c0.1-0.2,0.2-0.5,0.1-0.7
		c-0.6-1.8,0.4-3.5,0.2-5.3c0.7-1.2,0.2-2.5,0.2-3.7c0-0.8-0.6-1.6-1-2.3c-0.4-0.8-1-1.5-1.5-2.2c-0.3-0.4-0.4-0.8,0.2-1.2
		c1,0.7,1.8,1.7,2.2,2.9c0.1,0.3,0.2,0.5,0.4,0.7c1.5,1.6,1.3,3.6,1.2,5.5c-0.1,1.5-0.1,3,0,4.5c0.1,1.7-0.4,3.3-0.8,5
		c-0.3,1.4-0.9,2.6-1.3,4c-0.2,0.7-0.3,1.4-0.5,2.1c-0.2,1.1-0.4,2.1-1,3.1c-0.6,0.9-0.8,2-1.3,3C50,37.1,49.8,38,48.6,38
		c-0.2,0-0.6,0.6-0.6,0.9c-0.1,1.1-0.1,2.2,0,3.3c0.2,1.8,0,3.6-0.3,5.4c-0.1,0.9-0.1,1.9-0.2,2.8c-0.1,0.7-0.4,1.4-0.4,2.1
		c-0.1,2.7-0.4,5.4-0.8,8.1c-0.2,1.6-0.2,3.2-0.3,4.7c0,1.1-0.1,2.3-0.1,3.4c0,1.5-0.4,3-0.7,4.4c-0.1,0.4-0.2,0.7-0.1,1.1
		c0.3,1.4,0,2.7-0.1,4.1c-0.3,3.3-0.5,6.5-0.8,9.8c-0.2,1.7-0.1,3.5-1,5c-0.2,0.3,0,0.8,0,1.6c1.8-1.2,2.7-2.7,4.1-3.8
		c-1-1.4-0.1-2.4,0.4-3.5c0.2-0.3,0.4-0.6,0.8-0.5c0.4,0.1,0.8,0.3,0.7,0.8c0,0.2,0.1,0.4,0.1,0.7c1.2-0.6,1.3-2.5,3.1-2.2
		c0,0.3,0.1,0.6,0.2,0.9c0.2,0.5,0.5,0.9,1.1,0.8c1.1-0.2,2.3-0.4,3.3-0.8c0.5-0.2,0.8-0.8,1.1-1.3c0.4-0.8,1.6-1.1,1.6-2.4
		c-0.4,0.1-0.7,0.1-1,0.2c-0.8,0.4-1.5,0.9-2.2,1.4c-0.5,0.3-1,0.6-1.6,0.2c-0.3-0.2-0.8-0.1-1.2-0.1c0.8-1.6,2.1-2.6,3.6-3.5
		c-0.3-0.4-0.4-0.7-0.7-0.9c-0.5-0.4-1-0.8-1-1.5c0-0.2-0.6-0.5-0.9-0.6c-0.1,0-0.4,0.4-0.5,0.7c-0.4,1.3-0.6,2.6-1.2,3.8
		c-0.3,0.7-0.4,1.7-1.5,2.1c-0.2-0.2-0.4-0.4-0.7-0.6c-1,0.5-1,0.5-2.1,0.2c0.9-1.3,0.2-2.8,0.4-4.2c0.3-1.6,0.1-3.3-0.1-4.8
		c-0.2-1.3-0.2-2.7-0.4-4c-0.3-2-0.5-4,0.3-6.1c0.3-0.9,0.8-1.9,0.4-2.9c0-0.1,0-0.3,0-0.4c0.1-0.2,0.3-0.6,0.5-0.6
		c1,0.1,1.3-1.3,2.3-1.1c0.3,0.1,0.6,0.6,0.7,0.9c0.1,0.4-0.2,0.6-0.7,0.6c-0.2,0-0.4,0-0.7,0.1c0.8,1.3,2,2.1,3.3,3
		c0.2-0.6,0.4-1,0.4-1.4c0.2-1.5,0.4-2.9,0.4-4.4c0-2.8,0.8-5.5,1.4-8.2c0.2-0.8,0.4-1.6-0.4-2.4c1.5-1.4,1-3.4,1.2-5.1
		c0.2-1.3,0.2-2.7,0.2-4.3c-0.1,0,0.1,0,0.2-0.1c1.3-0.7,1.9-0.3,1.9,1.2c0,1.7,0,1.7,0.6,2.8c1.2-1.2,1.3-2.7,1.4-4.1
		c0.1-1.8,0-3.7-0.6-5.5c-0.6-1.6-1.3-3.1-2-4.7c-1.2,0.7-1.4,1.8-1.7,2.8c-0.5,1.5-1,3-1.3,4.5c-0.3,1.3-0.4,2.6-0.5,3.9
		c-0.2,1.4-0.1,2.8-0.4,4.3c-0.1,0.6,0.4,1.4,0.8,2c0.3,0.5,0.5,0.9,0.3,1.5c-0.6-0.2-1.2-0.3-1.7-0.5c-0.8-0.3-0.9-1.2-0.4-1.7
		c0.6-0.6,0.6-0.6,0-1c-0.5-0.3-0.9-0.5-0.5-1.3c0.2-0.4,0-1-0.1-1.4c-0.2-0.9-0.2-1.8,0.3-2.6c0.5-0.8,0.4-1.8,0.6-2.7
		c0.2-1,0.4-1.9,0.7-2.9c0.1-0.5,0.3-1,0.4-1.5c0.3-1.6,0.8-3.1,2-4.2c0.4-0.4,0.5-1,0.7-1.5c0.2-0.4,0.4-0.8,0.9-0.6
		c0.4,0.2,0.8,0.6,0.8,0.9c0,0.7,0.4,1.1,0.8,1.6c0.9,1.3,1.8,2.7,2.1,4.4c0.3,2,0.5,4.1,0.9,6.1c0.3,1.8-0.4,3.3-1.1,4.8
		c-0.4,0.9-1,1.7-1.6,2.5c-1.4,1.8-2.2,3.9-2.4,6.2c-0.1,0.9-0.4,1.9-0.6,2.8c-0.2,1-0.3,2-0.5,2.9c-0.3,2.3-0.7,4.5-0.9,6.8
		c-0.1,0.7-0.1,1.3,0,2c0,0.2,0.3,0.6,0.4,0.6c0.3,0,0.6-0.2,0.8-0.3c0.2-0.2,0.5-0.5,0.6-0.7c0.6-1.6,2.1-2.3,3.2-3.4
		c0.2-0.2,0.7-0.3,1-0.3c1.4,0,2.9-0.2,4.1,0.2c2.5,0.8,3.8-0.6,5.1-2.2c0.8-1,1.6-1.9,2.8-2.4c1.3-0.6,2.4-1.5,3.7-2
		c1.3-0.5,2.7-0.5,4-0.3c0.2,0,0.5,0.2,0.6,0.3c0.4,0.5,0.8,0.4,1.3,0.5c0.8,0.2,1.6,0.8,2.3,1.3c0.3,0.2,0.4,0.8,0.5,1.2
		c-0.4,0.3-0.7,0.5-0.9,0.6c-1-0.5-2-1.1-2.9-1.6c-1.7-0.8-3.4-0.8-5,0c-0.9,0.4-1.6,1-2.4,1.6c0.1,0.2,0.2,0.3,0.2,0.3
		c0.8,0,1.5-0.6,2.4-0.2c0.7,0.3,1.6-0.2,2.4-0.3c0.7,0.8,1.4,1.5,2.1,2.3c-0.9,1-0.9,2.3,0.1,3.2c0.8,0.8,0.8,1.5-0.2,2.1
		c-1,0.6-2,1-3,1.5c-0.2,0.1-0.4,0.2-0.6,0.3c0.4,0.6,1,0.7,1.5,0.4c1.1-0.6,2.2-0.8,3.4-0.2c0.3,0.1,0.6,0.1,0.9,0
		c1.1-0.4,2.2-0.4,3.5,0.1c0.3-0.8,0.8-1.5,0.8-2.3c0.1-0.7-0.2-1.6-0.5-2.2c-0.4-0.7-1-1.2-1.7-1.9c0.5-0.4,1-0.8,1.6-1.3
		c0.8,1,1.6,1.9,2.1,3c0.5,1,0.7,2.1,0.2,3.3c-0.2,0.5-0.4,1-0.5,1.6c-0.1,1.5-1,2.4-2.1,3.3c-0.7,0.6-1.5,1.1-2.3,1.7
		c-0.3,0.2-0.6,0.3-1,0.6c-0.2-0.4-0.4-0.7-0.5-1c1.1-0.7,2.1-1.5,2.8-2.7c-0.5-0.5-1-0.6-1.7-0.4c-0.9,0.2-1.7,0.6-2.6,0
		c-0.3-0.2-0.8-0.1-1.2,0c-1.4,0.4-2.8,0.2-4.1-0.3c-0.9-0.3-1.8-0.6-2.8-0.1c-0.1-1.2,0-1.6,0.9-1.9c0.6-0.2,1.4,0,2.2,0.1
		c-0.4-0.8-0.8-1.4-1.2-2.1c-0.7-1.2-0.3-2.5,0.1-3.7c0.1-0.4,0.8-0.6,1.1-1.2c0.2-0.4,0.4-0.8,0.5-1.2c-0.6-0.6-1-0.5-1.5,0
		c-0.2,0.2-0.3,0.5-0.5,0.8c-0.5,0.7-1,0.7-1.8,0.2c0.1-0.5,1-0.4,0.7-1.1c-1.4-0.1-1.4-0.1-2.3,2.2c0.5,0.5,1,0.9,1.6,1.6
		c-0.3,0.4-0.6,0.7-0.9,1.2c-0.2-0.4-0.3-0.7-0.5-0.9c-0.4-0.5-1.3-0.7-1.7-0.4c-0.5,0.4-0.3,0.9-0.2,1.4c0.1,0.3,0.3,0.6,0.4,0.8
		c0.6,1.1,0.4,1.5-0.8,1.9c-0.3,0.1-0.6,0.3-0.7,0.5c-0.4,0.5-0.9,0.5-1.3,0.1c-1-1.3-2.4-2.4-2.6-4.3c-0.5,0-1.1,0-1.8,0.1
		c0.5,1.9,0.9,3.6,1.9,5.4c-0.4,0.2-0.9,0.5-1.4,0.8c0,0.6-0.1,1.2-0.1,1.9c-0.8-0.2-1-0.9-1.5-1.3c-0.3,0.5-0.1,0.9,0.2,1.3
		c0.6,0.7,1.2,1.4,1.7,2.1c0.3,0.4,0.4,0.8,0.7,1.4c0.9,0.1,1.7-0.3,2.4-1.1c0.8-1.1,1-1.2,1.9-0.3c0.3,0.3,0.7,0.4,1.1,0.3
		c2.6-0.6,5.2-0.4,7.9-0.3c0.2,0,0.5,0,0.7-0.1c2.3-0.5,4.1,0.4,5.9,1.7c1.1,0.8,2.4,1.3,3.5,2.1c1.6,1.1,3,2.4,3.4,4.4
		c0,0.3,0.1,0.6,0.3,0.8c1.3,1.7,1.8,3.6,2.3,5.6c0.3,1.4,0.2,2.8,0.5,4.2c0.1,0.3-0.2,0.7-0.2,1c-0.1,0.5-0.2,1-0.2,1.5
		c0.1,0.9,0.4,1.2,1.2,1.4c0.3,0.1,0.5,0.1,0.9,0.1c0,0.6-0.1,1-0.6,1.3c-0.6,0.3-1.2,0.4-1.8,0.1c-0.9-0.4-1.1-0.3-1.5,0.5
		c-0.2,0.3-0.3,0.9-0.1,1.1c0.2,0.3,0.8,0.5,1.1,0.4c0.9-0.4,1.8,0,2.7,0c0.6,0,0.9,0.4,1.1,0.9c0.3,0.5,0,1.1-0.5,1.3
		c-0.2,0.1-0.5,0.2-0.9,0.3c0.6,0.5,1.1,0.7,1.8,0.6c1.4-0.2,3-0.1,4.3-0.6c1.3-0.5,2.6-0.5,3.9-0.5c1,0,2.1,0.2,3.1,0.2
		c1,0,2,0,2.9,0c1.5-0.1,3.1-0.5,4.6-0.4c0.7,0.1,1.2-0.1,1.7-0.6c1.3-1.1,2.7-2.2,4-3.2c0.2-0.2,0.5-0.3,0.8-0.5
		c0.3,0.5,0.5,0.9,0.7,1.3c-0.4,0.5-0.7,1.1-1.5,1.1c-0.2,0-0.4,0.2-0.5,0.4c-0.7,0.9-1.6,1.7-2.2,2.7c-0.6,1.1-1.6,1.3-2.6,1.2
		c-1.9-0.1-3.8,0.1-5.7,0.3c-0.7,0.1-1.5-0.1-2.3-0.2c-3-0.2-5.9,0.1-8.9,0.9c-1.9,0.5-3.9,0.4-5.8-0.1c-1.1-0.3-1.8-0.8-1.9-2.1
		c0.5-0.3,1-0.6,1.7-1.1c-0.4-0.2-0.7-0.3-1-0.4c-1.8-0.1-3.5,0.1-4.8,1.6c-0.6,0.7-1.2,0.9-1.9,0.6c-0.7-0.3-1.3-0.1-2,0.1
		c-2,0.4-4,0.5-5.9-0.2c-0.7-0.3-1.3-0.9-2-1.4c-0.7-0.5-1.4-0.8-2.3-0.8c-0.3,0-0.7,0-0.9-0.1c-1.2-0.9-2.4-0.4-3.7,0
		c-0.6,0.2-1.2,0.5-1.8,0.7c0.1,1,1.2,0.6,1.5,1.1c0.3,0.5,0.7,1,1.1,1.5c-0.8,0.7-1.6-0.3-2.4,0.1c-0.1,0.2-0.3,0.4-0.2,0.6
		c0.2,0.9-0.1,1.7-0.1,2.5c0,0.8-0.4,1.1-1.1,1.4c-0.7-0.3-0.8-0.9-0.7-1.6c0.2-0.9,0.5-1.7,0.8-2.6c0.3-0.7,0.2-1.1-0.6-1.3
		c-0.6-0.1-1.3-0.1-1.8,0.3c-1.1,1-2.4,1.5-3.9,1.7c-1.2,0.2-2.4,0.6-3.6,1c0.4,0.9-0.1,1.4-0.7,1.8c0.6,1.2,0.9,2.5,1.7,3.5
		c-1,1.6-2.2,2.5-3.9,2.8c-0.3,0.1-0.6,0.3-0.8,0.5c-1.2,0.8-2.4,1.8-3.7,2.4c-0.9,0.5-2.1,0.6-3.2,0.9c-0.1-1-1.2-1.6-0.2-2.7
		c1.7,0.8,3-0.2,4.4-1.1c1.3-0.8,2.6-1.5,3.9-2c0.7-0.3,1-0.6,0.9-1.3c0-0.9-0.1-1.7,0.2-2.6c0.2-0.4-0.2-0.9-0.3-1.5
		c-0.3,0-0.6-0.1-0.9,0c-1.3,0.4-2.6,0.8-3.9,1.2c0,0-0.1,0-0.1,0c-2.5,0.4-4.9,1.1-7.5,0.6c-3.2-0.7-6.5-0.9-9.8-0.8
		c-1.7,0.1-3.3,0.3-4.9,0.4c-0.2,0.5-0.2,1.1-0.5,1.3c-0.6,0.5-0.7,1-0.7,1.7c-0.1,0.7-0.2,1.4-0.3,2.3c0.6-0.2,1-0.1,1.3-0.4
		c0.8-0.7,1.6-0.8,2.5-0.1c0.5-1.6,1.9-1.5,3.1-1.9c0.2,0.8-0.1,1.2-0.5,1.6c-1.1,0.9-1,2.2-0.9,3.4c0.1,0.8,1,1.2,1.9,1
		c0.3-0.1,0.6-0.1,0.9,0c1.4,0.5,2.8-0.9,3.1-1.9c0.1-0.4,0.3-0.7,0.4-1c1.3-0.3,0.1,1.1,1,1c0.2-0.6,0.4-1.2,0.6-1.8
		c1.1,0.6,1.5,1.3,1.1,2.3c-0.7,1.6-0.5,3.3-0.7,5c-0.1,0.6,0.1,1.2,0.1,2.1c0.9-0.5,1.7-1,2.6-1.5c0.1,1-0.7,1.4-1,2
		c-0.3,0.6-1,1.1-1.2,1.8c-0.1,0.6,0.2,1.3,0.4,2c1-0.3,1.8-0.6,2.6-0.9c-0.2-0.6-0.3-0.7-0.8-1.1c0.7-0.6,1.3-1.1,2.1-1.6
		c0.7-0.5,2-2.2,2.2-3c0-0.2,0.1-0.4,0.1-0.5c0.4-1.5,1.3-2.4,2.9-2.4c0.2,0.6-0.6,0.9-0.7,1.4C51.1,122.2,52.4,122.3,52,123.3
		c-0.2,0-0.5-0.1-0.7-0.1c-0.9,1.3-0.9,1.3,0,1.6C51.5,124.3,51.8,123.8,52,123.3z M80.2,84.5c-1.1-0.5-1.7-0.1-2.4,0.5
		c-0.8,0.8-1.7,1.6-2.9,2c-1,0.3-2.1,0.7-2.9,1.5c-0.3,0.3-0.8,0.4-1.1,0.7c-0.8,0.7-1.8,0.4-2.7,0.6c-1.8,0.5-3.5,0.4-5.3,0.2
		c-1.4-0.2-2.7-0.4-4.1-0.4c-2.1,0.1-4.2,0.5-6.2,1.5c-1.1,0.6-2.2,1.2-3.4,1.5c-0.9,0.3-1.5,0.9-2,1.5c-0.3,0.4-0.6,0.8-0.9,1.2
		c-1.9,2-3.4,4.3-4.6,6.7c-0.3,0.6-0.6,1.3-1.3,1.6c-0.4,0.2-0.7,0.7-0.4,1.2c0.5,1,1.4,1.4,2.5,0.9c0.7-0.3,1.3-0.5,2.1-0.3
		c0.3,0.1,0.9,0,1.1-0.2c0.7-0.6,1.5-1.3,2.1-2.1c0.7-0.9,1.4-1.7,2.3-2.2c0.5-0.3,0.8-0.7,0.6-1.3c-0.8-0.5-1.6-1.1-2.3-1.6
		c1.1-0.7,1.1-0.6,2.1-0.5c0.8,0.1,1.7,0.1,2.3,0.1c1-0.9,1.8-1.7,2.6-2.5c0.7-0.7,1.6-1.2,2.2-2.1c0.4-0.6,1.1-1.2,2.3-0.7
		c-1.5,2.3-4,3.5-5.4,6c1.5,0.4,2.8,1.5,4.5,1.2c0.1-0.2,0.3-0.3,0.4-0.5c1-1.7,2.8-2.4,4.3-3.5c0.2-0.1,0.6-0.1,0.7,0.1
		c0.1,0.1,0.1,0.6,0,0.7c-0.5,0.5-1,1-1.5,1.5c-0.7,0.7-1.5,1.3-1.9,2.3c0.5,0.2,1,0.4,1.4,0.7c0.5,0.3,1.1,0.5,1.6,0.8
		c0.8,0.7,1.8,0.5,2.7,0.8c0.1,0,0.3-0.1,0.5-0.2c1.1-0.6,2.1-1.2,3.2-1.8c1.5-0.9,3.1-1,4.7-0.4c0.5,0.2,1,0.3,1.5,0.3
		c1,0.1,2,0.3,3,0.4c0.3,0,0.6,0,0.9-0.2c0.9-0.4,1.7-0.9,2.6-1.4c0.8-0.5,1.6-1.1,2.4-1.6c0.2-0.1,0.2-0.6,0.2-0.9
		c0-0.2-0.4-0.5-0.6-0.4c-0.2,0.1-0.4,0.4-0.6,0.6c-0.1,0.2-0.2,0.5-0.3,0.7c-0.2,0-0.4,0-0.5,0c-1.1-0.3-2-0.1-3,0.6
		c-1.5,1.1-3.2,1.1-5.1,0.9c0.1-1-0.8-1.7,0.1-2.8c0.1,0.2,0.2,0.3,0.2,0.4c0.5,1.2,0.5,1.2,1.7,0.9c1.6-0.4,3-1.2,4.5-2.1
		c-0.1-0.7-0.2-1.4-0.4-2c-0.7-2.2-1.5-4.4-2.3-6.5c-0.3-0.9-0.1-1.5,1-1.9c0.3,0.7,0.6,1.5,0.9,2.2c0.6,1.9,1.1,3.8,1.8,5.7
		c0.1,0.4,0.6,0.8,0.9,1.1c0.1,0.1,0.3,0,0.5,0c0-0.3,0-0.4,0-0.6c-0.4-1.5-0.8-3.1-1.2-4.6c-0.4-1.4-1-2.8-1.4-4.2
		c-0.2-0.8-0.3-1.6-0.3-2.4c0-0.2,0.2-0.4,0.4-1c0.4,0.6,0.7,1,0.8,1.4c0.7,2.2,1.3,4.4,1.9,6.6c0.3,1.2,1.2,2,1.9,2.9
		c0.1,0.2,0.5,0.2,0.8,0.1c0.8-0.2,1.4-1.4,1.2-2.3c-0.2-0.8-0.4-1.6-0.6-2.3c-0.4-1.3-0.8-2.6-1.1-3.8c0-0.1,0-0.2,0.1-0.3
		c0.3-0.1,0.7-0.3,1.1-0.5c0.4,0.7,0.6,1.5,1.1,2c0.9,1,1.9,1.9,2.9,2.8c0.1,0.1,0.4,0,0.7,0c-0.7-1.6-1.4-3.2-2.2-4.6
		c-0.5-1-1.3-1.8-2.4-2.3c-1.5-0.7-2.9-1.4-4.2-2.5c-0.7-0.6-1.6-1.2-2.6-0.9c-0.9,0.3-1.7,0.1-2.6,0c-0.6-0.1-1.3-0.1-1.9,0
		c-2.9,0.3-5.7,0.6-8.4,1.5c-0.6,0.2-1.3,0.3-1.9,0.5c-0.8,0.3-1.5,0.6-2.2,1c-0.8,0.4-1.6,0.9-2.2,1.8c0.6,0.6,1.1,0.4,1.6-0.1
		c0.9-0.9,2-1.3,3.1-1.6c0.8-0.2,1.1,0.1,1.2,0.9c-2.6,0.7-4.5,2.5-6.5,4.1c-0.4-0.1-0.7-0.2-1.1-0.4c-0.3,0.7-0.5,1.3-0.8,2.1
		c1.4-0.1,2.7-0.2,3.9-0.2c-0.1-1.3,0.6-2,1.5-2.3c1.4-0.5,2.5-1.2,3.6-2.1c2.2-1.7,4.5-3,7.1-3.8c0.6,1,0.6,1-0.1,1.4
		c-1.7,1.1-3.5,2.1-5.2,3.2c-1.6,1-3.2,2.1-4.8,3.2c-0.1,0.1-0.2,0.3-0.3,0.5c0.5,0.1,0.8,0.1,1.2,0.2c2.1,0.2,3.9-0.7,5.8-1.2
		c0.8-0.2,1.6-0.5,2.3-0.9c1.3-0.8,2.4-1.8,3.6-2.7c1-0.8,1.7-0.5,1.9,0.7C80.1,83.6,80.1,83.9,80.2,84.5z M6,103.2
		c0.5,0.2,0.7,0.4,1,0.5c1.3,0.3,2.7,0.6,4,1c3.1,1,6.2,1.5,9.4,1.9c1,0.2,2.1,0.2,3.1,0.5c3,0.8,6.1,0.6,9.2,0.5
		c1.5-0.1,3-0.3,4.4-0.4c0.6-0.1,1.2,0,2.1-0.1c-0.6-0.5-0.8-0.9-1.5-0.7c-1.4,0.5-2.4-0.4-2.2-1.9c0-0.4,0.2-0.7,0.1-1.1
		c-0.1-0.5-0.2-1.1-0.5-1.3c-0.3-0.2-0.9,0.1-1.4,0.2c-0.2,0-0.3,0.2-0.4,0.4c-0.7,0.6-1.7,0.7-2.5,0.3c-1.4-0.7-2.8-1.6-3.4-3.2
		c-0.3-0.8-0.7-1.6-1-2.3c-0.8-0.3-1.5,0-2.2,0.3c-0.3,0.1-0.6,0.3-1,0.4c-1,0.4-2.1,0.7-3,1.3c-1.7,1.2-3.6,1.8-5.6,2.4
		c-1.1,0.3-2.2,0.6-3-0.7c-0.1-0.2-0.4-0.4-0.6-0.6C9.5,101.6,7.9,102.4,6,103.2z M56.6,74.5c0.3,0.5,0,1-0.2,1.4
		c-0.2,0.4-0.6,0.7-0.1,1.1c0.4,0.4,0.8,0.1,1.2-0.1c0.2-0.1,0.3-0.2,0.5-0.3c1-0.9,2-1.9,3.1-2.9c-0.7-0.8-1.9-1-2.6-1.7
		c-1.3,0.7-1.8,0.5-2.2-0.9c-0.1-0.3-0.3-0.6-0.6-0.9c-0.3-0.4-0.7-0.8-1.1-1.2c-0.3-0.3-0.6-0.6-1.1-1c0,0.4-0.1,0.5,0,0.6
		c0.3,1.3,0.7,2.7,0.4,4.1c0,0.2,0.1,0.4,0.2,0.7c0.1,0.6,0.2,1.2,0.3,1.7c0.1,0.4-0.1,0.9,0.5,1c0.6,0.1,0.8-0.3,1-0.7
		C56,75,56,74.5,56.6,74.5z M57.1,101.2c-1.1-0.7-2.3-0.7-3.4-1c-0.5-0.1-1,0-1.3,0.4c-1.4,1.6-2.8,3.2-4.4,5
		c0.7,0.2,1.1,0.4,1.6,0.4c1.6,0.1,3.1-0.7,4.6-1.2c0.2,0,0.3-0.2,0.4-0.3C55.4,103.4,56.2,102.3,57.1,101.2z M50.8,67.8
		c-0.1,0-0.2,0.1-0.4,0.1c-0.1,0.6-0.3,1.2-0.2,1.7c0.2,2.7,0.3,5.4,0.6,8c0.2,1.5,0.2,2.9-0.1,4.3c-0.1,0.3,0.1,0.7,0.1,1.1
		c0.5-0.3,0.8-0.6,1-0.9c0.3-1,0.5-1.9,0.8-2.9c0.1-0.4,0.1-0.8,0-1.2c-0.1-1.1-0.2-2.3-0.3-3.4c-0.1-1.1-0.2-2.2-0.3-3.2
		c-0.1-0.9-0.4-1.7-0.7-2.6C51.2,68.5,51,68.1,50.8,67.8z M93.1,95c-1.4,0.7-2.6,1.4-3.8,2c-0.7,0.3-1.2,0.7-1.1,1.6
		c0.1,0.8,0.2,1.5,0.3,2.3c0.2,0.9,0.5,1.1,1.3,0.7c0.3-0.2,0.7-0.3,0.9-0.6c0.9-1.5,1.7-3,2.6-4.5C93.6,95.9,93.4,95.5,93.1,95z
		 M63,65.1c-0.2,0.1-0.4,0.2-0.5,0.3C62,66,61.6,66.7,61,67.3c-0.8,0.7-1.5,1.6-1.2,2.6c0.4,1,1.6,1.1,2.6,1.2
		c0.9,0.1,1.2-0.2,1.1-1.1c0-0.2-0.2-0.5-0.2-0.7c0.2-0.2,0.4-0.3,0.7-0.6C63.2,67.6,64.3,66.1,63,65.1z M64.7,77.4
		c-0.9-1-1.8-1.8-2.8-2.8c-0.3,0.2-0.7,0.4-1,0.7c-0.6,0.7-1.3,1.4-1.8,2.2c-0.4,0.6-0.8,0.9-1.5,0.8c0.4,0.9,0.8,1.6,1.6,1.8
		c0.4-0.4,0.8-0.9,1.2-1.1C61.8,78.4,63.2,78,64.7,77.4z M86.3,99.5c-0.3,0-0.8-0.1-1,0.1c-1.2,1-2.8,1.5-4,3
		c1.4,0.6,2.6,0.7,3.9,0.5c1.2-0.2,1.6-0.7,1.4-1.8C86.5,100.7,86.4,100.2,86.3,99.5z M40.1,120.2c-1.3,0.1-2.2,0.8-3.1,1.5
		c0.9,1,1.7,2,2.6,2.9c0.1,0,0.2-0.1,0.3-0.1C40,123.1,40,121.7,40.1,120.2z M63.8,103.7c-1.2-0.8-2.4-1.4-3.7-1.6
		c-0.7-0.1-1.2,0.2-1.4,0.9c0.8,0.3,0.8,0.3,1.7,0c0.3-0.1,0.8-0.1,1,0c0.2,0.2,0.1,0.6,0.1,1c0,0.2,0,0.4,0,0.6
		c0.1,0.1,0.1,0.2,0.2,0.2C62.2,104.2,63.2,104.7,63.8,103.7z M90.2,94.4c0.1-0.8-0.5-1.5-1.1-1.5c-0.6,0.1-1.8,1.3-1.8,2
		c0,0.6,0.5,1,1.1,0.8c0.5-0.2,0.9-0.5,1.4-0.8C90,94.8,90.1,94.5,90.2,94.4z M67.9,65.1c0.6,1.1,1.2,1.8,2.5,1.9
		c-0.1-0.5-0.2-0.9-0.3-1.3C69.4,65.5,68.8,65.4,67.9,65.1z M91.1,91.8c0.3,0.6,0.4,1.1,1.3,1C92.1,92.2,92.1,91.7,91.1,91.8z"/>
	<path d="M328.2,144.3c-1.2,1.1-1.8,1.2-3.2,0.3c-0.5-0.3-1.1-0.7-1.8-0.3c-0.4,0.3-0.5,1.3-0.3,1.9c0.2,0.7,0.3,1.4,0.4,2.1
		c0.2,1.6,0.4,3.2,0.6,4.7c0.6,0.4,1.2,0.3,1.7-0.1c1.2-0.7,2.3-0.2,3.4,0.1c0.3,0.1,0.4,0.5,0.6,0.9c-1.4-1.1-2.6-0.4-3.9,0
		c-1.1,0.4-2.3,0.6-2.7,1.9c-0.5,1.6-1.1,3.2-1.3,4.8c-0.1,1-0.4,1.5-1.3,1.8c-0.8-1-0.5-2.2-0.3-3.3c0.2-1.4,0.6-2.8,1.1-4.2
		c0.7-2.1,0.3-4-0.3-6c-1.8,0.5-3.3,1.2-4.3,2.7c-0.4,0.7-1.1,1.2-1.8,1.7c-1,0.9-1.7,1.8-1.7,3.2c0,1.4-0.4,2.8-1,4.1
		c-0.4,0.8-0.6,1.7-0.7,2.6c-0.3,2.1-0.6,4.2-0.9,6.4c-0.1,0.6-0.1,1.2,0.6,1.5c0.5,0.2,0.5,0.7,0.3,1.1c-0.4,0.9-0.2,1.7,0,2.7
		c0.3,1.8-0.1,3.5-0.3,5.3c-0.1,0.4-0.5,0.8-0.8,1.3c-0.2,0.3-0.5,0.7-0.6,1c-0.4,1.3-0.5,1.4-1.7,0.4c0.1-0.6,0.2-1.2,0.4-1.8
		c0.7-1.6,0.5-3.4,0.7-5.1c0.1-1.2-0.2-2.4-0.5-3.6c-0.3-1.1-0.4-2.2-0.2-3.4c0.2-0.9,0.1-1.9,0.3-2.8c0.3-1.5,0.4-3,0.6-4.4
		c0.1-1.2,0.6-2.3,0.9-3.4c0.1-0.3,0.1-0.7,0.2-1c-1,0-1.8-0.1-2.6-0.1c0-0.1,0-0.1-0.1-0.2c0.6-0.4,1.2-0.8,1.8-1.2
		c0.7-0.5,1.3-1.1,0.9-2.1c-0.4,0.1-0.7,0.2-1,0.3c-0.5-0.4-0.8-1-1.3-1.2c-0.9-0.4-1.8-0.1-2.5,0.8c-0.2,0.3-0.4,0.7-0.7,1
		c-0.8,0.8-1.1,1.6-0.9,2.8c0.2,1.2-0.1,2.5-0.3,3.7c0,0.3-0.5,0.6-0.8,0.8c-0.2-0.3-0.6-0.5-0.6-0.8c-0.1-0.9,0-1.8-0.1-2.7
		c-0.2-1.4,0.3-2.8,0.2-4.1c-0.2-2.6,0.4-5,1.3-7.4c0.2-0.7,0.3-1.4,0.5-2.1c0.2-1.3,0.5-2.7,0.6-4.1c0-0.8-0.3-1.7-0.5-2.4
		c0.3-1,0.7-2.1,1-3.1c0.2-0.8,0.2-1.7,0.3-2.6c0.1-0.7,0.2-1.4-0.4-2c-0.4-0.4-0.2-1.1,0.2-1.6c0.3-0.4,0.6-0.8,0.3-1.4
		c-1.2-0.3-2.5,0.3-2.9,1.5c-0.1,0.5-0.1,1.1-0.1,1.6c-0.1,1.2,0,2.4-0.7,3.5c-0.2,0.3-0.3,0.7-0.4,1c-0.5,1.4-0.3,1.7,1.1,2.3
		c0.2,0.1,0.5,0.3,0.7,0.4c-0.3,0.6-0.8,0.6-1.3,0.5c-0.9-0.1-1.2,0.1-1.4,0.9c-0.1,0.5-0.3,1.2-0.1,1.6c0.6,1.2,0.3,2.2-0.1,3.3
		c-0.4,0.9-0.6,2-1.9,2.3c-0.3,0.1-0.6,0.4-0.9,0.6c-0.6,0.4-1,0.3-1.2-0.5c-0.4-1,0-1.9,0.6-2.7c1.5-2.3,1.4-4.8,1.5-7.4
		c0-0.3-0.3-0.6-0.4-0.9c-0.6,0.2-1.1,0.3-1.6,0.4c0-0.1-0.1-0.2-0.1-0.3c0.3-0.2,0.7-0.4,1-0.6c2-0.8,2.2-2.6,2.5-4.4
		c0.1-0.9-0.4-1.2-1.4-1.1c0-1.2-1-1.8-1.7-2.5c-0.5-0.4-1.1-0.7-1.6-1.1c-0.8-0.7-1.2-1.5-0.8-2.6c0.2,0.1,0.4,0.2,0.4,0.3
		c0.3,1.3,1.5,1.7,2.4,2.6c0.2,0.2,0.4,0.2,0.6,0.3c0.7,0.2,1,0,0.9-0.7c-0.1-0.7-0.2-1.4-0.3-2.2c-0.1-1-0.2-1.9,0.3-2.9
		c0.3-0.5,0-1.2,0-1.9c0-0.3,0-0.5,0-0.9c1.3,0.5,1.8,1.5,2.1,2.5c0.6,0.1,1.2,0.3,1.7,0.3c0.7,0,1.1,0.4,1.5,1
		c0.8,1.3,1.3,1.3,2.6,0.5c1-0.7,1-0.7,2-0.7c0,0.1,0.1,0.2,0,0.2c-0.2,0.3-0.8,0.5-0.5,1c0.2,0.3,0.7,0.4,1,0.4
		c0.5,0,1.1-0.1,1.6-0.3c0.9-0.4,1.7-0.9,2.7-1c0.3,0,0.5-0.3,0.9-0.5c-0.3-0.9-0.6-1.8-0.9-2.8c-0.9,0.2-1.6,0.5-2.3,0.7
		c-0.7,0.2-1.4,0.8-2.2-0.1c1.3-0.5,2.5-1,3.8-1.4c0.8-0.2,1.5-0.4,1.7-1.3c0.1-0.3,0.4-0.5,0.7-0.8c0.7,1.2,1.7,1.6,3.1,0.8
		c-0.3,0.8-0.8,1-1.3,1.2c-1.7,0.6-2,1.6-0.7,3.2c1-0.3,1.2-2,2.7-1.4c-0.7,0.7-1.3,1.5-2.1,2.1c-0.6,0.5-0.5,1.1-0.3,1.8
		c0.2,0.6,0.8,0.6,1.3,0.6c1,0,1.9-0.3,2.7-1.1c0.8-0.9,1.7-1.6,2.7-2.3c1-0.7,1.5-1.6,1.1-2.8c-0.1-0.3-0.1-0.7-0.1-1.1
		c-0.1-0.8-0.4-1.5-1.4-1.6c0.7-0.1,0.9-0.6,0.8-1.2c-0.1-0.6-0.2-1.2-0.4-1.9c-0.2-0.7-0.5-1.1-1.4-1c-0.2,0-0.5-0.3-0.6-0.3
		c0.2-0.7,0.5-1.3,0.6-1.9c0.3-0.8,0.4-1.6,0.8-2.3c0.2-0.5,0.1-0.8-0.2-1.1c-0.4-0.3-0.8-0.5-1.2-0.7c-1.7-0.6-3.4-1.2-5.2-1.8
		c-0.4-0.1-0.9-0.2-1.3-0.2c-1.6,0.1-3.2,0.2-4.8,0.4c-1.1,0.1-2.2,0-3.3,0.2c-1.4,0.2-2.8,0.6-4.2,0.8c-2.3,0.4-4.7,0.7-7-0.1
		c-0.5-0.2-1.2-0.1-1.8-0.1c-0.7-0.5-0.2-1.3-0.4-2.1c-0.7-0.4-1.4-0.5-2.1-0.2c-1,0.5-1.9,0.3-2.6-0.2c-0.8-0.6-1.6-0.4-2.5-0.4
		c-0.3,0-0.6,0.2-0.8,0.1c-1.3-0.8-2.5,0.1-3.7,0.3c-1.1,0.2-2.2,0.7-3.3,0.7c-1.2,0-2.4-0.3-3.6-0.4c-0.3,0-0.7,0-1,0.2
		c0.4,0.3,0.9,0.6,1.4,1c-2.3,1.2-4.2,0.8-4.6-1.4c-3.4,0.1-6.8-0.3-10.2,0.6c-1,0.3-1.9,0.6-2.8,1c-0.4,0.2-0.6,0.6-1,1
		c-1.1-0.2-2.3-0.3-3.3,0.5c-0.2,0.2-0.6,0-0.9,0.1c-1.3,0.1-2.5,0.1-3.8,0.2c-1,0.1-2,0-2.6-1.1c0.9,0,1.7,0.1,2.5,0.1
		c0.4,0,0.9,0.1,1.2-0.1c0.8-0.4,1.5-0.2,2,0.2c1.2-0.4,2.4-0.7,3.5-1c0.4-0.1,0.8-0.3,1-0.6c1.7-1.7,3.7-2.3,6.1-2.1
		c2.4,0.2,4.8,0.4,7.2,0c1.1-0.2,2.2-0.1,3.2,0.5c1,0.6,2,0,3.1,0c0.9-0.1,1.9-0.2,2.8-0.5c1.5-0.4,3.1-0.9,4.6-1.4
		c0.3-0.1,0.4-0.6,0.7-0.9c0.3,0.1,0.9,0.3,1.2,0.1c0.3-0.2,0.4-0.8,0.4-1.2c0.1-0.7,0.1-1.4,0-2c0-0.3-0.4-0.6-0.6-0.8
		c-0.1-0.1-0.5,0.3-0.7,0.5c-0.1,0.1-0.1,0.3-0.2,0.4c-0.8,0.8-0.8,0.8-0.3,1.8c0,0.1,0,0.2,0,0.3c-0.8,0.2-0.9-0.7-1.2-1
		c-1.7-2.2-2.2-4.8-1.7-6.9c0.5,0.2,0.4,0.6,0.5,1c0.3,1.3,0.8,1.4,1.8,0.5c0.6-0.5,1-1.2,1.9-1.5c1.5-0.5,1.6-0.5,2.1,1.1
		c0.5,0.1,1.1,0.2,1.9,0.3c-0.4,0.3-0.6,0.5-0.8,0.6c-1.3,0.5-1.7,1.5-1.6,2.9c0,0.6,0,1.3-0.1,1.9c0,0.3-0.1,0.6-0.2,0.9
		c0,1.2,0.2,1.4,1.4,1.2c2-0.3,4.1-0.6,6.1-0.8c0.8-0.1,1.3-0.4,1.7-1c0.6-1.2,1.3-2.3,1.9-3.5c0.2-0.3,0.3-0.7,0.3-1
		c-0.5-2,0.2-3.8,0.9-5.5c0.1-0.3,0.3-0.6,0.3-0.9c0-0.8,0.3-1.4,0.8-2c1-1.2,0.6-2.5,0.5-3.8c0-0.6-0.8-0.7-1.4-0.9
		c-0.6-0.1-1.2-0.3-1.7-0.5c-1.7-0.7-1.9-2.1-0.4-3.2c0.7-0.6,1.5-1,2.3-1.5c0.3-0.2,0.7-0.3,1-0.5c0.7-0.6,0.6-1.2-0.1-1.7
		c-2.3-1.6-4.2-3.5-5.5-6c-1.1-2.1-0.3-3.9,1-5.2c1.3-1.2,2.6-2.2,4.3-2.9c1.2-0.5,2.3-0.4,3.5-0.3c0.9,0,1.8,0.3,2.5-0.4
		c0.4,0.8,0.7,1.5,1,2.2c0,0.1-0.1,0.2-0.1,0.2c-1.5,0.5-1.4,0.5-1.2,2.1c0.1,1.2-0.1,2.4-0.4,3.6c-0.2,1-0.8,2-1.1,3.1
		c-0.2,0.6,0.2,1.6,0.8,1.9c0.8,0.3,1,1.1,1.4,1.8c0.3,0.5,0,1-0.5,1.3c-0.4,0.2-0.9,0.4-1.4,0.6c-1.8,0.6-3.6,1.3-5.2,2.4
		c-0.4,0.3-0.6,0.7-1.1,1.2c0.8,0.4,1.4,0.8,2,1c0.3,0.1,0.6,0.1,0.9,0c1.3-0.6,1.5-0.5,1.8,0.9c0,0.1,0.1,0.2,0.2,0.4
		c0.1,0,0.3,0.1,0.4,0c1.1-0.4,1.1-0.3,1.8,0.5c0.6,0.8,1.2,1.5,1.9,2.2c0.4,0.4,0.8,0.6,1.4,0.3c0.6-0.3,1.2-0.5,1.7-0.8
		c1.1-0.5,1.5-1.1,1.3-2.1c-0.5-2.1-0.2-4.3-0.2-6.4c0-2.2,0.1-4.5,0.2-6.7c0.2-3.3,0.5-6.6,0.8-9.9c0-0.3,0.2-0.6,0.2-0.9
		c0.1-0.6,0.6-0.7,1.1-0.6c0.5,0,0.8,0.3,0.7,0.8c0,0.6,0,1.3-0.1,1.9c-0.1,2.3-0.4,4.6-0.4,6.8c0,3,0,5.9,0.5,8.9
		c0.4,2.2-0.1,4.3-0.7,6.3c-0.3,1-0.2,1.9-0.1,2.8c0.1,0.6,0.1,1.2,0.1,1.8c0,0.6-0.2,1.2-0.9,1.3c-0.5,0.1-0.9-0.4-1-1.2
		c-0.1-0.7-0.2-1.4-0.4-2c-0.2-0.6-0.7-0.8-1.1-0.3c-0.5,0.6-0.9,1.3-1.1,2c-0.1,0.4,0.2,0.9,0.4,1.4c0.6,1.4,1.3,2.7,1.9,4.1
		c0.1,0.2,0.5,0.4,0.7,0.5c1.2,0.3,2.2-0.2,2.8-1.4c1-2.2,2.2-4.4,3.1-6.7c0.7-1.7,1.2-3.4,1.8-5.2c0.7-2.2,1.5-4.4,2.1-6.7
		c0.7-2.5,1.3-4.9,1.7-7.4c0.8-4.6,1.1-9.3,1-14c0-0.9-0.2-1.9-0.3-2.8c-0.1-2.7-0.2-5.4-0.3-8.1c0-0.2,0-0.5,0-0.7
		c0.1-0.6,0.9-1.4,1.4-1.4c0.7,0,1,0.5,1.3,1c0.5,1,0.6,2,0.5,3.1c-0.1,1.3-0.2,2.5-0.3,3.8c-0.2,2.1,0,4.3,0.1,6.4
		c0.3,3.7,0.4,7.5-0.5,11.2c-0.4,1.5-0.4,3.1-0.7,4.6c-0.6,2.7-1.2,5.3-1.9,8c-0.5,1.9-0.8,3.8-1.5,5.7c-0.5,1.5-0.4,3-0.9,4.6
		c0.6,0.5,1.6,0.8,1.4,2c0.1,0,0.2-0.1,0.3-0.1c0.2-0.2,0.5-0.4,0.6-0.6c0.5-1.6,1.3-3.1,1.1-5c-0.1-1,0.3-2,0.6-3.1
		c0.5-2.2,1-4.4,1.5-6.5c0.3-1.2,0.9-2.3,1.5-3.4c0.1,0.5,0.2,1,0.4,1.6c0.2-0.2,0.3-0.3,0.4-0.4c0.6-1.7,1.2-3.3,1.8-5
		c1-2.7,2.1-5.3,3.2-8c0.6-1.4,1.3-2.7,1.9-4.1c0.6-1.3,1.2-2.7,1.7-4c0.6-1.3,1.2-2.6,1.8-4c0.6-1.4,1-2.9,1.7-4.3
		c1.5-3.1,2.4-6.4,3.7-9.6c0.3-0.7,0.5-1.6,0.6-2.4c0.6-3,1.3-6.1,1.4-9.2c0-1,0.1-2,0.9-2.9c0.4-0.4,0.2-1.3,0.2-2
		c0-0.7-0.2-1.3-0.4-2c-0.1-0.5,0.1-0.9,0.5-1.1c0.5-0.2,1-0.5,1.4-0.8c0.7-0.5,1.5-1,2.1-1.7c0.5-0.4,0.3-0.9-0.3-1.2
		c-0.4-0.2-0.8-0.4-1.2-0.4c-1.4,0-2.8,0-4.2,0c-1.5,0-3.1,0.1-4.6,0.1c-0.8,0-1.1-0.5-1.3-1.2c-0.2-0.6,0.1-0.7,0.6-0.9
		c0.7,1.2,1.7,1.3,3,1.1c1.6-0.3,3.3-0.3,4.9-0.3c0.9,0,1.9,0.2,2.8,0.5c1.7,0.5,2.1,2.1,0.8,3.5c-0.6,0.6-1.3,1.3-2.1,1.5
		c-1.3,0.4-1.6,1.3-1.4,2.4c0.2,1.6,0.5,3.2,0.8,4.8c0.3,1.4,1,2.5,2,3.5c0.2,0.1,0.2,0.4,0.3,0.6c-0.8-0.5-1.8-0.6-2.4-1.5
		c-0.3-0.6-0.9-0.4-1.1,0.3c-0.2,1.4-0.4,2.8-0.7,4.1c-0.3,1.6-0.7,3.1-1.1,4.6c-0.4,1.5-0.9,3.1-1.3,4.6c-0.8,2.7-1.7,5.4-3,7.9
		c-0.6,1.3-1.1,2.7-1.7,4c-1,2.5-2.1,4.9-3.2,7.4c-0.4,1-0.7,2-0.5,3.2c0.2,0.9-0.1,2-0.2,3.1c-0.5-0.3-0.8-0.5-1.3-0.8
		c-0.3,0.5-0.8,0.9-0.9,1.5c-1.3,3.6-2.6,7.1-3.8,10.7c-0.5,1.5-0.5,3.1-0.9,4.7c-0.5,2.1-0.6,4.2-1.7,6.2c-0.1,0.2-0.1,0.5-0.2,0.8
		c-0.4,1.6-0.6,1.8-2.4,1.7c-0.5,1-1.1,2-1.7,3.1c-0.5,1-1,1.1-2,0.7c-1.5-0.7-1.5-0.7-1.7-2.4c0-0.4-0.1-0.9-0.2-1.6
		c-1.2,1.2-1.2,2.8-2.2,3.9c0.3,0.3,0.6,0.4,0.8,0.6c0.7,0.6,0.6,1.3-0.1,1.8c-2.1,1.6-4.6,1.9-7.1,1.7c-0.6,0-0.9,0.1-1.3,0.4
		c-0.9,0.8-1.5,0.6-2.1-0.4c-0.2-0.3-0.3-0.8-0.5-1.1c-0.2-0.4-0.5-0.7-0.9-1c-1.5,1.2-2.4,2.6-2.9,4.3c-0.1,0.5-0.3,1-0.5,1.4
		c-0.3,1-1,1.4-1.8,1.3c-0.8-0.1-1.2-0.7-1.2-1.8c0-0.2,0-0.4,0-0.7c-1.1,0.5-1.3,1.6-1.9,2.3c-0.6,0.7-1,1.6-1.4,2.4
		c0.2,0.8,0.8,0.7,1.2,0.7c2.4-0.1,4.8-0.1,7.2-0.8c2.2-0.6,4.5-1,6.8-1.4c0.9-0.1,2-0.1,2.8,0.2c1.2,0.5,2.4,0.5,3.6,0.7
		c1.5,0.2,2.9,0.2,4.4,0.4c0.8,0.1,1.4-0.2,1.8-0.8c0.4-0.7,0.6-1.4,1.1-2c1.9-2.9,2.7-6.3,4-9.4c0.8-1.9,1.6-3.9,1.6-6
		c0-0.4,0.2-0.9,0.5-1c1.2-0.6,1.5-1.9,2.1-2.9c1.6-2.7,2.4-5.7,3.5-8.6c0.3-0.9,0.5-1.9,0.7-2.9c0.6-2.4,1.2-4.9,1.8-7.3
		c0.3-1.1,0.8-2.1,1.2-3.2c0.1-0.3,0.3-0.7,0.6-0.9c0.7-0.6,1.8-0.2,1.8,0.8c0,0.6-0.1,1.3-0.3,1.9c-0.7,2-1.5,3.9-1.8,6
		c-0.3,2.4-0.6,4.7-0.9,7.1c0,0.4-0.1,0.7-0.1,1.1c-0.3,1.9-0.5,3.9-0.8,5.8c-0.3,1.8-0.6,3.7-0.8,5.5c0,0.2-0.1,0.4-0.1,0.5
		c0.1,3.2,0.2,6.4,0.3,9.6c0,0.3,0.1,0.7,0.2,1.2c0.4-0.2,0.7-0.3,0.9-0.5c0.6-0.7,1.1-1.4,1.6-2.2c0.2-0.3,0.3-0.8,0.2-1.2
		c-0.3-0.9-0.1-1.7,0.2-2.5c0.5-1.8,0.9-3.7,1.4-5.5c0.1-0.3,0.2-0.6,0.3-0.9c0.7-2,1.5-3.9,2-5.9c0.5-2.1,1.4-4,2.1-6.1
		c0.2-0.7,0.5-1.4,0.7-2.2c0.8-2.4,1.6-4.8,2.4-7.2c0.2-0.7,0.3-1.4,0.5-2.1c0.7-2.1,1.4-4.2,2.1-6.3c0.2-0.5,0.4-0.9,0.9-0.8
		c0.5,0.1,0.9,0.5,0.9,1.1c0,0.7-0.1,1.4-0.2,2c-0.3,2.1-0.8,4.2-1,6.4c-0.3,4.2-0.9,8.4-1.2,12.7c-0.2,2.4-0.1,4.7-0.2,7.1
		c0,0.7-0.2,1.4-0.3,2.2c-0.1,0.8-0.4,1.6-0.5,2.4c-0.2,2-0.5,4-0.6,6c-0.1,2.5,0,4.9,0,7.4c0,0.4,0.2,0.7,0.3,1
		c0.1,0.4,0.3,0.8-0.2,0.9c-0.5,0.2-0.8-0.1-0.9-0.6c-0.2-0.7-0.4-1.3-0.4-2c-0.1-2.5-0.3-5.1-0.2-7.6c0-1.8,0.4-3.5,0.6-5.3
		c0-0.3,0.1-0.5,0.1-0.8c-0.3-2.5,0.4-4.9,0.3-7.3c0-0.8-0.1-1.6,0-2.3c0.3-3,0.6-6,0.9-9c0-0.4,0-0.7,0.1-1.4
		c-0.4,0.4-0.6,0.5-0.7,0.7c-0.7,2.3-1.7,4.5-2.1,6.9c-0.2,1.6-1,3-1.5,4.5c-0.4,1.4-0.8,2.8-1.2,4.2c-0.1,0.3-0.1,0.6-0.2,0.8
		c-1.2,2.2-1.4,4.7-2.5,6.9c-0.5,1.1-1.1,2.1-1,3.3c0,0.5-0.4,1-0.7,1.4c-0.5,0.7-1.1,1.3-1.7,1.9c-0.1,0.2-0.4,0.2-0.6,0.3
		c-0.8,0.3-1,0.6-0.4,1.2c0.4,0.5,0.9,0.9,1.5,1.2c1.1,0.7,2.4,1,3.6,1.1c0.5,0,0.9,0.1,1.4-0.4c0.3-0.3,0.8-0.3,1.3-0.3
		c-1,0.9-2.2,1.7-3.5,1.6c-1.3-0.1-2.5-0.7-3.9-1.1c-0.1,0.4-0.2,0.8-0.3,1.2c-0.3,1-1.1,1.3-1.7,0.4c-0.6-0.9-1-2-1.2-3
		c-0.3-1.6-0.3-3.2-0.3-4.8c-0.1-1.9-0.1-3.8-0.1-5.7c0-2.3,0.1-4.5,0.2-6.8c0-0.3,0-0.6-0.1-1.2c-0.4,0.5-0.6,0.7-0.7,0.9
		c-0.4,1.2-1,2.3-1.7,3.3c-0.2,0.3-0.3,0.5-0.5,0.8c-1,2.7-2.1,5.5-2.9,8.2c-0.6,2.2-1.7,4.1-2.6,6.1c-0.2,0.5-0.6,1-1,1.5
		c-0.5,0.7-0.3,1.1,0.6,1.4c0.1,0,0.3,0.1,0.4,0.1c3.7,0.7,7.4,1.4,11,2.1c0.3,0.1,0.6,0.1,0.9,0.1c2.1,0.1,4.3,0.1,6.4,0.3
		c0.9,0.1,1.7,0.5,2.6,0.8c0.5,0.2,0.8,0.7,0.7,1.2c-0.1,0.6-0.7,0.8-1.2,0.7c-0.6-0.1-1.3-0.1-1.7-0.4c-1.3-0.9-2.7-0.7-4-0.6
		c-1.8,0.2-3.4-0.2-5.2-0.3c-1.3-0.1-2.6-0.5-3.9-0.7c-1.6-0.3-3.3-0.8-4.9-1c-1.3-0.1-2.8-0.1-4.1,0.1c-0.8,0.2-1.4,0-2-0.4
		c-1.3-0.8-2.6-0.8-4.1-0.7c0,1,0.7,1.4,1.3,1.7c1.4,0.6,2.6,1.4,3.6,2.6c0.5,0.7,1.5,1,2.3,1.4c0.6,0.3,0.8,0.7,0.9,1.3
		c0.1,1,0.1,2.1,0,3.1c0,0.9-0.2,1.7,0.8,2.4c0.7,0.5,0.5,1.6,0.2,2.4c-0.3,0.8-0.6,1.6-0.3,2.6c0.7,0.5,1.4,0.2,1.9,0
		c1.5-0.6,3-1.4,4.4-2.2c1-0.5,1.5-1.3,1.4-2.6c-0.1-1,0.1-2,0.2-3c0-0.5-0.3-0.8-0.7-0.9c-0.9-0.1-1.9-0.2-2.8-0.2
		c-0.9,0.1-1.7-0.1-2.5-0.8c0.4-0.3,0.7-0.8,1.1-0.9c1.8-0.2,3.7-0.6,5.4-0.4c1.6,0.2,3-0.2,4.4-0.4c0.2,0,0.4-0.2,0.6-0.2
		c0.5-0.1,0.9,0,1.4-0.1c0.3,0.9-0.1,1.3-0.7,1.5c-1,0.3-2,0.6-3,0.8c-1.4,0.3-1.6,0.7-1.3,2c0.3,1.1,0.8,2.1,0.6,3.3
		c-0.1,0.4,0.4,1,0.7,1.4c0.8,1.3,1.7,2.7,2.6,4.1c0.3,0.1,0.7,0.1,1.1,0.3c0.2,0.1,0.3,0.5,0.4,0.7l0,0c-0.6-0.2-1.2-0.3-1.8-0.5
		c-0.4-0.1-0.8,0-1.1,0.4c-0.4,0.5-0.8,0.9-1.1,1.3c-0.3,0.5-0.7,1.1-0.7,1.6c0,2.2-0.6,4.3-1.1,6.4c-0.4,1.7-0.7,3.5-0.9,5.2
		c-0.1,1.5-1,2.5-1.5,3.8c-0.2,0.4-0.3,0.9-0.6,1.2c-0.9,0.9-0.8,1.9-0.3,2.9c0.6,1.4,0.4,2.8-0.2,4.1c-0.5,1.2-1.7,1.5-3,0.8
		c0.2-0.2,0.3-0.5,0.5-0.7c0.7-0.6,0.9-1.3,0.6-2.2c-0.1-0.3-0.1-0.7-0.1-1.1c-0.1-0.8-0.7-1.1-1.5-0.8
		C329.3,143.9,328.7,144.1,328.2,144.3c0.6-0.4,1.2-0.8,1.8-1.2c0.5-0.4,1.1-0.7,1.1-1.4c-0.1-0.9,0.4-1.4,0.9-2.1
		c1-1.3,1.8-2.7,1.9-4.4c0.1-1,0.3-1.9,0.7-2.8c0.2-0.5,0.3-1,0.5-1.4c0.3-0.7,0.2-1.4-0.2-2.1c-0.4,0-0.7,0.1-1.1,0.1
		c-0.1-0.8,0.3-1,0.7-1.4c0.6-0.4,1-1,1.5-1.5c-0.4-1.3,0.5-2.8-1.1-3.8c0.4-0.2,0.7-0.4,0.9-0.6c0.5-0.3,1.1-0.6,1.6-1
		c0.2-0.2,0.4-0.7,0.3-0.9c-0.3-1-0.3-2.1-1.4-2.9c-0.2,0.2-0.5,0.4-0.8,0.6c-0.4,0.3-0.8,0.8-1.3,1c-1.2,0.6-2.1,1.6-3,2.6
		c-1.3,1.5-3.1,2.5-4.7,3.6c-0.4,2.3-1.5,4.5-0.9,7c0.3-0.2,0.6-0.2,0.7-0.4c1-0.8,2-1.6,3-2.4c1-0.8,2-1.7,2.8-2.7
		c0.3-0.5,1-0.7,1.7-1.2c0.1,1.4-0.4,2.3-1.2,3c-1.4,1.3-3,2.4-4.4,3.6c-0.5,0.4-1,1-1.4,1.5c-0.2,0.3-0.4,0.6-0.4,1
		c-0.1,1.5-0.7,2.7-1.8,3.7c-0.3,0.3-0.5,0.8-0.5,1.2c-0.1,0.6,0,1.3-0.1,1.9c-0.2,1.3,0.3,2.3,1.5,2.9c0.5,0.3,0.9,0.5,1.5,0.4
		C327.3,144.1,327.8,144.2,328.2,144.3z M311.2,142.4c0.4-0.4,0.7-0.6,0.9-0.8c0.6-0.9,1-1.8,1.7-2.6c1.8-1.9,1.5-4.3,1.9-6.6
		c0.1-0.3-0.1-0.7-0.3-1c-0.1-0.2-0.3-0.4-0.5-0.4c-1.1-0.1-2.1-0.3-2.9,0.9c-0.2,0.3-0.6,0.6-1,0.6c-2.6,0.6-3.4,1.5-3.6,4.2
		c0,0.3,0,0.6,0,0.8c-0.2,0.8,0.2,1.2,0.8,1.5c0.5,0.3,1,0.8,1.4,1.2C310.3,140.8,310.7,141.5,311.2,142.4z M320.4,137.3
		c0.1-0.7,0.2-1.3,0.4-1.8c0-0.2,0.1-0.4,0.2-0.7c0.3-1,0.8-2,1-3c0.3-1.1,0.3-2.3,0.5-3.5c0.2-1.2-1.3-1.2-1.4-2.2
		c0-0.2-0.3-0.3-0.5-0.4c-0.1-0.1-0.3-0.1-0.4,0c-1,0.4-2,0.7-2.9,1.1c-0.4,0.2-0.5,0.5-0.5,1c0.2,1.2,0.4,2.3,0.6,3.5
		c0.2,1.2,0.3,2.4,0.3,3.7c0,1.9-0.1,1.9,1.8,2.6c0.1,0,0.1,0.1,0.3,0.3c-0.4,0.2-0.8,0.4-1.2,0.5c-0.7,0.3-1.4,0.5-2,0.9
		c-0.5,0.3-1,0.8-0.8,1.7c0.8-0.1,1.6-0.3,2.4-0.3c0.8,0,1.6,0.2,2.5,0.4C320.7,139.7,322,138.4,320.4,137.3z M301.6,70.5
		c0.8-1.2,1.2-2.4,1-3.8c-0.3-2.1-0.1-4.1,1.4-5.8c0.1-0.1,0.2-0.3,0.3-0.5c0.3-0.8,0-1.4-0.9-1.4c-0.5,0-0.9,0.2-1.4,0.1
		c-2.2-0.1-3.7,1.1-4.9,2.7c-1.2,1.5-1.2,2.8-0.2,4.1c0.7,1,1.5,1.9,2.2,2.9C299.7,69.8,300.6,70.3,301.6,70.5z M313.6,151.7
		c0.3-1.6,1.6-2,2.8-2.5c1.4-0.6,2.6-1.4,3.9-2.2c0.1-0.1,0.3-0.3,0.3-0.4c0.1-0.9,0.1-1.8,0-2.7c0-0.4-0.4-0.9-0.8-1.1
		c-0.7-0.3-1.5-0.6-2.2-0.5c-1,0.1-2,0.5-3,0.7c-0.7,0.2-1.2,0.8-1.4,1.4c-0.5,1.4-0.9,2.8-1.3,4.1c-0.1,0.3-0.2,0.6-0.2,0.9
		C311.7,150.5,312.3,151.4,313.6,151.7z M311.4,126.4c0.1-0.1,0.2-0.2,0.2-0.2c1,0.5,1.9,0.2,2.8-0.2c0.3-0.1,0.5-0.6,0.5-0.8
		c0-0.3-0.2-0.8-0.5-1c-0.4-0.3-1-0.4-1.6,0c-0.6,0.4-1.3,0.6-1.9,0.9c-0.3,0.2-0.7,0.4-0.9,0.6c-0.5,0.7-1.1,1.2-1.9,1.1
		c0,1.4,0,2.7,0,4c0,0.3,0.1,0.8,0.3,0.9c0.2,0.2,0.7,0.1,1,0c0.7-0.2,1.3-0.5,2-0.8c0.3-0.1,0.6-0.4,0.6-0.6c0-1,0.5-2.2-0.4-3.1
		C311.4,127,311.5,126.6,311.4,126.4z M305.8,149.4c0.5-0.2,0.9-0.3,1.1-0.5c0.4-0.4,0.8-0.9,1-1.4c0.2-0.5,0.5-0.8,1-1
		c0.3-0.1,0.7-0.3,1-0.5c0.5-0.3,0.6-0.7,0.4-1.2c-0.5-1.1-1.1-2.2-1.6-3.3c-0.2-0.5-0.6-0.9-1.1-0.7c-0.3,0.1-0.6,0.7-0.7,1
		c-0.4,2.2-0.7,4.4-1.1,6.6C305.7,148.6,305.8,148.8,305.8,149.4z M300.6,87.6c0.8-0.1,1.5-0.5,2.1-0.3c0.6,0.2,1,0.8,1.4,1.2
		c3-1.9,3.1-2.7,1.2-5.2c-0.2-0.3-0.4-0.6-0.7-0.8c-0.3-0.2-0.6-0.3-0.9-0.5c-0.7,1.1,0.9,1.9,0.2,2.9c-0.8,0.5-1.4-0.2-2.3-0.3
		C301.2,85.6,300.9,86.6,300.6,87.6z M304.9,124.8c-0.4-0.7-0.9-1.2-1.1-1.8c-0.5-1.3-1-1.6-2.7-1.1c0,0.6-0.2,1.3-0.1,2
		c0.2,1.1,0.5,2.3,1.4,3.2c0.5,0.5,1.2,0.4,1.3-0.2C303.7,125.8,304.2,125.2,304.9,124.8z M309.4,148.5c-0.9,0.1-1.2,0.4-1.5,0.9
		c-0.3,0.4-0.7,0.9-1.1,1.1c-0.3,0.1-0.8-0.2-1.3-0.3c-0.4,0.5-0.8,1-0.3,1.8c0.7-0.3,1.4-0.7,2-0.8c0.7,0,1.5,0.3,2.3,0.5
		C309.5,150.7,309.4,149.7,309.4,148.5z M324.1,123.7c-0.1-0.3-0.2-0.9-0.5-1c-0.3-0.1-0.8,0.2-1.2,0.4c-0.2,0.1-0.4,0.3-0.5,0.4
		c-0.5,0.6-0.4,1.7,0.3,2.1c0.4,0.3,0.8,0.2,1.3-0.7C323.7,124.6,323.9,124.2,324.1,123.7z M282.8,93.9c1.5,0.4,1.4,0.4,1.9-0.6
		c0.1-0.2,0.3-0.4,0.4-0.7c0.2-0.5,0.3-1,0.5-1.4c-0.1-0.1-0.2-0.1-0.3-0.2c-0.7,0.6-1.4,1.2-2.1,1.9
		C283,93.1,282.9,93.5,282.8,93.9z M327.3,122.3c1.3-0.5,2-1.1,2.3-2.3c-0.7-0.1-1.5-0.3-2,0.1C327,120.7,327.1,121.5,327.3,122.3z
		 M327.6,75.6c-0.3,0.9-0.5,1.5-0.7,2.2c-0.2,0.9,0,1.1,1.1,1.7C328.2,78.2,328.3,77,327.6,75.6z M311.7,100.5c0,0.1,0,0.2,0.1,0.3
		c0.5-0.1,0.9-0.2,1.4-0.3C312.6,100,312.2,100.5,311.7,100.5z M324.7,134.1c-0.1,0-0.2,0.1-0.3,0.1c0,0.2,0.1,0.5,0.1,0.7
		c0.1,0,0.3-0.1,0.4-0.1C324.9,134.5,324.8,134.3,324.7,134.1z"/>
	<path d="M331,33.8c0.3-0.3,0.6-0.5,1.1-0.9c-0.1,1.3-0.1,2.4-0.2,3.4c-0.1,1.1-0.2,2.3-0.2,3.4c0,0.5,0.2,0.9,0.3,1.5
		c0.6-0.3,0.7-0.7,0.8-1.2c0.3-1.9,0.7-3.7,1-5.6c0.2-1.4,0.2-2.9,0.3-4.4c0-0.4,0-0.8,0-1.2c0.1-0.6,0-1.1-0.4-1.5
		c-1.1,0.9-1.2,1.2-1.5,4.4c-0.7-0.6-0.8-1.5-0.7-2.1c0.2-1.4,0.5-2.9,0.9-4.3c0.1-0.5,0.3-1.1,1-1.2c0.7-0.1,1.1,0.3,1.5,0.9
		c0.8,1.2,0.9,2.5,0.9,3.8c0,2.1-0.1,4.1-0.2,6.2c0,0.3-0.1,0.5-0.1,0.8c-0.8,3.8-1.4,7.6-2.1,11.4c-0.2,1.3-0.6,2.6-0.8,3.9
		c-0.1,0.8-0.1,1.7,0,2.6c0,0.4,0.3,0.8-0.2,1.1c-0.5,0.3-1.1,0.3-1.5-0.1c-0.6-0.6-0.8-1.3-0.6-2.1c0.5-2.2,0.6-4.5,1.1-6.7
		c0.3-1.5-0.2-2.9-0.6-4.3c-0.1-0.3-0.5-0.7-0.8-0.8c-0.8-0.4-0.9-1.1-0.7-1.7c0.5-1.5,0.1-3.1,0.3-4.6c0.2-1.4-0.2-2.7-0.6-4
		c-0.2-0.6-0.5-1-0.8-1.5c-0.6-1-1-2-1.3-3.1c-0.5-2.2-0.4-4.5-0.1-6.8c0.2-1.2,0.1-1.2-1.1-1.2c-0.1,0-0.3,0.1-0.4,0
		c-0.3-0.1-0.5-0.3-0.8-0.4c0.2-0.2,0.3-0.5,0.6-0.6c0.8-0.4,0.8-0.4,1.1-1.1c-0.9-0.3-1.8-0.1-2.5,0.5c-0.8,0.7-1.5,1.4-2.7,1.7
		c0.2-1.3,1.3-1.5,2-2.1c0.8-0.8,1.8-1,2.8-1c1,0,1.9,0.4,3,0.6c0.4,1.2,0.3,2.3,0.1,3.5c-0.6,2.8-0.4,5.5,0.7,8.2
		c0.4,0.8,0.6,1.7,0.8,2.6c0.1,0.7,0.1,1.4,0.1,2.2C330.2,32.7,330.2,33.3,331,33.8z"/>
	<path d="M125.2,98.6c0.3-0.3,0.5-0.6,0.7-0.7c0.8-0.6,1.6-1,2.3-1.6c0.9-0.8,2.5-0.9,3.5-0.3c1.1,0.6,2,1.5,3.1,2.2
		c1.5,1.1,3,2.4,5.2,2.1c0.4-0.1,0.7,0,1.1,0.1c1.6,0.2,3.2,0.4,4.7,0.6c1.9,0.3,3.9,0.7,5.8,1.1c0.8,0.1,1.5,0.4,2.3-0.3
		c0.5-0.4,1.4-0.4,2.3-0.6c-0.6,0.9-1.1,1.7-1.6,2.4c-0.6,0.8-1.4,1.2-2.5,1c-1.3-0.3-2.6-0.4-3.9-0.7c-2.1-0.5-4.3-0.6-6.5-0.8
		c-2.4-0.3-4.8-0.5-7-1.5c-0.3-0.1-0.7-0.3-0.9-0.6c-0.7-0.8-1.8-1.3-2.1-2.5c-0.2-0.7-2.1-0.8-2.6-0.2c-0.3,0.3-0.7,0.6-1,0.9
		C127.2,98.9,126.3,98.8,125.2,98.6z"/>
	<path d="M317.9,22c-0.5-0.4-0.8-0.8-1.3-1.3c1.4-0.9,2.5-1.7,3.7-2.5c0.1,0.1,0.1,0.1,0.2,0.2c-0.2,0.2-0.3,0.5-0.5,0.7
		c-0.9,0.8-1.5,1.6-1,3c0.2,0.5,0,1.2-0.1,1.8c0.9,0.1,1.4-0.3,1.8-0.9c0.4-0.5,0.9-1,1.3-1.5c0.1-0.1,0.5-0.1,0.7,0
		c0.2,0.1,0.3,0.5,0.3,0.7c-0.2,0.9-0.4,1.8-1.3,2.4c-0.9,0.6-1.7,1.4-2.5,2.1c-0.1,0.1-0.2,0.1-0.2,0.2c-0.8,1.6-1.7,3.2-2.3,4.9
		c-0.8,2.2,0.2,3.8,2.4,4.3c0.5,0.1,0.9,0.3,1.6,0.5c-0.3,0.3-0.4,0.5-0.6,0.6c-0.3,0.1-0.7,0.1-0.9,0c-1.3-0.5-2.6-1.1-3.9-1.7
		c-0.2-0.1-0.4-0.4-0.4-0.6c-0.2-1.4-1-2.5-1.9-3.4c-1.2-1.3-3-1.8-4.8-1.5c-1,0.1-2.4,2.1-2.3,3c0.1,0.9,0.9,1.4,1.6,1.9
		c0.4,0.2,0.7,0.5,1.1,0.8c-0.7,0.6-1.6,0.8-2.1,0.2c-1-1.1-2.2-2-2.1-3.8c0.2-2.2,2.3-4.8,5.4-3.6c1.8,0.7,3.4,1.7,4.7,3.3
		c0.4-0.3,0.7-0.5,0.8-0.8c0.7-1.2,1.4-2.3,2.1-3.5c0.1-0.3,0.3-0.7,0.2-0.9c-0.5-1.3,0-2.4,0.2-3.6C317.8,22.6,317.8,22.3,317.9,22
		z"/>
	<path d="M241.7,90.7c1.3,0.4,1.4,0.6,0.9,1.6c-0.7,1.2-1.6,2.4-2.5,3.8c0.5,1.2-0.1,2.5-0.5,3.7c-0.2,0.5-0.2,1.1-0.4,1.6
		c-0.3,0.9-0.6,1.7-0.9,2.6c-0.1,0.5-0.1,1-0.2,1.7c1.2-0.3,2.2-0.7,3.2-0.8c1,0,1.9,0.3,3.2,0.5c-1.3,0.8-2.1,1.8-3.6,1.4
		c-0.7-0.2-1.2,0.1-1.7,0.6c-0.5,0.5-0.9,1-1.4,1.5c-0.6,0.6-1.1,0.7-1.7,0.4c-0.6-0.3-0.7-0.8-0.7-1.5c0-1.4,0.4-2.6,0.8-3.8
		c0.4-1.2,0.6-2.6,0.9-4c-0.2-0.1-0.5-0.3-0.8-0.5c-0.4,0.8-0.8,1.4-1.2,2.1c-0.3-0.2-0.6-0.4-0.9-0.6c0.5-0.8,0.9-1.6,1.3-2.3
		c0.1-0.1,0.2-0.2,0.3-0.2c1.4-1,2.7-2.2,2.9-4.1c0-0.1,0-0.2,0.1-0.3C239.8,93,240.7,91.8,241.7,90.7z"/>
	<path d="M317.3,55.2c-1.2-0.9,0.8-1.9-0.4-2.8c-0.9-0.2-2-0.7-3-0.6c-1.3,0.2-2.7,0.1-3.8,1c-0.7,0.6-1.5,0.9-2.4,0.7
		c-0.4-0.1-0.7-0.3-1-0.6c-0.7-0.5-1.3-1-2-1.5c-0.5-0.4-1.1-0.7-1.4-1.2c-0.6-1.1-1-2.2-1.3-3.4c-0.4-1.2,0.3-2,1.2-2.7
		c0.3-0.2,0.6-0.4,0.9-0.6c1.4-0.7,2.8-1.3,4.1-2.2c0.8-0.6,1.8-1,2.6-1.7c0.5-0.4,0.9-0.9,1.3-1.4c0.4-0.6,0.3-0.9-0.3-1.2
		c-0.5-0.2-1-0.3-1.4-0.4c-0.6-0.1-1-0.3-1.3-0.9c1.4-0.4,2.7,0.2,3.9,0.4c0.6,0.1,0.9,0.6,0.7,1.3c-0.1,0.4-0.2,1-0.5,1.3
		c-0.7,0.7-1.2,1.7-2.2,2.2c-0.9,0.5-1.5,1.4-2.4,2c-1.3,0.9-2.6,1.6-4,2.4c-1.2,0.7-1.1,0.8-1,2.2c0.1,2,1.4,3.1,2.8,4.1
		c0.6,0.4,1.1,0.1,1.6-0.2c0.9-0.5,1.8-1,2.8-1.3c0.6-0.2,1.3-0.2,1.9-0.1c0.7,0,1.5,0.1,2.2,0.1c1.5,0,2.4,0.7,2.8,2.1
		c0.1,0.4,0.1,0.8,0.3,1.2C318.2,54.1,318,54.7,317.3,55.2z"/>
	<path d="M161.2,100.1c0,0-0.3-0.1-0.6-0.3c0.9-1.6-0.4-2.7-1-4.2c0.7-0.2,1.3-0.3,1.9-0.4c0.1,0.4,0.2,0.7,0.2,1
		c0.4,2.4,1.7,4.3,3.3,6.1c0.7,0.8,1.6,0.9,2.5,1c1.9,0.2,3.9,0.4,5.8,0.6c0.5,0,1.1,0,1.6,0c0.2,0,0.5,0,0.5-0.1
		c0.6-1.1,1.3-0.6,2-0.1c0.1,0.1,0.3,0.1,0.4,0.1c1.3,0,2.5,0,3.8-0.1c0.9,0,1,0,2,0.5c-2.5,0.4-4.8-0.3-7,0.3
		c0.4,0.1,0.8,0.1,1.2,0.2c0,0.1,0,0.2,0.1,0.2c-0.2,0.1-0.5,0.3-0.7,0.2c-0.7-0.1-1.2-0.1-1.9,0.2c-0.4,0.2-1,0.1-1.5,0.2
		c-0.9,0.1-1.9,0.1-2.8,0.2c-0.2,0-0.5,0.1-0.7,0c-1.2-0.5-2.5-0.1-3.7,0c-1.9,0-3.4-0.6-4.3-2.3c-0.2-0.5-0.6-0.9-0.8-1.4
		C161.4,101.3,161.3,100.8,161.2,100.1z M173.2,104.4c1.4,0.7,1.4,0.7,1.8,0C174.5,104.4,174,104.4,173.2,104.4z M170.8,104.6
		c0-0.1,0-0.1,0-0.2c-0.3,0-0.5,0-0.8,0c0.1,0.2,0.2,0.3,0.3,0.3C170.5,104.7,170.7,104.6,170.8,104.6z"/>
	<path d="M291.3,76.1c-0.2,0.4-0.4,0.6-0.6,0.9c0.1,0.1,0.2,0.3,0.3,0.3c0.6,0.3,0.9,0.7,0.7,1.4c-0.1,0.2,0,0.5,0,0.7
		c0.5,1.5-0.2,2.8-0.8,4.2c-0.3,0.8-0.7,1.6-1.1,2.3c-0.7,1.3-1.2,1.5-2.5,0.6c-0.6-0.4-1-1-1.5-1.5c-0.6-0.7-1.2-1.4-1.8-2
		c-0.3-0.3-0.6-0.4-1.2-0.8c-0.1,0.8-0.2,1.3-0.1,1.8c0.2,1.6-0.4,3.1-0.6,4.7c0,0.3-0.4,0.5-0.6,0.8c-0.7-0.3-0.5-0.7-0.4-1.1
		c0.5-1.5,0.7-3,0.5-4.5c-0.1-0.7,0.1-1.5,0.2-2.1c0.1-0.4,0.5-0.8,0.8-1.2c1.9,1.1,2.9,2.8,4.1,4.3c0.1,0.1,0.2,0.3,0.3,0.5
		c0.9,1.2,1.5,1.1,2.3-0.1c1.2-1.7,1.6-3.6,1.8-5.5c0.1-0.6-0.3-0.8-0.8-0.9c-0.4-0.1-0.9-0.1-1.3-0.2c0.2-0.9,0.2-0.9,1.2-1.5
		c-0.4-1.3,0.6-2,1.3-2.8c0.6-0.7,2.2-0.2,2.5,0.8c0.2,0.7-0.9,1.8-1.8,1.6C292,76.4,291.7,76.2,291.3,76.1z"/>
	<path d="M37.2,21.1c-0.8,1.3-1.4,2.4-2,3.5c0.4,0.8,0.2,1.7-0.1,2.6c-0.4,1.4-0.7,2.9-0.6,4.4c0.1,1.1,0,2.2,0,3.3
		c0,0.8,0.1,1.6,0.2,2.4c0.2,1.1,0.4,2.2,0.7,3.4c-0.5,0.1-1.1,0.2-1.6,0.2c-1.2-0.7-0.6-1.8-0.8-2.7c0-0.2,0.2-0.5,0.1-0.7
		c-0.6-0.9-0.3-1.9-0.2-2.8c0-2.1,0.1-4.2,0.5-6.2c0.2-1.2,0.5-2.5,0.8-3.7c0.1-0.3,0.5-0.6,0.8-0.9c-0.4-1.1,0.6-1.8,1-2.6
		C36,21.1,36.7,21.1,37.2,21.1z"/>
	<path d="M233.8,102.2c-0.4,0.4-0.8,0.7-0.6,1.4c0.2,0.7-0.6,1-1.1,1.1c-0.6,0.1-1.3,0.1-1.9,0c-2.5-0.2-5,0.3-7.4,0.9
		c-1.2,0.3-2.5,0.4-3.7,0.9c-0.3,0.1-0.8-0.2-1.3-0.4c-0.3,0.2-0.8,0.4-1.4,0.7c0.1,0.2,0.2,0.4,0.4,0.7c-1.2,0.9-2.2,0-3.4-0.2
		c0.4-0.1,0.7-0.1,1.3-0.2c-0.9-0.8-2-0.3-3-1.1c0.4,0,0.6-0.1,0.8-0.1c1.4,0.3,2.8-0.1,4.2-0.4c1.5-0.3,3-0.7,4.6-1
		c0.8-0.2,1.6-0.3,2.3-0.6c0.7-0.3,1.6-0.2,2.4-0.2c0.4,0,1,0,1.3,0.2c1,0.6,1.9,0.1,2.9,0c1,0,1.8-0.7,2.4-1.5
		C232.8,102,233.1,101.5,233.8,102.2z"/>
	<path d="M350.3,46.1c0.1,0.4,0.2,0.8,0.3,1.1c-0.1,0.1-0.2,0.3-0.3,0.3c-0.4,0.1-0.8,0.4-1.1,0.3c-0.6-0.2-0.4-0.7-0.3-1.2
		c0.3-1.2,0.8-2.2,1.5-3.2c1.1-1.5,1.4-3.2,1.4-5c0-1-0.1-2,0.5-2.9c0.2-0.3,0.7-0.6,1-0.6c0.6,0,0.8,0.5,0.8,1.1
		c-0.1,1-0.2,2-0.4,3c-0.4,2-0.8,3.9-2.1,5.5C351.2,45.1,350.8,45.6,350.3,46.1z"/>
	<path d="M208.8,105.9c-0.6-0.4-1.2-0.4-1.9-0.3c-1.5,0.2-3.1,0.3-4.6,0.4c-0.7,0-0.7-0.2-0.4-0.9c0.1,0.1,0.3,0.3,0.4,0.4
		c0.4,0.5,0.7,0.6,1-0.1c0.1-0.2,0.2-0.4,0.4-0.4c1.4-0.2,2.9-0.6,4.3,0c0.6,0.3,1.4,0.2,2,0.5c0.6,0.3,1.2,0.8,1.8,1.2
		c-0.2,0.8-0.2,0.8,0.5,1.5c-1.2-0.2-2.4-0.4-3.6-0.7c-1.2-0.3-2.3-0.6-3.3-0.9C206.2,105.8,207.5,106.3,208.8,105.9z"/>
	<path d="M19.2,109.7c1.1,0.8,2,1.4,2.9,2.1c-0.3,0.4-0.9,0.5-1.5,0.4c0,1.5,0,1.5,1.3,1.9c0.2,0.1,0.4,0.2,0.6,0.3
		c0.1,0,0,0.2,0.1,0.3c-0.6,0.5-1.1,1-2.1,1c-0.4,0-0.9,0.4-1.5,0.7c-0.7-0.3-0.8-1.1-0.6-1.8c0.4-1.1,0.1-2.2,0.6-3.2
		C19.2,111,19.1,110.4,19.2,109.7z"/>
	<path d="M336.6,5.2c-0.3,0.6-0.6,0.9-1.2,0.8c-0.6-0.1-1.1-0.3-1.3-1c-0.3-0.8-0.6-1.6-0.9-2.5c-1.7,1.1-0.7,2.9-1.5,4.4
		c-0.1-0.5-0.3-0.9-0.3-1.3c0.1-1,0.2-2,0.3-3c0.1-0.6,0.2-1.2,0.3-1.7c0.1-0.6,0.5-0.8,1.1-0.9c0.6,0,1,0.3,1.2,0.8
		c0.2,0.6,0.4,1.3,0.4,2C334.8,4.5,334.8,4.6,336.6,5.2z"/>
	<path d="M305.7,196c0-0.2,0-0.5,0.1-0.7c0.4-0.7,0.2-1.2-0.3-1.7c-0.8-0.9-0.8-1.3-0.2-2.3c0.3-0.5,0.7-1.1,1-1.6
		c0.4-0.6,0.9-0.7,1.5-0.3c0.6,0.3,0.5,0.7,0.2,1.3c-0.3,0.6-0.4,1.2-0.6,1.8c-0.2,0.8-0.2,1.7-0.4,2.5c-0.2,0.4-0.7,0.7-1.1,1.1
		C305.9,196,305.8,196,305.7,196z"/>
	<path d="M346.3,90.9c-0.1-0.5-0.2-0.8-0.2-1.1c0.1-1.7,0.1-3.5,0.2-5.2c0-0.6,0.2-1.3,1.1-1.3c1,1.7,0.6,3.4,0.2,5
		C347.4,89.1,347.8,90.4,346.3,90.9z"/>
	<path d="M290.7,108.2c0.7,0.4,0.9,0.8,0.6,1.4c-0.5,1.2-0.9,2.4-1.3,3.5c-0.1,0.3-0.1,0.7,0.1,0.9c0.3,0.7,0.8,1.4,1.1,2.1
		c-1.5,0-2.6-1.5-2.3-3.2C289.1,111.3,289.8,109.7,290.7,108.2z"/>
	<path d="M81.2,107.1c0.5-0.5,1-0.5,1.3,0c0.3,0.4,0.5,0.9,0.7,1.3c0.2,0.6,0.2,1.2,0.3,1.9c0,0.3,0,0.5-0.1,0.8
		c-0.1,0.4-0.2,0.8-0.7,0.7c-0.3-0.1-0.6-0.3-0.8-0.6c-0.1-0.1-0.2-0.4-0.1-0.7C82,109.2,81.7,108.1,81.2,107.1z"/>
	<path d="M31,128.8c0.5,0.1,1,0,1.4,0.2c1.1,0.8,1.4,0.8,2.4,0c0.1,0,0.2-0.1,0.3-0.1c0.1,0.4,0.2,0.7,0.4,1.1
		c-0.6,0.3-1.2,0.7-1.8,0.9c-0.5,0.2-1,0.2-1.5,0.2c-0.2,0-0.4-0.2-0.5-0.3C31.2,130.2,31,129.8,31,128.8z"/>
	<path d="M294.6,89.7c-0.5-0.3-0.4-0.7-0.1-1.1c0.6-0.8,1.1-1.5,1.8-2.2c0.3-0.4,0.8-0.4,1.2,0c0.3,0.4,0.4,0.9-0.1,1.2
		c-0.4,0.3-0.8,0.5-0.8,1.1c0,0.2-0.3,0.4-0.6,0.5C295.5,89.3,295,89.5,294.6,89.7z"/>
	<path d="M199.6,105.3c-0.1,0.3-0.2,0.4-0.2,0.7c0.4,0,0.7,0.1,1.1,0.1c0,0.1,0,0.1,0,0.2c-1.8,0.3-3.6,0.6-5.5,0.9
		c0.3-0.5,0.5-0.9,0.7-1.3C196.9,105.7,198.2,105.5,199.6,105.3z"/>
	<path d="M336.8,61.1c0,0.3,0,0.7-0.1,1c0,0.4-0.1,0.9-0.1,1.3c0,0.8-0.4,1.5-1.1,1.7c-0.2,0.1-0.4,0-0.6-0.1
		c-0.1-0.1-0.2-0.3-0.1-0.5c0.5-1.2,1.1-2.4,1.6-3.6C336.5,61,336.6,61.1,336.8,61.1z"/>
	<path d="M304.7,170c-0.4-0.5-0.1-0.8,0.1-1.2c0.4-0.7,0.7-1.3,0.6-2.2c-0.1-0.6,0.2-1.3,0.4-2.1c0.6,0.6,0.4,1,0.3,1.5
		C305.8,167.4,306.1,168.9,304.7,170z"/>
	<path d="M35.8,44.3c-1.6-1.9-1.2-2.1,0-2.8c0.4,0.7,0.9,1.4,1.4,2.1C36.6,43.8,36.2,44,35.8,44.3z"/>
	<path d="M345,93.2c0-0.8,0.4-1.2,1-1.2c0.4,0,0.9,0.8,0.9,1.4c0,0.5-0.6,1.2-0.9,1.2C345.3,94.6,345,94.1,345,93.2z"/>
	<path d="M92,112.7c-1.3-0.5-0.9-1.5-1-2.2c0-0.7,0.1-1.4,0.2-2.1c0-0.1,0.2-0.2,0.4-0.5c0.2,0.4,0.4,0.8,0.5,1.1
		c0.1,0.8,0.1,1.6,0.1,2.4C92.2,111.7,92.1,112.1,92,112.7z"/>
	<path d="M183.5,104.9c-1.3,0.9-2.5,0.4-3.7,0.6c-0.3,0-0.6-0.3-1-0.6c0.8-1,1.5-0.1,2.2-0.3C181.7,104.5,182.5,104.8,183.5,104.9z"
		/>
	<path d="M356.6,41c0.5,1-0.3,1.3-0.8,1.8c-0.5,0.5-1,0.6-1.5,0.1C354.7,41.6,355,41.4,356.6,41z"/>
	<path d="M294.1,109.1c1.4,0.7,1.5,1.1,1.2,2.5c-0.4-0.1-0.8-0.3-1.3-0.4C294.1,110.5,294.1,109.8,294.1,109.1z"/>
	<path d="M156.6,97.7c0.4,0.5,0.7,0.8,1.1,1.3c-1,0.1-1.5,1.1-2.7,0.7C155.5,99,156,98.4,156.6,97.7z"/>
	<path d="M295,123c-0.3-1.1-0.6-2.2-0.9-3.3c1.4,0.7,1.2,2,1.2,3.2C295.2,122.9,295.1,123,295,123z"/>
	<path d="M225.9,105.5c1.1-0.5,2.2-0.2,3.3-0.2c0,0.1,0,0.2,0,0.3c-1.1,0.1-2.2,0.2-3.3,0.3C225.9,105.8,225.9,105.7,225.9,105.5z"
		/>
	<path d="M157.5,97.2c0.7-0.3,0.7-0.3,1-1.3c0.8,0.5,0.7,0.8-0.5,1.9c-0.1,0-0.2-0.1-0.2-0.1C157.7,97.5,157.6,97.4,157.5,97.2z"/>
	<path d="M230.2,105.2c0.8,0,1.4,0.1,2.1,0.1C231.7,106.5,231.4,106.5,230.2,105.2z"/>
	<path d="M303.8,170.7c0,1.2-1.2,1.3-1.4,2.3C302.2,171.7,302.4,171.4,303.8,170.7z"/>
	<path d="M286.1,102.8c0.9,0.1,1.5,0.2,2.2,0.2C287.8,104,287.1,104,286.1,102.8z"/>
	<path d="M38.4,19.4c-0.2,0.5-0.3,1-0.5,1.5c-0.7-0.2-0.9-0.5-0.7-1C37.3,19.5,37.6,19.1,38.4,19.4z"/>
	<path d="M37.8,138.7c-0.7,0.7-1.3,0.7-2.1,0.2C36.4,138.4,37,138.3,37.8,138.7z"/>
	<path d="M350.4,132.2c-0.4-0.7-0.8-1.3-1.2-2.1C350.2,130.6,350.4,130.9,350.4,132.2z"/>
	<path d="M296.4,90.6c-0.3,0.2-0.5,0.5-0.8,0.5c-0.1,0-0.3-0.3-0.5-0.5c0.2-0.2,0.4-0.4,0.7-0.5C295.9,90.1,296.1,90.4,296.4,90.6z"
		/>
	<path d="M330.5,10.7c0.2-0.8,0.3-1.2,0.5-1.8C331.4,10.1,331.4,10.1,330.5,10.7z"/>
	<path d="M265.3,102.9c-0.8,0.9-1.4-0.1-2,0C263.9,102.9,264.5,102.9,265.3,102.9z"/>
	<path d="M294.1,116.9c-0.6-0.1-1.3-0.2-2.2-0.4C293,116.3,293,116.3,294.1,116.9z"/>
	<path d="M305.7,196.9c0.1,0.5,0,1-0.6,1.3C304.9,197.5,305.5,197.3,305.7,196.9z"/>
	<path d="M32.7,141.7c0,0.5,0,0.8,0,1.1c-0.2,0-0.4,0-0.5-0.1C31.9,142.4,32,142.1,32.7,141.7z"/>
	<path d="M39.1,18.5c-0.2,0-0.5,0-0.7,0c0-0.2,0-0.3,0.1-0.5c0.2,0.1,0.4,0.1,0.7,0.2C39.1,18.3,39.1,18.4,39.1,18.5z"/>
	<path d="M37.7,141.6c-0.5-0.1-0.8-0.1-1.3-0.1C37.2,140.8,37.2,140.8,37.7,141.6z"/>
	<path d="M294.8,136.9c-0.2,0.2-0.5,0.5-0.7,0.7c-0.1-0.1-0.1-0.1-0.2-0.2c0.2-0.3,0.4-0.5,0.6-0.8
		C294.6,136.7,294.7,136.8,294.8,136.9z"/>
	<path d="M320.2,116.1c0.1-1,0.5-0.9,1-0.7c0,0.1,0.1,0.3,0,0.3C320.9,115.7,320.6,115.9,320.2,116.1z"/>
	<path d="M342.7,121.3c0.8-0.4,0.8-0.4,1.3,0.3C343.5,121.5,343.1,121.3,342.7,121.3C342.7,121.2,342.7,121.3,342.7,121.3z"/>
	<path d="M249.5,106.2c0.4,0,0.8,0,1.2,0.1c0,0.1,0,0.1,0,0.2c-0.4,0-0.8,0-1.2,0C249.5,106.4,249.5,106.3,249.5,106.2z"/>
	<path d="M35,138.6c-0.3,0-0.5,0.1-0.8,0.1c0-0.1,0-0.2,0-0.3c0.3,0,0.5,0,0.8,0C35,138.5,35,138.6,35,138.6z"/>
	<path d="M203.6,106.9c-0.4,0-0.8,0-1.2,0c0-0.1,0-0.2,0-0.3c0.4,0,0.8,0,1.2-0.1C203.6,106.7,203.6,106.8,203.6,106.9z"/>
	<path d="M33,138.6c0.1,0.1,0.2,0.2,0.3,0.2c-0.1,0.1-0.2,0.2-0.3,0.3c-0.1-0.1-0.2-0.2-0.2-0.3C32.8,138.8,32.9,138.7,33,138.6z"/>
	<path d="M289.8,143.3c-0.3,0-0.6,0.1-0.9,0.1C289.3,142.9,289.3,142.9,289.8,143.3z"/>
	<path d="M87.4,61.6c-0.3,0-0.5,0.1-0.8,0.1c0-0.1,0-0.2-0.1-0.3c0.2-0.1,0.5-0.1,0.7-0.2C87.4,61.3,87.4,61.5,87.4,61.6z"/>
	<path d="M199.6,107c0.3,0,0.6-0.1,0.9-0.1c0,0.1,0,0.2,0,0.3c-0.3,0.1-0.6,0.1-0.9,0.2C199.6,107.2,199.6,107.1,199.6,107z"/>
	<path d="M195,107.8c-0.3,0.1-0.5,0.2-0.8,0.3c0-0.1,0-0.1-0.1-0.2C194.5,107.8,194.7,107.7,195,107.8
		C195,107.7,195,107.7,195,107.8z"/>
	<path d="M35.7,111.2c0-0.2,0-0.3,0.1-0.5c0,0,0.2,0,0.2,0c0,0.2,0,0.3,0,0.5C35.8,111.3,35.7,111.3,35.7,111.2z"/>
	<path d="M267,103.2c-0.3,0-0.5,0-0.8,0c0,0,0-0.1,0-0.1c0.3,0,0.5,0,0.8,0C267,103.1,267,103.1,267,103.2z"/>
	<path d="M307.9,160.8c-0.1,0.1-0.2,0.3-0.3,0.4c0,0-0.1-0.1-0.1-0.1C307.6,161,307.7,160.9,307.9,160.8
		C307.8,160.8,307.8,160.8,307.9,160.8z"/>
	<path d="M190.7,108.3c0.3,0,0.6,0,1,0c0,0.1,0,0.1,0,0.2c-0.3,0-0.6,0-1,0C190.7,108.4,190.7,108.3,190.7,108.3z"/>
	<path d="M87.8,82.5c-1.5,0.2-1.6-1.2-2.5-1.6C86.7,80.1,86.5,80.4,87.8,82.5z"/>
	<path d="M60.3,77.8c-0.1-0.8,0.5-0.7,0.9-1C61.1,77.5,61.1,77.5,60.3,77.8z"/>
	<path d="M333,129.5c-0.3,0.5-0.5,0.8-0.8,1.3C331.9,129.9,331.9,129.5,333,129.5z"/>
</g>
</svg>
