<?xml version="1.0" encoding="utf-8"?>
<!DOCTYPE svg PUBLIC "-//W3C//DTD SVG 1.1//EN" "http://www.w3.org/Graphics/SVG/1.1/DTD/svg11.dtd">
<svg version="1.1" xmlns="http://www.w3.org/2000/svg" xmlns:xlink="http://www.w3.org/1999/xlink" x="0px" y="0px"
	 viewBox="0 0 1294.9 329.2" enable-background="new 0 0 1294.9 329.2" xml:space="preserve">
<g>
	<path d="M391.7,230c-2.7-0.2-3.8-2.2-4.4-4.3c-0.8-2.6-2.5-4.9-3.1-7.4c-1.5-5.9-6.5-10.1-7.4-16.2c-0.2-1-1-2-1.5-2.9
		c-0.4-0.8-1.1-1.6-0.3-2.3c0.9-0.9,1.2,1.1,2.2,0.7c0.2-1.4-0.7-2.1-1.8-2.3c-2.4-0.3-3.3-2-3.8-4c-0.6-2.1-1.5-4.2-2.7-6
		c-0.7-1.1-1-2.4-0.7-3.9c1.1-4.2,0.2-6.8-3.5-8.6c-3.8-1.8-4-5.3-5-8.5c2.2-3.1-0.3-5.4-1.4-7.9c-0.5-1.1-0.9-2.3-1.2-3.5
		c-0.2-0.8-0.4-1.7-1-2.4c-0.6-0.6-1.1-1.6-2-1.4c-1.3,0.2-0.9,1.5-1.1,2.4l0.1-0.1c-0.9-1.8-2.2-3.6-0.2-5.6
		c0.6-0.6,0.1-1.6-0.4-2.4c-0.8-1.1-1.3-0.3-2.1,0c-1.3,0.5-2.2-0.2-2.3-1.5c-0.1-2.1-0.9-3.7-2.1-5.3c-0.7-0.9-1.3-2.1,0.7-2.9
		c1.3-0.5,0.4-4-1-4.5c-0.6-0.2-0.9,0.2-0.9,0.8c0,0.4,0.4,1-0.4,1.4c-1.3-1.5-1.9-3.3-2.7-5.1c-0.3-0.6-0.1-1.1,0.3-1.7
		c1.6-2.8,1.2-4.2-1.8-6.5c-1.1,0.4,0.2,1.7-0.7,2.2c-0.4,0.1-0.7-0.2-0.8-0.5c-2.4-6.4-6-12.3-8.1-18.8c-0.6-2-3.4-2.1-5.2-0.2
		c-2.1,2.2-4.5,4.2-5.9,7.1c-0.5,1.1-1.2,2.1-1.9,3.1c-1.2,1.8-1.4,3.6-0.4,5.6c2.6,5.4,4.7,11.1,7.2,16.5c2.1,4.4,5.2,8.6,7.3,13
		c2.5,5.2,5.5,10.1,6.9,15.8c0.5,2.1,2.1,3.6,2.9,5.5c3.3,7.8,7.7,15,11,22.9c2.2,5.3,5.1,10.3,7.7,15.5c1.4,2.9,2.8,5.9,4,8.9
		c0.8,2,2.5,3.3,3.4,5.2c3.1,6.3,6.5,12.4,9,18.9c0.9,2.3,2.1,4.4,3.1,6.6c0.3,0.6,0.6,1.1,0.8,1.7c0.2,0.8,0.4,1.8-0.4,2.4
		c-1,0.6-1.6-0.3-2.2-0.9c-2.1-2.3-3.5-5-4.5-8c-0.8-2.4-0.8-2.4-3.4-3.9c-0.9,1.4,0.6,2.2,0.8,3.8c-2.5-2.3-4.5-4.2-5.4-7.4
		c-0.7-2.8-2.7-5.2-3.9-7.9c-1.8-4.2-3.6-8.5-3.6-13.2c0-1.6-0.8-2.8-2.1-3.6c-4.8-2.9-6.9-7.8-8.9-12.7c-1-2.6-1.8-5.3-3.7-7.6
		c-0.9-1.1-1-2.5-1.4-3.8c-0.5-1.6-0.7-3.3-2.2-4.5c-1-0.8-0.7-2-0.5-3.1c0.4-2.8,0.2-5.1-3.2-6c-1.3-0.4-1.9-1.5-0.8-2.9
		c1.9-2.5,1-5.1-0.5-7.1c-1.8-2.4-3.4-4.8-4.8-7.3c-0.5-0.9-0.6-2.4-2.6-1.6c-0.9,0.3-1.8-1.4-2.3-2.5c-0.5-1.4-1-2.8-2-3.9
		c-1.2-1.2-1.5-2.5,0-3.8c0.5-0.4,0.9-1.2,0.5-1.7c-2-2.8-0.9-6.7-3.5-9.5c-1.7-1.9-2.3-4.6-4.3-6.4c-1.6-1.5-1.9-0.3-2.4,1.3
		c-0.9-1.4-1.4-3.2-3.4-3.1c-1.8,0.1-2.8,1.3-3.9,2.6c-1,1.1-2,2.2-2.1,3.8c-0.1,2.1-1.4,3.6-2.7,5.1c-2.9,3.3-3.3,5.4-1.1,9.2
		c2.5,4.5,4.4,9.3,7.3,13.6c1.2,1.7,1.8,3.7,2.3,5.8c1.8,6.6,4.5,13,8.6,18.5c2.2,2.9,3.3,6.3,4.6,9.6c1.8,4.3,4,8.4,6.4,12.4
		c2.1,3.5,3.8,7.1,5.3,10.9c0.8,2,1.8,3.8,3.1,5.5c1,1.3,2.3,2.5,2.6,4c1.1,4.3,3.6,8,5,12.2c0.4,1.4,1.3,2.6,2,3.9
		c0.4,0.8,1,1.4,1.3,2.2c0.6,1.5-0.1,3-1.6,3.6c-1.5,0.7-2.4-0.4-3-1.4c-1-1.7-1.7-3.6-2.5-5.3c-0.4-0.7-0.6-1.7-1.9-1.8
		c-0.5,1.8,2.4,2.7,1.3,4.7c-1.1,0.2-1.9-0.7-2.1-1.5c-1.4-4.8-5.2-8.3-6.9-13c-0.4-1.2-1.3-2.3-1.4-3.7c-0.1-0.8-0.5-1.8-1-2.3
		c-3.9-3.8-3.7-9.5-6.8-13.7c1.7-0.8,1.6,1.2,2.6,1c0.1-3.6,0-3.8-3.2-4.9c-0.7-0.3-1.3-0.5-1.7-1.3c-2.2-4.4-4.4-8.6-7.3-12.6
		c-1.1-1.5-1.6-3.8-0.4-6c0.7-1.2,0.6-2.2-1.5-2.3c-2-0.1-3.1-2.2-2.6-4.3c0.6-2.8,0.6-2.8-1.9-4.1c-1-0.5-3-0.4-2.6-2
		c0.4-1.7,2.3-0.4,3.4-0.8c0.3-1,0-1.8-0.2-2.6c-0.7-2.5-1.2-2.6-3.1-0.7c-0.5,0.5-1,0.8-1.5,0.3c-0.9-0.8-1.4-1.8-0.4-2.8
		c0.4-0.4,1.3-0.1,1.5-0.9c-0.1-1-0.9-1.1-1.6-1.3c-1.5-0.4-2.3-1.4-2.9-2.7c-1.6-3.3-3.7-6.4-5-9.8c-0.2-0.6-0.4-1.2-0.8-1.6
		c-3-2.9-3.7-7.1-5.9-10.5c-0.9-1.3-1.1-2.8,0.1-4.1c0.7-0.8,0.7-1.5-0.3-2.1c-2.1-1.2-3.3-3.2-4.9-4.9c-2.1-2.1-2.8-2.2-4.9-0.3
		c-1.9,1.7-3.8,3.5-5.1,5.8c-0.8,1.4-1.9,2.5-3,3.7c-3.5,3.6-4.2,7.6-1.9,12c3.2,6.2,5.7,12.7,8.1,19.3c0.9,2.4,2.1,4.6,3.9,6.6
		c2,2.1,2.7,5.1,3.9,7.8c1.4,3,2.2,6.3,4.1,9c3.8,5.4,5.1,11.9,8.5,17.4c1.6,2.6,3.2,5.8,3.4,9.2c0,0.2,0,0.5,0.2,0.7
		c3.7,4.2,4.4,9.8,6.4,14.7c0.8,2.1,1.6,4.1,3,5.9c0.9,1.2,1.4,2.6,1.8,4c0.6,2,1.4,3.9,2.5,5.7c0.8,1.3,1.5,2.7-0.6,3.6
		c-0.7,0.3-0.9,1.1-1.3,1.7c-1.2,2-2.5,2.1-3.9,0.3c-1.1-1.4-1.5-3.1-1.7-4.8c-0.2-1.2-0.4-2.4-1.3-3.4c-5.2-5.9-8.4-12.9-11-20.2
		c-1.1-3.2-2.8-6.3-3.5-9.7c-0.4-1.6-2.1-2.4-2.6-4c-0.7-2.5-1.6-4.8-2.1-7.3c-0.4-1.9-1.1-3.6-2.2-5c-2.1-2.6-3.5-5.5-4.4-8.7
		c-1-3.5-2.9-6.7-5.1-9.6c-0.9-1.2-1.5-2.6-2.2-3.9c-0.4-0.8-0.6-1.8-1.2-2.3c-2-1.6-2.7-3.8-2.9-6.1c-0.1-1.1-0.5-2.2-1.3-3
		c-2.1-2.1-2.7-4.8-3.6-7.5c-0.9-2.9-1.8-5.8-4.3-8c-1.2-1.1-2.2-1.5-3.4-0.1c-0.1,0.2-0.4,0.4-0.6,0.5c-1.2,0.5-2.7,1.4-3.8,0.4
		c-1.3-1.2-0.6-2.7,0-4.1c0.1-0.3,0.4-0.6,0.6-0.9c1.1-2,3.3-3.7,2.6-6.3c-0.9-3.4-1.3-7-4.1-9.7c-1.6-1.5-2.2-1.9-3.6-0.2
		c-3.4,4-7.5,7.4-9.5,12.4c-1,2.4-3,3.8-4.8,5.4c-1.4,1.3-2.3,2.4-2.2,4.3c0.1,2-0.7,2.1-2.2,1.1c-0.3-0.2-0.6-0.4-1-0.5
		c-0.4-0.1-0.8-0.1-1,0.2c-0.1,0.3-0.1,0.8,0,1c0.3,0.5,0.8,1.2,1.3,1.2c2.1,0.1,3.1,2.1,5.3,2.7c-1.4,1.6-2.5,3.1-3.8,4.3
		c-1.3,1.3-2.3,0.9-2.9-0.9c-0.1-0.2-0.2-0.5-0.2-0.7c0.3-2.7-0.8-4.9-2.1-7.1c-0.8-1.3-0.3-2.8-0.2-4.3c0.2-1.6,0.5-3.7-2.3-3.5
		c-0.7,0-0.9-0.7-1.2-1.3c-1.1-2.2-2.4-4.3-2.9-6.7c-0.3-1.6-0.9-3.1-2-4.3c-0.5-0.5-1-1.1-1-1.9c0.3-4.8-4.2-6.7-6.2-10.1
		c-0.7-1.2-2.4-0.9-3.4,0.6c-4.7,7.1-10.7,13.1-15.8,19.9c-1.5,2-1.9,4.4-0.6,6.9c0.6,1.1,2.5,2.9-0.9,3c-0.8,0-0.7,0.9-0.4,1.5
		c0.5,1.4,1.3,2.7,0.6,4.2c-1-0.1-1-1-1.3-1.6c-1.7-3.8-4.7-4.9-8.5-2.9c-1,0.5-2,0.9-3.1,0.4c-1.9-0.8-2.3-1.9-1.2-3.7
		c1-1.6,2-3.1,3.2-4.5c1.4-1.7,1.5-3.9,2.1-5.9c0.2-0.7-3.1-8.3-3.7-8.8c-2.2-1.7-5.8-1-6.2,1.7c-0.5,3-2.6,4.4-4.4,6.1
		c-1.4,1.3-2.8,2.4-2.7,4.6c0.1,1-0.6,1.8-1.2,2.6c-2.7,3.6-4.1,7-2.1,11.8c1.2,2.7,1.9,5.6,3.6,8.1c0.6,1,0.6,1.7,0.2,2.7
		c-0.9,2.3-1.5,4.6-0.9,7.1c0.1,0.4,0,0.8,0.2,1.1c0.6,1,0.8,2.5,2.3,2.6c1.2,0.1,1.9-0.9,2.4-2c0.1-0.3,0.3-0.7,1-0.8
		c0.5,1.8,1,3.6,1.6,5.5c-0.7-0.2-1.2-0.2-1.1,0.7c0.1,0.5,0.4,1,0.9,0.7c0.6-0.4,0.3-1,0-1.6c2.8,2.2,4,5.2,4,8.7
		c0,1.8,0.1,3.1,1.9,3.9c1,0.4,1.2,1.5,1.6,2.4c0.5,1.3-0.6,1.3-1.3,1.7c-0.3,0.1-0.6,0.7-0.6,0.8c1,2,0.1,4.4,1.7,6.3
		c1.3,1.6,2.3,3.4,2.5,5.6c0.1,1.3,1.3,2,1.9,3.1c0.9,1.3,1.8,2.7,2.3,4.2c0.3,0.8,0.7,1.7,1.8,1.4c1.1-0.3,1.1-1.2,1-2.1l0,0.1
		c1.1,0.7,2,1.9,1.4,3c-1.2,2.1-0.3,3.7,0.3,5.6c0.9,2.5,1.6,5.1,2.4,7.7c0.5,1.5,1.6,2.4,2.7,3.4c0.5,0.5,1.1,0.8,1.6,0.1
		c1.4-2.1,2.3-0.6,2.9,0.5c1.5,2.8,2.7,5.7,4.1,8.6l0.1-0.1c-1.9,0.4-2.6,1.6-2.2,3.5c0.3,1.4,0.5,2.9,0.7,4.4c0.1,0.5,0,1-0.4,1.3
		c-0.6,0.4-1.2,0.2-1.7-0.2c-0.9-0.7-1.3-1.7-1.7-2.8c-1.2-3.2-2.9-6.1-4.6-9.1c-2.2-4-4.8-8-5.8-12.6c-0.7-3.2-3.2-5.5-4.3-8.5
		c-0.4-1-0.6-2.2-1.1-3c-2.3-4-3.1-8.6-5.3-12.6c-3.1-5.8-7.3-11-8.9-17.6c-0.3-1-0.9-2.1-1.5-2.9c-1.2-1.6-2-3.3-2.1-5.4
		c-0.1-2.3-1.7-4.1-2.8-5.9c-1.6-2.6-2.5-5.3-2.5-8.3c0-1,0.1-1.8-1.4-2c-1-0.1-1.1-1.5-1.7-2.3c-1.6-1.7-3-2-4.6-0.3
		c-1.7,1.8-4.2,1.4-5.9,2.9c-0.5,0.5-1.2-0.1-1.4-0.7c-0.5-1.8-1.2-3.6,0.2-5.3c1.8-2.2,2.6-5,4.2-7.3c0.9-1.4,1.2-3,0.8-4.6
		c-0.5-2-1-4.1-1.7-6c-1-2.6-2.7-2.9-5-1.3c-1.4,0.9-2.1,2.1-2.7,3.6c-1.1,2.4-3.1,4.4-4.5,6.7c-1.7,2.7-1.4,5,0.1,7.5
		c1.5,2.5,2.8,5.1,4.2,7.8c0.4,0.8,0.7,1.6,0.8,2.4c0.2,1,0.3,1.7-1.2,2c-2.2,0.4-2.6,1.7-1.2,3.4c1.6,2,3.1,4,4.1,6.1
		c1.1,0.1,1.2-0.4,1.3-0.9c0.3-1.2,1.2-1.4,1.9-0.6c1.8,2.2,2.6,4.9,3.6,7.5c0.3,0.8-0.6,1.1-1.4,1.1c-4.1,0.4-6.5-2.3-8.8-5.1
		c-1.7-2.1-3.1-4.5-2.9-7.4c0.1-0.9-0.1-1.9-0.8-2.4c-2.8-1.8-3.4-5-5-7.6c-2.1-3.6-4.3-3.7-7.2-0.6c-2.8,3.1-3.9,7-6.1,10.4
		c-0.7,1.1-0.7,2.6-0.3,3.9c0.7,2.1,1.1,4.3,2,6.3c0.7,1.7,1,2.8-1.3,3c-0.5,0-1,0.2-1,0.8c0,0.6,0.4,1,0.9,1
		c4.8,0.9,6.7,4.1,7.1,8.6c0.1,0.9,0.7,1.6,1.3,2.2c0.8,0.8,1.4,1.7,1.3,2.9c-0.1,0.4,0.1,1.1,0.4,1.4c2.7,2.6,3,6.4,4.6,9.5
		c0.4,0.9,0.8,1.7,1.4,2.5c0.6,0.8,1.4,1.7,1.3,2.6c-0.2,4,2.9,6.5,4.2,9.8c0.4,1.1,0.9,2.3,1.2,3.5c0.3,1.1,0.5,2.3,1.3,3
		c2.8,2.2,3.9,5.6,6.5,7.9c1.5,1.3,1.6,3.3,1.9,5.1c0.5,2.6,0.6,5.4,2.5,7.6c0.8,1,1.9,2.2,1.2,3.7c-0.8,1.6-2.4,0.3-3.7,0.4
		c0.5,1.6,1,2.9,1.6,4.8c-2.4-0.8-3.9-2.1-4.6-3.7c-1.2-3-4.1-5.4-3.4-9.1c0.2-1-0.8-1.8-1.4-2.5c-1.8-2.2-2.9-4.8-4.3-7.2
		c-1.8-3-2.6-6.5-4.8-9.4c-1.4-1.8-1.6-4.3-3.2-6.1c-0.2-0.2-0.4-0.7-0.2-1c0.3-0.9,1.3-1.5,0.5-2.6c-1.7-2.5-2-5.9-4.4-8
		c-3.1-2.9-4-6.7-4.7-10.5c-0.2-1.4-0.5-2.7-1.3-3.7c-0.9-1.2-1.9-2.1-1.1-3.9c0.4-0.8-0.6-1.7-1.3-2c-2-0.9-2.6-2.4-2.5-4.4
		c0-0.8-0.5-1.4-0.9-2c-2.6-3.8-3.2-3.5-7.2-1.3c-4,2.2-5.8,6.2-9.1,8.9c-0.7,0.6-1.2,1.2-1.9,1.8c-0.5,0.4-1.1,0.7-1.7,0.2
		c-0.6-0.5-0.5-1.1-0.3-1.7c1.2-2.8,1.9-5.6,4-8.2c2.9-3.4,5-7.5,7.2-11.5c1.5-2.8,0.5-5.9-2-7.9c-0.8-0.6-1.6-0.5-2.4-0.2
		c-1.6,0.6-10,7.9-10.4,9.6c-0.9,3.9-3.9,6.5-5.6,9.8c-2.4,4.5-2.5,8.2,0.6,12.6c0.4,0.5,1,0.9,1.1,1.5c1.1,6.5,6.4,11.3,7.4,17.9
		c0.1,0.9,0.6,1.6,1.2,2.2c0.4,0.3,0.9,0.7,1,1.1c0.8,5,4.8,8.4,6.6,12.9c1,2.5,3.1,4.6,4.4,7.1c0.4,0.8,1,1.5,1.2,2.3
		c0.6,3.2,2,6,3.6,8.7c1.2,2.2-0.1,4.8-2.4,5.6c-1.2,0.4-2.2,0.2-2.9-0.8c-0.9-1.3-2-2.6-2.5-4.1c-1.3-4.3-3.6-8-5.9-11.8
		c-1.6-2.6-3.1-5.3-4-8.2c-0.3-0.8-0.9-1.4-1.4-2.1c-1.5-1.8-3.7-3.4-2.9-6.3c-1.8-1.8-0.6-4.9-3-6.5c-0.3-0.2-0.6-0.6-0.6-0.9
		c0.4-4.7-3.8-7.4-5.2-11.3c-0.6-1.7-0.9-3.4-2.9-4.3c-1.9-0.8-5.1-0.1-5.3,1.7c-0.3,3.2-3,4.7-4.4,7c-0.5,0.8-1.4,1.4-1.6,2.4
		c-0.8,3.2-3.2,5.1-5.7,6.9c-1,0.7-1.8,1.7-2.5,2.6c-1.5,2-3.4,3.5-5.6,4.7c-0.6,0.3-1.2,0.4-1.7-0.1c-0.5-0.6-0.4-1.1,0.3-1.5
		c1.8-1,1.6-3,2.1-4.5c0.8-2.7,2.4-4.8,4.1-6.8c1.5-1.8,2.8-3.6,3.7-5.8c1.3-3.3,3.4-6.2,5.6-9c2.6-3.5,4.3-7.4,4-11.9
		c-0.2-3.5-2.8-5.9-4.3-8.8c-0.5-0.9-1.5-0.5-2.3-0.1c-0.6,0.3-0.9,0.8-1.2,1.4c-1.5,2.5-5,3.1-5.5,6.5c-0.4,2.8-2.1,5.2-3.8,7.5
		c-1.4,2-2.8,4-3.9,6.2c-0.8,1.6-1.7,3.2-3.8,3.6c-1.6,0.3-2,2.1-2.6,3.4c-1.1,2.5-2.6,4.4-4.5,6.4c-2.6,2.7-6.2,4.4-8,7.9
		c-0.4,0.8-1.1,0.9-1.9,0.4c-0.8-0.5-1.4-1-0.8-2.1c3-5.4,4.9-11.2,9.2-15.9c2.7-2.9,5.1-6.4,6.6-10.4c1.3-3.4,3.8-6.3,5.8-9.4
		c3.1-4.7,6.2-9.4,10.2-13.5c2.4-2.5,2.1-6.7-0.3-9.8c-0.4-0.6-1-1.1-1.5-1.6c-3.2-3.5-3.1-3.3-5.2,0.5c-2.7,5.1-5.5,10-8.6,14.8
		c-1.9,2.8-3.1,6.1-5.4,8.7c-1.2,1.3-2.8,2.3-3.1,4.3c-0.1,0.6-1.1,1.4-1.9,1.7c-2.8,1.2-5.2,3-7.6,4.9c-0.4,0.3-0.8,0.6-1.3,0.1
		c-0.2-0.3-0.5-0.7-0.4-1c1.1-2.9,0.6-6.5,3.7-8.5c0.8-0.5,1.3-1.4,1.7-2.4c2.4-5.9,5.5-11.5,8.7-16.9c3.6-6.1,6.4-12.6,10.5-18.4
		c1.8-2.5,2.1-5.3,0.6-8.3c-1.4-2.9-3-5.8-3.1-9.3c0-1.3-1.7-2.3-3-2.9c-1.1-0.5-1.6,0.8-2.4,1.3c-1.7,1.2-2.3,3.1-3.3,4.7
		c-2.2,3.6-2.7,7.8-5,11.4c-0.5,0.8-0.8,1.8-1.8,2.2c-1.1,0.5-1.4,1.3-1,2.4c0.2,0.7,0.3,1.5-0.2,2.1c-1.8,2-3.6,4-5.4,6
		c-0.3,0.3-1.1,0.2-2.2,0.4c1.8,1,2.5,2.1,1.7,3.7c-1.1,2.4-1.9,5-4.8,5.5c-1.9,0.3-4.2,1.1-5.6-0.6c-1.2-1.5-0.2-3.6,0.4-5.3
		c1.3-3.5,3.9-6.2,5.2-9.7c0.3-0.9,1.1-1.7,1.3-2.6c1-4.2,3.6-7.5,5.6-11.1c3.4-6.2,6.8-12.4,10.3-18.6c1.7-3.1,1.6-5.8,0.5-8.8
		c-0.3-0.8-0.6-1.6-1.1-2.3c-0.8-1.2-1.2-3.1-2.9-2.9c-1.8,0.2-3.2,1.7-3.6,3.4c-0.6,2.6-1.9,4.8-3.2,6.9c-0.4,0.6-0.8,1.3-0.6,2.1
		c0.4,2.7-1,4.3-2.9,5.9c-2.1,1.7-4.1,3.6-4,6.7c0,0.9-0.7,1.5-1.1,2.3c-1.4,2.2-2.9,4.2-4.1,6.6c-1.3,2.8-2.5,3.1-5.5,2.3
		c-0.6-0.1-1.2-0.1-1.8-0.2c-2.4-0.1-3.3-1-2.5-3.1c0.9-2.3,1.5-4.7,2.1-7c0.1-0.5,0.3-1.1,0.6-1.3c2.9-1.6,3-5,4.6-7.2
		c2.9-3.9,4.6-8.5,7.5-12.4c0.6-0.8,1.2-1.6,1.5-2.5c1.1-4,3.7-7.2,5.9-10.5c3-4.6,3.2-9,0.3-13.7c-1.2-1.9-1.6-4.1-2.9-5.9
		c0.8-0.8,1.2,0,1.7,0.2c0.9,0.3,1.7,1.4,2.7,0.8c1.1-0.6,0.4-1.8,0.5-2.7c0.1-0.5,0.1-1,0.7-1.2c0.5-0.1,1,0.2,1.2,0.6
		c0.8,1.3,1.4,2.8,2.6,3.9c1.8,1.6,2.6,1.5,4.1-0.4c2.1-2.7,3.9-5.6,6.4-8c2.6-2.6,3.1-6.3,4.6-9.5c1-2.2,1.1-4.8,2.5-6.9
		c0.5-0.8,0.6-1.7,0.1-2.5c-0.8-1.4,0.2-2.6,0.4-3.9c0.3-1.3,1-1.4,2.2-0.8c2.8,1.5,2.8,1.3,4.8-0.8c1.6-1.7,2.1-3.9,3.3-5.7
		c1.6-2.3,3-4.8,4.4-7.2c1-1.7,2-1.9,3.4-0.4c1.1,1.2,1.9,2.6,3.9,2c0.6-1.2-2.2-2.6,0-3.4c1.3-0.5,2.1,1.3,2.4,2.3
		c0.8,3.6,2.9,6.5,4.4,9.7c1.3,2.9,2,3.3,5,1.8c1.1-0.6,2.2-1.2,3.4-1.3c1.5-0.2,2.1,0.6,1.5,2c-0.3,0.7-0.8,1.3-1.2,1.8
		c-1.1,1.4-1.7,3-1.4,4.8c0.3,1.3,0.2,2.7-0.4,3.6c-1.9,3-0.1,5.1,1.7,7c2.4,2.4,4.2,5,5.7,8c0.2,0.3,0.4,0.6,0.6,1
		c2,3.4,2.7,3.4,5.4,0.7c3.2-3.1,5.5-6.9,8.4-10.2c3-3.5,3.5-7.5,1-11.6c-1.5-2.4-1.6-5.4-3.4-7.7c-0.5-0.7-0.1-1.5,0.7-1.8
		c0.8-0.3,1,0.4,1.1,1c0.3,1.6,1,3,1.9,4.4c0.4,0.6,0.9,1.3,1.8,0.9c0.8-0.4,0.8-1.1,0.7-1.9c-0.1-1.1-0.5-2.1-1.3-3
		c-0.3-0.3-0.3-0.7,0-1c0.5-0.4,1-0.2,1.2,0.2c0.7,1.4,1.3,2.9,2,4.3c1.2,2.3,2.6,2.7,4.1,0.6c3.1-4.2,6.8-7.9,9.4-12.6
		c1.5-2.8,3.5-5.3,4.9-8.2c0.7-1.5,4.1-4.8,5.6-5.6c1.2-0.7,2.3-1.3,3.4-2.2c1.8-1.4,3.2-0.8,3.7,1.4c0.4,1.7,0,3.3-1.2,4.5
		c-2.2,2.1-2.8,4.9-3.1,7.7c-0.4,3.4-2.2,5.7-5,7.2c-1.7,1-3.4,1.9-4.2,3.9c-0.3,0.8-0.9,1.6-1.6,1.9c-2.9,1.4-3.5,4.1-4.1,6.8
		c-0.3,1.3-0.9,2.4-2,2.9c-2.9,1.3-2,4.2-2.8,6.4c-0.1,0.3,0.3,0.9,0.6,1.3c1.7,2,2.6,4.4,3.7,6.7c0.4,0.9,1,1.7,1.6,2.4
		c0.7,0.9,1.6,1.2,2.5,0.3c4.9-4.8,9.9-9.7,12.5-16.2c1.2-3.1,0.6-6.3-1.4-9.1c-1.1-1.5-1.6-3-2-4.7c-0.1-0.3,0.2-0.8,0.5-0.9
		c0.3-0.1,0.7,0,1,0.2c0.9,0.8,1.1,1.9,1.5,2.9c0.5,1.3,0.7,2.9,2.3,3.9c0.6-0.9,0.3-1.8,0-2.6c-0.6-1.9-1.2-3.7-1.8-5.6
		c-0.2-0.6-0.1-1.3,0.6-1.6c0.5-0.2,1,0.2,1.2,0.7c0.6,1.1,1.2,2.2,1.6,3.3c0.4,0.9,0.9,1.7,1.7,2.4c2,1.7,2.5,1.7,4.4-0.1
		c1.9-1.8,3.4-3.8,5-5.9c2.4-3.3,4.9-6.5,7.3-9.7c0.3-0.4,0.6-0.8,0.9-1.1c0.7-0.7,1.6-0.8,2.4-0.2c0.7,0.5,0.7,1.3,0.4,2
		c-0.1,0.3-0.3,0.7-0.5,1c-1.2,2.1-3.2,3.9-2,6.7c-1.4,1.9-1.1,4.7-2.7,6.4c-2.9,2.9-4.4,6.8-7,9.9c-2.8,3.2-1.3,9.8,2.3,11.9
		c1.3,0.8,2.3,0.1,3.3-0.8c1.8-1.6,2.6-3.9,3.8-5.8c2-3.1,4.2-6,6.6-8.8c1.6-1.9,2.9-3.9,4.4-5.9c3-4.1,4-8.8,3.8-13.7
		c0-0.5,0-1,0-1.3c0.4-0.4,0.8-0.4,1.1-0.3c4,1.3,5.7,1.1,8-2.6c2.3-3.5,5.3-6.5,7.5-10c1-1.6,2.5-2.7,4-3.8
		c1.6-1.1,2.9-0.4,3.1,1.5c0.2,1.3,0.4,3-0.5,3.9c-2.2,2.4-3.7,5.6-6.5,7.3c-1.6,1-2.5,2-2.6,4c-0.1,2.1-0.9,4.2-2.3,5.7
		c-2.5,2.6-3.8,6-4.1,9.3c-0.3,3.3-2.1,5.3-4.5,6.6c-3.2,1.8-5.1,4.5-6.9,7.4c-2.2,3.7-4.9,7.1-7.4,10.6c-1.1,1.6-2.4,3.1-3.5,4.8
		c-2.6,4.4-1.4,8.5,1,12.4c1.1,1.8,2.2,1.9,4,0.8c2.6-1.6,4-4.3,5.7-6.7c3.1-4.4,6.2-8.8,10-12.7c1.6-1.7,2.4-3.6,2.3-6
		c-0.1-2.1,0.8-4.3-1.9-5.6c-1-0.5-1.7-2.1,0.4-2.7c1.5-0.4,0.9-1.5,1-2.4c0.1-1,0.4-2.1,1.7-1.8c1.3,0.3,1.5,1.4,1.1,2.6
		c-0.4,1.3-2.4,3-0.7,3.7c1.9,0.8,4.2,1.6,6.6,0.2c3.1-1.9,4.4-5.1,6.5-7.6c1.8-2.3,3.4-4.8,5.5-6.9c1.2-1.2,1.8-2.6,2.5-4
		c1.4-3,3.3-5.4,6.7-6.4c3-0.9,4.1,0.1,3.5,3.1c-0.8,4.2,0.4,8,3,11.3c1,1.4,2.2,1,3.4-0.1c3.2-2.7,5.9-6,8.1-9.4
		c2.9-4.6,7.1-5.2,11.6-5.3c2.2-0.1,4,0.9,5.1,3c0.7,1.3,1.5,2.6,2.4,3.6c1.7,1.8,3,1.5,4.3-0.5c1.8-2.7,4.5-4.4,6.6-6.8
		c0.9-1,2-0.8,2.9,0.1c0.7,0.7,1.4,1.4,2.1,2.1c0.9,0.9,1.1,1.9,0.1,2.9c-3.4,3.4-5,8.1-8.2,11.6c-0.9,1.1-1.1,2.4-1,3.8
		c0.1,1.6,0.8,2.8,2.3,3.4c1.7,0.6,2.4-0.6,3.3-1.6c2-2.3,3.6-4.9,5.2-7.5c3.1-5.3,6.7-10.3,11.8-14c2.6-1.9,4.1-5.1,6.2-7.6
		c1.4-1.8,3-1.5,4,0.5c0.1,0.2,0.2,0.5,0.3,0.7c0.4,1,0.5,2-0.2,2.8c-3.8,4.3-4.2,10.4-8.3,14.6c-1.3,1.3-1.2,3.5-0.6,5.3
		c0.9,2.5,2.2,4.9,4.1,6.9c1,1.1,1.9,1.2,3.2,0.3c2.1-1.6,3.5-3.8,4.9-5.9c0.9-1.5,1.9-2.8,3.2-3.9c1.4-1.2,2.5-2.7,3.3-4.4
		c1.5-3,3.7-5.6,6-7.9c2.7-2.7,6.4-4.4,7.8-8.4c0.3-0.9,1.5-1.6,2.4-2.3c1.6-1.3,3.2-1.1,4.6,0.3c1.1,1.1,1.4,2.3,0.1,3.5
		c-1.2,1.1-2.2,2.3-3.4,3.4c-2.8,2.6-3.5,6.3-4.7,9.7c-0.7,1.9-2,3.4-2.4,5.4c-0.1,0.3-0.3,0.8-0.5,0.9c-3.3,1.6-4.7,5.1-7.7,7.3
		c-4.3,3.1-7.4,7.5-9.6,12.3c-0.4,0.9-0.9,1.9-0.6,2.8c1.1,4.3,2.2,8.6,5.2,12c0.7,0.8,1.4,0.9,2.3,0.3c0.6-0.4,1.3-0.8,1.7-1.4
		c2.5-4,6-7.1,8.8-10.8c1.3-1.8,1.4-3.9,0.9-6c-0.4-1.7-1.1-3.2-2-4.7c0.7-1.3,1.7,0.5,2.3-0.4c0.4-0.6,0.6-1.4,0.7-2.1
		c0.1-0.6,0.1-1.2,0-1.8c-0.1-0.7-0.3-1.5,0.6-1.9c1-0.5,1.6,0.4,2.1,1c0.4,0.4,0.7,1,1.1,1.5c1.9,2.3,3.9,2.3,5.8,0
		c1.3-1.6,2.4-3.4,3.6-5.1c2-2.6,4.4-4.9,6.5-7.5c2.1-2.6,3.5-5.3,4.4-8.4c0.5-1.6,1-2.8,2.9-3.4c1.8-0.5,2.9-2.2,3.9-3.7
		c3.1-4.7,6.7-9.1,9.7-13.8c2-3.1,5.2-5.2,6.6-8.7c0.2-0.5,0.8-0.9,1.3-1.3c0.5-0.4,1-0.8,1.6-0.5c0.8,0.3,1,1,1.1,1.8
		c0,0.2,0.1,0.5,0,0.7c-2,3.7-1.6,8.5-5.2,11.6c-1.3,1.1-2.2,2.6-3.2,4c-2,2.8-1.1,5.6,0.1,8.3c0.2,0.6,0.7,1,1,1.5
		c0.3,0.4,0.5,0.9,0.2,1.4c-0.4,0.6-1.1,0.5-1.7,0.4c-0.5-0.1-0.9-0.3-1.4-0.5c-2.4-0.7-4-0.3-5.4,1.8c-1.7,2.5-3.4,5.1-4.4,8
		c-0.5,1.6-1.5,2.8-2.6,3.9c-3.9,4-7.6,8-10.5,12.8c-1.6,2.7-4.2,4.5-6,6.9c-1.9,2.6-2,4.8-0.5,7.5c1.5,2.8,2.9,5.7,4.3,8.5
		c1.3,2.5,1.6,2.3,3.6,0.5c3.2-2.9,6.2-5.9,8.8-9.4c2.4-3.3,5.8-5.9,6.7-10.3c0.4-2,2.4-3.6,2.6-5.9c0.1-0.8,1.1-0.9,1.8-0.5
		c1.5,0.9,2.5,0.1,3.5-1c0.8-0.9,1.8-1.7,2.5-2.7c3.8-4.5,4-7.7,0.8-12.7c-0.7-1.1-1.9-2.2-0.8-3.6c0.7-0.9,2.2-0.1,3.5,1.7
		c0.1,0.2,0.2,0.4,0.4,0.6c2.6,4.2,4.4,4.4,7.5-0.3c1.6-2.4,3.1-4.7,5.2-6.6c0.1-0.1,0.2-0.2,0.3-0.3c1.4-4.4,5.6-6.7,8-10.4
		c0.9-1.4,2.1-3.2,3.9-3c1.6,0.2,2.1,2.3,2.7,3.7c0.9,2.1,0.6,4.9-0.9,5.8c-3.9,2.2-6.5,5.6-8.6,9.3c-2.3,4.1-5.2,7.7-8,11.5
		c-1.2,1.7-1.7,3.5-2.1,5.4c-0.3,1.6,0.1,3.2,1.2,4.5c1.5,1.7,2.5,1.8,4.4,0.4c2-1.6,3.2-3.7,4.6-5.7c2.5-3.8,6.1-6.8,8.4-10.7
		c0.5-0.9,1-1.6,1-2.7c-0.2-3.1,1.7-5.3,3.6-7.4c0.3-0.4,0.8-0.9,1.1-0.9c3.1,0.2,4.1-2.2,5.7-4c1.8-2,3.7-4,5.3-6.1
		c1-1.2,1.8-2.4,3.6-1.7c1.5,0.6,2.5,2.6,1.9,4.3c-1.1,3.9-2.8,7.6-5.3,10.8c-1.2,1.6-2.4,3.1-3.4,4.8c-2.8,4.3-2.7,7.4,0.4,11.8
		c1.2,1.7,2.1,3.6,3,5.5c1,2,2.1,2.2,3.8,0.7c1.8-1.7,3.3-3.6,4.9-5.5c2.4-2.9,5-5.8,7.7-8.4c0.4-0.4,1.1-0.8,1.3-1.3
		c1.7-4,5.2-6.3,8.3-9.2c4.3-3.9,8.1-8.2,11.9-12.5c0.3-0.4,0.5-0.9,0.9-1.1c2.1-1.1,3.7-2.7,5-4.8c1.5,4.4,0.7,8.2-2.8,10.5
		c-2.2,1.4-3.8,3.3-4.8,5.4c-1.8,3.8-4.3,7.1-7,10.3c-1.3,1.5-2.1,3.2-2.9,5.1c-1,2.3-2.2,4.6-5.1,5.2c-1.5,0.3-2.5,1.4-3.4,2.7
		c-2.5,3.8-5.1,7.5-8.6,10.6c-1.1,1-1.8,2.3-2.7,3.5c-1.1,1.4-1.3,2.9-0.8,4.5c1.3,4.9,3.3,9.5,5.8,13.9c1.4,2.6,2.5,2.6,4.4,0.3
		c4.1-5.1,8-10.3,11.6-15.7c1-1.5,1.4-3.1,0.7-4.9c0-0.1-0.1-0.2-0.1-0.3c-0.8-2.1-0.9-4.3-0.5-6.5c0.5-2.6-3.8-2.6-2.4-5.6
		c1.5,0.4,3.3,0.8,5.1,1.3c0.8,0.2,1.1,0.9,1.4,1.6c0.2,0.6,0.3,1.2,0.7,1.7c1.5,2.3,2.9,2.6,5.1,0.9c0.7-0.5,1.6-1,1.9-1.7
		c1.9-4.2,5.7-7.1,8.1-10.9c2.2-3.4,5.2-6.2,6.5-10.2c0.2-0.5,0.7-1,1.3-1.3c4.7-2.7,7.7-7.1,11-11.3c0.8-1,1.7-1.7,2.7-2.4
		c1-0.7,2-0.7,3.1-0.1c2.7,1.6,2.8,2.6,0.5,4.7c-1.6,1.4-2.9,2.9-3.9,4.9c-0.6,1.2-1.4,2.4-2.3,3.3c-1.9,2-3.1,4.3-4.2,6.8
		c-1.4,3.1-3.2,5.9-6.1,8c-2,1.5-3.7,3.7-5,5.8c-2.5,4-6.3,6.9-9.1,10.6c-2,2.6-3.1,5.2-3,8.4c0.2,4.1,2.3,7.5,4.4,10.8
		c1.4,2.2,2.3,2.2,4.1,0.3c2.1-2.1,4.1-4.3,6-6.5c2.8-3.2,5.5-6.6,8.4-9.7c1.7-1.8,3-4.5,1.7-7.5c-0.7-1.4-0.6-2.7,0.6-4
		c1.2-1.3,0.9-3.2,1.2-5c1.8,0.4,2.2,1.9,3,2.8c2.1,2.4,3,2.6,5.1,0.4c3.5-3.6,7.1-7.2,10.1-11.3c2-2.8,2.3-6.4,1.4-9.9
		c-0.2-0.6-0.5-1.1-0.7-1.7c-0.2-0.8-0.1-1.5,0.6-1.9c0.6-0.3,1.2-0.2,1.7,0.1c0.5,0.4,0.8,0.9,1.3,1.3c2.2,2.1,4.2,2.1,5.9-0.3
		c2.1-3.2,4.7-6,7-9c1-1.3,2.1-2.4,3.3-3.5c1.5-1.4,3.3-2.5,4.1-4.6c0.3-0.8,1.2-1.4,2.1-0.8c1,0.6,1.2,1.8,0.4,2.5
		c-3.2,2.8-4,7.2-7.5,9.8c-2.2,1.7-4.1,4-3.5,7.3c0.2,1-0.6,1.5-1.2,2.1c-3.6,3.8-4.8,8.2-2.6,13.2c0.8,1.8,1.7,3.6,2.6,5.3
		c1,1.7,2,1.9,3.5,0.3c2.1-2.2,4.5-4.2,6.1-6.9c0.3-0.5,0.6-1.1,1.1-1.5c5.6-4.4,8.4-11.2,13.1-16.3c0.5-0.5,1-1.2,1.2-1.8
		c0.3-1.5,1.1-2.2,2.7-2.5c1.5-0.2,2.4-1.6,3.4-2.7c1.2-1.3,2.3-2.6,3.5-3.8c0.8-0.9,1.9-1.1,3-0.7c1.3,0.5,1.3,1.7,1.2,2.8
		c-0.2,2.6-1.5,4.8-3.6,6.2c-3.2,2.1-3.7,5.7-5.6,8.5c-0.6,0.9-0.1,1.9,0.2,2.8c0.7,2,1.4,3.9,2.1,5.9c0.2,0.5,0.1,1-0.4,1.3
		c-0.5,0.3-0.9,0-1.3-0.4c-0.1-0.1-0.2-0.2-0.3-0.3c-0.9-1-1-3-3-2.7c-2.7,0.4-5.5,0.6-7.1,3.3c-3.7,6.1-8.1,11.7-12.3,17.4
		c-1.9,2.6-1.8,5.4-0.9,8.1c1,3.1,2.4,6.2,3.9,9.1c1.3,2.7,2.2,2.6,4.4,0.7c3.7-3,6.1-7.1,9-10.7c1.7-2.2,3.8-4.2,5.3-6.6
		c0.6-1,1.2-1.9,1.2-3c-0.1-2,0.9-3.3,2-4.8c1.3-1.9,2.2-3.4,4.8-2.7c1,0.3,1.8-0.5,2.6-1.2c4.1-3.7,7.6-8,12.2-11.2
		c0.6-0.4,1-1.1,1.2-1.8c2.5-6.4,7.7-10.7,12.2-15.5c2.1-2.3,4.3-4.4,6-7c1.6-2.4,3.5-4.8,6-6.4c1.2-0.8,1.8-2,2.4-3.2
		c0.4-0.7,0.9-1.3,1.7-1c0.8,0.2,1,1,1,1.8c0.1,0.9,0.1,1.8-0.6,2.4c-1.5,1.3-1.9,3.1-2.5,4.8c-0.6,1.6-1.3,3.2-3.3,3.7
		c-1,0.2-1.6,1.1-2.1,1.9c-1.8,2.9-3.8,5.7-5,8.9c-1.2,3.1-3.4,5.8-5.9,7.9c-3.8,3.2-7,6.9-9.9,10.9c-3.1,4.3-6.8,7.7-10.5,11.3
		c-2.9,2.8-3.9,7.6-1.9,11.1c2.4,4.2,3.8,9,6.8,13c0.2,0.3,0.4,0.6,0.5,1c1.2,6.2,4.9,11.4,7.5,17.1c0.4,1,1,2,1.3,3.1
		c0.7,3.3,2.1,6.2,3.9,9.1c1.2,1.9,2.1,3.9,2.6,6.1c0.1,0.6,0.3,1.2,0.6,1.7c3.7,5,5.2,11,7.3,16.7c2.3,6.4,5,12.8,7.8,19
		c6.8,15.1,13.5,30.2,19.5,45.6c3.1,7.8,7.5,14.8,10.4,22.7c1.9,5.2,4.1,10.3,6.7,15.2c0.5,0.9,0.7,1.8,0.7,2.8
		c-0.1,1.8-1,2.3-2.8,2.5c-3,0.2-4.4-1.4-5.4-3.9c-2.3-5.9-5.3-11.5-8.1-17.2c-1.2-2.4-2.3-4.9-3.1-7.5c-1.1-3.3-3-6.2-3.4-9.7
		c0-0.4-0.1-0.8-0.4-1c-2.6-2.8-3.2-6.6-4.8-9.8c-2.3-4.8-4.3-9.6-5.9-14.7c-0.6-1.9-2.2-2.9-2.9-4.6c-1.9-4.8-4-9.5-6-14.2
		c-0.9-2.1-2.2-4.3-2.6-6.4c-0.8-4.2-2.8-7.9-4.4-11.7c-1.4-3.3-1.6-7.1-4.3-9.9c-0.4-0.4-0.7-1.1-0.7-1.7c0-3.7-2.2-6.4-3.9-9.4
		c-0.7-1.2-1.2-2.2,0.4-3c1.2-0.6,0.7-1.4,0.2-2.1c-0.6-0.9-1.4-1.3-2.3-1.7c-1.3-0.5-2.1-1.6-2.6-3c-1.4-4.6-4-8.7-5.6-13.2
		c-0.8-2.4-2-4.5-1.3-7.4c0.7-2.9-0.8-5.2-3.5-6.4c-1.6-0.7-2.2-1.7-1.6-3.2c0.7-1.6,0.9-2.8-1.3-3.2c-0.8-0.1-1.2-0.8-1.4-1.6
		c-0.6-1.7-1.7-3.2-2.2-5c-1.1-3.8-3.2-4.5-5.6-1.4c-3.5,4.6-8.7,8-10.4,13.9c-0.3,1.1-1.2,1.9-2.3,2.3c-1.7,0.6-2.1,1.9-2.1,3.5
		c0,2.7,0.2,5.4,1.9,7.7c0.5,0.7,1,1.5,1,2.3c0.1,3.3,1.8,6,3.1,8.9c2.1,4.4,3.8,9,5.4,13.7c1.5,4.3,3.1,8.5,5.1,12.6
		c1.5,3.1,2.9,6.3,3.6,9.6c1.6,7.2,4.8,13.6,7.5,20.3c1.7,4.2,3.6,8.3,4.2,12.9c0.1,0.6,0.2,1.3,0.5,1.7c4.4,6.8,6.1,14.7,8.7,22.2
		c1.8,5,3.7,10.1,4.6,15.5c0.6,3.3,2.9,5.9,3.8,9.2c0.6,2.1,1.5,4.2,2,6.3c0.9,3.7,2.8,7.1,4.1,10.6c1,2.8,1.4,5.7,2.8,8.4
		c0.5,1,0.3,2.2,0.2,3.3c0,0.3-0.3,0.9-0.5,0.9c-1.7-0.1-3.3,0.5-5,0.4c-1.2-0.1-1.7-1.3-2.1-2.3c-1.5-4.3-3.2-8.5-4.2-13
		c-0.5-2.4-1.6-4.6-2.6-6.8c-2.3-5.3-3.9-10.8-5.6-16.3c-1.4-4.5-2.1-9.3-4.8-13.4c-0.5-0.8-1-1.8-1.1-2.7c-0.4-4.3-2.9-7.8-4-11.8
		c-0.4-1.5-0.8-3.1-1.2-4.6c-0.7-2.7-1.6-5.4-3-7.7c-1-1.8-2.1-3.6-2.8-5.6c-1.4-4.2-3.2-8.2-5-12.3c-1.7-3.8-1.4-8-3.2-11.7
		c-0.4-0.7,0-1.4,0.8-1.8c1.8-0.8,1.3-2.2,0.2-2.8c-4.4-2.4-5-6.8-6.8-10.9c-2.8-6.4-4.6-13.2-7.9-19.4c-0.7-1.4-1.1-3-1.6-4.5
		c-0.3-1-0.1-1.8,0.7-2.3c1.7-1.2,0.9-2.2-0.1-3.3c-0.6-0.6-1-1.4-1.8-1.8c-2.4-1.1-3.1-3.1-2.6-5.5c0.3-1.5,0.1-2.7-1.4-3.4
		c-1.6-0.8-1.4-2.5-2-3.8c-1.7-3.8-3.8-7.4-4.1-11.7c-0.2-1.9-1.1-3.6-3.2-4.1c-2.2-0.6-3.7,0.4-5,2.2c-1.6,2.1-3.4,4.2-5.5,5.9
		c-3.7,3.1-4.8,6.1-2.7,10.4c2.6,5.4,4.1,11.3,7,16.6c1.5,2.8,2.7,5.7,3.5,8.9c0.6,2.5,1.6,4.9,2.7,7.3c1.1,2.4,2,4.7,2.5,7.3
		c0.4,2,1.2,3.9,2.3,5.8c1.9,3.3,3.4,6.8,3.4,10.7c0,0.9,0.4,1.6,0.8,2.4c2,4.4,4,8.9,6,13.3c0.9,1.9,1.6,3.9,2.4,5.8
		c3.2,7.9,6.6,15.8,10,23.7c3.2,7.6,6.1,15.2,8.6,23.1c1.4,4.4,3.1,8.8,5,13c2.6,5.9,6.3,11.4,7.9,17.7c0.3,1.3,1.2,2.4,1.7,3.7
		c1,2.5-0.1,3.9-2.8,3.4c-1.4-0.2-2.9-0.7-3.8-2c-1.3-1.8-2.9-3.5-3.7-5.5c-2.3-6-6.1-11.2-8.4-17.1c-0.9-2.4-1.3-4.9-2.3-7.4
		c-2.8-7.3-5.3-14.8-7.9-22.2c-0.5-1.5-1.5-2.8-2.2-4.2c-3.8-7.7-6.1-16.1-10-23.7c-0.6-1.2-0.8-2.6-1.1-3.9c-0.2-1.1-0.3-2.2-1-3.1
		c-1.6-2.1-2.3-4.6-3.4-6.9c-2-4.2-2.8-8.9-4.6-13.2c-1.1-2.5-1.5-5.6-2-8.4c-0.7-3.9-3-6.9-4.3-10.5c-1.5-4.3-3.3-8.5-4.8-12.7
		c-1.9-5.3-4.3-10.4-7.3-15.2c-1.5-2.5-3-2.6-4.7-0.1c-1.6,2.3-4,3.1-6.3,4.2c-1.4,0.7-2.1-0.2-2.3-1.4c-0.2-1.8,0.4-3.4,1.3-4.9
		c1.1-1.9,2.2-3.9,3.4-5.7c2.3-3.6,3.1-7.2,0.8-11.1c-0.7-1.3-0.9-2.8-1.6-4.1c-1.7-3-3.5-3.2-5.7-0.6c-2.1,2.4-4.3,4.8-6,7.4
		c-2,3.1-5.1,5.2-7,8.4c-1.9,3.2-2.6,6.4-1.5,9.8c1.5,4.6,3,9.3,5.4,13.6c1.4,2.6,2.1,5.5,3.2,8.2c3.6,8.3,7.3,16.5,10.8,24.8
		c1,2.4,2.3,4.6,2.2,7.3c0,0.9,0.6,1.6,1,2.3c3.1,4.9,5.4,10.2,7.9,15.4c3.2,6.6,6,13.4,8.7,20.2c1.8,4.5,4.4,8.7,6.4,13.2
		c3.5,8.1,6.4,16.4,10.3,24.4c0.4,0.8,0.9,1.6,0.9,2.4c0.3,3.8,2.4,6.9,3.8,10.3c0.3,0.8,0.8,1.6,0.7,2.4c-0.1,1.3-0.4,2.5-2,2.5
		c-0.9,0-1.7,0.3-2.5,0.7c-0.8,0.4-1.4,0.1-1.9-0.7c-0.7-1.2-1.8-2.3-2-3.5c-1-5.3-4.9-9.3-6.2-14.4c-0.7-2.6-2-5-2.7-7.6
		c-0.7-2.4-1.3-4.7-3-6.6c-0.5-0.5-0.8-1.3-0.8-2c-0.2-3.6-1.6-6.7-3.8-9.4c-1-1.2-0.6-2.9-1.5-4.1l0,0c1.5-0.5,2.5,0.7,4,2.1
		c-0.9-4.2-1.4-7.5-5.5-8.8c-1.8-0.6-1.7-1.4,0.1-2.8c0.4-0.3,0.8-0.6,0.7-1.1c-0.2-0.8-0.9-1.6-1.6-1.2c-3.4,1.7-3.4-1.5-4.8-3.1
		c3.4,0.2,3.6-0.1,2.6-2.8c-0.5-1.4-0.6-3.4-3.1-1.9c-0.7,0.4-1.1-0.8-1.5-1.3c-4-5.4-6.6-11.4-8.9-17.7c-0.9-2.4-1.8-4.8-2.9-7.1
		c-0.8-1.7-0.9-2.8,0.5-4.2c1.3-1.3,1.2-2.8-0.3-3.2c-5.6-1.6-6.2-6.9-8.1-11.1c-0.9-2-1-4.3-2.1-6.3c-0.6-1.1-0.4-1.9,0.9-2.1
		c0.5-0.1,1-0.2,1.4-0.4c0.8-0.5,1.2-1.2,1-2.2c-0.2-0.9-0.9-1.1-1.6-1.3c-0.2-0.1-0.5-0.2-0.7-0.1c-3.2,1.6-4.2-0.9-5.2-2.9
		c-2.3-4.5-4.1-9.2-5.5-14c-0.1-0.5-0.1-1-0.4-1.4c-2.7-4.3-3.5-9.4-5.7-13.9c-1.3-2.7-1.3-5.7-2.8-8.4c-0.3-0.6-0.6-1.3-1-1.9
		c-1.4-1.8-2.4-2-3.9-0.4c-2.1,2.3-5.1,3.8-6.3,7.1c-0.5,1.4-2,2.5-3.3,3.3c-0.8,0.5-1.4,1.2-2,2c-2.7,3.4-2.1,7.2-0.4,10.4
		c2,3.6,2.9,7.5,4.4,11.3c3.2,8.1,6.6,16.1,9.9,24.1c1.5,3.6,3.4,7.1,5,10.6c1.4,3.2,3,6.4,3.1,10c0,1.4,0.6,2.7,1.4,3.8
		c1.9,2.3,2.6,5.3,4,7.8c2.4,4.1,3.9,8.8,6.4,12.8c3.1,5.1,4.9,10.7,7.6,15.9c0.9,1.9,1.7,3.8,3,5.4c0.8,1,1.3,2,1.7,3.2
		c0.3,0.9,0.5,1.9,1.2,2.7c4.1,4.3,5.6,10,7.8,15.3c0.4,1,0.6,2.2,1.3,3.1c2.5,3.4,3.5,7.5,5.7,11.1c1.5,2.4,2.4,5.1,2.7,8
		c0.1,0.7,0.2,1.5,0.1,2.2c-0.3,1.4-0.5,3-2.3,3.5c-1.7,0.5-2.9-0.5-3.7-1.8c-1.1-1.6-2.1-3.3-3-5.1c-2.7-5.5-5.6-11-7.9-16.6
		c-2.1-5.1-4.6-10-6.7-15.1c-1.6-3.9-3.1-8.1-6.1-11.6c-3.2-3.7-5.1-8.4-6.3-13.2c-0.5-1.8-0.9-3.6-2.1-5c-2.3-2.7-2.4-6.4-4.1-9.3
		c-0.7-1.2,0.7-2,0.8-3.4c-3.3,0.3-3.7-2-4.8-4.5c-1.4-3.3-2.3-6.8-4.6-9.9c-2.3-3.2-4-7.1-5.1-11c-1.2-4.1-2.2-8.3-5-11.8
		c-0.6-0.7-0.8-1.6-0.5-2.4c0.7-1.8-0.3-3.1-1.2-4.4c-1.9-2.6-3.3-5.4-4.2-8.5c-1.1-3.9-3.1-7.5-4-11.5c-0.2-0.8-0.8-1.5-1.3-2.2
		c-1.5-1.9-2.4-1.9-4.2-0.2c-1.2,1.2-2.4,2.4-3.7,3.6c-1.2,1-2.2,0.7-2.7-0.8c-0.3-1-0.1-1.9,0.2-2.9c0.7-2.6,2.1-4.7,3.8-6.7
		c1.2-1.4,1.9-2.9,1.4-4.7c-1.4-5.4-2.8-10.7-5.5-15.6c-1.4-2.5-2.5-2.8-4.5-0.8c-1.9,1.9-3.6,4-5.2,6.2c-1.8,2.5-3.3,5.2-5,7.7
		c-0.9,1.3-1.2,2.7-0.7,4.2c0.9,2.5,1.5,5.1,2.6,7.6c1.8,4.4,3.9,8.6,6,12.9c1.6,3.3,3.4,6.5,5,9.8c0.7,1.3,1.3,2.6,1.8,4
		c2.2,5.9,4.6,11.6,7.7,17.1c2.1,3.9,3.9,8,5.2,12.2c1.4,4.5,3.6,8.6,5.8,12.7c1.5,2.8,2.2,5.9,3.5,8.8c1.8,4,4.3,7.7,5.9,11.8
		c1.5,4,2.7,8.2,5.6,11.5c0.5,0.5,0.7,1.3,0.9,2c1.9,5.9,4.7,11.2,8.7,15.9c1.1,1.3,1,3.5,3.6,3.4c0.9,0,0.9,1.4,0.7,2.2
		c-0.8,3.1,1.1,5.4,2.1,8c0.1,0.3,0.5,0.7,0.8,0.8c4.1,0.4,4.9,4.4,6.5,6.9c1.6,2.6,2.6,6.1,1.8,9.4c-0.6,2.6-2.3,3-4.3,1.2
		c-1.3-1.1-1.7-2.7-2.5-4c-0.4-0.7-0.9-2-1.8-1.4c-2,1.4-2.3-0.1-2.8-1.3c-0.1-0.2-0.2-0.4-0.3-0.7c-1.2-3.3-4.6-5.3-5.6-8.6
		c-0.9-3.3-2.8-5.9-4.5-8.7c-1.7-2.8-2.7-6-3.9-9.1c-0.2-0.5-0.1-1,0.4-1.3c0.7-0.4,1.1,0.2,1.4,0.7c0.6,1.1,1.2,2.1,1.9,3.2
		c0.4,0.6,0.9,1.3,1.8,0.8c0.8-0.5,1.1-1.3,0.5-2.2c-1.3-1.8-2.5-3.6-3.9-5.4c-0.7-0.9-1.4-2-3-1.4c-1.3,0.5-2.1-0.8-2.6-1.7
		c-2.4-4.1-5.1-7.9-6.8-12.6c-2.1-5.7-4.1-11.5-7-16.8c-2.2-4-3.8-8.5-5.1-13c-0.7-2.4-1.5-4.6-2.9-6.6c0.4-0.3,0.6-0.6,0.8-0.6
		c0.9-0.1,1.9,1.1,2.7,0c0.7-1,0.1-2.2-0.4-3.1c-0.9-1.5-2-2.8-4.2-2.2c-1.5,0.4-2.4-0.4-2.9-1.6c-1.6-3.6-3.1-7.2-4.7-10.8
		c-0.7-1.7-0.1-3.1,1.3-4.5c-2.4-1-4-2.4-4.8-4.6c-0.3-0.8-0.7-1.8,0.3-2.3c2.3-1.2,1.3-2.8,0.8-4.4c-0.1-0.5-0.4-0.9-0.8-1.3
		c-1.9-2.2-3.4-4.5-3.7-7.7c-0.2-2-1.7-4.6-4.9-4.3c-1,0.1-1.2-0.8-1.4-1.4c-1.3-3.6-3.7-6.6-5.4-10c-0.8-1.5-1.8-2.1-3.6-1.7
		c-2.9,0.7-5.5-2-4.7-4.8c0.3-0.9,0.9-1.8,1.3-2.7c1.9-4,1.7-7.8-1.3-11.3c-1.4-1.6-2.4-3.4-3.4-5.2c-1.2-2.1-2.2-2.2-4.2-0.8
		c-2.7,2-4,6.7-2.7,9.9c1.2,3.1,3.7,5.5,5.1,8.5c3.2,7,7,13.7,9.5,21.1c0.8,2.3,2.5,4.3,3.1,6.7c1.5,6.3,5.1,11.6,7.6,17.5
		c3,7.1,5.4,14.5,8.7,21.5c2.5,5.4,4.5,11.1,7.4,16.4c1.7,3,2.9,6.2,5.1,8.9c0.4,0.5,0.7,1.1,0.8,1.7c0.4,4.2,3,7.8,3.2,12.1
		c0.1,1.1,0.6,2.1,1.3,3c0.5,0.7,1,1.4,1.3,2.2c2.5,7.4,6.4,14.3,8.9,21.7c1.6,4.8,3.6,9.5,6,14.1c2.1,4.1,3.9,8.4,5.3,12.9
		c0.5,1.5,0.9,3.1,2,4.3c1.5,1.8,1.8,3.9,1.6,6.2c-3.1,0.1-4.2-0.5-5.3-3.3c-1.2-2.9-2.4-5.9-3.5-8.9c-0.4-0.9-0.5-1.9-2.1-2
		c-0.5,2.9,2,5.4,1.6,8.3c-0.5-0.1-0.9-0.1-0.9-0.2c-2.3-7.2-6.9-13.5-8.7-21c-0.2-1-1-1.7-1.4-2.5c-1.5-2.6-2.8-5.4-3.7-8.4
		c-0.9-3.2-2.2-6.2-2.3-9.6c0-0.5-0.6-1-0.9-1.5c-0.5-0.7-1.3-1.4-1.4-2.1c-0.7-4.7-4.2-8.3-4.8-13c-0.1-0.9-0.5-2-1-2.7
		c-1.9-2.9-3.6-5.8-4.1-9.3c-0.1-0.6-0.5-1.2-0.9-1.5c-2.9-2.3-3.8-5.6-4.8-8.9c-1.7-5.4-3.7-10.6-6.5-15.5
		c-0.4-0.7-0.9-1.5-1.1-2.3c-1.4-5-4.2-9.4-5.9-14.2c-0.3-0.9-0.9-1.8,0.4-2.9c0.8,3.3,3.1,5.5,4.9,8.1c0.4-2.2-0.3-4.3-1.4-6
		c-2.1-3.2-3.9-6.5-4.5-10.3c-0.2-1.3-0.7-2.8-2.7-1.4c-0.9,0.6-1.7-0.3-2-1.1c-0.6-1.3-1.1-2.7-1-4.2c1-0.1,1.2,1.6,2.3,0.8
		c0.6-0.5,0.5-1.4,0.3-2.1c-0.9-2.8-2.5-5.3-3.8-7.9c-1.6-3.3-3.3-6.6-4.8-9.9c-0.9-2-2-3.5-4.3-4.2c-1.9-0.6-2.1-1.4-1-3.2
		c1.2-1.8,0-3-1-4.2c-0.5-0.6-1.9-1.2-1.8-1.6c0.2-2.8-2-3.1-3.6-4.2c-1.8-1.2-3-0.8-4.1,0.6c-1.5,1.8-3.4,3.2-4.6,5.3
		c-1.3,2.4-3.5,3.7-6.1,4.4c-1,0.3-2,0.6-2.7-0.3c-0.8-0.9-0.3-1.8,0.1-2.8c0.4-0.9,0.7-1.8,1.2-2.7c2.7-4.7,4.9-9.6,8.4-13.8
		c0.6-0.7,0.8-1.5,0.9-2.3c0.3-2.8-0.2-5.5,0.7-8.5c-1.6-0.1-2.7,0.7-4.1,0.1c-1.1-0.5-2.3,0.5-3.2,1.4c-3.9,3.8-7.7,7.8-11.2,12.1
		c-2.3,2.8-2.5,5.4-1.2,8.5c2.1,4.7,4.2,9.4,6.3,14.1c2.1,4.8,4,9.8,6.4,14.5c3.9,7.8,6.8,16,11.2,23.5c1.7,2.8,2.9,6,4.2,9
		c1.7,4,3.4,8.1,6,11.7c0.4,0.5,0.7,1,0.9,1.6c2,6.9,5.9,12.9,8.9,19.4c3.4,7.3,7,14.6,10.4,21.8c1.7,3.6,3.4,7.3,4.8,11.1
		c1.7,4.6,4.4,8.7,6.8,13.1c2.3,4.2,4.7,8.3,7,12.5c1.5,2.8,1.2,6,2.2,8.9c0.2,0.5-0.2,1-0.7,1.1c-0.5,0.2-0.9,0-1.3-0.4
		c-1-1.1-2.1-2.1-2.4-3.6c-0.4-1.6-1.1-3-2.2-4.2c-0.5-0.5-1.1-1.3-1.8-0.8c-2.2,1.5-2.4,0.1-1.9-1.5c0.6-1.7,0.2-3.1-0.6-4.5
		c-2-3.8-2.3-8.3-5-11.7C394.2,230.8,393.7,228.9,391.7,230L391.7,230z M429.9,242.9c-0.8,3.4-0.8,3.4,2.3,5.7
		c-0.9-2.3-1.2-4.1-2.4-5.6c-0.5-1.3-1-2.6-1.5-4C427.7,240.9,427.6,242.5,429.9,242.9z M46.1,117.2c0.2,0.8,0.2,1.5,0.5,2.2
		c1.3,3.3,2.3,6.7,4.1,9.8c0.5,0.8,1,1.7,1.7,2.4c1.4,1.4,2.5,1.2,3.5-0.4c0.6-1,1.1-2.2,1.9-3.1c3.4-4,5.6-8.9,9-12.9
		c1.1-1.2,1.5-3,2.7-4.3c0.8-0.9,0.7-2,0.4-3.1c-1-3.8-2.5-7.4-3.9-11c-0.5-1.3-1.6-2.2-2.7-2.9c-1.9-1.4-3-0.8-4.1,1.3
		c-2.4,4.8-6,8.9-9,13.3c-0.5,0.7-1.9,0.7-2.2,1.8C47.2,112.5,46.7,114.8,46.1,117.2z M201.8,107c0.2-4-2.4-6.7-3.9-9.9
		c-0.5-1.2-1.7-0.7-2.6-0.1c-2.4,1.7-4.8,3.4-7.2,5.1c-0.4,0.3-0.8,0.7-0.9,1.1c-0.8,4.1-4.1,6.6-6.3,9.8c-2.6,3.8-3.8,7.3-1.6,11.5
		c0.9,1.8,0.8,3.1-0.8,4.5c-1.9,1.7-1.1,5.3,1.1,6.5c0.3,0.2,0.8,0.3,1,0.1c1.3-0.9,3-1,4-2.5c1.6-2.4,3.7-4.5,5.5-6.9
		c3.7-5.1,7.3-10.3,10.7-15.7C201.7,109.6,201.9,108.3,201.8,107z M243.3,114.6c0.3-3.6-1.4-6.1-2.7-8.7c-1.5-3-2.2-3.1-4.4-0.7
		c-4.9,5.3-9.8,10.6-14.7,15.9c-2.7,2.9-3.4,6.2-1.2,9.5c1.3,2.1,2,4,2.2,6.4c0.1,2.3,3.3,4.3,4.7,3.2c1.8-1.4,3.9-2.3,5.3-4.4
		c1.4-2.2,2-4.7,3.5-6.8c1.8-2.6,3.4-5.4,5.2-8C242.6,119.1,243.4,116.8,243.3,114.6z M82.8,143.4c2,2.9,1.9,3.5-1.3,4.6
		c-0.3,0.1-0.8,0.1-1.1,0.2c-1.5,0.7-2.6,1.9-3.5,3.2c-0.8,1.2-0.3,2.3,0.3,3.4c0.5,0.7,0.2,1.6-0.5,2c-3.9,2.3-4.8,6.7-6.9,10.1
		c-1.3,2-1.4,4.4,0.1,6.6c0.9,1.3,1.6,2.8,2.4,4.2c1.4,2.5,2.4,2.8,4,0.6c2-2.8,4.6-5.1,6-8.3c0.6-1.3,1.5-2.6,2.6-3.5
		c3.1-2.5,5.2-5.8,7.4-9.1c0.9-1.4,1.3-2.6,0.5-4.1c-0.4-0.8-0.7-1.5-0.6-2.4c0.1-1.2,1.9-0.7,1.8-1.9c-1.2-1-2.8-1.6-3.5-3.2
		c1.2-0.3,1.7,1.3,3,0.6c0.3-1.3-0.6-2.4-1.1-3.6c-0.5-1.1-1.4-1.6-2.2-0.3c-0.9,1.5-2,1.4-3.4,1.1
		C85.5,143.2,84.3,143.4,82.8,143.4z M81.3,130.9c0.6-3.4-1.9-6.2-3.7-9.2c-1-1.7-1.5-1.6-3.1-0.2c-2.7,2.4-4.7,5.2-6.7,8.2
		c-3.2,4.9-5.9,10.1-8.9,15.1c-0.7,1.2-0.3,2.3-0.1,3.5c0.7,2.9,2.7,5.2,3.7,8c0.8,2.3,1.3,2.1,3.4,0.7c2.9-1.9,4-5.2,5.9-7.8
		c2.6-3.8,5.1-7.7,7.6-11.6C80.7,135.8,81.6,133.8,81.3,130.9z M399.5,62.7c0.2-1.6-0.3-2.5-0.6-3.4c-0.6-2.3-2.4-4.1-1.9-6.9
		c0.2-1.3-1.5-2.4-2.9-3c-1.3-0.5-2.1,0.5-2.8,1.3c-1,1.2-2,2.5-3,3.7c-2.2,2.7-4.2,5.7-6.7,8.2c-4.2,4.2-4.7,8-1.1,12
		c1.2,1.4,2.1,3,2.7,4.8c0.3,0.8,0.6,1.6,1.1,2.3c1,1.3,1.9,1.3,3,0.1c0.7-0.8,1.2-1.8,2.1-2.5c4.6-4.1,7.4-9.3,9.7-14.9
		C399.3,63.6,399.4,62.8,399.5,62.7z M87.5,84.9c-0.1-0.3-0.1-0.8-0.3-1.3c-1.7-4-3.4-8.1-5.1-12.1c-0.6-1.3-1.3-2.6-2.4-3.6
		c-1.9-1.7-1.8-1.8-3.6,0c-3.1,3.3-5.4,7.2-7.3,11.3c-1.4,3-1.5,6.3,0.4,9.2c1.8,2.7,3.4,5.4,5,8.1c0.7,1.2,1.5,2.4,3.1,2.2
		c1.6-0.3,3.4-0.5,4-2.6c0.8-2.5,2.3-4.5,4-6.5C86.5,88.5,87.2,86.9,87.5,84.9z M275.2,110.6c0-4.9-2.5-8.7-5.4-12.4
		c-1.1-1.4-2.1-0.9-2.9,0.3c-3.5,5.1-7.1,10.2-10.6,15.4c-1.1,1.6-1.5,3.4-0.7,5.2c1.3,3,2.8,6,4,9.1c1.1,2.7,2.7,2.7,4.7,0.6
		c3.4-3.7,5.7-8.2,8.9-12.1C274.5,114.9,275.7,113.1,275.2,110.6z M225.6,74.7c-0.1-1.1-0.2-1.8-0.3-2.6c-0.4-2.6-1.9-4.8-4.2-5.7
		c-2.2-0.9-3.6,1.4-5.2,2.7c-0.4,0.3-0.7,0.7-1,1.1c-1,1.3-2.1,2.3-3.3,3.4c-3.7,3.3-6.8,7-7.9,12.1c-0.2,1.1-0.4,2.2,0,3.2
		c0.8,2.4,1.6,4.9,2.6,7.3c0.7,1.7,2.1,2.3,3.5,1.3c1.2-1,2.5-2,3.3-3.3c2.9-4.9,6.2-9.6,9.8-14C224.2,78.5,225.7,76.7,225.6,74.7z
		 M55.6,67.4c-0.8,0.9-0.4,1.4-0.3,2c0.1,0.7-0.2,1.2-1,1.2c-4.6,0-6.5,3.5-8.2,6.8c-2,3.9-3.9,7.8-6.9,11.2
		c-4.3,4.8-4.5,9.4-0.9,14c1.6,2,5.1,2,5.7-0.2c0.8-2.6,2.5-4.2,4.1-6c2.5-2.7,4-6.1,6.1-9.1c1.9-2.7,3.7-6.1,1.7-10
		c-0.8-1.5-0.4-3.3,0.4-5C57.1,70.6,57.2,69,55.6,67.4z M227.5,57.1c0.3,1,0.5,2.2,0.9,3.3c2.1,5.3,5,5.8,8.5,1.4
		c3.9-4.8,7.2-9.9,11.3-14.4c2.5-2.8,2-5.1-1.1-7.4c-2.1-1.5-4.2-2.9-5.5-5.3c-0.6-1.2-2.2-1.4-2.6-0.2c-0.7,2.3-2.9,3.7-3.3,6
		c-0.5,2.2-1.8,3.6-3.2,5.2C229.7,48.8,228.1,52.6,227.5,57.1z M98.9,87.7c0.1,1-0.1,2.2,0.7,3c1.1,1.2,1.5,2.8,2.2,4.2
		c2,4.3,4.9,4.7,8.1,1.2c0.2-0.3,0.4-0.6,0.6-0.9c2.1-3.8,4.2-7.7,7.2-10.9c0.9-1,1.4-2.1,0.9-3.4c-1.5-4.1-3.2-8.2-4.8-12.3
		c-0.5-1.3-1.6-1.6-2.6-0.6c-0.9,0.8-1.7,1.8-2.3,2.8c-0.9,1.3-1.7,2.7-2.9,3.8c-2.7,2.7-4.2,6.2-6.2,9.4
		C99.1,85.1,98.8,86.4,98.9,87.7z M129.9,86c-0.2,2.9,1.8,5.1,2,7.8c0.2,1.8,1.6,2.1,2.8,2.6c1.3,0.6,2.5-0.3,3.1-1.4
		c3.5-5.6,7.6-10.7,10.6-16.6c2-3.9,0.6-6.9-1.1-9.9c-1.5-2.6-4.7-2.7-6.1-0.4c-1.7,2.8-4.2,4.7-6.3,7.2
		C132.3,78.3,130.1,81.7,129.9,86z M304.7,106.3c0.4-1.6,0.2-2.7-0.9-3.6c-1.5-1.2-3.1-2.5-4.6-3.6c-0.9-0.7-1.8-0.6-2.7,0.2
		c-3.7,3.6-6.2,7.9-8.3,12.4c-0.3,0.6-0.5,1.4-0.4,2.2c0.5,5.3,3.3,9.7,5.5,14.3c0.8,1.6,2.1,1.5,3.2,0c0.6-0.8,1-1.7,1.5-2.5
		c1.7-3.3,3.3-6.6,5-9.9c0.7-1.5,1.7-6.5,1.6-8.2C304.5,107,304.6,106.5,304.7,106.3z M57.1,62.6c-0.1,3,0.5,4.3,2.7,6.7
		c2,2.2,3.6,2.2,5.5-0.2c1.3-1.7,2.5-3.7,3.8-5.4c3.1-4.3,4.6-9.4,7.1-14c0.4-0.8,0.4-1.7,0.1-2.5c-0.7-2.4-2-4.5-3.7-6.3
		c-1.4-1.5-2.6-1.3-3.6,0.7c-0.5,1-1.1,1.9-2,2.6c-2.9,2.2-5.4,4.6-5.7,8.5c0,0.3-0.2,0.8-0.4,1C57.5,56,57.5,59.6,57.1,62.6z
		 M319.8,76.8c-3.2-1.6-4.1-1.7-5.2,0c-2,3-5,5.1-6.8,8.2c-1.2,2-3.7,3.4-3.2,6.3c0.4,2.6,1.6,4.9,2.9,7.1c0.4,0.6,0.9,1.2,1.3,1.8
		c2.4,3.2,2.7,3.4,5.4,0.3c2.7-3,4.9-6.3,7.8-9.1c0.9-0.9,1-2.2,1-3.4c-0.1-1.7-0.6-3.3-1.2-4.9c-0.6-1.4-2.2-3.3,0.7-4.4
		c0.6-0.2,0.4-1.1,0.3-1.7c-0.3-1.2-0.9-2.2-2-2.9C319.6,74.7,320.8,75.9,319.8,76.8z M498.2,59.9c0-0.1,0-0.2,0-0.4
		c-0.4-3.7-2.3-6.9-2.7-10.6c-0.1-1.1-3.1-2.3-3.6-1.6c-1.4,1.9-4,2.9-4.8,4.9c-1,2.6-2.9,4.2-4.5,6.1c-1.9,2.2-3.2,4.8-2.3,7.8
		c0.9,2.7,2,5.3,3.5,7.7c1.4,2.2,3.6,2.5,5.1,0.4c2.3-3.5,5.3-6.4,7.7-9.8C497.4,63,498.2,61.6,498.2,59.9z M129.2,105.3
		c-0.2-1.4-0.6-2.5-1.2-3.6c-1.1-2.1-2.9-3.9-3.2-6.5c-0.1-1-1-1.3-2-1c-1.3,0.4-2.5,0.6-3.1,2.2c-0.9,2-2.4,3.6-4.1,5.1
		c-2.5,2.1-3.5,5.2-5.2,7.9c-0.5,0.8-0.4,1.7,0,2.5c1.3,2.7,1.9,5.6,4,8c2.7,3,4,2.1,5.7-0.3c1.3-1.6,2.3-3.5,3.8-5
		c2.1-2.1,3.1-5,4.9-7.3C129,106.7,129,105.9,129.2,105.3z M190.3,75.3c-3.6,2-6.8,4.5-9.4,7.5c-1.1,1.3-2.6,2.5-3.1,4.1
		c-1.1,3.9-3.6,6.9-6,10c-2.2,2.8-2,6.1,0.1,8.8c1.8,2.4,2.6,2.5,4.4,0.1c4.5-5.8,9-11.7,13.6-17.4c1.5-1.9,2-4,2.8-6.1
		c1.1-2.9-0.6-4.2-1.6-6C190.9,76.1,190.7,75.8,190.3,75.3z M264.3,85.4c-0.8-2.9-2-6.1-3.8-9c-1.2-2-2.5-1.8-4.1,0.1
		c-2.3,3-4.7,6-6.9,9.1c-4.6,6.4-4.5,6.5-1.9,14c0.4,1.3,0.9,2.5,1.8,3.6c0.8,0.9,1.9,1.3,2.5,0.4c1.3-1.9,3.5-3.1,4.4-5.3
		c1.2-2.9,2.9-5.4,5.4-7.3C263.4,89.7,264.3,88,264.3,85.4z M292.8,81.7c0.1-2.5,0.1-2.5-2.1-3.6c-1-0.5-1.9-0.8-2.4-2
		c-0.9-2.4-2.7-2.7-4.2-0.8c-2.4,3.1-4.7,6.3-6.9,9.6c-1.1,1.6-1.5,3.4-0.7,5.3c1.3,3,2.5,6.2,4.1,9c1.6,2.9,4.1,2.7,5.3-0.5
		c1-2.7,2.6-4.7,4.6-6.5c2.1-1.8,2.7-4.3,3-6.9C293.7,83.9,292.3,83,292.8,81.7z M99.1,108.2c0-0.2,0-0.5,0-0.7
		c-0.2-3.7-3.2-6.1-4.2-9.5c-0.3-1-2-1.7-3.1-0.6c-2.5,2.5-5.3,4.9-7.1,7.9c-3,5.2-3,10.7,0.8,15.8c1.9,2.6,3.7,2.9,5.4,0.3
		c2.3-3.4,5.1-6.6,7.4-10C98.9,110.4,99,109.3,99.1,108.2z M139.7,111.5c0,0.4-0.1,0.7-0.1,1.1c0,2.4,0.8,3.6,3,4.5
		c2,0.9,2.9-0.7,4-1.8c0.9-0.9,1.5-1.9,2.1-3c1.5-2.6,2.7-5.3,5.2-7.4c2.3-1.9,3.7-4.9,4.2-8c0.5-2.7,0.3-5.4-1.6-7.7
		c-0.9-1-1.8-1.6-3.2-0.7c-2.1,1.4-4.1,2.6-5,5.2c-1.1,3.1-2.7,6.1-4.9,8.6C141,105,139.9,108,139.7,111.5z M166.6,115.6
		c0.1-0.5,0.3-1,0.2-1.4c-0.3-1.7-1.4-2.9-2.8-3.6c-1.3-0.6-2.2,0.5-3.1,1.4c-0.7,0.8-1.4,1.7-2.3,2.4c-1.6,1.2-3.9,1.7-3.5,4.4
		c0,0.2-0.4,0.6-0.7,0.7c-1.6,0.7-2.1,2.3-3.2,3.4c-3.3,3.3-3.8,7.5-3,11.9c0.3,1.7,1.7,2.6,3.3,3.2c1.6,0.6,2.4-0.6,3.3-1.7
		c2.1-2.8,4.9-5.1,6.1-8.6c0.5-1.3,1.5-2.6,2.6-3.6C166.1,121.8,166.3,118.7,166.6,115.6z M215.9,54.8c0-1.8-0.3-3.4-1.4-4.9
		c-0.6-0.8-1.4-1.6-2.5-1.3c-1.9,0.5-4,0.8-5.1,2.6c-2.5,3.9-5.9,7.2-8.7,10.9c-2.9,3.8-3.1,7.5-0.7,11.6c0.9,1.6,1.9,1.8,3.1,0.4
		c4.8-5.4,9.5-10.9,14.3-16.3C215.7,56.9,216.2,56,215.9,54.8z M110.2,130.5c-1.6-2.5-1.7-6.3-4.1-9c-0.2-0.2-0.3-0.4-0.5-0.5
		c-1-1-1.9-0.9-2.8,0.2c-0.9,1.2-1.6,2.5-2.7,3.4c-3,2.6-4.1,6.3-6.1,9.5c-0.4,0.6,0,1.4-0.1,2.2c0,3.3,2.2,5.4,3.9,7.7
		c1.5,2.2,2.4,2,4-0.3c0.3-0.5,0.7-1,1.2-1.4c3-2.2,4.5-5.4,6.3-8.4C109.9,133,110.1,132,110.2,130.5z M212.9,110.7
		c-0.1,2.2,0.7,3.4,2,4.2c1.2,0.7,2.3,0.2,3-0.7c1.4-1.7,3.3-3,4.5-4.8c3.2-4.9,6.5-9.7,9.7-14.6c1-1.5,1.4-3.1,1.1-4.9
		c-0.3-1.3-0.7-2.4-2-2.9c-1.3-0.5-2.2,0.6-2.8,1.4c-4.2,6-9.8,10.9-13.6,17.2C213.7,107.5,213.1,109.3,212.9,110.7z M266.3,65.1
		c0.3,3,1.2,5.6,2.8,7.8c1.5,2,2.3,2.1,4.2,0.5c1.4-1.2,2.9-2.3,4.1-3.7c3-3.2,5.6-6.6,2.6-11.3c-0.4-0.7-0.5-1.4,0.2-2
		c1.3-1.1,0.5-1.9-0.5-2.7c-1.9-1.6-3.5-1.7-5.6,0c-3.1,2.4-5,5.7-7.2,8.8C266.4,63.2,266.5,64.4,266.3,65.1z M104.2,156.7
		c0.3,2.9,1.1,5,2.9,6.7c1.5,1.4,2,1.2,3.5-0.4c2.9-3.1,5-6.9,7.9-10c1.8-1.9,1.5-4.3,0.6-6.6c-0.7-1.6-2.2-2.8-4-2.7
		c-1.2,0-2.4,0.5-3.4,1c-0.8,0.4-0.6,1.5-0.7,2.4c-0.3,1.3-1.1,2.1-2.1,2.9C106.5,151.8,105.3,154.5,104.2,156.7z M136.7,125.5
		c0.1-2.1-1-3.7-1.5-5.4c-0.2-0.8-1-1-1.8-0.8c-1,0.2-1.7,0.9-2.3,1.7c-2,2.6-4.1,5.1-6.5,7.4c-3.1,3-2.9,7.8,0,11
		c1.4,1.4,1.8,1.3,3-0.2c2-2.6,3.6-5.5,6.1-7.8C135.3,129.9,137,128,136.7,125.5z M251.1,59.9c-1.9,0.6-3.6,2.1-4.5,4
		c-1,2-2.2,3.8-3.5,5.6c-1.6,2.1-3,4.4-4.5,6.7c-0.7,1.1-0.3,3.6,0.8,4.3c1.6,1.1,2.4-0.3,3.3-1.2c0.3-0.3,0.5-0.6,0.7-0.9
		c2.5-3.7,5-7.5,8.2-10.7c0.8-0.8,1.5-1.9,2-3C254.7,62.7,253.4,60,251.1,59.9z M367.5,64.6c0.1-2.1-1.2-4.5-2.6-5.5
		c-1.3-0.9-2.7-0.8-3.6,0.4c-1.1,1.4-2.3,2.8-2.9,4.6c-0.9,2.9,0.1,5.5,2.5,7.1c0.7,0.4,1.4,0.6,2,0.2
		C365.5,69.6,366.9,67.1,367.5,64.6z M423.2,177.7c-0.9-2.8-1.6-5.4-2.4-7.9c-0.1-0.4-0.5-0.8-0.9-1.1c-0.4-0.3-1-0.4-1.4-0.1
		c-0.2,0.2-0.5,0.6-0.4,0.9C418.6,172.9,419.1,176.2,423.2,177.7z M396.4,167.2c2.3,2.7,1.3,7,4.8,9.3
		C400.9,173,398.9,169,396.4,167.2z M407.5,191c0,3.6,1.1,5.7,3.7,7C410.1,195.5,410,192.8,407.5,191z M391.3,226
		c-0.5-2.2-1.4-4.1-3.1-5.5C388.7,222.6,389.2,224.8,391.3,226z M454.1,245.6c-0.3-3.5-1-4.5-3.4-5.3
		C451.7,242.2,452.2,244.2,454.1,245.6z M536.4,148.8c0.1,0.9,0.1,1.9,1.3,2.2c0.7,0.2,1.1-0.4,1.1-1.1c0-1-0.4-1.9-1.5-2.1
		C536.8,147.7,536.5,148.2,536.4,148.8z M280.2,184.1c0-1.1-0.4-1.9-1.1-2.5c-0.5-0.5-1.1-0.6-1.6-0.1c-0.6,0.5-0.4,1.1,0,1.6
		C278.2,183.8,278.9,184.3,280.2,184.1z M139.8,245.9c0.2,3,0.2,3.1,2.4,4.1C141.4,247.4,141.4,247.4,139.8,245.9z M542.8,73.5
		c0.2,0.8,0.5,1.7,1.6,1.8c0.6,0,0.7-0.6,0.6-1.1c-0.2-0.9,0-2.1-1.5-2C543,72.3,542.8,72.8,542.8,73.5z M404.1,182
		c-0.2-1.7-0.8-2.8-2.3-3.3c-0.1,0-0.4,0.3-0.4,0.4c0,1.4,1,2.1,1.9,2.8C403.3,182,403.5,182,404.1,182z M215.5,46.6
		c0.1,2.5,0.1,2.5,2.4,2.5C217.4,48,216.9,47.2,215.5,46.6z M131.8,227.5c0-1.2,0.4-2.3-0.5-3.2c-0.4-0.4-0.9-0.5-1.3-0.3
		c-0.6,0.2-0.6,0.8-0.2,1.2C130.4,225.8,130.5,226.9,131.8,227.5z M420.2,218.7c-0.3,0-0.6,0.1-0.9,0.1c0.4,1.4,0.8,2.7,1.2,4.1
		C421.5,221.3,420.9,220,420.2,218.7z M371.3,184.3c-0.2,1.7-0.1,2.9,1.9,3.6C373.1,186.4,373,185.2,371.3,184.3z M412.3,202.4
		c0.2,0.8,0.6,1.6,1.5,1.7c0.6,0.1,0.8-0.5,0.7-1c-0.2-0.9-0.6-1.6-1.7-1.6C412.5,201.6,412.4,201.9,412.3,202.4z M121.6,205.9
		c0.5,1,0.8,2.1,2.3,1.7c0.4-0.1,0.7-0.5,0.6-0.8C123.9,205.5,122.9,205.2,121.6,205.9z M483,175.5c-0.2-0.5-0.5-1.2-1.3-1.3
		c-0.4-0.1-0.7,0.2-0.7,0.6c-0.1,0.8,0.3,1.4,1.2,1.5C482.6,176.3,482.8,176.1,483,175.5z M445.7,227.7c-0.7,0.3-0.8,0.9-0.6,1.5
		c0.1,0.6,0.4,1.3,1.2,1c0.5-0.2,0.5-0.8,0.4-1.3C446.6,228.4,446.5,227.8,445.7,227.7z M385.9,215c-0.4,1.4-0.1,2.2,1.3,2.9
		C387.4,216.5,387.1,215.7,385.9,215z M392.8,113.2c0.5-0.9-0.2-1.3-0.8-1.7c-0.2-0.2-0.6-0.1-0.6,0.2
		C391.6,112.4,392,113,392.8,113.2z M398.3,48c-0.5,0-0.6,0.4-0.5,0.7c0.1,0.3,0.4,0.7,0.7,0.7c0.4,0.1,0.6-0.3,0.5-0.7
		C398.9,48.4,398.7,48.1,398.3,48z M84.5,70.1c0.1-0.5-0.2-0.7-0.6-0.7c-0.2,0-0.5,0.2-0.5,0.3c-0.1,0.4,0.2,0.7,0.6,0.7
		C84.2,70.5,84.4,70.2,84.5,70.1z M409.8,150c-0.5,0-0.6,0.4-0.5,0.7c0,0.2,0.3,0.5,0.4,0.4c0.4,0,0.6-0.4,0.5-0.7
		C410.2,150.3,409.9,150.2,409.8,150z M433.5,137.1c0-0.4-0.3-0.7-0.6-0.8c-0.4-0.1-0.8,0-0.7,0.5c0,0.3,0.3,0.6,0.6,0.8
		C433.1,137.7,433.4,137.5,433.5,137.1z M217.3,131.1c-0.2,0.1-0.5,0.1-0.6,0.3c-0.1,0.4,0.2,0.6,0.6,0.6c0.2,0,0.5-0.1,0.6-0.3
		C218,131.3,217.7,131.2,217.3,131.1z M417.1,210.5c0-0.4-0.1-0.7-0.4-0.9c-0.6-0.2-0.9,0.2-0.8,0.7c0,0.3,0.3,0.6,0.6,0.7
		C416.9,211.2,417.1,210.9,417.1,210.5z M82.1,65.2c0.5,0.1,0.8-0.1,0.7-0.5c-0.1-0.3-0.4-0.5-0.7-0.7c-0.3-0.1-0.7,0-0.6,0.5
		C81.6,64.8,82,65,82.1,65.2z M168.4,192.4c0.1-0.2,0.2-0.3,0.3-0.5c-0.2-0.1-0.4-0.3-0.6-0.2c-0.1,0-0.2,0.3-0.3,0.5
		C168,192.2,168.2,192.3,168.4,192.4z M135.2,235.5c0,0.2-0.1,0.4-0.1,0.6c0,0.1,0.2,0.2,0.3,0.2c0.3,0,0.4-0.2,0.3-0.4
		C135.6,235.7,135.3,235.6,135.2,235.5z M100.7,100.1c-0.1,0-0.2-0.1-0.3-0.1c0,0.2-0.1,0.4-0.1,0.6c0,0,0.2,0.1,0.3,0.1
		C100.8,100.5,100.9,100.3,100.7,100.1z M318.7,193.9c-0.1-0.2-0.2-0.3-0.3-0.5c-0.2,0.1-0.4,0.2-0.4,0.3c0,0.2,0.2,0.3,0.3,0.5
		C318.4,194.1,318.6,194,318.7,193.9z M422.3,225.2c0,0.2-0.1,0.4-0.1,0.6c0,0.1,0.2,0.2,0.3,0.2c0.3,0,0.4-0.2,0.3-0.4
		C422.7,225.4,422.5,225.3,422.3,225.2z"/>
	<path d="M628.8,58c1.3,0.6,2.6,2,3.6-0.6c0.5-1.4,1.7-0.6,2.2,0.3c1.1,2.2,2.1,4.4,3.1,6.7c0.6,1.2,1.1,2.5,1.8,3.6
		c1.3,2.1,3.8,2.5,5.2,0.5c3.6-5,8.3-9.1,12.4-13.6c0.9-1,1.7-2.2,2-3.5c0.7-3.2,3.9-5.1,4.1-8.5c0.1-0.8,1-1.1,1.8-0.9
		c2.3,0.5,3.7-0.9,5.2-2.1c4.5-3.8,8.9-7.8,12.6-12.4c0.8-1,1.7-1.8,2.9-2.2c0.8-0.3,1.5-1.2,2.4-0.6c1.1,0.7,1.1,2.2,0.6,3
		c-2.8,4.8-4.4,10.3-9.6,13.6c-4.6,2.9-7.6,7.6-10,12.4c-0.4,0.9-0.8,2-0.5,2.9c1.4,3.7,1.8,7.6,3.7,11.1c0.9,1.6,1.4,3.4,2.2,5.1
		c1.2,2.5,3.6,2.9,5.1,0.5c2.1-3.3,4.6-6.3,6.1-10c0.7-1.8,1-3.5,0.4-5.3c-0.8-2.4-1.5-4.9-1.3-7.5c1.6-0.2,1.6,1.1,2,1.8
		c0.4,0.7,0.9,1.7,1.5,1.4c2.3-1.1,5.2-0.3,7-2.6c3.7-4.5,8.1-8.5,10.7-14c1.3-2.8,4.2-4.5,5.9-7c3.2-4.6,7.9-7.6,11.7-11.6
		c0.6-0.6,1.5-1.1,2.3-0.6c1.2,0.8,1.7,2.2,1.3,3.6c-0.3,0.9-0.9,1.8-1.5,2.5c-2.1,2.3-3.7,4.9-4.5,8c-0.5,1.8-1.4,3.4-3.3,4.2
		c-1.6,0.7-2.8,1.9-3.8,3.4c-2.4,3.6-5.2,6.8-8.2,9.9c-1.6,1.6-2.6,3.8-3.9,5.8c-1.4,2.2-2.7,4.4-4.2,6.5c-1.9,2.6-2.3,5.6-0.1,8.2
		c2.6,3.1,3.1,6.9,4.1,10.5c0.4,1.6,0.9,3,2.1,4.2c2,2.1,3.1,2.1,4.6-0.3c2-3.4,4-6.7,5.9-10.2c1.2-2.1,2.6-3.9,4.2-5.5
		c3.8-3.9,5.7-8.8,6.1-14.2c0-0.7-0.4-2.1,0.1-2c2,0.3,2.4-2.7,4.3-2.1c3.3,1,5.3-1.1,6.8-3.2c1.7-2.3,3.6-4.7,4.2-7.7
		c0.4-2,1.6-3,3.6-3c3.4,0,5.4-2.1,7.2-4.5c2.7-3.5,6.1-6.4,8.7-10c0.7-0.9,1.6-1.7,2.8-1c1.3,0.7,1.1,2,0.6,2.9
		c-1.6,3-2.8,6.2-5.3,8.7c-4.4,4.3-8,9.3-11.1,14.6c-1.5,2.6-3.3,4.9-6.2,6c-0.6,0.2-1.3,0.5-1.6,0.9c-2.3,3.5-6,6.4-6.3,11
		c-0.2,2.5-2.1,4.1-2.7,6.3c-0.2,0.9-1.1,0.9-1.9,0.6c-3.3-1.1-5.3,0.4-7.1,2.9c-1.8,2.5-3.6,4.7-3.7,8.2c-0.1,2.8-2.3,4.7-4.9,6
		c-4.8,2.2-5.4,1.7-2.8,8c1,2.6,2.2,5.2,2.7,8c0.2,0.8,0.4,1.7,0.9,2.4c4.1,5.8,5.4,12.9,8.7,19.1c0.7,1.4,1.1,3,1.5,4.5
		c0.7,2.5,1.3,5,2.5,7.3c2.9,5.5,4.5,11.6,6.8,17.4c1.9,4.9,3.7,9.9,5.6,14.8c2,5.2,3.8,10.6,5.8,15.8c2,5.3,3.5,10.7,5.9,15.8
		c0.6,1.2,1.1,2.5,1.2,3.9c0.6,6,3.9,11.4,4.3,17.5c0.1,2.1,1.5,4.1,2.4,6.1c1.3,3.1,2.1,6.3,2.9,9.5c1.2,4.6,2.4,9.3,4.5,13.6
		c0.2,0.4,0.5,0.9,0.7,1.3c0.9,2.2,0.7,4.3-0.4,4.7c-1.6,0.7-4.5-0.2-5.6-1.7c-1.3-1.7-1.9-3.7-2.4-5.7c-1.8-7.7-5.3-14.8-7.7-22.2
		c-1.4-4.4-2.9-8.9-3.4-13.6c-0.3-2.6-1.5-4.9-2.6-7.2c-1.9-3.9-3.3-7.9-4.1-12.2c-0.5-2.9-1.7-5.6-2.8-8.3c-0.6-1.7-1-3,0.9-4
		c0.6-0.3,0.9-0.9,0.4-1.5c-0.4-0.5-0.9-0.3-1.3,0c-1.8,1.1-2.6,0-2.9-1.5c-1.2-5.5-3.9-10.6-5.2-16.1c-0.7-2.8-2.5-5-2.9-7.9
		c-0.2-1.3-0.6-2.6-0.7-4c0-1.6-0.4-3.1-1.4-4.5c-1.6-2.2-2.7-4.5,0-7c-4.9-1.9-5.7-5.8-5.4-10c0.2-3.1,0.1-3.4-2.8-4.6
		c-0.7-0.3-1.5-0.6-1.7-1.3c-0.6-2.6-3.4-4.8-1.3-7.9c0.7-0.9,0-2.2-0.3-3.2c-0.3-1.1-0.8-2.1-1.2-3.1c-1-2.9-1-2.9-3.7-0.9
		c-1.1-1.7-1.2-3.7-1.4-5.6c-0.1-0.7,0.2-1.4,0.7-2c1.7-2.1,1.6-3.1-0.4-4.7c-0.4-0.3-0.8-0.6-1.2-0.8c-1.8-0.6-2.4-1.6-1.2-3.3
		c0.6-0.8,0.6-1.6-0.1-2.3c-2.3-2.2-2.4-5.4-2.9-8.2c-0.4-2.8-1.6-5.2-2.9-7.5c-2.6-4.5-9.2-4.3-11.8,0.3c-0.7,1.3-1.4,2.6-2.4,3.7
		c-2.4,2.7-3,6.1-3.7,9.5c-0.6,3.1,1.4,5.6,2.1,8.5c1.3,5.1,3.6,9.9,5.7,14.7c1.6,3.6,2.3,7.7,3.6,11.6c0.2,0.6,0.3,1.3-0.3,1.7
		c-0.8,0.4-1.5-0.2-1.8-0.8c-0.4-0.8-0.6-1.6-0.8-2.4c-0.4-1.7-1.2-3.1-2.8-4.2c0.5,2.3,1,4.7,1.6,7c0.4,1.4,1.2,2.4,2.8,2.5
		c1.3,0.1,2.3,0.7,2.8,2.1c1.8,5.5,5.6,10.2,6.3,16.1c0.7,5.3,3.2,10,5,14.8c2.9,7.8,4.9,16,8.3,23.6c1.5,3.4,1.8,7.1,2.8,10.7
		c0.3,0.9,0.4,1.9,0.9,2.8c2.6,3.9,3.9,8.5,5.8,12.7c1.4,3.2,1.8,6.6,3,9.8c2.1,5.3,3.5,11,6.1,16.1c2.3,4.5,4,9.2,5,14.2
		c0.3,1.4,1,2.5,1.6,3.7c2.4,4.8,3.7,9.9,4.7,15c0.2,1.2,0.4,2.6-1.5,2.7c-1.8,0-1.3,1.9-2.4,2.8c-1.8-1.3-2.7-3.3-3.4-5.4
		c-3-8.5-6.1-16.9-9.3-25.2c-3.9-10.2-7.5-20.5-12.1-30.4c-0.9-2-1.4-4.2-2.1-6.3c-3.6-10.3-6.9-20.7-9.9-31.2
		c-1.3-4.6-3-9.1-5-13.4c-1.9-4.1-2.7-8.7-4.3-12.9c-3-8-5.7-16.2-8.5-24.3c-1.9-5.6-3.5-11.2-5.3-16.8c-0.9-2.8-2-5.6-3.2-8.2
		c-1.2-2.6-2.9-3-5.4-1.4c-0.9,0.6-1.7,1.4-2.6,2.1c-1,0.7-2,0.9-3.1,0.3c-1.2-0.7-0.9-1.9-0.8-3c0.1-0.9,0.6-1.6,1-2.4
		c0.9-1.6,1.7-3.3,2.7-4.8c2.6-4.2,2.3-8.6,0.8-13.1c-1.1-3.2-1.9-6.6-2.9-9.9c-0.1-0.5-0.2-1-0.3-1.4c-0.6-1.9-1.4-3.9-3.5-4.3
		c-2-0.5-3.2,1.3-4.2,2.5c-2.9,3.5-5.6,7.2-7,11.6c-0.3,0.9-0.8,1.5-1.4,2.1c-2.5,2.6-2.8,5.7-1.7,8.9c1.1,3,2.5,5.9,3.2,9
		c0.1,0.6,0.5,1.2,0.9,1.5c1.7,1.5,2.2,3.4,2.5,5.5c0.4,2.7,2.2,4.9,3.4,7.3c3.1,6.1,5.9,12.4,7.9,19c0.8,2.5,1.4,5,2.7,7.2
		c2.4,4.2,3.7,8.8,5.4,13.3c1.1,2.8,2.6,5.5,3.5,8.4c1.5,5.1,2.5,10.3,4.3,15.2c1.9,5.3,2.9,10.9,6,15.7c0.5,0.7,0.9,1.5,1.1,2.3
		c1.2,7.2,5.2,13.5,7.1,20.5c1.5,5.4,4.1,10.5,5.9,15.8c2,6,5.4,11.3,7.4,17.2c0.3,0.9,0.9,1.8,1.6,2.5c1.4,1.3,1.7,3,1.8,4.7
		c0.2,2.4-0.4,2.6-2.8,2.9c-3.8,0.6-5.1-1.7-6.5-4.4c-3.9-7.3-6.6-15-10-22.5c-0.8-1.8-0.9-3.8-1.6-5.7c-3-7.8-5.6-15.8-8.7-23.5
		c-2.7-6.6-4.4-13.5-7.5-19.9c-1-2.1-0.4-4.6-1.4-6.8c-1.7-3.4-2.9-7.1-3.9-10.7c-2.7-9.6-7.2-18.5-10.6-27.8
		c-2.5-6.8-5-13.5-7.6-20.2c-0.9-2.3-2-4.5-3.2-6.6c-1.3-2.4-2.6-4.8-3.3-7.4c-1-4-3.7-7.2-4.4-11.3c-0.1-0.3-0.3-0.7-0.6-0.9
		c-3.5-2.6-4.1-6.6-4.9-10.4c-0.7-3.7-2-7.1-3.7-10.4C629.7,64.5,629.1,61.3,628.8,58L628.8,58z M672.9,162.5c0.3,0,0.6-0.1,0.9-0.1
		c-0.3-1.5-0.6-3-1-4.5c-0.1-0.5-0.6-0.8-1.2-0.6c-0.5,0.2-0.6,0.7-0.4,1.2C671.7,159.8,672.3,161.1,672.9,162.5z M647.7,98.8
		c0-1.7,0.1-2.9-1.4-3.4c-0.1,0-0.5,0.2-0.5,0.4C645.5,97,646,97.9,647.7,98.8z M665.6,59.7c0,0.8,0.4,1.3,1.3,1.4
		c0.4,0,0.7-0.3,0.7-0.7c0-0.8-0.4-1.4-1.3-1.5C665.9,58.9,665.7,59.3,665.6,59.7z M659.2,129.3c0.1,0.5,0.3,0.9,0.9,0.8
		c0.4-0.1,0.4-0.5,0.4-0.9c-0.1-0.4-0.3-0.6-0.7-0.6C659.3,128.6,659.2,128.9,659.2,129.3z M684.2,112.5c0.1-0.1,0.3-0.2,0.4-0.4
		c0,0-0.1-0.2-0.2-0.3c-0.2-0.2-0.5-0.2-0.5,0.1C683.9,112.1,684.1,112.3,684.2,112.5z"/>
	<path d="M909.2,114.1c-2.7-0.5-3-1.9-3.4-3.5c-0.8-3.3-2.9-4.9-6-4.7c-1.6,0.1-2.8,0.7-3.6,2.1c-1.3,2.4-2.9,4.5-4.7,6.6
		c-1.4,1.6-1.5,3.4-0.9,5.2c1.7,5.4,1.8,11.1,3.5,16.6c0.9,2.8,2.5,5.3,3.4,8.1c2.5,7.7,5.3,15.3,8.6,22.7c1.7,3.9,2.3,8.3,3.7,12.3
		c1.1,3.1,2,6.3,3.5,9.3c3.6,7.2,5,15.1,7.9,22.6c3.3,8.3,6.3,16.8,9.4,25.2c0.2,0.6,0.5,1.1,0.7,1.7c1.4,3.8,1.3,3.7-2.5,4.9
		c-1.7,0.5-2.8,0.1-3.2-1.4c-1.3-4.5-3.9-8.5-5.3-12.9c-0.7-2.3-1.3-4.5-1-6.8c0.2-1.9-0.2-3.4-2-4.4c-1.8-1-2.5-2.7-2.5-4.6
		c0-1.6-0.6-3.1-1.3-4.6c-1.3-2.6-2-5.5-2.8-8.3c-1.1-3.6-2.8-7-4.1-10.6c-0.9-2.4-1.9-4.8-2.2-7.4c-0.1-1-0.5-1.9-1.1-2.7
		c-0.6-0.7-1.1-1.6-0.8-2.4c1-2.5-0.5-4.2-1.7-6c-0.9-1.4-1.4-2.9-1.3-4.5c0-1.5-0.1-3-0.7-4.3c-0.8-1.8-1.5-3.5-0.5-5.6
		c0.8-1.6-0.4-3.2-1.9-4c-3.4-2-4.1-5.2-3.9-8.8c0.2-2.3,0.2-4.7-0.4-7c-0.3-1-0.5-2.1-1.5-2.4c-2.8-1.1-4.1-3.8-6.4-5.4
		c-2.5-1.8-3.5-4.4-3.4-7.4c0.2-5.8-1.7-11-3.8-16.3c-0.7-1.8-0.9-3.8-1.4-5.7c-0.6-2-1.4-3.9-3.3-5.1c-1.5-0.8-2.9-1.2-4.6-0.8
		c-2.2,0.5-3.2-0.4-3.1-2.5c0-0.6,0.1-1.3,0.4-1.8c1.9-2.9,1.8-6.4,2.3-9.6c0.3-1.8-2.3-6.3-4-7c-0.6-0.3-1.3-0.2-1.8,0.2
		c-2.4,1.9-4.4,3.9-4.5,7.2c-0.1,3.3,0.9,6.3,2.2,9.2c0.7,1.5,1.4,2.9,1.5,4.5c0.1,1.3,0.6,2.4,1.1,3.5c2.2,4.2,3,8.8,4.6,13.2
		c1.5,4,2.9,8.1,4.4,12.1c2,5.4,4.9,10.5,5.4,16.3c0.1,0.7,0.4,1.5,0.9,2c3.7,4.2,5.9,9.4,7.4,14.6c1.9,6.8,5.3,12.9,7.9,19.3
		c1.6,3.9,2.5,8,3.7,12c0.3,1.2,0.4,2.5,1.1,3.5c2.2,3.4,2.7,7.4,4.4,10.9c3,6.5,5.1,13.3,7.8,19.8c2.9,7,6.2,13.8,8.9,20.9
		c2.1,5.4,5.3,10.5,7.9,15.8c1.2,2.4,2.3,4.9,3.2,7.5c0.9,2.6,0.4,4.6-1.2,5.2c-1.4,0.6-3.3-0.1-4.5-2.4c-2.3-4.7-5.8-8.9-6.1-14.5
		c-0.1-2.4-1.1-4.4-2.6-6.3c-3.2-4.3-6-9.1-8.1-14c-3.4-8.1-7.4-16.1-9.5-24.7c-0.5-1.9-0.7-3.8-1.1-5.7c-0.7-2.9-2.3-5.3-3.5-8
		c-2-4.6-2.7-9.7-5.7-14c-0.7-1-0.8-2.5,0.4-3.3c1.4-1,1-1.9,0.1-2.7c-2.2-1.9-3.1-4.3-3.6-7c-0.5-2.6-2.5-4.5-3.6-6.8
		c-2.4-5.1-4.5-10.3-6.1-15.7c-0.3-1,0.1-1.9,0.5-2.8c0.8-1.9,0.1-3.5-1.1-5.1c-2.4-3.2-4.8-6.5-6.6-10.1c-1.2-2.4-2.2-4.9-3.4-7.3
		c-0.7-1.3-0.9-2.6-0.1-3.8c1.3-2.1,1.3-4.1,0.3-6.3c-0.4-0.9-0.2-1.9-0.4-2.9c-0.4-1.8-0.8-3.6-2.2-5c-0.7-0.7-1.1-1.6-1.2-2.6
		c-0.3-3.6-2.6-5.6-5.7-6.9c-1.4-0.5-2.7-1.2-4-1.9c-2.7-1.5-3.9-3.5-3-6.3c1.2-3.6,0.5-7.3,1.5-10.9c0.5-1.8-0.8-3.5-1.5-5.2
		c-0.3-0.7-0.5-1.5,0.2-2c0.8-0.7,1.6-0.2,2.3,0.4c0.2,0.2,0.3,0.4,0.5,0.5c2.9,2.8,4.9,2.4,6.5-1.3c0.9-2.1,1.5-4.4,2.1-6.7
		c0.6-2.1,1.6-3.5,4-3.6c2.8-0.1,4.8-1.8,6.4-3.9c1.4-1.9,3-3.6,4.6-5.3c2.2-2.3,4-5,4.4-8.3c0.2-1.7,1.1-2.9,2.9-3.5
		c3.9-1.3,6.6-4,9-7.3c2.5-3.4,6-5.8,8.5-9.2c0.4-0.6,1.2-0.9,2-0.6c1.1,0.5,0.8,1.4,0.6,2.2c-1.3,4.6-4.3,8.2-6.8,12.1
		c-3.2,5-7.7,9.3-8.8,15.5c-0.4,2.1-1.9,3.5-4.2,3.4c-2.4-0.1-3.9,1.2-5.3,2.9c-2,2.5-4.1,4.9-6,7.5c-2.6,3.5-1.3,10,2.3,12.5
		c1.5,1,3,1.2,4.3-0.2c3.5-3.9,7.4-7.5,8.2-13.2c0.4-3.3,2.4-4.6,5.6-4.4c1.8,0.1,3.1-0.5,4.2-1.7c3.4-3.7,6.8-7.4,10.2-11.2
		c2.1-2.4,3.6-5.3,4.3-8.5c0.2-1.1,0.5-2.4,2-2.1c3.6,0.7,5.7-1.7,8-3.7c2.6-2.4,4.6-5.4,8-6.9c0.9-0.4,1.6-1.3,1.9-2.2
		c1-3.1,3.9-4.7,5.6-7.2c0.3-0.4,0.7-0.7,1.3-0.5c0.5,0.2,0.7,0.7,0.7,1.2c0.1,2.5,0.1,4.7-2.1,6.7c-4.2,3.9-8.3,8-12.1,12.2
		c-2.3,2.5-4.2,5.4-6.2,8.2c-0.7,1-0.8,2.3-0.6,3.6c0.5,4.1,1.9,7.9,3.8,11.5c0.5,1,1.3,1.8,2.2,2.5c2,1.7,3.3,1.7,5.1-0.1
		c1.3-1.3,2.6-2.7,3.5-4.3c2.6-4.4,6.4-8.1,8.3-13c0.5-1.3,1.8-2,3-2.6c2.6-1.4,4.9-3.1,6.8-5.5c1.9-2.5,4.8-4.2,6.8-6.7
		c0.3-0.4,0.8-0.5,1.3-0.2c0.4,0.3,0.7,0.8,0.6,1.3c-0.2,0.7-0.3,1.5-0.8,2c-1.8,2-2.5,4.8-5,6.3c-0.6,0.3-0.9,1.1-1.2,1.8
		c-0.7,1.2-1.1,2.5-1.9,3.6c-2.6,3.5-4,7.8-6.8,11.3c-0.5,0.6-0.8,1.4-1.4,1.6c-3.4,1.2-4.8,4.4-6.9,6.9c-1.5,1.9-2.8,4-4.5,5.8
		c-2.6,2.6-2.6,6-2.3,9.3c0.3,3.4,0,4-3.4,3.8c-3.4-0.2-5.3,1-6.9,4.1c-1.4,2.8-4,5-6,7.4c-0.7,0.9-1.3,1.8-2,2.6
		c-2.6,3.5-3.5,7.1-2.1,11.4C906.9,107.7,907.1,110.9,909.2,114.1z M917.5,62.8c0.8-3.1-1.5-5.7-2.5-8.7c-0.8-2.3-2-2.9-4.2-3.2
		c-2.5-0.4-4.1,0.8-5.5,2.2c-3.2,3.2-6.3,6.6-9.4,9.9c-1.6,1.7-2.3,3.7-2,6.1c0.4,3.2,0.6,6.4,2.3,9.2c0.5,0.8,0.7,1.8,1,2.8
		c0.1,0.5,0.1,1-0.5,1.2c-0.6,0.2-1-0.2-1.2-0.6c-0.7-2.2-3.2-3.8-2.4-6.7c0.3-1-0.8-1.8-1.6-1.2c-1.6,1.4-3,1-4.7,0.4
		c-0.9-0.4-1.9,0-2.8,0.6c-5.9,4.3-8,10.2-5.9,17.1c0.4,1.4,1,2.8,1.7,4.1c0.9,1.8,1.7,3.6,2,5.5c0.3,2.3,1.6,4.1,2.9,5.9
		c1.5,2,2.4,2,4,0c1.8-2.4,3.3-4.9,5.5-6.9c0.4-0.4,0.8-1,0.9-1.6c0.5-3.5,2.6-6.6,2.4-10.3c-0.1-2.3,0.6-2.6,2.6-1.7
		c2.9,1.3,3.2,1.3,5.3-1.1c2.7-3.2,5.2-6.5,7.7-9.9C916.3,72,917.8,67.8,917.5,62.8z"/>
	<path d="M628.9,57.9c-1.2-0.8-2.5-1-3.9-0.9c-2.6,0-3.3,0.6-3.1,3.3c0.1,2-0.7,3.4-2.3,4.2c-2,1-2.3,2.4-2,4.6
		c0.4,2.1,0.3,4.4,0.3,6.6c-0.2,5.5,2,10.3,4.2,15.1c1.7,3.7,3.4,7.4,4.6,11.2c1.1,3.6,2.4,7.2,4,10.7c0.6,1.3,1.1,2.7,1.5,4.2
		c0.7,3.2,1.6,6.4,3.1,9.4c2.2,4.4,3.1,9.3,4.7,13.9c1.2,3.6,2.4,7,4.4,10.2c0.1,0.2,0.3,0.4,0.3,0.7c0.8,5.8,3.8,10.9,5.6,16.3
		c1.8,5.3,4.3,10.4,6,15.8c1.5,4.7,3.8,9,4.7,13.9c0.4,2.1,1.5,3.9,2.4,5.8c1.9,3.7,2.9,7.8,4.5,11.7c2.2,5.1,3.1,10.7,5.4,15.6
		c2.1,4.5,3.4,9.3,6.2,13.5c1,1.6,1.4,3.5,1,5.3c-0.3,1.6,0.2,2.8,1,4.1c1.4,2.1,2.7,4.3,3.3,6.7c-0.8,1.3-2.6-0.7-2.8,1.1
		c-0.1,1.5,0.9,1.9,2.4,2.1c1.8,0.2,1.9,1.2,0.4,2.5c-0.3,0.2-0.6,0.4-0.8,0.7c-2.1,2.4-2.3,2.5-3.3-0.3c-2.6-7.1-6.4-13.8-8.7-21
		c-1.6-4.9-3.7-9.8-5.9-14.7c-3.6-7.9-7.4-15.7-9.1-24.3c-0.4-2.1-1.6-4.1-2.4-6.2c-3.7-9.6-7.3-19.2-11.2-28.8
		c-1.5-3.7-1.8-7.6-3.5-11.2c-0.7-1.4-1.1-3-2-4.3c-1.5-2.3-1.3-5-1.6-7.5c2.9,1.8,3.4,5.6,6.3,8.2c0.2-2.3-1.2-3.7-1-5.4
		c0.4-3.2-2-5.2-3.9-8c-0.6,2.2-1,3.8-1.4,5.4c-4-5.6-5.7-12.1-7.6-18.6c-1.3-4.4-1.8-9.1-4.5-13c-1.7-2.5-1.7-5.8-2.8-8.7
		c-1.4-3.6-3.5-7-4.5-10.8c-0.6-2.6-1.7-5.1-2.2-7.7c-0.5-2.3-1.8-4.5-2.9-6.7c-0.7-1.4-1.7-1-2.8-0.4c-2.3,1.3-3.7,3.6-5.4,5.5
		c-1.2,1.3-2.3,2.7-3.7,3.6c-2.8,1.8-3.1,4.3-2.3,7.1c1.1,4,2,8.1,3.4,12.1c3.4,9.9,6.9,19.7,10.4,29.5c0.5,1.5,1.2,2.9,2,4.3
		c0.6,0.9,1.2,2,1.3,3c0.2,5.5,3.3,9.9,5.6,14.5c1.7,3.4,2.9,7.1,3.6,10.8c0.5,2.6,1.4,4.9,2.4,7.3c0.8,1.9,1.5,3.9,2,5.9
		c0.4,1.8,0.9,3.6,1.7,5.2c2.1,3.9,3.1,8.3,4.4,12.5c1.8,5.7,3.5,11.5,5.9,17c0.6,1.4,1.1,2.8,1.3,4.2c0.3,2.5,1.3,4.7,2.2,6.9
		c2.5,6.2,5.4,12.3,7.5,18.7c0.8,2.3,1.8,4.6,2.7,6.8c1,2.6,0.8,3.2-1.7,4.2c-2.4,1-3.3,0.6-4.3-1.7c-1.9-4.4-3.9-8.7-5.9-13.1
		c-0.2-0.4-0.5-0.9-0.6-1.3c-1.5-6.2-4.8-11.8-6.3-18c-0.9-3.5-2.6-6.9-3.9-10.3c-1.8-4.6-3.1-9.3-4.7-13.9
		c-1.9-5.6-4.6-10.9-5.8-16.7c-1.9-8.8-5.6-17-8.6-25.4c-1.5-4.3-3.4-8.7-5-12.9c-2.3-6.1-5.2-12.1-6.6-18.6c-0.6-3-2.5-5.6-3.1-8.6
		c-1-5.1-3.4-9.7-4.8-14.6c-1.4-5.1-3.3-10-4.7-15.1c-1.5-5.7-4.5-10.9-6.4-16.4c-0.6-1.7-0.9-3.6-1.6-5.3c-1.2-3-2.7-3.5-5.4-1.7
		c-0.7,0.5-1.5,0.9-2,1.6c-2.9,4.1-6.5,7.7-8,12.7c-0.6,2-2.1,2.3-3.6,2.5c-1.3,0.2-3.3-1.7-3.6-3.2c-0.2-1.2-0.3-2.5,0.3-3.6
		c1.7-3.1,3.4-6.3,6.1-8.7c1.6-1.4,3-2.8,3.8-4.9c0.7-2,2.4-3.4,4-4.8c2.4-2.2,3.6-4.1,2.5-7.9c-1.1-3.7-1.8-7.6-2.9-11.3
		c-0.5-1.8-0.2-2,2.6-3c0.7,0.6,0,1.1-0.3,1.5c-1,1.4-0.4,2.3,1,2c1.8-0.4,2.1,0.7,2.6,1.8c0.6,1.5,0.8,3.1,2,4.3
		c1.8,1.8,3.8,2.2,5.4,0.2c4.5-6.1,11.2-10.4,14.8-17.3c0.6-1.1,1.5-2,2.7-2.4c4.5-1.3,7.1-5,10.2-8.1c1-1,1.7-2.5,2.9-3.3
		c1.1-0.7,2.3-1.1,3.3,0.1c0.9,1,1.2,2.1,0.3,3.3c-1.7,2.1-2.9,4.6-5.4,6c-2.7,1.6-3.9,4.5-5.2,7c-1.7,3.3-4,6.1-6.2,9.1
		c-0.3,0.4-0.7,0.9-1.1,1c-4.5,0.7-6.1,4.7-8.7,7.5c-1.1,1.2-2,2.6-3.4,3.7c-4.6,3.5-5.4,7.1-2.9,12.2c0.6,1.2,1,2.5,1.3,3.8
		c0.2,1,0.3,2,0.8,2.8c1.9,3.4,3.4,7.1,4.8,10.7c0.9,2.2,2.1,2.4,4,0.9c0.7-0.5,1.5-1.1,1.9-1.8c2.1-3.5,5.2-6.2,7.5-9.5
		c1.4-2,1.9-3.9,1.4-6.2c-0.4-1.9-0.8-3.9-1.1-5.8c-0.2-1.3,0.2-2.2,1.7-2.2c1.7,0,3.3-0.2,4.9,0.8c2.1,1.4,2.6,1,4.3-1
		c2.9-3.4,5.2-7.1,6.5-11.4c0.8-2.9,2.7-5.2,5.1-7.1c2.4-1.9,4.6-4.1,6.5-6.6c3.7-4.7,7.9-9.1,10.9-14.3c1.2-2,2.3-4,3.6-6
		c0.9-1.4,1.6-1.3,2.4,0c0.4,0.6,0.6,1.4,1.1,1.9c0.9,1.1,0.8,2-0.4,2.8c-1.4,1-2,2.4-2.7,3.8c-0.6,1.3-1.6,2.5-2.5,3.7
		c-0.4,0.6-1.1,1.1-1.4,1.7c-3.7,6.6-9.1,12.1-13,18.7c-0.5,0.9-0.8,1.8-1,2.7c-0.3,1.9-0.5,3.8-2.5,5.1
		C628.5,54.2,629.4,56.4,628.9,57.9C628.8,58,628.9,57.9,628.9,57.9z M676.1,241.5c0.1-1.3-1.6-4.1-2.5-4.3c-0.2,0-0.5,0.1-0.6,0.3
		c-0.5,1.4,0.5,2.5,1,3.7c0.1,0.3,0.4,0.7,0.6,0.9c0.3,0.2,0.7,0.3,1,0.2C675.8,242.1,676,241.7,676.1,241.5z M648,170.1
		c0.1,0.1,0.2,0.4,0.4,0.4c0.3,0,0.4-0.2,0.3-0.4c0-0.1-0.2-0.2-0.2-0.2C648.2,169.9,648.1,170,648,170.1z"/>
	<path d="M1235,224.3c-0.4-1.3-0.8-2.6-1.2-3.9c-1-4-2.1-8-3.9-11.8c-0.8-1.8-1.2-3.7-1.3-5.7c-0.2-3.2-1-6.3-2.7-9.1
		c-0.3-0.5-0.8-1-0.9-1.6c-0.9-7.1-5.1-13.3-5.3-20.5c0-1.8-1.3-3.2-2.3-4.5c-1.8-2.5-2.3-5.2-2.3-8c-0.1-2.6-0.7-4.9-2.1-6.9
		c-1.1-1.5-1.5-3.3-2.3-5c-0.5-1.2-0.7-2.5,0.7-3.2c1.5-0.7,2.2,0.6,2.8,1.7c1.5,2.7,2.3,5.6,3.1,8.6c0.4,1.6,0.9,2.9,1.9,4.3
		c2.2,2.9,2.8,6.5,3.7,9.9c0.3,1.1,0.3,2.2,0.8,3.2c3.9,7.5,5.8,15.6,7.9,23.7c1.8,6.6,4,13.1,5.8,19.7c1.9,6.8,4.1,13.6,5.6,20.5
		c0.6,2.5,1.5,4.9,2.5,7.3c1.6,3.8,2.9,7.8,3.8,11.9c1,4.3,2.7,8.4,3.8,12.7c2,7.5,5.9,14.3,8.2,21.6c0.8,2.5,2.4,4.6,3.8,6.7
		c4.3,6.9,7.7,14.2,11.1,21.5c0.6,1.3,1.4,2.3,2.2,3.4c1.3,1.8,2.5,3.7,2.9,5.9c0.2,0.9,0.1,1.8-0.7,2.3c-0.8,0.6-1.6,0.2-2.4-0.3
		c-2.3-1.2-3.6-3.4-4.2-5.8c-1.3-4.5-4.1-8.1-6.3-12c-2.3-4.1-5-8.2-5.1-13.2c0-0.6-0.3-1.2-0.6-1.7c-1.3-2.3-1.9-5.1-3.3-7.3
		c-2.4-3.7-4-8-7.7-11c-4.3-3.5-7.2-8.4-9.7-13.3c-1.2-2.5-2.7-5-4-7.5c-1.4-2.7-2.8-5.5-3.8-8.4c-0.8-2.3-1.8-4.6-3-6.7
		c-3-5.5-4.3-11.8-7.5-17.2c-0.8-1.4-0.9-3-1.4-4.5c-0.9-3.1-2-6.1-3.6-8.8c-0.3-0.5-0.9-1-0.9-1.6c-0.6-4.9-3.2-8.9-5.1-13.3
		c-1.2-2.8-2.8-5.4-3.8-8.4c-1.5-4.2-1.8-8.6-3.4-12.8c-0.9-2.3-1.7-4.6-2.5-6.9c-0.9-2.6-1.7-5.1-1.6-7.9c0-0.7,0-1.5-0.3-2.2
		c-1.9-4.1-2.6-8.7-4.5-12.8c-0.4-0.8-0.6-1.6-0.7-2.5c-0.2-1.2-0.4-2.4-1.2-3.5c-4.7-6.6-6.1-14.3-8-21.9
		c-1.3-5.2-2.7-10.3-5.1-15.2c-1.8-3.8-3.8-7.6-3.9-12.1c0-1.5-1.2-2.9-1.6-4.5c-0.7-2.4-0.3-5.2-2-7.4c-0.2-0.3-0.1-1,0-1.4
		c0.1-0.5,0.4-0.9,1-1c0.6-0.1,1.1,0.3,1.1,0.7c0.2,3.9,3.7,6.6,3.6,10.7c0,2.6,2.4,4.4,3.2,6.9c1.9,6.1,4.9,11.9,6.4,18
		c1.4,5.9,3.8,11.3,5.9,16.9c0.2,0.6,0.4,1.2,0.5,1.8c0.7,5.2,3.2,9.7,4.8,14.6c1.2,3.7,3.2,7.2,3.7,11.1c0.2,1.9,1.1,3.6,1.9,5.2
		c3.1,6.1,3.6,13,6.8,19c1.4,2.7,1.5,6.2,2.8,9.1c2.5,5.6,4.9,11.2,8.1,16.4c1.4,2.3,1.6,4.9,2.5,7.2c1.6,4.4,4,8.4,5.2,13
		c0.2,0.8,0.7,1.8,1.6,1.9c1.3,0.1,1.4-1.2,1.7-2C1234.5,226,1234.7,225.1,1235,224.3z"/>
	<path d="M866.4,205.5c0.2-1.1,0.3-1.9,0.5-2.6c0.3-1.2,0-2-0.7-3.1c-3.2-5.4-5.6-11.1-7.6-17.1c-2.2-6.4-3.3-13-6.1-19.2
		c-0.1-0.3-0.3-0.7-0.3-1.1c0.2-3.8-1.9-6.8-3.5-9.9c-2.4-4.6-3.8-9.4-4.5-14.6c-0.4-2.9-1.3-6.2-3.2-8.8c-2.7-3.6-4.7-7.4-6-11.7
		c0-0.1-0.1-0.2-0.1-0.3c-1.4-2.5,0.3-5.6-1.4-7.8c-1.7-2.2-2.3-4.5-2.6-7.1c-0.1-0.9-0.1-1.7-0.8-2.4c-1.4-1.7-2.3-3.5-0.8-5.7
		c0.4-0.5,0-1.2-0.1-1.8c-0.5-3.5-0.3-7.4-5-8.3c-0.4-0.1-0.7-0.7-0.9-1.1c-0.9-2.4-2.7-3.7-5-4.6c-2-0.8-3-2.4-2.5-4.4
		c1-4.1,0.5-8.5,1.7-12.6c0.4-1.3-0.7-1.4-1.1-2c-0.6-1-2.1-1.9-1.2-3.2c0.7-1,2.3-0.6,3.5-0.6c0.9,0,1.6,0.6,2.3,1.1
		c1.4,1.1,2.7,1,3.8-0.4c2-2.4,4.2-4.5,5.9-7.1c3.5-5.3,7.8-9.7,12-14.4c4.9-5.6,10.4-10.7,15.5-16.2c2.2-2.3,4-5,5.9-7.5
		c0.5-0.7,0.9-1.5,1.8-1.8c0.5-0.2,1-0.2,1.4,0.1c0.4,0.3,0.6,0.9,0.4,1.3c-1.1,2.4-1.7,5.2-4.1,6.9c-1,0.7-2.2,1.5-2.4,2.7
		c-0.4,2.9-2.3,4.8-4.1,6.8c-2,2.3-3.5,4.7-4.4,7.6c-0.6,1.9-1.9,2.9-3.4,4.1c-3.1,2.6-6.1,5.4-7.1,9.6c-0.4,1.6-1.2,2.7-2.6,3.7
		c-4.4,3-8.3,6.4-11.4,10.8c-1.8,2.6-3.1,5.4-1.1,8.5c-0.3,5,2,9.3,3.3,13.8c1,3.4,2.2,6.7,3.7,9.9c1.5,3.3,2.3,6.7,3.5,10.1
		c1.3,3.6,2.8,7,4.6,10.4c1.7,3.3,2.8,7,3.8,10.7c0.7,2.5,1.7,4.8,2.5,7.3c2.2,6.5,5.3,12.7,7.2,19.3c1.5,5.1,2.8,10.1,4.5,15.1
		c1,3.1,2.5,6.1,3.8,9.2c0.8,1.8,1.6,3.6,2,5.5c1.3,8.1,4.7,15.5,7.9,22.8c2.9,6.5,5,13.2,7.1,20c1.9,6.1,4.6,11.9,6.7,17.9
		c2.1,6.1,4.4,12.2,5.7,18.6c0.2,1.1,0.3,2.2-0.4,3.2c-0.6,0.8-1.2,1.7-2.3,1.7c-1.2,0-1.6-1-2-1.9c-2.6-5.6-5.4-11-7.3-16.9
		c-0.5-1.6-1.1-3.3-1.4-5c-0.9-5.4-2.6-10.5-5.4-15.2c-0.2-0.4-0.6-0.9-0.6-1.3c-0.6-4.9-3.3-8.9-4.9-13.4
		C868.2,210.8,867.3,208,866.4,205.5z"/>
	<path d="M940.6,127c-1.7-1.2-2.7-2.5-3.5-4c-0.7-1.3-1.2-2.7-0.4-4.2c0.5-1,0.5-2.2,0.5-3.2c0-2.3-0.8-3.4-3.1-3.8
		c-2.4-0.3-3.4-1.7-3.9-3.8c-0.5-1.9-0.8-3.9-0.5-5.9c0.4-3-0.1-6.1-0.2-9c-0.1-2-1.1-4.6-3.1-6.4c-1.7-1.5-1.7-3.8-0.4-5.2
		c1.1-1.2,2.3-1.1,3,0.3c1.1,2.3,2.1,4.7,3,7.1c2.1,5.8,4.6,6.5,8.5,1.8c3.4-4.1,6.9-8.4,7.1-14.2c0-1.7,1.5-2.8,2.2-4.2
		c0.8-1.7,2.2-2.1,3.9-2.1c1.7,0,2.6-1.2,3.5-2.4c2.1-2.9,4.3-5.7,6.3-8.6c1.4-2.1,2.8-4,4.7-5.7c1.6-1.5,2.3-3.4,2.8-5.5
		c0.4-1.5,1.2-2.5,2.7-3.2c4.1-2,7.3-4.9,9.5-8.9c0.8-1.4,1.7-2.7,2.8-3.8c1.1-1.2,2-2.5,2.6-4c0.2-0.6,0.4-1.2,0.8-1.7
		c0.9-1,1.7-2.7,3.1-2.1c1.7,0.7,1.2,2.4,0.8,3.9c-0.6,2.2-1.5,4.2-3.7,5.2c-1.5,0.7-2.2,1.9-2.6,3.4c-0.6,2-1.3,4-3.5,4.9
		c-0.4,0.2-0.9,0.6-1,1c-1.4,3.6-4.8,6.3-5.2,10.4c-0.1,1.5-0.9,2.9-2.4,3.5c-2.3,1.1-3.9,2.9-5.4,4.9c-4.4,5.7-9.1,11.3-12.2,17.9
		c-1.4,3-1.9,5.8,0.5,8.5c0.3,0.4,0.5,0.8,0.8,1.2c0.7,1,1.5,2.2,0.6,3.3c-0.9,1.1-2.2,1.5-3.6,1.7c-0.7,0.1-1.2-0.4-1.5-0.9
		c-0.5-0.7-0.8-1.5-1.3-2.2c-1.6-2.1-2.9-2.2-4.9-0.4c-1,0.9-1.6,2.2-2.4,3.3c-1.7,2.5-3.6,5-5,7.7c-2.2,4.1-2.8,8.5-1.3,13.2
		c1.4,4.4,3.5,8.6,4.4,13.3c0.3,1.6,2.1,3.1,2.1,4.6c0.1,4.3,2.8,7.2,4.6,10.6c1.1,1.9,1.9,4,2.5,6.1c0.8,2.7,1.6,5.4,3.5,7.6
		c1,1.2,1.3,2.6,1.6,4.1c0.7,3.5,2.1,6.8,3.4,10.1c1.2,3.1,2.4,6.2,3.1,9.4c1.1,5.1,2.7,10,5.2,14.5c2.8,5.1,4.4,10.7,6,16.2
		c0.9,3.1,2.2,6.1,3.8,8.7c2.3,3.7,3.3,7.9,5.3,11.7c0.5,1,0.8,2.1,1.4,3c3.4,4.8,5,10.4,7.5,15.5c1,2.1,2.4,4,3.8,5.8
		c2.2,2.7,3.7,5.8,4.2,9.3c0.2,1.7,0.7,3.3,1.8,4.8c0.5,0.7,0.8,1.5,1,2.3c0.2,1-0.1,2-1.1,2.5c-0.9,0.5-1.7,0.1-2.3-0.5
		c-0.6-0.6-1.2-1.2-1.7-1.9c-1.1-1.7-1.7-3.9-4.1-4.3c-1.4-3.3-4.9-5.6-5-9.6c0-2.5-0.7-4.6-2.7-6.5c-1.5-1.3-2.3-3.5-3.4-5.2
		c-0.1-0.2-0.4-0.5-0.4-0.6c1.1-3.5-2.3-6.1-2-9.5c0.2-1.6-0.3-3.1-2.3-3.7c-1.4-0.4-2.2-1.6-2.7-2.9c-0.9-2.3-2.1-4.4-2.5-6.9
		c-0.2-1.4-0.5-2.9-1.4-4.2c-3.1-4.6-4.4-10.1-6.8-15c-0.7-1.5-1.1-2.7,0.1-4.4c1.6-2.3,0.9-3.6-1.9-4.2c-2.2-0.5-2.8-2.3-3.4-4
		c-0.9-2.7-1.9-5.4-2.4-8.1c-0.8-4.1-2.9-7.5-4.2-11.4c-1.6-4.7-3.4-9.4-5-14.2c-0.4-1.2-0.5-2.4-0.3-3.7c0.2-1.3-0.3-2.4-1.5-3.2
		c-1.8-1.1-2.6-2.8-2.9-4.9c-0.2-1.9-1-3.4,0.3-5.5c1.1-1.7-0.4-4.2-2-5.8c-0.8-0.8-1.8-1.3-2.6-2
		C938.1,130.4,938.1,129.8,940.6,127z"/>
	<path d="M1160.3,277.2c0,1.2,0,2-0.7,2.5c-0.9,0.6-1.6,0-2.4-0.5c-1.8-1.2-2.7-3.2-3.3-5.2c-0.6-2.3-1.7-4.3-3.6-5.8
		c-1-0.9-1.9-2-2.2-3.3c-1.7-8.3-5.1-16.1-7.4-24.3c-1.1-4.1-2.3-8.4-4.3-12.1c-2.1-3.8-3-8.3-5.8-11.7c-1.7-2.1-1.5-4.9-2.4-7.3
		c-1.4-3.5-2.6-7.2-4.2-10.6c-3.1-6.3-5.1-13-7.1-19.7c-0.4-1.3-0.9-2.5-1.6-3.7c-2.3-4.4-2.1-9.6-4.2-14.1
		c-2.4-5.1-3.5-10.7-5.9-15.9c-1.6-3.4-2.6-7.1-3.5-10.8c-1-3.6-2.2-7.2-3.5-10.8c-3-8-6.8-15.8-7.1-24.6c0-0.7-0.2-1.5-0.5-2.1
		c-2.6-4-2.8-8.8-4.3-13.2c-0.4-1.2-0.6-2.6,1.1-3c1.4-0.3,2.2,0.5,2.7,1.9c4.2,12.4,8.8,24.7,12.6,37.3c2.5,8.3,5.7,16.4,8.6,24.6
		c2.2,6.4,4.7,12.8,7.1,19.2c2.8,7.3,4.6,15,7.5,22.3c2,5.2,3.4,10.7,5.8,15.9c2.5,5.4,4.1,11.3,7,16.5c0.8,1.5,1.1,3.2,1.6,4.9
		c0.3,1.2,0.7,2.4,1.5,3.4c0.3,0.4,0.7,0.8,0.8,1.2c1,5,3.8,9.2,5.3,14c2,6.8,4.8,13.4,7.1,20.1c1.3,3.7,2.4,7.5,4.2,11
		C1159.9,274.7,1160,276.2,1160.3,277.2z"/>
	<path d="M823.7,259.6c-0.3,1.1,0.7,3.2-1.5,3.7c-2.1,0.5-2.6-1.3-3.5-2.7c-1.4-2.2-1.7-4.8-2.5-7.2c-1.5-4.5-1.2-9.6-4.4-13.5
		c-0.4-0.5-0.7-1.3-0.9-2c-0.5-3.3-1.8-6.1-3.7-9c-1.6-2.5-1.9-5.8-3.1-8.6c-1.8-4.1-3.6-8.3-4.4-12.8c-0.3-1.8-1.6-3.2-2-5.1
		c-0.3-1.6-0.9-2.9-0.1-4.6c0.6-1.2,0.1-2.3-1-3.2c-1.9-1.5-2.9-3.6-3.1-6c-0.2-2.4-1.5-4.4-2.5-6.5c-1.6-3.3-2.8-6.7-3.8-10.3
		c-1-3.9-2.8-7.5-4.4-11.2c-1.8-4-3.1-8.3-4.5-12.4c-0.6-1.9-1.3-3.7-2.2-5.4c-1.9-3.6-3.1-7.5-3.8-11.5c-0.3-2.1-1-4-1.9-5.9
		c-1.2-2.3-2.1-4.7-2-7.4c0.1-1.7-0.7-3.1-1.9-4.2c-2.4-2.2-3.4-5.1-3.8-8.2c-0.3-2-0.9-3.8-2.1-5.4c-2.6-3.6-2.6-8.1-4.7-11.9
		c-0.1-0.2-0.2-0.5-0.2-0.7c2-4.7-1.6-7.6-3.6-10.9c-0.8-1.3-0.9-2.5-0.4-3.8c0.6-1.6,1.7-1.8,2.7-0.5c0.5,0.7,1,1.4,1.4,2.2
		c1.2,3.1,2.6,6.1,3.9,9.1c1.7,3.8,3.1,7.7,4.5,11.6c2.2,6,5.4,11.5,7.8,17.4c3.3,8.4,5.5,17.3,10,25.3c0.4,0.6,0.7,1.3,0.9,2
		c2.5,9.8,7,18.8,10.4,28.3c1.1,3.1,2.1,6.3,3,9.5c2,7,4.5,13.7,6.7,20.6c1.9,5.9,4.4,11.7,6,17.7c1.3,4.6,3.7,8.8,4.8,13.5
		c0.4,1.5,0.8,3.1,1,4.7c0.1,0.9,0.1,1.9,0.5,2.5c2.2,3.2,2.8,7,4.2,10.5C821.4,251.1,824,254.8,823.7,259.6z"/>
	<path d="M859.9,268.6c0.2,1.8-0.9,2.4-2.3,2.9c-1.6,0.6-2.3-0.3-2.8-1.6c-2.8-7.1-6.6-13.7-10.4-20.3c-0.9-1.6-1-3.3-0.2-4.9
		c0.6-1.3,0.7-2.3-0.7-3.1c-0.9-0.5-1.1-1.3-0.9-2.2c0.4-1.7-0.3-3.1-1-4.6c-1.5-2.8-2.4-5.9-3.3-8.9c-1.5-4.6-2.3-9.5-5.5-13.5
		c-1.5-1.9-2.3-4.6-2.9-7.1c-0.8-3.3-1.8-6.6-3.7-9.6c-1-1.6-1.7-3.3-1.5-5.2c0.2-2.8-0.9-5.2-2.5-7.1c-2.9-3.4-4-7.6-5-11.7
		c-0.5-2-1.3-4-1-6.1c0-0.1,0-0.3-0.1-0.4c-2.2-2.7-2.6-6.3-4.4-9.1c-2.7-4.4-3.8-9.3-5.5-14c-1.2-3.4-1.8-6.9-4.2-9.9
		c-2.4-2.9-4.1-6.4-4.8-10.2c-0.4-2.2-1.8-4-2.4-6.2c-0.9-3.4-2.1-6.7-4.1-9.7c-2.1-3.1-1.4-6.9-2.5-10.3c-0.3-0.8,0.2-1.7,1.1-2.1
		c0.9-0.4,1.7,0,2.3,0.7c1.5,1.7,2.5,3.7,3.1,5.8c0.9,3.3,2.3,6.5,3.9,9.5c0.1,0.2,0.3,0.4,0.4,0.6c1.2,5.8,4.7,10.8,6.3,16.5
		c0.3,1.3,0.9,2.6,1.7,3.7c3.5,4.8,5.6,10.3,7.6,15.8c1.4,3.7,2.9,7.3,4.6,10.9c0.9,2,1.8,4,2.2,6.2c1.2,5.9,4.2,11.3,5.8,17.1
		c2.4,8.8,7.2,16.6,10,25.2c2.4,7.4,6.1,14.2,9.1,21.3c0.1,0.2,0.2,0.4,0.3,0.7c1.5,7.1,4.8,13.6,6.8,20.6c1.6,5.5,4,10.8,5.9,16.2
		C859.5,266,860,267.2,859.9,268.6z"/>
	<path d="M1294.9,274.9c0,1.1,0,1.5,0,1.8c0,0.6,0.2,1.3-0.5,1.6c-0.6,0.3-1.2,0-1.7-0.5c-2.5-2.7-5.1-5.4-5.7-9.3
		c-0.4-2.1-1.3-3.9-2.1-5.8c-2.4-6.1-5.3-12.1-6.8-18.6c-0.9-3.9-3.1-7.4-4.8-11.1c-3.9-8.6-7.4-17.4-9.5-26.6
		c-1.4-5.9-4.5-11.1-7.3-16.4c-2.4-4.5-5.5-8.7-7.2-13.6c-0.9-2.8-3-5-4.4-7.7c-3.2-6.4-6.5-12.9-8.8-19.7c-0.5-1.4-1.2-2.7-1.9-4
		c-0.4-0.9-1-1.7-1.2-2.7c-1.1-6.7-3.8-12.9-5.4-19.4c-0.3-1.3-0.8-2.6-1.6-3.7c-0.4-0.6-0.9-1.2-1-1.9c-1.2-7.6-5-14.3-7.1-21.7
		c-0.4-1.3-0.7-2.6-1-3.9c-0.1-0.5,0-1,0.4-1.3c0.5-0.3,1-0.1,1.4,0.2c1,0.6,1.5,1.5,2.1,2.5c2.9,4.7,4.6,10,6.6,15.1
		c2.5,6.3,4.4,12.8,6.1,19.2c2,7.7,6.3,14.4,8.9,21.8c2.4,6.7,6.4,12.7,9.3,19.1c2.1,4.6,5,9,8,13.2c1.8,2.6,2.2,5.7,3.5,8.5
		c0.4,0.9,0.5,1.9,1.2,2.7c2.9,3.1,3.6,7.2,4.6,11.1c0.1,0.5,0,1,0.3,1.4c4.2,7.5,5.1,16.1,8.5,23.8c1.9,4.3,3,8.8,5.1,13
		c0.8,1.5,1.3,3.2,1.5,4.9c0.4,2.4,1.3,4.6,2.5,6.8c1.6,3.2,2.9,6.7,4.3,10.1c1.1,2.7,2.6,5.3,3.1,8.2
		C1294.7,273.1,1294.8,274.4,1294.9,274.9z"/>
	<path d="M1175.5,259.5c0,0.6,0.1,1.2,0,1.8c-0.2,1.1-0.8,1.9-1.8,2.2c-1.2,0.4-1.8-0.5-2.3-1.4c-0.5-0.8-0.9-1.8-1.2-2.7
		c-1.2-2.8-2.2-5.7-3.5-8.5c-2-4.4-2.2-9.3-3.9-13.8c-1.9-5-2.4-10.6-5-15.3c-2.4-4.2-3.5-8.6-4.7-13.1c-1.2-4.4-3-8.6-5.2-12.5
		c-1.4-2.6-1.8-5.4-2.5-8c-3-10.7-6.9-21.2-9.3-32.1c-0.7-3.4-2.8-6.2-3.4-9.7c-0.9-5.2-2.7-10.2-3.6-15.4c-0.3-1.9-0.8-3.8-1.8-5.6
		c-0.8-1.4-0.8-3.1-0.9-4.7c-0.3-4.9-1.3-9.7-3.5-14.2c-0.5-1.1-1.4-2.3-1.3-3.4c0.4-4.9-3.1-8.6-3.8-13.2c-0.3-1.8-1-3.5-1.7-5.3
		c-0.7-1.7-1.1-3.5-1.1-5.4c0-0.9,0-2.2,1.2-2.4c1.1-0.2,1.9,0.7,2.2,1.6c0.8,2,1.6,4.1,2,6.3c0.8,3.8,2.1,7.3,3.5,10.8
		c2.3,6.1,4,12.4,5.8,18.6c2.1,7.4,4.1,14.9,6.2,22.3c1.7,6.4,3.3,12.8,5.2,19.2c1.1,3.6,2.1,7.3,3.4,10.9
		c1.9,5.4,4.5,10.6,5.7,16.3c0.5,2.2,1.3,4.2,2,6.3c1.1,3.4,2.4,6.7,3.1,10.2c0.5,2.6,1.3,5.2,2.8,7.6c0.9,1.5,1.5,3.1,2,4.7
		c0.8,2.5,1.2,5.3,3.2,7.4c0.5,0.5,0.6,1.3,0.8,2c1.5,7,4.6,13.5,6.9,20.2c0.7,2.1,1.5,4.2,1.9,6.3
		C1173.4,251.8,1175.3,255.5,1175.5,259.5z"/>
	<path d="M798.8,258c0.2,1.2-0.4,1.9-1.4,2.3c-1.4,0.5-2.7,0.5-3.6-0.8c-1-1.5-2-3.1-2.6-4.9c-0.6-1.9-1.3-3.7-2.7-5.2
		c-0.7-0.8-0.9-1.7-1-2.7c-0.8-4.5-1.5-8.9-3.6-13.1c-1.7-3.4-2.4-7.2-3-11c-0.1-0.6-0.4-1.4,0.1-1.8c2.1-1.6,0.6-2.7-0.4-3.8
		c-0.8-0.9-1.7-1.7-2.6-2.7c-0.9-1-1.7-2.2-1-3.7c0.8-1.6-0.1-2.5-1.1-3.5c-3.2-3.1-5-6.6-3.9-11.2c0.3-1.2,0.4-2.6-0.9-3.3
		c-3.1-2-3.6-5.4-4.5-8.5c-0.5-1.5-0.7-3.1-1.8-4.3c-2.3-2.7-2.2-6.2-3.2-9.3c-0.8-2.6-2.6-5.2-0.9-8.1c0.2-0.3-0.1-1-0.4-1.3
		c-1.1-1.1-2-2.1-1.2-3.8c0.4-0.8-0.4-1.6-1.1-2.2c-0.9-0.8-1.6-1.9-2-3c-2.5-6.4-5.2-12.7-7.1-19.3c-0.4-1.3-0.9-2.5,0.4-3.7
		c1.1-1,0.3-2-0.2-3c-1.3-2.9-3.6-5-5.1-7.8c-2-3.8-3.8-7.5-4.4-11.9c-0.5-3.4-2.1-6.7-3.1-10.1c-0.7-2.5,0-4.3,1.6-6
		c0.9-1,1.7-1,2.3,0.2c0.3,0.5,0.5,1.1,0.7,1.7c2.3,7.3,4.6,14.5,7,21.8c0.4,1.2,0.9,2.3,1.4,3.4c4,9.1,7.1,18.6,10.2,28
		c2.4,7.5,5.6,14.7,7.5,22.3c0.6,2.5,1.7,4.9,2.7,7.2c2.2,4.8,3.4,10,4.9,15c1.2,4,3.2,7.7,4.6,11.7c2.8,8.5,6.2,16.8,8.9,25.4
		c2,6.2,4.1,12.3,6.7,18.3c1.6,3.6,2.9,7.3,3.7,11.1C798.7,256.8,798.7,257.4,798.8,258z"/>
	<path d="M1053.5,91.3c1.5,3.8,4.5,6.8,5.8,10.9c0.7,2.2,1.7,4.3,2.2,6.6c0.5,2.2,1.4,4.2,2.5,6.1c1.4,2.3,2.8,4.6,2.8,7.5
		c0,1.8,1.3,3.2,2.2,4.6c2.2,3.4,3.4,7.3,4.8,11.1c2.2,6.1,4.1,12.3,6.3,18.4c2.6,7.1,4.7,14.4,7,21.7c0.3,0.8,0.3,1.7,0.2,2.6
		c-0.1,2.7,0.6,5.1,2.5,7.1c0.5,0.5,0.9,1.2,1.1,1.9c1.9,5.4,3.8,10.9,5.1,16.5c0.1,0.6,0.1,1.3,0.3,1.8c3.4,9.1,5.1,18.6,8.1,27.8
		c1.6,4.8,4.2,9.1,5.4,14c0.1,0.6,0.7,1.3,0.6,1.7c-1.1,2.5,0.7,3.8,2.1,5.4c1.5,1.6,2.8,3.4,4.3,5c2.9,3.2,3.5,7.2,3.7,11.3
		c0.1,2.1-1.5,3-3.5,2.1c-1.2-0.5-2-1.4-2.6-2.5c-1.6-3.2-3.2-6.4-4.7-9.6c-0.5-1.1-0.8-2.3-0.9-3.5c-0.1-2.4-1.1-4.5-2.1-6.6
		c-1.1-2.3-2.2-4.7-3.3-7c-0.3-0.7-0.6-1.4-0.4-2.1c0.5-1.4-0.4-2.3-1.3-3.2c-0.8-0.8-1.6-1.6-1.7-2.7c-0.4-3-1.5-5.7-3.1-8.2
		c-2.5-4-1.7-8.6-2.8-12.8c-1.4-5.4-2.6-10.9-4.8-16.1c-1.2-2.8-1.8-5.8-2.5-8.8c-0.2-0.9-0.2-2-0.9-2.8c-2.3-2.9-3.1-6.4-3.7-9.9
		c-0.4-2.5-1.9-4.5-2.7-6.8c-2.2-6.2-3.1-12.9-6.2-18.8c-0.3-0.6-0.5-1.5-0.4-2.1c0.5-4.7-1.7-8.5-3.9-12.4
		c-0.1-0.2-0.4-0.4-0.4-0.6c-0.3-5.1-4.2-9.1-4.6-14.2c-0.2-3-2.8-4.8-3.9-7.3c-0.5-1.1-1.3-2.1-1.1-3.4c0.4-2.5-0.8-4.5-2.1-6.5
		c-2.7-4.1-3.8-8.7-4.5-13.5C1052,92.7,1052.1,91.7,1053.5,91.3z"/>
	<path d="M1029.9,120.9c0.4,2,1.3,3.5,2.5,4.9c1.4,1.8,2.8,3.7,2.9,6.3c0,0.8,0.5,1.3,0.9,1.9c0.5,0.6,0.9,1.2,1,1.9
		c0.9,5.8,4.6,10.7,6,16.3c1.5,6.2,4.8,11.7,7.6,17.3c1.4,2.9,2.2,6,3.1,9c1.2,3.9,2.7,7.6,4.2,11.4c3.6,9.6,9,18.5,12.2,28.3
		c0.4,1.2,1.1,2.2,1.8,3.2c0.7,1,1.5,2,1.8,3.2c1.3,4.3,3.9,7.9,5.9,11.8c0.9,1.8,1.9,3.5,2.4,5.4c0.8,2.9,1.7,5.6,3.4,8.1
		c0.8,1.1,0.9,2.4-0.3,3.3c-1,0.8-2.3,0.9-3.5,0.2c-1.3-0.8-2.2-2-2.7-3.4c-2.7-6.7-5.7-13.3-9.2-19.6c-1.2-2.1-1.7-4.6-2.7-6.8
		c-2.9-6.6-6-13.2-9-19.8c-0.1-0.1-0.1-0.2-0.1-0.3c-0.8-5.1-4.2-9-5.9-13.7c-1.1-2.9-2.4-5.6-3.1-8.6c-0.7-3-2-5.7-3.4-8.5
		c-1.6-3-2.4-6.4-2.7-9.9c-0.1-1.3-0.3-2.5-1.4-3.3c-1.8-1.2-2.3-3.1-2.7-5.1c-0.6-3.5-1.5-6.9-3.3-10.1c-1.3-2.4-2.2-4.9-2.2-7.7
		c0-0.8-0.1-2-0.6-2.4c-2.8-2-2.4-5.4-3.8-8C1028.1,124.4,1028.2,122.6,1029.9,120.9z"/>
	<path d="M1153.5,116.4c3.7,5.7,6.3,11.7,6.9,18.4c0.2,1.7,1,3,2,4.3c2.3,3.1,3.9,6.5,4.2,10.4c0.2,2.2,0.8,4.3,2.1,6.2
		c0.3,0.4,0.5,0.9,0.6,1.3c1.5,9.3,6.2,17.7,8.3,26.8c1.8,7.7,5.1,15.1,7.8,22.6c0.5,1.5,1,3,1.1,4.6c0.1,1.8,0.5,3.7,1.5,5.2
		c1.4,2,0.9,4.5,2.1,6.6c2.2,4.1,4.5,8.2,5.4,12.8c1.2,5.6,3.6,10.9,4.9,16.5c0.3,1.3,0.7,2.8-0.8,3.6c-0.9,0.5-3-0.8-3.7-2.4
		c-2.8-6.1-5.4-12.4-7.4-18.8c-0.2-0.7-0.6-1.4-0.6-2.1c0.3-5.2-2.7-9.3-4.1-14c-1.1-3.4-2-6.8-3.1-10.2c-1.9-5.9-4.5-11.7-5.9-17.8
		c-1.2-5.5-3.4-10.7-4.5-16.2c-0.7-3.4-1.7-7.1-3.6-10.3c-1.1-1.8-1.7-3.8-2-5.9c-0.7-4.2-1.3-8.5-2.2-12.6c-0.4-2.1-1-4.2-2.1-6.2
		c-1.1-2-2.3-4.1-1.8-6.6c0.2-1.1-0.3-1.8-1.1-2.6c-1.6-1.5-2.6-3.6-3.6-5.5C1152.7,122.1,1153.6,119.2,1153.5,116.4z"/>
	<path d="M1061.4,258.8c0,1,0,1.8-0.8,2.2c-0.8,0.4-1.4,0-1.8-0.7c-3-4.9-7-9.2-9.6-14.4c-0.4-0.8-0.9-1.6-0.9-2.4
		c0-4.9-2-9.1-4.7-12.9c-1.8-2.6-2.1-6-4.1-8.5c-4.1-5.1-5.8-11.5-9-17.2c-0.2-0.3-0.3-0.7-0.4-1c-0.7-4.9-2.4-9.4-5.7-13.3
		c-2.9-3.5-3.2-8.2-4.8-12.3c-3.1-7.9-5.8-15.9-9.8-23.3c-1.1-2.1-2.1-4.2-2.3-6.5c-0.1-1-0.6-1.8-1.1-2.7c-0.4-0.6-0.7-1.4-0.3-2.1
		c0.6-1.1,1.2-2.3,2.5-2.4c1.3-0.1,1.8,1.3,2,2.3c0.6,3.1,2.8,5.8,2.7,9.1c0,0.3,0.1,0.8,0.4,1c4.1,4.9,4.6,11.5,8.1,16.7
		c1.4,2.1,2.3,4.6,3,7.1c1.9,6.5,5.6,12.3,7.2,18.8c0.2,0.9,0.6,1.9,1.1,2.7c3.9,6,6.1,12.8,9.7,19c0.4,0.7,0.6,1.6,1,2.4
		c1.2,2.6,1.7,5.6,4.2,7.6c1,0.9,1.6,2.5,1.9,3.9c0.4,2.1,1.3,3.9,2.5,5.6c0.7,1,1.1,2.2,1.6,3.3c0.3,0.7,0.3,1.6,0.7,2.1
		c3.7,3.9,4.2,9.3,6.2,14C1061.1,257.6,1061.3,258.4,1061.4,258.8z"/>
	<path d="M788.8,90.9c-5.3-1.5-5-6.3-7-9.6c-0.6-0.9-0.6-2.2-1.2-3.1c-1.4-1.9-1.7-3.9-1.6-6.2c0.1-2.6-0.6-5.3-1-7.9
		c-0.1-0.7-0.3-1.6,0.5-2c1-0.5,1.6,0.4,2,1.1c0.3,0.5,0.5,1.1,0.8,1.7c1.3,2.3,3.2,2.5,4.4,0.1c1.5-3,3.7-5.5,5.5-8.2
		c2-3.2,4.4-5.9,7-8.5c2.9-2.9,5.6-6,7.8-9.3c1.8-2.8,4.2-5.5,4.4-9.2c0.1-1.5,1-2.1,2.5-2.1c1,0,2,0,2.9-0.2
		c1.9-0.4,3.1-1.6,3.5-3.4c0.5-2.7,2.7-4,4.5-5.6c1.1-1,1.9-0.6,2.4,0.9c0.6,2,0.6,4-1.1,5.5c-5.2,4.7-8.4,10.8-12.1,16.7
		c-1.1,1.8-2.4,3.2-4.6,3.9c-3.2,1-4.5,4.1-6,6.7c-2.1,3.6-4.5,7-7.4,10.1c-2.2,2.4-4.5,4.9-4.6,8.5c0,1.4-0.9,2.5-1.9,3.5
		c-2.7,2.7-2.8,5.8-1.2,9.1C788.5,85.7,789.2,88,788.8,90.9z"/>
	<path d="M930.9,185.9c-1.6-0.9-2.9-1.9-3.6-3.4c-0.5-1-1.2-2.2,1-2c0.6,0,0.9-0.4,0.9-1c0-0.6-0.4-1-0.9-0.9
		c-2.9,0.5-3-1.4-3.3-3.5c-0.3-2.1-1.7-4.1-0.1-6.3c0.2-0.2,0.2-0.8,0-1.1c-2.1-3.6-1.9-8.1-4.3-11.7c-0.2-0.3-0.2-0.8-0.5-1
		c-1.8-1.3-3.2-2.7-1.2-4.9c-0.8-2.4-0.9-5.1-2.1-7.4c-0.7-1.4-1.5-2.8-2.1-4.3c-0.6-1.4-0.5-3.1-2.8-3.1c-1.2,0-2.6-3.4-1.8-4.3
		c2.9-3.5,0.6-6.7-0.4-10c-0.2-0.8-0.9-1.5-0.8-2.4c0-0.5,0.2-1,0.7-1.1c0.6-0.1,1,0.2,1.2,0.7c0.7,1.8,1.7,3.6,2.1,5.5
		c0.6,3.2,2.1,6,3.3,8.9c2.3,5.7,3.4,11.8,5.6,17.5c0.8,1.9,1.4,3.9,2.6,5.7c1.8,2.7,2.2,6,3.2,9c1.1,3.4,2.5,6.7,4.1,9.9
		c1.6,3.2,2.1,6.8,3.1,10.2c0.4,1.4,0.7,2.8,1.5,4.1c0.5,0.8,0.9,1.7,1.2,2.7c1.6,5.5,4,10.8,4.7,16.5c0.5,3.7,2.7,6.8,3.5,10.4
		c0.3,1.2,0.7,2.4,1.1,3.5c0.7,2-0.2,2.9-2,3.5c-2,0.7-3.2,0.6-3.4-1.3c-0.4-4.1-2.9-7.5-3.8-11.4c-0.2-1.1-0.3-2.1,0.5-3.1
		c1.5-1.9,1.3-3.9-0.8-4.7c-3.6-1.3-4.1-4.3-4.5-7.3c-0.3-2-0.7-3.9-1.8-5.6C929.4,190.2,929.1,188.1,930.9,185.9z"/>
	<path d="M764,64.6c0.2-2.4,1.3-4.7,2.5-7c2.3-4.6,5.4-8.7,9-12.3c0.7-0.7,1.6-1.1,2.4-1.7c0.9-0.7,2-1.2,2.6-2.1
		c2.2-3.6,5.6-6.1,8.6-9c1.6-1.6,3-3.3,3.4-5.6c0.2-1,0.7-1.8,1.6-2.4c1.1-0.7,2-0.8,2.7,0.6c1.4,2.8,1.5,3.5-1,5.3
		c-3.1,2.3-3.7,6-5.9,8.7c-1.8,2.3-3.5,4.6-5.6,6.8c-3.1,3.1-6.1,6.5-5.4,11.5c0.2,1.9-1.3,2.8-2.7,3.5c-2.4,1.2-4.8,2.3-6.8,4.2
		c-0.7,0.7-1.5,1.2-1.8,2.2c-0.2,0.7-0.4,1.6-1.3,1.5c-0.8-0.1-1.1-0.9-1.5-1.5C764,66.6,764,65.8,764,64.6z"/>
	<path d="M1022.7,259.7c-5.5,0.5-6.8-3.3-8.2-6.9c-0.5-1.4-1-2.7-2-3.8c-0.5-0.5-1-1.2-1.1-1.9c-1.4-6.3-5.3-11.6-6.9-17.8
		c-0.5-1.8-1-3.5-1.1-5.4c0-3.1-0.5-6.1-1.8-9c-0.3-0.5-0.5-1.2-0.4-1.8c0.2-1.3,0.2-3,1.6-3.5c1.6-0.6,2.6,1,3,2.1
		c1.5,3.8,3.4,7.4,3.8,11.5c0.6,5.3,2.4,9.9,5.4,14.2c0.6,0.9,1.2,1.9,1.5,2.9c1.2,4.4,3.3,8.4,4.8,12.7
		C1022.2,255.3,1022.5,257.4,1022.7,259.7z"/>
	<path d="M985.5,80.9c3,3.6,5.3,7,5.7,11.2c0.5,4.6,3,8.5,4.5,12.7c1.4,3.8,2.6,7.7,4,11.4c1.3,3.5,3.3,6.8,4.5,10.4
		c0.8,2.5,1.3,5.3,3,7.5c0.3,0.4,0.4,0.9,0.4,1.4c0,1.3,0.8,2.8-1,3.5c-1.4,0.5-3.5-0.9-4-2.5c0-0.1-0.1-0.2-0.1-0.4
		c0.3-6.4-4.1-11-6.2-16.6c-0.3-0.8-0.6-1.6-0.7-2.4c-0.1-1-0.2-2.1-0.7-2.8c-1.9-3-2.4-6.4-2.8-9.8c-0.1-0.5-0.1-1.1-0.4-1.4
		c-2.9-3.5-3.5-8.1-5.3-12.1C985,88.1,984.1,84.9,985.5,80.9z"/>
	<path d="M140.7,190c0-0.2,0.1-1,0.4-1.6c0.5-1,1.3-1,2.1-0.3c0.3,0.2,0.6,0.6,0.6,0.9c0.9,3.8,3.4,7,3.7,11
		c0.1,1.5,0.8,2.9,1.6,4.1c3.3,4.5,4.9,9.8,7,14.8c0.9,2,2.3,3.7,4,5.2c1.1,0.9,1.9,2,0.8,3.5c-0.7,1-0.3,1.9,0.4,2.7
		c0.8,0.9,1.6,1.8,2.5,2.7c0.6,0.6,1.4,1.1,1.6,1.9c0.8,3.2,1.4,6.4,3.1,9.3c0.2,0.4,0,1-0.1,1.4c-0.1,0.6-0.5,1.1-1.2,1.2
		c-0.7,0.1-1.3-0.2-1.5-0.9c-1.6-5.4-5.5-9.9-6.5-15.5c-0.4-1.9-1.6-3.3-2.6-4.8c-1.4-2.2-2.3-4.6-2.8-7.1c-0.4-2.2-1.1-4.2-2.7-5.9
		c-2-2.2-2.1-5.4-3.7-7.9c-2.3-3.6-3.9-7.6-5.9-11.4C141.1,192.3,140.6,191.5,140.7,190z"/>
	<path d="M199.3,183.4c0.9-1.3,0.7-2.7,2.1-3.5c2.4,2.7,2.9,6.3,4.2,9.6c0.6,1.5,0.9,3,2,4.3c0.8,1,0.9,2.3,1.2,3.5
		c0.1,0.7-0.2,1.7,0.2,2.2c2.2,2.6-0.1,3.4-1.6,4.7c-1.3,1.1-2.2,0.7-2.5-0.6c-1.3-6.5-5.1-11.9-8.3-17.5c-0.1-0.2-0.2-0.4-0.3-0.7
		c-0.5-1.2-1.8-2.5-0.3-3.6C197.5,180.6,198.1,182.7,199.3,183.4z M202.6,193.6c3.1-2.3,3.2-2.3,0.5-4.3c-0.7-0.5-1.2-1.4-2.7-1.5
		C201.8,189.7,201.6,191.6,202.6,193.6z M204.7,197c-0.1,0.2-0.3,0.4-0.3,0.5c0,0.2,0.2,0.4,0.4,0.4c0.4,0,0.5-0.3,0.4-0.6
		C205.2,197.1,204.9,197.1,204.7,197z"/>
	<path d="M953.9,250.4c0.1,0.9,0.1,1.5,0.1,2.1c0.1,1.1-0.2,2-1.3,2.4c-1.1,0.4-2.2,0.1-3-0.8c-1.1-1.3-1.7-2.7-2.1-4.3
		c-0.7-3-1.2-6-1.8-9c-0.1-0.6-0.1-1.2,0-1.8c0.3-1.9,1.3-2.5,3.1-1.8c3.1,1.1,5.7,5.3,5.4,8.9C954.3,247.6,954.1,249.1,953.9,250.4
		z"/>
	<path d="M257.2,230c-2.2-2.6-2.7-5.4-3.7-8c-0.5-1.3-1-2.5-2.2-3.2c-1.5-0.9-2.3-2.2-2.6-3.8c-0.3-1.8-1-3.5-1.9-5.2
		c-1-1.8-0.9-3.7-0.4-6.3c2.3,2.8,6.2,1.8,7.8,4.8c-0.4,1.4-2.1,0.9-2.7,2c0.4,1,1.4,1.7,2.2,1.6c2.3-0.3,2.3,1.3,2.5,2.7
		c0.2,1.2-0.3,2.1-0.9,3.1c-1.4,2-1,3.9,0.4,5.8c0.7,0.9,1.3,1.8,1.8,2.8C258.1,227.3,258.1,227.3,257.2,230z"/>
	<path d="M1136.5,69.4c2,1.1,2.8,3,3.1,5.1c0.2,1.5,0.8,2.8,1.9,3.8c1.4,1.3,2.1,3,2.6,4.8c0.8,3,1.6,5.9,2.5,8.8
		c0.5,1.8,1,3.4,2.4,4.8c1.4,1.4,1.7,3.5,1.5,5.5c-0.1,0.7-0.4,1.1-1.1,1.3c-0.5,0.1-1-0.1-1.3-0.5c-0.8-1-1.3-2-1.6-3.3
		c-0.3-1.8-0.8-3.6-1.2-5.4c-0.1-0.6-0.2-1.3-0.6-1.7c-3.9-3.7-4.3-8.8-5.6-13.6c-0.3-1.1-0.6-2-1.3-3
		C1135.9,73.7,1135.8,73.1,1136.5,69.4z"/>
	<path d="M235.5,167.2c3.6,4.5,5,10.2,7.6,15.2c0.3,0.6,0.2,1.3-0.6,1.4c-1.8,0.2-3.1,1.1-4.3,2.8c-2.1-6.4-5.8-11.7-8-17.8
		c1.1-0.9,1.9,0.2,2.8,0.2C234.4,169.1,235.4,168.7,235.5,167.2L235.5,167.2z M238,175.6c-0.6,0.2-0.8,0.6-0.6,1.1
		c0.3,0.9,0.6,1.9,1.8,1.9c0.4,0,0.4-0.6,0.3-0.9C239.2,176.9,239.3,175.8,238,175.6z M234.3,172.3c0.2,0.5,0.7,0.7,1.1,0.6
		c0.6-0.1,0.8-0.5,0.7-1c-0.1-0.6-0.5-0.8-1.1-0.6C234.6,171.5,234.3,171.8,234.3,172.3z"/>
	<path d="M23.6,69.8c-2.6,0.5-2.6,0.5-3.3,4.3c-0.9-2.1-1.7-3.8-2.4-5.5c-0.7-1.7-1.3-3.4-2.9-4.5c-1.4-1-1.5-2.5-1.3-4
		c0.2-1.5,0.3-2.9-0.5-4.3c4.5-0.4,5.4,0.1,6.7,3.8C21.1,62.9,22.3,66.2,23.6,69.8z"/>
	<path d="M1197.6,100.5c3.6,6.1,3.9,12.8,7.6,18.3c1.5,2.3,1.9,5.3,2.8,7.9c0.2,0.6,0.2,1.2,0.2,1.8c0,0.6-0.3,1.2-0.9,1.5
		c-0.8,0.3-1.7,0-1.9-0.7c-0.9-3.9-4.3-7-3.6-11.3c0.2-1.2-0.2-1.7-0.8-2.6C1198.2,111,1196.7,106.3,1197.6,100.5z"/>
	<path d="M1013.9,79.8c1.2,0.4,1.9,1.2,2.2,2.1c0.9,2.7,2.5,5,2.8,7.9c0.3,2.7,1.9,5,3.1,7.4c0.4,0.8,1.2,1.8,0,2.6
		c-1,0.6-1.9,0-2.6-0.7c-0.4-0.4-0.8-0.9-1.1-1.4c-1.5-2.6-1.9-5.8-3.7-8.3c-0.2-0.3-0.3-0.7-0.2-1.1c0.6-2.4-0.2-4.6-1.1-6.7
		C1013,80.7,1013,80,1013.9,79.8z"/>
	<path d="M1000,196.8c0,1.1-0.6,1.7-1.6,1c-1.1-0.8-2.1-1.5-3.6-1.3c-0.6,0.1-1-0.6-1.1-1.3c-0.2-1.1-0.8-2-1.4-2.9
		c-1.1-1.7-1.9-3.3,0.7-4.3c0.1,0,0.2-0.2,0.3-0.3c0.6-0.6,0.2-2.3,1.6-2.2c1.3,0.1,1.8,1.5,2.3,2.6
		C998.5,190.9,999.5,193.7,1000,196.8z"/>
	<path d="M199.6,176c-2.7-1.2-3.6,0.4-3.9,2.8c-3.5-2.9-5.7-6-4.7-10.4c1.1-0.5,1.4,0.3,1.9,0.8c0.4,0.4,0.7,0.9,1.2,1.4
		c1.4-1.6-0.9-3.4,0.4-4.9C195.9,167,198.6,172.5,199.6,176z"/>
	<path d="M273.5,27.6c0.2,1.2-0.7,1.6-1.6,2.1c-0.9,0.5-1.2-0.2-1.7-0.8c-2.8-3.5-3.2-8-4.9-11.9c-0.1-0.2,0-0.6,0.2-0.6
		c0.3-0.2,0.9-0.3,1-0.2c1.4,1.9,3.6,2.7,5.2,4.5C273.4,22.8,272.3,25.4,273.5,27.6z"/>
	<path d="M989.4,171c2.6,3.2,4.2,6.3,4.8,10c0.1,0.8,0.3,1.8-0.6,2.3c-0.8,0.4-1.3-0.4-1.9-0.8c-1.9-1.1-3.8-2.3-4.8-4.4
		c-0.6-1.2-1.1-2.4,0.4-3.2C988.7,174.3,988.1,172.6,989.4,171z"/>
	<path d="M967.3,127.2c-0.1-1.6,0.3-2.5,1.3-3c1.1-0.5,2,0.2,2.6,0.9c1.9,2.6,3.5,5.4,4.3,8.5c0.3,1,0.1,1.8-1.2,1.5
		C970.7,134.3,967.4,130.3,967.3,127.2z"/>
	<path d="M276.9,260.7c1.4,3,2.5,5.6,4,8.1c0.8,1.3,0.5,2.1-1.2,2.6c-3.3,1.1-5,0.8-5.9-1.4c-0.3-0.7-0.5-1.8,0.2-2
		c2.8-0.5,1.4-1.9,0.7-3C273.4,262.9,275.4,262.2,276.9,260.7z"/>
	<path d="M1022.2,104.9c5.1,2.1,6.2,6.3,6.6,10.8c0.1,0.8-0.1,1.5-0.8,1.9c-0.8,0.4-1.4-0.1-2-0.5c-1.3-1-1.8-2.4-2.4-4
		C1022.7,110.5,1022.2,107.8,1022.2,104.9z"/>
	<path d="M226.1,246.7c1,0.1,2.4,1.3,2.2-1.1c-0.1-1.6-0.5-3.1-1.2-5.1c2.5,1,4.1,2.4,4.7,4.5c0.4,1.5,0.6,3.1,1.2,4.6
		c0.6,1.6-0.7,2.8-2.4,2.6C227.6,251.8,226.2,250.2,226.1,246.7z"/>
	<path d="M981.8,151.7c-0.8-0.1-1.2,0-1.5-0.2c-2.9-1.8-5.8-9-5.1-12.2c0.1-0.5,0.2-1,0.8-1.1c0.7-0.1,1.1,0.4,1.3,1
		C979.2,143.2,980.7,147.1,981.8,151.7z"/>
	<path d="M170.8,14c0.2,3.1,3,4.9,3,7.8c0,1.2,1.1,2.8-1.1,3.2c-1.5,0.2-4.3-1.7-4.1-2.9c0.4-1.8,0.3-3.6,0.1-5.4
		C168.6,15.6,169.5,14.8,170.8,14z"/>
	<path d="M980.1,71.1c-0.1-0.8,0-1.5,0.9-1.8c1-0.4,1.6,0.2,2,1.1c0.8,1.9,1.7,3.8,2.4,5.7c0.4,1,0.4,1.9-0.7,2.5
		c-1.2,0.6-2,0-2.8-0.9C980.2,75.8,980.5,73.4,980.1,71.1z"/>
	<path d="M1110.4,64.4c2.1-0.1,3,0.5,3.1,2.2c0.1,1.1,0.4,2.2,0.7,3.2c0.2,0.6,0.5,1.2-0.2,1.6c-0.6,0.3-1.2,0.2-1.8,0
		c-1.4-0.6-2.3-1.8-3.3-2.9c-0.8-0.8-1.7-1.7-1.2-2.9C1108.3,64.3,1109.7,64.5,1110.4,64.4z"/>
	<path d="M963.2,107.2c1-0.2,1.4,0.1,1.6,0.6c1.8,3.2,3.1,6.6,4,10.2c0.2,0.8,0.4,1.9-0.7,2.1c-1.1,0.2-2-0.5-1.8-1.7
		c0.3-2.4-0.7-4.3-2-6.1C963.3,110.6,963.2,109,963.2,107.2z"/>
	<path d="M264.3,246.5c2.8,2.9,4,6.5,5.3,10c0.2,0.6,0.9,1.7-0.3,2.2c-1.1,0.4-2.5-0.4-2.3-1.5c0.4-1.8-0.5-2.8-1.4-3.9
		C263.9,251.2,265,248.7,264.3,246.5z"/>
	<path d="M254.4,9.9c1.2,0.1,1.9,1.2,1.4,2.4c-1.2,2.5-3.4,3.8-5.9,4.6c-0.5,0.2-1-0.1-1-0.7c-0.1-1.3,3.8-6.1,5.2-6.3
		C254.1,9.9,254.3,9.9,254.4,9.9z"/>
	<path d="M158.3,211.5c-1.6-0.8-2.6-2.2-3.2-3.8c-0.8-2.2-2-4.1-3.5-5.9c-0.5-0.6-0.8-1.2-1.1-1.9c-0.3-0.7-0.6-1.5,0.2-1.9
		c0.9-0.4,1.2,0.5,1.6,1.1C155.1,202.8,156.2,207.4,158.3,211.5z"/>
	<path d="M1193,91.7c0-0.4,0-0.9,0.2-1.4c0.3-1,1.1-1.1,1.6-0.5c1.5,1.7,2.2,3.7,2.3,6c0,0.7-0.3,1.2-1,1.4
		c-0.6,0.1-1.2-0.1-1.6-0.6C1193.4,95.1,1193.1,93.4,1193,91.7z"/>
	<path d="M985.3,159c0,1.1-0.7,1.8-2,1.7c-1.5,0-2.7-1.3-2.6-2.9c0.1-1.3,0.8-2.3,2.1-2.6C983.7,155,985.3,157.2,985.3,159z"/>
	<path d="M1208,137c-0.2-1-0.1-1.9,1-2.1c0.9-0.1,1.6,0.5,2,1.3c0.2,0.3,0.3,0.7,0.3,1c0.2,1.1,1,2.4-0.4,3.2
		c-1.1,0.6-2.6-0.8-2.8-2.5C1208,137.7,1208,137.3,1208,137z"/>
	<path d="M857.3,45.2c0.1,1-0.2,1.7-1.3,1.7c-1.5,0-3-1.3-3.1-2.6c0-1.2,1.2-2.5,2.2-2.5C856.3,41.8,857.3,43.4,857.3,45.2z"/>
	<path d="M96.1,30.4c0.6-0.7,1.3-0.7,1.8-0.3c1.6,1.2,2,3,2.4,4.8c0.1,0.7-0.3,1.2-1,1.3c-0.7,0.1-1.4-0.4-1.2-1
		C98.6,33,96.9,31.9,96.1,30.4z"/>
	<path d="M1213.4,82.2c2.7,1.2,3.5,3.1,3.5,6.5C1215.2,86.3,1213.3,84.9,1213.4,82.2z"/>
	<path d="M212.5,206.9c0.9,0.7,1.7,1.6,1.9,2.8c0.1,0.7-0.7,1-1.3,0.9c-1.4-0.4-1.8-1.5-1.6-2.8
		C211.6,207.3,211.8,206.9,212.5,206.9z"/>
	<path d="M147.6,190.3c1.5,1.4,2.2,2.6,2.8,4c0.2,0.5,0.5,1.3-0.3,1.5c-0.7,0.2-1.2-0.3-1.4-0.9
		C148.3,193.6,147.6,192.4,147.6,190.3z"/>
	<path d="M658.5,31.9c0-0.6,0.3-1.3,1-1.2c1.2,0,1.6,1,1.8,2c0.1,0.8-0.1,1.5-1.1,1.5C659.3,34.2,658.6,33.1,658.5,31.9z"/>
	<path d="M1150.8,105.9c1.7,1.1,1.3,2.7,1.5,4.3C1150.2,108.7,1150.2,108.7,1150.8,105.9z"/>
	<path d="M207.5,208.5c2.5,0.7,3,2.3,3.2,4.1C209.4,211.7,208.4,210.5,207.5,208.5z"/>
	<path d="M352.9,151.5c2.2,0.9,3,2.7,3.3,4.9l0.1-0.1c-2.5-0.7-2.5-3-3.2-4.9C353,151.4,352.9,151.5,352.9,151.5z"/>
	<path d="M376.7,124.4c-1-2-1.7-3.4-2.5-4.9C376.3,120.7,376.3,120.7,376.7,124.4z"/>
	<path d="M250.1,199.2c1,1.5,1.7,2.4,0.5,3.4c-0.1,0.1-0.5,0.1-0.7-0.1C248.7,201.5,249.6,200.7,250.1,199.2z"/>
	<path d="M246.6,200.1c-0.1,0.6-0.4,0.9-0.9,0.9c-1,0-1.1-0.8-1.1-1.5c0-0.5,0.2-1,0.8-0.9C246.3,198.7,246.5,199.4,246.6,200.1z"/>
	<path d="M220.2,234.6c1.2,0.3,1.2,1.2,1.4,2c0.1,0.5-0.1,1-0.7,1.1c-0.4,0-0.6-0.3-0.7-0.7C220,236.1,219.6,235.3,220.2,234.6z"/>
	<path d="M1037.7,58.9c0.1-0.9,0.7-1.5,1.6-1.5c0.4,0,0.7,0.3,0.7,0.7c0,1-0.7,1.5-1.6,1.5C1038.1,59.6,1037.8,59.3,1037.7,58.9z"/>
	<path d="M370.7,111.1c1.3,0.6,1.9,1.7,2.2,3.3C370.6,114,371.1,112.3,370.7,111.1z"/>
	<path d="M189.7,161.8c-0.1,0.4-0.3,0.8-0.7,0.7c-0.9-0.3-1.3-1-1.4-1.9c0-0.4,0.3-0.7,0.7-0.6C189.3,160.2,189.7,160.9,189.7,161.8
		z"/>
	<path d="M418.7,10c0.3-0.8,1-0.9,1.8-1c0.4,0,0.8,0.2,0.7,0.6c-0.2,0.8-1,0.9-1.8,1C419,10.7,418.7,10.5,418.7,10z"/>
	<path d="M397.5,243.7c1.1,0.5,1.4,1.5,1.9,2.7C397.8,245.5,397.8,245.5,397.5,243.7z"/>
	<path d="M737.5,82.5c0.7,0.5,0.7,1.2,0.5,1.9c-0.1,0.4-0.4,0.7-0.8,0.4c-0.6-0.4-0.5-1.1-0.4-1.7C736.9,82.8,737,82.4,737.5,82.5z"
		/>
	<path d="M199.7,245.7c0.5,1.2,1.1,2.4,1.7,3.8C199.5,248.4,199.5,248.4,199.7,245.7C199.8,245.6,199.7,245.7,199.7,245.7z"/>
	<path d="M391.7,230c0.3,1.1,0.7,2.3,1,3.4c0,0.1-0.2,0.5-0.4,0.5c-0.4,0.2-0.7,0-0.8-0.4C391.3,232.4,391.4,231.2,391.7,230
		C391.7,230,391.7,230,391.7,230z"/>
	<path d="M171.3,27.1c0.6,0,1,0.2,1,0.8c0.1,0.4-0.2,0.7-0.7,0.7c-0.5,0-1-0.2-1.1-0.8C170.5,27.5,170.9,27.2,171.3,27.1z"/>
	<path d="M192.6,158.7c0,0.4-0.1,0.8-0.5,0.8c-0.6-0.1-0.6-0.6-0.6-1.1c0-0.2,0.2-0.6,0.3-0.6C192.5,157.7,192.5,158.2,192.6,158.7z
		"/>
	<path d="M356.1,156.4c0.6,1,1.7,1.8,1.9,3.4C356.3,159.1,355.7,158,356.1,156.4C356.2,156.4,356.1,156.4,356.1,156.4z"/>
	<path d="M215.4,221.9c0.5,0.1,0.8,0.5,0.8,1c0,0.4-0.2,0.7-0.6,0.7c-0.5,0.1-0.9-0.2-0.9-0.8C214.5,222.3,214.8,222,215.4,221.9z"
		/>
	<path d="M723,41.1c0.4,0.2,0.6,0.6,0.4,1.1c-0.1,0.4-0.5,0.5-0.8,0.3c-0.2-0.2-0.4-0.6-0.4-0.9C722.2,41.2,722.5,40.9,723,41.1z"/>
	<path d="M733.9,71.5c-0.2,0.1-0.3,0.4-0.5,0.4c-0.5-0.1-0.8-0.4-0.8-0.9c0-0.1,0.3-0.4,0.4-0.4C733.6,70.6,733.9,71,733.9,71.5z"/>
	<path d="M212.1,216.7c0.3,0,0.4,0.2,0.3,0.5c-0.1,0.2-0.2,0.5-0.4,0.6c-0.5,0.1-0.6-0.3-0.5-0.6C211.7,216.9,212,216.8,212.1,216.7
		z"/>
	<path d="M219.8,221.4c0.2,0.2,0.5,0.3,0.5,0.5c0,0.5-0.4,0.6-0.7,0.4c-0.2-0.1-0.3-0.4-0.3-0.6
		C219.3,221.4,219.5,221.3,219.8,221.4z"/>
	<path d="M948.4,230.4c0.4,0.3,0.9,0.4,0.8,1c0,0.1-0.5,0.2-0.6,0.1c-0.3-0.2-0.5-0.5-0.7-0.8C947.9,230.5,948.1,230.3,948.4,230.4z
		"/>
	<path d="M224.1,243.6c-0.1-0.3,0-0.5,0.3-0.6c0.4-0.1,0.7,0.1,0.8,0.5c0,0.2-0.1,0.5-0.3,0.5C224.5,244.3,224.3,244,224.1,243.6z"
		/>
	<path d="M235.6,167.1c-0.5-0.7-1.5-1.2-1.5-2.7C235.4,165.2,235.3,166.3,235.6,167.1C235.5,167.2,235.6,167.1,235.6,167.1z"/>
	<path d="M15.8,52c0.1-0.1,0.3-0.4,0.4-0.4c0.5,0.1,0.8,0.5,0.7,1c0,0.1-0.4,0.2-0.6,0.2C16,52.8,15.7,52.5,15.8,52z"/>
	<path d="M184.5,216.7c-0.2-0.3-0.3-0.6-0.5-0.9c-0.1-0.2-0.2-0.6-0.2-0.6c0.5-0.2,0.5,0.3,0.5,0.5
		C184.5,216.1,184.5,216.4,184.5,216.7C184.5,216.8,184.5,216.7,184.5,216.7z"/>
	<path d="M217,218.5c-0.1-0.3,0-0.5,0.2-0.4c0.2,0,0.4,0.2,0.5,0.4c0.2,0.2,0.1,0.5-0.2,0.4C217.3,218.8,217.2,218.6,217,218.5z"/>
	<path d="M244.3,185.7c0.1,0.2,0.2,0.3,0.3,0.5c-0.1,0-0.2,0.1-0.3,0.1c-0.1-0.1-0.2-0.3-0.3-0.5
		C244.2,185.7,244.3,185.7,244.3,185.7z"/>
	<path d="M247,193.4c0.1-0.2,0.2-0.4,0.3-0.6c0.2,0.1,0.5,0.2,0.5,0.3c0,0.1-0.1,0.4-0.2,0.6C247.4,193.7,247.2,193.5,247,193.4z"/>
	<path d="M260.6,237.7c0.2,0.1,0.4,0.2,0.5,0.3c0.1,0.3-0.1,0.5-0.3,0.4c-0.1,0-0.3-0.1-0.3-0.2C260.5,238.2,260.6,238,260.6,237.7z
		"/>
	<path d="M735.2,75.6c0.1,0.2,0.2,0.4,0.3,0.5c-0.1,0-0.3,0.1-0.3,0.1c-0.1-0.2-0.2-0.3-0.3-0.5C735,75.7,735.1,75.6,735.2,75.6z"/>
	<path d="M489.7,198.5c0.5-0.5-0.2-1.4,0.6-1.8C490.7,197.5,490,197.9,489.7,198.5C489.7,198.5,489.7,198.5,489.7,198.5z"/>
	<path d="M396.2,241.1c-0.2,0.1-0.3,0.2-0.5,0.4c-0.1-0.2-0.3-0.4-0.3-0.5c0-0.1,0.3-0.2,0.5-0.4
		C395.9,240.7,396.1,240.9,396.2,241.1z"/>
	<path d="M383.5,140.1c0.1-0.3,0.2-0.4,0.5-0.3c0.1,0,0.2,0.2,0.2,0.2c0.1,0.3,0,0.5-0.3,0.4C383.7,140.5,383.6,140.2,383.5,140.1z"
		/>
</g>
</svg>
