<?xml version="1.0" encoding="utf-8"?>
<!-- Generator: Adobe Illustrator 17.1.0, SVG Export Plug-In . SVG Version: 6.00 Build 0)  -->
<!DOCTYPE svg PUBLIC "-//W3C//DTD SVG 1.1//EN" "http://www.w3.org/Graphics/SVG/1.1/DTD/svg11.dtd">
<svg version="1.1" id="Layer_1" xmlns="http://www.w3.org/2000/svg" xmlns:xlink="http://www.w3.org/1999/xlink" x="0px" y="0px"
	 viewBox="0 0 85.5 57.8" enable-background="new 0 0 85.5 57.8" xml:space="preserve">
<g>
	<path d="M66,28C66,28,66,28,66,28c0-0.1-0.1-0.1-0.2-0.2C65.8,28.1,65.6,27.9,66,28z"/>
	<path d="M66,27.9C66.2,28,66,27.7,66,27.9L66,27.9z"/>
	<path d="M65.2,27.7l0.3-0.1c0-0.2-0.2-0.3,0-0.4C65.2,27.2,65.2,27.4,65.2,27.7z"/>
	<path d="M64.7,28l0.2,0C64.9,27.9,64.9,27.9,64.7,28z"/>
	<path d="M65.2,27.9L64.9,28c0,0.1-0.1,0.3,0.1,0C64.9,28.2,65,28,65.2,27.9z"/>
	<path d="M65.3,28.1c0.1,0.2,0.2,0.4-0.2,0.5C65.6,28.7,65.8,28.2,65.3,28.1z"/>
	<path d="M63.9,26.7c-0.1,0.1-0.1,0.4-0.2,0.6l0.2-0.1C64,27,63.8,26.9,63.9,26.7z"/>
	<path d="M63.6,27.4l0,0.1L63.6,27.4c0.1,0,0.2-0.1,0.2-0.2l-0.1,0l0.1-0.3c-0.1,0-0.1,0.1-0.2-0.1l0,0.4l-0.2,0.1
		C63.5,27.4,63.5,27.4,63.6,27.4z"/>
	<polygon points="64.3,28.7 65,28.4 64.2,28.7 	"/>
	<path d="M63,27.1L63,27.1C63,27.2,63,27.2,63,27.1z"/>
	<path d="M63.2,27.6L63.2,27.6L63.2,27.6l-0.3,0.1l0.2,0.2c0,0,0-0.1,0-0.1l0.1,0.1L63.2,27.6c0.1,0,0.1,0,0.1-0.1L63.2,27.6z"/>
	<polygon points="62.8,27.7 62.9,27.7 62.9,27.6 	"/>
	<path d="M62.3,26.8L62.3,26.8C62.3,26.9,62.3,26.9,62.3,26.8z"/>
	<path d="M61.5,28.2c0.2,0.2,0.3-0.1,0.3-0.2l-0.5,0l0.1,0.4L61.5,28.2z"/>
	<path d="M1.5,37.1c0,0-0.1,0.1-0.1,0.3C1.4,37.3,1.5,37.2,1.5,37.1z"/>
	<path d="M59.7,28.5c0.1,0,0.1,0,0.1,0l0.1-0.2C59.8,28.2,59.6,28.4,59.7,28.5z"/>
	<polygon points="58,27.9 58.1,27.4 57.9,27.7 	"/>
	<polygon points="57.4,27.7 57.6,27.9 57.5,27.8 	"/>
	<polygon points="0.6,38.4 0.5,38.2 0.2,38.5 	"/>
	<path d="M25,29.8c0.1,0,0.2-0.1,0.3-0.1C25.1,29.8,24.9,29.1,25,29.8z"/>
	<path d="M5.1,43.5c-0.1,0,0.1,0.4,0.2,0.5C5.4,43.8,5,43.5,5.1,43.5z"/>
	<polygon points="6.2,41.1 6.2,41.5 6.3,41.6 	"/>
	<path d="M9.2,40.5c-0.3-0.1-0.1-0.3-0.2,0.1c0,0,0.1,0,0.1,0C9.1,40.6,9.1,40.6,9.2,40.5z"/>
	<path d="M10.7,39c-0.1-0.1-0.4-0.2-0.5-0.3l0,0.2C10.3,38.9,10.5,38.9,10.7,39z"/>
	<polygon points="11.2,38.3 11.4,38.7 11.2,38.1 	"/>
	<path d="M10.5,38L10.5,38c0.1-0.1,0.1-0.1,0.2-0.1C10.6,37.9,10.5,37.9,10.5,38z"/>
	<path d="M10.4,38.1L10.4,38.1C10.4,38.1,10.3,38.1,10.4,38.1z"/>
	<path d="M70,25c-0.1,0.2-0.3,0,0.1,0.2c0,0,0-0.1,0-0.1C70.1,25.2,70,25.1,70,25z"/>
	<path d="M70.2,25.2C70.2,25.2,70.2,25.2,70.2,25.2l-0.1-0.3c-0.1-0.1-0.2-0.1-0.3-0.2C69.9,24.9,70,25,70.2,25.2
		C70.1,25.1,70.1,25.2,70.2,25.2C70.2,25.2,70.2,25.2,70.2,25.2z"/>
	<path d="M69.2,24.6l0.4,0c0.1-0.2-0.1-0.4,0-0.4C69.3,24.2,69.3,24.3,69.2,24.6z"/>
	<path d="M68.7,24.9l0.2,0C68.9,24.8,68.9,24.8,68.7,24.9z"/>
	<path d="M69,24.9c-0.2,0.1,0,0,0.2,0l-0.4,0C68.8,25,68.7,25.2,69,24.9z"/>
	<path d="M67.8,23.8l0.3,0c0-0.1-0.1-0.3,0-0.5C67.9,23.4,67.9,23.6,67.8,23.8z"/>
	<path d="M67.8,23.8l-0.4,0C67.6,24,67.7,24,67.8,23.8z"/>
	<polygon points="68.2,25.4 68.9,25.3 68.1,25.4 	"/>
	<polygon points="67.4,22.4 66.8,22.6 67.1,22.6 	"/>
	<path d="M65.9,21.8c0.2,0,0.4,0.1,0.5,0.4c0.3-0.2,0.1-0.5,0.3-0.6C66.4,21.6,66.1,21.7,65.9,21.8z"/>
	<path d="M65.9,21.8c-0.1,0-0.2,0.1-0.4,0.2C65.6,21.9,65.7,21.9,65.9,21.8z"/>
	<path d="M67,23l-0.1,0.4c0,0,0.1,0,0.1,0.1C67,23.4,67.1,23.2,67,23z"/>
	<path d="M66.9,23.4L66.9,23.4c-0.1-0.1-0.2-0.2-0.2-0.2C66.7,23.3,66.8,23.3,66.9,23.4z"/>
	<path d="M67,23.5L67,23.5C67,23.5,67,23.6,67,23.5z"/>
	<path d="M67.1,25.2c0.3-0.2,0.2-0.4,0.7-0.6C67.5,24.7,67.1,24.8,67.1,25.2z"/>
	<path d="M67.3,24L66.9,24l0.2,0.3C67.1,24.2,67.2,24,67.3,24z"/>
	<polygon points="66.9,24 66.8,23.9 66.7,24.1 	"/>
	<path d="M65.7,22.9c0.1-0.1,0.3-0.3,0.1-0.4c-0.2,0.1-0.4,0-0.5,0C65.4,22.7,65.5,22.9,65.7,22.9z"/>
	<path d="M66.3,23L66.3,23C66.3,23.1,66.3,23.1,66.3,23z"/>
	<path d="M63.8,21.9C63.8,21.9,63.8,21.9,63.8,21.9L63.8,21.9L63.8,21.9z"/>
	<path d="M65.7,23c0.1,0.1,0.2,0.1,0.3,0C65.9,23,65.8,23,65.7,23C65.6,23,65.6,23,65.7,23z"/>
	<path d="M65,21.9c0,0.1,0.1,0.2,0.1,0.3C65.1,22.1,65,21.8,65,21.9z"/>
	<path d="M66.3,22.9C66.3,22.9,66.3,22.9,66.3,22.9C66.3,22.8,66.3,22.8,66.3,22.9z"/>
	<path d="M66.3,22.9c-0.1,0-0.2,0.1-0.3,0.1c0.1,0,0.2,0,0.3,0C66.3,23,66.3,22.9,66.3,22.9z"/>
	<path d="M64.3,22.2l0.1,0c-0.1-0.1-0.1-0.3-0.2-0.7c-0.3,0.1-0.4,0.2-0.4,0.3L64.3,22.2L64.3,22.2z"/>
	<path d="M64.3,23.3c0.3,0.1,0.4-0.2,0.7-0.3c-0.6-0.2,0.3-0.1,0-0.6c0.1,0,0.2,0,0.3,0.1c-0.1-0.1-0.1-0.2-0.2-0.3l0,0l0,0l0,0
		c0,0.1,0,0.1,0,0.1c0,0,0,0,0,0c0,0.1-0.1,0.1-0.1,0.1c-0.1-0.2,0-0.1,0.1-0.1l0-0.1l0,0l-0.6-0.1c0.1,0.1,0.2,0.2,0.5,0.3
		C64.6,22.8,64.3,22.8,64.3,23.3z"/>
	<path d="M66.3,25.8C66.4,25.8,66.4,25.8,66.3,25.8C66.3,25.8,66.3,25.8,66.3,25.8z"/>
	<path d="M66.3,25.5c0.1,0,0.2-0.1,0.3,0c0,0.2-0.1,0.2-0.2,0.3c0.1,0,0.4-0.1,0.3-0.4l-0.1,0c-0.1-0.2-0.1-0.9,0-0.9
		C66.5,24.8,66.4,25.1,66.3,25.5z"/>
	<path d="M65.1,24l0,0.4l0.1-0.2c0.2,0.2,0.3-0.1,0.4-0.2L65.1,24z"/>
	<polygon points="63.8,21.6 64,21.2 63.5,21.7 	"/>
	<polygon points="63.3,21.1 63.1,21.2 63.2,21.4 	"/>
	<path d="M47.9,19.1c-0.2-0.4-0.4-0.9-0.4-0.5l0.1,0.4C47.7,19,47.8,19.1,47.9,19.1z"/>
	<path d="M56.8,19.9c-0.1-0.2-0.3-0.3-0.4-0.3C56.5,19.8,56.7,20.2,56.8,19.9z"/>
	<path d="M29.1,21.9C29,22,29,22,29,22.1C29.1,22,29.1,22,29.1,21.9z"/>
	<path d="M56.4,19.6c-0.1-0.2-0.3-0.4-0.5-0.1c0,0,0.1,0.1,0.1,0.1C56.1,19.5,56.2,19.5,56.4,19.6z"/>
	<path d="M60.7,20.4C60.9,20.4,60.8,20.4,60.7,20.4L60.7,20.4z"/>
	<path d="M60.7,22.4c0-0.1,0.1-0.2,0.1-0.2C60.8,22.3,60.8,22.3,60.7,22.4z"/>
	<path d="M54.2,22L54.2,22C54.3,22.1,54.3,22.1,54.2,22z"/>
	<path d="M60.9,20.5c0,0,0.1,0.1,0.1,0.1C61,20.5,61,20.4,60.9,20.5z"/>
	<path d="M60.7,20.5C60.7,20.4,60.7,20.4,60.7,20.5c-0.1-0.1-0.1-0.1-0.2-0.1C60.6,20.4,60.7,20.4,60.7,20.5z"/>
	<path d="M62,20.9c0-0.1,0-0.3,0.1-0.3l-0.3,0C62,20.7,62,20.8,62,20.9z"/>
	<path d="M63.4,24.3c0.1,0,0.1,0,0.1,0l0.1-0.2C63.5,24,63.3,24.2,63.4,24.3z"/>
	<path d="M61.9,22.2c-0.1,0.4,0.1,0.3,0.3,0.3c0,0,0,0,0,0C62.4,22,62.2,22.1,61.9,22.2z"/>
	<path d="M62.3,22.6c0.1,0,0.1,0,0.2,0.1C62.5,22.4,62.4,22.5,62.3,22.6z"/>
	<path d="M60.4,20.3c0.2-0.5-0.8,0.4-0.2,0.3C60.3,20.7,60.4,20.1,60.4,20.3z"/>
	<polygon points="61.6,23.5 61.7,23 61.5,23.4 	"/>
	<path d="M60.3,22.7l0.3,0.2c0-0.1,0.1-0.1,0.1-0.1C60.5,22.7,60.3,22.6,60.3,22.7z"/>
	<path d="M60.9,22.8c-0.1,0-0.2,0-0.3,0C60.7,22.9,60.8,22.9,60.9,22.8z"/>
	<polygon points="61.1,23.4 60.9,23.3 61.2,23.6 	"/>
	<path d="M56.9,22.2c0.1-0.1,0.2-0.1,0.2-0.3L56.7,22C56.6,22.1,56.7,22.2,56.9,22.2z"/>
	<polygon points="52.2,21 52,22 52.1,22 	"/>
	<polygon points="0.3,38 0,38.3 0.4,38.1 	"/>
	<path d="M0.8,38.9l-0.7-0.1c0,0,0.1,0.1,0.3,0.2c0.1,0.1,0.3,0.2,0.3,0.2c0,0,0-0.1,0-0.1L1,39.3C1,39.2,1,39,1.1,39l-0.4,0
		C0.7,38.9,0.8,38.9,0.8,38.9z"/>
	<path d="M1.3,42c-0.1,0,0.1,0.4,0.2,0.4C1.6,42.3,1.3,41.9,1.3,42z"/>
	<polygon points="2.3,40.7 2.3,40.2 2.2,40.5 	"/>
	<path d="M3.6,40.1c-0.3-0.6-0.5,0.3-0.8,0.1L2.7,40l0.1,0.6C3.1,40.4,3.4,40,3.6,40.1z"/>
	<path d="M4.5,41.4C4.6,41.4,4.6,41.4,4.5,41.4c0.1,0.1,0.1,0,0.2,0C4.6,41.1,4.8,41.1,4.5,41.4z"/>
	<path d="M4.6,41.4C4.5,41.5,4.7,41.6,4.6,41.4L4.6,41.4z"/>
	<path d="M5.1,41.4c0.1,0.2,0.3,0.2,0.2,0.3c0.2-0.2,0.1-0.3-0.1-0.6L5.1,41.4z"/>
	<path d="M5.3,40.6l-0.1,0.1C5.3,40.8,5.3,40.8,5.3,40.6z"/>
	<path d="M5.1,41l0.2-0.3c-0.1-0.1-0.1-0.3-0.1,0.1C5.1,40.6,5.1,40.8,5.1,41z"/>
	<path d="M4.8,40.4c-0.4,0.2-0.2,0.7,0.2,0.5C4.8,40.7,4.6,40.7,4.8,40.4z"/>
	<path d="M3.5,39.3l-0.2-0.2l-0.1,0.3C3.3,39.3,3.6,39.6,3.5,39.3z"/>
	<path d="M6.3,40.9C6.4,41,6.6,41,6.6,41.3c0-0.2-0.1-0.4-0.2-0.6L6.3,40.9z"/>
	<polygon points="5,40.4 5.3,39.8 5.2,39.8 	"/>
	<path d="M7.5,41.1l-0.1,0.3c-0.1-0.1-0.2-0.2-0.3-0.3l0,0.2c0.1,0,0.2,0,0.3,0.1l0,0.1l0-0.1c0,0,0.1,0.1,0.1,0.1
		c0,0-0.1-0.1-0.1-0.1l0.1-0.5L7.5,41.1z"/>
	<path d="M8.4,41.1l-0.1-0.3L8.4,41.1L8.4,41.1c-0.1,0-0.2-0.1-0.2-0.1c-0.1,0.3,0.2,0.5,0.1,0.7c0.2-0.1,0.3-0.4,0.4-0.6
		C8.6,41.1,8.5,41.1,8.4,41.1z"/>
	<path d="M5.9,40.1c0.1-0.1,0.2-0.3,0.2-0.5c0,0,0,0,0,0l0-0.1c0.1,0,0.4,0.1,0.6,0.2l0,0.1l-0.2,0c0,0.1,0.1,0.3,0,0.4l0.2-0.3
		l-0.1,0c0,0,0,0,0.1-0.1c0,0,0,0,0,0l0,0l0.1,0l0-0.2c0,0,0.1-0.1,0-0.1l-0.3,0l0,0c-0.2-0.2-0.3-0.3-0.6-0.5c0,0.1,0.1,0.2,0,0.2
		c0-0.1-0.1-0.1-0.1-0.2c0,0.1,0,0.1,0,0.1c0-0.1,0-0.1-0.1-0.2c0,0.1,0,0.3,0.1,0.4C6,39.7,6,39.8,5.9,40.1z M6.9,39.8L6.9,39.8
		C6.8,39.8,6.8,39.8,6.9,39.8C6.8,39.8,6.9,39.8,6.9,39.8z"/>
	<path d="M7.7,40.3L7.7,40.3C7.7,40.3,7.7,40.3,7.7,40.3z"/>
	<path d="M10.1,39.8C10.1,39.8,10.1,39.7,10.1,39.8L10.1,39.8L10.1,39.8z"/>
	<path d="M8.1,39.9C8,39.9,8,40,7.9,40.1C8,40.1,8.1,40,8.1,39.9C8.2,39.9,8.2,39.9,8.1,39.9z"/>
	<path d="M9.2,40.4c-0.1-0.1-0.2-0.1-0.2-0.2C9.1,40.3,9.2,40.5,9.2,40.4z"/>
	<path d="M7.8,40.5c0,0-0.1,0-0.2,0.1l0,0C7.8,40.5,7.8,40.5,7.8,40.5C7.8,40.5,7.8,40.5,7.8,40.5C7.8,40.4,7.9,40.4,7.8,40.5
		C7.9,40.4,7.8,40.4,7.8,40.5C7.8,40.4,7.8,40.4,7.8,40.5C7.8,40.4,7.8,40.4,7.8,40.5C7.8,40.5,7.8,40.4,7.8,40.5z"/>
	<path d="M7.8,40.4c0-0.1,0.1-0.2,0.1-0.3c-0.1,0-0.1,0.1-0.2,0.2C7.8,40.3,7.8,40.4,7.8,40.4z"/>
	<path d="M9.6,39.8l-0.1,0.1c0,0,0,0,0.1,0C9.5,39.9,9.5,39.9,9.6,39.8l0,0.4c0.2,0.1,0.3-0.1,0.4,0.1c0,0,0,0,0,0c0,0,0,0,0.1,0.1
		c0.1-0.2,0.1-0.4,0.1-0.5L9.6,39.8L9.6,39.8z"/>
	<path d="M9.2,39.8l0-0.2c0.1,0.1,0.3,0.1,0.2,0c-0.1,0-0.1,0-0.2-0.1l0-0.1c0,0,0,0,0,0l0-0.1l0,0.1c0.1,0,0.1,0,0-0.1l0.1-0.3
		c-0.1,0-0.2,0.1-0.3,0.2c0-0.2,0-0.3-0.1-0.5c-0.1,0-0.1,0-0.1,0.1c-0.1-0.2-0.1-0.3-0.3-0.5c-0.2,0.2,0,0.4,0,0.7
		C8.6,39,8.6,39,8.7,39l0.1,0.2c0,0.1,0,0.2-0.1,0.2c0.1,0,0.1,0,0.1,0l0,0.1l0-0.1c0.1,0,0,0.1,0,0.2c-0.1,0-0.1,0-0.2,0.1
		c0,0,0,0,0,0c0,0,0,0,0,0c-0.1,0-0.2,0-0.2,0.1c0,0.1,0.1,0.2,0.2,0.3c-0.1,0-0.2,0-0.3,0c0,0,0,0,0,0c0,0,0,0,0,0c0,0,0,0,0,0
		c0,0,0,0.1,0,0.1c0,0,0,0,0,0.1c0,0,0,0,0,0c0,0.1,0,0.2,0.1,0.1c0.1-0.2,0.2-0.2,0.3-0.3c0,0,0.1,0.1,0.2,0.1c0.1,0,0.1,0,0.2,0.1
		l0,0l0,0l0,0c0,0,0-0.1,0-0.1c0,0,0,0,0,0c0,0,0,0,0-0.1C9,40,9,40,9,40c0.1,0,0,0.1-0.1,0.1l0,0.1l0,0l0.5-0.3
		C9.4,39.8,9.3,39.8,9.2,39.8z M9,39.9c0-0.1,0-0.2,0-0.3c0,0,0.1,0,0.1,0c0,0,0,0.1,0.1,0.2C9.2,39.9,9.1,39.9,9,39.9
		C9,39.9,9,39.9,9,39.9z M9.2,39.7C9.2,39.7,9.2,39.6,9.2,39.7C9.2,39.6,9.2,39.6,9.2,39.7C9.2,39.7,9.2,39.7,9.2,39.7z M9.1,39.5
		C9.1,39.5,9,39.5,9.1,39.5C9.1,39.5,9.1,39.5,9.1,39.5l0,0.1l0,0l0,0c0,0,0,0,0,0.1c0,0,0,0,0,0c0,0,0,0,0,0l0,0l0,0l0,0
		C9.1,39.6,9,39.6,9.1,39.5C9.1,39.6,9.1,39.6,9.1,39.5C9.1,39.5,9,39.5,9.1,39.5C9,39.4,9,39.4,9.1,39.5
		C9.1,39.4,9.1,39.4,9.1,39.5z M8.9,39.9C8.9,39.9,8.9,39.9,8.9,39.9c-0.1,0-0.2,0-0.3,0c0-0.1,0.1-0.1,0.1-0.2
		C8.8,39.7,8.8,39.8,8.9,39.9z M8.6,40C8.6,40,8.6,40,8.6,40C8.6,40,8.6,40,8.6,40C8.6,40,8.6,40,8.6,40z"/>
	<path d="M6,38.2C6.1,38.3,6.1,38.3,6,38.2C6.1,38.3,6.1,38.2,6,38.2z"/>
	<path d="M6.1,38.8L6.1,38.8c0.3,0.1,0.6,0.5,0.6,0.6c-0.1-0.4-0.2-0.6-0.4-1c0,0.1,0,0.2-0.2,0.2c-0.1-0.1,0-0.2-0.1-0.3
		C6,38.5,5.9,38.7,6.1,38.8z"/>
	<path d="M7.6,38.7l-0.3-0.1l0.1,0.2c-0.2,0.1,0,0.3,0,0.4L7.6,39c0,0,0,0.1,0,0.1L8,38.8l-0.3-0.3l0,0.2
		C7.7,38.7,7.6,38.7,7.6,38.7z"/>
	<polygon points="10.2,40.4 10.3,39.7 10.2,40 	"/>
	<polygon points="10.8,40.2 10.9,39.9 10.7,39.8 	"/>
	<path d="M24,36.2c0.3,0.3,0.6,0.8,0.5,0.4l-0.2-0.4C24.2,36.3,24.1,36.3,24,36.2z"/>
	<path d="M16.3,38.3c0.2,0.1,0.3,0.2,0.5,0.1C16.5,38.2,16.3,37.9,16.3,38.3z"/>
	<path d="M40.3,32.2c0.1-0.1,0.1-0.2,0.1-0.3C40.3,32,40.3,32,40.3,32.2z"/>
	<path d="M17.2,38.3c0,0-0.1,0-0.1-0.1c-0.1,0.1-0.2,0.2-0.3,0.2C16.9,38.6,17.1,38.6,17.2,38.3z"/>
	<path d="M13,39.5C12.9,39.5,13,39.5,13,39.5L13,39.5z"/>
	<path d="M12.8,39.5c0,0-0.1,0-0.1,0C12.7,39.6,12.8,39.6,12.8,39.5z"/>
	<path d="M13,39.5c0,0,0.1,0,0.2-0.1C13.1,39.4,13,39.4,13,39.5C13,39.4,13,39.5,13,39.5z"/>
	<path d="M11.8,40l0.2-0.2c-0.1,0.1-0.2,0-0.3-0.1C11.8,39.8,11.9,39.9,11.8,40z"/>
	<path d="M13.3,39.1c-0.1-0.1,0.1,0.5,0,0.4C13.3,40,13.7,38.7,13.3,39.1z"/>
	<path d="M58.5,27C58.5,27,58.5,26.9,58.5,27C58.5,27,58.5,27,58.5,27z"/>
	<path d="M26.1,34.8l0,0.5C26.2,35.2,26.1,35,26.1,34.8z"/>
	<path d="M29.1,28.8c0,0.1,0,0.2,0,0.3C29.2,29,29.2,28.9,29.1,28.8z"/>
	<path d="M26.1,34.7C26.1,34.7,26.1,34.7,26.1,34.7C26.1,34.8,26.1,34.8,26.1,34.7L26.1,34.7z"/>
	<path d="M32.3,33.6l0.2,0.3l0-0.2C32.5,33.6,32.4,33.6,32.3,33.6z"/>
	<path d="M27.9,35.3c0.1,0,0.2-0.2,0.3-0.1C28,35.3,27.7,34.6,27.9,35.3z"/>
	<path d="M2,44.3c-0.1,0,0.1,0.4,0.2,0.4C2.3,44.5,2,44.2,2,44.3z"/>
	<polygon points="3,42.6 3,42.7 3,42.2 	"/>
	<path d="M3.5,42.1l-0.1-0.1l0.2,0.5c0.2-0.3,0.4-0.8,0.7-0.8C3.8,41.2,3.9,42.1,3.5,42.1z"/>
	<path d="M5.6,42.6C5.7,42.6,5.7,42.6,5.6,42.6c0.1,0,0.1,0,0.2,0C5.7,42.3,5.9,42.2,5.6,42.6z"/>
	<path d="M5.7,42.6C5.6,42.7,5.9,42.7,5.7,42.6L5.7,42.6z"/>
	<path d="M6.3,42l0,0.3c0.1,0.1,0.3,0,0.3,0.2C6.7,42.3,6.5,42.2,6.3,42z"/>
	<path d="M6.1,41.6c0.1,0,0.1,0,0-0.2L6.1,41.6z"/>
	<path d="M6.1,41.8c-0.1-0.2,0,0,0,0.2l0.1-0.3C6,41.6,5.9,41.4,6.1,41.8z"/>
	<path d="M5.5,41.6c-0.3,0.3,0,0.7,0.3,0.4C5.7,41.9,5.5,41.9,5.5,41.6z"/>
	<path d="M4,41.1L3.7,41l0,0.3C3.7,41.1,4.1,41.2,4,41.1z"/>
	<path d="M7.2,41.1l0-0.4C7,40.9,7.1,41,7.2,41.1z"/>
	<polygon points="5.7,41.5 5.8,40.8 5.7,40.8 	"/>
	<path d="M9.1,40.7C9.1,40.6,9.1,40.6,9.1,40.7C9.1,40.6,9,40.7,9.1,40.7c-0.2,0-0.2,0-0.3,0c0,0,0,0,0,0.1
		c-0.1,0.1-0.1,0.2-0.2,0.3c0.1-0.1,0.1-0.2,0.2-0.3C9,40.9,9.2,41,9.2,41.2c0.1-0.1,0.1-0.4,0-0.7C9.3,40.6,9.2,40.6,9.1,40.7z"/>
	<path d="M9.3,40.1c0,0.1,0,0.2,0,0.4C9.3,40.4,9.3,40.3,9.3,40.1z"/>
	<path d="M8,40.8l-0.3-0.3c0,0-0.1,0-0.1,0C7.7,40.7,7.8,40.8,8,40.8z"/>
	<path d="M7.6,40.6L7.6,40.6C7.6,40.6,7.6,40.5,7.6,40.6z"/>
	<path d="M6.5,40.8c0,0,0-0.1,0-0.1l0.2-0.2c-0.1,0-0.1,0-0.2,0.1c0-0.2-0.1-0.4-0.4-0.5c0.1,0.2,0.2,0.3,0.3,0.6
		C6.4,40.6,6.4,40.6,6.5,40.8l0-0.1C6.4,40.7,6.5,40.7,6.5,40.8z"/>
	<path d="M7.1,40.6L7.1,40.6c0,0.1,0.1,0.1,0.2,0.2l-0.1-0.3c0,0,0,0,0-0.1c0.1,0,0.1,0,0.2,0c0,0-0.1,0-0.2,0
		c0.1-0.1,0.1-0.2,0.2-0.2c-0.1,0-0.1-0.1-0.2-0.1l0-0.1l0,0.1c-0.1,0-0.2,0.1-0.2,0.2l-0.1,0c0,0,0,0,0,0c-0.1,0.2-0.1,0.4-0.3,0.5
		l-0.2-0.1l0.3,0.5C6.9,41.1,7,40.8,7.1,40.6C7.1,40.6,7.1,40.6,7.1,40.6z"/>
	<path d="M8.2,40.2L8.2,40.2C8.1,40.2,8.1,40.2,8.2,40.2z"/>
	<path d="M8.3,39.7c-0.1,0-0.1,0.1-0.1,0.3C8.3,39.9,8.3,39.8,8.3,39.7C8.4,39.7,8.3,39.7,8.3,39.7z"/>
	<path d="M5.8,39.1C5.8,39.1,5.8,39.1,5.8,39.1C5.8,39.1,5.8,39.1,5.8,39.1z"/>
	<polygon points="10.4,38.6 10.7,39 10.6,38.7 	"/>
	<path d="M35.7,27.4c-0.1,0.1-0.1,0.2-0.1,0.3C35.7,27.6,35.8,27.5,35.7,27.4z"/>
	<path d="M57.4,22.6C57.4,22.7,57.4,22.7,57.4,22.6C57.5,22.6,57.4,22.6,57.4,22.6z"/>
	<path d="M62.3,27.1c0,0-0.1,0-0.2,0C62.1,27.2,62.2,27.2,62.3,27.1z"/>
	<path d="M12.3,37.6C12.2,37.6,12.3,37.6,12.3,37.6L12.3,37.6z"/>
	<path d="M14.9,32.4L14.9,32.4C14.8,32.3,14.8,32.3,14.9,32.4z"/>
	<path d="M12.3,37.6c0,0,0.1-0.1,0.1-0.1C12.3,37.5,12.3,37.5,12.3,37.6C12.2,37.5,12.2,37.5,12.3,37.6z"/>
	<path d="M48.3,23.6C48.3,23.6,48.3,23.6,48.3,23.6C48.4,23.5,48.4,23.5,48.3,23.6z"/>
	<path d="M53.1,6.6c0.1,0,0.4-0.4,0.3-0.3C53.3,6.2,53.1,6.5,53.1,6.6z"/>
	<path d="M54.7,8C54.6,8,54.6,8.2,54.7,8L54.7,8z"/>
	<polygon points="57.6,10 57.3,10.2 57.5,10.1 	"/>
	<path d="M84.4,27.1C84.4,27.1,84.4,27.1,84.4,27.1C84.5,27.1,84.5,27.1,84.4,27.1z"/>
	<path d="M85,30.1c0.1-0.2,0.3-0.1,0.5-0.2C85.1,30,85,30,85,29.7l0.1,0c-0.2-0.2-0.2-0.4-0.2-0.6c0.1-0.1,0.2-0.1,0.2-0.1
		c0,0-0.1,0-0.2,0.1c0-0.2,0-0.4,0-0.7l-0.4,0.3c0-0.1,0.1-0.2,0.2-0.4c-0.7,0.3,0.2,0.3-0.6,0.6c0.7-0.7-0.4-0.7,0.4-1.4
		c-0.1-0.2-0.4,0.4-0.5,0.2l0.2-0.2l-0.3,0.2c0-0.1,0.2-0.4,0.4-0.6c0,0,0.1,0,0.1,0c0.2-0.3-0.4-0.3-0.3-0.4l0,0.3
		c-0.2-0.1-0.3-0.2-0.4-0.3c0.1-0.1,0.1-0.2,0.2-0.3c-0.1,0-0.2,0-0.3,0.1c-0.1-0.2-0.3-0.4-0.5-0.4c0-0.1,0.1-0.1,0.2-0.2
		c-0.1,0-0.1,0.1-0.2,0.2c-0.1,0-0.2-0.1-0.3-0.1l-0.1,0.2c-0.5,0-0.2-0.3-0.3-0.5c0,0,0,0,0,0c0,0,0,0,0,0c0,0-0.1-0.1-0.1-0.1l0,0
		c-0.1,0-0.1,0-0.2,0c0.1-0.1,0.1-0.1,0.1-0.2c-0.1,0.1-0.2,0-0.2,0C82,25.3,82,25,82.3,25c-0.1,0-0.2,0-0.3,0c0,0,0-0.1,0,0
		c0,0,0,0,0,0c-0.1,0-0.2,0.1-0.4,0.2l-0.1,0c0,0,0,0,0,0.1c-0.1,0.1-0.2,0.1-0.4,0.2l0.2-0.3c-0.2,0.1-0.4,0.2-0.5,0.2
		c0.2-0.2,0.3-0.3,0.4-0.5C81.2,25,81.1,25,81,25.1c0.1-0.1,0.2-0.3,0.4-0.4c0,0,0,0,0,0l0,0l0.4-0.3l-0.4,0.2c0-0.1,0-0.2,0-0.3
		l0.1-0.1l-0.2,0.1c-0.1,0-0.2,0-0.3,0c0,0,0.1-0.1,0.2-0.2c-0.1,0.1-0.2,0.2-0.3,0.2c-0.1,0-0.1-0.1,0.2-0.4
		c-0.2,0.1-0.3,0.3-0.4,0.3c0,0-0.1,0-0.3,0.1c0,0,0,0,0,0c0.3-0.4,0-0.3,0.4-0.8c-0.1,0.1-0.3,0.3-0.3,0.1c0,0,0,0,0,0
		c0,0,0,0,0-0.1c0,0,0,0,0.1,0c0,0,0,0,0,0c0,0,0,0,0-0.1c0-0.1-0.1-0.1-0.2-0.1c0,0,0,0,0,0c0,0,0,0,0,0c0,0-0.1,0-0.1,0
		c0.1-0.1,0.1-0.1,0.1,0c0.2-0.1,0.1-0.1-0.1,0c0,0,0,0,0-0.1c-0.1,0.1-0.2,0.1-0.2,0.1c0,0,0,0-0.1,0c0,0-0.1,0-0.2,0.1
		c0.1-0.1,0.2-0.2,0.3-0.2l-0.1-0.1c0.1,0,0.2,0,0.3-0.1c0.2-0.3-0.7,0.2,0-0.4c-0.1,0.1-0.2,0.2-0.3,0.2c0-0.1,0-0.2-0.2-0.1
		c0,0-0.1,0-0.1,0c0,0-0.1,0-0.1,0l-0.1,0l0.2-0.2c-0.1,0-0.3,0.1-0.3,0.1l0.5-0.4c-0.5,0.3,0-0.6-0.3-0.5c0.3,0.2-0.3,0.5-0.4,0.8
		c0,0-0.1,0-0.1,0c0,0,0.1,0,0.1-0.1c0.2-0.2,0-0.3-0.1-0.3c0.2-0.3,0.4-0.7,0.2-0.8c0.1,0,0,0.2-0.1,0.4l-0.1,0
		c0-0.1,0-0.3,0.1-0.4c0,0,0,0,0,0c0,0,0,0,0,0c0.1-0.2-0.4-0.1-0.6-0.2c0.1-0.1,0.1-0.2,0.1-0.3l0.3-0.1c0-0.1-0.1,0-0.3,0
		c-0.1-0.1-0.3-0.2-0.4-0.3c0-0.1-0.1-0.3-0.4-0.2l0.5-0.5c-0.2-0.1-0.7,0.6-1.1,0.4c0,0-0.1,0-0.1-0.1c0.1-0.1,0.3-0.3,0.4-0.3
		l-0.1,0c0.1-0.1,0.3-0.2,0.3-0.2c-0.2,0-0.5,0.1-0.7,0.1c0-0.1,0.1-0.2,0.1-0.2c0,0,0,0,0,0l0.3-0.3c0.7-0.1,0.5,0.1,0.9-0.3
		c-1.2,0.6-0.5-0.6-1.7,0.1l0.2-0.2c0,0,0.1,0,0.1,0c0.3-0.4-0.3,0-0.7,0.1c0.1-0.2,0.2-0.3,0-0.1l-0.1,0.1c-0.1,0-0.1,0-0.1-0.1
		c0-0.1,0.2-0.3,0.3-0.3l-0.4,0c0-0.1,0.2-0.2,0.2-0.1L76.4,18c0,0,0,0,0,0c0.1,0,0.2-0.1,0.2-0.1l-0.2,0.1c0,0,0.1-0.1,0.1-0.2
		c0,0-0.1,0-0.2,0c0.9-0.7-0.5,0.1,0-0.6l0.2,0.1c0.6-0.5,0.3-0.5,0.6-0.9c-0.2,0.2-0.8,1-1.2,1c0.1-0.1,0.1-0.2-0.2-0.2
		c0.4-0.2,0.3-0.3,0.2-0.4l0.6-0.3c-0.2,0-0.5,0.1-0.8,0.2c0-0.2,0.4-0.5,0.7-0.7c-0.1-0.3-0.6,0.6-0.8,0.4c0.1-0.3-0.2-0.3-0.7-0.4
		c0.1-0.3,0.3-0.2,0.5-0.3l-0.5,0.2c0,0,0.1-0.1,0.2-0.1c-0.2,0-0.5,0.3-0.8,0.3c-0.6,0.3,0.7-0.9-0.1-0.6c0.1-0.1,0.3-0.2,0.5-0.3
		c-0.6,0-0.5,0-1.2,0.1l0.2-0.4c-0.3,0.4-0.9,0.5-1.4,0.7c-0.2,0.2-0.3,0.3-0.4,0.4l-0.2,0c0-0.1-0.1-0.1-0.1-0.1
		c0.1-0.1,0.2-0.1,0.4-0.2c-0.1,0-0.1,0-0.2,0c0.1-0.2,0.5-0.4,0.8-0.5c-0.1,0.1-0.2,0.2-0.3,0.3c0.4-0.2,0.8-0.3,1.1-0.6
		c-0.1,0-0.1,0-0.2,0c0.1,0,0.2-0.1,0.2-0.1c0.1,0-0.1,0-0.2,0.1l0.6-0.5l-0.2,0.1l0.2-0.6c-0.7,0.2-1.7,0.6-2.2,0.4
		c0.5-0.2,0.7-0.5,1.2-0.8c-0.5,0.5,0.4,0.1,0.5,0.4c0-0.1,0.2-0.3,0.3-0.3l-0.7,0c0.4-0.3,0.3-0.3,0.4-0.5
		c-0.8,0.6-0.7,0.1-1.1,0.2c0.3-0.2,0.6-0.4,0.6-0.2c0.5-0.6-1.1,0.5-0.7-0.1c0,0,0,0.1,0.2,0c-0.3,0.1-0.3-0.3,0-0.4l0,0
		c-0.1-0.3-0.6-0.8-1.3-0.3c0.1-0.1,0.8-0.6,1-0.7c0,0-0.6,0.3-1.3,0.7c-0.6,0.3-1.3,0.7-1.3,0.7c0.6-0.4,1.8-1.7,2.3-1.7
		c0-0.1,0.1-0.3-0.2-0.2c0,0.1-0.7,0.8-0.8,0.8c0.5-0.7,0.3-0.4,0.6-1c-0.1,0.2-1,0.8-1.1,0.7c0.1-0.1,0.9-0.7,1-0.8l-1.1,0.5
		c0.2-0.1,0.7-0.6,0.9-0.9c-0.1,0.2-0.1-0.2-0.3-0.2l-0.1,0.3c-0.1-0.4-1.4,0.8-1.6,0.5C69,10.4,70,9.7,70,9.5
		c-0.4,0.3-1.7,1.1-2.5,1.4c0-0.1,0-0.3,0-0.4c0.8-0.4,2-1,2.5-1.2C70.1,9,70.3,9,70.1,8.8c0.2-0.2,0.4-0.2,0.5-0.2l-0.1-0.5
		c-0.5,0.4-0.7,0.2-1.2,0.5l0.8-0.1c-0.5,0.4-1.6,1-1.8,0.7c0.2-0.2,1-0.7,1.1-0.9c-0.2,0.1-0.5,0.1-0.4-0.1l0.4-0.1
		C69.6,8,68.6,8.6,69,8.1c0-0.1,0.5-0.7,0.2-0.5c-0.4,0.4-1.4,1.3-2.1,1.9c0-0.2-0.1-0.2-0.5,0c0.1-0.2,0.2-0.4,0.3-0.6
		c0.4-0.5,1.2-0.8,1.6-1.2C68.3,7.9,68.1,8,68,8c0.1-0.2,0.5-0.3,0.3-0.4c-0.5,0.4-0.2-0.3-0.5,0.3c-0.3,0,0-0.2-0.1-0.3
		c-0.3,0.3-1.3,0.8-1.5,0.8c0.1-0.1,0.3-0.3,0.4-0.3c-0.2-0.3,0-0.6-0.2-0.9c0.1-0.1,0.2-0.4,0.4-0.5c-0.1,0-0.3,0.2-0.4,0.1
		c0.4-0.5,0.2,0.1,0.7-0.4c-0.3,0.2-0.6,0.1-0.9,0.2c-0.5,0.4,0.1,0.3,0.4,0.3c-0.7,0.5-1.5,0.9-2,0.9c-0.1,0-0.1-0.1-0.1-0.1
		c0.1-0.1,0.2-0.1,0.2-0.1l0,0c0.1-0.1,0.2-0.1,0.1-0.1c-0.1-0.2-0.3-0.1-0.6,0c0,0,0-0.1,0-0.1L64,6.9l-0.3,0.4
		c-0.1,0-0.2,0-0.2-0.2c0.3-0.5,0.9-0.6,1.1-0.9c0.3,0-0.1,0.5,0,0.6l0.1-0.3c0.2-0.1,0.4,0,0.3,0.1c0.3-0.4-0.4-0.7-0.3-1.3
		c-0.2,0.1-0.4,0.1-0.5,0.2l0.1,0c-0.3,0.3-0.6,0.2-0.7,0.4c-0.3,0-0.8,0.2-0.8-0.2l0.5-0.4c-0.1,0.1-0.2,0.3,0,0.3
		c-0.3,0.1,0.5-0.8-0.2-0.4L63,5.7c-0.2,0-0.4,0.1-0.6,0.1c0-0.1,0.1-0.2,0.2-0.4c-0.4,0.5-0.4-0.2-1,0.5c0-0.2,0.4-0.3,0.5-0.6
		c-0.2,0-0.3,0-0.3-0.2c0.1,0,0.2-0.1,0.4-0.1c0.1-0.2,0.2-0.6,0.6-0.7c0.3,0.1,0,0.2-0.1,0.4c0.4-0.4,0.7-0.2,1.3-0.6l-0.3,0
		c0.1-0.1,0.3-0.1,0.3-0.2c-0.3,0.2-0.7,0.3-0.5-0.1c-0.3,0-1.2,0.7-1.7,1.2c0-0.2,0-0.4-0.1-0.6c0.2-0.1,0.3-0.1,0.5-0.3
		c-0.1-0.1-0.4,0.1-0.6,0.1c0.1,0.1,0.1,0.1,0,0.1c0,0,0,0,0,0c0,0,0,0-0.1,0c-0.1,0-0.2,0.1-0.2,0.2c0,0,0,0,0,0c0,0-0.1,0-0.1,0
		l0.4-0.5c-0.1,0-0.4,0.2-0.5,0.3c0,0,0,0,0-0.1c0,0,0-0.1,0.1-0.1c0,0-0.1,0.1-0.1,0.1c0,0,0,0,0,0c-0.1,0-0.2,0.1-0.2,0.1
		c0-0.1,0-0.2,0-0.2c0,0,0.1,0,0.1,0c0,0-0.1,0-0.1,0c-0.1-0.3-0.3-0.5-0.5-0.7l0.1,0c0-0.1-0.1-0.1-0.2-0.1
		c-0.2-0.2-0.3-0.4-0.3-0.7c0,0,0,0,0,0l0,0c0-0.1,0.1-0.2,0.1-0.3l0.6,0l0,0L60,2.5c0-0.1,0.1-0.2,0.2-0.3
		c-0.2,0.2-0.3,0.2-0.3,0.2c0,0,0.1,0,0.1,0c-0.1-0.1-0.1-0.1-0.2-0.1c0,0,0,0,0,0c0,0,0,0,0,0c-0.2,0-0.3,0.2-0.3,0.3
		c-0.1,0-0.2,0.1-0.2,0.1l0.4-0.6c-0.6,0.3-0.2-0.3-0.8,0l0.2,0c-0.7,0.2-1.4,1-2.2,1.4c0.8-0.3-0.8,1,0.3,0.7
		c-0.1,0.2-0.3,0.1-0.5,0.3c0.4-0.1,0.5-0.1,0.4,0.1l-0.1,0c0.3,0.2,0.2,0.5,0.2,0.9c-0.1-0.3-0.4-0.4-0.6-0.6
		c-0.3-0.3-0.6-0.6-0.1-1.3c-0.2,0.3-0.3,0.2-0.3,0.2c0,0.1-0.4,0.2-0.6,0.4c0,0,0.1-0.2,0.2-0.3c0.1-0.1,0.2-0.3,0.2-0.3
		c-0.6,0.3-0.2-0.3-0.8,0l0.2,0c-0.7,0.2-1.4,0.9-2.2,1.4c0.4-0.1,0.2,0.2,0.1,0.4c-0.2,0.3-0.2,0.6,0.4,0.4
		c-0.1,0.2-0.3,0.1-0.5,0.3c0.4-0.2,0.5-0.1,0.5,0.1l-0.1,0C54,6.6,53.8,7,54,7.7l0.3-0.3c0,0.1,0,0.3-0.1,0.4
		C54.9,7.3,54,7.4,54.7,7c-0.4,0.5,0,0.6,0.1,1c0,0-0.1,0-0.1,0c0,0,0,0,0,0.1c0,0,0,0,0.1,0.1C54.8,8,54.8,8,54.8,8
		c0,0.1,0,0.3-0.2,0.5c0,0.1,0.1,0,0.2,0c0,0,0,0.1-0.1,0.1c0.2,0,0.3-0.2,0.4-0.4c0,0,0,0,0,0l-0.2,0.3l0.3-0.2
		c0,0.1-0.2,0.4-0.3,0.6c0,0-0.1,0-0.2,0c-0.1,0.4,0.4,0.2,0.4,0.4l0-0.3c0.2,0.1,0.4,0.2,0.6,0.4l-0.2,0.2l0.2-0.2
		c0.1,0.1,0.2,0.1,0.3,0.2c-0.2,0.2-0.2,0.4-0.4,0.4c0.1,0,0.3-0.1,0.5-0.2c-0.1,0-0.2,0-0.1-0.2c0.1,0,0.2,0.1,0.3,0.1
		c0,0-0.1,0.1-0.2,0.1c0,0,0.1,0,0.2-0.1c0.1,0,0.2,0,0.4,0l0-0.1c0,0,0,0,0,0c0,0,0,0,0,0l0.1-0.1c0.3,0,0.3,0,0.3,0.2
		c0,0.1-0.1,0.1-0.1,0.2c0.1,0,0.1,0,0.1-0.1c0,0,0,0.1,0.1,0.1L57,10.1l0.3-0.2c0,0,0.1,0,0.1,0l0,0c0.2-0.1,0.4-0.1,0.4,0
		c-0.2,0.1-0.2,0.5-0.5,0.7c0.5-0.1,0.4-0.1,0.8-0.4c0.1,0,0.1,0.1,0.2-0.1l-0.1,0.1c0,0,0,0,0,0c-0.1,0.3,0,0.2-0.2,0.7
		c0.1-0.1,0.1-0.1,0.1-0.2c0,0.3,0.2,0.3,0.3,0.3c0,0-0.1,0.1,0,0c-0.2,0.2,0,0.1,0.2,0c0.1,0,0.1,0.1-0.1,0.5
		c0.1-0.1,0.2-0.2,0.3-0.3l0,0c-0.1,0.3-0.1,0.4,0.1,0.4c0,0,0,0,0.1,0c0,0,0,0,0,0.1c0,0-0.1,0-0.1,0c-0.1,0.3,0.4-0.1,0.2,0.3
		c0.4-0.3,0.2-0.1,0.4-0.2c0.1,0,0.3,0,0.4,0.1c-0.5,0.5-0.3-0.1-0.9,0.2c-0.2,0.3,0.6-0.2,0,0.4c0.8-0.7,0.2,0.2,0.7-0.1
		c0,0,0,0,0,0c0,0,0,0,0,0c0,0,0,0,0.1,0l-0.1,0.1c0,0,0,0,0,0c0,0,0,0,0,0l-0.2,0.2c0,0,0.1-0.1,0.2-0.1c0,0,0,0,0,0.1L59.5,13
		c0.5-0.3-0.1,0.5,0.2,0.4c-0.2-0.2,0.3-0.5,0.5-0.8c0.7-0.2-0.7,1-0.2,1.2c-0.1,0,0-0.4,0.3-0.5c0,0.1-0.1,0.4-0.2,0.6
		c0.2,0.1,0.2,0,0.3-0.2c0,0.3,0.5,0.3,0.6,0.5l-0.1,0.1c0.4-0.1,0.4,0,0.4,0.2c0.2-0.3,0.6-0.6,0.8-0.5c-0.1,0.3-0.4,0.3-0.2,0.4
		c-0.3,0.2-0.6,0.4-0.3,0c-0.1,0.1-0.3,0.2-0.4,0.3C61,15,61.3,15,61.4,15c0,0,0-0.1,0-0.1l0.7-0.2c-0.1,0.2-0.2,0.2-0.4,0.3
		c0.1,0,0.3-0.1,0.4-0.1c-0.3,0.2-0.6,0.5-0.8,0.6l0.5-0.1c-0.1,0.1-0.2,0.4-0.4,0.5c-0.1,0.3,0.9-0.2,0.8,0.2
		c0.1,0,0.1-0.1,0.2-0.1c0.1,0.2-0.1,0.7,0.4,0.5l-0.4,0.6c0.3,0.1,0.5-0.7,1-0.6c0.3,0-0.4,0.5-0.5,0.7c0.3-0.1,1-0.4,0.7,0.1
		c-0.1,0-0.1-0.1-0.2-0.1l-0.2,0.4c-0.6,0.3-0.5,0-0.9,0.5c1-0.9,0.5,0.4,1.6-0.4l-0.1,0.3c0,0-0.1,0-0.1,0
		c-0.4,0.6,0.9-0.5,0.9-0.2c0,0.1-0.1,0.3-0.3,0.4l0.4,0c0,0.1-0.2,0.2-0.2,0.1l0.3,0.2l0,0c0.2-0.1,0.5-0.2,0.7-0.3
		c-0.1,0.2-0.1,0.1-0.3,0.2l0.4-0.1c-0.2,0.3-0.6,0.4-0.6,0.3c-0.9,1,0.4-0.1,0,0.7l-0.2,0c-0.5,0.6-0.2,0.5-0.5,1
		c0.2-0.2,0.7-1.1,1.1-1.1c0,0.1,0,0.2,0.2,0.1c-0.4,0.3-0.2,0.3-0.1,0.4L65,19.8c0.2,0,0.5-0.2,0.8-0.3c0.1,0.2-0.3,0.5-0.6,0.8
		c0.1,0.3,0.5-0.6,0.8-0.5c-0.1,0.3,0.2,0.3,0.7,0.2c-0.1,0.3-0.3,0.2-0.4,0.4l0.5-0.2c0,0-0.1,0.1-0.2,0.2c0.2,0,0.5-0.4,0.8-0.4
		c0.6-0.4-0.6,0.9,0.2,0.6c-0.1,0.2-0.3,0.2-0.5,0.4c0.6-0.1,0.5,0,1.2-0.3l-0.2,0.4c0.3-0.4,0.8-0.6,1.3-0.8
		c0.1-0.2,0.3-0.4,0.3-0.4l0.4,0c-0.1,0.1-0.2,0.2-0.5,0.3c0.1,0,0.1,0,0.2-0.1c-0.1,0.2-0.4,0.4-0.8,0.6c0.1-0.1,0.2-0.2,0.2-0.3
		c-0.3,0.2-0.7,0.4-1,0.7c0.1,0,0.1,0,0.2,0c-0.1,0.1-0.2,0.1-0.2,0.2c0,0,0.1,0,0.2-0.1l-0.5,0.5l0.2-0.2L68,22
		c0.7-0.2,1.7-0.7,2.2-0.6c-0.5,0.3-0.7,0.5-1.2,0.9c0.4-0.5-0.4-0.1-0.5-0.3c0,0.1-0.2,0.3-0.3,0.3l0.7-0.1
		c-0.4,0.3-0.2,0.3-0.3,0.5c0.7-0.7,0.7-0.2,1-0.3c-0.3,0.2-0.5,0.4-0.6,0.2c-0.4,0.6,1.1-0.5,0.7,0c0,0,0-0.1-0.2,0
		c0.3-0.1,0.3,0.2,0,0.4l0,0c0.1,0.3,0.6,0.7,1.3,0.2c-0.1,0.1-0.8,0.6-1,0.7l2.5-1.4c-0.6,0.4-1.8,1.7-2.3,1.8
		c0,0.1-0.1,0.3,0.2,0.2c0-0.1,0.7-0.8,0.8-0.8c-0.5,0.7-0.2,0.4-0.6,1c0.1-0.2,1-0.8,1-0.7c-0.1,0.1-0.8,0.8-1,0.8l1-0.5
		c-0.2,0.1-0.7,0.6-0.9,0.9c0.1-0.2,0.2,0.2,0.3,0.2l0.1-0.3c0.1,0.4,1.4-0.8,1.6-0.5c-0.1,0-0.2,0.2-0.4,0.3l0,0l0,0
		c-0.1,0.1-0.2,0.1-0.3,0.2L72,25.2c-0.1,0.1-0.1,0.2-0.1,0.4c-0.1,0.1-0.1,0.1-0.2,0.2c0,0,0,0,0,0c0,0,0,0,0,0
		c0,0.1-0.1,0.1-0.1,0.1c0,0,0.1-0.1,0.1-0.1c0.3,0.2,0.2,0,0.3-0.2c0,0,0.1,0,0.1-0.1c0,0,0,0,0,0l0.1,0.1l-0.1-0.2
		c0.1,0,0.2-0.1,0.2-0.2l0,0.1l0-0.1c0.7-0.5,1.7-1.1,2-1.2l-0.2,0.3l0.4-0.1c-0.7,0.5-2.3,1.4-3,1.7c-0.1,0.3-0.3,0.3-0.1,0.4
		c-0.2,0.3-0.4,0.2-0.5,0.2l0.2,0.5c0.2-0.2,0.4-0.3,0.6-0.3c-0.2,0.1-0.3,0.3-0.4,0.5c0,0,0,0-0.1-0.1c0,0,0,0.1,0,0.1
		c0,0.1,0,0.1,0,0.2c0,0,0-0.1,0,0c0-0.1-0.1-0.2-0.3-0.3l0,0.1c-0.2,0-0.6-0.3-0.7-0.4c0.3,0.3,0.5,0.5,0.8,0.7
		c0-0.1-0.1-0.2-0.1-0.2c0.1,0,0.1,0.1,0.2,0.2c0,0,0,0,0,0c0,0,0,0,0,0c0,0,0,0,0.1,0.1c0,0,0,0,0,0l0,0c0,0,0,0,0,0.1l0,0l0,0
		c0,0,0,0,0,0c0,0,0.1,0.1,0.1,0.1c0,0.2-0.2,0.1-0.3,0.1c0-0.1-0.2-0.5-0.1-0.3c-0.1-0.4-0.1,0.3,0,0.4c0,0,0,0,0,0.1l0,0
		c0,0.1,0.1,0.2,0.1,0.3c0,0,0,0,0-0.1l0,0c0,0,0,0,0,0c-0.1-0.1-0.1-0.2-0.1-0.4l-0.2,0.1c-0.1-0.1-0.3-0.2-0.3-0.1l0,0l0.3-0.1
		c-0.4-0.3-1-0.4-1-0.8c-0.3,0.5,0.3,0.5,0.5,0.7l0,0.1l0.1,0c0,0,0,0,0,0l-0.1,0.1l0.2-0.1l0,0c0,0,0,0.1,0,0.1
		c-0.1-0.1,0,0.6-0.1,0.2l-0.1,0.4c0,0,0,0,0,0L70,28.4c-0.1,0-0.1,0.1-0.2,0.2c-0.4-0.4-0.9-0.8-1.3-1.1c0.1,0.1,0.2,0.2,0.3,0.5
		c0.2,0.1,0.6,0.1,0.8,0.5c0,0.3-0.2,0-0.4-0.1c0.1,0.1,0.2,0.2,0.3,0.3c-0.1,0-0.2-0.1-0.2-0.1c0.1,0.1,0.3,0.2,0.3,0.3
		c0,0,0,0,0,0.1c-0.1,0.1-0.2,0.1-0.5-0.1c0,0.1,0,0.2-0.1,0.3c0,0-0.1-0.1-0.1-0.1l-0.4-0.2c-0.1-0.3-0.5-0.9-0.2-0.9
		c-0.5-0.4,0,0.1-0.6-0.3c0.7,0.5-0.3,0.3,0.5,0.8c-0.7-0.5-0.4-0.1-1-0.4c0.2,0.1,0.3,0.2,0.2,0.3c0,0,0.1,0.1,0.1,0.1l0,0l0,0
		c0,0,0,0,0,0c0.1,0,0.2,0.1,0.3,0.2c0.1,0.1,0.1,0.2,0.2,0.3c-0.2,0-0.3,0.1-0.4,0.3c-0.2-0.1-0.4-0.2-0.5-0.5l-0.1,0.1
		c-0.3-0.1-0.4,0-0.4,0.2c-0.1,0,0.2,0.5,0,0.2l0,0.4l-0.1-0.1c-0.1,0-0.1,0.1-0.1,0.2c-0.4-0.1-0.7-0.4-1.2-0.6l0,0.5
		c-0.2-0.1-0.2-0.2-0.3-0.4c-0.3,0.7,0.5,0.1,0.2,0.9c-0.1-1-1.3-0.2-1.4-1.3c-0.3,0,0,0.4-0.2,0.5c0,0,0-0.1-0.1-0.1l0-0.2
		l-0.1,0.2c-0.1,0-0.2,0-0.2-0.1c0-0.1,0-0.3,0-0.4c0,0,0.1,0,0.1,0c0,0.1,0,0.1,0,0.2c0.2-0.2,0.2-0.5,0.5-0.7
		c-0.2,0.1-0.5,0.2-0.5,0.5c-0.1-0.2-0.4-0.1-0.5,0c0-0.2,0-0.4,0-0.4c0,0.1-0.1,0.3-0.1,0.4c0,0-0.1,0-0.1,0l0.1,0.1
		c0,0.1,0,0.1,0,0.2c-0.8,0-1.6-0.4-2.4,0l0,0.2c-0.7,0.3-0.4-0.3-1.1-0.2l0,0c0,0,0,0,0,0c0,0,0,0,0,0l0,0
		c-0.1,0.1-0.1,0.1-0.2,0.1c-0.1,0.1-0.2,0.1-0.3,0c0,0,0-0.1,0-0.1c0.1-0.2-0.1-0.5,0-0.7l0.1-0.1c0,0.1-0.2,0.2-0.1,0.4
		c0.1-0.4,0.5-0.6,0.7-0.1c0.3-0.1,0.5-0.9,0.6-1.6c0.3,0,0.6,0,0.9,0.1c-0.2,0.2-0.3,0.3-0.3,0.6c0.3,0.1,0.3-0.3,0.6-0.4
		c-0.3,0-0.2-0.1-0.1-0.2c0.3,0.1,0.6,0.3,1,0.7c-0.2-0.3-0.1-0.4,0.1-0.4c0,0,0-0.1,0-0.2c0,0,0,0,0,0c0,0,0,0,0,0
		c0-0.1,0-0.3,0-0.4l0.2,0.2c-0.1,0-0.1,0.1-0.2,0.2c0.1,0,0.2,0,0.2-0.1c0,0,0,0,0-0.1l0.4,0.4c0-0.1,0-0.1,0.1-0.2
		c0,0,0.1,0.1,0.2,0.1l0,0C62.8,27,62.8,27,62.7,27c0.1-0.1,0.1-0.2,0.2-0.2l0,0.3c0,0,0.1,0,0.1,0c0-0.1,0-0.2,0-0.3
		c0.2,0,0.3,0,0.4-0.3l-0.2,0.1c0.3-0.7-0.4-1.7-0.3-2.6c0,0,0,0.1,0.1,0.2c0.1,0,0.2-0.1,0.2-0.3c0,0.2,0.1,0.4,0.1,0.3
		c0.1,0,0-0.2,0-0.4c0.3-0.5,0.5-1.3,0.5-1.8c-0.1,0.2-0.1,0.3-0.5,0.4c0,0.2,0.4,0.7,0,1c-0.4,0-0.2-0.2-0.3-0.5
		c0,0.4-0.5,0.5-0.7,0.8c-0.2-0.2-0.4-0.2-0.5,0.3c-0.1-0.2,0.1-0.3,0-0.5c-0.1,0.4-0.3,0.5-0.5,0.3l0-0.1c-0.6,0.1-0.9-0.1-1.4-0.4
		c0.1-0.1,0.2-0.2,0.2-0.4l-0.2,0c-0.1-0.5,0.5-0.5,0.3-0.7c0.4-0.2,0.8-0.6,1.1-0.2l-0.1,0.6c0-0.2-0.1-0.4-0.3-0.3
		c0.3-0.2,0.3,1,0.8,0.3L61.5,22c0.4-0.2,1-0.7,1.2-0.4c0-0.6-0.1,0-0.1-0.7c-0.1,0.9-0.9-0.3-0.9,0.7c0-0.9-0.3-0.5-0.5-1.3
		c0,0.2,0,0.4-0.3,0.2c0,0.1-0.1,0.1-0.1,0.1c0,0,0,0,0,0l0,0c0,0,0,0,0,0c0,0.1,0.1,0.2,0.1,0.3c-0.3,0.4-0.8,0.2-1,0.4
		c-0.2-0.1,0.1-0.2,0.1-0.4l-0.3,0.3c0.1-0.4-0.3-0.8,0.2-1l-0.4-0.1c-0.2-0.3-0.5-0.5-0.7-0.3c-0.2-0.1-0.6,0.4-0.3,0.1
		c0,0-0.2,0-0.3,0.1c-0.2,0-0.3,0.1-0.3,0.1l0-0.1c-0.6-0.2-1.4,0.5-1.9-0.4c-0.2,0.1-0.4,0.2-0.8,0l0-0.4c-0.3,0.1-0.7-0.5-0.9-0.1
		c-0.2-1.1-1.3-0.3-1.7-0.6l-0.1,0.5c-0.3-0.1-0.6,0.1-1,0.2l0,0.4c-0.3,0.4-0.8-0.3-1.4-0.3c0-0.2,0.2-0.1,0.3,0
		c-0.6-1-1.3,0.7-1.9,0c-0.1,0.2-0.2,0.1-0.3,0c0,0,0,0,0,0c0,0,0,0-0.1,0c-0.1-0.1-0.1-0.2-0.2-0.2c0.1,0.1,0.1,0.2,0.2,0.2
		c-0.1,0-0.3,0.1-0.4,0.2l-0.1-0.5c0,0,0,0,0,0c-0.2-0.2-0.1,0.2,0,0.6c-0.1,0.1-0.2,0.2-0.2,0.3c-0.1-0.8-0.4,0.3-0.6-0.6
		c-0.1,0.4-0.8,0.3-0.9,1.2c0-0.1-0.1-0.2,0-0.2c-0.2-0.1-0.4-0.2-0.5,0.1l-0.1-0.6l-0.4,0.8c-0.3-0.4-0.4-0.6-0.2-1.1
		c-0.5,0.8-0.4,0.3-0.9,1l0-0.4c-0.2,0-0.4,0.6-0.5,0.2c-0.4-0.7-1.9,0-2.9-0.6c0.3,1.1-0.5-0.5-0.5,0.4c-0.1-0.3-0.2-0.4-0.1-0.7
		c-0.5,0.3-0.8-0.3-1.1,0.4c-0.1-0.3,0.1-0.4,0-0.6c0,0.1-0.1,0.3-0.2,0.1c-0.1-0.2,0-0.2,0.1-0.4c-0.5,0.1-0.5,1-0.4,1.7
		c-0.3-0.3-0.4-0.3-0.5,0.3c-0.1-0.2-0.3-0.5,0-0.6c-0.2,0-1.2-0.2-1.1,0.4c-0.1-0.2-0.3,0-0.3,0.1c-0.4,0-0.4,0-0.8,0.1l0.1,0.1
		c0,0.8-0.3,0.2-0.6,0.4l0-0.1c-0.8-0.4-0.3,0.3-1.1-0.2L34,22c0.1,1-0.7-0.5-1.1,0l0.2,0.2c-0.1,0-0.2-0.1-0.3-0.2
		c0,0,0.1,0.1,0.1,0.2C32.6,21.9,32.2,21,32,21c-0.1-0.1,0-0.2,0.1-0.2c-0.7-0.5,0.1,0.6-0.4,0.9c-0.2-0.3-0.1-0.9-0.4-0.9
		c-0.2-0.2-0.6,1.3-1.2,0.7c0.2,0.2,0.3,0.5,0.1,0.7c-0.3,0.2-1.1-0.7-1.2,0.1c-0.1-0.1-0.1-0.1-0.1-0.2c-0.2,0.3-0.7,0.6-0.7,1
		c-0.7-1.5-1.2,1.2-1.7-0.3c0,0-0.2,0.1-0.4,0.1c-0.2,0.1-0.3,0.2-0.3,0.2l0-0.2c-0.5,0.1-0.5,0.5-0.6,0.9c-0.1-0.1-0.1-0.2-0.1-0.3
		c-0.6,0-0.8,0-1,0.5c-0.1,0-0.2,0.1-0.2,0.2l-0.1-0.2c0,0.3-1.1-0.3-1.6,0.3c0,0,0-0.1-0.1-0.1c0,0,0,0,0,0c0,0,0,0,0,0
		c0,0,0,0,0,0c-0.1,0-0.2,0.1-0.2,0.2c-0.5,0.3-1.3-0.1-1.6,0.2l-0.1,0c0,0,0,0.1,0,0.1c0,0,0,0,0,0c-0.7,0-1.6-0.7-1.4,0.7
		l-0.4,0.6c0.1,0,0.2,0,0.2,0.1c-0.1,0-0.1,0-0.2,0.1c-0.2-0.1-0.3-0.2-0.2,0c0,0,0.1,0.1,0.1,0.1c0,0,0,0,0,0
		c-0.3-0.3-0.7,0.1-0.9-0.4c-0.3,0.1-0.6,0.2-0.9,0.2c-0.3,0.1-0.6,0.1-0.9,0.2c-0.6,0.1-1.3,0.2-1.8,0.4l0.4,0.6
		c0,0-0.4,0.1-0.4,0.1c-0.2-0.1-0.4-0.5-0.1-0.6c-0.3-0.3-0.3,0.5-0.3,0.7c-0.6,0-0.1-0.9-0.3-0.8L13,26.9l0.1,0.1
		c-0.1,0.4,0.1,0.7-0.3,0.8c-0.3,0-0.3-0.4-0.4-0.3c0,0-0.1-0.1-0.1,0l-0.5,0.2l0.5,0.4c-0.1,0.4-0.5,0.2,0.1,0.7
		c-0.8-0.8-1.9,0.6-2.2,0.4c-0.1,0.5-0.3,0.7-0.7,0.8c0.1,0,0.4,0.4,0.3,0.6c-0.1,0-0.2-0.1-0.2-0.2c-0.5-0.8-0.7,0-1.5-0.6
		c0.6,0.4-0.7,0.7,0.1,1.2c-0.3,0.1-0.3-0.4-0.7-0.5c-0.2,0.8-1.4,0.6-2,1.3C5.7,32,5.9,32.1,6,32.4L5,32.1C5,32.3,5.6,32.9,5,32.7
		c0.1,0.1,0.3,0.2,0.3,0.3c-0.9,0.3-1.4,1-1.9,1.8c-0.3,0.4-0.5,0.8-0.9,1.2c-0.3,0.2-0.7,0.4-1.1,0.5c0.3,0,0.3,0,0.3,0.1
		c-0.1,0.1-0.3,0.2-0.4,0.2c0.2,0,0.3,0,0.3,0c0,0-0.1,0.1-0.1,0.2c0-0.1,0.1-0.1,0.1-0.2c0,0.1,0,0.1,0,0.2c0.1-0.1,0.2,0,0.4,0.1
		c-0.1,0-0.2,0.1-0.3,0.1c-0.3,0.1-0.5,0.3-0.5,0.3c0.1,0.1,0.1,0.2,0.1,0.2c0,0,0,0,0,0c0,0,0,0,0.1,0c0,0.1,0,0.2-0.1,0.4
		c-0.1,0.2-0.1,0.5,0.1,0.6l0-0.3c0,0,0,0,0.1,0c0,0.2,0,0.3,0.2,0.4l0-0.2c0,0,0.1,0,0.1,0c0.3,0.2,0.7,0.1,1.1,0.1c0,0,0,0,0,0
		c0.4,0,0.7,0.1,1.1,0.3C3.7,39.1,3.7,39,3.7,39C3.9,39,4,39,4.1,39.1C4,39,4,38.9,4,38.9c0.1,0,0.1,0,0.2,0c0.2,0,0.4,0,0.4-0.2
		c0.1,0,0.1,0,0.2-0.1c0,0,0,0,0.1,0.1c0,0,0-0.1-0.1-0.1c0-0.1,0-0.2-0.1-0.3c0,0,0,0,0-0.1c0.1,0.1,0.2,0.2,0.3,0.2
		c-0.1-0.1-0.2-0.2-0.2-0.3c0,0,0.1,0,0.1,0L5,38.1c0.3-0.5,0.7-0.5,1.2-0.7c0,0.1,0,0.2,0,0.3c0.2-0.9,0.9,1.1,1.2-0.1
		c0.1,0.2,0,0.3,0.1,0.5c0-0.4,0.2-0.5,0.5-0.4l0,0.1c0.4-0.1,0.6-0.1,0.9,0c0,0.1,0.1,0.1,0.1,0.2c-0.1,0-0.1,0-0.2,0
		c0.2,0.3,0.4,0.3,0.6,0.7c0-0.1-0.1-0.2-0.1-0.3c0.1,0.1,0.2,0.2,0.4,0.3c0,0.1,0.1,0.2,0.1,0.3l-0.3,0.2l0-0.1l-0.1,0.1
		c0.1,0,0.3,0.1,0.5,0.2c0.1,0.1,0.1,0.3,0.2,0.4c0-0.2,0-0.3,0.1-0.5l0.1,0.2l-0.1-0.3c0,0,0,0,0,0c0,0,0,0,0,0l-0.1-0.3l0,0.2
		c-0.1-0.1-0.2-0.1-0.3-0.2c-0.1-0.1-0.1-0.2-0.1-0.4c0.2-0.2,0.3-0.1,0.4,0.1c-0.1,0.1-0.1,0.2,0.1,0.3l0-0.3c0,0,0.1,0.1,0.1,0.1
		c-0.2-0.4,0.1-0.7,0.1-1.2c0,0,0,0,0,0c0.1,0,0.3,0,0.4,0c0,0.3,0,0.6-0.1,0.7L10.5,38c0,0,0,0-0.1,0.1c0,0,0.1,0,0.2,0.1
		c0,0-0.1,0-0.1,0c0.4,0.3,0.2,0.1,0.3,0.2c0,0-0.1,0-0.1,0c0,0.2,0.1,0.1,0.1,0c0,0,0.1,0,0.1,0.1c0.1,0.4,0.2,0.2,0.3,0
		c-0.1-0.4-0.2-0.2-0.4-0.1c-0.1-0.3,0.4-0.3,0.3-0.6c0,0,0,0,0-0.1c0.1,0.1,0.2,0.1,0.2,0.1c0,0-0.1,0.1-0.1,0.3l0.1,0.1
		c0,0-0.1,0-0.1,0c0.1,0.1,0.2,0.2,0.1,0.2l0.1-0.1l0.1,0.1c-0.2,0.4-0.4,1.1-0.7,1c0.3,0.6,0.1-0.1,0.4,0.6c-0.4-0.8,0.8-0.2,0.3-1
		c0.4,0.7,0.5,0.2,1,0.9c-0.1-0.2-0.2-0.4,0.1-0.3c0-0.1,0-0.1,0-0.2c0,0,0,0,0,0l0,0c0,0,0,0,0,0c-0.1-0.1-0.2-0.2-0.2-0.3
		c0-0.5,0.5-0.6,0.6-0.8c0.2,0.1,0,0.2,0.1,0.4l0.1-0.4c0.1,0.4,0.6,0.6,0.3,1l0.4-0.1c0.3,0.2,0.6,0.2,0.7,0
		c0.2,0.1,0.3-0.6,0.2-0.2l0.5-0.4l0,0.1c0.5-0.1,0.9-1,1.7-0.4c0.1-0.2,0.3-0.3,0.6-0.3l0.2,0.4c0.2-0.2,0.8,0.2,0.8-0.2
		c0.5,0.9,1.1-0.1,1.6,0l-0.1-0.5c0.3-0.1,0.5-0.3,0.8-0.6l-0.1-0.4c0.2-0.4,0.8,0.1,1.3-0.1c0,0.2-0.1,0.2-0.2,0.1
		c0.8,0.8,0.9-1,1.6-0.5c0.1-0.2,0.2-0.2,0.3-0.1c0,0,0,0,0,0c0,0,0,0,0.1,0c0.1,0.1,0.2,0.1,0.2,0.2c-0.1-0.1-0.2-0.2-0.2-0.2
		c0.1,0,0.2-0.1,0.3-0.3l0.2,0.4c0,0,0,0,0,0c0.2,0.1,0-0.3-0.1-0.6c0-0.1,0.1-0.2,0.1-0.3c0.3,0.7,0.3-0.4,0.7,0.4
		c0-0.2,0.1-0.3,0.2-0.4c0,0.1,0.1,0.1,0.1,0.2c0.3,0.2,0.4-0.9,0.9-0.7c0,0,0,0,0,0l0.1,0.1l0-0.3c0.2,0,0.3,0.1,0.5,0.1
		c0,0.1,0,0.2,0,0.3c0-0.1,0.1-0.2,0.1-0.3c0.1,0,0.3-0.1,0.4-0.3l0.4,0.6c0.2-0.2-0.2-0.5-0.2-0.8c0.1-0.1,0.2-0.4,0.3-0.4
		c0.1,0.1,0.1,0.6,0.3,0.7c0-0.1,0.1-0.3,0.1-0.5c0.1,0,0.2,0,0.3,0l0.3,0.3c-0.1,0.7-0.4,0.5,0,1c-0.3-1.2,0.7-0.5,0.6-1.4
		c0.1,0,0.1,0,0.2,0l0,0c0,0,0,0.1-0.1,0.1c0.2,0.2,0.2,0.1,0.2-0.1c0.1,0,0.2,0,0.3,0l0.1,0.3l0,0l-0.1-0.3c0.2,0,0.4,0,0.6,0.1
		c-0.5-1.1,0.5,0.4,0.3-0.5c0.1,0.3,0.3,0.4,0.2,0.6c0.3-0.3,0.7,0.1,0.8-0.3c0,0,0.1,0.1,0.1,0.1c0,0.1,0,0.2,0,0.2
		c0,0,0-0.1,0.1-0.2c0,0,0,0,0.1,0c0,0,0,0,0,0c0.1,0.1,0,0.2-0.1,0.4c0.1,0,0.2-0.1,0.2-0.3c0,0,0.1,0.1,0.2,0.1
		c0,0-0.1-0.1-0.1-0.2c0.1-0.3,0-0.7-0.1-1.1c0.1,0.1,0.2,0,0.3-0.1l0.1,0.6c0.1-0.2,0.1-0.3,0.1-0.5c0.1,0,0.2,0,0.3,0
		c0.1,0.2,0.2,0.4,0.2,0.5c0.2,0,0-0.3-0.1-0.5c0.2,0,0.5-0.1,0.4-0.4c0,0,0,0,0,0c0.1,0.1,0.2-0.1,0.2-0.1c0.1,0,0.2,0,0.3,0
		c0,0.1,0,0.1,0,0.2l0-0.2c0.1,0,0.2,0,0.4-0.1l-0.1-0.1c0-0.8,0.3-0.2,0.5-0.4l0,0.1c0.8,0.4,0.2-0.3,1,0.2l-0.1-0.5
		c-0.1-1,0.7,0.5,1,0l-0.2-0.2c0,0,0,0,0,0l0,0l0,0c0.2-0.1,0.8,1.3,1,1.4c0.1,0.1,0,0.2-0.1,0.2c0.6,0.5,0-0.6,0.3-0.8
		c0.1,0.3,0,0.9,0.3,0.9c0.2,0.3,0.6-1.2,1.1-0.6c-0.1-0.2-0.2-0.5-0.1-0.7c0.3-0.1,0.9,0.9,1,0c0,0.1,0.1,0.1,0.1,0.2
		c0.2-0.2,0.7-0.4,0.7-0.9c0.4,1.6,1.3-0.9,1.4,0.6l0.7-0.1l0,0.2c0.4,0.1,0.6-0.3,0.7-0.7c0.1,0.1,0,0.2,0,0.3
		c0.6,0.2,0.7,0.2,1.1-0.4l0.2,0l0,0.3c0.1-0.3,0.9,0.7,1.5,0.2c0,0.1,0,0.2-0.1,0.2c0.7-0.6,1.6,1.3,1.9-0.5l0.5-0.4
		c-0.6-0.2,0.1-0.8-0.1-1.1c0.2-0.1,0.6,0.6,0.3,0.6l0-0.1c-0.1,0.9,0.7,0.4,0.7,1c0.6,0,1.1,0.1,1.7,0.3c0.6,0.2,1.1,0.4,1.6,0.4
		l-0.1-0.7l0.4,0.1c-0.1,0.1-0.3,0.2-0.2,0.3l0.2,0l0-0.1c0,0,0,0,0-0.1c0,0.2,0,0.5-0.2,0.4c0.1,0.4,0.5-0.3,0.5-0.5
		c0.5,0.3-0.3,0.8-0.1,0.9l0.2,0l0-0.1c0.2-0.3,0.3-0.5,0.5-0.5l0.1,0c0.1,0.2,0,0.4,0.1,0.4c0,0.1,0,0.1,0.1,0l0.5,0.1L55,31.4
		c0.2-0.3,0.4,0,0.3-0.5c0,0,0,0,0,0c0.3,0.8,1.7,0.5,1.8,0.8c0.3-0.3,0.6-0.3,0.9-0.2c0.1,0.3,0.5,0.3,0.5,1c0-0.3,0.1-0.3,0.3-0.3
		c0,0.1,0.1,0.2,0.1,0.3c-0.1-0.3,0.2-0.3,0.4-0.4c0,0.1,0,0.2,0,0.3c0.7-0.3,1.2,0.8,2,0.8c0.1-0.1,0.1-0.3,0.1-0.5
		c0.1,0,0.1,0,0.2,0.1l0,0.7c0.2,0,0.5-0.9,0.5-0.2c0-0.1,0-0.4,0.2-0.4l0,0.2c0,0,0,0,0.1-0.1c0.3,0.3,0.6,0.5,1,0.6
		c0.1,0.1,0.1,0.2,0.1,0.3c-0.6-0.4,0.3,0.5-0.4,0.2l0-0.2c-0.6-0.5-0.5-0.2-1-0.4c0.2,0.1,1,0.5,1.2,0.8l-0.1-0.1l0.1,0.2
		c0,0-0.1,0-0.1,0c-0.1-0.1-0.1-0.1-0.2-0.1c0,0.1,0.1,0.2,0,0.1c-0.1-0.1-0.2-0.2-0.2-0.3c0,0.1,0,0.2,0.1,0.3c0,0,0,0.1,0,0.1
		l-0.5-0.4c0.1,0.2,0.3,0.4,0.5,0.7c-0.1,0.1-0.5-0.3-0.8-0.5c-0.2,0.1,0.7,0.4,0.6,0.7c-0.2,0-0.2,0.1-0.1,0.4c0,0-0.1,0.1-0.1,0.1
		c-0.1-0.1-0.1-0.2-0.2-0.2l0.2,0.3c0,0,0,0,0,0c0,0,0,0,0,0c0,0,0,0,0,0c-0.2,0.2-0.4,0.4-0.7,0.3c1,0.7-0.5-0.2,0.1,0.4
		c-0.2-0.2-0.4-0.2-0.5-0.4c0.1,0.4-0.6,0-0.1,0.6c-0.2-0.2-0.3-0.3-0.4-0.4c0,0.1,0.1,0.2,0,0.1c-0.1-0.1-0.2-0.2-0.2-0.3
		c-0.1,0.2,0.3,0.6,0.8,1c0,0,0,0.1,0.1,0.1c-0.2-0.1-0.4-0.2-0.4-0.2c-0.1,0,0,0.1,0.1,0.3l0,0c-0.1,0-0.2,0.1-0.2,0.2
		c0,0-0.1,0-0.1,0c0,0,0.1,0.1,0.1,0.1c0,0.1,0.1,0.2,0.2,0.3c-0.1-0.1-0.1,0.1-0.1,0.1c0,0-0.1,0-0.1,0.1c0-0.1-0.1-0.1,0-0.2
		c-0.3-0.2-0.2,0,0,0.2c-0.1,0-0.1,0.1-0.2,0.2l0.1,0c0.1,0.1,0.2,0.2,0.2,0.2c0,0.1-0.2,0-0.4-0.1l0,0c-0.1,0.1-0.3,0.2-0.3,0.4
		c0,0-0.1,0-0.3,0l0.3,0.2c0,0.1,0.1,0.2,0.2,0.3c0,0,0,0,0,0c-0.2-0.2-0.6-0.6-0.7-0.7l0.5,0.6c-0.1,0-0.1,0-0.2,0l-0.7-0.7
		C60.1,39,60,39,59.8,39l0.4,0.4c-0.1,0-0.1,0-0.1,0.1l0.3,0.1c0.1,0.1,0,0.1-0.2,0c-0.2-0.2-0.4-0.4-0.5-0.6
		c-0.1,0-0.2-0.1-0.1,0.2c0,0,0.2,0.1,0.3,0.3c-0.4-0.2-0.9-0.5-1-0.5c-0.1,0-0.1-0.1-0.1-0.2c-0.7-0.1,0.5,0.4,0.5,0.7
		c-0.3-0.2-0.6-0.6-0.8-0.5c-0.2-0.1,0.3,0.6,0.2,0.7c-0.1-0.1-0.2-0.1-0.3-0.3c-0.2,0,0,0.2,0.1,0.3c0,0,0,0,0,0c0,0,0.1,0,0.1,0
		c0,0.1,0,0.1-0.1,0.1c0.1,0.2,0.3,0.1,0.4,0.2c0,0,0-0.1,0-0.1c0.1,0.1,0.1,0.1,0.2,0.2c0,0.1-0.5,0-0.6,0c-0.1,0-0.1-0.1-0.2,0
		c-0.3-0.2-0.3-0.4-0.3-0.4l-0.4,0.2c0.5,0.4,0.3,0.7,0.8,1l-0.3-0.8c0.1,0.1,0.2,0.2,0.3,0.3c0.1,0.2,0.1,0.4,0.3,0.7
		c-0.2-0.1-0.4-0.2-0.4-0.2c-0.1-0.1-0.2-0.2-0.2-0.2c0.1,0.1,0.1,0.2,0.1,0.2c0,0,0,0.1,0,0.2c0,0,0,0-0.1,0L58,40.8
		c-0.3-0.1,0.5,0.8-0.1,0.5c-0.1,0-0.8-0.4-0.5-0.2c0.1,0.1,0.2,0.2,0.4,0.3l-0.1,0.3c0,0,0,0,0,0l-0.1-0.1c0,0,0,0,0,0.1
		c0,0,0,0,0,0c0,0,0,0,0,0c-0.1,0.1,0.1,0.4,0.3,0.6c-0.1,0-0.2-0.1-0.3-0.2c-0.4,0.1-0.4,0.2,0.1,0.8l-0.4-0.3
		c0.2,0.2-0.9,0-0.6,0.6c0,0-0.1-0.1-0.2-0.2c0.3,0.6-1.7,0-0.2,1.1l0.2,0.4c0.2-0.2,0.5,0.2,0.8,0.4c0,0,0,0,0,0.1c0,0-0.1,0-0.1,0
		c-0.2,0-0.3-0.1-0.3-0.2l0.1,0c-0.8-0.5-0.5,0.2-1-0.2c-0.3,0.6-1.1,0.8-1.4,1.4l0.7,0.3L55,46.6c-0.2,0-0.5-0.2-0.4-0.3
		c-0.4-0.1,0.2,0.4,0.3,0.5c-0.4,0.1-0.7-0.5-0.8-0.4l0,0.1l0.1,0c0.2,0.2,0.5,0.4,0.4,0.5c-0.2,0-0.4-0.2-0.5-0.1c0,0-0.1,0,0,0.1
		l-0.2,0.2l0.6,0.2c0.2,0.2-0.1,0.2,0.5,0.4c-1-0.3-0.8,0.7-1.1,0.7c0.1,0.1,0.2,0.2,0.2,0.3c-0.2,0-0.4,0-0.7-0.1
		c0.3,0.2,0.3,0.2,0.2,0.3c0.1,0,0.2,0.1,0.3,0.2c-0.1,0-0.1,0-0.2,0.1l-0.2-0.1c0,0.1,0.1,0.1,0.1,0.1c-0.1,0-0.2,0-0.5,0
		c0.6,0.1,0.1,0.4,0.6,0.6c0,0,0,0,0,0l0,0c0,0,0.1,0,0.1,0c0,0,0,0,0,0c-0.2,0-0.4-0.2-0.7-0.2c0.4,0.5-0.6,0.7-0.5,1.1
		c0.2,0.1,0.4,0.1,0.7,0.2c0,0-0.2,0-0.5,0c-0.2,0-0.5,0-0.5,0c0.1,0.1,1,0.3,0.3,0.3c0.1,0,0.4,0,0.4,0.1c-0.5,0.3-0.5,0.8-0.4,1.3
		c0,0.5-0.1,0.9-0.9,1.4c0.3-0.1,0.4,0,0.4,0.1c0.1-0.1,0.4,0,0.7,0c0,0-0.2,0.1-0.3,0.2c-0.2,0.1-0.3,0.2-0.3,0.2
		c0.7,0.1,0,0.4,0.7,0.4L52.7,55c0.7,0.1,1.7-0.3,2.6-0.3c-0.8-0.1,1.3-0.3,0-0.6c0.2,0,0.3,0.1,0.5,0c-0.4-0.1-0.5-0.2-0.3-0.3
		l0.1,0c-0.1-0.4,0.4-0.5,0.7-0.8l-0.5-0.1c0.1-0.1,0.2-0.1,0.4-0.1c-0.7-0.2-0.1,0.2-0.9,0c1,0.1,0.2-0.6,1.2-0.4
		c0-0.1-0.5-0.1-0.5-0.2l0.3,0l-0.4-0.1c0.1-0.1,0.4,0,0.7,0c0,0,0.1,0.1,0.1,0.1c0.4,0,0-0.3,0.1-0.3l-0.2,0.1
		c-0.1-0.4,0.3-0.7-0.1-1.3c0.2-0.2,0.6-0.1,1-0.2l-0.4-0.3c0.1,0,0.2,0.1,0.4,0.1c-0.3-0.3-0.3-0.2-0.4-0.2c0,0,0-0.1-0.1-0.1
		c0.4,0.1,0.3-0.5,1.1,0c0.1-0.1-0.4-0.3-0.3-0.4l0.3,0.2l-0.3-0.3c0.1,0,0.4,0.2,0.6,0.3c0,0,0,0.1,0,0.1c0.3,0.1,0.1-0.4,0.2-0.3
		l-0.2,0c0-0.2,0.1-0.3,0.2-0.4l0.2,0.2l-0.2-0.2c0.1-0.1,0.1-0.1,0.2-0.2c0.2,0.1,0.4,0.1,0.5,0.3c0-0.1-0.2-0.3-0.3-0.4
		c0.1,0.1,0,0.1-0.1,0.1c0,0,0-0.1,0.1-0.1c0,0,0,0,0,0c0,0,0,0,0,0c0-0.1,0.1-0.3,0-0.5l-0.2-0.1c0-0.1,0-0.1,0-0.2
		c0,0,0.1,0,0.1,0c0,0-0.1-0.1-0.1-0.1c0,0,0,0,0,0l0,0c0,0,0,0,0,0c0,0,0.1,0,0.1,0l0.2,0.1l-0.2-0.1c0.1,0,0.2,0,0.2-0.1l0,0l0,0
		c0,0,0,0,0,0c0,0,0,0,0,0l0,0c0,0,0,0,0,0c0,0,0,0,0-0.1c0,0,0,0,0,0C59,47.8,59,47.7,59,47.6c0,0,0.1,0,0.1,0
		c0.2,0.1,0.4,0.1,0.5,0.3c0.2,0.2,0.1,0.5,0.2,0.7c0.4,0.4,0.3-0.1,0.2-0.4c0.6,0.6,1,1.4,1.1,1.9c0,0.3-0.4-0.3-0.4-0.2
		c-0.4,0.2,0.8,1.3,0.1,1.1c-0.5-0.3-0.7-0.8-1-1c0-0.3,0.4,0.1,0.5,0L60,49.9c-0.1-0.2-0.1-0.4,0.1-0.3c-0.4-0.3-0.6,0.4-1.1,0.3
		c0.1,0.2,0.1,0.4,0.3,0.5l0-0.1c0.4,0.3,0.3,0.6,0.5,0.6c0.1,0.3,0.3,0.8,0,0.7l-0.4-0.4c0.1,0.1,0.3,0.2,0.3,0
		c0.1,0.3-0.8-0.4-0.3,0.2l0.4,0.2c0.1,0.3,0.4,0.9,0.2,0.9c0.5,0.4,0-0.1,0.6,0.4c-0.7-0.6,0.3-0.3-0.4-0.8
		c0.6,0.5,0.4,0.2,0.9,0.5l0.1,0.1c0,0,0,0,0,0c0,0,0,0,0,0c0,0,0,0,0,0c0-0.1-0.1-0.2-0.2-0.2c0,0,0,0,0.1,0c0,0-0.1-0.1-0.1-0.2
		l0,0l0,0c0,0,0,0,0,0c-0.1,0-0.2-0.1-0.3-0.2c-0.3-0.4-0.1-0.5-0.2-0.8c0.1,0,0.1,0.2,0.3,0.3l-0.2-0.3c0.3,0.3,0.6,0.4,0.7,0.6
		c0,0,0,0-0.1-0.1l0.1,0.3c0,0-0.1-0.1-0.1-0.1c-0.1-0.1-0.1-0.2-0.2-0.1c0,0,0,0-0.1,0c0,0,0,0,0.1,0.1c0,0,0,0,0,0
		c-0.1,0,0.3,0.4,0.2,0.3c0,0,0,0,0,0c0,0-0.1,0-0.1,0c0,0,0,0,0,0c0,0-0.1,0-0.1,0c0,0,0,0,0,0c0,0,0,0,0,0c0,0,0,0,0,0
		c0,0,0,0,0,0c0.2,0.3,1.2,1.1,1.8,1.4c-0.1-0.1-0.2-0.2-0.3-0.5c-0.2-0.1-0.6-0.1-0.8-0.4c0-0.3,0.2,0,0.4,0.1
		c-0.4-0.2-0.4-0.6-0.8-0.9l0.1-0.1c0.1,0.1,0.2,0.1,0.3,0.1l0.2,0.1l-0.2-0.2c0,0,0-0.1,0-0.1c0.1,0-0.2-0.5,0-0.2l0-0.4l0.1,0.1
		c0,0,0.1-0.1,0.1-0.1c0.1,0.1,0.1,0.1,0.2,0.2l0-0.1c0.4,0.2,0.4,0.5,0.6,0.5c0.2,0.3,0.4,0.7,0.1,0.7L62.3,52
		c0.1,0.1,0.4,0.1,0.2,0c0.2,0.2-0.8-0.3-0.2,0.3l0.4,0.2c0.2,0.3,0.6,0.8,0.3,0.8c0.5,0.3,0-0.1,0.6,0.3c-0.7-0.5,0.3-0.3-0.5-0.8
		c0.7,0.4,0.4,0.1,1.1,0.4C64,53.1,63.8,53,64,52.9c0,0-0.1-0.1-0.1-0.1l0,0l0,0c0,0,0,0,0,0c-0.1,0-0.2-0.1-0.3-0.1
		c-0.3-0.3-0.2-0.5-0.3-0.7c0.1,0,0.2,0.2,0.4,0.3l-0.2-0.3c0.4,0.3,0.7,0.3,0.8,0.6l0.1-0.1c0.3,0.1,0.4,0,0.3-0.2
		c0.1,0-0.3-0.5,0-0.2l-0.1-0.4l0.1,0.1c0.2-0.2-0.3-0.9,0.6-0.7c0-0.1-0.1-0.3,0.1-0.3l0.3,0.2c0-0.2,0.5-0.1,0.2-0.3
		c0.9,0.5,0.5-0.3,0.8-0.4l-0.4-0.3c0.1-0.1,0.1-0.3,0-0.5l-0.4-0.2c-0.2-0.3,0.5-0.1,0.6-0.4c0.1,0.1,0.1,0.1,0,0.1
		c1,0.3-0.3-0.9,0.5-0.7c-0.1-0.1,0-0.1,0.1-0.1c0,0,0,0,0,0c0,0,0,0,0,0c0.1,0,0.2,0,0.2,0.1c-0.1,0-0.2-0.1-0.2-0.1
		c0,0,0-0.1,0-0.3l0.4,0.2c0,0,0,0,0,0c0.2,0-0.2-0.2-0.5-0.3c0-0.1-0.1-0.2-0.2-0.2c0.7,0.4-0.1-0.3,0.6,0.1
		c-0.3-0.3-0.1-0.5-0.8-0.9c0.1,0.1,0.2,0.1,0.1,0.1c0.1,0,0.2,0,0.1-0.2l0.5,0.3l-0.6-0.6c0.4,0.1,0.6,0.2,0.9,0.5
		c-0.5-0.6-0.1-0.3-0.6-0.9l0.3,0.2c0-0.1-0.4-0.5-0.1-0.3c0.4,0.1,0.5-0.1,0.7-0.3c0,0,0,0.1,0.1,0.1c0-0.3,0.4,0,0.3-0.4
		c0,0,0,0,0,0c0.1,0.1,0.1,0.2,0.2,0.3c0-0.1-0.1-0.2,0-0.1c0.1,0.1,0.1,0.2,0.2,0.3c0.1-0.1,0-0.3-0.2-0.5c0,0,0,0,0,0
		c0,0,0,0-0.1,0c0-0.1-0.1-0.1-0.1-0.2c0.2,0,0.3,0.1,0-0.2c0.2,0.1,0.4,0.2,0.6,0.3c-0.1-0.3,0.5-0.1,0-0.6
		c0.2,0.1,0.3,0.2,0.5,0.3c0,0-0.2-0.2,0-0.1c0.2,0.1,0.2,0.1,0.3,0.2c0.1-0.2-0.5-0.5-1-0.9c0,0,0-0.1-0.1-0.1c0,0,0,0,0,0
		c0,0,0,0,0,0c0,0,0,0,0,0c0,0,0-0.1,0-0.1c0,0,0,0,0.1,0c0.1,0.1,0.2,0.1,0.2,0.2c0.1,0,0.6-0.2,0-0.6c0.2,0.1,0.1-0.1,0-0.1
		c0,0,0.1-0.1,0.1-0.1c0.5,0.1-0.1-0.3,0.5-0.1l-0.3-0.4c-0.1-0.1-0.1-0.1-0.1-0.2c0.1,0,0.2,0,0.2-0.1c0.2,0.1,0.5,0.3,0.5,0.1
		l-0.2-0.2c0,0,0,0,0,0c0,0,0,0,0,0l0,0c0.1-0.1,1.1,0.9,1.3,0.9c0.1,0.1,0.1,0.1,0.1,0.2c0.6,0.3-0.4-0.5-0.3-0.8
		c0.2,0.2,0.5,0.7,0.7,0.6c0.2,0.2-0.4-1.1,0.2-0.7c-0.2-0.2-0.3-0.3-0.4-0.5c0.1,0,0.2,0.1,0.2,0c0.1,0,0.1,0,0-0.1
		c0.2,0.1,0.5,0.2,0.3-0.3c0.1,0,0.1,0.1,0.2,0.1c0-0.2,0.1-0.5-0.2-0.9c1.1,1.2,0-1.1,1,0.1l0.2-0.3l0.1,0.1
		c0.2-0.1,0.1-0.4-0.1-0.7c0.1,0,0.2,0.2,0.2,0.2c0.5,0,0.4,0,0.2-0.8l0.3,0.4c-0.1-0.3,0.9,0.3,0.8-0.3c0,0,0.1,0.1,0.1,0.2
		c-0.1-0.7,1.5,0.5,0.5-1l-0.1-0.5c-0.3,0.1-0.4-0.6-0.7-0.8c0-0.2,0.6,0.2,0.5,0.4L74.3,38c0.5,0.8,0.5,0,0.9,0.5
		c0.5-0.4,1.2-0.4,1.7-0.7l-0.5-0.5l0.2-0.1c0.1,0.1,0.4,0.4,0.3,0.5c0.3,0.3,0-0.4-0.1-0.5c0.4,0.1,0.4,0.7,0.5,0.7l0.1-0.1
		l-0.1-0.1c-0.1-0.3-0.3-0.6-0.1-0.6c0.2,0.1,0.3,0.3,0.4,0.3c0,0,0.1,0.1,0.1,0l0.2-0.1l-0.4-0.4c-0.1-0.3,0.2-0.1-0.3-0.6
		c0.7,0.7,1-0.3,1.2-0.1c-0.1-0.4,0-0.5,0.2-0.6c-0.1-0.1-0.5-0.6-0.3-0.6c0.7,1.1,0.6,0.3,1.2,1c-0.5-0.5,0.3-0.4-0.4-1
		c0.2,0,0.3,0.4,0.6,0.6c0-0.5,0.4-0.3,0.7-0.4l0,0l0,0c0.1,0,0.1,0,0.2,0l0.1,0l-0.1,0c0,0,0,0,0.1,0c-0.1-0.1-0.3-0.3-0.4-0.6
		l0.7,0.6c0-0.1-0.2-0.4-0.2-0.5c0,0,0,0,0.1,0c0,0,0.1,0,0.1,0.1c0,0-0.1-0.1-0.1-0.1c0.1,0,0.2,0,0.2,0.1c0.1-0.1,0.4-0.1,0.7-0.1
		c0,0-0.6,0.4-0.6,0.4c0.7,0,0.1,0.3,0.7,0.3L81.7,35c0.8,0.1,1.6-0.4,2.6-0.5c-0.4-0.1-0.1-0.2,0.1-0.4c0.2-0.2,0.4-0.5-0.2-0.5
		c0.2-0.1,0.3,0,0.5-0.1c-0.4,0-0.5-0.1-0.4-0.3l0.1,0c-0.3-0.5,0.1-0.9,0.1-1.6L84,31.8c0-0.1,0-0.1,0.1-0.2
		c0.4-0.3,0.8-0.6,1.3-0.8C84.5,31.1,86.2,29.9,85,30.1z M72.8,14.3c0.2-0.1,0.1,0,0,0.2C72.7,14.5,72.7,14.5,72.8,14.3z M65.4,18.9
		c-0.1,0-0.4,0.1-0.2-0.1C65.6,18.5,65.4,18.7,65.4,18.9z M68.8,21.2c-0.1,0.1-0.1,0,0-0.2C68.8,21.1,68.8,21.1,68.8,21.2z
		 M10.9,38.3C10.9,38.4,10.9,38.4,10.9,38.3C10.9,38.4,10.9,38.4,10.9,38.3C10.9,38.3,10.9,38.3,10.9,38.3z M54.2,47l0.1,0
		C54.5,47.2,54.4,47.1,54.2,47z M77.4,37.2l-0.1-0.1C77.3,37,77.4,37.1,77.4,37.2z M77.6,32.9c-0.1-0.2-0.5-0.7-0.1-0.4
		c0,0,0,0.1,0,0.1l0.2,0.2C77.6,32.8,77.6,32.8,77.6,32.9z M77.4,32.5c-0.1-0.1-0.3-0.2-0.3-0.3c0.1,0,0.2,0,0.3,0
		C77.5,32.3,77.5,32.4,77.4,32.5z M75.1,33.1c0.5,0.5,0.6,0.5,0.8,0.5c0,0.2,0.1,0.6-0.4,0.1c0,0,0.1,0,0.1-0.1
		C75.4,33.6,74.9,33.2,75.1,33.1z M62.5,50.8C62.5,50.8,62.5,50.8,62.5,50.8C62.5,50.8,62.5,50.8,62.5,50.8z M61.3,45.9l-0.1-0.2
		L61.3,45.9c0-0.2-0.2-0.3-0.1-0.4l0.2,0.2C61.4,45.9,61.4,46,61.3,45.9z M60.3,46.1c0-0.1-0.1-0.1-0.1-0.2c0.1,0,0.1,0.1,0.1,0.1
		L60.3,46.1z M73.9,22.8C73.9,22.8,74,22.8,73.9,22.8L73.9,22.8c0,0,0-0.1,0.1-0.1l0,0c0.1,0,0.1,0,0.1,0.1
		C74.1,22.8,74,22.8,73.9,22.8C73.9,22.8,73.9,22.8,73.9,22.8z M72.9,22.7l0.4-0.4l-0.8,0.4c0,0,0-0.1,0.1-0.1
		c0.1-0.1,0.3-0.2,0.2-0.1c0.1-0.1,0.1-0.1,0.1-0.2c0.2,0.1,0.4-0.1,0.6-0.3c0,0.1-0.1,0.2-0.2,0.3c0,0,0,0,0,0.1c0,0-0.1,0-0.1,0.1
		c-0.1,0.3-0.3,0.3-0.1,0.4c0,0-0.1,0.1-0.1,0.1c0,0-0.1,0-0.1,0.1c0,0,0,0,0,0c0.1-0.1,0.1-0.1,0.1-0.1
		C73.1,22.7,73.1,22.6,72.9,22.7z M72.2,21.1C72.2,21.1,72.2,21.1,72.2,21.1c0.1,0,0.2-0.1,0.3-0.2c-0.1,0.2-0.2,0.3-0.2,0.4
		C72.2,21.2,72.2,21.2,72.2,21.1z M59.1,11.2C59.1,11.2,59.1,11.2,59.1,11.2L59.1,11.2C59.1,11.2,59.1,11.2,59.1,11.2
		C59.1,11.2,59.1,11.2,59.1,11.2z M57.7,5.7c0,0.1,0,0.1-0.1,0.2C57.6,5.9,57.6,5.8,57.7,5.7z M57.9,6c0,0,0,0.1,0.1,0.1
		c-0.1,0.1-0.2,0.2-0.3,0.2L57.9,6z M69,12.7c0,0.1-0.1,0.1-0.1,0.2c0,0-0.1,0-0.1,0C68.9,12.9,69,12.8,69,12.7L69,12.7z M79.4,29.8
		c0-0.1,0.1-0.2,0.2-0.3c-0.2,0.3-0.4,0.3-0.7,0.5c-0.1-0.1-0.2-0.2-0.3-0.3l0,0l0,0c-0.2-0.2-0.4-0.5-0.6-0.8
		c0.1-0.1,0.2-0.1,0.3-0.2c0,0,0.1,0,0.2-0.1c0,0.2,0.1,0.3,0.2,0.4c0,0.2-0.1,0.4,0.1,0.2c0,0,0,0.1,0,0.1c0.5-0.1,0.5,0.1,0.6,0.3
		c0.1-0.1,0.4-0.3,0.5-0.3c0,0,0,0.1,0,0.1C79.6,29.5,79.5,29.7,79.4,29.8z M72.1,32.3c0.7,0.8,0.6,0.1,0.7,0.4
		c0.3,0.2,0.5,0.6,0.3,0.6c-0.1,0.1-1.1-0.7-1.3-0.5c0,0,0-0.1,0-0.1c-0.3-0.1,0.1,0.4-0.3,0.2c0.4,0.5-0.1,0.1,0.5,0.6l0-0.3
		c0.1,0.2,0.7,0.9,0.2,0.8c-0.1-0.1-0.2-0.3-0.3-0.4c-0.2-0.1,0,0.2-0.2,0.1c-0.6-0.5,0.1-0.3-0.3-0.9c-0.3-0.2,0.3,0.6-0.4,0
		c0.8,0.8-0.3,0.1,0.2,0.8L71,33.4c0,0.1,0.2,0.3,0.1,0.3l-0.4-0.5c0.3,0.4-0.5,0-0.4,0.2c0.2-0.3,0.5,0.3,0.8,0.4
		c0.1,0.4-0.2,0.2-0.5,0c0,0,0,0,0,0c-0.1-0.1-0.3-0.3-0.5-0.6c0.1-0.1,0.1-0.1,0.2-0.2c0,0,0,0,0.1,0.1c0,0,0,0,0-0.1
		c0,0,0.1,0,0.1,0c0,0,0.1,0.1,0.1,0c0,0,0,0,0,0c0.3-0.1,0.7-0.2,1-0.4L71,32.2l0.2-0.1c0.1,0.1,0.4,0.4,0.3,0.4
		c0.3,0.3-0.1-0.4-0.2-0.5c0,0,0,0,0.1,0c0,0.1,0.1,0.1,0.1,0.2c0-0.1-0.1-0.1-0.1-0.2c0.3,0.2,0.4,0.6,0.4,0.6l0-0.1l-0.1,0
		c-0.1-0.3-0.3-0.5-0.2-0.6c0,0,0,0,0.1,0c0,0.1,0.1,0.1,0.1,0.1c0,0,0,0,0,0c0.1,0.1,0.2,0.2,0.2,0.2c0,0,0.1,0,0.1,0l0.2-0.1
		l-0.4-0.4c-0.1-0.3,0.2-0.1-0.3-0.5c0.1,0.1,0.3,0.2,0.4,0.2l0.1,0.2l0-0.1c0.4,0.1,0.5-0.4,0.7-0.3c-0.2-0.4-0.1-0.5,0.1-0.6
		c-0.1-0.1-0.5-0.6-0.4-0.6c0.8,1.1,0.6,0.3,1.2,1c-0.5-0.4,0.2-0.4-0.5-1c0.2,0,0.3,0.4,0.6,0.6c0-0.3,0.1-0.3,0.3-0.3
		c-0.1,0.2-0.2,0.3-0.1,0.6l0.2,0.1c0.1,0.5-0.3,0-0.4,0.4l0,0c0.1,0.2,0.1,0.3,0.1,0.4c-0.1-0.2-0.5-0.2-0.6-0.5
		c0.1,0.5,0.1,0.4,0.6,1.1l-0.3-0.2c0.2,0.3,0.3,0.4,0.3,0.6c-0.1-0.3-0.5-0.3-0.7-0.7C72,31.7,73.1,33,72.1,32.3z M71.8,36.3
		C71.8,36.3,71.8,36.3,71.8,36.3c0-0.1,0.1-0.1,0.1-0.1l0,0.2C71.9,36.4,71.9,36.4,71.8,36.3z M68.2,36.8l-0.7-0.3
		c0,0.2,0.8,0.3,0.9,0.7c0.1,0.3-0.5-0.3-0.7-0.3c0.2,0.3,0.8,0.8,0.2,0.7c-0.1-0.1,0-0.1,0-0.2l-0.4-0.1c-0.2-0.2-0.3-0.3-0.3-0.4
		c0,0,0,0,0,0c0.1,0,0.1,0,0.2,0.1c-0.1-0.1-0.1-0.1-0.2-0.2c0-0.1,0-0.2-0.1-0.2c0,0,0.1,0,0.1,0c0,0,0,0,0,0c0,0,0,0,0,0l-0.1,0.1
		l0.1-0.1c0.1,0.1,0.1,0,0.1-0.1l0.2-0.1c0,0,0,0,0,0c0.1,0,0.1,0,0-0.1l0.1,0c-0.1,0-0.2,0-0.1-0.1l-0.1,0.1c0,0,0,0,0,0
		c0,0,0-0.1,0-0.1c0.1,0,0.2-0.1,0.2-0.3c0.1,0,0.1,0.1,0.2,0.2l0.1-0.1c0.1,0.1,0.1,0.2,0.1,0.2l0.2-0.1c0.1,0,0.1,0.1,0.2,0.1
		l-0.1-0.1l0.1-0.1c-0.1-0.1-0.1-0.1-0.2-0.1c0,0,0-0.1,0-0.2l0.3,0.3c-0.3-0.4-0.3-0.4-0.1-0.4l-0.4-0.3c0,0,0,0,0,0c0,0,0,0,0,0
		c0.1,0.1,0.1,0.1,0.2,0.2c0,0,0.1,0,0.1,0c0.1,0.1,0.1,0.1,0.1,0.2c0,0,0,0,0,0c0,0,0,0,0,0l0,0c0.1,0.2,0.3,0.6,0.1,0.6
		c0.1,0.1,0.1,0.1,0.1,0.2C68.4,36.4,67.9,36.3,68.2,36.8z M65.4,42.3c-0.1,0-0.2-0.2-0.3-0.3l0.1,0.5c-0.8-0.6,0.3-0.4-0.8-1.2
		l0.3,0.1c0,0,0,0.1,0,0.1c0.6,0.2-0.7-0.7-0.5-0.7c0.1,0,0.3,0.1,0.4,0.2l-0.2-0.3c0.1,0,0.2,0.1,0.2,0.1l0.1-0.3l0,0
		c-0.1-0.1-0.2-0.2-0.3-0.3c0.1,0,0.2,0,0.1-0.2c0.2,0.2,0.3,0.3,0.3,0.4c1.2,0.6-0.2-0.3,0.6-0.1l0.1,0.2c0.5,0.3,0.5,0.2,0.7,0.2
		c0.1,0.1,0.3,0.2,0.5,0.4c-0.1,0-0.1,0,0,0.2c0,0,0,0,0,0c-0.1-0.1-0.2-0.3-0.4-0.5c0.1,0.2,0.1,0.3,0.1,0.4c-0.1,0-0.2,0,0,0.2
		c-0.2-0.1-0.3-0.2-0.5-0.3c0.2,0.4,0.2,0.4,0.4,0.6l0,0c0.1,0,0.1,0.1,0.1,0.1c0.1,0.1,0.1,0.1,0.2,0.2l-0.2,0c0,0,0,0,0-0.1
		c0,0,0,0,0,0.1l-0.1,0c0,0,0-0.1-0.1-0.1c0,0,0,0,0,0.1l-0.1,0c0,0,0.1,0,0.1,0c0,0,0,0.1,0.1,0.1l-0.5-0.5l0.2,0.2l-0.5-0.1
		c0.1,0.1,0.1,0.3,0.2,0.4L65.4,42.3C65.3,42.3,65.3,42.3,65.4,42.3z M65.5,43.1c-0.1-0.1-0.2-0.2-0.3-0.3c0.1,0.1,0.1,0.1,0.2,0.1
		L65.5,43.1C65.5,43.1,65.5,43.1,65.5,43.1z M64.4,44.5c-0.1-0.1-0.3-0.4-0.5-0.7c0.1-0.1-0.5-0.7-0.1-0.7c-0.1-0.1-0.1-0.1-0.1-0.2
		c0.2-0.1,0.7,0,0.3-0.5l0.7,0.3c0-0.2-0.8-0.3-0.9-0.7c0,0,0,0,0-0.1c0-0.1,0.6,0.3,0.7,0.4c-0.2-0.3-0.8-0.8-0.2-0.6
		c0.1,0.1,0,0.1,0,0.2l0.4,0.1c0.2,0.2,0.3,0.3,0.3,0.4c-0.1,0-0.1,0-0.2-0.1c0.2,0.2,0.3,0.3,0.3,0.4c-0.1,0-0.5-0.2,0,0.1
		c0,0-0.1,0-0.2,0c0.1,0,0.2,0.1,0.2,0.1c0,0.1-0.1,0.1-0.1,0.2c0,0-0.1,0-0.1,0c-0.2-0.2-0.3-0.4-0.1-0.4c-0.6-0.4,0.6,1,0,0.7
		c0,0,0.1,0,0-0.1c0.1,0.3-0.2,0.3-0.4,0l0,0C64.2,43.4,63.9,43.8,64.4,44.5z M63.4,43.8l0.7,0.7c-0.1,0-0.2,0-0.1,0.2
		C63.6,44.3,63.4,44,63.4,43.8C63.3,43.8,63.3,43.8,63.4,43.8l-0.1-0.2c0.1,0,0.1,0.1,0.2,0.1C63.5,43.8,63.4,43.8,63.4,43.8z
		 M63.5,47c-0.3-0.2-0.6-0.5-0.7-0.5c0.1,0.1,0.2,0.2,0.2,0.3c-0.2-0.3-0.3-0.5-0.5-0.8c0.2,0.2,0.2,0.4,0.6,0.7l-0.4-0.7
		c0,0,0.1,0.1,0.1,0.1C63,46.3,63.3,46.7,63.5,47z M62,45.7c-0.1,0.1-0.3,0-0.5-0.1l-0.1-0.3c0.1,0,0.2,0.1,0.3,0.1
		C61.8,45.5,61.9,45.6,62,45.7z M70.9,29l-0.2-0.2c0,0,0-0.1,0.1-0.1C70.8,28.8,70.9,28.9,70.9,29z M70.9,29.4c0-0.1,0-0.1-0.1-0.1
		c0-0.1,0-0.2,0-0.3C70.8,29.1,70.9,29.3,70.9,29.4z M73.7,26.5c0,0,0.1,0.1,0.1,0.2C73.8,26.7,73.7,26.6,73.7,26.5
		C73.7,26.6,73.7,26.6,73.7,26.5z M74.1,22.5c-0.2,0.1-0.4,0-0.6,0.1c0,0,0.1-0.1,0.1-0.1c0.1,0,0.3-0.1,0.7-0.3L74.1,22.5z
		 M62.7,9.6c0.1,0,0.1,0,0.1,0.2C62.7,9.7,62.7,9.7,62.7,9.6z M61.9,9.1L61.9,9.1C61.8,9.1,61.9,9,61.9,9.1C61.9,9,61.9,9,61.9,9.1z
		 M61.7,9.3l0.2-0.2c-0.1,0.1-0.1,0.2-0.2,0.4C61.6,9.4,61.6,9.3,61.7,9.3z M59.3,8.1L59.3,8.1C59.2,8,59.3,8,59.3,8.1
		C59.4,8,59.4,8,59.3,8.1C59.3,8,59.3,8,59.3,8.1z M59.3,8C59.2,8,59.2,8,59.1,8C59.2,8,59.2,8,59.3,8C59.2,8,59.3,8,59.3,8z
		 M78.5,28c0,0,0.1-0.1,0.1-0.1C78.6,28,78.6,28,78.5,28C78.5,28,78.5,28,78.5,28z M78.6,29L78.6,29C78.6,29,78.6,29,78.6,29
		C78.6,29,78.6,29,78.6,29z M80.4,27c-0.1,0.1-0.2,0.1-0.2,0.2c0,0,0,0,0,0c0,0,0-0.1,0.1-0.2C80.3,26.9,80.3,26.9,80.4,27z
		 M63.5,11.6C63.5,11.6,63.5,11.6,63.5,11.6C63.5,11.6,63.5,11.6,63.5,11.6L63.5,11.6z M63.2,12C63.2,12.1,63.2,12.1,63.2,12
		l-0.3,0.4C62.9,12.3,63.1,12,63.2,12z M62.9,12.4l0.4-0.3c0.1,0,0.2-0.1,0.4-0.3c0,0.1,0,0.1,0,0.2l-0.3,0.2l0.1,0
		c-0.2,0.1-0.4,0.3-0.5,0.4C62.8,12.6,62.8,12.5,62.9,12.4z M68.5,17.4c0,0,0-0.1,0.1-0.1c0.1,0,0.1,0,0.2,0c0,0,0,0.1-0.1,0.1
		L68.5,17.4z M65.2,10.6c0,0,0,0.1-0.1,0.1C65.1,10.7,65.1,10.7,65.2,10.6C65.1,10.6,65.2,10.6,65.2,10.6z M63.9,11.8l-0.2,0
		C63.8,11.7,63.9,11.6,63.9,11.8C63.9,11.7,63.9,11.7,63.9,11.8z M70,34.6C69.9,34.6,69.9,34.5,70,34.6C69.9,34.5,69.9,34.5,70,34.6
		L70,34.6z M69.4,34.9c-0.3-0.1-0.2,0.2-0.2,0.2c0,0,0.1,0,0.1,0l0.4,0.6c-0.2-0.1-0.3-0.2-0.4-0.3c0,0.1,0.2,0.2,0.2,0.3
		c-0.3-0.2-0.6-0.5-0.7-0.7l0.2,0.5c-0.1-0.1-0.3-0.1-0.4-0.2c0,0,0-0.1,0-0.1c0,0,0,0-0.1-0.1c0,0,0-0.1,0-0.3
		c0.1,0,0.1,0.1,0.3,0.1c-0.1,0-0.2-0.1-0.3-0.3c0-0.1-0.1-0.2-0.1-0.3c0,0,0,0,0,0c0.2,0.2,0.5,0.5,0.5,0.5l-0.2-0.2
		c0-0.1,0.1-0.1,0.2-0.1c0.1,0.1,0.2,0.2,0.3,0.2c-0.2-0.1,0.1-0.1,0.1-0.2c0.1,0,0.1-0.1,0.1-0.3c0,0,0.1,0.1,0.1,0.1
		C69.3,34.8,69.3,34.8,69.4,34.9z M67.7,37.9l-0.3-0.1c0,0,0-0.1,0-0.1c-0.6-0.2,0.8,0.6,0.5,0.7c-0.1,0-0.3,0-0.4-0.2l0.1,0.2
		c-0.2-0.1-0.2,0-0.6-0.2c0.1,0.1,0.3,0.2,0.4,0.3l0,0.2l0,0c0.2,0.1,0.4,0.4,0.5,0.5c-0.2,0-0.1-0.1-0.3-0.2l0.2,0.2c0,0,0,0,0,0
		c-0.3-0.1-0.5-0.4-0.4-0.4c-1.2-0.6,0.2,0.3-0.6,0.1l-0.1-0.2c-0.5-0.2-0.6-0.2-0.7-0.2c-0.2-0.1-0.4-0.3-0.4-0.5
		c-0.5-0.4,1,0.4,0.5-0.2c0.2,0.1,0.3,0.3,0.5,0.4c-0.3-0.5-0.2-0.4-0.6-0.9c0.4,0.2,0.8,0.5,0.9,0.5c0.1,0,0.1,0.1,0.1,0.2
		c0.6,0.2-0.4-0.4-0.4-0.7c0.3,0.2,0.6,0.6,0.7,0.6c0.1,0,0.1,0,0-0.1l0.4,0.2L67.1,38c-0.1-0.1-0.2-0.4-0.2-0.5l0,0c0,0,0,0,0-0.1
		c0-0.1,0.1-0.1,0.2,0c-0.2-0.1-0.4-0.3-0.5-0.5c0,0,0.1,0,0.2,0c0,0,0,0.1,0,0.1c0.1,0,0.3,0.2,0.4,0.3L67,37c0.1,0,0.1,0,0.2,0
		C67.5,37.4,66.8,37.3,67.7,37.9z M66.3,42.2C66.3,42.1,66.2,42.1,66.3,42.2C66.2,42.1,66.2,42.1,66.3,42.2
		C66.3,42.1,66.3,42.2,66.3,42.2z M66.4,42.1c0.1,0.1,0.3,0.2,0.4,0.3c0.1,0.1,0.1,0.2,0.1,0.3c-0.1-0.1-0.2-0.1-0.3-0.2
		C66.5,42.4,66.4,42.3,66.4,42.1z M66.6,39.8c-0.1,0.1-0.6-0.2-0.9-0.3c0,0,0,0,0-0.1c0.2,0,0.2-0.2,0-0.4l0.1,0.1
		c0.1,0.1,0.2,0.1,0.2,0c0,0,0,0,0.1,0l-0.3-0.3c0,0,0.1,0,0.1,0c0,0,0.1,0,0.1,0.1c0,0,0,0,0,0c0.3,0.1,0.6,0.2,0.8,0.3
		c0,0,0.1,0.1,0.2,0.2c-0.1,0-0.1,0.1,0.1,0.2c-0.4-0.3-0.4-0.1-0.4,0L66,39.3C66.1,39.5,66.4,39.6,66.6,39.8z M66.4,40.8
		c0,0-0.1,0-0.1-0.1C66.3,40.7,66.3,40.7,66.4,40.8L66.4,40.8z M66.3,40.7c-0.4-0.1-1-0.4-1.2-0.7c0.1,0,0.2,0,0-0.2
		c0.4,0.3,0.3,0.1,0.4,0l0.5,0.4c-0.1-0.2-0.4-0.4-0.6-0.6c0.1-0.1,0.5,0.2,0.9,0.4c0,0,0,0,0,0c0,0,0,0,0,0.1
		c-0.3,0-0.1,0.3,0.1,0.6c-0.3,0-0.3-0.2-0.5-0.3L66.3,40.7z M63.1,44c0.1,0,0.8,0.7,0.8,0.8c-0.6-0.5-0.4-0.3-0.9-0.6
		c0-0.1,0-0.1,0-0.2c0,0-0.1,0-0.1,0l-0.4-0.6c0.2,0.1,0.3,0.2,0.4,0.3c0-0.1-0.2-0.2-0.2-0.3c0,0,0,0,0,0c0.2,0.1,0.3,0.2,0.5,0.4
		C63.1,43.8,63.1,43.8,63.1,44z M63.7,45.2c-0.1-0.1-0.6-0.7-0.8-0.9c0.1,0,0.1,0,0.1-0.1C63.3,44.4,63.8,45.1,63.7,45.2z
		 M62.6,44.3c0.1,0.1,0,0.1-0.1,0.2c-0.2-0.2-0.1-0.3,0.1-0.3c-0.3-0.1-0.6-0.4-0.6-0.5c0,0,0,0,0-0.1c0.2,0.1,0.3,0.3,0.4,0.1
		c0.2,0.2,0.5,0.5,0.1,0.3c0.1,0.1,0.2,0.2,0.4,0.3c0.1,0,0.1,0,0.1,0l0.5,1C63.4,45,62.8,44.5,62.6,44.3z M61.9,44.9
		c0,0,0,0,0.2,0.1C61.9,45,61.9,44.9,61.9,44.9C61.8,44.9,61.8,44.9,61.9,44.9z M70.2,33.9c0-0.1,0-0.1-0.1-0.2
		c0.1,0,0.3,0.1,0.4,0.2C70.4,34,70.3,34,70.2,33.9z M70,33.8l0.1,0.1C70,33.9,70,33.9,70,33.8c-0.1,0.1-0.1,0.2-0.1,0.2
		C69.9,33.8,69.9,33.6,70,33.8L70,33.8C70,33.8,70,33.8,70,33.8C70,33.8,70,33.8,70,33.8z M69.2,33.1c0.1,0.1,0.1,0.1,0.2,0.2
		c-0.1,0-0.2-0.1-0.3-0.2C69.1,33.1,69.2,33.1,69.2,33.1z M69.6,33.6l0,0.3c0,0,0,0-0.1-0.1l-0.1-0.4C69.5,33.5,69.6,33.5,69.6,33.6
		z M61.6,44.1l0.2,0c0,0,0.1,0.1,0.1,0.1c-0.1,0-0.1,0-0.1,0C61.6,44.2,61.6,44.1,61.6,44.1z M65.1,40c0.1,0.1,0.3,0.3,0,0.2
		C64.7,39.9,64.9,40,65.1,40z M65.6,38.8c0.2,0,0.3,0.2,0.4,0.3L65.7,39C65.7,38.9,65.7,38.9,65.6,38.8z M65.9,39.7
		c0.2,0.1,0.4,0.2,0.5,0.3C66.4,39.9,66.1,39.8,65.9,39.7z M66.9,39.3C66.8,39.2,66.8,39.1,66.9,39.3c0.5,0.2,0.3,0.1,0.1,0.1
		C67,39.3,66.9,39.3,66.9,39.3z M67,36.2c0.1,0.1,0.2,0.2,0.2,0.3c0,0-0.1-0.1-0.1-0.1C67.1,36.3,67.1,36.3,67,36.2z M66.9,36
		c0.2,0.1,0.3,0.2,0.4,0.3c0,0,0.1,0,0.1,0.1l-0.1,0.2C67.2,36.3,67,36.1,66.9,36z M69.8,34c0,0-0.1-0.1-0.1-0.1l0-0.2
		c0.1,0.1,0.2,0.2,0.2,0.3c0,0,0,0,0,0c0,0,0,0,0,0c0,0,0,0,0,0c0.1,0.1,0.4,0.2,0.5,0.3c-0.5-0.3,0.1,0.3,0.2,0.5l-0.4-0.3
		c-0.1,0-0.1,0.1-0.1,0.1c-0.2-0.3-0.2-0.5-0.5-0.8L69.8,34z M70.1,33.7c-0.1-0.2-0.1-0.3,0.2-0.1c0,0,0.1,0.1,0.2,0.2
		C70.3,33.7,70.2,33.6,70.1,33.7z M67.5,29.9C67.5,29.9,67.5,29.9,67.5,29.9c-0.1,0-0.1,0-0.2-0.1C67.4,29.8,67.5,29.8,67.5,29.9
		C67.5,29.9,67.5,29.9,67.5,29.9z M61.1,45.4c-0.1-0.1,0-0.2,0-0.2c0.1,0,0.1,0,0.1,0c0,0.1,0.1,0.2,0.1,0.3
		C61.3,45.4,61.2,45.4,61.1,45.4z M62.1,45.4c0-0.1-0.1-0.1-0.1-0.2c0.1,0,0.2,0,0.3,0.1c0.1,0.1,0.1,0.2,0.2,0.3l-0.2,0.1
		C62.2,45.6,62.2,45.6,62.1,45.4c0.1,0.1,0.2,0.1,0.2,0C62.3,45.5,62.2,45.5,62.1,45.4z M62.5,45.6c0.1,0.1,0.1,0.1,0.2,0.2
		C62.6,45.7,62.5,45.6,62.5,45.6z M63.2,46c-0.1,0-0.2-0.1-0.3-0.1c-0.2-0.2-0.4-0.5-0.6-0.6c0-0.1-0.1-0.1-0.3-0.2c0,0,0-0.1,0-0.2
		c0,0.1-0.1,0-0.1,0c0-0.1-0.4-0.4-0.4-0.5l0.3,0.2c0,0,0,0-0.1,0c0.1,0.2,0.3,0.1,0.4,0.3c0-0.1,0-0.1,0-0.2c0.1,0,0.1,0.1,0.2,0.1
		c-0.1-0.1-0.2-0.2-0.3-0.2c0,0-0.1-0.1-0.2-0.2c0,0,0-0.1,0-0.1l0.2,0.2l-0.1-0.2l0.4,0.3c0,0,0,0,0,0.1l0.3,0.1
		c-0.1,0,0,0.2,0.1,0.5c-0.1,0,0,0.1,0.1,0.2c0,0.1,0.1,0.1,0.1,0.2c0,0,0,0,0,0c0,0,0,0,0,0C63.1,45.7,63.2,45.8,63.2,46
		C63.2,46,63.2,46,63.2,46z M64.7,45.2c-0.2-0.1-0.2-0.1-0.3-0.1c-0.1-0.1-0.2-0.2-0.3-0.3c0.1,0,0.3,0.1,0.5,0.3L64.7,45.2z
		 M65.2,42.6L65.2,42.6L65.2,42.6C65.2,42.6,65.1,42.6,65.2,42.6C65.1,42.6,65.1,42.6,65.2,42.6z M65.1,42.9
		C65.1,42.9,65.1,42.9,65.1,42.9C65.1,42.9,65.1,42.9,65.1,42.9C65.1,42.9,65.1,42.9,65.1,42.9z M66.9,42.8
		C66.8,42.8,66.8,42.8,66.9,42.8C66.9,42.8,66.9,42.8,66.9,42.8c0.1,0,0.1,0.1,0.1,0.1C67,42.9,66.9,42.9,66.9,42.8z M69.8,35.5
		c-0.2-0.2-0.5-0.5-0.1-0.3c0,0,0,0-0.1,0c0.2,0-0.4-0.5-0.1-0.4c-0.1-0.2-0.2-0.1-0.3-0.2c0-0.2,0.1-0.2,0.3-0.1
		c0.1,0.1,0.1,0.1,0.2,0.1c0.1,0.1,0.2,0.2,0.2,0.3l-0.3-0.2C70,35,69.8,35,69.6,35c0.3,0.2,0.7,0.5,0.6,0.6
		C70,35.6,69.9,35.3,69.8,35.5z M70.2,34.7c0.2,0.2,0.7,0.5,0.3,0.5l-0.3-0.3l0.1,0C70.3,34.8,70.3,34.8,70.2,34.7z M71.8,32.1
		L71.7,32C71.7,31.9,71.8,32,71.8,32.1z M75.6,28.9L75.6,28.9C75.6,28.9,75.6,29,75.6,28.9C75.6,29,75.6,28.9,75.6,28.9z M75.7,29
		l0.2,0.2c-0.1,0-0.2-0.1-0.3-0.1C75.6,29.1,75.6,29,75.7,29z M76.4,28.8C76.4,28.8,76.4,28.8,76.4,28.8L76.4,28.8
		C76.4,28.8,76.3,28.8,76.4,28.8c-0.1-0.1-0.2-0.3-0.2-0.5c0,0,0.1,0.1,0.2,0.3c0.1,0.1,0.1,0.1,0.2,0.2
		C76.5,28.8,76.4,28.8,76.4,28.8z M77.6,28.1l0.1-0.1C77.9,28,77.8,28.1,77.6,28.1z M80.1,23.7C80.1,23.7,80.1,23.7,80.1,23.7
		C80.1,23.7,80.1,23.7,80.1,23.7L80.1,23.7z M79.8,23.2C79.8,23.2,79.8,23.2,79.8,23.2C79.9,23,79.9,23.1,79.8,23.2z M68.6,12.4
		C68.6,12.4,68.6,12.4,68.6,12.4C68.6,12.4,68.7,12.4,68.6,12.4C68.7,12.4,68.7,12.4,68.6,12.4z M62,8.8C62,8.8,62,8.9,62,8.8
		c-0.2,0.2-0.4,0.4-0.5,0.2c0,0,0-0.1,0-0.1C61.6,8.8,61.9,8.7,62,8.8z M61,4.9L61,4.9L61,4.9C61,4.9,61,4.9,61,4.9z M61,8.4
		l-0.2,0.3c0.3-0.2,0.4-0.3,0.6-0.2l0,0c-0.2,0.1-0.3,0.3-0.4,0.4c-0.1,0-0.1,0-0.2,0.2c0,0,0,0,0,0c0.1-0.2,0.1-0.4,0-0.5
		C60.7,8.5,60.8,8.4,61,8.4z M59.6,7.8c0.3,0,0.3,0.1,0.2,0.2c-0.2,0.1-0.3,0-0.4-0.1L59.6,7.8z M69.7,18.6
		C69.7,18.6,69.7,18.6,69.7,18.6C69.7,18.5,69.7,18.6,69.7,18.6L69.7,18.6z M70.4,18.7c0,0,0,0.1,0,0.1c0,0-0.1-0.1-0.1-0.1
		C70.3,18.8,70.4,18.8,70.4,18.7z M73,22.1L73,22.1C73,22.1,73,22.1,73,22.1C73,22.1,73,22.1,73,22.1L73,22.1z M74.1,22.9
		C74.1,22.9,74.1,22.9,74.1,22.9C74.2,23,74.2,23,74.1,22.9c0.1,0.1,0.1,0.1,0.1,0.1l-0.2,0.1C74,23,74.1,23,74.1,22.9z M74.9,26
		C74.9,26,74.9,26,74.9,26c-0.1,0-0.1-0.1-0.1-0.1l0.1-0.1C74.9,25.8,74.9,25.9,74.9,26z M74.6,26l0.1-0.1C74.8,26,74.7,26,74.6,26z
		 M70.4,29.6C70.4,29.6,70.4,29.6,70.4,29.6c0.1,0.1,0.1,0.2,0,0.2c0,0,0,0,0,0C70.4,29.8,70.4,29.7,70.4,29.6z M67.6,29.8
		C67.6,29.8,67.6,29.8,67.6,29.8c-0.1,0-0.2,0-0.3,0c-0.1-0.1-0.1-0.2,0.1-0.2L67.6,29.8z M59.6,46.7C59.6,46.7,59.6,46.6,59.6,46.7
		L59.6,46.7c0.1-0.1,0.1-0.1,0.2-0.1C59.7,46.6,59.7,46.8,59.6,46.7z M60.8,45.9C60.8,45.9,60.8,45.9,60.8,45.9
		C60.8,45.9,60.7,45.9,60.8,45.9C60.7,45.9,60.8,45.9,60.8,45.9z M60.9,45.6l0.1,0.1c0,0.2,0.4,0.7-0.1,0.4c0,0,0,0,0,0
		C60.8,45.8,61.4,46.1,60.9,45.6z M61.5,45.8c0-0.1,0.4,0.1,0.5,0c0.2,0.4,0.4,0.8,0.2,0.8C62.1,46.5,61.8,46.1,61.5,45.8z
		 M64.2,48.6C64.2,48.6,64.2,48.6,64.2,48.6C64.2,48.6,64.2,48.6,64.2,48.6C64.2,48.7,64.2,48.6,64.2,48.6z M63.8,48.1
		c-0.1-0.1-0.1-0.2-0.2-0.3c0,0,0.1,0.1,0.1,0.1L63.8,48.1z M64.2,44.6L64.2,44.6L64.2,44.6L64.2,44.6l-0.7-0.9
		c0.1,0,0.2,0.1,0.3,0.1c0,0,0,0,0,0l0.3,0.4l-0.2-0.1c0.1,0.1,0.2,0.2,0.2,0.2l0.1,0.1C64.2,44.5,64.2,44.5,64.2,44.6l0.1,0
		l0.1,0.2C64.3,44.7,64.2,44.6,64.2,44.6z M65.6,43.3C65.6,43.2,65.6,43.2,65.6,43.3c0.3,0-0.3-0.5-0.1-0.6c0,0-0.1,0-0.1,0
		c0-0.1-0.1-0.3,0-0.3c0.1,0.1,0.3,0.3,0.4,0.4c0.1,0.3,0.2,0.5,0.3,0.7C66,43.4,65.8,43.4,65.6,43.3z M74.4,34.4c0,0,0.1,0,0.1,0.1
		c0,0,0,0,0,0C74.5,34.5,74.4,34.5,74.4,34.4z M74.3,29.9c-0.1-0.1-0.1-0.2-0.2-0.3L74.3,29.9C74.4,29.9,74.3,29.9,74.3,29.9z
		 M74.5,29.5C74.5,29.5,74.5,29.4,74.5,29.5c0.2,0,0.3,0,0.4,0c0.1,0.1,0.3,0.2,0.2,0.3l-0.2-0.2l0.2,0.3
		C75,29.9,74.7,29.6,74.5,29.5z M75,29.4c0.1-0.1,0.2-0.2,0.3-0.3c0,0,0,0,0,0.1c0,0,0.1-0.1,0.2-0.1c0.3,0.5,0.2-0.2,0.6,0.5
		C75.5,29,75.6,29.8,75,29.4z M76.6,28.8c-0.1-0.4,0.2-0.1,0.1-0.6l0,0.1c0-0.1-0.1-0.2-0.1-0.3c0.1,0,0.1-0.1,0.2-0.2l-0.2,0
		c0,0,0,0,0,0c0-0.1,0-0.1-0.1-0.2c0-0.1,0.1-0.2,0.2-0.1l0.1,0.2l0-0.3c0.1,0,0.2-0.1,0.2-0.1l0,0.3l0-0.3l0,0c0,0,0,0,0,0
		c0,0.1,0.1,0.1,0.1,0.2l0.4-0.3c0.1,0.1-0.1,0.2-0.2,0.3c0,0,0,0,0,0c0,0-0.1,0.1-0.1,0.1c0,0,0,0,0,0c0,0,0,0,0,0c0,0,0,0,0,0
		c0.1,0.1,0.4,0,0.6-0.1c-0.1,0.4-0.7,0.3-0.7,0.4l0.1,0.1l0.1-0.1c0.3-0.1,0.6-0.2,0.7-0.1c0,0.2-0.3,0.3-0.3,0.4
		c0,0-0.1,0.1,0,0.1l0,0c-0.1,0-0.1,0.1-0.1,0.1c-0.1-0.1-0.2-0.1-0.2-0.1c0-0.1,0.1-0.3,0-0.3l0,0.3c0,0-0.1,0-0.1,0
		c-0.1,0-0.1,0-0.1,0c0,0,0-0.1-0.1-0.1c0,0,0,0,0,0.1c0,0-0.1,0-0.1-0.1c-0.1,0.2,0,0.3,0.1,0.5c0,0-0.1,0-0.1,0l0-0.1
		C76.7,28.7,76.6,28.7,76.6,28.8z M79.3,30.5C79.3,30.5,79.2,30.4,79.3,30.5C79.2,30.4,79.3,30.4,79.3,30.5L79.3,30.5z M81.8,25.6
		C81.8,25.6,81.8,25.6,81.8,25.6C81.8,25.5,81.8,25.5,81.8,25.6C81.8,25.5,81.8,25.6,81.8,25.6z M80.8,24.5
		C80.8,24.6,80.8,24.6,80.8,24.5c-0.2,0.3-0.5,0.4-0.6,0.4l0.2-0.2c-0.1,0-0.2,0.1-0.3,0c0,0,0,0,0,0l0.5-0.2
		C80.7,24.5,80.8,24.5,80.8,24.5z M79.4,21.7c0,0-0.1,0.1-0.1,0.1c0,0,0-0.1,0-0.1C79.3,21.7,79.3,21.7,79.4,21.7z M79,21.5
		c0,0,0,0.1-0.1,0.1l-0.1,0C78.9,21.6,79,21.5,79,21.5z M76.3,17.7c0,0,0,0.2,0,0.2c-0.2,0.1-0.5,0.1-0.6,0.1c0.1-0.2,0.1,0,0.3-0.1
		l-0.3,0c0.2-0.1,0.3-0.1,0.4-0.2C76.2,17.7,76.2,17.7,76.3,17.7C76.3,17.8,76.3,17.8,76.3,17.7z M75.8,17.8
		C75.8,17.8,75.8,17.8,75.8,17.8C75.8,17.8,75.8,17.8,75.8,17.8z M76,17.2c0.1,0,0.4-0.1,0.2,0.1C75.7,17.6,75.9,17.4,76,17.2z
		 M63.2,6.9c0,0-0.1-0.1-0.1-0.1l0.4-0.1C63.3,6.7,63.3,6.8,63.2,6.9z M63.4,6.5c0,0.1-0.2,0.1-0.4,0.3c-0.1-0.1-0.2-0.2-0.1-0.3
		c-0.2,0.1-0.3,0.1-0.4,0.1c0,0,0,0,0-0.1C63,6.4,63.1,6.6,63.4,6.5z M62.1,6.7C62,6.8,61.8,7,61.7,6.8c0.4-0.4,0.5-0.5,0.5-0.7
		c0.1,0,0.1-0.1,0.2-0.2C62.1,6.4,62.2,6.4,62.1,6.7z M61,4.9C61,4.8,61.1,4.8,61,4.9C61,4.8,61.1,4.8,61,4.9c0.1,0,0.1,0,0.1-0.1
		C61.1,4.8,61.1,4.8,61,4.9C61.1,4.8,61.1,4.8,61,4.9L61,4.9L61,4.9L61,4.9L61,4.9z M59.8,2.4c0,0-0.1,0.1-0.2,0.1
		C59.7,2.4,59.8,2.4,59.8,2.4z M58.1,5.4c-0.1,0.1-0.2,0.3-0.2,0.3c0,0,0,0-0.1,0.1C57.8,5.7,57.6,5.6,58.1,5.4z M57.7,5.7
		C57.7,5.7,57.7,5.7,57.7,5.7C57.6,5.8,57.4,6,57.4,6c0,0,0,0,0,0L57.7,5.7z M58.9,11.1c0.1-0.2-0.2-0.2-0.1-0.3
		c0.1-0.2,0.2-0.3,0.4-0.4c-0.1,0-0.1,0.1-0.2,0.2l0.3-0.2C59.1,10.6,59.1,10.9,58.9,11.1z M69.1,18.6c0,0,0.1,0,0.1,0.1
		C69.1,18.8,69.1,18.7,69.1,18.6z M69.5,18.4l0,0.1c-0.1,0.1-0.2,0.1-0.2,0.1l0-0.1c0.4-0.5,0.3-0.2,0.4,0
		C69.6,18.5,69.6,18.5,69.5,18.4z M70,19.6c0.1-0.1,0.2-0.3,0.3-0.3c0,0.1,0,0.1,0.1,0.1l0-0.1c0,0,0,0,0,0c0,0,0,0,0,0l0-0.1l0.1,0
		c0,0.1-0.1,0.3-0.2,0.5c0,0,0,0-0.1,0C70.5,19.4,70.5,19.3,70,19.6z M72.2,21.8c0.1-0.1,0.1-0.2,0.1-0.3c0.1,0,0.4-0.1,0.6-0.1
		c-0.1,0.1-0.2,0.2-0.3,0.3c0.1-0.1,0.1,0,0.2,0.1c0,0-0.1,0.1-0.1,0.1l0.2,0.1c-0.1,0-0.2,0-0.6,0.1l0.3-0.2
		C72.5,21.8,72,22.1,72.2,21.8z M75.3,25.1c0,0-0.1,0.3-0.2,0.6c-0.1,0-0.1,0-0.2,0.1l-0.1,0.1c0-0.1,0-0.2-0.1-0.3
		c0,0.1,0,0.2,0,0.3L74.6,26c0,0,0,0-0.1,0l0-0.1C74.4,26,74.4,26,74.3,26C74.7,25.6,75.1,25.2,75.3,25.1z M73.3,25.9
		c-0.1,0.1-0.3,0.3-0.5,0.5c-0.1-0.1-0.1-0.1-0.2-0.2c-0.1,0,0,0.2,0.1,0.3c0,0,0,0-0.1,0.1l0,0l0,0.1c0,0-0.1,0.1-0.1,0.1
		c-0.1-0.1-0.1-0.1-0.2-0.2l0,0l-0.1-0.2c0,0,0-0.1,0-0.1c0,0,0,0,0,0C72.7,25.9,73.2,25.7,73.3,25.9z M72,26.3
		C72,26.4,72,26.5,72,26.3l0.2,0.2c0,0,0,0.1-0.1,0.1l-0.5,0.1C71.7,26.6,71.8,26.5,72,26.3z M71.3,27.6
		C71.3,27.6,71.4,27.6,71.3,27.6C71.4,27.6,71.4,27.6,71.3,27.6C71.3,27.6,71.3,27.6,71.3,27.6z M71.2,28C71.1,28,71.1,28,71.2,28
		C71.1,28,71.1,28,71.2,28C71.2,28,71.2,28,71.2,28z M68.4,28.9l0.1,0.1c-0.1,0-0.2,0-0.2,0C68.3,28.9,68.3,28.9,68.4,28.9z
		 M67,29.1L67,29.1C66.8,29.1,66.9,29.1,67,29.1z M62.8,28.7L62.8,28.7C62.9,28.7,62.8,28.7,62.8,28.7
		C62.8,28.7,62.8,28.7,62.8,28.7z M35.6,28.2c0-0.1,0-0.2,0.1-0.3c-0.1,0-0.9-0.2-0.8,0.4c0,0,0-0.1-0.1-0.1c0,0,0,0,0,0l0,0
		c-0.1,0-0.1,0.1-0.1,0.1c-0.3,0-0.4,0-0.6,0.1l0.1,0.1c0.1,0.8-0.2,0.2-0.4,0.4l0-0.1c-0.3-0.2-0.4-0.1-0.4-0.1c0,0,0,0,0-0.1
		c0,0.1-0.1,0.1-0.1,0.2c-0.1,0-0.2,0-0.3-0.2l0.1,0.5c0,0,0,0,0,0c-0.1,0.1-0.1,0.2-0.1,0.3c-0.2-0.2-0.6-0.6-0.7-0.3l0.2,0.2
		c-0.1,0.3-0.4-0.4-0.7-0.9c0-0.1-0.1-0.3-0.1-0.5c0-0.1,0.1-0.2,0.1-0.3c0,0,0,0,0.1-0.1c0.3,0.2,0.6,0,0.9-0.3c0.1,0,0.1,0,0.2,0
		c0,0,0,0.1,0.1,0.1c0,0.1-0.1,0.2,0,0.4l0.1-0.2c0.1,0.3,0.3,0.5,0.4,0.6c0.1,0.1,0,0.2-0.1,0.2c0.6,0.5,0-0.6,0.3-0.8
		c0.1,0.3,0,0.9,0.3,0.9c0.2,0.2,0.6-1.2,1-0.6c-0.1-0.2-0.2-0.5-0.1-0.7c0,0,0,0,0,0c0.3-0.1,0.8,0.9,1,0c0,0.1,0.1,0.1,0.1,0.2
		c0.1-0.1,0.1-0.1,0.2-0.2c0,0,0,0.1,0,0.1c-0.2,0,0,0.2,0.1,0.5c0,0.1,0,0.2,0.1,0.3c0,0,0,0.1-0.1,0.1c-0.1-0.1-0.2-0.1-0.3,0
		C35.7,28.2,35.6,28.2,35.6,28.2z M17.1,35.4c-0.1-0.1-0.2,0-0.3,0c0,0,0,0-0.1,0c0,0,0,0,0-0.1c-0.1-0.2-0.1-0.4,0-0.5
		c0.2,0.1,0.3,0.1,0.5,0.1c0.1,0.2,0.2,0.4,0.3,0.5C17.4,35.4,17.3,35.4,17.1,35.4z M38.2,22.4c0,0.1,0.1,0.2,0.1,0.4
		c0,0,0,0.1,0,0.1c0,0,0-0.1-0.1-0.1C38.2,22.7,38.2,22.5,38.2,22.4z M55.9,28c-0.2,0.6,0.2,0.6,0.4,0.6c-0.1,0.2-0.4,0.4-0.6,0.3
		c-0.2-0.1-0.1-1.1-0.5-1.4c0-0.1,0.1-0.1,0.1-0.2c0.3,0.1,0.5,0.2,0.7,0.3C56,27.8,55.9,27.9,55.9,28z M30,28.6
		c-0.2-0.3-0.3-0.7-0.1-0.9c0.1,0.1,0.2,0.1,0.3,0c0,0.1,0,0.2,0,0.4c0.2-0.1,0.3-0.1,0.4,0C30.5,28.3,30.3,28.9,30,28.6z
		 M28.6,30.1c-0.2-0.6-0.4-0.6-0.5-0.4c0.2-0.2,0.1-0.7,0-1.3c0,0,0,0.1,0.1,0.1c0-0.2-0.1-0.3-0.1-0.4c0.2,0.1,0.3,0.1,0.3-0.2
		l0.1,0c0,0,0,0.1,0,0.1c0,0.1,0,0.1,0,0.1l0-0.1c0.1,0.1,0.1,0.3-0.1,0.4c0.1,0,0.3,0,0.6,0c0,0,0.1,0,0.1,0c0.1,0,0.2-0.1,0.2-0.3
		c0.1-0.1,0.2,0,0.4,0.2l-0.3,0.2c0.2,0.6,0.4,0.5,0.6,0.7c0,0.1,0,0.1,0,0.2c-0.2,0.2-0.9-0.8-0.9,0.1c0-0.1-0.1-0.1-0.1-0.2
		C29,29.4,28.6,29.6,28.6,30.1z M26.3,30.5c-0.1-0.1-0.1-0.2-0.1-0.3c-0.6-0.2-0.6-0.1-0.9,0.7l-0.2-0.5c-0.1,0.3-0.9-0.6-1.3,0.1
		c0-0.1,0-0.2,0-0.2c-0.2,0.3-0.5,0.2-0.8,0c0.1-0.7,0.2-0.3,0.3-1.1l0.1,0.4c0.1,0,0.1-0.1,0.1-0.2c0.2,0.3,0.5,0.6,0.4,0.3
		l-0.2-0.4c0,0.1-0.1,0.1-0.2,0.1c0-0.1,0.1-0.1,0.1-0.1l0,0.1c0,0,0,0,0,0c0,0,0,0,0,0c0.4,0.5,1.1,0,1.8-0.1
		c-0.1,0.2-0.2,0.2,0,0.6c0-0.3,0-0.5,0.1-0.6c0.2,0,0.4,0,0.6,0.1c-0.1-0.2-0.1-0.3-0.1-0.3c0,0,0.1,0,0.1,0
		c0.2,0.1,0.4,0.4,0.3-0.1c0.1,0.3,0.3,0.4,0.2,0.6c0.3-0.4,0.7,0.3,0.8-0.5c0.1,0.3,0,0.4,0.1,0.6c0-0.1,0.1-0.3,0.1-0.1
		c0.1,0.1,0,0.2,0,0.4c0,0,0.1,0,0.1-0.1c-0.3,0.3-0.5,0.9-0.7,0l-0.5,0.2l0-0.2C26.4,29.7,26.3,30.1,26.3,30.5z M22.6,30.3l0-0.7
		c0.3,0.2,0.4,0.4,0.5,0.8C22.8,30.3,22.7,30.2,22.6,30.3z M19,34.4C19,34.4,19,34.4,19,34.4C19,34.3,19,34.3,19,34.4
		C19,34.4,19,34.4,19,34.4z M9.7,37.6L9.7,37.6C9.7,37.5,9.7,37.6,9.7,37.6C9.7,37.6,9.7,37.6,9.7,37.6z M14.2,31
		C14.2,31,14.2,31,14.2,31C14.2,31,14.2,31.1,14.2,31c0.2,0.2,0.2,0,0.3-0.1c0.1,0,0.2,0.1,0.3,0.2c0.2,0.2,0.3,0.6,0.4,1
		c0,0.2,0,0.4,0.1,0.5c0,0,0,0.1,0,0.1c0,0-0.1,0-0.1,0c0,0,0,0,0,0c-0.1-0.1-0.2-0.2-0.2-0.3c-0.2,0.1-0.4,0.1-0.5,0.2
		c0-0.1-0.1-0.1-0.1-0.2c0.2-0.3,0.2-0.8,0.8-0.2c-0.1-0.6-0.4-0.6-0.6-0.5l-0.1,0c0-0.2,0.1-0.5,0.3-0.4c-0.2-0.1-0.3,0-0.6,0.1
		C14.1,31.2,14.1,31.1,14.2,31z M55,26.8C55,26.8,55,26.8,55,26.8C55,26.8,55,26.8,55,26.8C55,26.8,55,26.8,55,26.8z M53,27.1
		C53,27.1,53,27.1,53,27.1l0.1-0.4c0,0,0,0,0,0c0,0,0-0.1-0.1-0.1c0-0.1,0.1-0.1,0.1-0.2c0.2,0.2,0.4,0.2,0.6,0.6c0,0-0.1,0-0.1,0.1
		C53.5,26.9,53.3,26.7,53,27.1z M52,26.8C52,26.8,52.1,26.8,52,26.8c0.1,0.1,0.1,0.1,0.1,0.1C52.1,26.9,52,26.9,52,26.8z M53.7,27
		C53.7,27,53.8,27,53.7,27C53.7,27.1,53.7,27.1,53.7,27C53.7,27,53.7,27,53.7,27z M53.8,27.1c0-0.1,0.1-0.2,0.2-0.2
		C53.9,26.9,53.9,27,53.8,27.1z M29.9,27.7c-0.1,0.1-0.2,0.4-0.3,0.2c0,0,0-0.1,0-0.1c0,0,0,0,0,0c0,0,0,0,0,0c0,0,0.1,0,0.1,0
		c0,0,0,0,0,0C29.8,27.7,29.8,27.7,29.9,27.7C29.9,27.7,29.9,27.7,29.9,27.7z M13.3,32.8c0,0.1,0,0.1,0,0.2
		c-0.2,0.2-0.5,0.2-0.2,0.8c-0.2,0-0.2-0.3-0.2-0.5c0.2,0,0.2-0.4,0.3-0.7C13.2,32.6,13.2,32.7,13.3,32.8z M13.1,32.5
		c0,0.1,0,0.2-0.1,0.3c-0.2-0.1-0.2-0.2-0.2-0.3c0,0,0.1,0.1,0.1,0.1L13.1,32.5C13.1,32.5,13.1,32.5,13.1,32.5z M12.7,32.2
		C12.7,32.3,12.8,32.3,12.7,32.2c0,0.1,0,0.1,0,0.1c0,0.1,0,0.1,0,0.2C12.7,32.4,12.7,32.3,12.7,32.2z M17,32.2
		C17,32.2,17,32.2,17,32.2L17,32.2C17,32.2,17,32.2,17,32.2z M28,27.9C28,28,28,28,28,27.9C28,28,28,28,28,27.9C28,28,28,28,28,27.9
		z M14.3,31.7C14.3,31.7,14.3,31.7,14.3,31.7C14.3,31.8,14.3,31.8,14.3,31.7z M13,32c0-0.1,0.1-0.2,0.2-0.3c0,0.1,0,0.2,0,0.3
		C13.2,31.9,13.1,32,13,32z M11.9,33.2L11.9,33.2l0.2-0.1L11.9,33.2C12,33,12,33,12.1,33c0,0.1,0.1,0.2,0.2,0.3
		C12.2,33.3,12,33.3,11.9,33.2C11.9,33.2,11.9,33.2,11.9,33.2z M11,33.6C11.1,33.7,11.1,33.7,11,33.6C11,33.7,11,33.7,11,33.6l0,0.3
		l-0.1-0.2C10.9,33.7,11,33.6,11,33.6z M9.8,37.4c-0.1,0-0.3,0.1-0.3-0.4C9.6,37.3,9.7,37.3,9.8,37.4C9.8,37.4,9.8,37.4,9.8,37.4
		C9.8,37.4,9.8,37.4,9.8,37.4z M22.5,29.3c0,0.1,0,0.1,0,0.1C22.5,29.4,22.5,29.4,22.5,29.3C22.5,29.3,22.5,29.3,22.5,29.3z
		 M31,27.9c0,0,0.1-0.1,0.1-0.2c0,0,0,0,0,0c0,0,0,0,0,0c0,0,0,0.1,0,0.2c0,0.1-0.1,0.2,0,0.3c0,0,0-0.1,0.1-0.1
		c0,0.1,0,0.2,0.1,0.3c0,0-0.1,0.1-0.1,0.1c0,0,0.1,0,0.1,0c0,0.1,0,0.2-0.1,0.2C31.1,28.5,31,28.2,31,28C31,28,31,28,31,27.9z
		 M36.4,27.2c0,0,0,0.1,0,0.1C36.4,27.2,36.4,27.2,36.4,27.2L36.4,27.2z M53.8,28.3c0,0-0.1,0-0.1,0c0,0-0.1,0-0.1,0
		c-0.1,0-0.1-0.1-0.2-0.1c0,0,0,0,0.1-0.1c0.1-0.1,0.1-0.1,0.1-0.2c0,0,0.1,0,0.1-0.1c0.1,0,0.3,0,0.4-0.1l0.2,0l0,0.2
		c-0.1,0-0.2,0-0.2,0.2C53.9,28.3,53.8,28.3,53.8,28.3C53.8,28.3,53.8,28.3,53.8,28.3z M54.1,27.5L54.1,27.5l-0.2-0.1L54.1,27.5
		c-0.2,0.1-0.4,0.3-0.2-0.3c-0.1,0.2-0.1,0.3-0.2,0.4c-0.1,0-0.1,0-0.2,0c0,0,0,0,0,0c0,0-0.1,0-0.1-0.1c0.2-0.7,0.6-0.1,1-0.5
		l0,0.2l0.1,0C54.3,27.4,54.2,27.3,54.1,27.5z M54.4,27.3l0-0.2c0,0,0,0,0,0c0-0.1,0-0.1-0.1-0.1l0,0l0,0c-0.2-0.1-0.5,0.3-0.3-0.1
		c0.2-0.1,0.4-0.1,0.4-0.4c0,0,0,0,0.1,0c0,0.1,0,0.3,0,0.5c-0.1,0-0.1,0-0.1-0.1c0,0.2,0.3,0.3,0.6,0.4c0,0,0,0.1,0,0.1
		c-0.1,0-0.3,0.1-0.4-0.2C54.5,27.2,54.5,27.3,54.4,27.3z M55.1,27.4C55.1,27.4,55.1,27.4,55.1,27.4C55.2,27.4,55.2,27.4,55.1,27.4
		C55.1,27.4,55.1,27.4,55.1,27.4L55.1,27.4z M57.5,26.5c0.1,0,0.1,0.1,0.2,0.1l0,0.3C57.6,26.8,57.6,26.6,57.5,26.5
		C57.5,26.6,57.5,26.5,57.5,26.5z M46,22.4c0,0.1,0,0.1,0,0.2c0,0,0,0,0,0C46,22.5,46,22.4,46,22.4z M40.1,22.5
		C40.1,22.5,40.1,22.5,40.1,22.5c0-0.1,0.1-0.1,0.1-0.1C40.2,22.4,40.2,22.5,40.1,22.5z M37.8,22.9C37.8,22.9,37.8,22.8,37.8,22.9
		C37.8,22.8,37.8,22.8,37.8,22.9C37.8,22.8,37.8,22.9,37.8,22.9z M9.9,37.4C9.9,37.4,9.9,37.4,9.9,37.4C9.9,37.4,9.9,37.4,9.9,37.4
		C9.9,37.4,9.9,37.4,9.9,37.4z M10.9,37.6C10.9,37.6,10.9,37.6,10.9,37.6C10.9,37.6,10.9,37.6,10.9,37.6
		C10.9,37.6,10.9,37.6,10.9,37.6C10.9,37.6,10.9,37.6,10.9,37.6z M12.7,37.2c0,0.1-0.1,0.2-0.1,0.3C12.6,37.4,12.6,37.3,12.7,37.2
		C12.6,37.2,12.6,37.2,12.7,37.2z M15.9,35L15.9,35c0,0.1,0,0.1,0,0.2C15.9,35.1,15.9,35.1,15.9,35C15.9,35,15.9,35,15.9,35z
		 M19.1,34.9c0,0,0.1-0.1,0.2,0c0,0.2,0,0.3,0,0.4C19.2,35.1,19.1,35,19.1,34.9z M19.6,35.3l0.1,0.4L19.6,35.3c0-0.1,0-0.1,0-0.1
		l0.1,0.5c0-0.1,0.1-0.3,0.2-0.3l0,0.5c-0.1-0.1-0.3-0.2-0.4-0.3C19.6,35.5,19.6,35.4,19.6,35.3z M22.1,32.2L22.1,32.2
		c-0.1-0.6-0.3-0.5-0.5-0.5c0-0.2,0.1-0.3,0.2-0.3l-0.8,0c0,0,0,0,0,0c0,0,0,0,0,0c0,0,0-0.1-0.1-0.1c0-0.1,0-0.2,0-0.3
		c0.4,0.7,0.2-0.4,0.7,0.3c-0.1-0.4,0.5-0.5,0.2-1.3c0,0.1,0.1,0.1,0,0.2c0.2,0,0.4,0.1,0.4-0.2l0.2,0.4c-0.1,0.1-0.2,0.3-0.1,0.8
		l-0.3,0.5c0.5,0,0.1,0.7,0.3,1c0,0,0,0,0,0c-0.1,0.1-0.3-0.1-0.4-0.3C22.1,32.3,22.1,32.2,22.1,32.2z M54.4,27.7l0.1,0
		C54.5,27.7,54.5,27.8,54.4,27.7C54.5,27.8,54.4,27.8,54.4,27.7z M56.1,28.2c0.1,0,0.2,0.1,0.2,0.1C56.2,28.3,56.2,28.3,56.1,28.2z
		 M59.6,27.5c-0.4,0.1-0.2-0.2-0.3-0.5c0,0.5-0.6,0.5-0.8,1.2c-0.4,0.2-0.3,0.2-0.8,0.8l0-0.1l0-0.3c-0.2,0.2-0.3,0.4-0.5,0.4
		c0-0.1,0-0.1,0-0.2c0-0.1,0-0.2,0-0.2c0-0.1,0.1-0.2,0.1-0.2c0,0,0-0.1-0.1-0.1c0,0,0.1-0.1,0.1-0.1c-0.5-0.9-1.1,0.3-1.2-0.5
		c0,0,0,0,0.1,0.1c0.2-0.1,0.4-0.3,0.4-0.5l-0.2,0c0,0,0-0.1,0-0.1c0.1,0,0.2,0,0.3,0c0-0.1,0-0.3,0-0.4c0.1-0.1,0.1-0.1,0-0.2
		c0,0,0,0,0-0.1c0,0,0,0,0,0l0.3,0.6c-0.1-0.1-0.2-0.1-0.2,0l0.2,0.2c0,0,0,0,0-0.1l0,0.1c0,0,0.1-0.1,0.1-0.2c0.1,0,0.2,0,0.2,0
		c0,0-0.1,0-0.2,0c0.1-0.3,0.1-0.7,0.3-0.2c0-0.1-0.1-0.2,0-0.3c0.2,0.2,0.3,0.8,0.6,0.2l0-0.1c0.1,0,0.2,0,0.3,0.1
		c0,0.1,0.1,0.1,0.2,0c0,0,0,0,0,0.1c0,0,0,0,0-0.1c0,0,0,0,0,0c0,0,0,0,0,0c0,0,0,0,0.1,0c0,0,0,0,0,0c0.1,0,0.1,0,0.2,0
		c0,0,0,0,0,0c0.3,0,0.5,0,0.8-0.1C59.7,27,59.8,27.3,59.6,27.5z M62.9,24c-0.1,0.3-0.3,0.2-0.4,0C62.6,23.8,62.8,23.8,62.9,24z
		 M62.4,23.9C62.4,23.9,62.4,23.9,62.4,23.9C62.4,23.9,62.4,23.9,62.4,23.9L62.4,23.9z M59.2,20.4L59.2,20.4
		C59,20.2,59.1,20.3,59.2,20.4z M57.2,21.1c0.5-0.1,0.1,0.6,0.2,0.5c0.8,0.3,1-1.3,1.6-0.5c0.2,0.6-0.2,1-0.3,1.4
		C58.3,22.6,58.3,22,58,22l0.3,0.3c-0.2,0.1-0.4,0.2-0.5,0c0.1,0.4,0.9,0.4,1.5,0.7l0,0.4c-0.2-0.1-0.2-0.2-0.3-0.3
		c-0.2,0.6,0.3,0.2,0.3,0.6c0,0.1-0.1,0.1-0.1,0.2c-0.3-0.7-1.3,0-1.4-1c-0.2,0,0,0.4-0.1,0.5c0-0.1,0-0.2,0-0.3l-0.1,0.3L57.6,23
		l-0.1,0.4c-0.2-0.1-0.3-0.4-0.3-0.7c0,0,0.1-0.1,0.2-0.1c-0.2-0.4-0.7,0.1-0.8,0l0.3,0.2c-0.1,0-0.2,0.1-0.3,0.1
		c-0.1-0.3-0.4-0.2-0.6,0c0,0-0.1,0-0.1,0C56,22.1,56.5,21.4,57.2,21.1z M53.5,23.1c-0.1-0.5,0.4-1.5,0.8-1.6c0,0.2,0,0.4,0,0.5
		c0.6,0.1,0.9,0.5,1.4,0.5c0,0.1,0.1,0.2,0.1,0.4c-0.5,0-0.9,0-1.3,0.3l0.1,0.2c-0.6,0.4-0.5-0.3-1.1-0.1l0-0.1
		c-0.1,0.2-0.3,0.3-0.5,0.3c0.1-0.1,0-0.3-0.1-0.4c0.1,0,0.2,0.1,0-0.3C53.1,22.8,53.1,23.1,53.5,23.1z M51.8,20.4
		c0,0.1,0.6,0.8,0.8,1.2c0.2,0.6-0.4,1.4-0.3,1.9c0-0.2,0.1-0.4,0.2-0.5c0,0,0,0.1,0,0.1c-0.1,0.1-0.1,0.2-0.2,0.5c0,0,0-0.1,0-0.1
		c0,0.1,0,0.1,0,0.2c0,0.1-0.1,0.2-0.2,0.3c0,0,0,0,0,0l0,0l0-0.4c-0.1,0.1-0.3-0.1-0.5-0.2c0,0,0,0,0,0c0,0,0-0.1,0.1-0.1
		c0,0,0,0-0.1-0.1C51.6,22.2,51.7,20.8,51.8,20.4z M50.3,22.3c0.1,0.1,0,0.3,0,0.5c-0.2,0-0.4,0-0.5,0l-0.1,0.3
		c-0.1-0.1-0.1-0.1-0.2-0.1c0,0,0,0,0,0c0,0,0,0,0,0c0,0,0,0,0,0C49.7,22.5,50,22.2,50.3,22.3z M49.5,20.2l0.1,0.3l0.4-0.4
		c-0.2,0.6-0.7,1.8-1.1,2.7c0,0,0,0,0,0c-0.1,0.6-0.3,0-0.4,0.8l0.1,0c0,0,0,0,0,0c0,0.1,0.1,0.1,0.1,0.1l0,0.2c0,0-0.1,0.1-0.1,0.1
		c-0.1,0.1-0.3,0-0.5-0.1c0.1-0.1,0.1-0.2,0.2-0.3c-0.1-0.2-0.3,0.2-0.4-0.1c0-0.3,0.1-0.4,0.2-0.4c0,0.2,0.1,0.3,0.2,0.4
		c0-0.1,0.1-0.2,0.1-0.4c0.1,0,0.3-0.1,0.4-0.3c-0.1-0.2-0.2,0-0.3,0.1C48.7,21.9,49,20.6,49.5,20.2z M48.2,21.9
		c0,0.1-0.1,0.7-0.1,1.1c-0.2,0-0.4-0.3-0.6,0.2l0-0.2C47.7,22.5,47.8,21.8,48.2,21.9z M46.5,23.1c0-0.1-0.1-0.2-0.1-0.3l0.1-0.3
		C46.5,22.6,46.5,22.8,46.5,23.1z M44.9,20.8c0,0.5,0.1,1.4,0.1,2.1c0,0,0,0.1,0,0.2c0,0-0.1,0.1-0.1,0.1l0-0.5
		c-0.1-0.1-0.2,0-0.3,0l-0.1-0.3l-0.1,0.8c0,0.1-0.1,0.2-0.1,0.2c0-0.1-0.1-0.1-0.1-0.3c0,0,0,0.1,0,0.1l0.2-0.5l-0.1,0L44.9,20.8z
		 M40.6,22.1c0,0.1,0,0.1,0,0.2c-0.1,0-0.2,0-0.2,0C40.4,22.2,40.5,22.2,40.6,22.1z M38.1,21.6C38.2,21.6,38.2,21.6,38.1,21.6
		c0.1,0.2,0.1,0.3,0,0.6c0-0.1,0.1-0.1,0.1-0.2c0.1,0.1,0.2,0.4,0.1,0.6c-0.1-0.1-0.1-0.1-0.2-0.2c0,0,0-0.1,0-0.1c0,0,0,0,0,0.1
		c0-0.1,0-0.1,0-0.2c0,0.1-0.1,0.2-0.2,0.3c0,0,0,0,0,0.1c0,0.1-0.1,0.2-0.1,0.3l0,0c0-0.1,0.1-0.2,0.1-0.3
		c-0.1-0.2-0.2-0.4-0.3-0.5L38.1,21.6z M12.6,27.6c-0.1,0.2-0.1,0.1-0.1-0.1L12.6,27.6z M9,37.8C9,37.8,9,37.8,9,37.8
		c0.1,0,0.3,0.1,0.4,0.1c0,0.1,0,0.1,0,0.2C9.3,38.1,9.1,38,9,37.8z M11.9,38.4l-0.1-0.4c0.1,0.1,0.3,0.1,0.3,0.3c0-0.1,0-0.2,0-0.3
		c0,0,0,0,0,0c0,0,0,0,0,0c0,0,0,0,0,0c0,0,0,0,0,0c0,0,0,0,0,0c0-0.1,0-0.1-0.1-0.2c0,0,0.1-0.1,0.1-0.1c0,0,0,0,0.1,0
		c0,0,0,0,0.1,0L12,37.6c0,0,0-0.1,0-0.1c0,0,0,0,0,0c0,0,0,0,0,0l0,0c0.1-0.1,0.3-0.1,0.4-0.2c0.1,0.1,0.1,0.2,0.1,0.1
		c0.1,0.1,0.1,0.1,0.1,0.1c0,0.1,0,0.1,0.1,0.2C12.5,38.1,12.3,38.6,11.9,38.4z M14.2,38.8C14.2,38.8,14.2,38.8,14.2,38.8
		C14.4,38.9,14.3,38.9,14.2,38.8z M15.5,37.3c-0.4,0.3-0.3-0.5-0.4-0.3c-0.8,0.1-0.3,1.6-1.1,1.2c-0.4-0.5-0.3-1-0.4-1.4
		c0,0,0,0,0,0c0.3-0.3,0.6,0.2,0.8,0.1l-0.3-0.2c0.1-0.2,0.3-0.4,0.4-0.3c-0.1-0.2-0.4-0.1-0.7-0.1l0-0.1c0.4-0.5,0.5,0.1,0.9-0.2
		l0,0.1c0-0.2,0.2-0.4,0.3-0.4c-0.1,0.2,0.2,0.4,0.3,0.6c0,0.1,0,0.1,0,0.2l0.3-0.2c0-0.1,0-0.1-0.1-0.2c0.1-0.2,0-0.3,0.1-0.7
		c0,0,0.1-0.1,0.1-0.1l0.1,0.2c0-0.2,0-0.4,0.1-0.5C16.1,35.9,15.9,36.8,15.5,37.3z M17.8,35.9c0-0.1-0.1-0.2-0.1-0.3
		c0.1,0.1,0.1,0.1,0.2,0.1C17.9,35.8,17.9,35.8,17.8,35.9z M19.9,35.9c0.1-0.1,0.2-0.1,0.3,0c0,0.1,0,0.2,0,0.3
		C20.3,36.1,20.1,36,19.9,35.9z M22.1,35.3l-0.3,0.5c0-0.3,0-0.7,0-1.1c0,0,0-0.1,0-0.1l0.1,0.5c0.6,0.2-0.1-1,0.5-0.7
		c0,0,0,0.1,0,0.1l0,0.6l0,0c0,0.2-0.1,0.4-0.1,0.6L22.1,35.3z M32.7,32.8c0-0.1,0-0.2,0-0.3c0,0,0,0,0.1,0
		C32.8,32.7,32.8,32.8,32.7,32.8z M54.6,31.7l-0.1-0.1C54.7,31.5,54.7,31.6,54.6,31.7z M63.5,34.5C63.5,34.5,63.5,34.5,63.5,34.5
		c0,0.1,0,0.1,0,0.1l0,0C63.4,34.5,63.3,34.3,63.5,34.5z M57,50.2c0.1,0,0.1,0,0.2,0.1C57.1,50.3,57.1,50.3,57,50.2z M59,47.6
		C59,47.6,59,47.6,59,47.6C59.1,47.6,59.1,47.7,59,47.6C59.1,47.7,59,47.6,59,47.6z M60.4,48.5c-0.1-0.1-0.4-0.2-0.5-0.4
		c0.1,0.1,0.2,0.3,0.1,0.4c-0.5-0.3,0-0.2-0.4-0.5c-0.1-0.3-0.2-0.3-0.3-0.5c0,0,0.1,0,0.1,0c0-0.2-0.2-0.2-0.4-0.3c0,0,0.1,0,0.2,0
		l0,0c0,0,0,0,0,0c0.1,0,0.1,0,0.3,0.1c-0.2-0.1-0.4-0.2-0.2-0.2c0,0-0.1-0.1-0.1-0.1l0,0l0,0c0,0,0,0,0,0c-0.1,0-0.1,0-0.2-0.1
		c0,0,0,0,0-0.1l0,0c0,0,0,0,0,0c0.2,0.2,0.4,0.2,0.7,0.5c0.9,0.2-0.4-0.9,0.7-0.3c-0.3-0.3-0.4-0.3-0.5-0.4c0.1,0,0.1-0.1,0-0.2
		c0,0,0,0,0,0c0,0,0.1,0,0.1,0c0.2,0.1,0.5,0.2,0.5,0.1c0,0,0,0.1,0,0.1c0.1,0,0.1,0,0.1-0.1c0,0,0.1,0,0.1,0.1
		c0-0.1-0.1-0.1-0.1-0.1c0-0.1,0-0.1,0.2-0.1c-0.5-0.4,0.1-0.1-0.5-0.6l0,0l0-0.1c0.1,0,0.1,0.1,0.2,0.1c0,0,0,0,0,0
		c0.1,0.1,0.2,0.1,0.2,0.2c0,0.1,0,0.1,0.1,0.3c0.1,0,0.1,0,0.1-0.1c0.5,0.5,1.3,1.3,1.7,1.8c0,0-0.1,0-0.1,0.1
		c0.1,0,0.2,0.1,0.3,0.2c0.1,0.1,0.1,0.1,0.1,0.2c-0.1,0-0.7-0.3-1-0.5c-0.5-0.4-0.9-1.2-1.3-1.5c0.1,0.1,0.2,0.3,0.3,0.4
		c-0.2-0.1-0.4-0.4-0.4-0.3c0.4,0.5-0.3,0.2,0.3,0.5c0,0.2-0.2,0-0.3,0.1c0.3,0.3,0.9,1.2,0.9,1.4c-0.1-0.1-0.3-0.3-0.4-0.3
		C61,48.5,60.6,48.4,60.4,48.5z M61.3,51.6C61.3,51.6,61.3,51.5,61.3,51.6C61.5,51.6,61.4,51.6,61.3,51.6z M62.2,50.6
		c0,0-0.1,0.1-0.1,0.1c0,0-0.1,0,0,0c0,0-0.1,0-0.1,0.1C62,50.7,62,50.6,62.2,50.6z M63.7,51.7c-0.5-0.2-0.8-0.6-1.1-0.8
		c0.1,0,0.1,0,0-0.2c0.1,0,0.3,0.1,0.3,0l-0.3,0c-0.1-0.2-0.2-0.3,0-0.3c0,0-0.1,0-0.1,0c0,0,0.1,0,0.1-0.1l0.3,0.3
		c0-0.2,0.5,0,0.3-0.3c0.2,0.2,0.3,0.2,0.4,0.2c0.1,0.1,0.1,0.2,0.1,0.3c0,0.3-0.5-0.3-0.4-0.2C63,50.9,64.3,51.8,63.7,51.7z
		 M64.2,52.1L64.2,52.1C64.3,52.1,64.3,52.1,64.2,52.1z M64.6,48.8C64.6,48.7,64.6,48.7,64.6,48.8L64.6,48.8L64.6,48.8
		c0-0.1,0-0.2,0-0.3c0.3,0.2,0.6,0.4,0.7,0.5C65.2,48.9,64.9,48.8,64.6,48.8z M65.8,48.3c-0.2-0.2-0.5-0.5-0.8-0.7
		c0-0.1-0.1-0.1-0.1-0.2c0.5,0.4,0.2,0,0.4,0.1c0.3,0.3,0.6,0.5,0.7,0.7L65.6,48L65.8,48.3z M66.1,45.9c0,0,0.1,0,0.1,0l0.3,0.2
		C66.4,46,66.3,45.9,66.1,45.9z M75.2,35.5c0,0,0-0.1-0.1-0.1l0.2-0.1L75,35.1c0,0,0-0.1,0-0.1c-0.1-0.1-0.1,0-0.1,0l-0.1-0.1
		c-0.1-0.2,0-0.2-0.2-0.3c0,0,0,0,0,0c0.1,0,0.2,0,0.3,0c0,0.1,0.1,0.1,0.2,0.3l0.1-0.3C75.2,34.9,75.6,35.7,75.2,35.5z M76.3,34.9
		c-0.1,0-0.5-0.5-0.9-0.7c0,0,0.1,0,0.1,0c-0.2-0.3-0.1-0.4,0-0.5c0.5,0.9,0.6,0.3,0.6,0.5C76.3,34.4,76.4,34.9,76.3,34.9z
		 M76.6,33.7c0.1,0.3,0.2,0.5,0.1,0.6c-0.1-0.3-0.3-0.3-0.4-0.6c0,0,0.1,0,0.1,0.1c-0.1,0-0.1-0.1-0.1-0.1c0-0.1-0.1-0.1-0.1-0.2
		c0-0.1,0.1-0.3-0.4-0.6c0.2,0,0.4,0.3,0.6,0.5c0-0.1,0-0.2,0-0.3c0,0.2,0.1,0.3,0.3,0.8L76.6,33.7z M77,33.4c0-0.1-0.2-0.2-0.3-0.3
		c0.1,0,0.2,0,0.3,0C77.1,33.3,77.1,33.4,77,33.4z M77.3,33C77.3,33,77.3,32.9,77.3,33c-0.1-0.2-0.3-0.3-0.4-0.6l0.7,0.5
		C77.5,33.1,77.4,33,77.3,33z M78,31.7C78,31.7,78.1,31.7,78,31.7c0.1-0.2,0.2-0.2,0.2-0.3C78.2,31.6,78.1,31.7,78,31.7z M78.9,31.6
		l-0.2-0.2l0.2,0.3c-0.1,0-0.3-0.2-0.4-0.3c0.1,0,0.2,0,0.4,0C78.9,31.5,79,31.6,78.9,31.6z M79.2,31.4c0-0.1,0-0.1,0-0.1
		c-0.1,0-0.3-0.4-0.4-0.5l0.6,0.4c-0.3-0.5,0.1-0.3-0.1-0.7c0.1,0.1,0.3,0.2,0.7-0.2c0,0.2-0.4,0.3-0.6,0.5c0,0,0.1,0,0.1,0l0.2,0.3
		c0,0,0,0,0,0c-0.1,0-0.2-0.1-0.3-0.2c0.2,0.4,0.2,0.3,0.3,0.3c0,0,0,0.1,0,0.1C79.5,31.2,79.4,31.4,79.2,31.4z M80.7,34.5
		C80.7,34.5,80.7,34.5,80.7,34.5C80.8,34.5,80.7,34.5,80.7,34.5z M80.8,34.5c-0.1-0.1-0.1-0.2-0.1-0.2c0.1,0,0.2,0,0.3,0
		C80.9,34.3,80.9,34.4,80.8,34.5z M83.5,32c0.1,0,0.1-0.1,0.1-0.1c0.1,0,0.2-0.1,0.2-0.1C83.9,31.9,83.9,31.9,83.5,32z"/>
	<path d="M57.7,10.6l0.2,0c-0.1,0,0-0.1,0-0.2C57.8,10.5,57.7,10.7,57.7,10.6z"/>
	<path d="M84.7,33.5c0,0.1,0.3-0.2,0.4-0.2C85,33.2,84.6,33.5,84.7,33.5z"/>
	<path d="M64.7,18.4l0.2-0.1C64.7,18.4,64.7,18.4,64.7,18.4z"/>
	<path d="M69.2,20.3l-0.1,0.1c0.1-0.1,0.3-0.1,0.4-0.2C69.4,20.3,69.3,20.3,69.2,20.3z"/>
	<path d="M62.2,16.1l-0.4,0.2C61.9,16.5,62,16.3,62.2,16.1z"/>
	<path d="M54.8,8.8C54.8,8.8,54.8,8.8,54.8,8.8C54.7,8.8,54.7,8.8,54.8,8.8z"/>
	<path d="M56.1,3.7C56.2,3.7,56.2,3.7,56.1,3.7C56.2,3.7,56.2,3.7,56.1,3.7z"/>
	<path d="M70.2,24.4C70.2,24.4,70.2,24.4,70.2,24.4L70.2,24.4L70.2,24.4z"/>
	<path d="M69.8,24.5c0.5-0.3,0.5-0.2,0.4,0l0.9-0.9L69.8,24.5z"/>
	<polygon points="62.2,16.1 62.2,16.1 62.2,16.1 	"/>
	<path d="M71.4,25.8c-0.2,0.1-0.2-0.1-0.6,0.3l-0.1-0.3l0.1,0.3c0,0-0.1,0.1-0.1,0.1c0,0.1,0.1,0.1,0.1,0l0,0.1l0,0l0-0.1
		c0.1-0.1,0.3-0.2,0.2,0C71.4,26,71.2,25.9,71.4,25.8z"/>
	<polygon points="56.6,2.9 56.3,3.1 56.4,3.1 	"/>
	<path d="M55.7,3.3L56.2,3l-0.6,0.2C55.7,3.2,55.8,3.2,55.7,3.3z"/>
	<path d="M64.8,19.7L64.6,20l0.1-0.1C64.8,19.8,64.8,19.8,64.8,19.7z"/>
	<polygon points="63.8,18.3 63.8,18.3 64.2,17.9 	"/>
	<path d="M62.2,17.6c0,0.1,0.2,0,0.2,0.1C62.2,17.6,62.8,17.1,62.2,17.6z"/>
	<path d="M58.2,0c0-0.1-0.4,0.1-0.4,0.2C57.9,0.2,58.3,0,58.2,0z"/>
	<polygon points="59.6,0.5 59.5,0.6 59.9,0.5 	"/>
	<path d="M60.1,0.8L59.6,1c0.2,0.2,0.7,0.2,0.6,0.4C60.7,1,59.8,1.2,60,0.9L60.1,0.8z"/>
	<path d="M60.8,1.1l0.1-0.2l-0.3,0C60.8,0.9,60.6,1.2,60.8,1.1z"/>
	<path d="M61.3,2.6C61,2.7,60.9,2.9,60.5,3C60.7,2.9,61,3,61.3,2.6z"/>
	<path d="M60.4,3.5l0.4,0l0-0.2C60.7,3.3,60.6,3.4,60.4,3.5z"/>
	<polygon points="61,3.5 60.8,3.5 60.8,3.5 	"/>
	<path d="M61,4.3c0-0.1-0.1-0.1-0.2,0C60.9,4.2,61,4.3,61,4.3C61,4.3,61.1,4.3,61,4.3z"/>
	<path d="M62.1,2.3C62.1,2.3,62.1,2.3,62.1,2.3C62.1,2.3,62.1,2.3,62.1,2.3z"/>
	<path d="M61.2,3.2C61.5,3,61.7,2.8,62,2.5c-0.1,0-0.2,0.1-0.2,0c0.1-0.1,0.2-0.1,0.3-0.2c-0.1,0-0.3,0-0.4,0.3l0.1,0
		C61.6,2.8,61.2,3.2,61.2,3.2z"/>
	<path d="M61.7,3.6L62,3.7l0.2-0.3l-0.2,0.1C62,3.3,61.8,3.5,61.7,3.6z"/>
	<path d="M72.2,15.2l0.1-0.1c-0.1,0.1-0.3,0.1-0.4,0.2C72,15.2,72.1,15.2,72.2,15.2z"/>
	<path d="M81.1,34.7C81,34.6,81,34.6,81.1,34.7C81,34.6,81,34.6,81.1,34.7z"/>
	<path d="M66.5,8L66.5,8C66.6,7.9,66.6,7.9,66.5,8z"/>
	<path d="M71.5,10.9C71.5,10.9,71.5,11,71.5,10.9L71.5,10.9L71.5,10.9z"/>
	<path d="M71.9,11c-0.5,0.2-0.5,0.2-0.4,0l-0.9,0.9L71.9,11z"/>
	<path d="M68.5,7.8c0.1-0.1,0.2-0.2,0.1-0.2C68.6,7.6,68.5,7.7,68.5,7.8z"/>
	<path d="M63.3,3.7C63.3,3.7,63.3,3.7,63.3,3.7l-0.3,0.1C63.1,3.9,63.3,3.8,63.3,3.7z"/>
	<path d="M62.9,5.5c0.3-0.2,0.2-0.2,0-0.3c0,0,0,0,0,0C62.4,5.5,62.7,5.5,62.9,5.5z"/>
	<path d="M62.9,5.2C62.8,5.2,62.8,5.1,62.9,5.2C62.6,5.2,62.8,5.2,62.9,5.2z"/>
	<polygon points="63.9,4.6 63.5,5 63.9,4.8 	"/>
	<path d="M64.1,5.6l0-0.2C64,5.4,64,5.4,63.9,5.4C64,5.5,64,5.6,64.1,5.6z"/>
	<path d="M63.8,5.3c0,0,0.1,0.1,0.1,0.1C63.9,5.3,63.9,5.3,63.8,5.3z"/>
	<polygon points="64.2,4.7 64.1,4.8 64.2,5 	"/>
	<path d="M65.4,7.1c0.1-0.1,0.2-0.2,0.1-0.2c-0.1,0-0.2,0-0.3,0.1L65.4,7.1z"/>
	<path d="M65.9,5.8c-0.1,0.1-0.1,0.2-0.3,0.3l0.5-0.4L65.9,5.8z"/>
	<path d="M66.7,5.9c-0.1,0.1-0.4,0-0.4,0.3C66.5,6,66.9,6,66.7,5.9z"/>
	<polygon points="67.5,8.8 67.4,8.8 66.6,9.4 	"/>
	<path d="M70.5,9.2c-0.2,0.1-0.1,0.3-0.3,0.4c0.3-0.1,0.2,0.1,0.7-0.4C71,8.8,70.4,9.5,70.5,9.2z"/>
	<path d="M81.4,35.2l-0.6,0.1L81.4,35.2C81.3,35.3,81.2,35.2,81.4,35.2z"/>
	<path d="M76.7,16.3c-0.1,0.1-0.1,0.1-0.1,0.2l0.3-0.3L76.7,16.3z"/>
	<polygon points="77.5,18.2 77.5,18.1 77,18.5 	"/>
	<path d="M78.9,19.3c0-0.1-0.2-0.1-0.2-0.1C78.9,19.2,78.3,19.6,78.9,19.3z"/>
	<polygon points="82.9,25.4 83.2,25.3 82.7,25.5 	"/>
	<path d="M82.6,25.2c0.3-0.1,0.3-0.4,0.5-0.4c-0.1,0-0.3,0.1-0.6,0.1C82.7,24.9,82.8,24.9,82.6,25.2z"/>
	<path d="M82.6,24.9c-0.1,0-0.2,0-0.3,0.1C82.3,25,82.5,24.9,82.6,24.9z"/>
	<path d="M82.4,26L82.4,26c0.1,0,0.3-0.2,0.3-0.3L82.4,26z"/>
	<path d="M82.4,26.1L82.4,26.1c0-0.1,0-0.1,0-0.1C82.3,25.9,82.4,26,82.4,26.1z"/>
	<path d="M82.4,26.1C82.4,26.1,82.4,26.1,82.4,26.1C82.4,26.1,82.4,26.1,82.4,26.1z"/>
	<path d="M81.3,24.9C81.3,24.9,81.3,24.9,81.3,24.9L81.3,24.9L81.3,24.9z"/>
	<path d="M82.3,25.7L82.3,25.7C82.3,25.6,82.3,25.6,82.3,25.7z"/>
	<path d="M81.4,25.1L81.4,25.1c0.1-0.1,0.2-0.2,0.4-0.5c-0.2,0.1-0.3,0.1-0.4,0.2L81.4,25.1L81.4,25.1z"/>
	<path d="M81.2,23.8l-0.2,0c0.1,0,0,0.1,0,0.2C81,23.9,81.1,23.8,81.2,23.8z"/>
	<polygon points="60,1.7 60.2,1.5 59.9,1.7 	"/>
	<path d="M59.3,1.8l0.6-0.3l-0.6,0.2C59.3,1.7,59.4,1.8,59.3,1.8z"/>
	<path d="M56.1,56.6c-0.1,0,0.2,0.3,0.3,0.4C56.4,56.8,56,56.5,56.1,56.6z"/>
	<polygon points="56,55 56.1,55.3 56.2,55.4 	"/>
	<path d="M56.3,54.9l-0.1-0.1l0.3,0.5c0.1-0.2,0-0.6,0.2-0.6C56.2,54.3,56.6,55,56.3,54.9z"/>
	<path d="M58,55.5C58,55.6,58,55.6,58,55.5c0.1,0,0.1,0,0.1,0C57.9,55.3,58,55.3,58,55.5z"/>
	<path d="M58,55.6C58,55.7,58.2,55.7,58,55.6L58,55.6z"/>
	<path d="M58.2,55.2l0.1,0.3c0.1,0.1,0.2,0.1,0.3,0.2C58.6,55.4,58.5,55.3,58.2,55.2z"/>
	<path d="M57.9,54.7l0,0.1C58,54.9,58,54.9,57.9,54.7z"/>
	<path d="M58,55.1L58,54.8c-0.1-0.1-0.3-0.2,0,0.1C57.8,54.8,58,54.9,58,55.1z"/>
	<path d="M57.5,54.7c-0.1,0.2,0.3,0.6,0.4,0.3C57.7,55,57.6,55,57.5,54.7z"/>
	<path d="M56.2,54.2L56,54.1l0.1,0.2C56.1,54.2,56.4,54.3,56.2,54.2z"/>
	<path d="M58.6,54.7c0.1,0,0.2,0.1,0.4,0.2c-0.1-0.1-0.3-0.3-0.4-0.4L58.6,54.7z"/>
	<path d="M58.5,54.5l-0.1-0.3C58.4,54.3,58.4,54.4,58.5,54.5z"/>
	<polygon points="57.4,54.1 57.4,54.1 57.6,54.7 	"/>
	<polygon points="59.3,54.5 59.4,54.6 59.6,54.9 	"/>
	<path d="M59.6,54.3c0.2,0.2,0.4,0.3,0.5,0.5c0-0.1-0.1-0.3-0.2-0.5C59.9,54.4,59.8,54.5,59.6,54.3z"/>
	<path d="M59.8,54.3c0-0.1-0.1-0.2-0.1-0.3C59.7,54,59.8,54.2,59.8,54.3z"/>
	<path d="M58.7,54.2c0.1,0.1,0.3,0.2,0.4,0.2L58.7,54.2L58.7,54.2z"/>
	<path d="M58.7,54.1L58.7,54.1c0.1,0,0.1,0,0.1,0C58.8,54.1,58.8,54.1,58.7,54.1z"/>
	<path d="M58.7,54.2L58.7,54.2C58.6,54.1,58.6,54.1,58.7,54.2z"/>
	<path d="M57.4,53.5c0.2,0.2,0.4,0.3,0.5,0.7C57.8,54,57.7,53.7,57.4,53.5z"/>
	<path d="M58.3,54.2l-0.1-0.3l-0.2,0C58.2,53.9,58.3,54,58.3,54.2z"/>
	<polygon points="58.2,53.7 58.2,53.8 58.3,53.8 	"/>
	<path d="M59.2,53.5c-0.1,0-0.2,0-0.3,0.1c0.1,0.1,0.2,0.3,0.3,0.2C59.2,53.7,59.2,53.6,59.2,53.5z"/>
	<path d="M59,54L59,54C58.9,53.9,58.9,53.9,59,54z"/>
	<path d="M59.7,53L59.7,53L59.7,53C59.7,53,59.7,53,59.7,53z"/>
	<path d="M58.9,53.6c-0.1,0-0.1,0.1,0,0.2C58.9,53.7,58.9,53.6,58.9,53.6C58.9,53.6,58.9,53.5,58.9,53.6z"/>
	<path d="M59.7,53.7c-0.1,0-0.2-0.1-0.2-0.1C59.6,53.7,59.8,53.8,59.7,53.7z"/>
	<path d="M59,54L59,54C59.1,54.1,59.1,54,59,54z"/>
	<path d="M59,54c0-0.1-0.1-0.2-0.1-0.2C58.9,53.8,58.9,53.9,59,54C59,53.9,59,54,59,54z"/>
	<path d="M58.7,52c0-0.3,0.2,0,0.4,0.1c-0.4-0.3-0.3-0.7-0.9-1.2l0.1,0.3c-0.1-0.1-0.2-0.2-0.3-0.3c0.3,0.3,0.4,0.7,0,0.5
		c0.1,0.3,1.1,1.2,1.7,1.6c-0.1-0.1-0.2-0.2-0.3-0.5C59.2,52.4,58.8,52.3,58.7,52z"/>
	<path d="M59.7,53.1l-0.2,0.1l0-0.1l0,0.1c0.1,0,0.2,0.1,0.5,0.3C59.9,53.3,59.8,53.2,59.7,53.1z"/>
	<path d="M59.4,53.6L59.4,53.6L59.4,53.6C59.4,53.5,59.4,53.5,59.4,53.6C59.4,53.5,59.4,53.5,59.4,53.6c-0.1-0.1-0.1-0.1-0.1-0.2
		C59.4,53.4,59.4,53.5,59.4,53.6L59.4,53.6L59.4,53.6l0-0.4c-0.1,0-0.1,0.1-0.2,0.2C59,53,59,52.8,58.6,52.5
		c-0.1,0.1,0.2,0.3,0.2,0.5c0.1-0.3,0.1,0.2,0.4,0.3c0,0.1,0,0.1,0,0.2C59.3,53.5,59.4,53.6,59.4,53.6L59.4,53.6z"/>
	<path d="M56.8,52.7C56.9,52.8,56.9,52.8,56.8,52.7C56.9,52.8,56.9,52.7,56.8,52.7z"/>
	<path d="M57.9,53.5c-0.3-0.3-0.5-0.4-0.8-0.7c0,0.1,0.1,0.2,0.1,0.2C57,53,57,52.9,56.9,52.8c0.1,0.1,0.1,0.3,0.3,0.4l0-0.1
		C57.4,53.2,57.9,53.5,57.9,53.5z"/>
	<path d="M58,52.7c-0.2,0,0.1,0.2,0.2,0.3l0-0.3l-0.3-0.2L58,52.7z"/>
	<polygon points="59.9,53.2 60.2,53.5 59.9,53 	"/>
	<polygon points="60.2,53 60.1,52.9 60.4,53.2 	"/>
	<path d="M71.5,41.9c0,0.1,0.1,0.2,0.1,0.2C71.7,42.1,71.6,42,71.5,41.9z"/>
	<path d="M61.2,48.3L61.2,48.3C61.1,48.3,61.2,48.3,61.2,48.3z"/>
	<path d="M61,52.4C61,52.4,61,52.4,61,52.4C61,52.4,61,52.5,61,52.4z"/>
	<path d="M75,35C75,35,75,35,75,35C75,34.8,75,34.9,75,35z"/>
	<path d="M63.3,43.8L63.3,43.8L63.3,43.8C63.3,43.8,63.3,43.8,63.3,43.8z"/>
	<path d="M60.8,52.7c0,0.1-0.1,0-0.2,0c0.1,0.1,0.2,0.2,0.2,0.2L60.8,52.7z"/>
	<path d="M57.9,51.5C57.9,51.6,57.8,51.5,57.9,51.5l0.2,0.2C58.1,51.7,58,51.5,57.9,51.5z"/>
	<path d="M59.6,51.8c-0.3-0.3-0.3-0.1-0.3,0c0,0,0,0,0,0C59.7,52.2,59.6,52,59.6,51.8z"/>
	<path d="M59.2,51.9C59.4,52.1,59.3,51.9,59.2,51.9C59.3,51.8,59.3,51.9,59.2,51.9z"/>
	<polygon points="59,51.2 58.7,50.9 58.6,50.9 	"/>
	<path d="M59.4,50.7l-0.2,0c0.1,0.1,0.1,0.1,0.1,0.2C59.3,50.8,59.5,50.8,59.4,50.7z"/>
	<path d="M59.2,50.9c0,0,0-0.1,0-0.1C59.2,50.8,59.2,50.9,59.2,50.9z"/>
	<polygon points="58.8,50.6 58.6,50.6 58.7,50.7 	"/>
	<path d="M60.6,49.4c-0.1-0.1-0.2-0.2-0.2-0.1c0.1,0.1,0.1,0.2,0.2,0.3L60.6,49.4z"/>
	<path d="M59.3,49c0.1,0,0.2,0.1,0.3,0.2l-0.4-0.5L59.3,49z"/>
	<path d="M59.3,48.2c0.1,0.1,0.1,0.4,0.3,0.4C59.4,48.4,59.4,48,59.3,48.2z"/>
	<polygon points="61.9,47.5 61.8,47.5 62.5,48.2 	"/>
	<path d="M67.3,38.8L67,38.6l0.1,0.1C67.2,38.9,67.2,38.9,67.3,38.8z"/>
	<path d="M70.5,24.8C70.5,24.8,70.5,24.8,70.5,24.8c-0.1,0-0.1,0-0.1,0C70.6,25,70.4,25.1,70.5,24.8z"/>
	<path d="M70.5,24.8C70.5,24.7,70.3,24.6,70.5,24.8L70.5,24.8z"/>
	<path d="M70.4,25.7l0-0.1C70.4,25.5,70.3,25.5,70.4,25.7z"/>
	<path d="M70.4,25.3l0,0.3c0.1,0.1,0.2,0.3,0-0.1C70.6,25.6,70.4,25.4,70.4,25.3z"/>
	<path d="M70.5,25.3c0.2,0.1,0.3,0.1,0.3,0.4C71,25.4,70.7,25.1,70.5,25.3z"/>
	<path d="M69.5,25.6c0.1-0.1,0.1-0.3-0.2-0.5c0,0.2,0.1,0.4-0.3,0.4C69.2,25.7,69.4,25.6,69.5,25.6c0.1,0.1,0.2,0.2,0.3,0.3l0-0.2
		C69.7,25.6,69.6,25.6,69.5,25.6z"/>
	<path d="M69.9,26.1c0.1-0.1,0.1-0.2-0.1-0.3L69.9,26.1z"/>
	<polygon points="68.7,25.5 69,26 68.9,25.8 	"/>
	<path d="M68.7,26.1c-0.2-0.3-0.4-0.3-0.5-0.5c0,0.1,0.1,0.3,0.2,0.6C68.4,26,68.5,26,68.7,26.1z"/>
	<path d="M68.4,26.2c0,0.1,0.1,0.2,0.1,0.3C68.5,26.4,68.5,26.3,68.4,26.2z"/>
	<path d="M69.2,26l0.3,0.3l0,0C69.6,26.2,69.4,26,69.2,26z"/>
	<path d="M69.6,26.3L69.6,26.3c-0.1,0-0.1,0-0.1,0.1C69.5,26.3,69.5,26.3,69.6,26.3z"/>
	<path d="M69.6,26.2L69.6,26.2C69.7,26.3,69.7,26.3,69.6,26.2z"/>
	<path d="M70.9,26.9c-0.2-0.3-0.4-0.4-0.5-0.7C70.5,26.5,70.6,26.8,70.9,26.9z"/>
	<path d="M70,26.3l0.1,0.3l0.2,0C70.1,26.5,70,26.4,70,26.3z"/>
	<polygon points="70.1,26.7 70,26.6 70,26.6 	"/>
	<path d="M69,26.6c0.1,0.2,0,0.2,0,0.3c0.1,0,0.2,0,0.3-0.1C69.2,26.7,69.1,26.5,69,26.6z"/>
	<path d="M69.3,26.5L69.3,26.5C69.4,26.5,69.4,26.5,69.3,26.5z"/>
	<path d="M68.5,27.5C68.5,27.5,68.5,27.5,68.5,27.5L68.5,27.5L68.5,27.5z"/>
	<path d="M69.4,26.9c0.1,0,0.1-0.1,0-0.2C69.3,26.7,69.3,26.8,69.4,26.9C69.3,26.9,69.4,26.9,69.4,26.9z"/>
	<path d="M68.5,26.8c0.1,0,0.2,0.1,0.2,0.1C68.7,26.8,68.5,26.7,68.5,26.8z"/>
	<path d="M69.2,26.4L69.2,26.4C69.1,26.4,69.2,26.4,69.2,26.4z"/>
	<path d="M69.2,26.4c0,0.1,0.1,0.2,0.1,0.2C69.3,26.6,69.3,26.6,69.2,26.4C69.3,26.5,69.3,26.5,69.2,26.4z"/>
	<path d="M68.8,27.3L68.8,27.3c-0.1-0.1-0.2-0.2-0.5-0.3c0.1,0.2,0.2,0.3,0.2,0.4L68.8,27.3L68.8,27.3z"/>
	<path d="M69,27.1c0.1,0.1,0.1,0.1,0.2,0.2c0,0,0,0-0.1,0l0,0.3l0.3,0c-0.1,0-0.1-0.1-0.1-0.2c0.1,0.2,0.2,0.4,0.5,0.6
		c0.1-0.1-0.2-0.3-0.2-0.5C69.3,27.6,69.3,27.1,69,27.1c0-0.1,0-0.1,0.1-0.2c-0.1,0-0.2,0-0.2,0l0,0l0,0l0,0c0,0,0.1,0.1,0,0
		c0,0,0,0,0,0C68.9,27,68.9,27,69,27.1c-0.1,0-0.1-0.1-0.1-0.1l0,0l0,0l0,0.4C68.9,27.3,68.9,27.2,69,27.1z"/>
	<polygon points="68.4,27.5 68.3,27.3 68,27 	"/>
	<polygon points="68,27.5 68.1,27.6 67.9,27.3 	"/>
	<path d="M56.8,52.4C56.8,52.4,56.8,52.4,56.8,52.4C56.8,52.5,56.8,52.4,56.8,52.4z"/>
	<path d="M52.2,54.4c0,0,0-0.1,0-0.1C52.1,54.3,52.1,54.3,52.2,54.4z"/>
	<path d="M67.2,28.3C67.3,28.3,67.3,28.3,67.2,28.3C67.2,28.2,67.2,28.2,67.2,28.3z"/>
	<path d="M67.2,28.4C67.2,28.4,67.2,28.4,67.2,28.4c-0.1,0-0.1,0-0.1,0C67.2,28.4,67.2,28.4,67.2,28.4z"/>
	<path d="M67.5,27.7l0,0.2c0-0.1,0.1,0,0.2,0C67.6,27.8,67.4,27.7,67.5,27.7z"/>
	<path d="M68.7,28.7c0.3,0.3,0.3,0.1,0.3,0c0,0,0,0,0,0C68.6,28.3,68.6,28.5,68.7,28.7z"/>
	<path d="M69,28.6C68.9,28.4,69,28.6,69,28.6C69,28.6,69,28.6,69,28.6z"/>
	<path d="M67.3,28.7c0.1,0-0.4-0.4-0.2-0.3C66.7,28.1,67.3,29.1,67.3,28.7z"/>
	<polygon points="51.6,55 51.4,55.1 51.7,55 	"/>
	<path d="M52.4,55.2l-0.6,0.1l0.6,0C52.3,55.3,52.2,55.3,52.4,55.2z"/>
	<path d="M57.6,50.4C57.6,50.5,57.6,50.5,57.6,50.4c0.1,0,0.1,0,0.1,0C57.4,50.3,57.5,50.2,57.6,50.4z"/>
	<path d="M57.6,50.5C57.6,50.5,57.9,50.5,57.6,50.5L57.6,50.5z"/>
	<path d="M57.7,50.1l0.2,0.2c0.2,0.1,0.2,0,0.3,0.1C58.1,50.2,57.9,50.2,57.7,50.1z"/>
	<path d="M72.3,26.2C72.3,26.2,72.3,26.2,72.3,26.2C72.3,26.2,72.3,26.2,72.3,26.2z"/>
	<path d="M59.4,47.1C59.4,47.1,59.3,47.1,59.4,47.1C59.4,47.1,59.4,47.1,59.4,47.1z"/>
	<polygon points="59.8,38.9 59.8,39 59.8,39 	"/>
	<path d="M62.7,34.2L62.3,34l0.1,0.1C62.6,34.2,62.6,34.2,62.7,34.2z"/>
	<path d="M64.8,40.5c0.1,0.1,0.1,0.1,0.2,0.1L64.8,40.5z"/>
	<path d="M63.8,43.2l0.3,0.3C64.2,43.4,64,43.3,63.8,43.2z"/>
	<path d="M69.3,28.7c-0.2-0.1-0.3-0.2-0.2,0.1c0,0,0.1,0,0.1,0.1C69.2,28.8,69.2,28.7,69.3,28.7z"/>
	<path d="M58.5,50.1C58.4,50.1,58.4,50.1,58.5,50.1C58.4,50.1,58.5,50.1,58.5,50.1z"/>
	<path d="M53.5,49C53.5,49,53.6,49,53.5,49C53.5,48.9,53.5,48.9,53.5,49z"/>
	<path d="M71.3,27.7C71.2,27.6,71.2,27.6,71.3,27.7c-0.1,0-0.1,0-0.1,0C71.2,27.6,71.2,27.7,71.3,27.7z"/>
	<polygon points="63.7,43.1 63.7,43.1 63.8,43.2 	"/>
	<path d="M70.6,33.3c-0.1,0-0.1-0.1-0.2-0.2C70.5,33.3,70.5,33.3,70.6,33.3z"/>
	<polygon points="52.7,48.8 53,49 52.9,48.9 	"/>
	<path d="M53.3,49.6l-0.5-0.4l0.4,0.5C53.2,49.6,53.2,49.5,53.3,49.6z"/>
	<path d="M66.2,40.4c-0.1-0.1-0.2-0.1-0.2,0l0.3,0.1L66.2,40.4z"/>
	<polygon points="65.1,41.5 65.2,41.5 64.6,41.2 	"/>
	<path d="M59.3,57.4c-0.1,0,0.2,0.3,0.3,0.4C59.6,57.7,59.2,57.3,59.3,57.4z"/>
	<polygon points="59.5,56.2 59.3,55.8 59.4,56.1 	"/>
	<path d="M59.5,55.7l-0.1-0.1l0.3,0.5c0.1-0.2,0-0.6,0.2-0.6C59.4,55.1,59.8,55.8,59.5,55.7z"/>
	<path d="M61.2,56.4C61.3,56.4,61.3,56.4,61.2,56.4c0.1,0,0.1,0,0.1,0C61.2,56.2,61.3,56.1,61.2,56.4z"/>
	<path d="M61.3,56.4C61.2,56.5,61.5,56.5,61.3,56.4L61.3,56.4z"/>
	<path d="M61.5,56l0.1,0.3c0.1,0.1,0.2,0,0.3,0.2C61.8,56.2,61.7,56.1,61.5,56z"/>
	<path d="M61.2,55.5l0,0.1C61.3,55.7,61.3,55.7,61.2,55.5z"/>
	<path d="M61.3,55.9l-0.1-0.3c-0.1-0.1-0.3-0.2,0,0.1C61.1,55.6,61.2,55.8,61.3,55.9z"/>
	<path d="M60.8,55.6c-0.1,0.2,0.3,0.6,0.4,0.3C61,55.8,60.9,55.8,60.8,55.6z"/>
	<path d="M59.4,55.1c-0.1-0.1,0.3,0,0.1-0.1l-0.2-0.1L59.4,55.1z"/>
	<path d="M61.9,55.5c0.1,0,0.2,0,0.4,0.2c-0.1-0.1-0.3-0.3-0.5-0.4L61.9,55.5z"/>
	<path d="M61.8,55.3l-0.1-0.3C61.6,55.1,61.7,55.2,61.8,55.3z"/>
	<polygon points="60.7,54.9 60.6,55 60.9,55.5 	"/>
	<polygon points="62.6,55.4 62.8,55.7 62.5,55.2 	"/>
	<path d="M62.8,55.1c0.2,0.2,0.4,0.3,0.5,0.4c0-0.1-0.1-0.3-0.2-0.5C63.1,55.1,63,55.2,62.8,55.1z"/>
	<path d="M63.1,55c0-0.1-0.1-0.2-0.2-0.3C62.9,54.8,63,54.9,63.1,55z"/>
	<path d="M61.9,55c0.1,0.1,0.3,0.2,0.4,0.2L61.9,55L61.9,55z"/>
	<path d="M61.9,54.9L61.9,54.9c0.1,0,0.1,0,0.1-0.1C62,54.9,62,54.9,61.9,54.9z"/>
	<path d="M61.9,55L61.9,55C61.9,54.9,61.8,54.9,61.9,55z"/>
	<path d="M61.1,55c-0.1-0.2-0.2-0.5-0.6-0.7C60.8,54.6,61,54.7,61.1,55z"/>
	<path d="M61.4,54.6l-0.2,0c0.1,0.1,0.2,0.2,0.3,0.3L61.4,54.6z"/>
	<polygon points="61.4,54.5 61.4,54.6 61.5,54.6 	"/>
	<path d="M62.5,54.6c-0.1-0.2-0.1-0.2,0-0.3c-0.1,0-0.2,0-0.3,0.1C62.3,54.5,62.4,54.7,62.5,54.6z"/>
	<path d="M62.2,54.7L62.2,54.7C62.1,54.7,62.1,54.7,62.2,54.7z"/>
	<path d="M62.9,53.8C62.9,53.7,62.8,53.7,62.9,53.8L62.9,53.8L62.9,53.8z"/>
	<path d="M62.1,54.3c-0.1,0,0,0.1,0,0.2C62.1,54.5,62.1,54.4,62.1,54.3C62.1,54.3,62.1,54.3,62.1,54.3z"/>
	<path d="M62.9,54.4c-0.1,0-0.2-0.1-0.2-0.1C62.8,54.4,63,54.5,62.9,54.4z"/>
	<path d="M62.3,54.8L62.3,54.8C62.3,54.8,62.3,54.8,62.3,54.8z"/>
	<path d="M62.3,54.8c0-0.1-0.1-0.2-0.1-0.2c0,0,0,0.1,0,0.2C62.2,54.7,62.2,54.7,62.3,54.8z"/>
	<path d="M62.6,53.9L62.6,53.9c0.1,0.1,0.2,0.1,0.5,0.3c-0.1-0.2-0.2-0.3-0.3-0.4L62.6,53.9L62.6,53.9z"/>
	<path d="M62.5,54.1c-0.3-0.3-0.4-0.5-0.8-0.8c-0.1,0.1,0.2,0.3,0.3,0.5C62.1,53.6,62.1,54.1,62.5,54.1c0,0.1,0,0.1-0.1,0.1
		c0.1,0,0.2,0,0.2,0l0,0l0,0l0,0c0,0-0.1,0,0,0c0,0,0,0,0,0C62.5,54.2,62.5,54.2,62.5,54.1c0.1,0,0.1,0.1,0.1,0.1l0,0l0,0l0-0.4
		C62.5,54,62.5,54,62.5,54.1z"/>
	<path d="M60,53.6C60,53.6,60.1,53.6,60,53.6C60.1,53.6,60,53.6,60,53.6z"/>
	<path d="M61.1,54.3c-0.3-0.2-0.5-0.4-0.8-0.6c0,0.1,0.1,0.2,0.1,0.2c-0.1-0.1-0.1-0.1-0.3-0.2c0.1,0.1,0.1,0.3,0.4,0.4l0-0.1
		C60.6,54,61.1,54.3,61.1,54.3z"/>
	<path d="M61.3,53.9l0-0.3l-0.3-0.2l0.2,0.1C60.9,53.6,61.2,53.7,61.3,53.9z"/>
	<polygon points="63.1,53.9 63.4,54.2 63,53.7 	"/>
	<polygon points="63.2,53.6 63.5,53.9 63.4,53.7 	"/>
	<path d="M67.3,38.8c-0.1-0.1-0.1-0.1-0.2-0.1L67.3,38.8z"/>
	<path d="M67.1,48.1c0.4,0.1,0.9,0.3,0.5,0.1L67.3,48C67.3,48.1,67.2,48.1,67.1,48.1z"/>
	<path d="M64.8,51.3c0.2,0,0.3,0,0.3,0C64.9,51.2,64.6,51,64.8,51.3z"/>
	<path d="M65.2,51.3c0.2,0.1,0.3,0.1,0.1-0.2c0,0-0.1,0-0.1,0C65.2,51.1,65.2,51.2,65.2,51.3z"/>
	<path d="M79.2,31.2C79.2,31.2,79.2,31.3,79.2,31.2C79.2,31.3,79.2,31.3,79.2,31.2z"/>
	<path d="M64,52.9C64,52.9,64,52.9,64,52.9C64,53,64.1,53,64,52.9z"/>
	<path d="M64,52.8C64,52.8,64.1,52.9,64,52.8C64.1,52.9,64.1,52.8,64,52.8C64.1,52.8,64.1,52.8,64,52.8z"/>
	<path d="M72,33.6C72,33.6,72.1,33.7,72,33.6C72,33.5,72,33.5,72,33.6z"/>
	<polygon points="68.4,36.1 68.4,36.1 68.4,36.1 	"/>
	<path d="M63.6,53.3c0.1,0.1,0.2,0.2,0.2,0.2l0-0.2C63.8,53.4,63.7,53.3,63.6,53.3z"/>
	<path d="M62.5,52.6c-0.3-0.3-0.3-0.1-0.3,0c0,0,0,0,0,0C62.7,52.9,62.6,52.8,62.5,52.6z"/>
	<path d="M62.2,52.7C62.4,52.8,62.3,52.7,62.2,52.7C62.3,52.6,62.3,52.7,62.2,52.7z"/>
	<path d="M63.9,52.5c-0.1,0,0.4,0.3,0.2,0.3C64.6,53.1,63.9,52.2,63.9,52.5z"/>
	<path d="M62.2,51.5l-0.2,0c0.1,0.1,0.1,0.1,0.1,0.1C62.1,51.6,62.3,51.6,62.2,51.5z"/>
	<path d="M62.1,51.8c0,0,0-0.1,0-0.1C62,51.7,62,51.7,62.1,51.8z"/>
</g>
</svg>
