<?xml version="1.0" encoding="utf-8"?>
<!-- Generator: Adobe Illustrator 21.0.0, SVG Export Plug-In . SVG Version: 6.00 Build 0)  -->
<svg version="1.1" id="Layer_1" xmlns="http://www.w3.org/2000/svg" xmlns:xlink="http://www.w3.org/1999/xlink" x="0px" y="0px"
	 viewBox="0 0 371.1 415.6" style="enable-background:new 0 0 371.1 415.6;" xml:space="preserve">
<g>
	<polygon points="206.1,318 206.1,317.9 206.1,317.9 206.1,318 	"/>
	<path d="M365.2,163.4l-2.1,1.5l-2-0.4l-0.6-4.2l-15.8-11.9L334,131.2L112.5,34.5l-1.7-2.5L70.2,15.7l-2.3,1.4l-2.3-0.7l-1.4-3.6
		L21.5,0l-8.5,0.9L0.2,10.7L0,23.2l176.9,73.5l0.8,6.6l-26.1,22.6l-0.5,6.6l5,1.9l42.9-28.9l22.1,9.8l-0.3,9.7l-47.7,33.6l-1.5,5.9
		l5.6,16.8l-11.3,43l2.9,12.4l-3.8,12.2l-13,10.1l-6.4-1.4l-0.5-2.2l5.2-30.4l-2.8-2.4l-8.8,6.8l-12.6,46.7l-9.5,7.5l-4.1,1.3
		l2.8-39.1l-3.8-2.9L100,262.4l-13.7,67.9l-12.3,15.4l-5.8-1.5l9.7-41.1l-1.9-5.7L62,311.1l-25.1,66l-1.4,25.2l7.8,8.4l22.1,5
		l137.5-97.9l0.2-0.7l3,0.9l0.9-0.2l147.6-120.2l16.5-25.4L365.2,163.4L365.2,163.4z M121.1,313.5l-0.5,6.3l-16.5,6.9l2.4-11.7
		l8.4-6.3L121.1,313.5L121.1,313.5z M161,287.8l-6.5,11.5l-12.7,4.3l-2.3-5.8l9.8-14.7l7.6-1.3L161,287.8L161,287.8z M195.1,228.7
		l-3.3,3.2l-3.7,1.3l-1.2-4.8l4.7-13.8l5.8-0.8L195.1,228.7L195.1,228.7z M228.9,216.5l-9.4-3.6l-1.1-5.1l3.7-15.8l11.4-13.1
		l9.8,9.8l-5,16.7L228.9,216.5L228.9,216.5z M271.9,186.6l-13.6,5.1l4.3-32.8l0,0l0.4-0.4l4.8-1.2l5.5-4.5l4.2,8.3L271.9,186.6
		L271.9,186.6z M207.4,153.8l5.4,9l-18.1,22.5l-5.7-4.1l3.1-11.7l10.4-13.7L207.4,153.8L207.4,153.8z M57.6,407.5l-0.7-0.3
		L57.6,407.5L57.6,407.5L57.6,407.5z"/>
	<polygon points="205.6,318.4 206,318 205.7,318.1 205.6,318.4 	"/>
	<polygon points="206.1,318 206.1,317.9 206,318 206.1,318 	"/>
</g>
</svg>
