<?xml version="1.0" encoding="utf-8"?>
<!DOCTYPE svg PUBLIC "-//W3C//DTD SVG 1.1//EN" "http://www.w3.org/Graphics/SVG/1.1/DTD/svg11.dtd">
<svg version="1.1"xmlns="http://www.w3.org/2000/svg" xmlns:xlink="http://www.w3.org/1999/xlink" x="0px" y="0px"
	 viewBox="0 0 2175.3 507.9" enable-background="new 0 0 2175.3 507.9" xml:space="preserve">
<g>
	<path d="M2063.5,328.6c-1.9-7.6-1.2-14.8-5.3-21.1c-1.6-2.4-1.9-5.8-2.3-8.8c-0.8-5.2-1.6-10.4-4.2-15.1c-0.8-1.4-1.4-3-1.7-4.5
		c-2.8-11.9-7.4-23.1-10.4-34.9c-1.1-4.2-2.6-8.1-4.5-11.9c-2-4-3.8-8.1-4.7-12.5c-2.2-10.1-6.7-19.5-9.5-29.4
		c-1.2-4.3-3.3-8.2-3.7-12.8c-0.3-2.8-2.7-5.4-3.7-8.2c-4.2-11.4-9.2-22.6-12.4-34.3c-3.2-11.8-8.1-22.9-11.1-34.6
		c-0.4-1.4-0.4-2.8-0.6-4.2c-1-5.5-0.7-11.2-4.1-16.3c-2.1-3.2-1.7-7.4-1.4-11.3c0.1-1.3,0.7-2.4,2-2.8c1.5-0.5,2.3,0.6,2.9,1.6
		c1.3,2,2.8,4.1,3.6,6.3c3.3,9.4,6.4,18.8,9.4,28.3c1.1,3.3,2,6.6,3.8,9.6c0.8,1.4,1.4,2.9,1.9,4.5c4.6,17,10.2,33.7,17,50.1
		c4.6,11.1,7.6,22.7,12,33.8c6.3,15.6,12.3,31.2,17.9,47.1c4.2,12,8.5,24.1,11.6,36.4c1.7,6.5,3.4,12.9,6.1,19.1
		c0.4,0.9,0.7,1.9,0.9,2.9c3.1,15.5,8.6,30.4,13,45.6c4.5,15.6,9.7,31,15,46.3c2,5.7,4.2,11.4,5.7,17.3c0.6,2.3,1.7,4.6,2.9,6.7
		c2.7,4.6,5,9.2,6.6,14.3c1.4,4.2,3.7,8.1,5.9,12c4.7,8.5,9.5,16.9,14.2,25.5c4.5,8.2,8.8,16.5,13.1,24.7c0.6,1.1,0.9,2.2,1.4,3.4
		c0.8,2.2,0.1,4-1.4,5.6c-1.6,1.6-3.6,1.7-5.6,0.8c-2.9-1.3-5.1-3.2-6.5-6.1c-3.5-6.8-7.4-13.5-10.7-20.5c-2.2-4.8-5.7-8.8-7.9-13.7
		c-2.2-5.2-4.4-10.4-6.5-15.7c-4.1-10.2-9.8-19.6-15.8-28.8c-0.4-0.7-0.9-1.4-1.5-1.9c-11.5-10.2-17.9-23.8-24.7-37.2
		c-4.7-9.2-8.8-18.7-12.8-28.1c-5-11.5-10.9-22.6-15.2-34.4c-3.4-9.1-6.2-18.6-10.6-27.2c-4.4-8.5-7.9-17.3-11.6-26.1
		c-3.4-8.1-4.3-16.9-8.1-24.8c-3-6.3-5-12.8-5.4-19.8c-0.2-4.1-2.9-7.5-4-11.4c-2.5-8.8-4.6-17.8-9-25.8c-3.7-6.8-6-14.1-8.9-21.3
		c-1-2.4-1.6-5-2.2-7.6c-2.8-12.1-6.2-23.8-11.5-35.2c-5.7-12.3-9.4-25.5-12.2-38.8c-0.6-2.8-1-5.6-0.3-8.5c0.6-2.4,2.1-2.9,4-1.3
		c2.9,2.3,5,5.2,6.3,8.8c3.3,9.1,6,18.5,10.5,27.1c1,1.9,1.3,4.3,2.1,6.3c6.8,16.9,12.3,34.3,18.4,51.5c4.8,13.6,9.8,27.1,14.6,40.7
		c4.3,12.2,8,24.7,12.8,36.7c3.9,10,6.7,20.4,10.7,30.4c1.5,3.6,4.1,6.4,5.9,9.9c6.4,12.3,11.5,25,16,38
		C2060,324.6,2060.7,326.8,2063.5,328.6z"/>
	<path d="M1514.7,14.2c1.6,0.6,2.7,2,2.5,3.7c-0.4,3.6,1.3,6.3,3,9.1c3.2,5.2,5.7,10.7,7.5,16.6c0.4,1.4,0.9,2.8,1.7,3.9
		c7.7,10.2,9.9,22.5,12.9,34.4c1.5,6.3,4.5,12.1,7.3,17.9c5.2,11,8.6,22.6,11.9,34.4c4.3,15.4,9.5,30.6,14.2,45.9
		c3.8,12.3,11.4,22.8,14.5,35.3c0.2,1,0.6,2.1,1.2,2.8c5.4,5.8,6,13.5,8.2,20.6c4.1,12.9,7.5,26.2,13.1,38.5
		c5.8,12.8,10.6,25.8,14.8,39.2c1,3.4,3.2,6.1,4.8,9.1c4.2,7.7,6.3,16.3,10.6,23.9c7.4,13,12.2,27.4,21,39.7
		c2.9,4.1,5.3,8.6,5.9,13.9c0.5,3.7,2.4,6.9,4.6,9.9c1.6,2.3,1.5,4.5,0.4,6.9c-1,2.1-2.4,2.9-4.9,2.5c-5.5-0.8-9.7-2.9-12.6-8.1
		c-4.4-7.8-7.9-15.9-11.9-23.8c-4.1-8.2-7.9-16.4-11.8-24.7c-7.9-16.7-14.6-33.9-21.9-50.8c-5-11.7-10.2-23.4-14.1-35.5
		c-4.3-13.1-9.8-25.7-13.7-38.9c-2.8-9.4-7.4-18-10.7-27.2c-4.9-13.5-10.9-26.6-14.9-40.5c-5.3-18.5-10.6-37-16.5-55.3
		c-6.6-20.4-13.8-40.6-20.8-60.9c-0.7-1.9-1.3-4-2.4-5.6c-5-7-5.9-14.9-5.1-23.2c0.2-2.3-0.5-4.4-1.1-6.5c-0.5-1.8-0.8-3.6-0.1-5.4
		C1512.7,14.8,1513.3,14,1514.7,14.2z"/>
	<path d="M515.6,389.6c0.1,2.3-4.7,8.4-6.6,8.8c-3,0.6-5.2-1.2-6.6-3.4c-2.2-3.2-4.2-6.5-5.6-10c-2.5-6.5-6.1-12.4-9.9-18.1
		c-2.8-4.2-4.9-8.8-6.7-13.6c-3.2-8.7-6.7-17.3-11.4-25.4c-3-5.2-3.7-11.5-6.4-17c-1.3-2.7-2.5-5.5-4.3-8c-2.5-3.5-4.6-7.1-5.6-11.3
		c-0.7-3.1-2.7-5.6-4.8-8.2c-3.2-3.8-5.4-8.4-7.5-12.9c-2.8-5.8-6.6-11.2-7.5-17.9c-0.2-1.3-1.2-2.1-1.9-3c-1-1.3-2.1-2.6-2.7-4
		c-3.2-7.6-6.2-15.3-9.2-23c-1.8-4.5-3.1-9.2-5.8-13.3c-4-6.1-6-13.2-9.1-19.8c-2.7-5.6-5.4-11.3-7.9-17c-3.1-6.8-5.1-14-8.1-20.9
		c-2.5-5.9-4.8-12-8-17.6c-3.2-5.7-4.5-12-7.5-17.8c-2.1-3.9-3.7-7.9-6.2-11.6c-2.2-3.2-3.2-7.3-5.4-10.7c-6-9.6-9-20.6-14.6-30.4
		c-2.4-4.2-4.3-8.8-7.9-12.1c-0.9-0.9-2.1-2.5-1-2.9c3.2-1.2,5.6-4.5,9.2-4.2c3.6,0.3,5.4,3.1,6.5,6.4c1,2.9,2.7,5.2,5.1,7.3
		c3.4,2.9,6.1,6.5,7,11.1c0.3,1.8,1,3.6,1.9,5.1c6.7,10.2,10.6,21.8,16.6,32.4c6.7,12,12.3,24.6,17.7,37.3
		c5.3,12.7,10.3,25.5,16.7,37.7c1.8,3.4,2.5,7.3,3.9,10.9c4.1,11,11.1,20.6,15.5,31.5c3.7,9.2,7.6,18.3,11.2,27.5
		c0.8,2.1,1.6,4.4,3.1,5.8c4.5,4.3,6.6,10.1,9.7,15.2c2.5,4.1,3.3,9,5.6,13.3c0.8,1.6,1.3,3.5,2.4,4.9c6.8,8.8,9.9,19.4,14.4,29.3
		c5.5,11.9,12.1,23.3,15.9,35.9c2.6,8.8,8.9,15.9,11,24.9c0.3,1.3,1.7,2.3,2.4,3.5C514,386.1,514.9,388.1,515.6,389.6z M350.3,59.3
		c-1.4-3.2-2.6-5.3-5.8-6.7C344.8,56.4,346.3,58.3,350.3,59.3z"/>
	<path d="M1232.3,418.1c0.1,1.7-0.2,2.9-1.5,3.5c-0.9,0.5-1.9,0.9-2.6,1.5c-4.6,4-6,3.9-8.4-1.8c-4.1-9.7-7.7-19.6-11.9-29.3
		c-4.2-9.9-6.3-20.6-11.2-30.1c-7.1-13.5-10.5-28.5-17.3-42.1c-2.6-5.3-4.6-11.2-6-17.2c-1.5-6.3-4.4-12.2-6.3-18.4
		c-1.8-5.6-3.5-11.2-4.9-16.9c-2-8.1-5.6-15.7-8.3-23.5c-7.2-20.6-14.4-41.3-21.8-61.8c-3.4-9.3-6.3-18.8-9.4-28.2
		c-4.2-12.5-10-24.4-12.9-37.3c-1.6-7.1-5-13.7-6.8-20.8c-3.5-13.7-9.1-26.8-12.1-40.7c-1.1-5.3,0-8.9,3.6-11.3
		c2.2-1.4,3.8-1.1,5,1.2c0.4,0.7,0.8,1.4,1,2.2c3.1,9,5.7,18.1,9.3,26.9c2.8,6.8,4.4,13.9,6.9,20.7c5.4,14.8,10.7,29.7,16,44.6
		c0.7,1.9,1.4,3.8,2.3,5.6c4.7,9.7,7,20.2,10,30.5c1.6,5.4,3.7,10.7,6.2,15.8c3.2,6.6,6.7,13,8.1,20.2c2.2,11.6,8.1,22,11.3,33.2
		c4.6,16,11.7,31.1,15.8,47.3c1,3.9,2.5,7.7,5.4,10.8c1,1.1,1.3,2.5,1.6,3.9c0.3,1.4,0.5,2.8,1,4.1c3.9,8.9,5.7,18.5,8.9,27.6
		c1.8,5.1,4.2,10,6.3,15c4.1,9.7,8.1,19.4,11.4,29.4c0.6,1.9,1.3,3.9,2.2,5.7c4.6,8.7,6.1,18.4,8.7,27.8
		C1232.2,417,1232.3,417.8,1232.3,418.1z"/>
	<path d="M805.6,384.7c0.1,3.8-2.1,6.9-5.3,8c-3.1,1.1-4.9-1.1-6.7-3c-0.7-0.7-1.2-1.7-1.6-2.6c-6.6-13.2-14.5-25.7-19.5-39.7
		c-2-5.7-5.4-10.9-8.6-16.1c-1.4-2.3-2.7-4.5-3.6-7c-2.1-5.7-5.1-10.8-8.5-15.9c-4.8-7-8.6-14.7-10.8-23c-1.9-7.2-6.4-13.1-9.5-19.7
		c-4.4-9.2-9.6-18-13.3-27.6c-1.8-4.7-4.1-9.2-6.4-13.7c-3-6-4.8-12.4-7.3-18.5c-1-2.4-2.1-4.8-3.4-7.1c-2.2-3.7-4.1-7.4-4.6-11.8
		c-0.3-2.7-2.7-4.5-3.6-7c-4.5-11.7-8.8-23.5-13.4-35.2c-2.6-6.6-5.3-13.1-8.4-19.5c-1.9-3.8-3.3-7.8-4.7-11.8
		c-3.4-10.4-6.9-20.8-12.6-30.2c-0.9-1.5-1.4-2.9-1.4-4.6c0.1-3.1-0.9-6-2.2-8.8c-1.4-3.3-3-6.4-3.2-10.2c-0.2-2.9-2.5-5.8-4.1-8.6
		c-2.5-4.3-3.7-8.5-1.4-13.3c1-2,0.4-3.8-1-5.6c-2.2-2.8-2-6.1-1.1-9.3c0.4-1.4,1-2.8,2.7-2.8c1.6,0,1.7,1.5,2.1,2.6
		c0.8,2.3,1.5,4.6,2.3,6.9c0.3,1,0.3,2.1,0.9,2.9c4.4,5.7,6,12.7,9.5,18.9c4.9,8.7,8.4,17.9,11.6,27.3c3.3,9.5,8,18.6,11.4,28.1
		c2.7,7.4,5.4,14.8,8.4,22.1c2.3,5.6,4.2,11.3,7.2,16.7c2.8,4.9,4.1,10.5,6.1,15.8c2.6,6.8,5.2,13.7,8.3,20.2
		c5.8,12.2,10.8,24.9,17,37c2.3,4.4,4,9.2,4.7,14.3c0.4,2.8,1.4,5.5,3.5,7.7c2.4,2.6,4.2,5.6,4.9,9c1.2,6,6.1,9.9,8.2,15.4
		c3.7,9.6,8.9,18.6,13.1,28.1c2.6,5.8,5.1,12,9.8,16.7c1.1,1,1.6,2.3,2,3.7c0.3,1.2,0.6,2.5,1.3,3.4c7.7,9.2,10.5,20.9,15.7,31.3
		c3.7,7.7,7.6,15.2,11.4,22.8C803.7,375.7,804.6,380.5,805.6,384.7z"/>
	<path d="M948,397.4c-3.4,1.2-5.4-0.8-6.5-4.1c-2.4-7.5-6.3-14.6-7.6-22.4c-0.7-3.7-2.7-6.7-4.2-10c-4.3-9.6-7.7-19.6-10.9-29.7
		c-2.3-7.1-4.8-14.2-7.2-21.3c-4.1-12.7-10-24.8-13.4-37.7c-1.1-4.1-2.9-7.9-5.4-11.5c-2.2-3.3-3.5-7.3-4.9-11.1
		c-3.9-10.2-8.3-20.2-10.9-30.9c-1.3-5.5-3.7-11-5.8-16.4c-4.6-12.1-10.8-23.6-14.4-36.1c-1.4-4.8-4-9.3-5.9-14
		c-0.8-1.9-1.6-3.8-1.9-5.8c-0.5-4.1-1.8-7.5-4.2-11.1c-2.6-3.9-4.3-8.8-5.4-13.5c-1.2-5-3.9-9.3-5.6-14.1c-1-2.9-2.3-5.6-3.1-8.6
		c-1.3-4.5-2.8-8.8-5-13c-1.6-3-2.9-6.3-3.7-9.6c-0.7-3.1-2-5.7-3.8-8.2c-2.6-3.7-4-7.8-5.1-12.2c-1.3-5.1-2.8-10.1-3.6-15.3
		c-0.2-1-0.3-2.3-1-2.8c-4-3-4.1-7.2-3.8-11.5c0.2-2.5-0.8-4.7-2.2-6.8c-1.2-1.7-2-3.8,0.3-5.2c2.2-1.3,3.9,0.1,5.2,1.8
		c3.2,4.5,6,9.2,8.3,14.1c4.3,9.2,8.3,18.4,11.9,27.9c3.4,9.1,7.9,17.7,11.7,26.7c3.1,7.2,5.9,14.6,8.1,22.2
		c2.4,8.2,7.2,15.4,10.4,23.2c0.7,1.7,2,3.2,2.2,5c1.5,9,6.3,16.6,9.4,24.9c7.3,19.7,16.3,38.8,22.7,58.9c3.6,11.3,9.3,22,13.4,33.2
		c1.5,4.2,3.6,8.2,3.8,12.8c0.1,1.7,0.9,3.1,1.7,4.5c5.2,8.4,7.8,17.7,11,26.9c5.9,17,10.5,34.5,17.9,51c1.2,2.8,1.8,5.8,2.9,8.6
		c3.5,9.7,7.1,19.4,10.6,29.1c0.4,1.1,0.8,2.3,1.1,3.5C956.6,395.9,955.6,397.2,948,397.4z"/>
	<path d="M572.5,82c0,1.8,0.1,2.6,0,3.3c-0.1,0.6-0.4,1.2-1.1,1.3c-0.7,0.1-1.1-0.4-1.4-1c-0.9-2-1-4,0.1-5.8c2.5-4.1,2-8-0.3-12
		c-1.2-2.1-2.2-4.4-2.9-6.7c-0.5-1.5-0.7-3.5,1.3-4.2c1.5-0.5,2.7,0.7,3.3,2c1.8,3.4,3.7,6.8,3.4,10.9c-0.2,2.2,0.7,3.7,1.9,5.5
		c4.4,6.5,8,13.4,11.7,20.3c5.8,10.9,9.9,22.6,15.9,33.4c10.4,18.7,20.5,37.7,27.4,58.1c1.9,5.7,5.3,10.4,7.9,15.7
		c3.6,7.5,6.3,15.4,9.4,23c3.7,9.1,7.2,18.5,12.3,27c1.2,2.1,2.2,4.3,3.1,6.6c3.5,8.6,6.9,17.2,13.6,24.1c1.9,2,3,4.9,3.3,7.7
		c1.6,13.5,8.5,25.2,13.5,37.5c2.1,5,4.5,9.9,6.4,15.1c2,5.3,4.2,10.5,6.4,15.8c2.8,6.7,6.5,13,9.4,19.6c2.7,6,5.7,12,7.2,18.6
		c0.7,3.2,2,6.2,4.5,8.5c2.7,2.4,2.7,5.2,2.2,8.3c-0.7,4.3-3.6,5.6-7.2,3.1c-0.7-0.5-1.6-1.5-1.8-1.4c-5.1,3.2-4.6-2.3-6.6-4
		c-3.7-3.3-4.9-7.6-6.7-11.9c-4.4-10.6-8.7-21.4-13.4-31.8c-3.5-7.7-7.8-15.1-10.5-23.2c-3-9.2-6.9-18.1-10.5-27.1
		c-1.2-3.2-1.5-6.7-2.8-9.9c-2.5-6.6-7.7-11.9-9-19.1c-0.1-0.5-0.7-1-1.2-1.4c-2.6-1.9-4.2-4.7-5-7.5c-2.6-8.8-6.5-17-9.9-25.4
		c-0.8-1.9-1.3-3.8-2.4-5.5c-6.5-9.7-10.7-20.6-14.1-31.5c-2-6.6-5.1-12.2-8.6-17.8c-3.9-6.2-5.6-13.4-8.1-20.2
		c-0.4-1.1-0.7-2.4-1.3-3.4c-6-10.1-10.4-21-15.1-31.8c-2.2-4.9-4.4-10.2-7.6-14.5c-5.3-7-6.9-15.5-10.5-23.1
		c-1.8-3.8-4.6-7.1-5.8-11.2c-0.9-2.9-2.6-5.5,0.9-8.1C576,86.4,575.2,84.3,572.5,82z"/>
	<path d="M593.4,42.9c-0.4,3.6,2.5,6.8,4.6,10.2c0.7,1.2,2.3,2.1,2.6,3.3c1.6,6.3,6.5,10.7,9.3,16.3c1.4,2.7,2.9,5.4,3.5,8.4
		c1.1,6,3.8,11,8.2,15.2c1.5,1.4,2.6,3.3,3,5.2c2.3,10.4,8.2,19.4,12.1,29.1c1.7,4.1,3.5,8.2,5.1,12.4c3.2,8.1,7.9,15.5,11.8,23.3
		c6.6,13.2,13.1,26.5,18.6,40.2c2.3,5.8,6.2,10.8,8.6,16.7c1.7,4.1,3.7,8.2,5.2,12.3c2.5,6.9,5.9,13.3,9.3,19.8
		c4.2,8.1,6.6,17,11.1,24.9c6,10.4,9.6,21.9,15.8,32.1c3.2,5.3,4.9,11.5,8.2,16.9c2.4,3.8,5.1,7.2,9.2,9.5c4.4,2.4,7.4,6.2,8.1,11.5
		c0.2,1.6,0.5,3.4,1.4,4.6c4.5,6.2,7.9,13.2,11.6,19.8c3.4,6,4.9,12.7,3.3,19.8c-0.3,1.3-0.9,2.3-2.3,2.4c-3.1,0.3-5.8-1.5-8.9-1.6
		c-1.8-0.1-2.7-2.2-3.8-3.7c-3-4.3-6.1-8.5-8.9-12.9c-3.9-6.2-7.3-12.5-10.5-19.1c-3.1-6.3-7.1-12.2-9.2-19
		c-0.5-1.7-1.3-3.5-1.4-5.3c-0.2-2.4-1.3-4-2.8-5.8c-5.8-6.5-10.5-13.7-13.7-22c-2.2-5.8-5.5-11.2-7.7-17.1
		c-2.7-7.2-6.2-14-9.1-21.1c-5-11.9-9.7-23.9-15.9-35.4c-7.1-13.1-13.4-26.8-17.8-41.2c-2.1-6.7-5.8-12.5-9.1-18.5
		c-2.1-3.9-4.5-7.6-6-11.9c-1.3-3.8-3.1-7.5-5.7-10.7c-0.5-0.6-1.2-1.3-1.3-2c-1.8-8.6-7.2-15.8-9.1-24.3c-1.1-4.9-3.6-9-6.7-12.8
		c-2.9-3.5-5.1-7.3-5.4-12c-0.2-2.8-2.2-4.7-3.4-7c-0.9-1.8-1.9-3.6-2.5-5.5c-0.5-1.6-0.2-3,2.1-2.3c1.1,0.3,2.1,0,2.4-1.1
		c0.4-1.6-0.9-2.3-2-2.5c-3.9-0.7-5.5-3.8-7.4-6.7c-0.7-1.1-1.3-2.1-0.5-3.3c1.2-1.8,0.6-3.6,0-5.3c-3.5-9.8-5.5-20.3-11.3-29.1
		c-3.7-5.7-8.1-11-12.4-16.4c-1.4-1.8-2.7-3.3-0.7-5.2c1.9-1.7,3.8-0.9,5.3,0.7c1.8,2,4.7,3.4,3.5,7.1c-0.5,1.5,1.3,1.8,2.2,2.4
		c4.6,3,6.2,8.4,9.5,12.4C594.3,39.5,593.7,40.8,593.4,42.9z"/>
	<path d="M508.2,55.9c2.6-0.2,3.4,1.2,4.1,2.7c2.7,5.2,6.2,10.2,8,15.6c3.2,9.5,8.6,17.9,12.3,27.1c7.5,19.2,17,37.6,25.9,56.3
		c3.6,7.5,6.4,15.4,10.4,22.6c6.8,12.2,11.5,25.4,18.8,37.4c3.7,6.1,7.1,12.8,9.3,19.8c1.4,4.5,3.9,8.6,6.5,12.3
		c3.7,5.3,5.3,11.3,8.2,16.9c6.3,12.2,12.8,24.3,18.4,36.9c4.2,9.4,8.9,18.6,13.4,27.8c5.9,12.1,11.1,24.5,18.9,35.8
		c4.9,7.2,9.1,15.3,12.1,23.8c1.6,4.6,4.6,8.6,5.4,13.5c0.3,1.4,0.8,3-0.5,3.9c-1.4,1-2.7-0.1-3.7-1.1c-2-1.9-3.9-3.8-6.7-0.9
		c-0.7,0.7-1.6,0.2-2.2-0.4c-1.5-1.3-3.3-2.4-3.9-4.5c-2.9-9.6-9.4-17.3-14.1-26c-2.6-4.8-5.6-9.3-7.5-14.5
		c-0.4-1.1-1.1-2.2-1.8-3.1c-2.7-3.3-4.4-7.2-6.1-11.1c-3.8-8.9-7.8-17.7-12.3-26.3c-5.5-10.6-11.6-20.9-15.3-32.4
		c-0.7-2.3-1.6-4.6-3.2-6.5c-1.7-2.1-2.8-4.5-3.4-7.1c-1.2-5.9-4.6-10.7-7.9-15.5c-2.8-4-4.7-8.6-6.1-13.2c-1-3.2-2.2-6-4.3-8.5
		c-2.8-3.3-4.4-7.3-6.1-11.2c-1.4-3.1-2.9-6.2-4.3-9.4c-3.9-8.8-8-17.5-12.1-26.2c-4.7-9.9-9.7-19.6-14.1-29.6
		c-2.4-5.5-4.4-11.4-7-16.8c-3.4-7.2-4.8-15.4-10.4-21.7c-1.7-1.9-2.7-4.6-3.5-7c-4.3-13-12.1-24.3-16.8-37
		c-0.6-1.5-1.4-2.9-2.1-4.4c-1.5-3.6-4.6-7.1-0.4-11c0.5-0.5,0.1-1.9,0.1-2.9C504.4,57.3,506.7,56.8,508.2,55.9z M532.1,124.8
		c0.2,0.8,0.5,1.6,1.4,1.8c0.7,0.2,1.2-0.3,1.1-1c0-0.9-0.5-1.6-1.3-1.8C532.6,123.7,532.2,124.1,532.1,124.8z M522.7,103.1
		c0.3-0.2,0.7-0.4,0.8-0.7c0.2-0.6,0-1.2-0.7-1.3c-0.2,0-0.7,0.4-0.8,0.6C521.9,102.3,522,102.9,522.7,103.1z"/>
	<path d="M1083,397.5c0.1,3.2-2.6,6.3-5.9,7.3c-2.6,0.8-4.8-0.2-6.3-3.4c-2.9-6.5-6.1-12.7-8.7-19.3c-3.2-8-5.6-16.5-9.9-24.1
		c-3.1-5.3-4.6-11.2-6.3-17c-3.9-13.3-9.8-25.8-14.1-38.9c-2.4-7.3-5.3-14.5-7.8-21.8c-1.7-5-2.4-10.2-4.3-15.1
		c-4.4-11.1-8.4-22.3-12.6-33.5c-2.9-7.8-5.8-15.5-8.6-23.3c-0.5-1.4-1.3-2.5-1.8-3.8c-2.2-4.8-4.9-9.4-5.3-14.8
		c-0.1-0.8-0.2-1.7-0.6-2.4c-5.4-9.2-7.1-19.8-11.1-29.5c-1.7-4.1-2.8-8.5-4.1-12.7c-3.4-11.2-6.6-22.5-10.4-33.6
		c-1.6-4.7-4.1-9.2-6-13.9c-3.9-10-6.5-20.5-11-30.3c-0.7-1.5-0.9-3.1-1.3-4.7c-2.4-9.3-4.4-18.8-8.4-27.6c-1.4-3-0.8-5,1.9-6.8
		c3.2-2.1,5.3-1.3,6.7,2.4c1.6,4.1,3.1,8.4,5.3,12.2c4.9,8.3,7.5,17.5,10.5,26.5c2.8,8.3,5.5,16.5,9.8,24.2c3,5.4,4.3,11.8,6.6,17.6
		c4.6,11.3,7.3,23.2,11.2,34.6c7,20.1,13,40.5,22.5,59.7c1.8,3.6,3.2,7.4,3.7,11.5c0.7,5.9,4.3,10.8,6.5,16.2
		c2.2,5.4,5,10.6,6.4,16.3c2.8,11.2,6.4,22.4,10.7,32.9c6.5,15.7,10.6,32.2,17,47.9c3.1,7.7,4.2,16.1,7.8,23.6
		c3.5,7.3,6.3,14.9,9.5,22.3c2.6,6.1,5.5,12.2,7.7,18.5C1082.7,396,1082.9,397,1083,397.5z"/>
	<path d="M1001.4,50.6c1.8,1.5,3.5,3.5,3.5,5.5c-0.1,3.1,1.7,4.6,3.3,6.7c2.3,3.1,4,6.4,4.9,10.3c1.2,5.5,3.4,10.8,4.8,16.3
		c1.8,7.5,4.2,14.7,6.6,22c1.3,3.9,3.6,7.3,5,11c3.3,8.9,6.6,17.9,10.1,26.8c5.5,13.7,10.1,27.8,14.7,41.8
		c2.5,7.6,5.5,15.3,9.7,22.3c0.7,1.2,1.8,2.4,1.9,3.7c1,9.8,5.5,18.6,9.5,27.3c5.9,12.9,9.9,26.5,14.7,39.8c4,11,9.2,21.6,12.4,32.9
		c1.3,4.7,3.3,9.2,5.4,13.6c3.1,6.5,4.6,13.4,7.1,20.1c0.2,0.6,0.3,1.3,0.6,1.7c4.5,5.7,5.5,13,8.9,19.1c0.6,1,1.4,2.1,1.5,3.3
		c0.8,10.1,6.5,18.5,9.6,27.8c1.1,3.3,2.2,6.3-1.9,8.2c-1,0.5-1.1,1.6-1.6,2.5c-1.6,2.8-2.8,3-5.1,1.1c-1.4-1.2-2.5-2.7-3.1-4.4
		c-3.7-9.9-7.6-19.7-12.3-29.1c-1.4-2.7-1.5-5.8-2.5-8.7c-3.4-9.6-8.1-18.5-11.9-27.9c-2.4-6-4.7-12.1-7.4-17.8
		c-2.9-6.1-4.4-12.6-6.7-18.8c-7.5-20.7-16.7-40.9-24-61.7c-3.9-11.1-8.5-21.9-12-33.1c-2.1-6.7-5.7-12.9-7.7-19.8
		c-2.2-7.8-5.6-15.2-7-23.2c-0.3-1.8-1.1-3.5-1.8-5.2c-6.8-16.3-13.7-32.5-18.4-49.5c-1-3.7-2.7-7.2-3.9-10.9
		c-0.7-2.1-1.8-4.2-2.1-6.4c-1.6-12.5-6.5-24.2-9.7-36.3c-1.2-4.4,0.4-7.4,3.1-10.4C1000.2,51.1,1000.8,50.9,1001.4,50.6z"/>
	<path d="M915.5,387.2c0.1,4-1.3,5.6-5.1,6.1c-5.2,0.6-8.6-1.2-10.9-5.9c-5.1-10.1-10.2-20.2-15.3-30.2c-1.2-2.4-2.4-4.7-3.2-7.2
		c-5-16-11.8-31.4-16.9-47.4c-1-3.1-3.2-5.5-4.5-8.6c-5.5-13.3-11.9-26.2-17-39.6c-4.8-12.7-10.4-25-15.4-37.6
		c-3-7.6-4.3-15.5-6.9-23.1c-0.5-1.5-0.6-3.3-1.5-4.6c-5.5-8-7.4-17.5-11.1-26.2c-1.8-4.3-2.7-8.8-4.5-13.2
		c-3-7.1-7.2-13.6-10.4-20.6c-1.6-3.4-2.1-7-3.7-10.3c-3.7-7.9-7.4-15.7-10.7-23.7c-3.2-8-7.7-15.6-8.9-24.5
		c-0.5-3.9-3-7.5-3.3-11.6c-0.1-1.6,3.4-7.5,4.8-7.8c1.7-0.4,2.5,1.1,3.3,2.2c3.8,5.3,6.8,11,9.3,17c5.8,13.8,11.4,27.7,17.3,41.5
		c2.1,4.8,4.1,9.7,6.8,14.2c1.7,2.9,3.1,6,4.2,9.4c1.5,4.6,3,9.2,5.6,13.4c2.7,4.3,4.3,9.2,5.9,14c3.9,11.5,8.1,22.8,12.9,34
		c2.6,5.9,5,11.9,6.3,18.4c1.2,6.4,5,11.9,7.4,17.9c2.9,7.1,6.1,14.1,9.3,21.1c5.4,12,9.7,24.5,15.9,36.1c3.5,6.7,5.1,14.1,8.2,21
		c5.5,12.4,8.5,25.8,14.7,37.9c5.8,11.3,11,22.9,16.5,34.4C915.3,384.9,915.6,386,915.5,387.2z"/>
	<path d="M1486.9,403c0.2,4.6-1,6.7-3.7,7.6c-3.5,1.1-5.4-1-7-3.4c-4-6.2-6.3-13.2-9-19.9c-2.5-6.4-5.2-12.7-6.1-19.7
		c-0.4-3.2-1.7-6.3-3-9.2c-6.1-13.9-10.8-28.4-17-42.3c-2.7-6.1-4.4-12.6-6.1-19.1c-1.6-6.1-3.8-11.9-6.4-17.6
		c-3.9-8.5-6.3-17.6-9-26.5c-4.1-14-9.3-27.6-15-41.1c-2.8-6.7-4.6-13.8-6.8-20.8c-1.9-6.2-4.1-12.3-7.4-17.9
		c-3.4-5.8-6-12.1-7.6-18.5c-3.5-13.6-9.5-26.3-13.5-39.7c-1.9-6.2-3.3-12.7-6-18.5c-5.6-11.8-6.4-25.1-12.1-36.8
		c-0.9-1.8-1.5-3.8-1.4-5.9c0.1-1.9-1.1-4.2,1.3-5.4c2.2-1.1,6.7,0.2,8.2,2.1c2.5,3.3,3.5,7.3,4,11.3c0.2,1.9,0.5,3.5,1.6,5.1
		c4.5,6.4,7.3,13.4,9.4,20.9c1.9,7,5.6,13.4,7.7,20.4c3.7,12,8,23.8,12.1,35.6c0.3,0.8,0.4,1.6,0.8,2.3
		c8.7,14.4,12.2,30.8,18.2,46.3c2.5,6.6,6.2,12.7,8,19.6c2.7,10.2,6.8,19.9,9.1,30.2c0.7,3.1,2,6.2,3.5,9c4.4,8.1,6.7,16.9,8.7,25.8
		c1.2,5.5,3.8,10.6,5.8,15.9c3.4,8.9,6.3,18,11.8,26c0.4,0.7,0.7,1.5,0.9,2.3c3.3,17.7,10.9,33.9,17,50.6c3,8.4,5.5,17,8,25.5
		C1486.5,399.3,1486.6,401.6,1486.9,403z"/>
	<path d="M1034.1,56.2c2.4,0.1,2.4,2,3.4,2.9c1.2,1.1,2.3,1.2,3.8,0.3c3.7-2.1,4.1-2.1,5.7,1.4c3.2,6.8,6.7,13.6,8.8,20.7
		c2.2,7.3,6.2,13.6,9.5,20.3c0.4,0.9,1.3,1.7,1.5,2.6c1.6,7.8,5.9,14.6,8.9,21.9c0.8,1.9,1.6,3.6,2.9,5.2c0.9,1,2.1,2.4,2.1,3.6
		c0.1,6.7,4.2,11.8,7,17.2c5.9,11.4,10,23.4,14.2,35.5c0.5,1.3,0.8,2.8,1.5,4c6.2,10.7,9.4,22.7,14.5,34c3.8,8.4,6.2,17.5,8.3,26.6
		c0.8,3.6,1.5,7.1,3.5,10.3c1.3,2.1,1.6,4.6,2.2,6.9c0.5,2,0.9,4,1.9,5.8c5.2,9.7,7.8,20.5,12.7,30.2c1.6,3.2,1.8,6.6,3,9.9
		c5.3,14,9.9,28.2,15.9,41.9c3.5,7.9,6.6,16.1,12.1,23.1c2.7,3.4,2.5,7.6,2.3,11.7c-0.2,3.3-0.9,3.6-4.7,3c-0.4-0.1-0.9-0.4-1.2-0.2
		c-6.5,2.3-8.5-2.5-10.8-6.7c-1.8-3.2-3.5-6.4-5.3-9.6c-1-2-2.5-3.9-2.9-6c-1.4-8-6.1-14.6-9.1-21.9c-2.4-5.8-4.3-11.7-6.3-17.6
		c-1.9-5.5-4.3-10.9-6.1-16.5c-2.9-8.8-6.8-17.4-9.8-26.2c-2.7-7.9-7.1-15.2-9-23.2c-2.5-10.7-6.7-20.8-10-31.3
		c-3.4-10.6-7-21.1-12.1-31.1c-2.6-5.2-4.2-10.9-6.3-16.4c-2.7-7-5.5-14-8-21c-3.8-10.3-8.8-20-13.3-30c-2.8-6.1-4.9-12.4-7.7-18.5
		c-6.2-13.8-11.7-28-17.5-42.1c-0.9-2.3-2-4.5-2.3-6.9C1036.8,65.5,1035.8,60.9,1034.1,56.2z"/>
	<path d="M1394.8,364.4c1.6-3.9-0.2-7.6-1.2-11.6c-3.6-14.5-10.5-27.7-15.9-41.4c-4.1-10.3-8.1-20.7-12.2-31.1
		c-0.5-1.3-0.8-2.9-1.6-3.9c-3.7-4.6-5.3-10.1-6.7-15.5c-3.6-14.1-10.5-26.8-15.5-40.3c-3.2-8.7-7.6-17.1-10-26
		c-1.6-5.9-4.6-10.6-7.4-15.7c-1-1.8-1.9-3.6-2.6-5.5c-3.5-8.8-6.3-18-10.5-26.5c-4.4-9-6.7-18.7-10.4-27.8
		c-3.8-9.2-6.2-18.9-10.7-27.7c-1.8-3.4-1.1-7.2-2.2-10.7c-1.5-4.6-3-9.3-4.7-13.8c-1-2.8-0.9-5.6-0.4-8.4c0.3-1.7,1.1-3,3-3.3
		c1.9-0.4,3.1,0.5,4.1,1.9c0.5,0.6,1,1.3,1.2,2.1c3.7,13,10.4,24.9,13.9,38.2c2.3,8.8,6.6,17.4,10.5,25.8c4.3,9.1,7.9,18.6,11.6,28
		c0.7,1.7,1,3.6,2,5.1c3.7,5.2,5.2,11.4,7.3,17.3c1.6,4.4,3.9,8.4,6.5,12.3c3.9,5.9,6.2,12.7,8.8,19.3c3.3,8.1,6.8,16,10.4,24
		c0.7,1.5,1.6,2.9,1.8,4.5c1.2,11.9,6.8,22.4,11.1,33.3c2.9,7.3,5.7,14.7,8.7,22c6.8,16.3,12.5,33,20.4,48.8c2.2,4.4,4,8.8,4.8,13.6
		c0.6,3.8,2.2,7.3,3.7,10.9c3.1,7.5,5.8,15.1,8.6,22.8c3,8.2,5.5,16.6,8.7,24.6c1.8,4.6-0.4,7.7-5.4,9.7c-1.6,0.6-2.7-0.1-3.8-1.1
		c-1.8-1.7-3.2-3.7-4.1-6c-2.4-5.8-5.6-11.2-8-17c-1.7-4.3-4.4-8.2-6.6-12.3c-1.8-3.4-3.8-6.8-4.2-10.7c-0.2-1.7-1-3.1-2.2-4.2
		C1394.7,367,1394.4,365.9,1394.8,364.4z"/>
	<path d="M409.1,71c1.4-0.4,2,0.5,2.7,1.2c0.7,0.7,1.3,1.6,2.6,1c1.2-1.5-0.6-2.6-0.7-3.9c-0.1-2.2,0.9-4.2,2.7-5.1
		c2.2-1.1,3.2,1.1,4.1,2.6c2.2,3.9,4.3,7.8,6.2,11.8c5.9,12.6,11.4,25.4,17.5,38c5.6,11.6,10.9,23.5,15.1,35.8
		c1.5,4.6,3.4,9.1,6.8,12.8c1.3,1.4,1.8,3.1,2.5,4.8c3.4,9.8,7.2,19.4,13.7,27.7c0.7,0.9,1.4,2,1.7,3.2c1.9,7.3,6.3,13.6,9,20.6
		c1.9,5,5.6,8.8,7.9,13.6c1.5,3.1,3,6.3,3.9,9.5c3.5,11.8,9.4,22.3,16.4,32.3c1.9,2.8,3.3,6.1,4.5,9.3c3.1,8.2,7.7,15.6,12.4,22.9
		c3.9,6.1,7,12.7,9.5,19.5c1.7,4.5,4.3,8.3,7.1,12c1.1,1.5,2.2,2.9,2.7,4.7c2.6,9.2,7.2,17.5,12,25.7c1.2,2.1,2.1,4.4,2.5,6.8
		c0.7,4.3-1.2,6.2-5.6,6.3c-4.1,0.1-6.2-1.4-8.4-5.2c-3.6-6.2-8.2-12-11.5-18.4c-5-9.7-10.6-19.1-14.7-29.2c-2.8-7-5.4-14.1-9.9-20
		c-6.2-8.1-9.8-17.5-14.8-26.1c-2.4-4.2-4-8.9-5.9-13.3c-1.5-3.5-2.7-7.1-5.7-9.8c-1.5-1.4-1.9-3.9-2.9-5.9
		c-5.7-11.4-9.4-23.9-16.5-34.5c-5.1-7.7-8.9-15.9-12.1-24.3c-2.1-5.4-5.1-10-7.7-15c-3.7-7.3-7.9-14.6-10.3-22.2
		c-3.1-9.9-7.9-18.9-11.9-28.2c-1.9-4.4-5.6-8.4-5.2-13.8c0.1-1.4-1.1-2.6-2-3.6c-3.2-3.8-5-8.3-6.6-12.9c-3-8.8-5.6-17.7-10.3-25.9
		c-0.5-0.9-0.8-1.9-1-2.8C408.8,72.1,409,71.5,409.1,71z"/>
	<path d="M1811.5,63.2c2.1,5.6,4.7,10.4,5.6,15.5c1.6,8.6,4.6,16.7,7.6,24.7c6,16,10.6,32.4,16.8,48.3c2.9,7.5,4.7,15.5,7.4,23.2
		c1.3,3.6,3.1,7.1,4.4,10.7c4,10.6,7.7,21.3,11.8,31.9c8.5,21.7,13.9,44.5,23.6,65.8c4.5,9.9,7.7,20.5,12.3,30.4
		c5,10.6,8.1,22,12.8,32.6c8.3,18.6,13.9,38.1,21.1,57c2,5.1,5.2,9.6,6.6,15c1.1,4.2,0.5,7-2.3,8.5c-2.4,1.4-5.3,0.6-8.1-2.3
		c-0.8-0.9-1.9-1.7-2.4-2.8c-3.1-7.4-7.2-14.3-10.6-21.6c-4.2-9.1-6.7-19.1-9.9-28.6c-5.9-17.5-12-34.8-21.3-50.9
		c-0.5-0.9-1-1.8-1.2-2.8c-2.4-11.4-7.9-21.6-12.7-32.1c-2.3-5-4-10.2-5.7-15.4c-5.3-15.9-10.3-32-15.7-47.9c-1.7-5-3.8-9.8-6-14.6
		c-4.3-9.5-7.5-19.2-10-29.2c-1.4-5.5-3.4-10.8-5.6-16.1c-4.9-11.8-9.2-23.8-12-36.3c-1.8-8.1-5-15.9-7.3-23.8
		c-2.6-8.9-4.8-17.6-3.5-26.9c0.4-2.9-0.1-5.6-2.2-7.9c-1.2-1.3-2.4-2.8-2.4-4.8c0-0.8,0.2-1.7,1.1-1.9c1-0.2,1.6,0.4,1.7,1.3
		C1806.2,67.1,1809.1,64.2,1811.5,63.2z"/>
	<path d="M2021.1,62.2c4,3,6.4,6.4,7.9,10.8c1.9,5.5,4.9,10.5,7.8,15.6c7.5,13.5,14.7,27,19.8,41.6c4.6,13.4,8.9,26.9,13.4,40.3
		c4.1,12.2,9.8,23.5,15.1,35c3.8,8.2,7.9,16.4,13.1,24c1.9,2.8,3,6.2,4.4,9.3c2.6,5.5,5.7,10.7,9.6,15.4c3.2,3.8,4.8,8.5,6.1,13.2
		c1.2,4.3,2.8,8.4,5.8,12c1,1.2,2.3,2.6,2.5,4.1c1.7,11.1,8.5,20.5,10.3,31.7c1.4,8.4,5.7,16,8.9,23.9c1.6,3.8,1.8,8,3.8,11.5
		c5,8.9,7.3,18.8,11.2,28.2c3.8,9.1,8.2,18,12,27.1c1.4,3.2,1.8,6.7,2.3,10.1c0.3,2-0.1,4.1-1.9,5.5c-2.1,1.5-4,0.3-5.6-0.8
		c-6.2-4.3-10.4-10.3-12.3-17.5c-1.3-5.2-2.9-10.2-5.5-14.8c-3.8-6.8-6.1-14-8.4-21.4c-1.2-3.9-2.5-7.8-4.7-11.2
		c-2.2-3.5-2.4-7.7-4.2-11.4c-5.4-10.7-9.7-21.8-13.4-33.2c-1.1-3.3-2.2-6.6-3-9.9c-1.9-9.1-5.9-17.2-10.6-25.1
		c-3.5-5.9-7.8-11.6-10.3-17.9c-4.3-10.8-11.7-19.9-15.9-30.6c-1.2-3-3.7-5.4-4.9-8.3c-5-11.5-10.2-22.8-13.9-34.9
		c-3.3-10.8-6.5-21.8-11-32.2c-0.6-1.5-1.5-3-1.6-4.6c-0.8-7.9-4.5-14.7-7.4-21.8c-4.7-11.4-9-23-13.9-34.4
		c-1.9-4.4-3.5-8.9-5.4-13.4C2019.3,73.3,2020,67.6,2021.1,62.2z"/>
	<path d="M1140.6,48.9c2.6,3.5,4,7.4,5.8,11.1c3.7,7.8,5.7,16.2,10.9,23.4c3.1,4.3,4.5,10,5.9,15.2c1.5,5.8,4.4,10.9,6.8,16.3
		c4.2,9.9,9.1,19.5,12.5,29.7c0.9,2.7,2.6,5,3.6,7.7c5.6,14.3,10.9,28.7,16.8,42.9c2.8,6.7,5.7,13.4,8.1,20.2
		c2.5,7.3,5.4,14.4,8.3,21.5c4.2,10.3,7.4,21,11.5,31.3c3,7.5,5.7,15.2,8.2,22.8c1.8,5.6,4.6,10.8,5.8,16.6c2,9.5,6.1,18.4,8.1,27.9
		c1.5,7.5,4.8,14.6,7,22c3.1,10.7,6.9,21.2,10.9,31.6c0.3,0.8,0.5,1.5,0.7,2.3c1.5,5.7-0.7,9-6.6,9.3c-2.1,0.1-3.5-1.3-4.4-2.8
		c-3.6-5.8-7.3-11.7-9.2-18.4c-3.7-13.1-8.6-25.7-12.9-38.6c-1.3-3.9-2.3-7.8-3.3-11.7c-4.8-18.5-11.5-36.3-18-54.2
		c-5.4-14.8-11.3-29.5-16.1-44.5c-4.4-13.7-9.3-27.2-14.6-40.6c-3-7.7-7.2-15-10-22.8c-5.1-14.4-12.6-27.9-16.8-42.8
		c-1.6-5.7-2.6-11.9-6.4-17c-0.2-0.3-0.5-0.7-0.5-1.1c-0.1-7.4-4.7-12.8-8.4-18.6c-2.9-4.7-4.1-10.1-6.3-15.1
		c-3.3-7.3-5.9-15.1-7.7-23c-0.3-1.2-0.4-2.4-0.6-3.6c-0.3-1.7-1.4-4.2,0.9-4.7c2.1-0.5,2.3,2.4,3,3.9c0.6,1.3,0.9,2.7,1.3,4.1
		c0.4,1.4,0.9,2.7,1.9,3.7c0.7,0.8,1.6,1.3,2.7,0.8c0.9-0.5,0.7-1.4,0.5-2.2C1139.5,50.8,1139.1,49.8,1140.6,48.9z"/>
	<path d="M78,84.5c-1.6-0.6-2.6,0-3.5,0.9c-1.9,1.8-4,1.4-6.2,0.7c-2.9-0.8-2.7-2.7-2.8-5.1c-0.1-2.7-1.2-5.3-0.9-8.3
		c0.2-2.1,4.3-2.5,1.9-5.4c-1.3-1.6-2.7-2.9-4.3-4.3c-1.5-1.3-2.1-3-1.1-4.9c1.1-1.9,2.8-2,4.8-1.5c2.9,0.7,5.5,1.5,6.1,5
		c0.1,0.8,0.3,1.7,0.8,2.3c6.6,7,8.7,16.2,12.1,24.7c0.5,1.1,0.8,2.4,1.5,3.3c4.5,5,6,11.4,8.5,17.3c0.3,0.7,0.6,1.5,1.1,2.1
		c4.5,5.6,7.1,12.3,10.8,18.3c4.2,6.8,7.8,13.7,10.5,21.1c0.1,0.2,0.1,0.4,0.2,0.6c5,7.6,9.2,15.7,12.4,24.2
		c3.8,10,11.5,17.6,15.2,27.6c2.7,7.2,7.3,13.5,10.6,20.3c2.5,5.2,4.2,10.9,6.8,16.1c6.9,13.8,14.7,27.1,20.2,41.5
		c2.5,6.5,6.7,12.1,9.5,18.3c3.3,7.4,7.2,14.5,10,22c2.2,6,6.4,10.8,8.3,16.8c3,9.6,9.4,17.4,13,26.7c0.2,0.5,0.6,1.2,1.1,1.4
		c4,1.9,5,6,7.3,9.3c3.5,4.9,5.9,10.1,6.8,16c0.4,2.9,1.7,5.3,3.3,7.7c4.3,6.3,3.9,10.9-0.7,16.7c-1.3,1.6-2.3,1.9-4,0.8
		c-1.8-1.1-3-2.5-4-4.4c-2.1-3.9-4.5-7.7-6.7-11.6c-0.7-1.2-1.9-2.6-1.8-3.8c0.4-4.4-2.3-7.1-4.7-10c-4.8-5.7-7.4-12.5-10.8-19
		c-3-5.7-6.4-11.3-8.7-17.4c-4.1-10.8-10.1-20.6-14.3-31.4c-1.7-4.5-2-9.6-6.5-12.7c-0.3-5-4.8-8.3-5.3-13.2
		c-0.3-3.5-2.4-6.5-4.5-9.1c-4.3-5.3-6.3-11.6-9-17.7c-0.5-1.1-0.3-2.4-1-3.4c-6.6-9.7-10.5-20.9-16.5-31c-0.4-0.7-0.9-1.4-1-2.2
		c-0.7-7.6-6.2-13-8.9-19.6c-2.9-7.1-8.3-12.6-10.9-20c-2-5.8-5.7-11.1-7.2-17.2c-0.1-0.4-0.4-0.7-0.7-1
		c-7.9-6.5-10.7-15.9-14.3-24.9c-1.5-3.9-3.2-7.8-5.9-11.3c-3.9-5.1-7.1-10.8-8-17.4c-0.2-1.5-1.2-2.5-1.9-3.8
		c-1.6-2.8-3.3-5.8-3.5-9c-0.4-4.2-1.6-7.6-4.9-10.6c-2.7-2.4-0.1-5.5,0.6-8.3C77.2,86.2,78.4,85.9,78,84.5z M143.7,218.9
		c-0.2,0.3-0.6,0.6-0.5,0.8c0,0.3,0.4,0.7,0.6,0.7c0.7,0,0.9-0.5,0.7-1C144.5,219.2,144,219.1,143.7,218.9z"/>
	<path d="M1548.4,411.1c0,2.8,0.3,5.5-3.2,7.1c-3.1,1.4-5.4,1.4-7.4-1.4c-0.7-1-1.8-1.8-2.3-2.8c-3.8-7.8-8.9-14.8-11.2-23.4
		c-2.1-7.8-6.4-14.9-10-22.1c-2.6-5.1-6.1-9.8-7.8-15.1c-3.4-10.7-9.4-20.2-12.9-30.8c-5-15.2-9.4-30.6-15.7-45.3
		c-4.1-9.3-6.6-19.1-9.7-28.7c-1.6-4.9-3.6-9.5-5.9-14c-5.8-11.4-10.5-23.1-13.8-35.5c-1.3-4.8-4.3-9.1-6.5-13.6
		c-0.4-0.7-1.1-1.3-1.3-2.1c-2.1-9.8-7.6-18.3-9.9-28c-1.5-6-2.8-12.2-5.5-17.9c-2.5-5.3-3-11.4-6.1-16.4c-3.1-4.9-5.3-10-6.4-15.7
		c-2-10-5.6-19.4-9.9-28.6c-1.1-2.4-2.7-4.8-1.3-7.5c2.3-4.3,0.9-8-1.9-11.2c-2.5-2.9-3.8-6-4.2-9.8c-0.2-2.2-1.4-4.2-1.9-6.4
		c-0.3-1.1-0.6-2.6,1-3.1c1.2-0.3,2,0.7,2.2,1.6c1.6,6.2,6.2,10.9,8.5,16.6c2.9,7.4,7.7,13.8,10.1,21.4
		c4.4,13.7,11.4,26.4,15.7,40.2c1.8,5.7,5.8,10.6,7.3,16.6c4.7,19,13,36.7,19.5,55c2.8,7.8,7.1,15,10.7,22.5
		c0.6,1.3,1.6,2.4,1.9,3.8c2.6,10.3,6.9,19.9,10.9,29.7c1.1,2.8,2.2,5.6,3.6,8.4c1.6,3.1,3.2,6.3,3.8,9.6
		c3.3,16.2,11.4,30.7,16.9,46.1c3,8.6,5.4,17.5,10.1,25.4c5.5,9.1,6.8,20,12.2,29c5.8,9.6,9.5,20.2,14.9,29.9
		C1547.3,402,1548.3,405.9,1548.4,411.1z"/>
	<path d="M177.1,400.8c0.1,3.7-1.7,6.4-4.9,7.6c-3.6,1.4-6.5,0.5-8.8-3.1c-3.2-5.1-6.6-10.2-8.9-15.9c-0.5-1.3-1.1-2.6-2.1-3.7
		c-3.6-3.5-6.1-7.8-7.7-12.3c-2.8-7.7-9-13.6-11.3-21.4c-1.8-6-5.5-11.1-7.5-17.1c-1.5-4.3-5.1-7.8-6.5-12.2c-1.7-5.5-6-10-6.5-16.1
		c-0.1-2-2.2-3.7-3.3-5.7c-7.3-13-15.1-25.7-19-40.3c-1.4-5.1-3.7-10.3-7.5-14.3c-1.6-1.7-2.5-3.6-3.3-5.7
		c-2.8-7.6-5.3-15.3-8.7-22.6c-2.2-4.9-5.9-9.4-7.2-14.6c-1.7-6.4-5-11.8-8.7-17.1c-0.2-0.3-0.6-0.7-0.6-1
		c-1.2-9.3-7-16.8-10.8-24.9c-3.7-8-7-16.3-10.5-24.4c-4.4-10.4-9.8-20.4-13.3-31.2c-0.7-2.1-1.5-4.2-1.6-6.5
		c-0.2-3.2-1.5-6.1-3.8-8.1c-2.2-2-2.8-4.3-3.3-6.9c-0.8-4.1-0.7-8.4-3.5-12.1c-1.5-2,2.1-3.2,2-5.7c-0.1-1.5,1.9,0.2,2.9,0.1
		c4.4-0.5,5.5,1.9,7,5.6c3.9,9.3,7.5,18.8,11.1,28.3c0.4,0.9,1,1.8,1.6,2.6c5.2,7.2,7.9,15.3,10.5,23.7c1.6,5.2,3.7,10.3,6.5,15
		c2.2,3.7,3.8,7.6,5.4,11.4c2.5,5.8,5.7,11.1,8.7,16.6c1.1,2,2.3,3.9,2.9,6c3.9,12.5,11.3,23.3,16.3,35.2
		c3.9,9.3,7.7,18.7,11.8,27.9c4.3,9.5,6.9,19.9,13.2,28.6c3.2,4.5,5.2,9.7,7.1,14.8c2.3,6.3,6.5,11.6,8.6,18
		c2.2,6.5,6.7,11.9,8.7,18.5c0.1,0.4,0.2,0.9,0.4,1.1c7.7,8,9.6,19,14.9,28.4c6.4,11.4,12.5,23,20.1,33.7c0.6,0.8,1.3,1.7,1.5,2.6
		c1,5.1,3.1,9.6,7,13.2C177,397.9,177,399.4,177.1,400.8z M14,69.3c-0.4,0.2-1.3,0.3-1.4,0.7c-0.3,1.2,0.8,1.2,1.5,1.2
		c0.6,0,1.5-0.3,1.6-0.6C16,69.5,14.9,69.5,14,69.3z"/>
	<path d="M1850.5,45.4c0.7,0.3,1.5,0.5,2.1,1c4.8,3.7,9.4,7.6,13.4,12.3c1.9,2.2,2.6,4.5,0.5,7.1c-2.3,3-1.4,6.5-0.1,9.3
		c5.2,10.7,6.9,22.4,10.5,33.6c1.1,3.4,2.8,6.7,4.4,10c3,6.1,4,12.8,5.9,19.2c2.9,9.7,5.1,19.6,7.8,29.4c2.6,9.4,5.4,18.7,8.1,28
		c1.5,5.3,3.3,10.5,4.6,15.8c3.3,13.4,8.1,26.4,13.4,39.1c3.4,8.1,4.3,16.9,7.7,25c4.1,9.7,7.4,19.8,10.7,29.7
		c3.7,11,9.4,21.1,12.6,32.2c3.2,11.1,7.8,21.8,11,32.9c2.2,7.3,4.9,14.7,4.9,22.5c0,2.4,0.3,5-2.6,6.2c-3.1,1.3-5.5,0.1-7.6-2.2
		c-0.8-0.9-1.7-1.9-2.1-3c-3.5-9.9-8.5-19.3-10.6-29.8c-2-10.2-6.3-19.7-9.7-29.4c-3.8-11.1-8.8-21.8-12.3-33.1
		c-1.4-4.5-4.2-8.3-5.7-12.7c-3.4-10.4-6.8-20.8-9.9-31.3c-2.7-9.1-5.7-18.2-8.4-27.3c-4.8-16.4-10.2-32.5-14.4-49.1
		c-5-19.9-10-39.8-16.8-59.1c-4.4-12.6-6.8-25.8-11.2-38.4c-1.4-4.2-3.7-7.7-6.1-11.1c-2.4-3.4-4.1-6.5-1.8-10.6
		c1.1-1.9,0.6-3.9-0.2-5.9c-1-2.5-1.2-5.1-0.7-7.8C1848.3,46.6,1849,45.7,1850.5,45.4z"/>
	<path d="M699.1,44.8c3.2,0.1,3.8,2,4.2,3.3c1.3,3.8,4,6,7.6,7.3c2.8,1,4,2.8,4.9,5.6c1.9,5.5,4.5,10.8,6.8,16.2
		c4.2,10.3,8.4,20.6,12.5,30.9c5.7,14.7,10.6,29.8,17.1,44.1c4.8,10.5,8.9,21.3,14.1,31.6c3.4,6.8,6.9,13.7,9.2,21.1
		c1.5,4.8,4.8,8.9,6.2,13.9c2.6,9.5,8,17.7,12.1,26.4c4.8,10.3,11.2,19.8,15,30.4c6.6,18.1,16.8,34.6,23.3,52.6
		c4.1,11.2,10.7,21.4,13.1,33.3c0.6,3.3,2.9,6.2,4.5,9.3c0.8,1.6,1.5,3.3,1.6,5.2c0.2,3.8-1.4,6.5-4.2,7.2c-4.4,1.2-7.1,0.1-9.1-3.7
		c-6.7-13.1-12.4-26.7-17.7-40.4c-3.6-9.2-7.9-18.2-12-27.2c-1.2-2.6-2.4-5.1-3.2-7.9c-1.1-4.3-2-8.6-6-11.6c-1.4-1-1.9-3-2.6-4.8
		c-4.1-11.5-9.8-22.2-15.3-33c-3.9-7.7-7.1-15.9-10.6-23.8c-2.4-5.4-4.4-10.8-6.4-16.4c-1.8-5.1-4.8-9.7-7.3-14.6
		c-0.4-0.7-1-1.4-1.2-2.1c-2.1-11.4-9.3-20.5-13.4-31c-4.1-10.4-8.4-20.7-11.4-31.4c-1.6-5.7-3.7-10.9-6.4-16.1
		c-3.3-6.4-5.3-13.5-7.3-20.5c-0.9-3.4-2.4-6.4-3.6-9.6c-2.1-5.7-2.5-11.9-6.1-17.1c-0.8-1.2-0.7-2.7-0.6-4.2
		c0.1-1.7-0.1-3.3-1.1-4.7C701.7,57.9,701.6,51.2,699.1,44.8z"/>
	<path d="M1368.8,399.5c-0.4,2.5,1.3,6.1-3,7.8c-1.9,0.7-3.4,1-5-0.6c-1.4-1.4-3.1-2.7-3.9-4.6c-2.1-4.8-3.9-9.7-5.3-14.8
		c-3.6-12.8-7.6-25.6-13.4-37.7c-3.9-8.2-7-16.9-9.8-25.5c-2.3-7.1-5.3-14-7.4-21.2c-5.7-20.1-14-39.3-20.6-59.1
		c-5.2-15.8-11.9-31-18-46.5c-0.7-1.7-1.4-3.4-1.8-5.2c-2.2-10-7-19-10.4-28.6c-3-8.4-6.3-16.6-9.3-25c-0.7-1.9-1.3-3.8-2.2-5.6
		c-4.6-9.5-8.1-19.4-10.9-29.6c-0.5-1.9-1.2-4-2.3-5.6c-3.6-5.1-5.2-10.9-6.7-16.8c-1.6-5.9-3.5-11.6-5.4-17.4
		c-1.3-3.8-0.6-7.2,1.3-10.5c0.9-1.6,2.1-1.9,3.4-0.4c1.3,1.5,2.3,3.3,3.1,5.2c4.4,10.9,8.1,22,13.9,32.3c3,5.2,4.7,11.2,6.9,16.8
		c4,10,6.8,20.4,12.6,29.6c1.6,2.5,2.8,5.4,3.8,8.3c3,9,7.5,17.4,10,26.7c1.9,7.2,5.7,13.8,8.7,20.7c0.8,1.9,2,3.6,2.5,5.5
		c3.4,12.3,8,24.3,13.1,35.9c4.8,10.8,7.8,22.1,11.5,33.3c3.2,9.6,6,19.3,9.7,28.8c4.7,12.1,8.5,24.5,12.9,36.7
		c2.8,7.8,5.6,15.6,7.8,23.7c1.6,6,4.9,11.5,6.8,17.4C1363.9,382,1369,389.8,1368.8,399.5z"/>
	<path d="M1326.9,395.3c0.3,3-0.4,4.5-0.9,6c-1,2.5-2.3,5.3-5,5.5c-2.3,0.2-3.5-2.6-4.5-4.5c-4.1-8.1-7.8-16.5-12.9-24.1
		c-0.5-0.8-1-1.9-1-2.8c0.1-11.2-5.1-21.1-8.3-31.5c-2.1-6.8-5.7-13-6.9-20.1c-0.3-1.6-1-3.1-1.8-4.5c-4.3-7.7-6.6-16-8.9-24.4
		c-1-3.7-3.2-6.9-4.3-10.7c-1.9-6.4-3.7-12.9-6.8-18.8c-1.6-3.1-2.7-6.3-3.4-9.7c-0.9-4.6-2.4-9-4.3-13.3c-0.5-1.1-1.1-2.2-1.4-3.4
		c-3.6-15.5-10.6-29.8-15.2-44.9c-4.7-15.2-10.8-29.7-16.7-44.4c-2.3-5.8-3.3-12.1-5.5-18c-3.4-8.9-4.1-18.5-8-27.3
		c-1-2.2-0.9-4.8-1.4-7.1c-1.6-8.1-5.9-15.4-6.6-23.8c-0.3-3.1-3.2-5.7-3.5-9c-0.6-7.1-3.6-13.7-3.8-20.9c0-2.1-1.2-3.8-2.2-5.6
		c-1-1.7-0.9-3.5,0-5.2c1.1-2,2.5-2.7,4.4-1.1c1.4,1.2,3.2,1.9,4,3.7c0.7,1.6,2,3.9-1.9,2.8c-1.8-0.5-2.5,1-2.7,2.5
		c-0.4,2.2,0.4,4,1.9,5.5c1.6,1.6,3.1,1.2,4.8,0c2.1-1.5,2.4,0.7,2.8,1.8c3,7,4.4,14.3,5.2,21.8c0.2,2.3,1,4.2,1.9,6.3
		c3.8,8.7,7.7,17.4,9.5,26.8c0.8,4,2,7.8,3.4,11.6c5.5,15.5,10.4,31.2,16.2,46.5c4.3,11.4,8.8,22.7,12.7,34.2
		c5.2,15.3,11.4,30.3,15.7,46c1,3.7,2.8,7.2,4.1,10.8c7.1,19.8,13.9,39.7,21.2,59.5c3.9,10.6,8.5,21,11.7,31.9
		c3.6,12.3,8.7,24,14,35.6C1324.9,384.6,1326,390.6,1326.9,395.3z"/>
	<path d="M441.1,393.1c6.4,1.5,6,1.7,8.6,7.4c3.1,6.8,6.8,13.3,10.3,19.8c1,1.8,1.7,3.6,2.3,5.6c0.9,3.3,0.3,5.2-3,6.7
		c-4.2,2-4.1,2.3-7-1.8c-0.1-0.2-0.2-0.4-0.3-0.5c-6.3-4.8-7.6-12.1-9.6-19c-0.6-2.2-1.4-4.3-3.2-5.8c-5.5-4.4-7.5-10.8-9.5-17
		c-0.8-2.5-0.8-5.1-3-7c-0.8-0.7-1.1-2.1-1.5-3.3c-1.9-5.6-4.5-10.8-8.2-15.4c-1.6-1.9-2.1-4.4-2.2-6.8c-0.1-2.3-0.6-4.7-2.3-6.2
		c-3.8-3.5-5.3-8.2-7.1-12.6c-3.6-8.6-8.1-16.8-10.2-26c-1.8-7.9-3.7-15.5-9.5-21.7c-2.7-2.9-2.7-7.5-4.2-11.2
		c-4-10.1-8.8-20-14.3-29.2c-4.8-8.1-7.3-16.7-11-25c-2.3-5.1-4.4-10.2-7.1-15.2c-2.9-5.5-6.6-11.2-7.7-17.4
		c-0.7-3.8-1.6-6.9-4.6-9.4c-1-0.9-1.8-2.3-2.1-3.6c-3.5-12.5-10.1-23.8-15.3-35.6c-0.3-0.7-0.7-1.5-0.8-2.3
		c-1.7-9.3-6.7-17.2-10.6-25.5c-0.6-1.3-1.3-2.6-0.4-4c1.4-2.2,1.4-3.9-1-5.7c-2-1.6-0.7-3.8,0.2-5.5c1-2,2.1-4,1.3-6.3
		c-0.4-1-1-1.8-2.2-1.6c-1,0.1-1.1,1-1.2,1.8c-0.1,1.7,1,4.2-1.7,4.4c-2.3,0.2-2.4-2.2-2.8-4c-1.1-3.9-2.6-7.6-3-11.7
		c-0.4-3.7-3.2-6.5-5.2-9.5c-1.4-2.1-2.9-4.1-2.6-6.6c0.3-2.8,2.7-4.6,3.8-7.1c1-2.3,5.1-1.3,6.4,1.4c1.1,2.2,1.6,4.7,1.4,7.1
		c-0.2,2.6,0.4,4.7,2.4,6.5c2.4,2.2,3.5,4.9,1.7,8.2c-1.2,2.2-0.3,3.6,2,3.9c2.6,0.3,3.8,1.7,4.6,4.1c1.2,3.7,4.6,6.6,3.4,11.2
		c-0.5,2,2.5,2.9,3.4,4.8c4,8.2,6.7,17,11.5,24.8c-0.5,5.8,3.6,10,5.3,14.9c3.5,9.9,7.8,19.4,12.6,28.7c2.1,4.1,4.2,8.3,5.2,13
		c0.6,2.5,1.4,5.1,3.4,7c1.7,1.6,2.3,3.9,2.6,6.1c0.3,2.5,1.1,4.7,2.5,6.8c6,9.4,9.1,20.2,14.2,30c4.1,7.9,8.1,15.8,11.9,23.9
		c4,8.6,7.4,17.5,11.8,25.8c3,5.7,3.6,12.4,8.3,17.2c0.5,0.5,0.8,1.4,1,2.2c2.2,10.8,9.7,19.5,11.9,30.3c0.3,1.7,1.7,3.2,2.6,4.8
		c1,2,2.4,3.8,1.7,6.3c-0.4,1.3,0.1,2.4,1.1,3.3c3,2.4,4,5.9,5.2,9.4c1.8,5.4,5.5,9.8,7.2,15.3c1.1,3.6,1.5,7.4,4,10.6
		C443.8,388.6,441.5,391,441.1,393.1z"/>
	<path d="M1571.9,67.2c0.8-2.8-0.2-5.1-1.9-7.3c-0.7-0.9-1.3-2.1-1.8-3.2c-2.4-4.9-1.7-6.2,3.3-8c1.9-0.7,3.3-0.4,4,1.3
		c3,7.5,8.3,13.9,9.3,22.3c0.5,4.6,2.1,9.1,4,13.4c3.2,7.2,4.2,15.3,9.3,21.6c1,1.3,1.6,2.9,1.8,4.5c1.2,9.4,5.1,17.8,9.6,26
		c1.5,2.6,3.1,5.4,3.6,8.4c2.4,14.9,10.6,27.5,16.2,41.2c2.2,5.4,3.4,11.2,5.8,16.6c2.7,6.1,5.2,12.3,8.3,18.2
		c2.1,4,3.6,8.1,4.4,12.6c1.2,6.5,4.8,12,7.3,18c0.2,0.6,0.7,1,0.9,1.6c3.9,14.7,12.7,27.6,15.5,42.7c0.9,4.8,2.8,9.3,5.2,13.6
		c3.3,5.9,5.4,12.2,7.1,18.7c2.6,10.2,6,20.1,10.6,29.7c4.2,8.7,7.2,18,10.7,27.1c0.4,0.9,0.4,2,0.6,3c1,5.7,0.6,7-2.9,7.9
		c-6.3,1.6-8.8,1-10.4-4c-3.1-9.5-8.8-17.8-11.3-27.4c-0.9-3.7-3.5-6.8-4.8-10.5c-2.6-7.7-5.7-15.2-6.4-23.4
		c-0.4-4.3-2.6-8.1-4-12.1c-2.7-7.4-5.6-14.8-8-22.3c-1.4-4.5-4.2-8.3-6.1-12.6c-3.1-7.3-4.3-15.2-8.3-22.1
		c-3.1-5.4-5.6-11-6.5-17.5c-0.6-4.4-3.3-8.7-5.3-12.8c-0.9-1.8-1.9-3.6-2.3-5.6c-1.6-8.3-5.9-15.4-9.6-22.8
		c-1.6-3.2-2.7-6.8-3.5-10.4c-1.1-4.8-2.9-9.2-5.3-13.5c-3.5-6.4-4.4-13.9-7.3-20.6c-3.8-8.5-6.4-17.4-10.4-25.9
		c-3.8-8.1-6.7-16.5-8.8-25.2c-0.6-2.4-1.4-4.7-2.2-7c-3.1-8.8-6.2-17.5-9.3-26.2C1572.2,72.5,1572,69.9,1571.9,67.2z"/>
	<path d="M1873.2,411.4c0,0.8,0,1.6,0,2.4c0,2.8-0.5,5.3-3.6,6.4c-2.7,0.9-6.4-0.2-8.2-2.5c-1.2-1.6-2.5-3.2-3.4-5.1
		c-4.9-10.8-12.2-20.6-14.7-32.5c-1.2-5.9-4.9-10.7-7.2-16c-4.6-10.4-8-21.2-11.5-32c-0.4-1.3-0.6-2.8-0.9-4.1
		c-1-4.7-1.5-9.5-3.5-14.1c-1.5-3.5-2.7-7.2-2.6-11.2c0-1,0-2.1-0.5-3c-3.3-6.8-4.3-14.4-7.1-21.3c-7-17.6-12.6-35.5-17.9-53.6
		c-0.6-2.1-1.7-4.1-2.6-6.1c-1.9-4-4-8-3.9-12.7c0-1-0.1-2.1-0.5-3c-3.9-7.8-5.8-16.4-9-24.5c-4.2-10.8-9.3-21.2-13.6-31.9
		c-4.4-10.8-9-21.7-11.8-33.2c-0.5-1.9-1.6-3.7-2.5-5.5c-1.2-2.4-2.3-4.8-2.4-7.5c-0.1-3.3-1-6.2-2.7-9.2c-2.5-4.5-1.6-9.9-2.4-14.9
		c-0.2-1.2,0.6-2.4,2-2.7c1.3-0.3,2.5,0.4,3,1.6c5.2,10.2,11.8,19.7,14.2,31.3c1.5,7.6,6.8,13.8,9.4,21c0.9,2.5,2.5,4.8,3,7.3
		c1.9,9.2,6.2,17.7,10,26.1c8.2,18.1,14.4,36.9,20.8,55.6c3.1,9,6.9,17.8,9.6,26.9c3.6,12.4,7.6,24.7,12.7,36.6
		c3.2,7.5,4.6,15.9,7.1,23.8c4.8,15.5,7.7,31.5,13.3,46.8c3.1,8.6,7.5,16.6,10.6,25.1c1.1,2.9,2.9,5.4,6.3,5.9
		c1.2,0.2,2.3,0.6,2.9,1.9c3.5,7.9,7.3,15.8,7.4,24.8C1873,409.4,1873.1,410.4,1873.2,411.4C1873.2,411.4,1873.2,411.4,1873.2,411.4
		z"/>
	<path d="M614.6,389.3c-3-4.6-7.3-8.2-8.9-13.7c-0.4-1.3-1.1-2.7-2.1-3.7c-4.9-4.9-6.1-11.9-9.9-17.2c-3.8-5.4-4.5-12.1-8.7-17.2
		c-1.8-2.2-1.9-5.3-2.7-7.9c-2.5-7.8-7.8-13.6-11.7-20.4c-2.5-4.4-5.4-8.6-6.3-13.7c-0.3-1.9-1.6-3.2-2.6-4.8
		c-2.1-3.5-4.4-6.8-5.2-10.9c-0.4-2.2-1.6-4.1-3.1-5.9c-1.5-1.8-2.4-3.8-3-6c-1.5-6-5-11-8.8-15.7c-1.2-1.4-2.7-2.9-2.3-4.8
		c1-5.4-2.3-9.2-4.7-13.4c-4.5-7.9-9.1-15.8-12.8-24.1c-1-2.3-1.5-4.5-0.9-7.1c0.7-3.1-0.5-6-1.5-8.9c-0.4-1.2-1.3-2.6-2.6-2.1
		c-3.2,1.4-3.8-1.1-4.9-3c-4.4-7.2-8.7-14.5-12.3-22.2c-0.6-1.3-1.5-2.5-1.7-3.9c-0.8-5.9-5.5-10.3-6.3-16.3
		c-0.2-1.4-1.7-2.7-2.8-3.9c-5.3-5.5-8.6-12.2-11.5-19.1c-0.2-0.4-0.5-0.8-0.4-1.1c1.9-5.4-2.9-7.6-5.2-11.1
		c-2.6-3.9-5.8-7.5-6.1-12.8c-0.2-3.1-2.1-6.8-4.4-9c-4.9-4.8-5.4-11.5-8.7-17c-0.3-0.5-0.8-1.5-0.6-1.7c3.8-3.7-0.8-5.8-1.7-8.5
		c-0.6-1.7-1.6-3.3-0.6-5.2c1.4-2.6,0.5-5.1-0.6-7.6c-1.2-3-2.2-6.1-3.2-9.2c-0.3-0.8-0.3-1.7,0.4-2.2c1-0.7,1.9-0.4,2.7,0.3
		c2,1.6,2.9,3.8,4,6c5.3,11.1,9.6,22.7,15.9,33.4c3.6,6.1,7,12.3,9.4,19.1c1.8,5.3,4.8,10.2,7.4,15.2c1.4,2.7,3.1,5.3,3.4,8.4
		c0.1,0.8,0.3,1.8,0.8,2.2c5,4.2,6.7,10.6,10.1,15.8c4.1,6.4,7.3,13.5,10.3,20.5c1.4,3.3,3.6,5.8,5.3,8.7
		c4.8,8.5,8.2,17.6,12.3,26.3c2.1,4.5,5.1,8.6,7.5,13c5.9,10.4,10.9,21.3,16.2,32c5.4,10.9,10.1,22.1,16.4,32.5
		c4.1,6.8,6.4,14.4,10.2,21.3c6.2,11.1,10.9,23,17.4,34c6.5,11.2,12.9,22.5,18,34.4c2.8,6.5,6.9,12.3,9.2,19c0.3,0.9,1,1.8,1.2,2.8
		c0.4,1.7,0.2,3.2-1.2,4.5c-1.5,1.4-2.9,1.4-4.3,0C616.7,385.8,615.9,388,614.6,389.3z"/>
	<path d="M156.4,47.8c-0.1-5.2,0.8-5.3,4.8-4.5c6.4,1.3,8.3,6.4,10,11.1c1.5,4.3,4.1,7.8,6,11.8c1.8,3.8,4.1,7.5,4.4,11.8
		c0.1,2.1,1.6,3.2,2.8,4.5c4.2,5,7.8,10.4,8.5,17.1c0.3,2.5,2.3,4.2,3.2,6.5c2.2,5,3.6,10.5,7.5,14.7c0.6,0.7,1,1.8,1.3,2.7
		c1.7,5.2,3.7,10.2,6.2,15.1c3.7,7.2,6,15,8.8,22.5c1.5,4.1,3.7,7.9,5,11.8c3,9.1,10.2,16.7,10.4,26.8c0.1,2.9,2.1,4.8,4,6.6
		c2.7,2.4,4.1,5.4,5,8.8c1.9,7.3,5.1,13.9,8.6,20.6c3.8,7.3,7.6,14.8,8.7,23.2c0.2,1.4,0.1,2.8,1.3,3.9c8,7.9,11.4,18.3,15.4,28.4
		c1,2.5,1.8,4.9,3.4,7c1.2,1.6,2.5,3.3,3,5.2c1.9,7.3,6.8,13.1,9.3,20.1c2.1,5.8,6.4,10.7,8.9,16.5c2.2,5,3.6,10.4,6.8,14.9
		c5.1,7.3,8.9,15.4,13.6,23c2.3,3.6,4,7.5,5.4,11.5c0.6,1.7,1.4,3.8,0.2,5.2c-1.7,2.1-3.8,4.4-6.2,5.5c-2.6,1.1-4.5-1.4-5.8-3.4
		c-1.6-2.6-2.7-5.4-4-8.1c-0.6-1.3-0.9-2.8-1.7-3.9c-6.7-9-10.6-19.6-15.2-29.6c-2.9-6.2-6.5-12-9.6-18.1
		c-3.1-6.1-5.6-12.4-8.7-18.5c-3.3-6.4-6.4-13-10.7-18.9c-0.4-0.5-0.8-1-0.9-1.6c-2.1-10.1-8.9-18.1-12.2-27.7
		c-2.2-6.5-5.8-12.4-8.6-18.7c-5.4-12.4-10.9-24.7-15.8-37.3c-3.8-9.7-8-19.2-12.6-28.6c-2.3-4.7-3.4-9.9-5.9-14.5
		c-1.8-3.4-3.3-7-4.5-10.6c-3.2-9.6-8.5-18.3-12.2-27.7c-2.7-7.1-5.9-14.2-9.4-21c-3.4-6.6-6.1-13.5-8.3-20.6
		c-0.2-0.8-0.2-1.7-0.7-2.3c-7.2-8.4-10-19.1-14.8-28.7C159.1,56.1,157.8,51.4,156.4,47.8z"/>
	<path d="M1426.7,64.7c0.7-1.9-0.1-4.5-0.3-7.1c-0.2-3.2,1.9-4.5,4.7-3.3c2.7,1.1,5.1,2.7,6.5,5.3c2.9,5.6,6.6,10.7,8.9,16.6
		c3.2,8.1,7.6,15.6,10.5,23.9c1.8,5.1,2,10.8,5,15.6c3.2,5,5.1,10.5,6.3,16.4c0.7,3.5,2.3,6.9,4,10.1c7.1,13.6,11.1,28.2,15.6,42.7
		c3.9,12.4,8.4,24.6,13.2,36.6c6.1,15.3,11.3,30.8,16,46.6c2.2,7.2,5.9,13.8,8.5,20.8c1.4,3.8,2.9,7.6,3.7,11.6
		c1.7,7.8,4.3,15.2,8,22.3c2.8,5.4,4,11.5,6,17.2c2.3,6.5,5.5,12.6,7.3,19.3c0.4,1.4,0.9,2.7,1.2,4.1c0.8,5.1-0.9,7.7-5.8,9
		c-4.1,1.1-7.5-0.7-8.6-5.4c-3.1-12.4-10.3-23.4-12.8-36c-8.1-14-11.4-29.9-16.6-45c-5.7-16.6-12.1-33-16.6-50.1
		c-2.8-10.9-7.8-21.3-12.1-31.8c-1.3-3.2-2.3-6.4-3.3-9.8c-4.6-15.8-10.5-31.1-17-46.2c-1.4-3.4-2.3-6.9-3.3-10.4
		c-2.7-9.4-6.6-18.3-9.7-27.5c-0.8-2.3-1.5-4.7-3.2-6.5c-1-1-1.8-2.3-1.9-3.7c-0.8-6.6-4.5-12.1-6.8-18.1c-1.6-4.2-5.4-7.1-6.5-11.6
		C1427.1,68.5,1426.2,67.1,1426.7,64.7z"/>
	<path d="M346.5,331c6,0,8.1,3.2,9.9,7.1c2.9,6.2,6.2,12.3,9.3,18.5c0.6,1.3,2,2.5,1.4,3.9c-1.9,3.9,0.7,5.7,2.8,8.3
		c2.6,3.2,3.8,7.7,8.2,9.4c0.4,0.2,0.7,1,0.9,1.5c1.5,4.6,3.4,9.1,4.2,14c0.3,2.1,0.2,4-1,5.8c-2.8,4.4-6,4.5-8.5,0
		c-2.6-4.8-6.1-9.1-7.3-14.6c-0.3-1.4-1-2.8-2.2-3.5c-3-1.8-1.6-5.7-3.2-7.3c-1.8-1.8-3.9-2.9-4.8-5.6c-1.1-3.5-2.5-6.8-3.4-10.4
		c-0.7-3-1.9-5.7-4.4-7.8c-3.7-3.1-5.6-7.3-6.8-11.9c-0.6-2.1-1.2-4.4-2.3-6.3c-3.9-6.6-6.7-13.7-9.8-20.8
		c-2.3-5.4-4.6-11.1-7.9-16.2c-4.3-6.7-8.8-13.6-10-21.9c-0.1-0.9-0.8-1.9-1.4-2.7c-3.3-4.6-5.1-9.6-5.4-15.3
		c-0.1-1.2-0.3-2.7-1-3.4c-3.4-3.4-4.1-7.8-5.3-12.1c-0.2-0.6-0.2-1.3-0.6-1.7c-5.2-7.5-7.2-16.6-12-24.4c-2.8-4.6-5.1-9.7-4.3-15.4
		c0.2-1.7-0.3-3.1-1.5-4.4c-7.5-7.8-11.9-17.2-14.3-27.7c-0.2-0.9-0.9-1.8-1.4-2.6c-1.3-2-3.2-3.9-3.9-6.1
		c-2.1-6.9-6.2-13.2-7.8-20.1c-1.7-7.1-5-13.2-8.2-19.5c-1.8-3.6-3.5-7.2-4.8-10.9c-2.5-6.9-5.7-13.2-10.5-18.9
		c-1.9-2.3-2-5.3-2.1-8.1c-0.1-3.1-1.1-5.4-3.4-7.5c-2.1-2-3.4-4.4-4.4-7.2c-0.8-2.4-2.3-4.8-4-6.8c-2.7-3.1-2.8-7-3.9-10.6
		c-0.2-0.7-0.1-1.8,0.3-2.3c1.8-2.1,1.6-4.4,1.1-6.9c-0.3-1.4-0.4-3.1,1.3-3.6c1.4-0.5,2.1,0.9,2.8,1.8c3.8,4.7,7.1,9.9,9.5,15.5
		c6.8,16.5,16.4,31.6,23.3,48c4.1,9.7,9,18.9,13.4,28.4c7.2,15.8,15.5,31.1,20.7,47.8c1.5,4.9,5.1,9.2,5.1,14.7
		c0,2.2,0.4,4.4-1.1,6.4c-1.9,2.4-0.6,3.6,2,4.1c4.5,0.9,6.9,3.8,7.7,8.3c0.8,4.4,3.2,8.1,5.1,12.1c2.9,6.2,6.2,12.2,8.7,18.6
		c3.6,8.9,8,17.6,12,26.4c4.1,8.8,8.3,17.6,11.4,26.9c0.4,1.1,0.8,2.4,1.4,3.4c5,7.7,8,16.4,12.2,24.4
		C349.8,324.7,350.3,327.5,346.5,331z M363.4,368.9c0,0.6,0.4,1.1,0.9,1.2c0.7,0.2,1.1-0.2,1-0.9c-0.1-0.6-0.6-1-1.2-0.9
		C363.9,368.3,363.7,368.7,363.4,368.9z"/>
	<path d="M1465.6,41.4c6.6-2.7,9.3-1.6,10.2,4.6c0.5,3.4,1.7,6.1,3.7,8.8c2.9,3.8,3.6,8.6,5.2,12.9c3.4,9.1,6.1,18.4,9.2,27.7
		c0.5,1.5,0.9,3.2,1.7,4.5c5.2,8,7.3,17.1,10.2,26c2.6,7.9,5.5,15.6,8.6,23.4c2.5,6.2,4.3,12.6,6.6,18.9
		c4.5,12.8,8.6,25.7,13.2,38.5c5.3,14.9,11,29.6,16.4,44.4c8.4,22.6,15.7,45.6,22.7,68.6c2.7,8.8,4.6,18.1,8.9,26.4
		c0.7,1.4,0.9,3.1,1.3,4.6c0.6,2.2,0.5,4.7,1.7,6.4c5.6,8.3,4.2,17.9,5.3,27c0.5,4.2-0.3,4.5-5.4,6.6c-3.3,1.3-4.7,0-6.3-2.6
		c-3.8-6-5.1-12.9-5.8-19.7c-1.2-10.2-4.9-19.7-8-29.3c-3.1-9.8-7.3-19.3-9.6-29.4c-0.7-3.1-1.5-6.3-3.5-9c-0.7-1-1.3-2.2-1.4-3.3
		c-1.8-12.6-8-23.8-11.6-35.8c-3.9-13-10-25.2-13.3-38.5c-1-4.1-3.1-7.9-4.6-11.8c-3.5-9.3-5.9-18.9-9.7-28.1
		c-2.8-6.8-3.5-14.5-6-21.6c-4.7-13.1-9.1-26.4-13.6-39.6c-1-2.8-2.2-5.5-0.8-8.8c1-2.2-1-4.3-2.2-6.1c-4.1-6.1-6.3-13.2-10-19.4
		c-0.7-1.2-0.9-2.7-1-4.1c-0.6-4.3-1.8-8.2-3.5-12.2c-3.2-7.3-5.2-14.9-5.7-22.8C1468.1,45.9,1466.6,43.8,1465.6,41.4z"/>
	<path d="M883.2,46.7c3.5,5.9,6.2,11.3,8.2,17.4c3.9,12.3,7.9,24.7,15.2,35.7c0.6,0.8,1.1,1.8,1.3,2.7c2.1,9.6,7.8,17.7,11.9,26.4
		c1.1,2.4,2.5,4.7,3.4,7.1c2,5.6,4.1,11,7.2,16.1c4.6,7.6,6.3,16.7,12.1,23.8c1,1.2,1.3,3,1.7,4.5c3,13.1,9.1,25,14.5,37.2
		c3.7,8.3,7.2,16.8,10.6,25.2c1.9,4.5,4.6,8.6,6.7,13c4.7,9.9,8.1,20.3,12.8,30.1c4.3,9,7.6,18.4,11.5,27.5c1.2,2.9,3,5.3,4.6,7.8
		c4.4,6.9,6.6,14.8,10,22.2c2.5,5.5,4.4,11.3,7.5,16.6c1.5,2.5,2.2,5.2,2.6,8.1c0.4,2.8-0.4,5.2-3.3,6.5c-3.7,1.6-5.6,1.3-8.1-1.5
		c-1.9-2.1-3.5-4.6-4.2-7.3c-0.9-3.2-2.5-5.9-4-8.7c-7.8-14-13.5-28.9-19.9-43.5c-5.7-13-11.5-25.9-17.3-38.9
		c-7.6-17-15.9-33.6-22.6-51c-4.6-11.9-9.9-23.5-14.2-35.5c-3-8.6-7.7-16.4-10.7-25.1c-1.5-4.3-4-8.3-5.9-12.6
		c-5.9-12.7-10.6-25.8-16.1-38.7c-1.7-3.9-3.7-7.6-5.6-11.5c-5.6-11.3-8.8-23.4-13.1-35.2c-1.5-4.1-0.6-8.9-3.7-12.7
		c-0.7-0.8,0.1-2.3,1.2-2.3C879.7,50.3,880.6,47.7,883.2,46.7z"/>
	<path d="M1774.3,395.1c-0.1,4.2-3.4,6.4-7.2,4.9c-2.2-0.9-3.9-2.4-4.7-4.5c-1.8-4.6-4.9-8.4-6.9-12.9c-2.1-4.7-6.4-7.8-8.4-12.6
		c-0.9-2-2.4-3.9-2.4-6.2c0-8.1-4.1-14.7-7.8-21.4c-3.5-6.2-7.8-12.2-10.2-18.6c-3.7-9.7-10.6-17.7-12.9-28.1
		c-1.6-7.1-6.1-13.2-9.6-19.5c-2.3-4.1-4.1-8.5-5.3-12.9c-2.1-7.3-5.4-14-8.3-20.9c-3.9-9.3-7.9-18.6-12.5-27.6
		c-2.9-5.7-4.3-12.2-6.6-18.3c-4.4-11.5-8.4-23.2-12.9-34.6c-3.9-9.8-6.8-20-10.8-29.7c-4.1-9.8-6.7-19.9-9.3-30.1
		c-0.8-3-1.7-6-3.5-8.4c-3.6-4.7-4.9-10.2-5.6-15.8c-0.6-4.7-1.8-9.1-3.3-13.6c-0.7-2.1-1.5-4.3-1.3-6.5c0.4-4-0.6-6.9-4.4-9.2
		c-2.6-1.5-1.9-10.2,0.7-11.4c2.1-1,3.5,0.4,4.1,2.4c0.8,3.1,1.8,6.2,3,9.2c1.4,3.8,3.6,7.2,5.3,10.9c5,10.9,9,22.1,12.9,33.5
		c2.6,7.9,7,15.1,9.2,23.1c4.6,16.4,11.2,32.1,17.9,47.8c1.6,3.7,3.2,7.5,4.4,11.3c3.8,12.4,10,23.9,12.8,36.7
		c0.6,2.8,1.7,5.4,3.7,7.6c0.5,0.6,1.1,1.3,1.3,2c4.1,13.4,12.1,25.2,16.5,38.6c4.3,13.3,9.8,26.2,17.2,38.2
		c2.6,4.3,4.3,9.2,6.3,13.8c4.7,10.6,9.9,20.9,16,30.7c2.4,3.9,3.7,8.1,5.4,12.2c4,9.7,11,18,13.1,28.7c0.3,1.5,1.4,2.9,2.2,4.3
		C1773.4,390.5,1774,392.8,1774.3,395.1z"/>
	<path d="M118.1,61.6c3.2,3.8,4.7,7.9,6.2,12c0.4,0.9,0.2,2.5,0.8,2.8c4.4,2.6,5.3,7.5,8,11.2c4.5,6.1,7.3,13.1,9.9,20.1
		c1.8,4.7,4.1,9.1,6.6,13.5c3.1,5.4,7.1,10.3,9.5,16.2c2.3,5.8,6.4,10.8,8.7,16.6c4.8,12.3,11.6,23.6,17.9,35
		c6.3,11.4,11.5,23.2,16.8,35c3,6.6,6.7,12.9,10.3,19.2c3.9,6.9,6.5,14.4,10.8,21c7.1,10.9,10.9,23.4,18.1,34.3
		c2.4,3.7,3.8,8,5.8,12c4.1,7.9,8.5,15.6,11.9,23.8c1.2,2.9,3,5.8,2.2,9.3c-0.3,1.3,0.1,2.5,1.1,3.3c5.3,4,7.1,10.2,9.4,15.9
		c1.4,3.3,2.5,6.8,1,10.6c-0.8,2.1,0.2,4.4,0.8,6.5c1.3,4.7,0.7,7.5-1.3,8.3c-2.2,0.9-3.6-0.7-5.8-5.6c-2.6-5.9-6.1-11.5-8.2-17.6
		c-2.7-7.7-8.4-13.9-10.4-21.8c-2.1-8.4-7.5-15.1-11-22.7c-3.9-8.4-8.3-16.6-12.9-24.7c-0.6-1-1.3-2.5-1-3.4
		c1.7-4.4-1.6-6.7-3.9-9.2c-4.9-5.3-8.7-11.2-10.2-18.3c-0.2-1-0.7-1.9-1.3-2.7c-6.1-7.7-9.5-16.9-13.6-25.6
		c-6-12.5-12.6-24.8-17.9-37.7c-0.5-1.1-1.1-2.2-1.8-3.1c-2.9-3.6-4.9-7.7-7-11.8c-3.1-5.9-5.7-12.1-9.4-17.6
		c-2.1-3.1-2.6-6.8-4.4-9.9c-4.4-8-8.6-16.2-13.4-24c-3.6-5.9-5.1-12.8-8.9-18.6c-5.6-8.5-8.8-18.2-13.6-27.1
		c-2.4-4.4-1.2-9.6-3.2-14.1c-0.1-0.1,0-0.5,0.1-0.5c1.7-0.5,3.7-0.5,2.7-3.5c-0.6-1.6-0.1-3.6-0.1-5.4
		C117.3,62.7,117.5,62.6,118.1,61.6z"/>
	<path d="M1808.8,385.7c-2,0.2-3.6-0.7-4.9-2.1c-2-2.2-4.2-4.4-5.3-7.4c-3.8-10.5-9.7-20.1-14.3-30.2c-3.3-7.2-6.6-14.3-9.3-21.7
		c-3.1-8.3-7.7-16.1-11.2-24.3c-6.1-14.3-12.7-28.4-18.2-43.1c-3.6-9.6-6.6-19.6-10.8-28.9c-4-8.9-7.7-17.9-10.7-27.1
		c-3.3-10-7.9-19.5-10.7-29.7c-2.7-9.9-7.5-19.2-11.1-28.9c-4-10.9-8.3-21.6-12.8-32.2c-1.2-2.8-2.1-5.7-2.7-8.7
		c-1.1-5.6-3.9-10.6-6-15.9c-2.5-6.5-5.5-13-3.4-20.4c0.5-1.8,1.3-2.9,3.3-2.9c1.8,0,3.5,0.7,3.4,2.6c-0.3,7.5,5.3,12.6,7.7,18.9
		c3.4,8.9,8.2,17.2,9.5,26.9c0.2,1.2,0.6,2.5,1.2,3.4c4.4,6.2,6.1,13.7,9.7,20.2c1.9,3.4,3.2,7,3.9,10.8c0.3,1.8,0.9,3.6,1.8,5.2
		c5.1,8.6,7.4,18.4,11.3,27.6c5.7,13.6,9.9,27.8,15.8,41.4c6.4,14.6,13.2,29.2,17.3,44.8c0.9,3.5,2.6,6.8,4.4,10
		c4.6,8.8,7.3,18.5,12.1,27.2c3.7,6.6,5.8,13.8,8.9,20.6c2.3,5.1,5.4,10,8.3,14.8c4.7,7.9,7.7,16.5,11.4,24.8
		c2.1,4.8,4.2,9.6,6.8,14.3C1817,380.7,1814.1,385.6,1808.8,385.7z"/>
	<path d="M1891.7,50.2c3.5,1.7,5.8,4.2,6.8,7.1c2,5.6,5,10.6,7.2,16.1c4.6,11.7,8.7,23.6,13.7,35.1c5.7,12.9,8.1,26.7,13,39.8
		c1.3,3.4,2.5,6.9,4,10.2c4.4,9.2,7.3,18.9,10.5,28.5c2,6.1,5.3,11.8,6.9,18.2c2.5,10,6.8,19.5,9.6,29.4c3.2,11.3,8,22.1,10.7,33.6
		c1.8,7.5,4.7,14.7,7.6,21.8c1.5,3.6,2.3,7.4,3.2,11.1c2.1,8.7,6.1,16.8,8.1,25.5c0.6,2.5,1.8,5,3,7.3c3.9,7,6.1,14.4,8,22.2
		c1.5,6.3,4.1,12.3,6.5,18.3c1.2,3.1,1.9,6.2,2.1,9.4c0.1,2.2-0.5,4.1-2.9,4.8c-2,0.6-3.9,0.6-5.6-1.2c-1.8-1.9-3.6-3.8-4.8-6.3
		c-6.6-13.5-12.4-27.4-15.4-42.2c-1.4-7-4.8-13.3-7.4-19.9c-1.1-2.8-2.6-5.5-3.3-8.5c-2.5-10.7-6.8-20.8-10.4-31.1
		c-1.2-3.4-1.7-7.1-2.9-10.5c-3.8-10.9-6.6-22.1-9.6-33.2c-0.5-2-1.1-4-2-5.8c-3.2-6.2-4.3-13-5.6-19.8c-1.2-6.1-3.4-12.1-5.6-17.9
		c-3-8-5.9-16-9.7-23.6c-2.5-5.1-3.8-10.6-5.4-16.1c-2.7-9.7-5.3-19.5-8.7-29.1c-3.9-11.1-10.3-21.1-12.3-33
		c-0.6-3.9-3-7.5-4.6-11.2c-2.2-5.1-3.9-10.2-2.5-15.9c0.5-2.3,0-4.4-1.2-6.5C1891.8,55,1891,53.2,1891.7,50.2z"/>
	<path d="M411,53.4c-3.3-1.9-5.4-4.9-8.2-7.1c-3-2.4-5.8-4.9-8.9-7.2c-1.5-1.1-2.7-2.5-3-4.4c-0.3-2-1.2-4.1,0.6-5.7
		c2.1-1.8,4.5-1.3,6.8-0.1c0.7,0.4,1.7,0.7,2,1.3C403.8,37.9,411.9,43.3,411,53.4z"/>
	<path d="M284.7,34.5c-4,0.1-5.7-1.3-5.6-4.6c0-1.2-0.5-2.4-0.8-3.5c-0.3-1.2-1.9-2.6,0-3.6c1.2-0.6,2.2,0.7,3,1.5
		c2.2,1.9,3.8,4.2,4.7,6.9c0.9,2.9,2.3,5.5,3.8,8.2c3.3,5.6,1.7,8.5-2.7,12.6c-1.5,1.3-2.6,0.3-3.6-0.7
		C278.7,46.5,278.8,41.3,284.7,34.5z"/>
	<path d="M876.3,43.7c-3,0-3.7-1-3-3.1c1.5-4.8,1.4-5.1-2.8-7.4c-1.3-0.7-2.6-1.1-2.4-2.9c0.2-2.1,1.9-1.4,3.2-1.8
		c5.9-1.6,5.9-1.7,7.9,4.2c0.4,1.1,0.9,2.2,1.4,3.3C882.6,41,880.8,43.8,876.3,43.7z"/>
	<path d="M437.5,19.9c-4.1-5.2-7.1-10.5-11.9-14.4c-1.7-1.4-1.7-3.2-0.3-4.7c1.3-1.4,4.5-1,5.2,0.9c1.4,4.1,4.4,6.6,7.3,9.4
		C440.2,13.5,440,16.5,437.5,19.9z"/>
	<path d="M1426.7,45.7c-2.9-2.7-5.6-5.3-9.1-6.8c-2.2-1-2.9-3.3-2.3-5.7c0.5-1.9,1.6-3.4,3.5-3.9c2.1-0.6,3.7,0.7,4.4,2.4
		C1425,36.2,1427.2,40.6,1426.7,45.7z"/>
	<path d="M1467.2,34.3c-1.6,0.2-3.1,0-4.3-1.5c-3.3-4.2-4.4-9.1-4.5-14.2c0-1.9,1.4-2.6,2.9-1.3c2.1,1.8,4.2,3.5,2.5,7.2
		c-1.5,3.1,0.4,5.5,3.9,5.7c1.7,0.1,3.4-0.5,3.3,2C1470.9,33.9,1470.1,34.3,1467.2,34.3z"/>
	<path d="M1736.7,53.9c0.1,4.2-1.7,5.9-5.3,5.2c-2.6-0.6-3.8-2.2-3.1-4.9c0.3-1.2,0.7-2.3,1.4-3.3c1.2-1.9,0-6.1,3-5.7
		c2.7,0.3,3.2,4.2,4,6.9C1736.8,52.6,1736.7,53.3,1736.7,53.9z"/>
	<path d="M114.2,57c-2.9-4.7-5.8-9.4-8.7-14.1c-0.3-0.5-0.4-1.1-0.6-1.7c-0.4-1.6-0.8-3.5,1.2-4.1c2-0.6,1.8,1.5,2.4,2.7
		c1.2,2.5,2.4,5.1,3.9,7.4C114.4,50.1,115.3,53,114.2,57z"/>
	<path d="M275.9,14.1c0,1,0.1,2,0,3c-0.1,1-1,1.6-1.7,1.1c-2.3-1.5-4.9-2.8-5.7-5.7c-0.6-2,0.2-3.7,1.9-4.6c1.7-1,3,0.2,4.2,1.3
		C276.2,10.6,276.3,12.3,275.9,14.1z"/>
	<path d="M551.7,36.3c-4.4-2-3.8-5.6-4.2-8.6c-0.3-2.1-1.2-5.5,1.4-5.8c2.9-0.3,3.1,3.1,3.2,5.5C552.1,30.2,551.8,32.9,551.7,36.3z"
		/>
	<path d="M1092.3,21c-0.1,1.8-0.1,3.4-1.7,3.9c-1.7,0.6-2.5-0.9-3.1-2.1c-0.6-1-0.9-2.2-1.1-3.4c-0.2-1.5-0.6-3.5,1.5-4
		c1.7-0.4,3,1,3.6,2.5C1092,19.1,1092.1,20.3,1092.3,21z"/>
	<path d="M870.5,15.4c1.6,0.9,1.8,2.2,2.1,3.3c1,3.5,0.4,4.3-3.2,4.3c-1.9,0-2.7-0.7-2.2-2.5c0.2-0.8,0.5-1.5,0.9-2.2
		C868.7,17.2,869,15.9,870.5,15.4z"/>
	<path d="M142.5,0.1c1.8,0.2,5.6,5.7,5.2,7.4c-0.3,0.9-1,1.3-1.8,0.9c-2.5-1.5-4.4-3.4-5.1-6.3C140.6,0.9,141.3,0.1,142.5,0.1z"/>
	<path d="M213,27.6c0,1.2-0.6,1.9-1.7,2.1c-1.3,0.2-3.9-2.7-4.1-4.6c-0.1-1.3,0.6-1.9,1.8-1.9C211,23.1,213,25.3,213,27.6z"/>
	<path d="M1344.1,8.6c2.3,0,4.7,2,4.4,4c-0.1,0.8-0.6,1.6-1.5,1.7c-1.2,0.1-4.4-3.4-4.2-4.6C1342.9,9,1343.4,8.6,1344.1,8.6z"/>
	<path d="M1225.6,20.4c1.9,0.5,1.8,2.4,1.7,4c0,1-0.5,2.4-1.6,2.1c-2.2-0.5-1.4-2.6-1.6-4.1C1223.9,21.5,1224.3,20.1,1225.6,20.4z"
		/>
	<path d="M1671.6,52.7c-0.8-0.2-1.7-0.2-2.2-0.6c-1.4-1-1.9-2.5-1.1-4.2c0.1-0.3,0.7-0.6,1-0.6c1.9,0.2,1.8,1.8,2.1,3.1
		c0.2,0.8,0.2,1.6,0.3,2.4L1671.6,52.7z"/>
	<path d="M207.3,37.1c2.5,0.8,2.9,2.6,3.2,4.7C208.4,40.4,208.4,40.4,207.3,37.1z"/>
	<path d="M1092.8,28.7c0.5,2,0.8,2.7,1,3.5c0.2,0.8,0.2,1.8-0.9,1.8c-1.2,0-1.8-0.8-1.5-2C1091.5,31.3,1091.9,30.6,1092.8,28.7z"/>
	<path d="M2.3,47.8c1,0.1,1.6,0.6,1.6,1.5c-0.1,1.2-1,1.6-2,1.7c-0.8,0-1.8-0.1-1.8-1C-0.1,48.4,1.2,48,2.3,47.8z"/>
	<path d="M1277.4,26.1c-0.1-0.7,0.2-1.2,0.8-1.3c0.9-0.1,1.5,0.5,1.8,1.3c0.3,0.9,0.1,1.7-1,1.6
		C1278.2,27.6,1277.7,26.9,1277.4,26.1z"/>
	<path d="M154.6,38.4c0,0.6-0.2,1.3-0.9,1.3c-1-0.1-0.9-1.1-0.9-1.8c0-0.3,0.3-0.9,0.5-0.9C154.4,36.8,154.5,37.7,154.6,38.4z"/>
	<path d="M697.6,36.6c0.5,0.1,1.1,0.6,1.3,1.4c0.1,0.7-0.3,1.2-1,1.1c-0.8-0.1-1.5-0.6-1.7-1.4C696.1,37,696.5,36.6,697.6,36.6z"/>
	<path d="M1877.5,27.5c0.2,0.3,0.7,0.6,0.6,0.8c-0.1,0.7-0.6,1-1.2,0.7c-0.2-0.1-0.4-0.7-0.3-1C1876.8,27.8,1877.2,27.7,1877.5,27.5
		z"/>
	<path d="M1671.5,52.8c-0.1,1.3,2,1.9,1,3.6c-1.5-1-1-2.4-1-3.7C1671.6,52.7,1671.5,52.8,1671.5,52.8z"/>
	<path d="M590,59.1c0.2,0.2,0.7,0.4,0.7,0.6c0.1,0.6-0.3,1-0.9,0.9c-0.2-0.1-0.5-0.6-0.4-0.8C589.3,59.5,589.7,59.3,590,59.1z"/>
	<path d="M1505.1,4.4c0.3,0.2,0.6,0.4,0.8,0.6c-0.2,0.3-0.4,0.7-0.7,0.8c-0.2,0.1-0.7-0.4-0.7-0.5C1504.6,5,1504.9,4.7,1505.1,4.4z"
		/>
	<path d="M1095.3,39.3c-0.2-0.1-0.3-0.2-0.5-0.3c0.2-0.2,0.4-0.5,0.7-0.6c0,0,0.3,0.2,0.4,0.3C1095.8,38.9,1095.6,39.1,1095.3,39.3z
		"/>
</g>
</svg>
