<?xml version="1.0" encoding="utf-8"?>
<svg version="1.1" xmlns="http://www.w3.org/2000/svg" xmlns:xlink="http://www.w3.org/1999/xlink" x="0px" y="0px"
	 viewBox="0 0 900 900" style="enable-background:new 0 0 900 900;" xml:space="preserve" title="YouTube">
<g>
	<polygon points="382.9,534.4 558.2,443.6 382.9,351.8 	"/>
	<path d="M450,0C201.5,0,0,201.5,0,450s201.5,450,450,450s450-201.5,450-450S698.5,0,450,0z M774.7,474.4c0,52.6-6.5,105-6.5,105
		s-6.5,44.7-25.9,64.4c-24.7,25.9-52.4,26.2-65,27.6c-90.9,6.8-227.4,6.8-227.4,6.8s-169.1-1.5-220.9-6.5
		c-14.4-2.6-47.1-1.8-71.5-27.9c-19.4-19.7-25.9-64.4-25.9-64.4s-6.5-52.6-6.5-105V425c0-52.6,6.5-105,6.5-105s6.5-44.7,25.9-64.4
		c24.7-25.9,52.4-25.9,65-27.6c90.9-6.8,227.4-6.8,227.4-6.8h0.3c0,0,136.5,0,227.4,6.8c12.6,1.5,40.6,1.5,65,27.6
		c19.4,19.7,25.9,64.4,25.9,64.4s6.5,52.6,6.5,105L774.7,474.4L774.7,474.4z"/>
</g>
</svg>
